<?xml version="1.0" encoding="UTF-8"?>
<!DOCTYPE svg PUBLIC "-//W3C//DTD SVG 1.1//EN" "http://www.w3.org/Graphics/SVG/1.1/DTD/svg11.dtd">
<!-- Creator: CorelDRAW X6 -->
<svg xmlns="http://www.w3.org/2000/svg" xml:space="preserve" width="33.5037mm" height="33.504mm" version="1.1" style="shape-rendering:geometricPrecision; text-rendering:geometricPrecision; image-rendering:optimizeQuality; fill-rule:evenodd; clip-rule:evenodd"
viewBox="0 0 135 135"
 xmlns:xlink="http://www.w3.org/1999/xlink">
 <defs>
  <style type="text/css">
   <![CDATA[
    .fil0 {fill:#0000FA}
   ]]>
  </style>
 </defs>
 <g id="Layer_x0020_1">
  <metadata id="CorelCorpID_0Corel-Layer"/>
  <path class="fil0" d="M67 0l4 0 3 0 4 1 3 0 3 1 3 1 3 1 4 1 2 2 3 1 3 2 3 2 3 1 2 2 3 3 2 2 2 2 2 3 2 2 2 3 2 2 2 3 1 3 1 3 2 3 1 3 1 4 0 3 1 3 0 3 1 4 0 3 0 4 -1 3 0 4 -1 3 0 3 -1 3 -1 3 -2 4 -1 2 -1 3 -2 3 -2 3 -2 3 -2 2 -2 3 -2 2 -2 2 -3 2 -2 2 -3 2 -3 2 -3 2 -3 1 -2 1 -4 2 -3 1 -3 1 -3 0 -3 1 -4 0 -3 1 -4 0 -3 0 -4 -1 -3 0 -3 -1 -3 0 -4 -1 -3 -1 -3 -2 -3 -1 -3 -1 -3 -2 -2 -2 -3 -2 -2 -2 -3 -2 -2 -2 -2 -2 -3 -3 -2 -2 -1 -3 -2 -3 -2 -3 -1 -3 -2 -2 -1 -4 -1 -3 -1 -3 -1 -3 0 -3 -1 -4 0 -3 0 -4 0 -3 0 -4 1 -3 0 -3 1 -3 1 -4 1 -3 1 -3 2 -3 1 -3 2 -3 2 -2 1 -3 2 -2 3 -3 2 -2 2 -2 3 -3 2 -2 3 -1 2 -2 3 -2 3 -1 3 -2 3 -1 3 -1 4 -1 3 -1 3 0 3 -1 4 0 3 0zm-8 128l0 -78 -21 6 29 -50 30 50 -22 -6 0 78 -16 0z"/>
 </g>
</svg>
