<?xml version="1.0" encoding="utf-8"?>
<!-- Generator: Adobe Illustrator 16.0.0, SVG Export Plug-In . SVG Version: 6.00 Build 0)  -->
<!DOCTYPE svg PUBLIC "-//W3C//DTD SVG 1.1//EN" "http://www.w3.org/Graphics/SVG/1.1/DTD/svg11.dtd">
<svg version="1.1" id="Layer_1" xmlns="http://www.w3.org/2000/svg" xmlns:xlink="http://www.w3.org/1999/xlink" x="0px" y="0px"
	 width="80.1px" height="80.1px" viewBox="0 0 80.1 80.1" enable-background="new 0 0 80.1 80.1" xml:space="preserve">
<polygon fill="none" stroke="#231F20" stroke-width="0.1" stroke-miterlimit="22.9256" points="40.053,0.05 42.104,0.103 
	44.131,0.257 46.129,0.512 48.096,0.865 50.028,1.313 51.924,1.854 53.781,2.484 55.597,3.203 57.368,4.005 59.092,4.89 
	60.767,5.855 62.39,6.897 63.958,8.014 65.47,9.203 66.922,10.462 68.312,11.787 69.638,13.177 70.896,14.629 72.085,16.141 
	73.201,17.709 74.244,19.333 75.209,21.007 76.094,22.731 76.897,24.503 77.614,26.318 78.246,28.176 78.786,30.072 79.234,32.005 
	79.587,33.972 79.843,35.971 79.997,37.998 80.05,40.05 79.997,42.103 79.843,44.129 79.587,46.127 79.234,48.094 78.786,50.027 
	78.246,51.923 77.614,53.781 76.897,55.597 76.094,57.367 75.209,59.092 74.244,60.767 73.201,62.39 72.085,63.958 70.896,65.47 
	69.638,66.922 68.312,68.312 66.922,69.638 65.47,70.896 63.958,72.085 62.39,73.202 60.767,74.244 59.092,75.209 57.368,76.095 
	55.597,76.897 53.781,77.615 51.924,78.246 50.028,78.787 48.096,79.234 46.129,79.588 44.131,79.843 42.104,79.998 40.053,80.05 
	38,79.998 35.974,79.843 33.975,79.588 32.008,79.234 30.074,78.787 28.178,78.246 26.32,77.615 24.505,76.897 22.733,76.095 
	21.009,75.209 19.334,74.244 17.711,73.202 16.143,72.085 14.631,70.896 13.178,69.638 11.788,68.312 10.463,66.922 9.204,65.47 
	8.015,63.958 6.898,62.39 5.855,60.767 4.891,59.092 4.006,57.367 3.202,55.597 2.484,53.781 1.854,51.924 1.313,50.027 
	0.865,48.094 0.512,46.127 0.257,44.129 0.102,42.103 0.05,40.05 0.102,37.998 0.257,35.971 0.512,33.972 0.865,32.005 
	1.313,30.072 1.854,28.176 2.484,26.318 3.202,24.503 4.006,22.731 4.891,21.007 5.855,19.333 6.898,17.709 8.015,16.141 
	9.204,14.629 10.463,13.177 11.788,11.787 13.178,10.462 14.631,9.203 16.143,8.014 17.711,6.897 19.334,5.855 21.009,4.89 
	22.733,4.005 24.505,3.203 26.32,2.484 28.178,1.854 30.074,1.313 32.008,0.865 33.975,0.512 35.974,0.257 38,0.103 "/>
<path fill-rule="evenodd" clip-rule="evenodd" fill="#0001FE" d="M40.052,1.387c0.661,0.017,1.322,0.033,1.984,0.05
	c0.653,0.05,1.306,0.1,1.959,0.15c0.644,0.082,1.287,0.165,1.931,0.247c0.634,0.113,1.267,0.227,1.9,0.341
	c0.622,0.145,1.245,0.289,1.868,0.433c0.61,0.174,1.221,0.348,1.832,0.522c0.599,0.204,1.196,0.407,1.795,0.61
	c0.585,0.231,1.17,0.462,1.754,0.694c0.571,0.259,1.142,0.517,1.712,0.776c0.556,0.286,1.111,0.57,1.667,0.856
	c0.54,0.311,1.079,0.622,1.619,0.933c0.522,0.336,1.046,0.672,1.569,1.007c0.505,0.36,1.011,0.72,1.516,1.08
	c0.487,0.383,0.975,0.766,1.462,1.149c0.468,0.406,0.936,0.811,1.404,1.217c0.448,0.427,0.896,0.854,1.344,1.282
	c0.427,0.448,0.854,0.896,1.281,1.344c0.406,0.468,0.812,0.936,1.218,1.404c0.383,0.487,0.766,0.974,1.149,1.461
	c0.36,0.506,0.72,1.011,1.079,1.517c0.337,0.523,0.672,1.046,1.008,1.569c0.311,0.54,0.622,1.08,0.933,1.62
	c0.286,0.556,0.57,1.111,0.855,1.667c0.259,0.571,0.519,1.142,0.776,1.712c0.231,0.584,0.463,1.169,0.694,1.754
	c0.203,0.598,0.406,1.197,0.609,1.795c0.175,0.611,0.348,1.222,0.522,1.833c0.145,0.623,0.289,1.246,0.433,1.868
	c0.114,0.634,0.228,1.268,0.342,1.901c0.082,0.644,0.164,1.288,0.246,1.932c0.05,0.653,0.1,1.306,0.15,1.959
	c0.017,0.662,0.033,1.323,0.051,1.985c-0.018,0.662-0.034,1.323-0.051,1.984c-0.051,0.653-0.101,1.307-0.15,1.959
	c-0.082,0.644-0.164,1.287-0.246,1.931c-0.114,0.633-0.228,1.267-0.342,1.9c-0.144,0.623-0.288,1.246-0.433,1.869
	c-0.175,0.611-0.348,1.221-0.522,1.832c-0.203,0.599-0.406,1.197-0.609,1.795c-0.231,0.585-0.463,1.17-0.694,1.755
	c-0.258,0.57-0.518,1.142-0.776,1.712c-0.285,0.556-0.569,1.111-0.855,1.667c-0.311,0.539-0.622,1.079-0.933,1.619
	c-0.336,0.522-0.671,1.046-1.008,1.569c-0.359,0.505-0.719,1.011-1.079,1.516c-0.384,0.487-0.767,0.975-1.149,1.462
	c-0.406,0.468-0.812,0.937-1.218,1.404c-0.427,0.448-0.854,0.896-1.281,1.344c-0.448,0.428-0.896,0.854-1.344,1.282
	c-0.469,0.405-0.937,0.812-1.404,1.217c-0.487,0.383-0.975,0.767-1.462,1.149c-0.505,0.36-1.011,0.72-1.516,1.08
	c-0.523,0.336-1.047,0.672-1.569,1.008c-0.54,0.311-1.079,0.622-1.619,0.933c-0.556,0.285-1.111,0.57-1.667,0.855
	c-0.57,0.259-1.141,0.518-1.712,0.776c-0.584,0.231-1.169,0.463-1.754,0.694c-0.599,0.203-1.196,0.405-1.795,0.609
	c-0.611,0.174-1.222,0.348-1.832,0.522c-0.623,0.144-1.246,0.288-1.868,0.433c-0.634,0.113-1.267,0.228-1.9,0.341
	c-0.644,0.083-1.287,0.165-1.931,0.247c-0.653,0.05-1.306,0.1-1.959,0.149c-0.662,0.018-1.323,0.034-1.984,0.051
	c-0.662-0.017-1.323-0.033-1.984-0.051c-0.653-0.05-1.307-0.1-1.96-0.149c-0.644-0.082-1.287-0.164-1.932-0.247
	c-0.634-0.113-1.267-0.228-1.9-0.341c-0.623-0.145-1.246-0.289-1.868-0.433c-0.611-0.175-1.222-0.349-1.833-0.522
	c-0.599-0.204-1.196-0.406-1.795-0.609c-0.585-0.231-1.17-0.463-1.755-0.694c-0.57-0.259-1.142-0.518-1.712-0.776
	c-0.556-0.285-1.111-0.57-1.667-0.855c-0.54-0.311-1.079-0.622-1.619-0.933c-0.523-0.336-1.046-0.672-1.569-1.008
	c-0.506-0.36-1.011-0.72-1.517-1.08c-0.487-0.383-0.975-0.767-1.462-1.149c-0.468-0.405-0.936-0.812-1.404-1.217
	c-0.448-0.428-0.896-0.854-1.344-1.282c-0.428-0.448-0.854-0.896-1.282-1.344c-0.405-0.468-0.812-0.937-1.217-1.404
	c-0.383-0.487-0.767-0.975-1.149-1.462c-0.36-0.505-0.72-1.011-1.08-1.516C7.666,61.123,7.33,60.6,6.994,60.077
	c-0.311-0.54-0.622-1.08-0.933-1.619c-0.285-0.556-0.57-1.111-0.856-1.667c-0.258-0.57-0.517-1.142-0.775-1.712
	c-0.231-0.585-0.463-1.17-0.694-1.755c-0.203-0.598-0.406-1.196-0.609-1.795c-0.174-0.611-0.349-1.221-0.522-1.832
	c-0.145-0.623-0.289-1.246-0.433-1.869c-0.114-0.633-0.228-1.267-0.342-1.9c-0.082-0.644-0.164-1.288-0.246-1.931
	c-0.05-0.653-0.101-1.306-0.15-1.959c-0.017-0.661-0.033-1.323-0.05-1.984c0.017-0.662,0.033-1.323,0.05-1.985
	c0.05-0.653,0.101-1.306,0.15-1.959c0.082-0.644,0.164-1.288,0.246-1.932c0.114-0.633,0.228-1.267,0.342-1.901
	c0.144-0.623,0.288-1.245,0.433-1.868c0.174-0.611,0.349-1.222,0.522-1.833c0.203-0.598,0.406-1.197,0.609-1.795
	c0.231-0.585,0.463-1.17,0.694-1.754c0.259-0.571,0.518-1.142,0.775-1.712c0.286-0.556,0.571-1.111,0.856-1.667
	c0.311-0.54,0.622-1.08,0.933-1.62c0.336-0.523,0.672-1.046,1.008-1.569c0.36-0.505,0.72-1.011,1.08-1.517
	c0.383-0.487,0.767-0.974,1.149-1.461c0.405-0.468,0.812-0.936,1.217-1.404c0.428-0.448,0.854-0.896,1.282-1.344
	c0.447-0.427,0.896-0.854,1.344-1.282c0.469-0.406,0.937-0.811,1.404-1.217c0.487-0.383,0.975-0.767,1.462-1.149
	c0.506-0.36,1.011-0.72,1.517-1.08c0.523-0.335,1.046-0.671,1.569-1.007c0.54-0.311,1.079-0.622,1.619-0.933
	c0.556-0.286,1.111-0.57,1.667-0.856c0.57-0.259,1.142-0.517,1.712-0.776c0.585-0.231,1.17-0.462,1.755-0.694
	c0.599-0.203,1.196-0.406,1.795-0.61c0.611-0.174,1.222-0.348,1.833-0.522c0.622-0.145,1.245-0.289,1.868-0.433
	c0.634-0.114,1.267-0.228,1.9-0.341c0.645-0.082,1.288-0.165,1.932-0.247c0.653-0.05,1.307-0.1,1.96-0.15
	C38.729,1.42,39.39,1.404,40.052,1.387z"/>
<path fill="none" stroke="#231F20" stroke-width="0.1" stroke-miterlimit="22.9256" d="M40.052,1.387
	c0.661,0.017,1.322,0.033,1.984,0.05c0.653,0.05,1.306,0.1,1.959,0.15c0.644,0.082,1.287,0.165,1.931,0.247
	c0.634,0.113,1.267,0.227,1.9,0.341c0.622,0.145,1.245,0.289,1.868,0.433c0.61,0.174,1.221,0.348,1.832,0.522
	c0.599,0.204,1.196,0.407,1.795,0.61c0.585,0.231,1.17,0.462,1.754,0.694c0.571,0.259,1.142,0.517,1.712,0.776
	c0.556,0.286,1.111,0.57,1.667,0.856c0.54,0.311,1.079,0.622,1.619,0.933c0.522,0.336,1.046,0.672,1.569,1.007
	c0.505,0.36,1.011,0.72,1.516,1.08c0.487,0.383,0.975,0.766,1.462,1.149c0.468,0.406,0.936,0.811,1.404,1.217
	c0.448,0.427,0.896,0.854,1.344,1.282c0.427,0.448,0.854,0.896,1.281,1.344c0.406,0.468,0.812,0.936,1.218,1.404
	c0.383,0.487,0.766,0.974,1.149,1.461c0.36,0.506,0.72,1.011,1.079,1.517c0.337,0.523,0.672,1.046,1.008,1.569
	c0.311,0.54,0.622,1.08,0.933,1.62c0.286,0.556,0.57,1.111,0.855,1.667c0.259,0.571,0.519,1.142,0.776,1.712
	c0.231,0.584,0.463,1.169,0.694,1.754c0.203,0.598,0.406,1.197,0.609,1.795c0.175,0.611,0.348,1.222,0.522,1.833
	c0.145,0.623,0.289,1.246,0.433,1.868c0.114,0.634,0.228,1.268,0.342,1.901c0.082,0.644,0.164,1.288,0.246,1.932
	c0.05,0.653,0.1,1.306,0.15,1.959c0.017,0.662,0.033,1.323,0.051,1.985c-0.018,0.662-0.034,1.323-0.051,1.984
	c-0.051,0.653-0.101,1.307-0.15,1.959c-0.082,0.644-0.164,1.287-0.246,1.931c-0.114,0.633-0.228,1.267-0.342,1.9
	c-0.144,0.623-0.288,1.246-0.433,1.869c-0.175,0.611-0.348,1.221-0.522,1.832c-0.203,0.599-0.406,1.197-0.609,1.795
	c-0.231,0.585-0.463,1.17-0.694,1.755c-0.258,0.57-0.518,1.142-0.776,1.712c-0.285,0.556-0.569,1.111-0.855,1.667
	c-0.311,0.539-0.622,1.079-0.933,1.619c-0.336,0.522-0.671,1.046-1.008,1.569c-0.359,0.505-0.719,1.011-1.079,1.516
	c-0.384,0.487-0.767,0.975-1.149,1.462c-0.406,0.468-0.812,0.937-1.218,1.404c-0.427,0.448-0.854,0.896-1.281,1.344
	c-0.448,0.428-0.896,0.854-1.344,1.282c-0.469,0.405-0.937,0.812-1.404,1.217c-0.487,0.383-0.975,0.767-1.462,1.149
	c-0.505,0.36-1.011,0.72-1.516,1.08c-0.523,0.336-1.047,0.672-1.569,1.008c-0.54,0.311-1.079,0.622-1.619,0.933
	c-0.556,0.285-1.111,0.57-1.667,0.855c-0.57,0.259-1.141,0.518-1.712,0.776c-0.584,0.231-1.169,0.463-1.754,0.694
	c-0.599,0.203-1.196,0.405-1.795,0.609c-0.611,0.174-1.222,0.348-1.832,0.522c-0.623,0.144-1.246,0.288-1.868,0.433
	c-0.634,0.113-1.267,0.228-1.9,0.341c-0.644,0.083-1.287,0.165-1.931,0.247c-0.653,0.05-1.306,0.1-1.959,0.149
	c-0.662,0.018-1.323,0.034-1.984,0.051c-0.662-0.017-1.323-0.033-1.984-0.051c-0.653-0.05-1.307-0.1-1.96-0.149
	c-0.644-0.082-1.287-0.164-1.932-0.247c-0.634-0.113-1.267-0.228-1.9-0.341c-0.623-0.145-1.246-0.289-1.868-0.433
	c-0.611-0.175-1.222-0.349-1.833-0.522c-0.599-0.204-1.196-0.406-1.795-0.609c-0.585-0.231-1.17-0.463-1.755-0.694
	c-0.57-0.259-1.142-0.518-1.712-0.776c-0.556-0.285-1.111-0.57-1.667-0.855c-0.54-0.311-1.079-0.622-1.619-0.933
	c-0.523-0.336-1.046-0.672-1.569-1.008c-0.506-0.36-1.011-0.72-1.517-1.08c-0.487-0.383-0.975-0.767-1.462-1.149
	c-0.468-0.405-0.936-0.812-1.404-1.217c-0.448-0.428-0.896-0.854-1.344-1.282c-0.428-0.448-0.854-0.896-1.282-1.344
	c-0.405-0.468-0.812-0.937-1.217-1.404c-0.383-0.487-0.767-0.975-1.149-1.462c-0.36-0.505-0.72-1.011-1.08-1.516
	C7.666,61.123,7.33,60.6,6.994,60.077c-0.311-0.54-0.622-1.08-0.933-1.619c-0.285-0.556-0.57-1.111-0.856-1.667
	c-0.258-0.57-0.517-1.142-0.775-1.712c-0.231-0.585-0.463-1.17-0.694-1.755c-0.203-0.598-0.406-1.196-0.609-1.795
	c-0.174-0.611-0.349-1.221-0.522-1.832c-0.145-0.623-0.289-1.246-0.433-1.869c-0.114-0.633-0.228-1.267-0.342-1.9
	c-0.082-0.644-0.164-1.288-0.246-1.931c-0.05-0.653-0.101-1.306-0.15-1.959c-0.017-0.661-0.033-1.323-0.05-1.984
	c0.017-0.662,0.033-1.323,0.05-1.985c0.05-0.653,0.101-1.306,0.15-1.959c0.082-0.644,0.164-1.288,0.246-1.932
	c0.114-0.633,0.228-1.267,0.342-1.901c0.144-0.623,0.288-1.245,0.433-1.868c0.174-0.611,0.349-1.222,0.522-1.833
	c0.203-0.598,0.406-1.197,0.609-1.795c0.231-0.585,0.463-1.17,0.694-1.754c0.259-0.571,0.518-1.142,0.775-1.712
	c0.286-0.556,0.571-1.111,0.856-1.667c0.311-0.54,0.622-1.08,0.933-1.62c0.336-0.523,0.672-1.046,1.008-1.569
	c0.36-0.505,0.72-1.011,1.08-1.517c0.383-0.487,0.767-0.974,1.149-1.461c0.405-0.468,0.812-0.936,1.217-1.404
	c0.428-0.448,0.854-0.896,1.282-1.344c0.447-0.427,0.896-0.854,1.344-1.282c0.469-0.406,0.937-0.811,1.404-1.217
	c0.487-0.383,0.975-0.767,1.462-1.149c0.506-0.36,1.011-0.72,1.517-1.08c0.523-0.335,1.046-0.671,1.569-1.007
	c0.54-0.311,1.079-0.622,1.619-0.933c0.556-0.286,1.111-0.57,1.667-0.856c0.57-0.259,1.142-0.517,1.712-0.776
	c0.585-0.231,1.17-0.462,1.755-0.694c0.599-0.203,1.196-0.406,1.795-0.61c0.611-0.174,1.222-0.348,1.833-0.522
	c0.622-0.145,1.245-0.289,1.868-0.433c0.634-0.114,1.267-0.228,1.9-0.341c0.645-0.082,1.288-0.165,1.932-0.247
	c0.653-0.05,1.307-0.1,1.96-0.15C38.729,1.42,39.39,1.404,40.052,1.387z"/>
<path fill-rule="evenodd" clip-rule="evenodd" fill="#FFFFFF" d="M16.543,65.852V49.49c0.742-15.015,9.087-23.869,23.877-24.14
	h7.386L44.097,13.1l29.126,16.852L44.097,46.706l3.709-12.23H40.42c-7.915,0-14.79,6.901-14.79,15.015v16.361H16.543z"/>
<path fill="none" stroke="#231F20" stroke-width="0.1" stroke-miterlimit="22.9256" d="M16.543,65.852V49.49
	c0.742-15.015,9.087-23.869,23.877-24.14h7.386L44.097,13.1l29.126,16.852L44.097,46.706l3.709-12.23H40.42
	c-7.915,0-14.79,6.901-14.79,15.015v16.361H16.543z"/>
</svg>
