<?xml version="1.0" encoding="UTF-8"?>
<!DOCTYPE svg PUBLIC "-//W3C//DTD SVG 1.1//EN" "http://www.w3.org/Graphics/SVG/1.1/DTD/svg11.dtd">
<!-- Creator: CorelDRAW X6 -->
<svg xmlns="http://www.w3.org/2000/svg" xml:space="preserve" width="33.504mm" height="33.5037mm" version="1.1" style="shape-rendering:geometricPrecision; text-rendering:geometricPrecision; image-rendering:optimizeQuality; fill-rule:evenodd; clip-rule:evenodd"
viewBox="0 0 168 168"
 xmlns:xlink="http://www.w3.org/1999/xlink">
 <defs>
  <style type="text/css">
   <![CDATA[
    .fil0 {fill:#0000FA}
   ]]>
  </style>
 </defs>
 <g id="Layer_x0020_1">
  <metadata id="CorelCorpID_0Corel-Layer"/>
  <path class="fil0" d="M84 0c2,0 3,0 5,0 1,0 2,0 4,0 1,1 3,1 4,1 1,0 3,0 4,1 1,0 3,0 4,1 2,0 3,0 4,1 1,0 3,1 4,1 1,1 3,1 4,2 1,0 2,1 4,1 1,1 2,2 3,2 1,1 3,2 4,2 1,1 2,2 3,2 1,1 2,2 4,3 1,1 2,1 3,2 1,1 2,2 3,3 1,1 2,2 3,3 1,1 2,2 2,3 1,1 2,2 3,3 1,1 2,2 3,3 0,1 1,2 2,3 1,1 1,2 2,4 1,1 2,2 2,3 1,1 1,3 2,4 1,1 1,2 2,3 0,2 1,3 1,4 1,2 1,3 2,4 0,2 0,3 1,4 0,2 0,3 1,4 0,2 0,3 0,4 1,2 1,3 1,5 0,1 0,2 0,4 0,1 0,3 0,4 0,2 0,3 0,5 0,1 0,2 0,4 0,1 0,3 -1,4 0,1 0,3 0,4 -1,1 -1,3 -1,4 -1,2 -1,3 -1,4 -1,1 -1,3 -2,4 0,1 -1,3 -1,4 -1,1 -1,2 -2,4 -1,1 -1,2 -2,3 0,1 -1,3 -2,4 -1,1 -1,2 -2,3 -1,1 -2,2 -2,4 -1,1 -2,2 -3,3 -1,1 -2,2 -3,3 0,1 -1,2 -2,3 -1,1 -2,2 -3,2 -1,1 -2,2 -3,3 -1,1 -2,2 -3,3 -2,0 -3,1 -4,2 -1,1 -2,1 -3,2 -1,1 -3,2 -4,2 -1,1 -2,1 -3,2 -2,1 -3,1 -4,2 -1,0 -3,1 -4,1 -1,1 -3,1 -4,2 -1,0 -2,0 -4,1 -1,0 -3,0 -4,1 -1,0 -3,0 -4,0 -1,1 -3,1 -4,1 -2,0 -3,0 -4,0 -2,0 -3,0 -5,0 -1,0 -3,0 -4,0 -2,0 -3,0 -4,0 -2,0 -3,0 -5,-1 -1,0 -2,0 -4,0 -1,-1 -2,-1 -4,-1 -1,-1 -2,-1 -4,-1 -1,-1 -2,-1 -4,-2 -1,0 -2,-1 -4,-1 -1,-1 -2,-1 -3,-2 -1,-1 -3,-1 -4,-2 -1,0 -2,-1 -3,-2 -2,-1 -3,-1 -4,-2 -1,-1 -2,-2 -3,-2 -1,-1 -2,-2 -3,-3 -1,-1 -2,-2 -3,-3 -1,0 -2,-1 -3,-2 -1,-1 -2,-2 -3,-3 -1,-1 -2,-2 -3,-3 -1,-1 -1,-2 -2,-3 -1,-2 -2,-3 -3,-4 0,-1 -1,-2 -2,-3 0,-1 -1,-3 -2,-4 0,-1 -1,-2 -2,-3 0,-2 -1,-3 -1,-4 -1,-1 -1,-3 -2,-4 0,-1 -1,-3 -1,-4 -1,-1 -1,-2 -1,-4 -1,-1 -1,-3 -1,-4 -1,-1 -1,-3 -1,-4 0,-1 0,-3 -1,-4 0,-2 0,-3 0,-4 0,-2 0,-3 0,-5 0,-1 0,-3 0,-4 0,-2 0,-3 0,-4 1,-2 1,-3 1,-5 0,-1 0,-2 1,-4 0,-1 0,-2 1,-4 0,-1 0,-2 1,-4 0,-1 1,-2 1,-4 1,-1 1,-2 2,-4 0,-1 1,-2 1,-3 1,-1 2,-3 2,-4 1,-1 2,-2 2,-3 1,-2 2,-3 2,-4 1,-1 2,-2 3,-3 1,-1 1,-2 2,-3 1,-1 2,-2 3,-3 1,-1 2,-2 3,-3 1,-1 2,-2 3,-3 1,-1 2,-2 3,-3 1,-1 2,-1 3,-2 1,-1 2,-2 3,-3 1,0 2,-1 4,-2 1,0 2,-1 3,-2 1,0 3,-1 4,-2 1,0 2,-1 3,-1 2,-1 3,-1 4,-2 2,0 3,-1 4,-1 2,-1 3,-1 4,-1 2,-1 3,-1 4,-1 2,-1 3,-1 4,-1 2,0 3,0 5,-1 1,0 2,0 4,0 1,0 3,0 4,0zm51 140l0 -35c-1,-33 -20,-52 -52,-53l-16 0 8 -26 -63 36 63 37 -8 -27 16 0c17,0 32,15 32,33l0 35 20 0z"/>
 </g>
</svg>
