<?xml version="1.0" encoding="utf-8"?>
<!-- Generator: Adobe Illustrator 16.0.0, SVG Export Plug-In . SVG Version: 6.00 Build 0)  -->
<!DOCTYPE svg PUBLIC "-//W3C//DTD SVG 1.1//EN" "http://www.w3.org/Graphics/SVG/1.1/DTD/svg11.dtd">
<svg version="1.1" id="Layer_1" xmlns="http://www.w3.org/2000/svg" xmlns:xlink="http://www.w3.org/1999/xlink" x="0px" y="0px"
	 width="80.099px" height="80.1px" viewBox="0 0 80.099 80.1" enable-background="new 0 0 80.099 80.1" xml:space="preserve">
<polygon fill="none" stroke="#231F20" stroke-width="0.1" stroke-miterlimit="22.9256" points="40.053,0.05 42.104,0.103 
	44.131,0.257 46.129,0.512 48.096,0.865 50.028,1.313 51.924,1.854 53.781,2.484 55.597,3.203 57.367,4.005 59.092,4.89 
	60.767,5.855 62.39,6.897 63.958,8.014 65.47,9.203 66.922,10.462 68.312,11.787 69.638,13.177 70.896,14.629 72.084,16.141 
	73.201,17.709 74.244,19.333 75.208,21.007 76.094,22.731 76.896,24.503 77.614,26.318 78.246,28.176 78.786,30.072 79.234,32.005 
	79.587,33.972 79.843,35.971 79.997,37.998 80.049,40.05 79.997,42.103 79.843,44.129 79.587,46.127 79.234,48.094 78.786,50.027 
	78.246,51.924 77.614,53.781 76.896,55.597 76.094,57.367 75.208,59.092 74.244,60.767 73.201,62.39 72.084,63.958 70.896,65.47 
	69.638,66.922 68.312,68.312 66.922,69.638 65.47,70.896 63.958,72.085 62.39,73.202 60.767,74.244 59.092,75.209 57.367,76.095 
	55.597,76.897 53.781,77.615 51.924,78.246 50.028,78.787 48.096,79.234 46.129,79.588 44.131,79.843 42.104,79.998 40.053,80.05 
	38,79.998 35.973,79.843 33.975,79.588 32.007,79.234 30.074,78.787 28.178,78.246 26.32,77.615 24.505,76.897 22.733,76.095 
	21.009,75.209 19.334,74.244 17.711,73.202 16.142,72.085 14.63,70.896 13.178,69.638 11.788,68.312 10.462,66.922 9.204,65.47 
	8.015,63.958 6.897,62.39 5.855,60.767 4.891,59.092 4.005,57.367 3.202,55.597 2.484,53.781 1.854,51.924 1.313,50.027 
	0.864,48.094 0.512,46.127 0.257,44.129 0.102,42.103 0.05,40.05 0.102,37.998 0.257,35.971 0.512,33.972 0.864,32.005 
	1.313,30.072 1.854,28.176 2.484,26.318 3.202,24.503 4.005,22.731 4.891,21.007 5.855,19.333 6.897,17.709 8.015,16.141 
	9.204,14.629 10.462,13.177 11.788,11.787 13.178,10.462 14.63,9.203 16.142,8.014 17.711,6.897 19.334,5.855 21.009,4.89 
	22.733,4.005 24.505,3.203 26.32,2.484 28.178,1.854 30.074,1.313 32.008,0.865 33.975,0.512 35.973,0.257 38,0.103 "/>
<polygon fill-rule="evenodd" clip-rule="evenodd" fill="#0001FE" points="40.051,1.387 42.035,1.438 43.993,1.587 45.925,1.834 
	47.825,2.175 49.693,2.608 51.525,3.13 53.32,3.74 55.074,4.434 56.786,5.209 58.453,6.065 60.072,6.998 61.641,8.005 63.157,9.085 
	64.619,10.235 66.023,11.452 67.367,12.733 68.648,14.078 69.866,15.481 71.016,16.943 72.095,18.459 73.103,20.028 74.035,21.648 
	74.892,23.314 75.667,25.027 76.361,26.781 76.971,28.576 77.493,30.409 77.926,32.277 78.268,34.178 78.514,36.109 78.664,38.068 
	78.714,40.053 78.664,42.038 78.514,43.997 78.268,45.928 77.926,47.829 77.493,49.697 76.971,51.529 76.361,53.324 75.667,55.079 
	74.892,56.791 74.035,58.458 73.103,60.077 72.095,61.646 71.016,63.162 69.866,64.624 68.648,66.028 67.367,67.372 66.023,68.654 
	64.619,69.871 63.157,71.021 61.641,72.101 60.072,73.108 58.453,74.041 56.786,74.896 55.074,75.673 53.32,76.367 51.525,76.977 
	49.693,77.499 47.825,77.932 45.925,78.272 43.993,78.52 42.035,78.669 40.051,78.72 38.066,78.669 36.106,78.52 34.175,78.272 
	32.274,77.932 30.406,77.499 28.573,76.977 26.778,76.367 25.023,75.673 23.312,74.896 21.645,74.041 20.025,73.108 18.456,72.101 
	16.939,71.021 15.478,69.871 14.073,68.654 12.729,67.372 11.447,66.028 10.23,64.624 9.081,63.162 8.001,61.646 6.993,60.077 
	6.061,58.458 5.205,56.791 4.429,55.079 3.734,53.324 3.125,51.529 2.603,49.697 2.169,47.829 1.828,45.928 1.582,43.997 
	1.432,42.038 1.382,40.053 1.432,38.068 1.582,36.109 1.828,34.178 2.169,32.277 2.603,30.409 3.125,28.576 3.734,26.781 
	4.429,25.027 5.205,23.314 6.061,21.648 6.993,20.028 8.001,18.459 9.081,16.943 10.23,15.481 11.447,14.078 12.729,12.733 
	14.073,11.452 15.478,10.235 16.939,9.085 18.456,8.005 20.025,6.998 21.645,6.065 23.312,5.209 25.023,4.434 26.778,3.74 
	28.573,3.13 30.406,2.608 32.274,2.175 34.175,1.834 36.106,1.587 38.066,1.438 "/>
<polygon fill="none" stroke="#231F20" stroke-width="0.1" stroke-miterlimit="22.9256" points="40.051,1.387 42.035,1.438 
	43.993,1.587 45.925,1.834 47.825,2.175 49.693,2.608 51.525,3.13 53.32,3.74 55.074,4.434 56.786,5.209 58.453,6.065 60.072,6.998 
	61.641,8.005 63.157,9.085 64.619,10.235 66.023,11.452 67.367,12.733 68.648,14.078 69.866,15.481 71.016,16.943 72.095,18.459 
	73.103,20.028 74.035,21.648 74.892,23.314 75.667,25.027 76.361,26.781 76.971,28.576 77.493,30.409 77.926,32.277 78.268,34.178 
	78.514,36.109 78.664,38.068 78.714,40.053 78.664,42.038 78.514,43.997 78.268,45.928 77.926,47.829 77.493,49.697 76.971,51.529 
	76.361,53.324 75.667,55.079 74.892,56.791 74.035,58.458 73.103,60.077 72.095,61.646 71.016,63.162 69.866,64.624 68.648,66.028 
	67.367,67.372 66.023,68.654 64.619,69.871 63.157,71.021 61.641,72.101 60.072,73.108 58.453,74.041 56.786,74.896 55.074,75.673 
	53.32,76.367 51.525,76.977 49.693,77.499 47.825,77.932 45.925,78.272 43.993,78.52 42.035,78.669 40.051,78.72 38.066,78.669 
	36.106,78.52 34.175,78.272 32.274,77.932 30.406,77.499 28.573,76.977 26.778,76.367 25.023,75.673 23.312,74.896 21.645,74.041 
	20.025,73.108 18.456,72.101 16.939,71.021 15.478,69.871 14.073,68.654 12.729,67.372 11.447,66.028 10.23,64.624 9.081,63.162 
	8.001,61.646 6.993,60.077 6.061,58.458 5.205,56.791 4.429,55.079 3.734,53.324 3.125,51.529 2.603,49.697 2.169,47.829 
	1.828,45.928 1.582,43.997 1.432,42.038 1.382,40.053 1.432,38.068 1.582,36.109 1.828,34.178 2.169,32.277 2.603,30.409 
	3.125,28.576 3.734,26.781 4.429,25.027 5.205,23.314 6.061,21.648 6.993,20.028 8.001,18.459 9.081,16.943 10.23,15.481 
	11.447,14.078 12.729,12.733 14.073,11.452 15.478,10.235 16.939,9.085 18.456,8.005 20.025,6.998 21.645,6.065 23.312,5.209 
	25.023,4.434 26.778,3.74 28.573,3.13 30.406,2.608 32.274,2.175 34.175,1.834 36.106,1.587 38.066,1.438 "/>
<path fill-rule="evenodd" clip-rule="evenodd" fill="#FFFFFF" d="M53.153,72.957V24.775l8.96,2.545
	c-4.131-7.744-8.55-15.356-12.933-22.933L36.009,27.459l9.235-2.684v25.521c-4.408-3.541-7.034-4.379-12.484-4.937l-5.087,0.012
	l2.64-9.212L7.195,49.326l23.117,13.207l-2.654-9.197h2.654c8.155-0.015,13.684,4.339,14.946,13.262v6.36H53.153z"/>
<path fill="none" stroke="#231F20" stroke-width="0.1" stroke-miterlimit="22.9256" d="M53.153,72.957V24.775l8.96,2.545
	c-4.131-7.744-8.55-15.356-12.933-22.933L36.009,27.459l9.235-2.684v25.521c-4.408-3.541-7.034-4.379-12.484-4.937l-5.087,0.012
	l2.64-9.212L7.195,49.326l23.117,13.207l-2.654-9.197h2.654c8.155-0.015,13.684,4.339,14.946,13.262v6.36H53.153z"/>
</svg>
