<?xml version="1.0" encoding="UTF-8"?>
<!DOCTYPE svg PUBLIC "-//W3C//DTD SVG 1.1//EN" "http://www.w3.org/Graphics/SVG/1.1/DTD/svg11.dtd">
<!-- Creator: CorelDRAW X6 -->
<svg xmlns="http://www.w3.org/2000/svg" xml:space="preserve" width="33.504mm" height="33.5037mm" version="1.1" style="shape-rendering:geometricPrecision; text-rendering:geometricPrecision; image-rendering:optimizeQuality; fill-rule:evenodd; clip-rule:evenodd"
viewBox="0 0 270 270"
 xmlns:xlink="http://www.w3.org/1999/xlink">
 <defs>
  <style type="text/css">
   <![CDATA[
    .fil0 {fill:#0000FA}
   ]]>
  </style>
 </defs>
 <g id="Layer_x0020_1">
  <metadata id="CorelCorpID_0Corel-Layer"/>
  <path class="fil0" d="M135 0l7 0 7 1 7 1 6 1 7 1 6 2 6 2 7 3 6 2 5 3 6 4 6 3 5 4 5 4 5 4 5 5 4 4 4 5 4 5 4 6 4 5 3 6 3 6 3 6 2 6 2 6 2 6 1 7 2 7 1 6 0 7 0 7 0 7 0 7 -1 7 -2 6 -1 7 -2 6 -2 6 -2 7 -3 6 -3 5 -3 6 -4 6 -4 5 -4 5 -4 5 -4 5 -5 4 -5 4 -5 4 -5 4 -6 4 -6 3 -5 3 -6 3 -7 2 -6 2 -6 2 -7 1 -6 2 -7 1 -7 0 -7 0 -7 0 -7 0 -6 -1 -7 -2 -7 -1 -6 -2 -6 -2 -6 -2 -6 -3 -6 -3 -6 -3 -5 -4 -6 -4 -5 -4 -5 -4 -4 -4 -5 -5 -4 -5 -4 -5 -4 -5 -3 -6 -4 -6 -3 -5 -2 -6 -3 -7 -2 -6 -2 -6 -1 -7 -1 -6 -1 -7 -1 -7 0 -7 0 -7 1 -7 1 -6 1 -7 1 -7 2 -6 2 -6 3 -6 2 -6 3 -6 4 -6 3 -5 4 -6 4 -5 4 -5 5 -4 4 -5 5 -4 5 -4 6 -4 5 -3 6 -4 6 -3 6 -2 6 -3 6 -2 6 -2 7 -1 7 -1 6 -1 7 -1 7 0zm-14 245l0 -84c-8,-24 -22,-28 -42,-36l-3 31 -60 -69 92 -17 -21 29c22,4 36,14 48,27 11,-13 27,-24 48,-27l-21 -29 92 17 -60 69 -3 -31c-18,2 -40,18 -41,36l0 84 -29 0z"/>
 </g>
</svg>
