<?xml version="1.0" encoding="UTF-8"?>
<!DOCTYPE svg PUBLIC "-//W3C//DTD SVG 1.1//EN" "http://www.w3.org/Graphics/SVG/1.1/DTD/svg11.dtd">
<!-- Creator: CorelDRAW X6 -->
<svg xmlns="http://www.w3.org/2000/svg" xml:space="preserve" width="48.96mm" height="48.96mm" version="1.1" style="shape-rendering:geometricPrecision; text-rendering:geometricPrecision; image-rendering:optimizeQuality; fill-rule:evenodd; clip-rule:evenodd"
viewBox="0 0 13737 13737"
 xmlns:xlink="http://www.w3.org/1999/xlink">
 <defs>
  <style type="text/css">
   <![CDATA[
    .fil1 {fill:#FEFEFE}
    .fil0 {fill:blue}
   ]]>
  </style>
 </defs>
 <g id="Layer_x0020_1">
  <metadata id="CorelCorpID_0Corel-Layer"/>
  <path class="fil0" d="M6869 0c118,3 235,6 352,9 116,9 232,18 348,27 114,15 229,29 343,44 113,20 225,40 338,61 111,26 221,51 332,77 108,31 217,62 325,93 106,36 213,72 319,108 104,41 208,82 312,123 101,46 203,92 304,138 99,51 197,101 296,152 96,55 192,110 288,166 93,60 186,119 279,179 90,64 180,128 269,192 87,68 173,136 260,204 83,72 166,144 249,216 80,76 159,152 239,228 76,80 152,159 228,239 72,83 144,166 216,249 68,87 136,173 204,260 64,90 128,180 192,269 60,93 119,186 179,279 55,96 110,192 166,288 51,99 101,197 152,296 46,101 92,203 138,304 41,104 82,208 123,312 36,106 72,213 108,319 31,108 62,217 93,326 26,111 51,221 77,332 20,113 40,225 61,338 15,114 29,229 44,343 9,116 18,232 27,348 3,118 6,235 9,353 -3,118 -6,235 -9,353 -9,116 -18,232 -27,348 -15,114 -29,229 -44,343 -20,113 -40,225 -61,338 -26,111 -51,221 -77,332 -31,109 -62,217 -93,326 -36,106 -72,213 -108,319 -41,104 -82,208 -123,312 -46,101 -92,203 -138,304 -51,99 -101,197 -152,296 -55,96 -110,192 -166,288 -60,93 -119,186 -179,279 -64,90 -128,180 -192,269 -68,87 -136,173 -204,260 -72,83 -144,166 -216,249 -76,80 -152,159 -228,239 -80,76 -159,152 -239,228 -83,72 -166,144 -249,216 -87,68 -173,136 -260,204 -90,64 -180,128 -269,192 -93,60 -186,119 -279,179 -96,55 -192,110 -288,166 -99,51 -197,101 -296,152 -101,46 -203,92 -304,138 -104,41 -208,82 -312,123 -106,36 -213,72 -319,108 -108,31 -217,62 -325,93 -111,26 -221,51 -332,77 -113,20 -225,40 -338,61 -114,15 -229,29 -343,44 -116,9 -232,18 -348,27 -118,3 -235,6 -352,9 -118,-3 -235,-6 -353,-9 -116,-9 -232,-18 -348,-27 -114,-15 -229,-29 -343,-44 -113,-20 -225,-40 -338,-61 -111,-26 -221,-51 -332,-77 -109,-31 -217,-62 -326,-93 -106,-36 -213,-72 -319,-108 -104,-41 -208,-82 -312,-123 -101,-46 -203,-92 -304,-138 -99,-51 -197,-101 -296,-152 -96,-55 -192,-110 -288,-166 -93,-60 -186,-119 -279,-179 -90,-64 -180,-128 -269,-192 -87,-68 -173,-136 -260,-204 -83,-72 -166,-144 -249,-216 -80,-76 -159,-152 -239,-228 -76,-80 -152,-159 -228,-239 -72,-83 -144,-166 -216,-249 -68,-87 -136,-173 -204,-260 -64,-90 -128,-180 -192,-269 -60,-93 -119,-186 -179,-279 -55,-96 -110,-192 -166,-288 -51,-99 -101,-197 -152,-296 -46,-101 -92,-203 -138,-304 -41,-104 -82,-208 -123,-312 -36,-106 -72,-213 -108,-319 -31,-109 -62,-217 -93,-326 -26,-111 -51,-221 -77,-332 -20,-113 -40,-225 -61,-338 -15,-114 -29,-229 -44,-343 -9,-116 -18,-232 -27,-348 -3,-118 -6,-235 -9,-353 3,-118 6,-235 9,-353 9,-116 18,-232 27,-348 15,-114 29,-229 44,-343 20,-113 40,-225 61,-338 26,-111 51,-221 77,-332 31,-109 62,-217 93,-326 36,-106 72,-213 108,-319 41,-104 82,-208 123,-312 46,-101 92,-203 138,-304 51,-99 101,-197 152,-296 55,-96 110,-192 166,-288 60,-93 119,-186 179,-279 64,-90 128,-180 192,-269 68,-87 136,-173 204,-260 72,-83 144,-166 216,-249 76,-80 152,-159 228,-239 80,-76 159,-152 239,-228 83,-72 166,-144 249,-216 87,-68 173,-136 260,-204 90,-64 180,-128 269,-192 93,-60 186,-119 279,-179 96,-55 192,-110 288,-166 99,-51 197,-101 296,-152 101,-46 203,-92 304,-138 104,-41 208,-82 312,-123 106,-36 213,-72 319,-108 108,-31 217,-62 326,-93 111,-26 221,-51 332,-77 113,-20 225,-40 338,-61 114,-15 229,-29 343,-44 116,-9 232,-18 348,-27 118,-3 235,-6 353,-9z"/>
  <path class="fil1" d="M9677 4561c-1060,-1337 -2572,-1624 -4082,-1164l804 812 -3332 5 1582 -2859 306 1004c1937,-784 4443,-308 5686,1470l-964 733z"/>
  <path class="fil1" d="M7460 11562l-180 -1164c1502,-217 2915,-1457 3104,-3010l-1085 295 1678 -2921 1619 2866 -1003 -223c-155,1900 -1910,3913 -4134,4157z"/>
  <path class="fil1" d="M3549 5527c-614,1591 -94,3040 1069,4107l317 -1075 1668 2870 -3272 1 708 -718c-1656,-1270 -2511,-3670 -1610,-5644l1120 459z"/>
 </g>
</svg>
