<?xml version="1.0" encoding="UTF-8"?>
<!DOCTYPE svg PUBLIC "-//W3C//DTD SVG 1.1//EN" "http://www.w3.org/Graphics/SVG/1.1/DTD/svg11.dtd">
<!-- Creator: CorelDRAW X6 -->
<svg xmlns="http://www.w3.org/2000/svg" xml:space="preserve" width="33.504mm" height="33.504mm" version="1.1" style="shape-rendering:geometricPrecision; text-rendering:geometricPrecision; image-rendering:optimizeQuality; fill-rule:evenodd; clip-rule:evenodd"
viewBox="0 0 225 225"
 xmlns:xlink="http://www.w3.org/1999/xlink">
 <defs>
  <style type="text/css">
   <![CDATA[
    .fil0 {fill:#0000FA}
   ]]>
  </style>
 </defs>
 <g id="Layer_x0020_1">
  <metadata id="CorelCorpID_0Corel-Layer"/>
  <path class="fil0" d="M112 0l6 0 6 1 5 0 6 1 5 2 6 1 5 2 5 2 5 2 5 3 4 2 5 3 4 3 5 4 4 3 4 4 3 4 4 4 3 4 3 5 3 4 3 5 2 5 3 5 2 5 2 5 1 5 1 6 1 5 1 6 0 6 1 5 -1 6 0 6 -1 5 -1 6 -1 5 -1 6 -2 5 -2 5 -3 5 -2 5 -3 4 -3 5 -3 4 -3 5 -4 4 -3 4 -4 3 -4 4 -5 3 -4 3 -5 3 -4 3 -5 2 -5 3 -5 2 -5 2 -6 1 -5 1 -6 1 -5 1 -6 0 -6 1 -5 -1 -6 0 -6 -1 -5 -1 -6 -1 -5 -1 -5 -2 -5 -2 -5 -3 -5 -2 -5 -3 -4 -3 -5 -3 -4 -3 -4 -4 -4 -3 -4 -4 -3 -4 -4 -5 -3 -4 -3 -5 -2 -4 -3 -5 -2 -5 -2 -5 -2 -5 -1 -6 -2 -5 -1 -6 0 -5 -1 -6 0 -6 0 -5 1 -6 0 -6 1 -5 2 -6 1 -5 2 -5 2 -5 2 -5 3 -5 2 -5 3 -4 3 -5 4 -4 3 -4 4 -4 4 -4 4 -3 4 -4 5 -3 4 -3 5 -2 5 -3 5 -2 5 -2 5 -2 5 -1 6 -2 5 -1 6 0 6 -1 5 0zm62 32l-92 92 -18 -32 -24 93 93 -24 -32 -18 92 -92 -19 -19z"/>
 </g>
</svg>
