<?xml version="1.0" encoding="utf-8"?>
<!-- Generator: Adobe Illustrator 16.0.0, SVG Export Plug-In . SVG Version: 6.00 Build 0)  -->
<!DOCTYPE svg PUBLIC "-//W3C//DTD SVG 1.1//EN" "http://www.w3.org/Graphics/SVG/1.1/DTD/svg11.dtd">
<svg version="1.1" id="Layer_1" xmlns="http://www.w3.org/2000/svg" xmlns:xlink="http://www.w3.org/1999/xlink" x="0px" y="0px"
	 width="80.1px" height="80.1px" viewBox="0 0 80.1 80.1" enable-background="new 0 0 80.1 80.1" xml:space="preserve">
<path fill="none" stroke="#231F20" stroke-width="0.1" stroke-miterlimit="22.9256" d="M40.053,0.05
	c0.684,0.018,1.368,0.035,2.053,0.052c0.675,0.052,1.35,0.104,2.025,0.155c0.666,0.085,1.332,0.17,1.998,0.255
	c0.655,0.118,1.312,0.235,1.967,0.353c0.644,0.149,1.288,0.298,1.933,0.448c0.632,0.18,1.264,0.361,1.896,0.541
	c0.619,0.21,1.237,0.421,1.856,0.631c0.605,0.239,1.211,0.479,1.815,0.718c0.591,0.268,1.181,0.535,1.771,0.803
	c0.574,0.295,1.149,0.59,1.725,0.885c0.558,0.322,1.116,0.643,1.675,0.965c0.54,0.347,1.081,0.695,1.622,1.042
	c0.523,0.373,1.046,0.745,1.568,1.117c0.504,0.396,1.008,0.793,1.512,1.189c0.484,0.419,0.968,0.839,1.452,1.259
	c0.463,0.441,0.927,0.883,1.39,1.325c0.442,0.463,0.884,0.927,1.326,1.39c0.419,0.484,0.839,0.968,1.259,1.452
	c0.396,0.504,0.792,1.008,1.188,1.512c0.372,0.523,0.744,1.046,1.117,1.568c0.347,0.542,0.694,1.082,1.042,1.624
	c0.321,0.558,0.643,1.116,0.965,1.675c0.295,0.575,0.59,1.149,0.885,1.724c0.268,0.591,0.536,1.181,0.803,1.771
	c0.24,0.605,0.479,1.21,0.719,1.815c0.21,0.619,0.42,1.238,0.631,1.857c0.18,0.632,0.36,1.264,0.54,1.896
	c0.149,0.645,0.299,1.289,0.448,1.933c0.118,0.656,0.235,1.311,0.353,1.967c0.085,0.666,0.17,1.333,0.256,1.999
	c0.052,0.675,0.103,1.351,0.154,2.027c0.018,0.684,0.035,1.368,0.053,2.053c-0.018,0.684-0.035,1.368-0.053,2.052
	c-0.052,0.676-0.103,1.351-0.154,2.026c-0.086,0.667-0.171,1.333-0.256,1.998c-0.117,0.656-0.234,1.311-0.353,1.967
	c-0.149,0.644-0.299,1.289-0.448,1.933c-0.18,0.632-0.36,1.264-0.54,1.896c-0.211,0.619-0.421,1.238-0.631,1.857
	c-0.239,0.605-0.479,1.21-0.719,1.816c-0.267,0.59-0.535,1.181-0.803,1.771c-0.295,0.575-0.59,1.15-0.885,1.725
	c-0.322,0.559-0.644,1.117-0.965,1.675c-0.348,0.541-0.695,1.082-1.042,1.623c-0.373,0.523-0.745,1.046-1.117,1.568
	c-0.396,0.505-0.793,1.008-1.188,1.513c-0.42,0.483-0.84,0.967-1.259,1.451c-0.442,0.464-0.884,0.927-1.326,1.391
	c-0.463,0.441-0.927,0.884-1.39,1.325c-0.483,0.42-0.968,0.839-1.452,1.259c-0.504,0.396-1.008,0.793-1.512,1.188
	c-0.522,0.372-1.045,0.745-1.568,1.117c-0.541,0.348-1.081,0.695-1.622,1.042c-0.559,0.322-1.117,0.644-1.675,0.965
	c-0.575,0.296-1.15,0.591-1.725,0.886c-0.591,0.268-1.181,0.535-1.771,0.803c-0.604,0.24-1.21,0.479-1.815,0.719
	c-0.619,0.21-1.237,0.42-1.856,0.63c-0.633,0.181-1.265,0.36-1.896,0.541c-0.645,0.149-1.288,0.299-1.933,0.448
	c-0.655,0.117-1.312,0.234-1.967,0.353c-0.666,0.085-1.332,0.171-1.998,0.255c-0.675,0.053-1.351,0.104-2.025,0.155
	c-0.685,0.018-1.369,0.035-2.053,0.053c-0.685-0.018-1.368-0.035-2.053-0.053c-0.676-0.051-1.352-0.103-2.027-0.155
	c-0.666-0.084-1.332-0.17-1.998-0.255c-0.655-0.118-1.311-0.235-1.967-0.353c-0.645-0.149-1.289-0.299-1.934-0.448
	c-0.632-0.181-1.264-0.36-1.896-0.541c-0.619-0.21-1.237-0.42-1.857-0.63c-0.605-0.24-1.21-0.479-1.815-0.719
	c-0.59-0.268-1.181-0.534-1.771-0.803c-0.574-0.295-1.149-0.59-1.725-0.885c-0.558-0.322-1.116-0.644-1.675-0.966
	c-0.541-0.347-1.082-0.694-1.623-1.042c-0.522-0.372-1.046-0.745-1.568-1.117c-0.504-0.396-1.008-0.792-1.512-1.188
	c-0.484-0.42-0.969-0.839-1.452-1.259c-0.464-0.441-0.927-0.884-1.391-1.325c-0.441-0.464-0.884-0.927-1.325-1.391
	c-0.42-0.484-0.839-0.968-1.259-1.451c-0.396-0.505-0.793-1.008-1.189-1.513c-0.372-0.522-0.744-1.045-1.116-1.568
	c-0.348-0.541-0.695-1.082-1.043-1.622c-0.321-0.559-0.643-1.117-0.965-1.676c-0.295-0.574-0.59-1.149-0.885-1.725
	c-0.269-0.59-0.536-1.181-0.804-1.771c-0.239-0.605-0.479-1.211-0.718-1.816c-0.21-0.619-0.42-1.238-0.631-1.857
	c-0.18-0.632-0.36-1.264-0.54-1.896c-0.149-0.645-0.299-1.289-0.448-1.933c-0.118-0.656-0.235-1.311-0.354-1.967
	c-0.085-0.666-0.17-1.332-0.255-1.998c-0.052-0.675-0.104-1.351-0.155-2.026c-0.017-0.684-0.034-1.368-0.052-2.052
	c0.018-0.685,0.035-1.369,0.052-2.053c0.052-0.676,0.104-1.352,0.155-2.027c0.085-0.666,0.17-1.333,0.255-1.999
	c0.118-0.656,0.235-1.311,0.354-1.967c0.149-0.645,0.299-1.289,0.448-1.933c0.18-0.632,0.36-1.264,0.54-1.896
	c0.211-0.619,0.421-1.238,0.631-1.857c0.239-0.605,0.479-1.21,0.718-1.815c0.268-0.59,0.535-1.181,0.804-1.771
	c0.295-0.575,0.59-1.149,0.885-1.724c0.322-0.559,0.644-1.117,0.965-1.675c0.348-0.541,0.695-1.082,1.043-1.623
	c0.372-0.522,0.744-1.045,1.116-1.568c0.396-0.503,0.793-1.007,1.189-1.512c0.42-0.484,0.839-0.968,1.259-1.452
	c0.441-0.463,0.884-0.927,1.325-1.39c0.464-0.442,0.927-0.884,1.391-1.326c0.483-0.419,0.968-0.839,1.452-1.258
	c0.504-0.396,1.008-0.792,1.512-1.189c0.522-0.372,1.046-0.745,1.568-1.117c0.541-0.347,1.082-0.695,1.623-1.042
	c0.559-0.322,1.117-0.643,1.675-0.965c0.575-0.295,1.15-0.59,1.725-0.885c0.591-0.268,1.182-0.535,1.771-0.803
	c0.605-0.24,1.21-0.479,1.815-0.718c0.62-0.21,1.239-0.42,1.857-0.631c0.633-0.18,1.265-0.36,1.896-0.541
	c0.645-0.149,1.289-0.298,1.934-0.448c0.656-0.118,1.312-0.235,1.967-0.353c0.666-0.085,1.332-0.17,1.998-0.255
	C36.648,0.206,37.324,0.154,38,0.102C38.685,0.085,39.368,0.067,40.053,0.05z"/>
<polygon fill-rule="evenodd" clip-rule="evenodd" fill="#0001FE" points="40.05,1.387 42.035,1.438 43.993,1.587 45.924,1.834 
	47.825,2.175 49.692,2.608 51.525,3.13 53.32,3.739 55.074,4.434 56.786,5.209 58.453,6.065 60.071,6.998 61.641,8.005 
	63.157,9.085 64.618,10.235 66.022,11.452 67.367,12.733 68.648,14.078 69.865,15.481 71.015,16.943 72.095,18.459 73.102,20.028 
	74.035,21.648 74.891,23.314 75.667,25.027 76.36,26.781 76.971,28.576 77.492,30.409 77.926,32.277 78.267,34.178 78.514,36.109 
	78.663,38.069 78.714,40.053 78.663,42.038 78.514,43.997 78.267,45.928 77.926,47.829 77.492,49.697 76.971,51.529 76.36,53.324 
	75.667,55.08 74.891,56.791 74.035,58.458 73.102,60.077 72.095,61.646 71.015,63.163 69.865,64.624 68.648,66.028 67.367,67.373 
	66.022,68.655 64.618,69.871 63.157,71.021 61.641,72.1 60.071,73.108 58.453,74.041 56.786,74.897 55.074,75.672 53.32,76.367 
	51.525,76.976 49.692,77.499 47.825,77.932 45.924,78.273 43.993,78.52 42.035,78.669 40.05,78.72 38.065,78.669 36.106,78.52 
	34.175,78.273 32.273,77.932 30.405,77.499 28.572,76.976 26.778,76.367 25.022,75.672 23.311,74.897 21.644,74.041 20.024,73.108 
	18.455,72.1 16.938,71.021 15.477,69.871 14.073,68.655 12.729,67.373 11.447,66.028 10.229,64.624 9.08,63.163 8.001,61.646 
	6.993,60.077 6.06,58.458 5.204,56.791 4.428,55.08 3.734,53.324 3.125,51.529 2.602,49.697 2.169,47.829 1.828,45.928 
	1.581,43.997 1.432,42.038 1.381,40.053 1.432,38.069 1.581,36.109 1.828,34.178 2.169,32.277 2.602,30.409 3.125,28.576 
	3.734,26.781 4.428,25.027 5.204,23.314 6.06,21.648 6.993,20.028 8.001,18.459 9.08,16.943 10.229,15.481 11.447,14.078 
	12.729,12.733 14.073,11.452 15.477,10.235 16.938,9.085 18.455,8.005 20.024,6.998 21.644,6.065 23.311,5.209 25.022,4.434 
	26.778,3.739 28.572,3.13 30.405,2.608 32.273,2.175 34.175,1.834 36.106,1.587 38.065,1.438 "/>
<polygon fill="none" stroke="#231F20" stroke-width="0.1" stroke-miterlimit="22.9256" points="40.05,1.387 42.035,1.438 
	43.993,1.587 45.924,1.834 47.825,2.175 49.692,2.608 51.525,3.13 53.32,3.739 55.074,4.434 56.786,5.209 58.453,6.065 
	60.071,6.998 61.641,8.005 63.157,9.085 64.618,10.235 66.022,11.452 67.367,12.733 68.648,14.078 69.865,15.481 71.015,16.943 
	72.095,18.459 73.102,20.028 74.035,21.648 74.891,23.314 75.667,25.027 76.36,26.781 76.971,28.576 77.492,30.409 77.926,32.277 
	78.267,34.178 78.514,36.109 78.663,38.069 78.714,40.053 78.663,42.038 78.514,43.997 78.267,45.928 77.926,47.829 77.492,49.697 
	76.971,51.529 76.36,53.324 75.667,55.08 74.891,56.791 74.035,58.458 73.102,60.077 72.095,61.646 71.015,63.163 69.865,64.624 
	68.648,66.028 67.367,67.373 66.022,68.655 64.618,69.871 63.157,71.021 61.641,72.1 60.071,73.108 58.453,74.041 56.786,74.897 
	55.074,75.672 53.32,76.367 51.525,76.976 49.692,77.499 47.825,77.932 45.924,78.273 43.993,78.52 42.035,78.669 40.05,78.72 
	38.065,78.669 36.106,78.52 34.175,78.273 32.273,77.932 30.405,77.499 28.572,76.976 26.778,76.367 25.022,75.672 23.311,74.897 
	21.644,74.041 20.024,73.108 18.455,72.1 16.938,71.021 15.477,69.871 14.073,68.655 12.729,67.373 11.447,66.028 10.229,64.624 
	9.08,63.163 8.001,61.646 6.993,60.077 6.06,58.458 5.204,56.791 4.428,55.08 3.734,53.324 3.125,51.529 2.602,49.697 2.169,47.829 
	1.828,45.928 1.581,43.997 1.432,42.038 1.381,40.053 1.432,38.069 1.581,36.109 1.828,34.178 2.169,32.277 2.602,30.409 
	3.125,28.576 3.734,26.781 4.428,25.027 5.204,23.314 6.06,21.648 6.993,20.028 8.001,18.459 9.08,16.943 10.229,15.481 
	11.447,14.078 12.729,12.733 14.073,11.452 15.477,10.235 16.938,9.085 18.455,8.005 20.024,6.998 21.644,6.065 23.311,5.209 
	25.022,4.434 26.778,3.739 28.572,3.13 30.405,2.608 32.273,2.175 34.175,1.834 36.106,1.587 38.065,1.438 "/>
<polygon fill-rule="evenodd" clip-rule="evenodd" fill="#FFFFFF" points="43.661,49.44 52.203,45.018 39.98,32.755 45.455,27.267 
	57.81,39.749 62.677,31.441 68.405,56.333 "/>
<polygon fill="none" stroke="#000000" stroke-width="0.0216" stroke-miterlimit="22.9256" points="43.661,49.44 52.203,45.018 
	39.98,32.755 45.455,27.267 57.81,39.749 62.677,31.441 68.405,56.333 "/>
<polygon fill-rule="evenodd" clip-rule="evenodd" fill="#FFFFFF" points="11.69,56.162 17.213,31.525 22.069,39.751 34.507,27.241 
	40.036,32.807 27.86,45.029 35.435,49.445 "/>
<polygon fill="none" stroke="#000000" stroke-width="0.1" stroke-miterlimit="22.9256" points="11.69,56.162 17.213,31.525 
	22.069,39.751 34.507,27.241 40.036,32.807 27.86,45.029 35.435,49.445 "/>
</svg>
