<?xml version="1.0" encoding="UTF-8"?>
<!DOCTYPE svg PUBLIC "-//W3C//DTD SVG 1.1//EN" "http://www.w3.org/Graphics/SVG/1.1/DTD/svg11.dtd">
<!-- Creator: CorelDRAW X6 -->
<svg xmlns="http://www.w3.org/2000/svg" xml:space="preserve" width="33.504mm" height="33.5037mm" version="1.1" style="shape-rendering:geometricPrecision; text-rendering:geometricPrecision; image-rendering:optimizeQuality; fill-rule:evenodd; clip-rule:evenodd"
viewBox="0 0 135 135"
 xmlns:xlink="http://www.w3.org/1999/xlink">
 <defs>
  <style type="text/css">
   <![CDATA[
    .fil0 {fill:#0000FA}
   ]]>
  </style>
 </defs>
 <g id="Layer_x0020_1">
  <metadata id="CorelCorpID_0Corel-Layer"/>
  <path class="fil0" d="M67 0l4 0 3 0 4 1 3 0 3 1 3 1 3 1 3 1 3 2 3 1 3 2 3 2 3 1 2 2 3 3 2 2 2 2 2 3 2 2 2 3 2 2 1 3 2 3 1 3 2 3 1 3 0 4 1 3 1 3 0 3 1 4 0 3 0 4 -1 3 0 4 -1 3 -1 3 0 3 -1 3 -2 3 -1 3 -2 3 -1 3 -2 3 -2 3 -2 2 -2 3 -2 2 -2 2 -3 2 -2 2 -3 2 -3 2 -3 1 -3 2 -3 1 -3 2 -3 1 -3 0 -3 1 -3 1 -4 0 -3 1 -4 0 -3 0 -4 -1 -3 0 -3 -1 -3 -1 -4 0 -3 -1 -3 -2 -3 -1 -3 -2 -3 -1 -2 -2 -3 -2 -2 -2 -3 -2 -2 -2 -2 -2 -3 -3 -2 -2 -1 -3 -2 -3 -2 -3 -1 -3 -2 -3 -1 -3 -1 -3 -1 -3 -1 -3 0 -3 -1 -4 0 -3 0 -4 0 -3 0 -4 1 -3 0 -3 1 -3 1 -4 1 -3 1 -3 2 -3 1 -3 2 -3 2 -2 1 -3 2 -2 3 -3 2 -2 2 -2 3 -3 2 -2 3 -1 2 -2 3 -2 3 -1 3 -2 3 -1 3 -1 4 -1 3 -1 3 0 3 -1 4 0 3 0zm35 58c11,0 19,9 19,19 0,10 -8,19 -19,19 -9,0 -16,-7 -18,-15l0 0 0 0 -3 0 0 0 -9 1c-2,0 -3,-1 -4,-3 -1,-1 -1,-2 -1,-4l-22 -16 -1 3c5,4 8,10 7,17 0,4 -2,7 -5,10 -3,4 -8,6 -13,6 -4,1 -10,-1 -13,-4 -3,-3 -6,-8 -6,-12 -1,-5 1,-10 4,-14 3,-4 6,-6 12,-7 4,0 8,1 11,2l7 -14 -6 -3c-1,0 -2,-2 -2,-3 -1,-2 0,-3 1,-4 0,-1 2,-2 3,-1l9 1c1,0 1,1 1,2 0,1 -1,1 -2,1l-8 -2c-1,0 -1,1 -2,1 0,1 1,2 1,2l9 5 -2 4 34 0 1 -3 -9 -3 2 -2c0,0 1,-1 2,-1l5 0 8 0c1,0 1,1 1,3 -1,1 -2,2 -4,3l-1 0 -2 3 5 9 0 0 2 2 0 0 0 0c2,-1 5,-2 8,-2zm-18 14c0,0 0,-1 1,-1 1,-4 2,-6 4,-8 1,0 1,-1 2,-1 0,0 0,0 0,0l-6 -9 -9 18 8 1zm11 -9l0 0 0 0 4 5 3 6c2,0 3,2 3,3 0,1 -1,2 -3,2l-4 1 0 0 0 0 -11 1c2,6 8,12 15,12 9,0 16,-8 16,-16 0,-9 -7,-16 -16,-16 -2,0 -5,1 -7,2zm-69 28c-5,-3 -8,-7 -9,-12 0,-5 1,-9 4,-12 2,-3 6,-5 9,-5 3,-1 6,-1 9,1l-2 6c-1,1 -2,5 -4,5 -1,0 -1,0 -2,0 -1,1 -2,2 -1,3 0,1 1,2 2,2 1,0 3,-1 2,-3 3,-1 5,-4 6,-7l2 -4c2,1 4,4 4,6 2,3 2,5 1,8 -1,5 -3,8 -6,10 -4,3 -9,4 -15,2zm43 -19l-23 -16 2 -4 34 0 -9 19c-1,0 -3,0 -4,1zm24 -8l5 10 -11 -1c1,-4 3,-6 6,-9z"/>
 </g>
</svg>
