<?xml version="1.0" encoding="UTF-8"?>
<!DOCTYPE svg PUBLIC "-//W3C//DTD SVG 1.1//EN" "http://www.w3.org/Graphics/SVG/1.1/DTD/svg11.dtd">
<!-- Creator: CorelDRAW X6 -->
<svg xmlns="http://www.w3.org/2000/svg" xml:space="preserve" width="33.504mm" height="33.5037mm" version="1.1" style="shape-rendering:geometricPrecision; text-rendering:geometricPrecision; image-rendering:optimizeQuality; fill-rule:evenodd; clip-rule:evenodd"
viewBox="0 0 150 150"
 xmlns:xlink="http://www.w3.org/1999/xlink">
 <defs>
  <style type="text/css">
   <![CDATA[
    .fil0 {fill:#0000FA}
    .fil1 {fill:red}
   ]]>
  </style>
 </defs>
 <g id="Layer_x0020_1">
  <metadata id="CorelCorpID_0Corel-Layer"/>
  <g id="_1080381072">
   <path class="fil0" d="M75 0l4 0 3 0 4 1 4 1 4 0 3 1 4 2 3 1 3 1 3 2 4 2 3 2 3 2 2 2 3 2 3 3 2 3 3 2 2 3 2 3 2 3 2 3 1 3 2 4 1 3 1 4 1 3 1 4 1 3 0 4 1 4 0 4 0 4 -1 3 0 4 -1 4 -1 4 -1 3 -1 4 -1 3 -2 3 -1 3 -2 4 -2 3 -2 3 -2 2 -3 3 -2 3 -3 2 -3 3 -2 2 -3 2 -3 2 -4 2 -3 1 -3 2 -3 1 -4 1 -3 1 -4 1 -4 1 -4 0 -3 1 -4 0 -4 0 -4 -1 -4 0 -3 -1 -4 -1 -3 -1 -4 -1 -3 -1 -4 -2 -3 -1 -3 -2 -3 -2 -3 -2 -3 -2 -2 -3 -3 -2 -3 -3 -2 -3 -2 -2 -2 -3 -2 -3 -2 -4 -2 -3 -1 -3 -1 -3 -2 -4 -1 -3 0 -4 -1 -4 -1 -4 0 -3 0 -4 0 -4 0 -4 1 -4 1 -3 0 -4 1 -3 2 -4 1 -3 1 -4 2 -3 2 -3 2 -3 2 -3 2 -3 2 -2 3 -3 3 -3 2 -2 3 -2 3 -2 3 -2 3 -2 3 -2 4 -1 3 -1 4 -2 3 -1 4 0 3 -1 4 -1 4 0 4 0zm39 65c11,0 20,9 20,20 0,12 -9,21 -20,21 -10,0 -19,-7 -21,-16l0 0 0 0 -3 0 0 0 -9 1c-3,0 -4,-1 -6,-3 -1,-1 -1,-3 0,-4l-25 -18 -2 3c7,4 9,11 9,19 -1,4 -3,8 -6,11 -3,5 -9,7 -14,7 -5,1 -11,-2 -15,-5 -3,-3 -6,-9 -7,-13 0,-6 1,-11 5,-15 3,-5 7,-7 13,-8 5,-1 9,0 12,2l8 -16 -6 -3c-2,-1 -3,-2 -3,-3 -1,-3 0,-4 1,-5 1,-1 3,-2 4,-2l10 2c1,0 1,1 1,2 0,1 -1,1 -2,1l-9 -1c-1,0 -2,0 -2,1 0,1 1,1 1,1l10 6 -2 4 38 0 1 -3 -10 -3 1 -2c1,-1 1,-1 3,-1l6 0 8 0c2,0 2,1 1,2 -1,2 -2,3 -4,4l-1 0 -2 4 6 9 0 0 1 3 0 0 0 0c3,-2 6,-2 10,-2zm-21 15c1,0 1,-1 1,-2 1,-3 3,-5 6,-8 0,0 0,-1 1,-1 0,0 0,0 0,0l-6 -10 -10 20 8 1zm13 -10l0 0 0 0 4 6 4 6c2,1 3,2 2,3 0,2 -1,3 -2,3l-5 0 0 0 0 0 -12 2c2,7 8,13 17,13 9,0 17,-8 17,-18 0,-9 -8,-17 -17,-17 -3,0 -6,1 -8,2zm-77 31c-5,-3 -9,-7 -10,-13 0,-5 0,-10 4,-14 3,-3 7,-5 10,-5 4,-1 7,-1 11,1l-3 6c-1,2 -2,6 -4,6 -1,1 -1,0 -2,1 -2,0 -2,2 -2,3 0,1 1,2 2,2 2,0 4,-2 3,-3 3,-1 5,-5 7,-9l2 -4c1,2 4,5 5,7 1,4 1,6 0,9 0,5 -3,9 -6,11 -5,3 -10,5 -17,2zm48 -21l-25 -18 2 -4 37 0 -10 21c-1,0 -3,0 -4,1zm26 -8l6 10 -12 -1c1,-4 3,-7 6,-9z"/>
   <path class="fil1" d="M18 124l106 -106c3,3 5,5 7,8l-105 105c-3,-2 -6,-5 -8,-7z"/>
  </g>
 </g>
</svg>
