<?xml version="1.0" encoding="UTF-8"?>
<!DOCTYPE svg PUBLIC "-//W3C//DTD SVG 1.1//EN" "http://www.w3.org/Graphics/SVG/1.1/DTD/svg11.dtd">
<!-- Creator: CorelDRAW X6 -->
<svg xmlns="http://www.w3.org/2000/svg" xml:space="preserve" width="33.504mm" height="33.5037mm" version="1.1" style="shape-rendering:geometricPrecision; text-rendering:geometricPrecision; image-rendering:optimizeQuality; fill-rule:evenodd; clip-rule:evenodd"
viewBox="0 0 168 168"
 xmlns:xlink="http://www.w3.org/1999/xlink">
 <defs>
  <style type="text/css">
   <![CDATA[
    .fil0 {fill:#0000FA}
   ]]>
  </style>
 </defs>
 <g id="Layer_x0020_1">
  <metadata id="CorelCorpID_0Corel-Layer"/>
  <path class="fil0" d="M84 0l5 0 4 0 4 1 4 1 4 1 4 1 4 1 4 2 4 1 3 2 4 2 3 2 4 3 3 2 3 3 3 3 2 3 3 3 3 3 2 3 2 4 2 3 2 4 2 3 1 4 2 4 1 4 1 4 0 4 1 5 0 4 0 4 0 5 0 4 -1 4 0 4 -1 4 -1 4 -2 4 -1 4 -2 4 -2 3 -2 4 -2 3 -2 4 -3 3 -3 3 -2 3 -3 2 -3 3 -3 3 -4 2 -3 2 -4 2 -3 2 -4 2 -4 1 -4 2 -4 1 -4 1 -4 0 -4 1 -4 0 -5 0 -4 0 -4 0 -5 -1 -4 0 -4 -1 -4 -1 -4 -2 -4 -1 -3 -2 -4 -2 -3 -2 -4 -2 -3 -2 -3 -3 -3 -3 -3 -2 -3 -3 -3 -3 -2 -3 -3 -4 -2 -3 -2 -4 -2 -3 -1 -4 -2 -4 -1 -4 -1 -4 -1 -4 -1 -4 -1 -4 0 -4 0 -5 0 -4 0 -4 1 -5 1 -4 1 -4 1 -4 1 -4 2 -4 1 -3 2 -4 2 -3 2 -4 3 -3 2 -3 3 -3 3 -3 3 -3 3 -3 3 -2 3 -3 4 -2 3 -2 4 -2 3 -1 4 -2 4 -1 4 -1 4 -1 4 -1 5 -1 4 0 4 0zm1 41c-5,0 -10,-4 -10,-9 0,-5 4,-10 10,-10 6,1 9,6 8,10 0,4 -4,8 -8,9zm-32 103c-3,-1 -4,-4 -3,-7l13 -30 20 -24 -4 -23 -20 23c-2,2 -5,2 -7,0 -2,-1 -2,-4 -1,-6l28 -32 15 -3 25 17 0 20c0,3 -3,5 -5,5 -3,0 -4,-2 -5,-5l0 -14 -8 -6 -3 26 -26 30 -11 26c-1,3 -4,5 -8,3zm54 -3l-17 -43 9 -10 19 49c1,3 0,5 -3,7 -2,1 -6,1 -8,-3z"/>
 </g>
</svg>
