<?xml version="1.0" encoding="UTF-8"?>
<!DOCTYPE svg PUBLIC "-//W3C//DTD SVG 1.1//EN" "http://www.w3.org/Graphics/SVG/1.1/DTD/svg11.dtd">
<!-- Creator: CorelDRAW X6 -->
<svg xmlns="http://www.w3.org/2000/svg" xml:space="preserve" width="33.504mm" height="33.5037mm" version="1.1" style="shape-rendering:geometricPrecision; text-rendering:geometricPrecision; image-rendering:optimizeQuality; fill-rule:evenodd; clip-rule:evenodd"
viewBox="0 0 193 193"
 xmlns:xlink="http://www.w3.org/1999/xlink">
 <defs>
  <style type="text/css">
   <![CDATA[
    .fil0 {fill:#0000FA}
    .fil1 {fill:red}
   ]]>
  </style>
 </defs>
 <g id="Layer_x0020_1">
  <metadata id="CorelCorpID_0Corel-Layer"/>
  <g id="_1077192768">
   <path class="fil0" d="M96 0l5 0 5 0 5 1 5 1 4 1 5 1 4 2 5 2 4 2 4 2 4 2 4 2 4 3 4 3 3 3 3 3 4 4 3 3 3 4 2 4 3 3 2 4 2 5 2 4 2 4 1 5 2 4 1 5 1 5 0 5 1 4 0 5 0 5 -1 5 0 5 -1 5 -1 4 -2 5 -1 4 -2 5 -2 4 -2 4 -2 4 -3 4 -2 4 -3 4 -3 3 -4 3 -3 4 -3 3 -4 3 -4 2 -4 3 -4 2 -4 2 -4 2 -5 2 -4 1 -5 2 -4 1 -5 1 -5 0 -5 1 -5 0 -5 0 -4 -1 -5 0 -5 -1 -5 -1 -4 -2 -5 -1 -4 -2 -4 -2 -5 -2 -4 -2 -3 -3 -4 -2 -4 -3 -3 -3 -4 -4 -3 -3 -3 -3 -3 -4 -3 -4 -2 -4 -2 -4 -2 -4 -2 -4 -2 -5 -2 -4 -1 -5 -1 -4 -1 -5 0 -5 -1 -5 0 -5 0 -5 1 -4 0 -5 1 -5 1 -5 1 -4 2 -5 2 -4 2 -4 2 -5 2 -4 2 -3 3 -4 3 -4 3 -3 3 -4 4 -3 3 -3 4 -3 4 -3 3 -2 4 -2 5 -2 4 -2 4 -2 5 -2 4 -1 5 -1 5 -1 5 -1 4 0 5 0zm-35 165c-4,-2 -5,-5 -4,-9l15 -34 23 -27 -5 -27 -22 27c-3,3 -6,2 -8,1 -2,-2 -3,-6 -1,-8l31 -37 17 -2 29 18 0 24c0,3 -3,5 -5,5 -3,0 -6,-2 -6,-5l0 -17 -10 -6 -3 29 -29 34 -13 31c-1,3 -5,5 -9,3zm36 -119c-6,1 -11,-4 -11,-9 0,-6 4,-12 11,-11 7,0 10,6 10,11 0,5 -5,9 -10,9zm25 115l-19 -49 10 -12 22 56c1,4 0,7 -3,9 -3,1 -8,1 -10,-4z"/>
   <path class="fil1" d="M23 159l136 -136c4,4 7,7 10,10l-136 136c-3,-2 -7,-7 -10,-10z"/>
  </g>
 </g>
</svg>
