<?xml version="1.0" encoding="UTF-8"?>
<!DOCTYPE svg PUBLIC "-//W3C//DTD SVG 1.1//EN" "http://www.w3.org/Graphics/SVG/1.1/DTD/svg11.dtd">
<!-- Creator: CorelDRAW X6 -->
<svg xmlns="http://www.w3.org/2000/svg" xml:space="preserve" width="33.504mm" height="33.504mm" version="1.1" style="shape-rendering:geometricPrecision; text-rendering:geometricPrecision; image-rendering:optimizeQuality; fill-rule:evenodd; clip-rule:evenodd"
viewBox="0 0 225 225"
 xmlns:xlink="http://www.w3.org/1999/xlink">
 <defs>
  <style type="text/css">
   <![CDATA[
    .fil0 {fill:#0000FA}
   ]]>
  </style>
 </defs>
 <g id="Layer_x0020_1">
  <metadata id="CorelCorpID_0Corel-Layer"/>
  <path class="fil0" d="M112 0l6 0 6 1 5 0 6 1 5 2 6 1 5 2 5 2 5 2 5 3 5 2 4 3 5 3 4 4 4 3 4 4 3 4 4 4 3 4 3 5 3 4 3 5 3 5 2 5 2 5 2 5 1 5 1 6 1 5 1 6 1 6 0 5 0 6 -1 6 -1 5 -1 6 -1 5 -1 6 -2 5 -2 5 -2 5 -3 5 -3 5 -3 4 -3 5 -3 4 -4 4 -3 4 -4 3 -4 4 -4 3 -5 3 -4 3 -5 3 -5 3 -5 2 -5 2 -5 2 -6 1 -5 1 -6 1 -5 1 -6 1 -6 0 -5 0 -6 -1 -6 -1 -5 -1 -6 -1 -5 -1 -5 -2 -5 -2 -5 -2 -5 -3 -5 -3 -4 -3 -5 -3 -4 -3 -4 -4 -4 -3 -4 -4 -3 -4 -4 -4 -3 -5 -3 -4 -2 -5 -3 -5 -2 -5 -2 -5 -2 -5 -1 -6 -2 -5 -1 -6 0 -5 -1 -6 0 -6 0 -5 1 -6 0 -6 1 -5 2 -6 1 -5 2 -5 2 -5 2 -5 3 -5 2 -5 3 -4 3 -5 4 -4 3 -4 4 -4 4 -4 4 -3 4 -4 5 -3 4 -3 5 -2 5 -3 5 -2 5 -2 5 -2 5 -1 6 -2 5 -1 6 0 6 -1 5 0zm3 24c-4,0 -7,-3 -7,-6 0,-4 3,-8 7,-8 5,1 7,4 7,8 0,3 -3,6 -7,6zm-25 78c-2,-1 -2,-3 -2,-6l10 -22 15 -18 -3 -17 -15 17c-1,2 -4,2 -5,0 -1,-1 -2,-3 -1,-5l21 -24 11 -2 19 13 0 15c0,2 -2,3 -3,3 -3,0 -4,-1 -4,-3l0 -11 -7 -4 -2 19 -19 23 -8 20c-1,2 -4,3 -7,2zm41 -3l-13 -32 7 -8 15 37c0,2 0,5 -3,6 -1,1 -5,1 -6,-3zm27 48c13,0 24,11 24,25 0,13 -11,24 -24,24 -12,0 -22,-8 -24,-19l0 0 0 0 -4 0 0 0 -11 2c-3,-1 -4,-2 -6,-4 -1,-2 -1,-3 -1,-5l-29 -21 -2 3c8,6 11,14 10,22 0,5 -3,10 -6,14 -4,5 -11,7 -17,8 -6,0 -13,-2 -17,-6 -4,-4 -8,-10 -8,-16 -1,-6 1,-12 5,-17 4,-5 8,-8 16,-10 5,0 10,1 14,3l9 -18 -7 -4c-2,-1 -3,-2 -4,-4 0,-3 1,-4 2,-6 1,-1 3,-2 5,-1l10 2c2,0 2,1 2,2 -1,1 -1,1 -2,1l-11 -2c-1,0 -2,1 -2,1 0,2 0,2 1,3l11 6 -2 5 44 0 2 -3 -12 -4 2 -3c0,0 1,-1 2,-1l8 0 10 0c1,0 2,1 1,3 -1,2 -3,3 -5,5l-2 0 -2 4 7 11 0 0 2 3 0 0 0 0c3,-2 7,-3 11,-3zm-24 19c0,-1 1,-2 1,-3 1,-4 3,-6 6,-9 1,-1 1,-1 2,-1 0,-1 0,-1 0,-1l-7 -12 -12 25 10 1zm15 -13l0 0 0 0 4 8 5 7c2,0 3,2 3,4 0,1 -1,3 -3,3l-6 0 0 0 0 0 -14 2c2,8 10,15 20,15 11,0 20,-9 20,-20 0,-12 -9,-21 -20,-21 -3,0 -6,1 -9,2zm-90 37c-6,-3 -11,-9 -12,-15 0,-7 1,-12 5,-16 3,-4 7,-6 12,-7 4,0 8,0 12,2l-4 7c-1,2 -2,6 -4,7 -1,0 -2,0 -3,0 -1,1 -2,3 -2,4 1,2 2,2 3,3 2,0 4,-2 4,-4 2,-1 5,-6 7,-10l2 -5c3,2 6,6 6,8 2,4 2,7 1,11 -1,5 -4,10 -8,13 -5,3 -11,5 -19,2zm56 -24l-30 -22 3 -4 44 0 -12 24c-2,0 -4,0 -5,2zm30 -10l8 12 -15 -2c1,-4 4,-8 7,-10z"/>
 </g>
</svg>
