<?xml version="1.0" encoding="UTF-8"?>
<!DOCTYPE svg PUBLIC "-//W3C//DTD SVG 1.1//EN" "http://www.w3.org/Graphics/SVG/1.1/DTD/svg11.dtd">
<!-- Creator: CorelDRAW X6 -->
<svg xmlns="http://www.w3.org/2000/svg" xml:space="preserve" width="33.504mm" height="33.504mm" version="1.1" style="shape-rendering:geometricPrecision; text-rendering:geometricPrecision; image-rendering:optimizeQuality; fill-rule:evenodd; clip-rule:evenodd"
viewBox="0 0 270 270"
 xmlns:xlink="http://www.w3.org/1999/xlink">
 <defs>
  <style type="text/css">
   <![CDATA[
    .fil0 {fill:#0000FA}
    .fil1 {fill:red}
   ]]>
  </style>
 </defs>
 <g id="Layer_x0020_1">
  <metadata id="CorelCorpID_0Corel-Layer"/>
  <g id="_1077208192">
   <path class="fil0" d="M135 0l7 0 7 1 7 1 6 1 7 1 6 2 6 2 7 3 6 2 5 3 6 4 6 3 5 4 5 4 5 4 5 5 4 4 4 5 4 5 4 6 4 5 3 6 3 6 3 6 2 6 2 6 2 6 1 7 2 7 1 6 0 7 0 7 0 7 0 7 -1 7 -2 6 -1 7 -2 6 -2 6 -2 7 -3 6 -3 5 -3 6 -4 6 -4 5 -4 5 -4 5 -4 5 -5 4 -5 4 -5 4 -5 4 -6 4 -6 3 -5 3 -6 3 -7 2 -6 2 -6 2 -7 1 -6 2 -7 1 -7 0 -7 0 -7 0 -7 0 -6 -1 -7 -2 -7 -1 -6 -2 -6 -2 -6 -2 -6 -3 -6 -3 -6 -3 -5 -4 -6 -4 -5 -4 -5 -4 -4 -4 -5 -5 -4 -5 -4 -5 -4 -5 -3 -6 -4 -6 -3 -5 -2 -6 -3 -7 -2 -6 -2 -6 -1 -7 -1 -6 -1 -7 -1 -7 0 -7 0 -7 1 -7 1 -6 1 -7 1 -7 2 -6 2 -6 3 -6 2 -6 3 -6 4 -6 3 -5 4 -6 4 -5 4 -5 5 -4 4 -5 5 -4 5 -4 6 -4 5 -3 6 -4 6 -3 6 -2 6 -3 6 -2 6 -2 7 -1 7 -1 6 -1 7 -1 7 0zm1 29c-5,0 -9,-3 -9,-8 0,-4 3,-9 9,-9 5,1 8,5 7,9 0,4 -3,8 -7,8zm-29 94c-3,-2 -4,-4 -3,-7l12 -27 18 -22 -4 -21 -18 21c-2,2 -4,2 -6,1 -1,-2 -2,-4 -1,-6l25 -29 14 -2 22 15 0 18c0,2 -2,4 -4,4 -2,0 -4,-2 -4,-4l0 -13 -8 -5 -3 23 -23 27 -10 24c-1,2 -4,4 -7,3zm49 -4l-16 -38 8 -9 18 44c1,2 0,5 -3,7 -2,0 -6,0 -7,-4zm34 58c16,0 29,13 29,29 0,17 -13,30 -29,30 -14,0 -26,-10 -29,-23l0 0 0 0 -5 0 0 0 -13 2c-4,-1 -5,-2 -7,-5 -2,-2 -2,-4 -1,-6l-35 -25 -2 4c9,6 12,16 12,27 -1,6 -4,11 -8,16 -5,6 -13,9 -20,9 -7,1 -16,-2 -21,-7 -5,-4 -9,-12 -10,-19 0,-7 1,-14 7,-21 4,-6 10,-9 19,-11 6,-1 12,1 17,3l11 -22 -9 -4c-2,-1 -4,-3 -4,-5 -1,-3 0,-5 1,-7 2,-1 4,-2 6,-2l13 3c2,0 2,1 2,2 0,2 -1,2 -3,2l-13 -2c0,0 -1,0 -2,1 0,1 1,2 1,3l14 7 -3 7 54 0 1 -5 -14 -4 2 -3c1,-1 2,-2 3,-2l9 0 12 0c2,0 3,2 1,4 -1,2 -3,4 -5,5l-3 0 -2 5 8 14 0 0 3 3 0 0 0 0c4,-2 8,-3 13,-3zm-29 22c1,-1 1,-2 1,-2 2,-5 4,-9 8,-12 0,-1 1,-1 2,-2 0,0 0,0 0,0l-9 -14 -14 29 12 1zm18 -15l0 0 0 0 6 9 5 9c3,1 4,3 4,4 0,2 -2,4 -4,4l-7 1 0 0 0 0 -17 1c2,11 12,19 24,19 13,0 24,-11 24,-25 0,-13 -11,-24 -24,-24 -4,0 -8,1 -11,2zm-108 44c-8,-3 -13,-10 -14,-18 -1,-8 0,-14 5,-19 4,-5 9,-7 15,-8 4,-1 9,-1 14,2l-4 9c-1,2 -3,7 -6,8 -1,0 -1,0 -3,1 -2,1 -2,2 -2,4 1,2 2,3 4,3 2,0 4,-2 4,-5 3,-1 6,-7 9,-11l2 -6c3,2 7,7 7,10 2,5 2,8 2,12 -1,7 -5,12 -10,16 -6,4 -13,6 -23,2zm67 -29l-36 -25 3 -6 54 0 -15 29c-2,0 -5,1 -6,2zm37 -12l8 15 -17 -2c2,-5 5,-10 9,-13z"/>
   <path class="fil1" d="M33 223l190 -190c5,4 10,9 14,14l-190 190c-5,-3 -11,-9 -14,-14z"/>
  </g>
 </g>
</svg>
