<?xml version="1.0" encoding="UTF-8"?>
<!DOCTYPE svg PUBLIC "-//W3C//DTD SVG 1.1//EN" "http://www.w3.org/Graphics/SVG/1.1/DTD/svg11.dtd">
<!-- Creator: CorelDRAW X6 -->
<svg xmlns="http://www.w3.org/2000/svg" xml:space="preserve" width="33.5037mm" height="33.4854mm" version="1.1" style="shape-rendering:geometricPrecision; text-rendering:geometricPrecision; image-rendering:optimizeQuality; fill-rule:evenodd; clip-rule:evenodd"
viewBox="0 0 135 135"
 xmlns:xlink="http://www.w3.org/1999/xlink">
 <defs>
  <style type="text/css">
   <![CDATA[
    .fil0 {fill:#0000FA}
   ]]>
  </style>
 </defs>
 <g id="Layer_x0020_1">
  <metadata id="CorelCorpID_0Corel-Layer"/>
  <path class="fil0" d="M66 135l-2 -1 -4 0 -3 0 -3 -1 -3 -1 -4 0 -3 -2 -3 -1 -3 -1 -3 -2 -3 -1 -2 -2 -3 -2 -2 -2 -3 -2 -2 -2 -2 -3 -3 -2 -2 -3 -1 -2 -2 -3 -2 -3 -1 -3 -2 -3 -1 -3 -1 -3 -1 -3 -1 -3 0 -4 -1 -3 0 -3 0 -4 0 -3 0 -4 1 -3 0 -3 1 -4 1 -3 1 -3 1 -3 2 -3 1 -3 2 -3 2 -2 1 -3 2 -3 3 -2 2 -2 2 -3 3 -2 2 -2 3 -2 2 -1 3 -2 3 -1 3 -2 3 -1 3 -1 4 -1 3 -1 3 0 3 -1 4 0 2 0 0 135zm3 -135l2 0 3 0 4 1 3 0 3 1 3 1 3 1 3 1 3 2 3 1 3 2 3 1 3 2 2 2 2 2 3 3 2 2 2 2 2 3 2 3 2 2 1 3 2 3 1 3 1 3 2 3 0 3 1 4 1 3 0 3 0 4 1 3 -1 4 0 3 0 3 -1 4 -1 3 0 3 -2 3 -1 3 -1 3 -2 3 -1 3 -2 3 -2 2 -2 3 -2 2 -2 3 -3 2 -2 2 -2 2 -3 2 -3 2 -3 1 -3 2 -3 1 -3 1 -3 2 -3 0 -3 1 -3 1 -4 0 -3 0 -2 1 0 -135zm31 41c-2,1 -4,-1 -5,-3 0,-3 2,-5 5,-5 2,0 4,3 4,5 0,2 -2,3 -4,3zm-15 47c-1,-1 -2,-2 -1,-3l5 -14 10 -11 -2 -10 -9 11c-1,1 -2,1 -3,0 -1,-1 -1,-2 -1,-3l13 -15 6 -1 12 8 0 9c-1,1 -1,2 -2,2 -2,0 -3,-1 -3,-2l0 -7 -4 -2 -1 11 -11 14 -5 12c-1,1 -2,2 -4,1zm24 -1l-7 -20 4 -4 8 22c1,1 0,2 -1,3 -1,0 -3,0 -4,-1zm-56 -42c5,0 10,4 10,10 0,5 -5,10 -10,10 -5,0 -9,-4 -10,-8l0 0 0 0 -1 0 0 0 -5 1c-1,0 -2,-1 -2,-2 -1,0 -1,-1 -1,-2l-11 -8 -1 1c3,2 4,5 4,9 0,2 -1,4 -3,6 -1,1 -4,3 -6,3 -3,0 -6,-1 -7,-3 -2,-1 -3,-4 -4,-6 0,-3 1,-5 3,-7 1,-2 3,-3 6,-4 2,0 4,0 6,1l3 -7 -3 -2c0,0 -1,-1 -1,-1 0,-2 0,-2 1,-3 0,0 1,0 2,0l4 0c0,1 1,1 0,1 0,1 0,1 0,1l-5 -1c0,0 0,0 -1,1 0,0 1,0 1,1l5 2 -2 2 18 0 1 -1 -5 -2 1 -1c0,0 1,0 1,0l3 0 4 0c1,0 1,0 0,1 0,1 -1,1 -2,2l0 0 -1 1 3 5 0 0 0 1 0 0 0 0c2,-1 3,-1 5,-1zm-10 8c0,-1 1,-1 1,-1 0,-2 1,-3 2,-4 0,0 1,-1 1,-1 0,0 0,0 0,0l-3 -5 -5 10 4 1zm6 -6l0 0 0 1 2 3 2 3c1,0 1,0 1,1 0,1 0,1 -1,1l-2 0 0 0 0 0 -6 1c1,3 4,6 8,6 4,0 8,-4 8,-8 0,-5 -4,-8 -8,-8 -1,0 -3,0 -4,0zm-36 15c-3,-1 -4,-3 -5,-6 0,-2 0,-4 2,-6 1,-2 3,-3 5,-3 2,0 3,0 5,1l-2 3c0,0 -1,2 -1,2 -1,1 -1,0 -1,1 -1,0 -1,1 -1,1 0,1 0,1 1,1 1,0 1,-1 1,-2 1,0 2,-2 3,-3l1 -2c1,0 2,2 3,3 0,2 0,3 0,4 0,2 -2,4 -3,5 -2,2 -5,2 -8,1zm22 -10l-11 -8 1 -2 17 0 -4 10c-1,0 -2,0 -3,0zm13 -4l3 5 -6 0c0,-2 1,-4 3,-5zm-13 62l0 -22 -6 2 8 -14 8 14 -6 -2 0 22 -4 0z"/>
 </g>
</svg>
