<?xml version="1.0" encoding="UTF-8"?>
<!DOCTYPE svg PUBLIC "-//W3C//DTD SVG 1.1//EN" "http://www.w3.org/Graphics/SVG/1.1/DTD/svg11.dtd">
<!-- Creator: CorelDRAW X6 -->
<svg xmlns="http://www.w3.org/2000/svg" xml:space="preserve" width="34.4247mm" height="34.4055mm" version="1.1" style="shape-rendering:geometricPrecision; text-rendering:geometricPrecision; image-rendering:optimizeQuality; fill-rule:evenodd; clip-rule:evenodd"
viewBox="0 0 158 158"
 xmlns:xlink="http://www.w3.org/1999/xlink">
 <defs>
  <style type="text/css">
   <![CDATA[
    .fil0 {fill:#0000FA}
    .fil1 {fill:red}
   ]]>
  </style>
 </defs>
 <g id="Layer_x0020_1">
  <metadata id="CorelCorpID_0Corel-Layer"/>
  <g id="_1080383120">
   <path class="fil0" d="M77 158l-2 0 -4 -1 -4 0 -4 -1 -4 -1 -3 -1 -4 -1 -4 -1 -3 -2 -4 -2 -3 -2 -3 -2 -3 -2 -3 -2 -3 -3 -3 -2 -2 -3 -3 -3 -2 -3 -2 -3 -3 -3 -1 -4 -2 -3 -2 -3 -1 -4 -1 -4 -2 -3 0 -4 -1 -4 -1 -4 0 -4 0 -4 0 -4 0 -4 1 -4 1 -4 0 -4 2 -4 1 -3 1 -4 2 -3 2 -4 1 -3 3 -3 2 -3 2 -3 3 -3 2 -3 3 -2 3 -3 3 -2 3 -3 3 -2 3 -1 4 -2 3 -2 4 -1 4 -1 3 -2 4 0 4 -1 4 -1 4 0 2 0 0 158zm4 -158l2 0 4 0 4 1 4 1 4 0 3 2 4 1 4 1 3 2 4 2 3 1 3 2 3 3 3 2 3 3 3 2 2 3 3 3 2 3 2 3 2 3 2 3 2 4 2 3 1 4 1 3 1 4 1 4 1 4 1 4 0 4 0 4 0 4 0 4 -1 4 -1 4 -1 4 -1 3 -1 4 -1 4 -2 3 -2 3 -2 4 -2 3 -2 3 -2 3 -3 3 -2 3 -3 2 -3 3 -3 2 -3 2 -3 2 -3 2 -4 2 -3 2 -4 1 -4 1 -3 1 -4 1 -4 1 -4 0 -4 1 -2 0 0 -158zm47 121l-9 -23 5 -5 10 26c1,1 0,3 -1,4 -1,0 -4,0 -5,-2zm-87 6l0 -25 -6 2 9 -15 9 15 -7 -2 0 25 -5 0zm21 -74c6,0 12,5 12,11 0,7 -6,12 -12,12 -5,0 -10,-4 -11,-9l0 0 0 0 -2 0 0 0 -5 1c-2,0 -2,-1 -3,-2 -1,-1 -1,-2 -1,-3l-13 -9 -1 1c3,3 5,6 5,11 -1,2 -2,4 -3,6 -3,2 -6,4 -8,4 -3,0 -7,-1 -9,-3 -2,-2 -3,-5 -3,-7 -1,-4 0,-6 2,-9 2,-2 4,-3 8,-4 2,0 5,0 6,1l5 -9 -4 -1c-1,-1 -1,-1 -2,-2 0,-2 1,-2 1,-3 1,0 2,-1 2,-1l6 1c0,0 0,1 0,1 0,1 0,1 -1,1l-5 -1c0,0 -1,0 -1,1 0,0 0,1 1,1l5 3 -1 2 21 0 1 -2 -6 -1 1 -2c0,0 1,0 1,0l4 0 4 0c1,0 1,0 1,1 -1,1 -2,2 -2,2l-1 0 -1 2 3 6 0 0 1 1 0 0 0 0c1,-1 3,-1 5,-1zm-11 9c0,-1 0,-1 0,-1 1,-2 2,-4 3,-5 0,0 1,0 1,-1 0,0 0,0 0,0l-3 -5 -6 11 5 1zm7 -6l0 0 0 0 2 3 2 4c1,0 2,1 2,1 0,1 -1,2 -2,2l-3 0 0 0 0 0 -6 1c1,4 5,7 9,7 5,0 10,-4 10,-10 0,-5 -5,-9 -10,-9 -1,0 -3,0 -4,1zm-43 17c-3,-1 -5,-4 -5,-7 -1,-3 0,-6 2,-8 1,-2 3,-3 6,-3 1,0 3,0 5,1l-1 3c-1,1 -2,3 -3,4 0,0 0,0 -1,0 -1,0 -1,1 -1,2 1,0 1,1 2,1 1,0 1,-1 1,-2 2,-1 3,-3 4,-5l1 -2c1,1 2,3 3,4 0,2 0,3 0,5 0,3 -2,5 -4,6 -2,2 -5,2 -9,1zm27 -11l-14 -10 1 -3 21 0 -6 12c-1,0 -2,0 -2,1zm14 -5l4 6 -7 -1c0,-2 2,-4 3,-5zm61 11c-3,0 -5,-2 -5,-5 0,-2 2,-5 5,-5 3,0 5,3 5,5 0,3 -2,5 -5,5zm-17 55c-2,-1 -2,-3 -2,-4l7 -16 11 -13 -3 -12 -10 12c-1,2 -3,1 -4,1 -1,-1 -1,-3 0,-4l14 -17 8 -1 13 9 0 10c0,2 -1,3 -2,3 -1,0 -2,-1 -3,-3l0 -7 -4 -3 -2 13 -13 16 -6 14c-1,1 -2,3 -4,2z"/>
   <path class="fil1" d="M19 130l111 -111c3,3 6,5 9,8l-112 112c-2,-3 -6,-6 -8,-9z"/>
  </g>
 </g>
</svg>
