<?xml version="1.0" encoding="UTF-8"?>
<!DOCTYPE svg PUBLIC "-//W3C//DTD SVG 1.1//EN" "http://www.w3.org/Graphics/SVG/1.1/DTD/svg11.dtd">
<!-- Creator: CorelDRAW X6 -->
<svg xmlns="http://www.w3.org/2000/svg" xml:space="preserve" width="33.504mm" height="33.4854mm" version="1.1" style="shape-rendering:geometricPrecision; text-rendering:geometricPrecision; image-rendering:optimizeQuality; fill-rule:evenodd; clip-rule:evenodd"
viewBox="0 0 168 168"
 xmlns:xlink="http://www.w3.org/1999/xlink">
 <defs>
  <style type="text/css">
   <![CDATA[
    .fil0 {fill:#0000FA}
   ]]>
  </style>
 </defs>
 <g id="Layer_x0020_1">
  <metadata id="CorelCorpID_0Corel-Layer"/>
  <path class="fil0" d="M82 168l-2 0 -4 0 -5 -1 -4 0 -4 -1 -4 -2 -4 -1 -4 -1 -3 -2 -4 -2 -3 -2 -4 -2 -3 -2 -3 -3 -3 -3 -3 -2 -3 -3 -3 -3 -2 -4 -3 -3 -2 -3 -2 -4 -2 -3 -1 -4 -2 -4 -1 -4 -1 -4 -1 -4 -1 -4 -1 -4 0 -5 0 -4 0 -4 0 -4 1 -5 1 -4 1 -4 1 -4 1 -4 2 -4 1 -3 2 -4 2 -3 2 -4 3 -3 2 -3 3 -3 3 -3 3 -3 3 -3 3 -2 3 -3 4 -2 3 -2 4 -2 3 -1 4 -2 4 -1 4 -1 4 -1 4 -1 5 -1 4 0 2 0 0 168zm4 -168l2 0 5 0 4 1 4 1 4 1 4 1 4 1 4 2 4 1 3 2 4 2 3 2 3 3 4 2 3 3 3 3 2 3 3 3 3 3 2 3 2 4 2 3 2 4 2 3 1 4 2 4 1 4 1 4 0 4 1 5 0 4 0 4 0 4 0 5 -1 4 0 4 -1 4 -1 4 -2 4 -1 4 -2 4 -2 3 -2 4 -2 3 -2 3 -3 4 -3 3 -2 3 -3 2 -3 3 -4 3 -3 2 -3 2 -4 2 -3 2 -4 2 -4 1 -4 1 -4 2 -4 1 -4 0 -4 1 -5 0 -2 0 0 -168zm-41 59c-3,0 -5,-3 -6,-5 0,-3 2,-6 6,-6 3,0 5,3 5,6 0,2 -3,4 -5,5zm-19 59c-2,-1 -2,-2 -2,-4l8 -18 11 -13 -2 -13 -11 13c-2,1 -3,1 -5,0 0,-1 -1,-2 0,-4l16 -18 8 -1 15 9 0 12c0,1 -2,2 -3,2 -2,0 -3,-1 -3,-2l0 -9 -5 -3 -1 15 -15 17 -6 15c-1,2 -3,3 -5,2zm31 -2l-10 -24 5 -6 12 28c0,1 -1,3 -2,4 -1,0 -4,0 -5,-2zm94 -35c7,0 13,6 13,13 0,7 -6,12 -13,12 -6,0 -11,-4 -12,-9l0 0 0 -1 -2 1 0 0 -6 0c-2,0 -2,0 -3,-2 -1,0 -1,-1 -1,-2l-14 -11 -1 2c4,3 5,7 5,11 0,3 -2,5 -3,7 -3,3 -6,4 -9,4 -3,1 -7,-1 -9,-3 -2,-2 -4,-5 -4,-8 0,-3 0,-6 2,-9 2,-3 5,-4 9,-5 2,0 5,1 7,2l5 -10 -4 -2c-1,0 -2,-1 -2,-2 0,-1 0,-2 1,-3 0,0 1,-1 2,0l6 0c1,1 1,1 1,2 -1,0 -1,0 -2,0l-5 -1c0,0 -1,1 -1,1 0,1 0,1 0,1l6 3 -1 3 23 0 1 -2 -6 -2 0 -1c1,0 1,-1 2,-1l4 0 5 0c1,0 1,1 0,2 0,1 -1,2 -2,2l-1 0 -1 2 3 6 0 0 1 2 0 0 0 0c2,-1 4,-2 6,-2zm-12 10c0,-1 0,-1 0,-1 1,-2 2,-4 3,-5 1,-1 1,-1 1,-1 0,0 0,0 0,0l-3 -6 -6 12 5 1zm7 -7l0 0 0 0 3 4 2 4c1,0 2,1 2,2 0,1 -1,1 -2,1l-3 1 0 0 0 0 -7 0c1,5 5,8 10,8 6,0 10,-4 10,-10 0,-6 -4,-11 -10,-11 -2,0 -3,1 -5,1zm-46 19c-3,-1 -5,-4 -6,-8 0,-3 0,-5 3,-8 1,-2 3,-3 6,-3 2,0 4,0 6,1l-2 3c0,1 -1,4 -2,4 -1,0 -1,0 -2,0 -1,1 -1,1 -1,2 1,1 1,1 2,1 1,0 2,-1 2,-2 1,0 2,-3 3,-5l2 -2c1,1 2,3 3,4 0,2 0,3 0,6 0,2 -2,5 -4,6 -3,2 -6,3 -10,1zm29 -12l-15 -11 1 -3 23 0 -6 13c-1,0 -3,0 -3,1zm16 -5l3 6 -7 -1c1,-2 2,-4 4,-5z"/>
 </g>
</svg>
