<?xml version="1.0" encoding="UTF-8"?>
<!DOCTYPE svg PUBLIC "-//W3C//DTD SVG 1.1//EN" "http://www.w3.org/Graphics/SVG/1.1/DTD/svg11.dtd">
<!-- Creator: CorelDRAW X6 -->
<svg xmlns="http://www.w3.org/2000/svg" xml:space="preserve" width="34.4244mm" height="34.4055mm" version="1.1" style="shape-rendering:geometricPrecision; text-rendering:geometricPrecision; image-rendering:optimizeQuality; fill-rule:evenodd; clip-rule:evenodd"
viewBox="0 0 204 203"
 xmlns:xlink="http://www.w3.org/1999/xlink">
 <defs>
  <style type="text/css">
   <![CDATA[
    .fil0 {fill:#0000FA}
    .fil1 {fill:red}
   ]]>
  </style>
 </defs>
 <g id="Layer_x0020_1">
  <metadata id="CorelCorpID_0Corel-Layer"/>
  <g id="_1080383568">
   <path class="fil0" d="M99 203l-2 0 -6 0 -5 -1 -5 -1 -5 -1 -4 -1 -5 -2 -5 -2 -4 -2 -5 -2 -4 -2 -4 -3 -4 -3 -4 -3 -4 -3 -3 -3 -4 -4 -3 -4 -3 -3 -3 -4 -2 -5 -3 -4 -2 -4 -2 -5 -2 -4 -1 -5 -2 -5 -1 -5 -1 -5 0 -5 -1 -5 0 -5 0 -6 1 -5 0 -5 1 -5 1 -5 2 -4 1 -5 2 -5 2 -4 2 -5 3 -4 2 -4 3 -4 3 -4 3 -4 4 -3 3 -4 4 -3 4 -3 4 -3 4 -2 4 -3 5 -2 4 -2 5 -2 5 -1 4 -2 5 -1 5 -1 5 -1 6 0 2 0 0 203zm5 -203l3 0 5 0 5 1 5 1 5 1 5 2 5 1 4 2 5 2 4 2 4 3 5 2 4 3 3 3 4 3 4 4 3 3 3 4 3 4 3 4 3 4 2 4 2 5 3 4 1 5 2 5 1 4 1 5 1 5 1 5 0 5 1 6 -1 5 0 5 -1 5 -1 5 -1 5 -1 5 -2 5 -1 4 -3 5 -2 4 -2 4 -3 5 -3 4 -3 3 -3 4 -3 4 -4 3 -4 3 -3 3 -4 3 -5 3 -4 2 -4 2 -5 2 -4 2 -5 2 -5 1 -5 1 -5 1 -5 1 -5 0 -3 0 0 -203zm-50 71c-3,0 -6,-3 -7,-6 0,-3 3,-7 7,-7 4,0 6,4 6,7 0,3 -3,6 -6,6zm-23 72c-2,-2 -2,-3 -2,-6l9 -20 14 -17 -3 -16 -13 16c-2,2 -4,2 -5,1 -1,-1 -2,-4 -1,-5l19 -22 11 -2 17 12 0 14c0,1 -2,3 -3,3 -2,0 -3,-1 -4,-3l0 -10 -6 -4 -1 17 -18 21 -8 18c-1,2 -3,4 -6,3zm38 -3l-12 -29 6 -8 14 34c0,2 0,4 -3,6 -1,0 -4,0 -5,-3zm114 -42c8,0 15,7 15,15 0,9 -7,16 -15,16 -8,0 -14,-5 -15,-12l0 0 0 0 -3 0 0 0 -7 1c-1,0 -2,-1 -3,-3 -1,-1 -1,-2 -1,-3l-18 -13 -1 2c5,4 7,9 6,14 0,3 -2,6 -4,9 -2,3 -6,4 -10,4 -4,1 -8,-1 -11,-3 -3,-3 -5,-6 -5,-10 0,-4 1,-8 3,-11 3,-3 5,-5 10,-6 3,0 7,1 9,2l6 -12 -5 -2c-1,0 -2,-1 -2,-2 -1,-2 0,-3 1,-4 0,0 2,-1 3,-1l7 1c0,1 1,1 0,2 0,0 0,1 -1,1l-7 -1c0,-1 -1,0 -1,0 0,1 0,1 1,2l7 3 -2 4 28 0 1 -2 -7 -3 1 -1c0,-1 1,-1 1,-1l5 0 6 0c1,0 1,1 1,2 -1,1 -2,2 -3,3l-1 0 -2 2 5 7 0 0 1 2 0 0 0 0c2,-1 4,-2 7,-2zm-15 12c0,-1 0,-1 0,-2 1,-2 2,-4 4,-6 1,0 1,0 1,0 0,-1 0,-1 1,-1l-5 -7 -7 15 6 1zm9 -8l0 0 0 0 3 5 3 4c1,0 2,1 2,2 0,1 -1,2 -2,2l-4 1 0 0 0 0 -9 0c2,6 7,10 13,10 7,0 12,-6 12,-13 0,-7 -5,-12 -12,-12 -2,0 -4,0 -6,1zm-56 23c-4,-2 -6,-5 -7,-10 -1,-4 0,-7 3,-10 2,-2 4,-3 7,-4 3,0 5,0 8,1l-3 5c0,1 -1,4 -2,4 -1,0 -1,0 -2,0 -1,1 -1,2 -1,3 0,1 1,1 2,1 1,0 2,-1 2,-2 1,-1 3,-4 4,-6l2 -3c1,1 3,3 3,5 1,2 1,4 1,7 -1,3 -3,6 -5,7 -3,2 -7,4 -12,2zm35 -15l-19 -14 2 -3 27 0 -7 16c-1,0 -2,0 -3,1zm19 -7l4 8 -9 -1c1,-3 3,-5 5,-7z"/>
   <path class="fil1" d="M25 168l143 -143c4,3 8,7 11,10l-144 144c-3,-3 -8,-8 -10,-11z"/>
  </g>
 </g>
</svg>
