<?xml version="1.0" encoding="UTF-8"?>
<!DOCTYPE svg PUBLIC "-//W3C//DTD SVG 1.1//EN" "http://www.w3.org/Graphics/SVG/1.1/DTD/svg11.dtd">
<!-- Creator: CorelDRAW X6 -->
<svg xmlns="http://www.w3.org/2000/svg" xml:space="preserve" width="37.4919mm" height="37.4919mm" version="1.1" style="shape-rendering:geometricPrecision; text-rendering:geometricPrecision; image-rendering:optimizeQuality; fill-rule:evenodd; clip-rule:evenodd"
viewBox="0 0 308 308"
 xmlns:xlink="http://www.w3.org/1999/xlink">
 <defs>
  <style type="text/css">
   <![CDATA[
    .fil0 {fill:#0000FA}
   ]]>
  </style>
 </defs>
 <g id="Layer_x0020_1">
  <metadata id="CorelCorpID_0Corel-Layer"/>
  <path class="fil0" d="M55 160l0 -83 83 0 0 22 -62 0 0 35c17,-14 42,-11 56,7 5,7 8,15 8,24l0 24c0,24 -19,43 -43,43 -23,0 -42,-17 -44,-39l22 0c2,12 14,19 26,17 10,-2 18,-11 18,-21l0 -20c0,-12 -10,-22 -22,-22 -9,0 -16,5 -20,13l-22 0zm135 29c0,12 10,21 22,21 12,0 22,-9 22,-21l0 -69c0,-12 -10,-22 -22,-22 -12,0 -22,10 -22,22l0 69zm-22 0l0 -69c0,-24 19,-44 44,-44 24,0 44,20 44,44l0 69c0,24 -20,43 -44,43 -25,0 -44,-19 -44,-43zm-14 -189l8 0 8 1 8 1 7 1 8 2 7 2 7 2 7 3 7 3 7 4 6 3 6 4 6 5 6 4 6 5 5 5 5 6 5 5 5 6 4 6 4 6 4 7 3 6 3 7 3 7 2 7 3 8 1 7 2 8 1 7 0 8 0 8 0 8 0 8 -1 8 -2 7 -1 8 -3 7 -2 7 -3 7 -3 7 -3 7 -4 6 -4 6 -4 6 -5 6 -5 6 -5 5 -5 5 -6 5 -6 5 -6 4 -6 4 -6 4 -7 3 -7 3 -7 3 -7 2 -7 3 -8 1 -7 2 -8 1 -8 0 -8 0 -8 0 -8 0 -7 -1 -8 -2 -7 -1 -8 -3 -7 -2 -7 -3 -7 -3 -6 -3 -7 -4 -6 -4 -6 -4 -6 -5 -5 -5 -6 -5 -5 -5 -5 -6 -4 -6 -5 -6 -4 -6 -3 -6 -4 -7 -3 -7 -3 -7 -2 -7 -2 -7 -2 -8 -1 -7 -1 -8 -1 -8 0 -8 0 -8 1 -8 1 -7 1 -8 2 -7 2 -8 2 -7 3 -7 3 -7 4 -6 3 -7 4 -6 5 -6 4 -6 5 -5 5 -6 6 -5 5 -5 6 -4 6 -5 6 -4 7 -3 6 -4 7 -3 7 -3 7 -2 8 -2 7 -2 8 -1 7 -1 8 -1 8 0z"/>
 </g>
</svg>
