<?xml version="1.0" encoding="UTF-8"?>
<!DOCTYPE svg PUBLIC "-//W3C//DTD SVG 1.1//EN" "http://www.w3.org/Graphics/SVG/1.1/DTD/svg11.dtd">
<!-- Creator: CorelDRAW X6 -->
<svg xmlns="http://www.w3.org/2000/svg" xml:space="preserve" width="37.4922mm" height="37.4925mm" version="1.1" style="shape-rendering:geometricPrecision; text-rendering:geometricPrecision; image-rendering:optimizeQuality; fill-rule:evenodd; clip-rule:evenodd"
viewBox="0 0 390 390"
 xmlns:xlink="http://www.w3.org/1999/xlink">
 <defs>
  <style type="text/css">
   <![CDATA[
    .fil0 {fill:#0000FA}
    .fil1 {fill:red}
   ]]>
  </style>
 </defs>
 <g id="Layer_x0020_1">
  <metadata id="CorelCorpID_0Corel-Layer"/>
  <g id="_1080382032">
   <path class="fil0" d="M195 0l10 0 10 1 9 1 10 2 9 2 10 3 9 3 8 3 9 4 8 5 9 4 8 5 7 6 8 6 7 6 6 6 7 7 6 7 6 7 5 8 5 8 5 8 4 8 4 9 4 9 3 9 2 9 3 10 1 9 2 10 0 10 1 10 -1 10 0 10 -2 9 -1 10 -3 9 -2 10 -3 9 -4 8 -4 9 -4 8 -5 9 -5 8 -5 7 -6 8 -6 7 -7 6 -6 7 -7 6 -8 6 -7 5 -8 5 -9 5 -8 4 -9 4 -8 4 -9 3 -10 2 -9 3 -10 1 -9 2 -10 0 -10 1 -10 -1 -10 0 -10 -2 -9 -1 -10 -3 -9 -2 -9 -3 -9 -4 -9 -4 -8 -4 -8 -5 -8 -5 -8 -5 -7 -6 -7 -6 -7 -7 -6 -6 -6 -7 -6 -8 -6 -7 -5 -8 -4 -9 -5 -8 -4 -9 -3 -8 -3 -9 -3 -10 -2 -9 -2 -10 -1 -9 -1 -10 0 -10 0 -10 1 -10 1 -10 2 -9 2 -10 3 -9 3 -9 3 -9 4 -9 5 -8 4 -8 5 -8 6 -8 6 -7 6 -7 6 -7 7 -6 7 -6 7 -6 8 -6 8 -5 8 -4 8 -5 9 -4 9 -3 9 -3 9 -3 10 -2 9 -2 10 -1 10 -1 10 0zm17 238l0 -87c0,-30 25,-55 55,-55 31,0 56,25 56,55l0 87c0,31 -25,55 -56,55 -30,0 -55,-24 -55,-55zm28 0c0,15 12,28 27,28 16,0 28,-13 28,-28l0 -87c0,-15 -12,-27 -28,-27 -15,0 -27,12 -27,27l0 87zm-170 -36l0 -104 104 0 0 28 -78 0 0 43c22,-17 53,-13 71,8 7,9 10,20 10,32l0 29c0,31 -24,55 -55,55 -29,0 -52,-21 -55,-50l28 0c3,15 17,25 32,22 13,-2 23,-14 23,-27l0 -24c0,-15 -13,-28 -28,-28 -11,0 -20,6 -25,16l-27 0z"/>
   <path class="fil1" d="M47 322l275 -275c7,7 14,14 20,21l-274 274c-7,-5 -16,-14 -21,-20z"/>
  </g>
 </g>
</svg>
