<?xml version="1.0" encoding="UTF-8"?>
<!DOCTYPE svg PUBLIC "-//W3C//DTD SVG 1.1//EN" "http://www.w3.org/Graphics/SVG/1.1/DTD/svg11.dtd">
<!-- Creator: CorelDRAW X6 -->
<svg xmlns="http://www.w3.org/2000/svg" xml:space="preserve" width="38.7681mm" height="58.7223mm" version="1.1" style="shape-rendering:geometricPrecision; text-rendering:geometricPrecision; image-rendering:optimizeQuality; fill-rule:evenodd; clip-rule:evenodd"
viewBox="0 0 243 368"
 xmlns:xlink="http://www.w3.org/1999/xlink">
 <defs>
  <style type="text/css">
   <![CDATA[
    .fil0 {fill:black}
    .fil2 {fill:#0000FA}
    .fil1 {fill:#FF6600}
   ]]>
  </style>
 </defs>
 <g id="Layer_x0020_1">
  <metadata id="CorelCorpID_0Corel-Layer"/>
  <g id="_1068552976">
   <path class="fil0" d="M0 356l0 1 0 0 0 1 0 0 0 1 1 1 0 0 0 1 0 0 1 1 0 0 0 1 0 0 1 1 0 0 1 1 0 0 1 1 0 0 1 0 0 1 1 0 0 0 1 0 0 1 1 0 0 0 1 0 1 0 0 0 1 0 1 0 218 0 0 0 1 0 1 0 0 0 1 0 0 0 1 0 1 -1 0 0 1 0 0 0 1 -1 0 0 1 0 0 -1 1 0 0 -1 0 0 1 -1 0 0 0 -1 1 0 0 -1 0 0 0 -1 1 0 0 -1 0 -1 0 0 0 -1 0 0 0 -1 0 -343 0 -1 0 -1 0 0 0 -1 0 -1 0 0 -1 -1 0 0 0 -1 0 0 -1 -1 0 0 0 -1 -1 0 0 -1 0 0 -1 -1 0 0 -1 -1 0 0 -1 0 0 0 -1 -1 0 0 -1 0 -1 0 0 -1 -1 0 0 0 -1 0 -1 0 0 0 -218 0 -1 0 -1 0 0 0 -1 0 -1 0 0 1 -1 0 0 0 -1 0 0 1 -1 0 0 0 -1 0 0 1 -1 0 0 1 -1 0 0 1 -1 0 0 1 0 0 0 1 -1 0 0 1 0 0 0 1 -1 0 0 1 0 1 0 0 0 1 0 1 0 343zm5 0l0 0 0 1 0 0 1 0 0 1 0 0 0 0 0 1 0 0 0 0 0 1 1 0 0 0 0 0 0 1 0 0 1 0 0 0 0 1 1 0 0 0 0 0 0 0 1 0 0 1 0 0 1 0 0 0 0 0 1 0 0 0 1 0 218 0 0 0 0 0 1 0 0 0 0 0 1 0 0 0 0 -1 1 0 0 0 0 0 1 0 0 0 0 -1 1 0 0 0 0 0 0 -1 0 0 1 0 0 0 0 -1 0 0 0 0 0 -1 1 0 0 0 0 -1 0 0 0 0 0 -1 0 0 0 -343 0 -1 0 0 0 -1 0 0 0 0 0 -1 -1 0 0 0 0 -1 0 0 0 0 0 0 -1 -1 0 0 0 0 0 -1 0 0 -1 0 0 0 0 0 -1 -1 0 0 0 0 -1 0 0 0 0 0 0 0 -1 0 0 -1 -1 0 0 0 0 0 -218 0 -1 0 0 0 -1 0 0 1 0 0 -1 0 0 0 0 0 -1 0 0 0 0 0 0 1 -1 0 0 0 0 0 -1 0 0 1 0 0 0 0 0 1 -1 0 0 0 0 0 0 1 0 0 0 0 0 1 0 0 -1 0 0 1 0 0 0 1 0 343zm68 -180l14 0c1,0 2,-2 2,-3l0 -17 23 4c1,3 6,6 10,6 5,0 8,-3 10,-6l22 -4 0 17c0,2 2,2 3,3l14 0c1,0 2,-1 2,-3l0 -20 6 0 0 -18 -114 0 0 18 6 0 0 20c0,1 1,3 2,3zm106 -47l0 -85c-1,-5 -4,-8 -9,-8l-97 0c-5,0 -8,3 -9,7l0 86 115 0zm-8 -7l0 -79 -100 0 0 79 100 0z"/>
   <polygon class="fil1" points="168,120 75,120 75,45 168,45 "/>
   <path class="fil2" d="M122 236c24,0 44,20 44,45 0,24 -20,44 -44,44 -25,0 -45,-20 -45,-44 0,-25 20,-45 45,-45zm-28 75l0 -19c1,-17 11,-27 28,-28l8 0 -4 -14 34 20 -34 19 4 -14 -8 0c-10,0 -17,8 -17,17l0 19 -11 0z"/>
  </g>
 </g>
</svg>
