<?xml version="1.0" encoding="UTF-8"?>
<!DOCTYPE svg PUBLIC "-//W3C//DTD SVG 1.1//EN" "http://www.w3.org/Graphics/SVG/1.1/DTD/svg11.dtd">
<!-- Creator: CorelDRAW X6 -->
<svg xmlns="http://www.w3.org/2000/svg" xml:space="preserve" width="38.7681mm" height="58.7223mm" version="1.1" style="shape-rendering:geometricPrecision; text-rendering:geometricPrecision; image-rendering:optimizeQuality; fill-rule:evenodd; clip-rule:evenodd"
viewBox="0 0 288 436"
 xmlns:xlink="http://www.w3.org/1999/xlink">
 <defs>
  <style type="text/css">
   <![CDATA[
    .fil0 {fill:black}
    .fil2 {fill:#0000FA}
    .fil1 {fill:#FF6600}
   ]]>
  </style>
 </defs>
 <g id="Layer_x0020_1">
  <metadata id="CorelCorpID_0Corel-Layer"/>
  <g id="_1080383696">
   <path class="fil0" d="M0 421l0 1 0 0 0 1 0 1 0 1 1 0 0 1 0 1 0 0 1 1 0 1 1 0 0 1 0 0 1 1 0 0 1 1 0 0 1 1 1 0 0 1 1 0 0 0 1 0 1 1 0 0 1 0 1 0 1 0 0 1 1 0 1 0 258 0 1 0 0 0 1 -1 1 0 1 0 0 0 1 0 1 -1 0 0 1 0 0 0 1 -1 1 0 0 -1 1 0 0 -1 1 0 0 -1 1 0 0 -1 0 0 1 -1 0 -1 0 0 1 -1 0 -1 0 0 0 -1 0 -1 1 -1 0 0 0 -1 0 -406 0 -1 0 -1 -1 0 0 -1 0 -1 0 -1 0 0 -1 -1 0 -1 0 0 -1 -1 0 0 0 -1 -1 -1 0 0 -1 -1 0 0 -1 -1 0 0 -1 0 -1 -1 0 0 -1 -1 0 0 -1 0 -1 0 0 -1 -1 0 -1 0 -1 0 0 0 -1 0 -258 0 -1 0 -1 0 0 0 -1 0 -1 0 -1 1 0 0 -1 0 -1 0 0 1 -1 0 0 1 -1 0 -1 0 0 1 -1 0 0 1 -1 0 0 1 0 1 -1 0 0 1 -1 0 0 1 0 1 0 0 -1 1 0 1 0 1 0 0 0 1 0 1 0 406zm6 0l0 0 0 1 0 0 1 1 0 0 0 0 0 1 0 0 0 1 0 0 1 0 0 1 0 0 0 0 1 1 0 0 0 0 0 0 1 1 0 0 0 0 1 0 0 0 1 1 0 0 0 0 1 0 0 0 1 0 0 0 0 0 1 0 258 0 0 0 1 0 0 0 1 0 0 0 0 0 1 0 0 0 0 -1 1 0 0 0 1 0 0 0 0 -1 0 0 1 0 0 0 0 -1 1 0 0 0 0 -1 0 0 0 0 1 -1 0 0 0 -1 0 0 0 0 0 -1 0 0 0 -1 0 0 0 -406 0 -1 0 0 0 0 0 -1 0 0 0 -1 0 0 0 0 -1 -1 0 0 0 -1 0 0 0 0 -1 -1 0 0 0 0 -1 0 0 -1 0 0 0 0 -1 0 0 -1 -1 0 0 0 0 0 -1 0 0 0 0 0 -1 -1 0 0 -1 0 0 0 -258 0 -1 0 0 0 0 0 -1 1 0 0 -1 0 0 0 0 0 -1 0 0 0 -1 1 0 0 0 0 -1 0 0 1 0 0 0 0 -1 0 0 1 0 0 0 0 -1 1 0 0 0 1 0 0 0 0 0 1 0 0 -1 1 0 0 0 0 0 1 0 406zm80 -213l16 0c2,0 3,-2 4,-3l0 -20 26 4c2,4 8,7 12,7 6,0 10,-3 12,-7l27 -4 0 20c0,2 1,2 2,3l17 0c1,0 2,-2 3,-3l0 -24 6 0 0 -22 -134 0 0 22 6 0 0 24c0,1 2,3 3,3zm125 -55l0 -101c0,-6 -5,-9 -10,-10l-115 0c-5,0 -10,5 -10,9l0 102 135 0zm-9 -8l0 -94 -118 0 0 94 118 0z"/>
   <polygon class="fil1" points="199,142 88,142 88,54 199,54 "/>
   <path class="fil2" d="M144 279c-29,0 -53,24 -53,53 0,29 24,53 53,53 29,0 53,-24 53,-53 0,-29 -24,-53 -53,-53zm32 89l0 -22c-1,-21 -12,-33 -32,-33l-10 0 5 -17 -40 23 40 23 -5 -17 10 0c11,0 20,10 20,21l0 22 12 0z"/>
  </g>
 </g>
</svg>
