<?xml version="1.0" encoding="utf-8"?>
<!-- Generator: Adobe Illustrator 16.0.0, SVG Export Plug-In . SVG Version: 6.00 Build 0)  -->
<!DOCTYPE svg PUBLIC "-//W3C//DTD SVG 1.1//EN" "http://www.w3.org/Graphics/SVG/1.1/DTD/svg11.dtd">
<svg version="1.1" id="Layer_1" xmlns="http://www.w3.org/2000/svg" xmlns:xlink="http://www.w3.org/1999/xlink" x="0px" y="0px"
	 width="80.022px" height="80.021px" viewBox="0 0 80.022 80.021" enable-background="new 0 0 80.022 80.021" xml:space="preserve">
<polygon fill="none" stroke="#000000" stroke-width="0.0222" stroke-miterlimit="22.9256" points="78.738,36.939 78.89,37.097 
	79.033,37.265 79.169,37.44 79.293,37.618 79.407,37.803 79.515,37.99 79.608,38.182 79.692,38.374 79.767,38.572 79.833,38.773 
	79.888,38.975 79.931,39.18 79.968,39.388 79.992,39.596 80.009,39.805 80.012,40.014 80.009,40.218 79.992,40.427 79.968,40.635 
	79.931,40.843 79.888,41.048 79.833,41.249 79.767,41.451 79.692,41.649 79.608,41.841 79.515,42.036 79.407,42.221 79.293,42.406 
	79.169,42.584 79.033,42.758 78.89,42.927 78.738,43.084 43.084,78.737 42.926,78.89 42.758,79.034 42.584,79.169 42.406,79.292 
	42.221,79.406 42.036,79.515 41.841,79.608 41.649,79.692 41.451,79.767 41.25,79.833 41.048,79.888 40.843,79.931 40.634,79.968 
	40.427,79.991 40.218,80.009 40.014,80.011 39.805,80.009 39.596,79.991 39.389,79.968 39.18,79.931 38.975,79.888 38.773,79.833 
	38.571,79.767 38.374,79.692 38.182,79.608 37.991,79.515 37.803,79.406 37.618,79.292 37.44,79.169 37.265,79.034 37.097,78.89 
	36.939,78.737 1.285,43.084 1.133,42.927 0.993,42.758 0.858,42.584 0.73,42.406 0.616,42.221 0.512,42.036 0.418,41.841 
	0.331,41.649 0.257,41.451 0.189,41.249 0.136,41.048 0.092,40.843 0.055,40.635 0.032,40.427 0.018,40.218 0.011,40.014 
	0.018,39.805 0.032,39.596 0.055,39.388 0.092,39.18 0.136,38.975 0.189,38.773 0.257,38.572 0.331,38.374 0.418,38.182 
	0.512,37.99 0.616,37.803 0.73,37.618 0.858,37.44 0.993,37.265 1.133,37.097 1.285,36.939 36.939,1.285 37.097,1.133 37.265,0.989 
	37.44,0.858 37.618,0.73 37.803,0.616 37.991,0.512 38.182,0.418 38.374,0.331 38.571,0.257 38.773,0.189 38.975,0.136 39.18,0.092 
	39.389,0.055 39.596,0.031 39.805,0.018 40.014,0.011 40.218,0.018 40.427,0.031 40.634,0.055 40.843,0.092 41.048,0.136 
	41.25,0.189 41.451,0.257 41.649,0.331 41.841,0.418 42.036,0.512 42.221,0.616 42.406,0.73 42.584,0.858 42.758,0.989 
	42.926,1.133 43.084,1.285 "/>
<path fill-rule="evenodd" clip-rule="evenodd" d="M77.329,38.322l0.1,0.104l0.075,0.088l0.074,0.096l0.065,0.094l0.069,0.112
	l0.061,0.105l0.047,0.096l0.045,0.101l0.042,0.114l0.037,0.113l0.025,0.093l0.025,0.122l0.021,0.119l0.013,0.115l0.01,0.11
	l0.001,0.114l-0.001,0.11l-0.01,0.11l-0.013,0.116l-0.021,0.119l-0.025,0.122l-0.025,0.093l-0.037,0.113l-0.042,0.111l-0.048,0.109
	l-0.045,0.094l-0.056,0.096l-0.073,0.118l-0.064,0.092l-0.075,0.098l-0.075,0.088l-0.098,0.101L41.705,77.334L41.6,77.436
	l-0.088,0.075l-0.092,0.071l-0.096,0.066l-0.118,0.073l-0.096,0.056l-0.094,0.045l-0.109,0.048l-0.111,0.042l-0.112,0.037
	l-0.095,0.025L40.468,78l-0.119,0.021l-0.116,0.014l-0.11,0.009l-0.111,0.002l-0.114-0.002l-0.11-0.009l-0.115-0.014L39.555,78
	l-0.122-0.025l-0.095-0.025l-0.112-0.037l-0.112-0.042l-0.102-0.045l-0.096-0.047l-0.105-0.061l-0.112-0.069l-0.097-0.067
	l-0.093-0.071l-0.085-0.074l-0.106-0.102L2.691,41.707l-0.09-0.093l-0.071-0.086L2.44,41.412l-0.069-0.096l-0.057-0.093L2.26,41.128
	l-0.059-0.121L2.153,40.9l-0.037-0.1l-0.038-0.113l-0.025-0.093l-0.027-0.127l-0.021-0.114l-0.011-0.098l-0.008-0.129l-0.003-0.111
	l0.004-0.113l0.008-0.127l0.011-0.098l0.021-0.115l0.027-0.125l0.025-0.093l0.038-0.113l0.038-0.102l0.044-0.098l0.061-0.124
	l0.058-0.105l0.054-0.087l0.07-0.098l0.088-0.115l0.071-0.084l0.093-0.097L38.317,2.698l0.104-0.1l0.078-0.066l0.106-0.08
	l0.106-0.076l0.087-0.054l0.104-0.058l0.125-0.061l0.099-0.045l0.1-0.037l0.112-0.038l0.095-0.025l0.125-0.027l0.115-0.021
	l0.098-0.011l0.127-0.008l0.114-0.004l0.11,0.003l0.128,0.008l0.098,0.011l0.115,0.021l0.125,0.027l0.095,0.025l0.112,0.038
	l0.1,0.037l0.105,0.049l0.122,0.059l0.095,0.054l0.094,0.057l0.104,0.075l0.105,0.08l0.08,0.068l0.104,0.1L77.329,38.322z
	 M78.033,37.632l0.126,0.131l0.109,0.127l0.104,0.136l0.095,0.136l0.092,0.148l0.084,0.146l0.071,0.144l0.063,0.146l0.059,0.157
	l0.052,0.156l0.04,0.148l0.034,0.163l0.029,0.164l0.019,0.161l0.013,0.159l0.002,0.162l-0.002,0.157l-0.013,0.16l-0.019,0.162
	l-0.029,0.163l-0.034,0.163l-0.04,0.147l-0.052,0.157l-0.058,0.155l-0.066,0.15l-0.069,0.144l-0.082,0.141l-0.094,0.151
	l-0.094,0.136l-0.105,0.136l-0.109,0.128l-0.125,0.129l-35.64,35.641l-0.132,0.126l-0.128,0.11l-0.134,0.103l-0.136,0.096
	l-0.151,0.094l-0.141,0.081l-0.145,0.07l-0.15,0.065l-0.155,0.058l-0.156,0.053l-0.148,0.039l-0.163,0.034l-0.164,0.029
	l-0.162,0.019l-0.16,0.013l-0.157,0.003l-0.162-0.003l-0.159-0.013l-0.161-0.019l-0.164-0.029l-0.163-0.034l-0.148-0.039
	l-0.157-0.053l-0.155-0.058l-0.147-0.064l-0.144-0.07l-0.146-0.085l-0.148-0.091l-0.138-0.096l-0.134-0.104l-0.126-0.109
	l-0.132-0.126L1.988,42.397l-0.121-0.125l-0.106-0.127L1.649,42l-0.098-0.137l-0.085-0.139l-0.079-0.14L1.31,41.426l-0.068-0.148
	l-0.055-0.149l-0.053-0.157l-0.039-0.147L1.06,40.657l-0.029-0.16l-0.018-0.153l-0.011-0.169l-0.005-0.158l0.005-0.161l0.011-0.168
	l0.018-0.152l0.029-0.162l0.035-0.166l0.039-0.148l0.053-0.156l0.056-0.151l0.066-0.145l0.078-0.158l0.081-0.146l0.084-0.136
	l0.099-0.138l0.111-0.145l0.106-0.126l0.122-0.127L37.628,1.994l0.131-0.125l0.123-0.105l0.141-0.105l0.142-0.102l0.136-0.084
	l0.146-0.081l0.158-0.078l0.145-0.066l0.149-0.055l0.157-0.052l0.148-0.04l0.165-0.035l0.162-0.029l0.152-0.018l0.168-0.011
	l0.161-0.005l0.158,0.005l0.168,0.011l0.153,0.018l0.161,0.029l0.166,0.035l0.148,0.04l0.156,0.052l0.149,0.055l0.149,0.068
	l0.158,0.076l0.14,0.079l0.139,0.086L42,1.656l0.14,0.105l0.124,0.106l0.131,0.125L78.033,37.632z"/>
<path fill="none" stroke="#464444" stroke-width="0.0216" stroke-miterlimit="22.9256" d="M77.329,38.321l0.1,0.104l0.075,0.088
	l0.074,0.096l0.065,0.094l0.069,0.112l0.061,0.105l0.048,0.096l0.044,0.101l0.042,0.114l0.037,0.113l0.025,0.093l0.025,0.122
	l0.021,0.119l0.013,0.115l0.01,0.11l0.001,0.114l-0.001,0.11l-0.01,0.11l-0.013,0.116l-0.021,0.119l-0.025,0.122l-0.025,0.093
	l-0.037,0.113l-0.042,0.111l-0.048,0.109l-0.045,0.094l-0.056,0.096l-0.073,0.118l-0.064,0.092l-0.075,0.098l-0.075,0.088
	l-0.098,0.101L41.705,77.334L41.6,77.436l-0.088,0.075l-0.092,0.071l-0.096,0.066l-0.118,0.073l-0.096,0.056l-0.094,0.045
	l-0.109,0.048l-0.111,0.042l-0.112,0.037l-0.095,0.025L40.468,78l-0.119,0.021l-0.116,0.014l-0.11,0.009l-0.111,0.002l-0.114-0.002
	l-0.11-0.009l-0.115-0.014L39.555,78l-0.122-0.025l-0.095-0.025l-0.112-0.037l-0.112-0.042l-0.102-0.045l-0.096-0.047l-0.105-0.061
	l-0.112-0.069l-0.097-0.067l-0.093-0.071l-0.085-0.074l-0.106-0.102L2.691,41.707l-0.09-0.093l-0.071-0.086L2.44,41.412
	l-0.069-0.096l-0.057-0.093L2.26,41.128l-0.059-0.121L2.153,40.9l-0.037-0.1l-0.038-0.113l-0.025-0.093l-0.027-0.127l-0.021-0.114
	l-0.011-0.098l-0.008-0.129l-0.004-0.111l0.004-0.113l0.008-0.128l0.011-0.098l0.021-0.115l0.027-0.125l0.025-0.094l0.038-0.112
	l0.038-0.102l0.044-0.098l0.061-0.124l0.058-0.105l0.054-0.087l0.07-0.098l0.088-0.115l0.071-0.084l0.093-0.097L38.317,2.698
	l0.104-0.1l0.078-0.067l0.106-0.08l0.106-0.076l0.087-0.054l0.104-0.058l0.125-0.061l0.099-0.045l0.1-0.037l0.112-0.038l0.095-0.025
	l0.125-0.027l0.115-0.021l0.098-0.011l0.127-0.008l0.114-0.004l0.11,0.003l0.128,0.008l0.098,0.011l0.115,0.021l0.125,0.027
	l0.095,0.025l0.112,0.038l0.1,0.037l0.105,0.049l0.122,0.059l0.095,0.054l0.094,0.057l0.104,0.075l0.105,0.08l0.08,0.068l0.104,0.1
	L77.329,38.321z M78.033,37.632l0.126,0.131l0.109,0.128l0.104,0.136l0.095,0.136l0.092,0.148l0.084,0.146l0.071,0.144l0.063,0.146
	l0.059,0.157l0.052,0.156l0.04,0.148l0.034,0.163l0.029,0.164l0.019,0.162l0.013,0.159l0.002,0.162l-0.002,0.157l-0.013,0.16
	l-0.019,0.163l-0.029,0.163l-0.034,0.163l-0.04,0.147l-0.052,0.157l-0.058,0.155l-0.066,0.15l-0.069,0.144l-0.082,0.141
	l-0.094,0.151l-0.094,0.136l-0.105,0.136l-0.109,0.128l-0.125,0.129l-35.64,35.641l-0.132,0.126l-0.128,0.11l-0.133,0.103
	l-0.137,0.096l-0.151,0.094l-0.141,0.081l-0.145,0.07l-0.15,0.065l-0.154,0.058l-0.157,0.053l-0.148,0.039l-0.164,0.034
	l-0.164,0.029l-0.162,0.019l-0.159,0.013l-0.158,0.003l-0.162-0.003l-0.159-0.013l-0.161-0.019l-0.164-0.029l-0.163-0.034
	l-0.148-0.039l-0.157-0.053l-0.155-0.058l-0.147-0.064l-0.144-0.07l-0.146-0.085l-0.148-0.091l-0.138-0.096l-0.134-0.104
	l-0.126-0.109l-0.132-0.126L1.988,42.397l-0.121-0.125l-0.106-0.127L1.649,42l-0.098-0.137l-0.085-0.139l-0.079-0.14L1.31,41.426
	l-0.068-0.148l-0.055-0.149l-0.053-0.157l-0.039-0.147L1.06,40.657l-0.029-0.16l-0.018-0.154l-0.011-0.168l-0.005-0.158l0.005-0.161
	l0.011-0.168l0.018-0.153l0.029-0.162l0.035-0.165l0.039-0.148l0.053-0.156l0.056-0.151l0.066-0.145l0.078-0.158l0.081-0.146
	l0.084-0.136l0.099-0.138l0.111-0.145l0.106-0.126l0.122-0.127L37.628,1.994l0.131-0.125l0.123-0.105l0.141-0.105l0.142-0.102
	l0.136-0.084l0.146-0.081l0.158-0.078l0.145-0.066l0.149-0.055l0.157-0.052l0.148-0.04l0.165-0.035l0.162-0.029l0.152-0.018
	l0.168-0.011l0.161-0.005l0.158,0.005l0.168,0.011l0.153,0.018l0.161,0.029l0.166,0.035l0.148,0.04l0.156,0.052l0.149,0.055
	l0.149,0.068l0.158,0.076l0.14,0.079l0.139,0.086L42,1.656l0.14,0.105l0.124,0.106l0.131,0.126L78.033,37.632z"/>
<path fill-rule="evenodd" clip-rule="evenodd" d="M40.014,66.321L13.59,39.996L40.012,13.67l26.422,26.326L40.014,66.321z
	 M40.012,66.969L12.953,40.006l27.061-26.964l27.059,26.962L40.012,66.969z"/>
<path fill="none" stroke="#000000" stroke-width="0.1" stroke-miterlimit="22.9256" d="M40.014,66.321L13.59,39.996L40.012,13.67
	l26.422,26.326L40.014,66.321z M40.012,66.969L12.953,40.006l27.061-26.965l27.059,26.962L40.012,66.969z"/>
<polygon fill-rule="evenodd" clip-rule="evenodd" fill="#FEEF24" points="39.955,13.746 66.402,40.048 40.053,66.322 13.614,40.02 
	"/>
<polygon fill="none" stroke="#231F20" stroke-width="0.1" stroke-miterlimit="22.9256" points="39.955,13.746 66.402,40.048 
	40.053,66.322 13.614,40.02 "/>
</svg>
