<?xml version="1.0" encoding="UTF-8"?>
<!DOCTYPE svg PUBLIC "-//W3C//DTD SVG 1.1//EN" "http://www.w3.org/Graphics/SVG/1.1/DTD/svg11.dtd">
<!-- Creator: CorelDRAW X6 -->
<svg xmlns="http://www.w3.org/2000/svg" xml:space="preserve" width="45.1645mm" height="45.1646mm" version="1.1" style="shape-rendering:geometricPrecision; text-rendering:geometricPrecision; image-rendering:optimizeQuality; fill-rule:evenodd; clip-rule:evenodd"
viewBox="0 0 2263 2263"
 xmlns:xlink="http://www.w3.org/1999/xlink">
 <defs>
  <style type="text/css">
   <![CDATA[
    .fil0 {fill:#212220}
    .fil1 {fill:yellow}
   ]]>
  </style>
 </defs>
 <g id="Layer_x0020_1">
  <metadata id="CorelCorpID_0Corel-Layer"/>
  <path class="fil0" d="M1131 1913l-785 -782 785 -782 785 782 -785 782zm0 -19l-766 -763 766 -763 766 763 -766 763z"/>
  <polygon class="fil1" points="1130,369 1897,1132 1133,1894 366,1131 "/>
  <path class="fil0" d="M2234 1062l4 4 3 4 3 4 3 4 3 4 2 4 2 4 2 4 2 5 2 5 1 4 1 5 1 5 1 5 0 5 0 5 0 5 0 5 -1 5 -1 5 -1 5 -1 4 -2 5 -2 4 -2 4 -2 4 -2 4 -3 4 -3 4 -3 4 -3 4 -4 4 -1033 1033 -4 4 -4 3 -4 3 -4 3 -4 3 -4 2 -4 2 -4 2 -4 2 -5 2 -4 1 -5 1 -5 1 -5 1 -5 0 -5 0 -5 0 -5 0 -5 -1 -5 -1 -5 -1 -4 -1 -5 -2 -4 -2 -4 -2 -4 -2 -4 -2 -4 -3 -4 -3 -4 -3 -4 -3 -4 -4 -1033 -1033 -4 -4 -3 -4 -3 -4 -3 -4 -2 -4 -2 -4 -2 -5 -2 -4 -2 -4 -2 -5 -1 -4 -1 -5 -1 -5 -1 -4 0 -5 0 -5 0 -5 0 -5 1 -4 1 -5 1 -5 1 -4 2 -5 2 -4 2 -4 2 -5 2 -4 2 -4 3 -4 3 -4 3 -4 4 -4 1033 -1033 4 -4 4 -3 4 -3 4 -3 4 -2 4 -2 5 -2 4 -2 4 -2 5 -2 4 -1 5 -1 5 -1 4 -1 5 0 5 0 5 0 5 0 4 1 5 1 5 1 4 1 5 2 4 2 4 2 5 2 4 2 4 2 4 3 4 3 4 3 4 4 1033 1033zm-20 20l3 3 2 3 2 3 2 3 2 3 2 3 1 3 1 3 1 3 1 3 1 3 1 4 1 3 0 3 0 3 0 3 0 3 0 3 0 3 -1 3 -1 4 -1 3 -1 3 -1 3 -1 3 -1 3 -2 3 -2 3 -2 3 -2 3 -2 3 -3 3 -1033 1033 -3 3 -3 2 -3 2 -3 2 -3 2 -3 2 -3 1 -3 1 -3 1 -3 1 -3 1 -4 1 -3 1 -3 0 -3 0 -3 0 -3 0 -3 0 -3 0 -3 -1 -4 -1 -3 -1 -3 -1 -3 -1 -3 -1 -3 -1 -3 -2 -3 -2 -3 -2 -3 -2 -2 -2 -3 -3 -1033 -1033 -3 -3 -2 -2 -3 -3 -2 -3 -2 -3 -2 -3 -2 -4 -1 -3 -1 -3 -1 -3 -1 -3 -1 -4 -1 -3 0 -3 0 -4 0 -3 0 -3 0 -4 0 -3 1 -3 1 -4 1 -3 1 -3 1 -3 1 -3 2 -4 2 -3 2 -3 2 -3 3 -3 2 -2 3 -3 1033 -1033 3 -3 2 -2 3 -2 3 -2 3 -2 3 -2 4 -2 3 -1 3 -1 3 -1 3 -1 4 -1 3 -1 3 0 4 0 3 0 3 0 4 0 3 0 3 1 4 1 3 1 3 1 3 1 3 1 4 2 3 2 3 2 3 2 3 2 2 2 3 3 1033 1033z"/>
  <g id="_853344416">
   <polygon class="fil0" points="660,1820 626,1786 1786,626 1820,660 "/>
   <polygon class="fil0" points="569,1729 534,1694 1694,534 1729,569 "/>
   <polygon class="fil0" points="477,1637 442,1602 1602,442 1637,477 "/>
  </g>
 </g>
</svg>
