<?xml version="1.0" encoding="UTF-8"?>
<!DOCTYPE svg PUBLIC "-//W3C//DTD SVG 1.1//EN" "http://www.w3.org/Graphics/SVG/1.1/DTD/svg11.dtd">
<!-- Creator: CorelDRAW X6 -->
<svg xmlns="http://www.w3.org/2000/svg" xml:space="preserve" width="35.0201mm" height="30.8614mm" version="1.1" style="shape-rendering:geometricPrecision; text-rendering:geometricPrecision; image-rendering:optimizeQuality; fill-rule:evenodd; clip-rule:evenodd"
viewBox="0 0 12446 10968"
 xmlns:xlink="http://www.w3.org/1999/xlink">
 <defs>
  <style type="text/css">
   <![CDATA[
    .fil1 {fill:#212220}
    .fil0 {fill:red}
   ]]>
  </style>
 </defs>
 <g id="Layer_x0020_1">
  <metadata id="CorelCorpID_0Corel-Layer"/>
  <path class="fil0" d="M5628 323l20 -30 22 -28 23 -27 24 -26 25 -24 26 -23 27 -22 28 -20 29 -19 30 -17 30 -16 31 -14 32 -13 32 -11 33 -10 33 -8 34 -6 34 -5 34 -3 34 -2 34 0 34 2 34 3 34 5 34 7 34 9 34 10 33 12 33 14 33 16 34 18 9 5 10 6 10 6 10 6 10 7 9 7 9 7 9 7 9 7 9 7 9 7 9 8 9 8 9 8 8 8 8 8 8 8 8 8 8 9 8 9 8 9 7 9 7 9 7 9 7 9 7 9 7 10 7 10 6 10 6 10 6 10 6 11 202 350 0 0 4137 7165 0 0 1173 2032 6 11 6 10 5 10 5 10 5 10 5 11 5 11 5 11 4 11 4 11 4 11 4 11 4 11 3 11 3 11 3 11 3 11 3 11 3 11 2 11 2 11 2 11 2 11 2 11 1 12 1 12 1 12 1 12 1 12 0 12 0 12 0 10 -1 38 -3 36 -5 36 -6 35 -8 34 -10 34 -11 33 -13 32 -14 31 -16 31 -17 30 -18 29 -20 28 -21 27 -22 26 -23 25 -25 24 -26 22 -27 21 -28 20 -29 18 -30 17 -31 16 -31 14 -32 13 -33 11 -34 10 -34 8 -35 6 -35 5 -36 3 -39 1 -2224 0 0 0 -3280 0 -3587 0 0 0 -1929 0 -39 -1 -36 -3 -36 -5 -35 -6 -34 -8 -34 -10 -33 -11 -32 -13 -32 -14 -31 -16 -30 -17 -29 -18 -28 -20 -27 -21 -26 -22 -25 -24 -24 -25 -22 -26 -21 -27 -20 -28 -18 -29 -17 -30 -16 -31 -14 -31 -13 -32 -11 -33 -10 -34 -8 -34 -6 -35 -5 -35 -3 -36 -1 -38 0 -10 0 -12 0 -12 1 -12 1 -12 1 -12 1 -12 1 -12 2 -11 2 -11 2 -11 2 -11 2 -11 3 -11 3 -11 3 -11 3 -11 3 -11 3 -11 4 -11 4 -11 4 -11 4 -11 4 -11 5 -11 5 -11 5 -11 5 -10 5 -10 5 -10 6 -10 6 -11 75 -130 0 0 5238 -9072 0 0 199 -345 20 -33zm-3655 9205l4250 -7361 3667 6351 0 0 583 1009 -1852 0 0 0 -2391 0 -4257 0z"/>
  <polygon class="fil1" points="7013,9178 7014,4797 6223,3982 5411,4799 5414,5986 4308,5990 4306,6623 5414,6623 5414,9178 6229,8443 "/>
 </g>
</svg>
