<?xml version="1.0" encoding="utf-8"?>
<!-- Generator: Adobe Illustrator 16.0.0, SVG Export Plug-In . SVG Version: 6.00 Build 0)  -->
<!DOCTYPE svg PUBLIC "-//W3C//DTD SVG 1.1//EN" "http://www.w3.org/Graphics/SVG/1.1/DTD/svg11.dtd">
<svg version="1.1" id="Layer_1" xmlns="http://www.w3.org/2000/svg" xmlns:xlink="http://www.w3.org/1999/xlink" x="0px" y="0px"
	 width="90.417px" height="80.022px" viewBox="0 0 90.417 80.022" enable-background="new 0 0 90.417 80.022" xml:space="preserve">
<polygon fill="none" stroke="#231F20" stroke-width="0.0216" stroke-miterlimit="22.9256" points="1.299,10.376 1.299,10.377 
	38.654,75.078 38.657,75.078 39.654,76.804 39.827,77.085 40.01,77.356 40.207,77.613 40.414,77.859 40.631,78.091 40.858,78.311 
	41.094,78.52 41.339,78.714 41.592,78.896 41.854,79.065 42.122,79.22 42.396,79.362 42.677,79.49 42.963,79.605 43.254,79.706 
	43.549,79.792 43.849,79.866 44.151,79.923 44.457,79.967 44.763,79.997 45.072,80.011 45.382,80.01 45.693,79.995 46.002,79.963 
	46.313,79.917 46.621,79.856 46.928,79.779 47.233,79.686 47.534,79.577 47.833,79.452 48.127,79.31 48.417,79.152 48.508,79.099 
	48.598,79.043 48.687,78.987 48.775,78.93 48.862,78.871 48.948,78.81 49.033,78.749 49.116,78.685 49.199,78.621 49.281,78.554 
	49.361,78.487 49.44,78.419 49.518,78.349 49.595,78.278 49.671,78.206 49.746,78.132 49.819,78.058 49.891,77.982 49.962,77.905 
	50.032,77.828 50.1,77.748 50.167,77.667 50.233,77.585 50.298,77.503 50.361,77.419 50.422,77.334 50.483,77.249 50.542,77.163 
	50.6,77.074 50.657,76.986 50.711,76.896 50.765,76.805 51.778,75.051 51.78,75.051 81.332,23.865 81.333,23.863 81.333,23.863 
	89.548,9.633 89.6,9.542 89.65,9.449 89.699,9.356 89.747,9.262 89.792,9.167 89.836,9.072 89.878,8.976 89.919,8.879 89.958,8.782 
	89.997,8.685 90.033,8.586 90.067,8.487 90.1,8.388 90.131,8.288 90.161,8.188 90.188,8.087 90.215,7.985 90.24,7.883 90.262,7.781 
	90.284,7.679 90.303,7.576 90.321,7.473 90.337,7.369 90.352,7.265 90.365,7.161 90.375,7.057 90.385,6.952 90.393,6.847 
	90.4,6.742 90.404,6.637 90.407,6.532 90.407,6.426 90.399,6.096 90.374,5.771 90.333,5.449 90.277,5.134 90.205,4.823 
	90.119,4.519 90.018,4.221 89.903,3.929 89.774,3.646 89.633,3.369 89.478,3.101 89.311,2.84 89.132,2.588 88.942,2.346 
	88.741,2.113 88.528,1.891 88.305,1.678 88.073,1.477 87.83,1.286 87.579,1.107 87.318,0.94 87.049,0.786 86.773,0.644 
	86.489,0.515 86.198,0.401 85.899,0.3 85.595,0.213 85.285,0.142 84.968,0.085 84.648,0.044 84.322,0.02 83.992,0.011 69.211,0.011 
	69.206,0.011 45.257,0.011 22.435,0.011 22.435,0.011 6.444,0.011 6.113,0.019 5.786,0.043 5.462,0.084 5.145,0.141 4.833,0.212 
	4.528,0.299 4.229,0.4 3.937,0.515 3.651,0.643 3.375,0.785 3.105,0.939 2.844,1.106 2.592,1.285 2.349,1.476 2.115,1.677 
	1.892,1.89 1.679,2.112 1.478,2.345 1.287,2.588 1.107,2.839 0.94,3.1 0.786,3.368 0.644,3.645 0.515,3.929 0.4,4.22 0.299,4.518 
	0.213,4.823 0.141,5.133 0.084,5.449 0.044,5.77 0.019,6.096 0.011,6.426 0.011,6.531 0.014,6.636 0.019,6.742 0.024,6.847 
	0.032,6.952 0.042,7.056 0.053,7.161 0.066,7.265 0.081,7.369 0.097,7.472 0.114,7.575 0.134,7.678 0.155,7.78 0.178,7.883 
	0.203,7.984 0.229,8.086 0.257,8.187 0.287,8.287 0.318,8.387 0.351,8.487 0.385,8.586 0.421,8.684 0.459,8.782 0.498,8.879 
	0.539,8.976 0.582,9.071 0.626,9.167 0.671,9.262 0.719,9.355 0.768,9.449 0.818,9.541 0.87,9.633 1.299,10.376 "/>
<path fill-rule="evenodd" clip-rule="evenodd" fill="#FF1E00" d="M15.314,11.558l29.896,51.779l25.793-44.675l0.001-0.002l4.1-7.102
	H62.075H45.257H15.314z M41.024,76.311l0.144,0.21l0.152,0.201l0.161,0.19l0.168,0.181l0.177,0.171l0.183,0.161l0.19,0.151
	l0.196,0.141l0.203,0.132l0.209,0.12l0.214,0.111l0.218,0.1l0.223,0.089l0.228,0.079l0.229,0.067l0.233,0.056l0.235,0.046
	l0.237,0.034l0.239,0.022l0.241,0.012l0.24-0.001l0.241-0.012l0.241-0.024l0.24-0.035l0.239-0.048l0.238-0.061l0.236-0.071
	l0.234-0.086l0.232-0.098l0.229-0.109l0.236-0.129l0.061-0.036l0.07-0.042l0.069-0.044l0.068-0.045l0.066-0.046l0.067-0.047
	l0.066-0.049l0.064-0.049l0.064-0.05l0.063-0.052l0.063-0.052l0.063-0.054l0.06-0.055l0.061-0.055l0.06-0.057l0.058-0.057
	l0.057-0.058l0.057-0.06l0.056-0.06l0.054-0.061l0.054-0.062l0.052-0.063l0.052-0.063l0.05-0.063l0.049-0.065l0.049-0.066
	l0.046-0.066l0.047-0.067l0.045-0.068l0.044-0.069l0.042-0.07l0.045-0.075l1.421-2.461h0.002l29.1-50.402l0.001-0.003L88.31,8.926
	l0.043-0.076l0.04-0.072l0.037-0.073l0.037-0.073l0.035-0.074l0.035-0.074l0.033-0.075l0.031-0.075l0.03-0.076l0.029-0.076
	l0.028-0.077l0.027-0.077l0.025-0.077l0.023-0.078l0.023-0.079l0.021-0.079l0.021-0.079l0.02-0.079l0.018-0.08l0.017-0.08
	l0.016-0.08l0.014-0.08l0.013-0.081l0.011-0.081l0.011-0.081l0.009-0.081l0.007-0.082l0.007-0.081l0.004-0.082l0.004-0.082
	l0.002-0.082V6.438l-0.007-0.27l-0.019-0.254l-0.032-0.25L88.88,5.419l-0.057-0.241l-0.066-0.236l-0.079-0.231l-0.089-0.227
	l-0.1-0.22l-0.11-0.215l-0.12-0.209l-0.13-0.202l-0.139-0.196l-0.148-0.189l-0.157-0.181L87.52,2.899l-0.174-0.166l-0.182-0.157
	l-0.188-0.148L86.78,2.289l-0.202-0.13l-0.209-0.12l-0.215-0.11l-0.221-0.1L85.708,1.74l-0.231-0.078L85.24,1.594L85,1.539
	l-0.246-0.043l-0.25-0.032l-0.254-0.02l-0.275-0.007H68.331H45.257H20.029v0H6.462L6.184,1.443L5.928,1.462L5.677,1.495L5.43,1.539
	L5.188,1.594L4.951,1.661L4.718,1.739l-0.227,0.09l-0.222,0.1l-0.216,0.11l-0.209,0.12l-0.203,0.13L3.444,2.428L3.255,2.577
	L3.073,2.733L2.899,2.899L2.733,3.073L2.577,3.254L2.428,3.443L2.289,3.638L2.159,3.84L2.038,4.049l-0.11,0.215l-0.1,0.221
	L1.739,4.711L1.661,4.942L1.594,5.178L1.538,5.419L1.494,5.664l-0.032,0.25L1.443,6.168l-0.007,0.27l0,0.07l0.002,0.082l0.003,0.082
	l0.004,0.082l0.006,0.082L1.46,6.916l0.008,0.081l0.01,0.081l0.012,0.081l0.012,0.081L1.517,7.32l0.015,0.08l0.017,0.08l0.018,0.08
	l0.019,0.079l0.021,0.079l0.021,0.079l0.023,0.078l0.024,0.078l0.025,0.077l0.027,0.077l0.028,0.077l0.029,0.076l0.031,0.076
	l0.031,0.075L1.88,8.483l0.034,0.074L1.95,8.631l0.037,0.073l0.038,0.072l0.04,0.072l0.043,0.076l0.527,0.913v0.001l36.842,63.813
	h0.003l1.4,2.424L41.024,76.311z"/>
<path fill="none" stroke="#231F20" stroke-width="0.0216" stroke-miterlimit="22.9256" d="M15.314,11.558l29.896,51.779
	l25.793-44.675l0.001-0.002l4.1-7.102H62.075H45.257H15.314z M41.024,76.311l0.144,0.21l0.152,0.201l0.161,0.19l0.168,0.181
	l0.177,0.171l0.183,0.161l0.19,0.151l0.196,0.141l0.203,0.132l0.209,0.12l0.214,0.111l0.218,0.1l0.223,0.089l0.228,0.079
	l0.229,0.067l0.233,0.056l0.235,0.046l0.237,0.034l0.239,0.022l0.241,0.012l0.24-0.001l0.241-0.012l0.241-0.024l0.24-0.035
	l0.239-0.048l0.238-0.061l0.236-0.071l0.234-0.086l0.232-0.098l0.229-0.109l0.236-0.129l0.061-0.036l0.07-0.042l0.069-0.044
	l0.068-0.045l0.066-0.046l0.067-0.047l0.066-0.049l0.064-0.049l0.064-0.05l0.063-0.052l0.063-0.052l0.063-0.054l0.06-0.055
	l0.061-0.055l0.06-0.057l0.058-0.057l0.057-0.058l0.057-0.06l0.056-0.06l0.054-0.061l0.054-0.062l0.052-0.063l0.052-0.063
	l0.05-0.063l0.049-0.065l0.049-0.066l0.046-0.066l0.047-0.067l0.045-0.068l0.044-0.069l0.042-0.07l0.045-0.075l1.421-2.461h0.002
	l29.1-50.402l0.001-0.003L88.31,8.926l0.043-0.076l0.04-0.072l0.037-0.073l0.037-0.073l0.035-0.074l0.035-0.074l0.033-0.075
	l0.031-0.075l0.03-0.076l0.029-0.076l0.028-0.077l0.027-0.077l0.025-0.077l0.023-0.078l0.023-0.079l0.021-0.079l0.021-0.079
	l0.02-0.079l0.018-0.08l0.017-0.08l0.016-0.08l0.014-0.08l0.013-0.081l0.011-0.081l0.011-0.081l0.009-0.081l0.007-0.082l0.007-0.081
	l0.004-0.082l0.004-0.082l0.002-0.082V6.438l-0.007-0.27l-0.019-0.254l-0.032-0.25L88.88,5.419l-0.057-0.241l-0.066-0.236
	l-0.079-0.231l-0.089-0.227l-0.1-0.22l-0.11-0.215l-0.12-0.209l-0.13-0.202l-0.139-0.196l-0.148-0.189l-0.157-0.181L87.52,2.899
	l-0.174-0.166l-0.182-0.157l-0.188-0.148L86.78,2.289l-0.202-0.13l-0.209-0.12l-0.215-0.11l-0.221-0.1L85.708,1.74l-0.231-0.078
	L85.24,1.594L85,1.539l-0.246-0.043l-0.25-0.032l-0.254-0.02l-0.275-0.007H68.331H45.257H20.029v0H6.462L6.184,1.443L5.928,1.462
	L5.677,1.495L5.43,1.539L5.188,1.594L4.951,1.661L4.718,1.739l-0.227,0.09l-0.222,0.1l-0.216,0.11l-0.209,0.12l-0.203,0.13
	L3.444,2.428L3.255,2.577L3.073,2.733L2.899,2.899L2.733,3.073L2.577,3.254L2.428,3.443L2.289,3.638L2.159,3.84L2.038,4.049
	l-0.11,0.215l-0.1,0.221L1.739,4.711L1.661,4.942L1.594,5.178L1.538,5.419L1.494,5.664l-0.032,0.25L1.443,6.168l-0.007,0.27l0,0.07
	l0.002,0.082l0.003,0.082l0.004,0.082l0.006,0.082L1.46,6.916l0.008,0.081l0.01,0.081l0.012,0.081l0.012,0.081L1.517,7.32
	l0.015,0.08l0.017,0.08l0.018,0.08l0.019,0.079l0.021,0.079l0.021,0.079l0.023,0.078l0.024,0.078l0.025,0.077l0.027,0.077
	l0.028,0.077l0.029,0.076l0.031,0.076l0.031,0.075L1.88,8.483l0.034,0.074L1.95,8.631l0.037,0.073l0.038,0.072l0.04,0.072
	l0.043,0.076l0.527,0.913v0.001l36.842,63.813h0.003l1.4,2.424L41.024,76.311z"/>
</svg>
