<?xml version="1.0" encoding="UTF-8"?>
<!DOCTYPE svg PUBLIC "-//W3C//DTD SVG 1.1//EN" "http://www.w3.org/Graphics/SVG/1.1/DTD/svg11.dtd">
<!-- Creator: CorelDRAW X6 -->
<svg xmlns="http://www.w3.org/2000/svg" xml:space="preserve" width="37.6371mm" height="37.637mm" version="1.1" style="shape-rendering:geometricPrecision; text-rendering:geometricPrecision; image-rendering:optimizeQuality; fill-rule:evenodd; clip-rule:evenodd"
viewBox="0 0 1153 1153"
 xmlns:xlink="http://www.w3.org/1999/xlink">
 <defs>
  <style type="text/css">
   <![CDATA[
    .fil1 {fill:#FEFEFE}
    .fil0 {fill:red}
   ]]>
  </style>
 </defs>
 <g id="Layer_x0020_1">
  <metadata id="CorelCorpID_0Corel-Layer"/>
  <polygon class="fil0" points="337,0 814,0 1153,338 1153,813 814,1153 337,1153 0,813 0,338 "/>
  <g id="_851310160">
   <path class="fil1" d="M839 772l0 -391 106 0c58,1 94,48 94,94l0 52c0,42 -34,94 -95,93l-44 0 0 152 -61 0zm61 -213l0 -117 48 0c16,0 30,17 30,31l0 57c-2,21 -19,30 -32,30l-46 0z"/>
   <path class="fil1" d="M579 679l0 -202c0,-40 27,-94 96,-96 52,0 93,45 92,95l0 203c0,53 -46,95 -93,93 -51,1 -95,-43 -95,-93zm62 1l0 -206c0,-14 10,-32 33,-32 16,-1 32,16 31,32l0 205c0,25 -24,33 -33,33 -11,0 -32,-10 -32,-32z"/>
   <polygon class="fil1" points="407,773 407,442 345,442 346,381 529,381 529,442 468,442 468,773 "/>
   <path class="fil1" d="M131 733c-11,-16 -18,-32 -18,-54l0 -17 61 0 0 18c2,21 18,30 32,30 15,1 35,-13 35,-32 -2,-29 6,-53 -23,-72 -33,-13 -85,-29 -98,-73 -5,-16 -11,-70 4,-105 18,-34 51,-49 83,-49 37,0 58,18 70,31 15,17 24,40 24,64l0 25 -61 0 0 -26c0,-17 -13,-33 -33,-33 -19,0 -33,14 -34,33 0,24 0,37 4,45 4,7 11,13 39,25 31,11 74,36 83,72 1,4 2,9 2,14 0,7 1,14 1,22 0,3 0,5 0,8 0,14 1,27 -3,41 -10,39 -47,72 -91,72 -31,0 -59,-15 -77,-40z"/>
  </g>
 </g>
</svg>
