<?xml version="1.0" encoding="UTF-8"?>
<!DOCTYPE svg PUBLIC "-//W3C//DTD SVG 1.1//EN" "http://www.w3.org/Graphics/SVG/1.1/DTD/svg11.dtd">
<!-- Creator: CorelDRAW X6 -->
<svg xmlns="http://www.w3.org/2000/svg" xml:space="preserve" width="33.075mm" height="33.0751mm" version="1.1" style="shape-rendering:geometricPrecision; text-rendering:geometricPrecision; image-rendering:optimizeQuality; fill-rule:evenodd; clip-rule:evenodd"
viewBox="0 0 901 901"
 xmlns:xlink="http://www.w3.org/1999/xlink">
 <defs>
  <style type="text/css">
   <![CDATA[
    .fil1 {fill:#212220}
    .fil0 {fill:red}
   ]]>
  </style>
 </defs>
 <g id="Layer_x0020_1">
  <metadata id="CorelCorpID_0Corel-Layer"/>
  <path class="fil0" d="M451 0c248,0 451,202 451,451 0,248 -202,451 -451,451 -248,0 -451,-202 -451,-451 0,-248 202,-451 451,-451zm0 119c183,0 331,148 331,331 0,183 -148,331 -331,331 -183,0 -331,-148 -331,-331 0,-183 148,-331 331,-331z"/>
  <polygon class="fil1" points="210,516 285,534 285,210 354,210 354,534 430,515 320,710 "/>
  <polygon class="fil0" points="616,687 547,687 547,373 471,395 582,191 691,395 616,373 "/>
 </g>
</svg>
