<?xml version="1.0" encoding="utf-8"?>
<!-- Generator: Adobe Illustrator 16.0.0, SVG Export Plug-In . SVG Version: 6.00 Build 0)  -->
<!DOCTYPE svg PUBLIC "-//W3C//DTD SVG 1.1//EN" "http://www.w3.org/Graphics/SVG/1.1/DTD/svg11.dtd">
<svg version="1.1" id="Layer_1" xmlns="http://www.w3.org/2000/svg" xmlns:xlink="http://www.w3.org/1999/xlink" x="0px" y="0px"
	 width="80.021px" height="80.021px" viewBox="0 0 80.021 80.021" enable-background="new 0 0 80.021 80.021" xml:space="preserve">
<path fill="none" stroke="#231F20" stroke-width="0.0216" stroke-miterlimit="22.9256" d="M80.011,74.015
	c0,3.311-2.685,5.996-5.997,5.996H6.007c-3.312,0-5.997-2.686-5.997-5.996V6.007c0-3.311,2.685-5.996,5.997-5.996h68.006
	c3.313,0,5.997,2.685,5.997,5.996S80.011,74.015,80.011,74.015z"/>
<polygon fill-rule="evenodd" clip-rule="evenodd" fill="#0001FE" points="78.678,73.997 78.672,74.255 78.653,74.493 78.624,74.726 
	78.583,74.955 78.531,75.181 78.469,75.401 78.396,75.617 78.312,75.828 78.219,76.035 78.115,76.235 78.003,76.431 77.882,76.62 
	77.752,76.803 77.613,76.979 77.466,77.148 77.312,77.312 77.149,77.466 76.979,77.613 76.804,77.752 76.621,77.882 76.432,78.003 
	76.236,78.115 76.035,78.219 75.829,78.312 75.617,78.395 75.401,78.468 75.181,78.53 74.956,78.583 74.727,78.623 74.492,78.653 
	74.256,78.671 73.997,78.678 6.024,78.678 5.766,78.671 5.529,78.653 5.295,78.623 5.066,78.583 4.841,78.53 4.62,78.468 
	4.404,78.395 4.192,78.312 3.986,78.219 3.785,78.115 3.59,78.003 3.401,77.882 3.218,77.752 3.042,77.613 2.872,77.466 
	2.71,77.312 2.555,77.148 2.408,76.979 2.27,76.803 2.14,76.62 2.018,76.431 1.906,76.235 1.803,76.035 1.709,75.828 1.626,75.617 
	1.553,75.401 1.49,75.181 1.438,74.955 1.397,74.726 1.368,74.493 1.35,74.255 1.343,73.997 1.343,6.023 1.35,5.766 1.368,5.528 
	1.397,5.295 1.438,5.066 1.49,4.841 1.553,4.62 1.626,4.403 1.709,4.192 1.803,3.986 1.906,3.785 2.018,3.59 2.14,3.401 2.27,3.218 
	2.408,3.042 2.555,2.872 2.71,2.709 2.872,2.555 3.042,2.408 3.218,2.27 3.401,2.139 3.59,2.018 3.785,1.906 3.986,1.803 
	4.192,1.709 4.404,1.626 4.62,1.553 4.841,1.49 5.066,1.438 5.295,1.397 5.529,1.368 5.766,1.35 6.024,1.343 73.997,1.343 
	74.256,1.35 74.492,1.368 74.727,1.397 74.956,1.438 75.181,1.49 75.401,1.553 75.617,1.626 75.829,1.709 76.035,1.803 
	76.236,1.906 76.432,2.018 76.621,2.139 76.804,2.27 76.979,2.408 77.149,2.555 77.312,2.709 77.466,2.872 77.613,3.042 
	77.752,3.218 77.882,3.401 78.003,3.59 78.115,3.785 78.219,3.986 78.312,4.192 78.396,4.403 78.469,4.62 78.531,4.841 
	78.583,5.066 78.624,5.295 78.653,5.528 78.672,5.766 78.678,6.023 "/>
<polygon fill="none" stroke="#231F20" stroke-width="0.0216" stroke-miterlimit="22.9256" points="78.678,73.997 78.672,74.255 
	78.653,74.493 78.624,74.726 78.583,74.955 78.531,75.181 78.469,75.401 78.396,75.617 78.312,75.828 78.219,76.035 78.115,76.235 
	78.003,76.431 77.882,76.62 77.752,76.803 77.613,76.979 77.466,77.148 77.312,77.312 77.149,77.466 76.979,77.613 76.804,77.752 
	76.621,77.882 76.432,78.003 76.236,78.115 76.035,78.219 75.829,78.312 75.617,78.395 75.401,78.468 75.181,78.53 74.956,78.583 
	74.727,78.623 74.492,78.653 74.256,78.671 73.997,78.678 6.024,78.678 5.766,78.671 5.529,78.653 5.295,78.623 5.066,78.583 
	4.841,78.53 4.62,78.468 4.404,78.395 4.192,78.312 3.986,78.219 3.785,78.115 3.59,78.003 3.401,77.882 3.218,77.752 3.042,77.613 
	2.872,77.466 2.71,77.312 2.555,77.148 2.408,76.979 2.27,76.803 2.14,76.62 2.018,76.431 1.906,76.235 1.803,76.035 1.709,75.828 
	1.626,75.617 1.553,75.401 1.49,75.181 1.438,74.955 1.397,74.726 1.368,74.493 1.35,74.255 1.343,73.997 1.343,6.023 1.35,5.766 
	1.368,5.528 1.397,5.295 1.438,5.066 1.49,4.841 1.553,4.62 1.626,4.403 1.709,4.192 1.803,3.986 1.906,3.785 2.018,3.59 
	2.14,3.401 2.27,3.218 2.408,3.042 2.555,2.872 2.71,2.709 2.872,2.555 3.042,2.408 3.218,2.27 3.401,2.139 3.59,2.018 3.785,1.906 
	3.986,1.803 4.192,1.709 4.404,1.626 4.62,1.553 4.841,1.49 5.066,1.438 5.295,1.397 5.529,1.368 5.766,1.35 6.024,1.343 
	73.997,1.343 74.256,1.35 74.492,1.368 74.727,1.397 74.956,1.438 75.181,1.49 75.401,1.553 75.617,1.626 75.829,1.709 
	76.035,1.803 76.236,1.906 76.432,2.018 76.621,2.139 76.804,2.27 76.979,2.408 77.149,2.555 77.312,2.709 77.466,2.872 
	77.613,3.042 77.752,3.218 77.882,3.401 78.003,3.59 78.115,3.785 78.219,3.986 78.312,4.192 78.396,4.403 78.469,4.62 
	78.531,4.841 78.583,5.066 78.624,5.295 78.653,5.528 78.672,5.766 78.678,6.023 "/>
<polygon fill-rule="evenodd" clip-rule="evenodd" fill="#FF1E00" points="9.237,48.36 18.417,50.604 18.448,10.836 26.927,10.836 
	26.866,50.537 36.239,48.297 22.758,72.133 "/>
<polygon fill="none" stroke="#231F20" stroke-width="0.4535" stroke-miterlimit="22.9256" points="9.237,48.36 18.417,50.604 
	18.448,10.836 26.927,10.836 26.866,50.537 36.239,48.297 22.758,72.133 "/>
<polygon fill-rule="evenodd" clip-rule="evenodd" fill="#FFFFFF" points="61.53,68.787 53.093,68.747 53.093,30.177 43.817,32.934 
	57.374,7.946 70.765,32.934 61.55,30.197 "/>
<polygon fill="none" stroke="#231F20" stroke-width="0.1" stroke-miterlimit="22.9256" points="61.53,68.787 53.093,68.747 
	53.093,30.177 43.817,32.934 57.374,7.946 70.765,32.934 61.55,30.197 "/>
</svg>
