<?xml version="1.0" encoding="UTF-8"?>
<!DOCTYPE svg PUBLIC "-//W3C//DTD SVG 1.1//EN" "http://www.w3.org/Graphics/SVG/1.1/DTD/svg11.dtd">
<!-- Creator: CorelDRAW X6 -->
<svg xmlns="http://www.w3.org/2000/svg" xml:space="preserve" width="30.8954mm" height="30.8955mm" version="1.1" style="shape-rendering:geometricPrecision; text-rendering:geometricPrecision; image-rendering:optimizeQuality; fill-rule:evenodd; clip-rule:evenodd"
viewBox="0 0 244 244"
 xmlns:xlink="http://www.w3.org/1999/xlink">
 <defs>
  <style type="text/css">
   <![CDATA[
    .fil0 {fill:#0000FA}
   ]]>
  </style>
 </defs>
 <g id="Layer_x0020_1">
  <metadata id="CorelCorpID_0Corel-Layer"/>
  <path class="fil0" d="M244 229l0 1 0 1 0 0 -1 1 0 1 0 0 0 1 0 1 -1 0 0 1 0 1 -1 0 0 1 -1 0 0 1 -1 0 0 1 -1 0 0 1 -1 0 0 1 -1 0 -1 0 0 1 -1 0 -1 0 0 0 -1 0 -1 1 0 0 -1 0 -1 0 -214 0 -1 0 -1 0 -1 0 0 -1 -1 0 -1 0 0 0 -1 0 -1 -1 0 0 -1 0 -1 -1 0 0 -1 -1 0 0 -1 -1 0 0 -1 -1 0 0 0 -1 -1 0 0 -1 -1 -1 0 0 0 -1 0 -1 -1 0 0 -1 0 -1 0 0 0 -1 0 -1 0 -214 0 -1 0 -1 0 -1 0 0 0 -1 1 -1 0 0 0 -1 0 -1 1 0 0 -1 1 -1 0 0 0 -1 1 0 0 -1 1 0 0 -1 1 0 0 0 1 -1 1 0 0 -1 1 0 1 0 0 0 1 -1 1 0 0 0 1 0 1 0 1 0 214 0 1 0 1 0 0 0 1 0 1 0 0 1 1 0 1 0 0 0 1 1 1 0 0 1 1 0 0 0 1 1 0 0 1 1 0 0 1 1 0 0 1 1 0 1 0 0 1 1 0 1 0 0 0 1 0 1 1 0 0 1 0 1 0 1 0 214zm-144 -2l1 -102 -47 14 68 -122 68 122 -46 -14 0 102 -44 0z"/>
 </g>
</svg>
