<?xml version="1.0" encoding="utf-8"?>
<!-- Generator: Adobe Illustrator 16.0.0, SVG Export Plug-In . SVG Version: 6.00 Build 0)  -->
<!DOCTYPE svg PUBLIC "-//W3C//DTD SVG 1.1//EN" "http://www.w3.org/Graphics/SVG/1.1/DTD/svg11.dtd">
<svg version="1.1" id="Layer_1" xmlns="http://www.w3.org/2000/svg" xmlns:xlink="http://www.w3.org/1999/xlink" x="0px" y="0px"
	 width="110.022px" height="36.688px" viewBox="0 0 110.022 36.688" enable-background="new 0 0 110.022 36.688"
	 xml:space="preserve">
<path fill="none" stroke="#231F20" stroke-width="0.0216" stroke-miterlimit="22.9256" d="M4.725,0.011L4.725,0.011h100.571
	c2.604,0,4.715,2.111,4.715,4.714v27.238c0,2.604-2.111,4.714-4.715,4.714H4.726H4.725c-2.603,0-4.714-2.11-4.714-4.714v-0.01V4.735
	v-0.01C0.011,2.122,2.122,0.011,4.725,0.011z"/>
<path fill-rule="evenodd" clip-rule="evenodd" fill="#0001FE" d="M5.547,22.86l78.246,0.027l-3.209,9.038l24.454-13.595
	L80.618,4.763l3.132,9.081H5.515L5.547,22.86z M105.283,1.059l0.203,0.005l0.187,0.015l0.184,0.023l0.181,0.033l0.177,0.041
	l0.174,0.049l0.17,0.058l0.166,0.065l0.162,0.073l0.158,0.081l0.153,0.089l0.148,0.095l0.145,0.103l0.139,0.109l0.133,0.115
	l0.128,0.122l0.121,0.127l0.116,0.133l0.108,0.139l0.103,0.144l0.096,0.148l0.088,0.154l0.081,0.158l0.073,0.162l0.065,0.167
	l0.058,0.17l0.049,0.174l0.041,0.177l0.032,0.18l0.023,0.184l0.014,0.187l0.006,0.203V31.95l-0.006,0.203l-0.014,0.187l-0.023,0.184
	l-0.032,0.181l-0.041,0.177l-0.049,0.173l-0.058,0.171l-0.065,0.166l-0.073,0.162l-0.081,0.157l-0.088,0.154l-0.096,0.148
	l-0.103,0.144l-0.108,0.139l-0.116,0.134l-0.121,0.128l-0.128,0.121l-0.133,0.115l-0.139,0.109l-0.145,0.103l-0.148,0.095
	l-0.153,0.089l-0.158,0.081l-0.162,0.073l-0.166,0.065l-0.17,0.058l-0.174,0.049l-0.177,0.041l-0.181,0.032l-0.184,0.023
	l-0.187,0.014l-0.203,0.006H4.738l-0.203-0.006l-0.187-0.014l-0.184-0.023l-0.18-0.032l-0.177-0.041l-0.173-0.049l-0.17-0.059
	l-0.167-0.064l-0.162-0.073l-0.158-0.081l-0.153-0.089l-0.149-0.095l-0.144-0.103l-0.139-0.109L2.26,34.677l-0.127-0.121
	l-0.122-0.128l-0.115-0.134l-0.109-0.139l-0.102-0.144l-0.096-0.148l-0.088-0.154L1.42,33.552L1.347,33.39l-0.065-0.166
	l-0.058-0.171L1.174,32.88l-0.041-0.177l-0.032-0.181l-0.023-0.184l-0.014-0.187L1.059,31.95V4.738l0.005-0.203l0.014-0.187
	l0.023-0.184l0.032-0.18l0.041-0.177l0.049-0.174l0.057-0.17l0.066-0.167L1.42,3.136l0.081-0.158l0.088-0.154l0.096-0.148
	l0.102-0.144l0.109-0.139L2.011,2.26l0.122-0.127L2.26,2.011l0.133-0.115l0.139-0.109l0.144-0.103l0.149-0.095L2.979,1.5L3.136,1.42
	l0.162-0.073l0.167-0.065l0.17-0.058l0.173-0.049l0.177-0.041l0.18-0.033l0.184-0.023l0.187-0.015l0.203-0.005H105.283z"/>
<path fill="none" stroke="#231F20" stroke-width="0.0216" stroke-miterlimit="22.9256" d="M5.547,22.86l78.246,0.027l-3.209,9.038
	l24.454-13.595L80.618,4.763l3.132,9.081H5.515L5.547,22.86z M105.283,1.059l0.203,0.005l0.187,0.015l0.184,0.023l0.181,0.033
	l0.177,0.041l0.174,0.049l0.17,0.058l0.166,0.065l0.162,0.073l0.158,0.081l0.153,0.089l0.148,0.095l0.145,0.103l0.139,0.109
	l0.133,0.115l0.128,0.122l0.121,0.127l0.116,0.133l0.108,0.139l0.103,0.144l0.096,0.148l0.088,0.154l0.081,0.158l0.073,0.162
	l0.065,0.167l0.058,0.17l0.049,0.174l0.041,0.177l0.032,0.18l0.023,0.184l0.014,0.187l0.006,0.203V31.95l-0.006,0.203l-0.014,0.187
	l-0.023,0.184l-0.032,0.181l-0.041,0.177l-0.049,0.173l-0.058,0.171l-0.065,0.166l-0.073,0.162l-0.081,0.157l-0.088,0.154
	l-0.096,0.148l-0.103,0.144l-0.108,0.139l-0.116,0.134l-0.121,0.128l-0.128,0.121l-0.133,0.115l-0.139,0.109l-0.145,0.103
	l-0.148,0.095l-0.153,0.089l-0.158,0.081l-0.162,0.073l-0.166,0.065l-0.17,0.058l-0.174,0.049l-0.177,0.041l-0.181,0.032
	l-0.184,0.023l-0.187,0.014l-0.203,0.006H4.738l-0.203-0.006l-0.187-0.014l-0.184-0.023l-0.18-0.032l-0.177-0.041l-0.173-0.049
	l-0.17-0.059l-0.167-0.064l-0.162-0.073l-0.158-0.081l-0.153-0.089l-0.149-0.095l-0.144-0.103l-0.139-0.109L2.26,34.677
	l-0.127-0.121l-0.122-0.128l-0.115-0.134l-0.109-0.139l-0.102-0.144l-0.096-0.148l-0.088-0.154L1.42,33.552L1.347,33.39
	l-0.065-0.166l-0.058-0.171L1.174,32.88l-0.041-0.177l-0.032-0.181l-0.023-0.184l-0.014-0.187L1.059,31.95V4.738l0.005-0.203
	l0.014-0.187l0.023-0.184l0.032-0.18l0.041-0.177l0.049-0.174l0.057-0.17l0.066-0.167L1.42,3.136l0.081-0.158l0.088-0.154
	l0.096-0.148l0.102-0.144l0.109-0.139L2.011,2.26l0.122-0.127L2.26,2.011l0.133-0.115l0.139-0.109l0.144-0.103l0.149-0.095
	L2.979,1.5L3.136,1.42l0.162-0.073l0.167-0.065l0.17-0.058l0.173-0.049l0.177-0.041l0.18-0.033l0.184-0.023l0.187-0.015l0.203-0.005
	H105.283z"/>
</svg>
