<?xml version="1.0" encoding="UTF-8"?>
<!DOCTYPE svg PUBLIC "-//W3C//DTD SVG 1.1//EN" "http://www.w3.org/Graphics/SVG/1.1/DTD/svg11.dtd">
<!-- Creator: CorelDRAW X6 -->
<svg xmlns="http://www.w3.org/2000/svg" xml:space="preserve" width="61.3409mm" height="19.6529mm" version="1.1" style="shape-rendering:geometricPrecision; text-rendering:geometricPrecision; image-rendering:optimizeQuality; fill-rule:evenodd; clip-rule:evenodd"
viewBox="0 0 11429 3662"
 xmlns:xlink="http://www.w3.org/1999/xlink">
 <defs>
  <style type="text/css">
   <![CDATA[
    .fil0 {fill:blue}
   ]]>
  </style>
 </defs>
 <g id="Layer_x0020_1">
  <metadata id="CorelCorpID_0Corel-Layer"/>
  <path class="fil0" d="M390 0l-21 1 -20 1 -19 2 -19 3 -19 4 -18 5 -18 6 -18 7 -17 8 -17 9 -16 9 -16 10 -15 11 -15 12 -14 12 -14 13 -13 14 -12 14 -12 15 -11 15 -10 16 -9 16 -9 17 -8 17 -7 18 -6 18 -5 18 -4 19 -3 19 -2 19 -2 20 -1 21 0 2882 1 21 2 20 2 19 3 19 4 19 5 18 6 18 7 18 8 17 9 17 9 16 10 16 11 15 12 15 12 14 13 14 14 13 14 12 15 12 15 11 16 10 16 9 17 9 17 8 18 7 18 6 18 5 19 4 19 3 19 2 20 2 21 1 10649 0 21 -1 20 -2 19 -2 19 -3 19 -4 18 -5 18 -6 18 -7 17 -8 17 -9 16 -9 16 -10 15 -11 15 -12 14 -12 14 -13 13 -14 12 -14 12 -15 11 -15 10 -16 9 -16 9 -17 8 -17 7 -18 6 -18 5 -18 4 -19 3 -19 2 -19 2 -20 1 -21 0 -2882 -1 -21 -2 -20 -2 -19 -3 -19 -4 -19 -5 -18 -6 -18 -7 -18 -8 -17 -9 -17 -9 -16 -10 -16 -11 -15 -12 -15 -12 -14 -13 -14 -14 -13 -14 -12 -15 -12 -15 -11 -16 -10 -16 -9 -17 -9 -17 -8 -18 -7 -18 -6 -18 -5 -19 -4 -19 -3 -19 -2 -20 -1 -21 -1 -10649 0zm10564 2309l-8288 3 340 957 -2590 -1440 2587 -1437 -332 962 8286 0 -3 955z"/>
 </g>
</svg>
