<?xml version="1.0" encoding="UTF-8"?>
<!DOCTYPE svg PUBLIC "-//W3C//DTD SVG 1.1//EN" "http://www.w3.org/Graphics/SVG/1.1/DTD/svg11.dtd">
<!-- Creator: CorelDRAW X6 -->
<svg xmlns="http://www.w3.org/2000/svg" xml:space="preserve" width="31.0477mm" height="31.0477mm" version="1.1" style="shape-rendering:geometricPrecision; text-rendering:geometricPrecision; image-rendering:optimizeQuality; fill-rule:evenodd; clip-rule:evenodd"
viewBox="0 0 246 246"
 xmlns:xlink="http://www.w3.org/1999/xlink">
 <defs>
  <style type="text/css">
   <![CDATA[
    .fil0 {fill:#0000FA}
   ]]>
  </style>
 </defs>
 <g id="Layer_x0020_1">
  <metadata id="CorelCorpID_0Corel-Layer"/>
  <path class="fil0" d="M0 234l0 -221 0 -1 0 -1 0 0 0 -1 0 0 1 -1 0 -1 0 0 0 -1 1 0 0 -1 0 0 1 -1 0 0 0 -1 1 0 0 -1 1 0 0 0 1 -1 0 0 1 0 0 -1 1 0 0 0 1 0 1 -1 0 0 1 0 0 0 1 0 1 0 221 0 0 0 1 0 1 0 0 0 1 0 0 1 1 0 1 0 0 0 1 1 0 0 1 0 0 1 1 0 0 0 1 1 0 0 0 1 1 0 0 1 1 0 0 1 0 0 0 1 1 0 0 1 0 1 0 0 0 1 0 0 0 1 0 1 0 221 0 0 0 1 0 1 0 0 0 1 0 0 0 1 -1 1 0 0 0 1 0 0 -1 1 0 0 -1 1 0 0 0 1 -1 0 0 0 -1 1 0 0 -1 1 0 0 -1 0 0 0 -1 1 -1 0 0 0 -1 0 0 0 -1 0 -1 0 0 0 -221 0 -1 0 -1 0 0 0 -1 0 0 0 -1 0 -1 0 0 -1 -1 0 0 0 -1 0 0 -1 -1 0 0 -1 -1 0 0 0 -1 -1 0 0 0 -1 -1 0 0 -1 0 0 -1 -1 0 0 0 -1 0 -1 -1 0 0 -1 0 0 0 -1 0 -1 0 0zm138 -12l-1 -1 0 -11 -28 0 0 11 -1 1 -5 0 -1 -1 0 -11 -1 0 0 11 -1 1 -6 0 -1 -1 0 -11 -4 0 0 -61c0,-2 2,-4 4,-4l60 0c3,0 5,2 5,4l0 61 -5 0 0 11 -1 1 -5 0 -1 -1 0 -11 -2 0 0 11 -1 1 -5 0zm-44 -48l0 -25 58 0 0 25 -58 0zm19 -51l0 -55 -19 7 29 -49 29 48 -19 -6 0 55 -20 0z"/>
 </g>
</svg>
