<?xml version="1.0" encoding="UTF-8"?>
<!DOCTYPE svg PUBLIC "-//W3C//DTD SVG 1.1//EN" "http://www.w3.org/Graphics/SVG/1.1/DTD/svg11.dtd">
<!-- Creator: CorelDRAW X6 -->
<svg xmlns="http://www.w3.org/2000/svg" xml:space="preserve" width="31.0813mm" height="31.0816mm" version="1.1" style="shape-rendering:geometricPrecision; text-rendering:geometricPrecision; image-rendering:optimizeQuality; fill-rule:evenodd; clip-rule:evenodd"
viewBox="0 0 369 369"
 xmlns:xlink="http://www.w3.org/1999/xlink">
 <defs>
  <style type="text/css">
   <![CDATA[
    .fil0 {fill:#0000FA}
    .fil1 {fill:red}
   ]]>
  </style>
 </defs>
 <g id="Layer_x0020_1">
  <metadata id="CorelCorpID_0Corel-Layer"/>
  <g id="_623784544">
   <path class="fil0" d="M0 350l0 -331 0 -1 0 -1 0 -1 1 -1 0 -1 0 0 0 -1 1 -1 0 -1 0 -1 1 -1 0 0 1 -1 1 -1 0 -1 1 0 0 -1 1 0 1 -1 1 -1 0 0 1 -1 1 0 1 0 1 -1 1 0 0 0 1 0 1 -1 1 0 1 0 1 0 331 0 1 0 1 0 1 0 1 1 1 0 1 0 0 0 1 1 1 0 1 0 1 1 1 0 0 1 1 1 1 0 0 1 1 0 1 1 0 1 1 1 0 0 1 1 0 1 0 1 1 1 0 1 0 0 1 1 0 1 0 1 0 1 0 1 0 331 0 1 0 1 0 1 0 1 -1 1 0 1 0 0 -1 1 0 1 0 1 -1 1 0 1 -1 0 0 1 -1 1 -1 0 0 1 -1 1 -1 0 -1 1 0 0 -1 1 -1 0 -1 0 -1 1 -1 0 0 0 -1 1 -1 0 -1 0 -1 0 -1 0 -331 0 -1 0 -1 0 -1 0 -1 0 -1 -1 0 0 -1 0 -1 -1 -1 0 -1 0 -1 -1 0 0 -1 -1 -1 0 -1 -1 0 -1 -1 0 0 -1 -1 -1 -1 -1 0 0 -1 -1 0 -1 0 -1 -1 -1 0 0 0 -1 0 -1 -1 -1 0 -1 0 -1 0 -1zm207 -17l-2 -3 0 -15 -41 0 0 15 -2 3 -7 0 -2 -3 0 -15 -2 0 0 15 -2 3 -8 0 -1 -3 0 -15 -7 0 0 -91c0,-4 3,-7 7,-7l89 0c4,0 7,4 7,7l0 91 -7 0 0 16 -1 2 -8 0 -2 -2 0 -16 -2 0 0 16 -1 2 -8 0zm-66 -73l0 -36 87 0 0 36 -87 0zm28 -75l0 -83 -28 10 43 -73 44 73 -28 -10 0 83 -31 0z"/>
   <path class="fil1" d="M0 338l335 -338 12 0c14,0 22,8 22,23l0 9 -338 337 -8 0c-15,0 -23,-8 -23,-22l0 -9z"/>
  </g>
 </g>
</svg>
