<?xml version="1.0" encoding="UTF-8"?>
<!DOCTYPE svg PUBLIC "-//W3C//DTD SVG 1.1//EN" "http://www.w3.org/Graphics/SVG/1.1/DTD/svg11.dtd">
<!-- Creator: CorelDRAW X6 -->
<svg xmlns="http://www.w3.org/2000/svg" xml:space="preserve" width="31.0477mm" height="31.0477mm" version="1.1" style="shape-rendering:geometricPrecision; text-rendering:geometricPrecision; image-rendering:optimizeQuality; fill-rule:evenodd; clip-rule:evenodd"
viewBox="0 0 786 786"
 xmlns:xlink="http://www.w3.org/1999/xlink">
 <defs>
  <style type="text/css">
   <![CDATA[
    .fil0 {fill:#0000FA}
   ]]>
  </style>
 </defs>
 <g id="Layer_x0020_1">
  <metadata id="CorelCorpID_0Corel-Layer"/>
  <path class="fil0" d="M409 0l336 0 2 0 2 0 2 0 2 1 2 0 2 1 2 0 2 1 2 1 2 1 1 1 2 1 1 1 2 1 1 2 2 1 1 1 2 2 1 1 1 2 1 1 1 2 1 2 1 2 0 2 1 1 0 2 1 2 0 2 1 2 0 2 0 3 0 704 0 2 0 2 -1 2 0 2 -1 2 0 2 -1 2 0 2 -1 2 -1 2 -1 1 -1 2 -1 1 -2 2 -1 1 -1 2 -2 1 -1 1 -2 2 -1 1 -2 1 -2 1 -1 1 -2 1 -2 0 -2 1 -2 0 -2 1 -2 0 -2 1 -2 0 -2 0 -336 0 0 -786zm-409 745l0 -704 0 -3 0 -2 0 -2 1 -2 0 -2 1 -2 0 -1 1 -2 1 -2 1 -2 1 -2 1 -1 1 -2 1 -1 2 -2 1 -1 1 -1 2 -2 1 -1 2 -1 1 -1 2 -1 2 -1 2 -1 2 -1 1 0 2 -1 2 0 2 -1 2 0 2 0 3 0 336 0 0 786 -336 0 -3 0 -2 0 -2 -1 -2 0 -2 -1 -2 0 -1 -1 -2 0 -2 -1 -2 -1 -1 -1 -2 -1 -2 -1 -1 -2 -2 -1 -1 -1 -1 -2 -2 -1 -1 -2 -1 -1 -1 -2 -1 -2 -1 -1 -1 -2 -1 -2 0 -2 -1 -2 0 -2 -1 -2 0 -2 0 -2 0 -2zm120 -454l0 34 -3 4 -17 0 -3 -5 0 -33 -15 0 0 -194c0,-9 7,-14 15,-14l190 0c9,-1 15,8 15,14l0 194 -16 0 0 34 -2 4 -18 0 -3 -4 0 -34 -143 0zm152 -49c8,0 14,7 14,14 0,8 -6,15 -14,15 -8,0 -14,-7 -14,-15 0,-7 6,-14 14,-14zm-161 0c8,0 15,7 15,14 0,8 -7,15 -15,15 -8,0 -14,-7 -14,-15 0,-7 6,-14 14,-14zm-12 -67l0 -78 185 0 0 78 -185 0zm126 203l0 196 60 -21 -92 156 -94 -155 61 20 0 -196 65 0zm336 339l0 -514 -60 20 91 -155 94 155 -61 -20 1 514 -65 0z"/>
 </g>
</svg>
