<?xml version="1.0" encoding="UTF-8"?>
<!DOCTYPE svg PUBLIC "-//W3C//DTD SVG 1.1//EN" "http://www.w3.org/Graphics/SVG/1.1/DTD/svg11.dtd">
<!-- Creator: CorelDRAW X6 -->
<svg xmlns="http://www.w3.org/2000/svg" xml:space="preserve" width="31.0812mm" height="31.0814mm" version="1.1" style="shape-rendering:geometricPrecision; text-rendering:geometricPrecision; image-rendering:optimizeQuality; fill-rule:evenodd; clip-rule:evenodd"
viewBox="0 0 7672 7673"
 xmlns:xlink="http://www.w3.org/1999/xlink">
 <defs>
  <style type="text/css">
   <![CDATA[
    .fil0 {fill:#0000FA}
    .fil1 {fill:red}
   ]]>
  </style>
 </defs>
 <g id="Layer_x0020_1">
  <metadata id="CorelCorpID_0Corel-Layer"/>
  <g id="_620530240">
   <path class="fil0" d="M3993 5l3279 0 22 0 20 2 20 2 19 4 19 4 19 5 18 6 18 8 18 7 17 9 16 10 16 10 16 11 15 12 14 12 14 13 13 14 12 14 12 15 11 16 10 16 10 16 8 17 8 18 7 17 7 19 5 18 4 19 4 20 2 20 2 20 0 21 0 6873 0 22 -2 19 -2 20 -4 19 -4 19 -6 19 -6 18 -7 18 -8 18 -9 17 -9 16 -10 16 -12 16 -11 15 -13 14 -13 14 -14 13 -14 12 -15 12 -16 11 -16 10 -16 10 -18 9 -17 8 -18 7 -18 6 -19 5 -19 5 -19 3 -20 3 -20 1 -22 1 -3278 0 0 -7664zm-3990 7266l0 -6873 2 -19 1 -20 3 -20 3 -20 5 -19 5 -18 6 -19 7 -17 8 -18 9 -17 9 -16 10 -16 11 -16 12 -15 13 -14 13 -14 13 -13 15 -12 15 -12 15 -11 16 -10 17 -10 17 -9 17 -7 18 -8 18 -6 19 -5 19 -4 19 -4 20 -2 20 -2 22 0 3280 0 0 7664 -3280 0 -22 -1 -20 -1 -19 -3 -19 -3 -19 -5 -19 -5 -18 -6 -18 -7 -18 -8 -17 -9 -16 -10 -16 -10 -16 -11 -15 -12 -14 -12 -14 -13 -13 -14 -12 -15 -12 -15 -11 -15 -11 -16 -9 -17 -9 -17 -8 -17 -7 -18 -6 -18 -5 -19 -5 -19 -3 -19 -3 -20 -1 -20 -2 -23zm1172 -4429l0 328 -30 43 -168 0 -27 -45 -1 -328 -144 0 0 -1887c1,-88 70,-143 145,-143l1850 0c89,-1 145,78 145,139l0 1891 -147 0 0 330 -26 43 -171 0 -28 -42 0 -331 -1398 2zm1483 -476c77,0 140,63 140,140 0,77 -63,140 -140,140 -77,0 -140,-63 -140,-140 0,-77 63,-140 140,-140zm-1568 0c77,0 140,63 140,140 0,77 -63,140 -140,140 -77,0 -140,-63 -140,-140 0,-77 63,-140 140,-140zm-118 -653l1 -762 1805 -2 -1 764 -1805 0zm1226 1975l1 1916 582 -201 -892 1516 -917 -1512 595 192 -1 -1911 632 0zm3277 3311l-2 -5012 -586 197 892 -1515 917 1511 -591 -192 1 5015 -631 -4z"/>
   <path class="fil1" d="M3 7031l6954 -7026 263 -5c279,-10 459,174 452,477l-4 187 -7021 7005 -167 3c-311,4 -486,-158 -480,-466l3 -175z"/>
  </g>
 </g>
</svg>
