<?xml version="1.0" encoding="UTF-8"?>
<!DOCTYPE svg PUBLIC "-//W3C//DTD SVG 1.1//EN" "http://www.w3.org/Graphics/SVG/1.1/DTD/svg11.dtd">
<!-- Creator: CorelDRAW X6 -->
<svg xmlns="http://www.w3.org/2000/svg" xml:space="preserve" width="61.3421mm" height="40.4965mm" version="1.1" style="shape-rendering:geometricPrecision; text-rendering:geometricPrecision; image-rendering:optimizeQuality; fill-rule:evenodd; clip-rule:evenodd"
viewBox="0 0 8381 5533"
 xmlns:xlink="http://www.w3.org/1999/xlink">
 <defs>
  <style type="text/css">
   <![CDATA[
    .fil0 {fill:#0000FA}
   ]]>
  </style>
 </defs>
 <g id="Layer_x0020_1">
  <metadata id="CorelCorpID_0Corel-Layer"/>
  <path class="fil0" d="M8102 5533c153,-4 279,-131 279,-285l0 -2149 -8381 0 0 2148c0,158 127,285 285,285 2604,0 5209,1 7813,1l4 0zm279 -2604l0 -2643c0,-157 -129,-286 -286,-286 -2604,0 -5207,0 -7811,0 -158,0 -284,128 -284,285l0 2644 8381 0zm-1504 -1292c175,0 317,140 317,311 0,171 -142,311 -317,311 -174,0 -316,-140 -316,-311 0,-171 142,-311 316,-311zm1042 168l-382 140 -267 1c14,-179 -143,-393 -391,-394 -232,4 -382,174 -395,392l-1516 1c-1,-203 -162,-386 -392,-389 -227,7 -393,183 -393,390l-194 1c-82,0 -168,-72 -168,-168l-1 -662 334 -575c24,-43 63,-113 159,-115l3457 0c58,-3 150,59 149,154l0 1224zm-224 -689l-645 1 -2 -574 646 0 1 573zm-744 1l-610 0 0 -575 610 0 0 575zm-718 -1l-636 1 0 -575 637 1 -1 573zm-746 0l-635 1 -1 -575 636 1 0 573zm-917 521c176,0 320,141 320,313 0,174 -144,314 -320,314 -176,0 -319,-140 -319,-314 0,-172 143,-313 319,-313zm2307 162c84,0 153,67 153,149 0,82 -69,150 -153,150 -84,0 -152,-68 -152,-150 0,-82 68,-149 152,-149zm-3504 -159l-1900 -5 151 431 -1140 -659 1138 -677 -145 439 1892 -1 4 472zm1361 -523l-781 0 337 -575 444 0 0 575zm-164 682c85,0 155,68 155,151 0,84 -70,152 -155,152 -85,0 -154,-68 -154,-152 0,-83 69,-151 154,-151zm-4086 2303l6471 -2 -141 -411 1083 626 -1080 644 137 -415 -6468 1 -2 -443z"/>
 </g>
</svg>
