<?xml version="1.0" encoding="UTF-8"?>
<!DOCTYPE svg PUBLIC "-//W3C//DTD SVG 1.1//EN" "http://www.w3.org/Graphics/SVG/1.1/DTD/svg11.dtd">
<!-- Creator: CorelDRAW X6 -->
<svg xmlns="http://www.w3.org/2000/svg" xml:space="preserve" width="61.3421mm" height="40.4965mm" version="1.1" style="shape-rendering:geometricPrecision; text-rendering:geometricPrecision; image-rendering:optimizeQuality; fill-rule:evenodd; clip-rule:evenodd"
viewBox="0 0 3891 2569"
 xmlns:xlink="http://www.w3.org/1999/xlink">
 <defs>
  <style type="text/css">
   <![CDATA[
    .fil0 {fill:#0000FA}
   ]]>
  </style>
 </defs>
 <g id="Layer_x0020_1">
  <metadata id="CorelCorpID_0Corel-Layer"/>
  <path class="fil0" d="M129 0c-71,2 -129,61 -129,132l0 998 3891 0 0 -998c0,-73 -59,-132 -132,-132 -1209,0 -2419,0 -3628,0l-2 0zm-129 1209l0 1227c0,73 60,133 133,133 1209,0 2417,0 3626,0 73,0 132,-60 132,-133l0 -1227 -3891 0zm3661 -745l-2996 0 65 -191 -501 290 500 298 -64 -192 2995 1 1 -206zm-3434 1613l176 64 124 1c-7,-83 66,-181 180,-182 108,2 177,80 183,181l701 0c0,-93 74,-178 181,-179 105,3 181,85 181,180l90 0c38,0 78,-33 78,-77l0 -306 -154 -266c-12,-20 -30,-52 -74,-53l-1597 0c-27,-1 -70,27 -69,71l0 566zm103 -318l299 0 0 -266 -298 1 -1 265zm344 0l282 0 0 -266 -282 0 0 266zm332 0l294 0 0 -266 -294 0 0 266zm345 -1l293 1 1 -266 -294 1 0 264zm348 1l361 0 -156 -266 -205 0 0 266zm73 241c-82,0 -148,65 -148,145 0,80 66,145 148,145 81,0 147,-65 147,-145 0,-80 -66,-145 -147,-145zm0 75c-39,0 -72,31 -72,70 0,38 33,70 72,70 40,0 71,-32 71,-70 0,-39 -31,-70 -71,-70zm-1062 -75c-81,0 -147,64 -147,143 0,80 66,144 147,144 80,0 146,-64 146,-144 0,-79 -66,-143 -146,-143zm0 75c-39,0 -71,30 -71,69 0,38 32,69 71,69 38,0 70,-31 70,-69 0,-39 -32,-69 -70,-69zm1613 -104l880 -2 -70 200 528 -305 -527 -314 67 204 -876 -1 -2 218z"/>
 </g>
</svg>
