<?xml version="1.0" encoding="UTF-8"?>
<!DOCTYPE svg PUBLIC "-//W3C//DTD SVG 1.1//EN" "http://www.w3.org/Graphics/SVG/1.1/DTD/svg11.dtd">
<!-- Creator: CorelDRAW X6 -->
<svg xmlns="http://www.w3.org/2000/svg" xml:space="preserve" width="61.3644mm" height="40.5124mm" version="1.1" style="shape-rendering:geometricPrecision; text-rendering:geometricPrecision; image-rendering:optimizeQuality; fill-rule:evenodd; clip-rule:evenodd"
viewBox="0 0 963 636"
 xmlns:xlink="http://www.w3.org/1999/xlink">
 <defs>
  <style type="text/css">
   <![CDATA[
    .fil0 {fill:#0000FA}
   ]]>
  </style>
 </defs>
 <g id="Layer_x0020_1">
  <metadata id="CorelCorpID_0Corel-Layer"/>
  <path class="fil0" d="M0 603l0 -570 0 -2 0 -2 0 -1 1 -2 0 -1 0 -2 1 -2 1 -1 0 -1 1 -2 1 -1 1 -2 1 -1 0 -1 2 -1 1 -1 1 -1 1 -2 1 0 1 -1 2 -1 1 -1 2 -1 1 0 1 -1 2 -1 2 0 1 0 2 -1 1 0 2 0 2 0 898 0 1 0 2 0 2 0 1 1 2 0 1 0 2 1 1 1 2 0 1 1 2 1 1 1 1 1 2 0 1 2 1 1 1 1 1 1 1 1 1 1 1 2 1 1 0 2 1 1 1 1 0 2 0 2 1 1 0 2 0 1 0 2 0 2 0 570 0 2 0 2 0 1 0 2 -1 2 0 1 0 2 -1 1 -1 2 0 1 -1 1 -1 2 -1 1 -1 1 -1 1 -1 2 -1 1 -1 1 -2 1 -1 1 -1 0 -2 1 -1 1 -2 1 -1 0 -2 1 -1 0 -2 0 -1 1 -2 0 -2 0 -1 0 -898 0 -2 0 -2 0 -1 0 -2 -1 -1 0 -2 0 -2 -1 -1 0 -1 -1 -2 -1 -1 -1 -2 0 -1 -1 -1 -1 -1 -1 -1 -1 -1 -2 -2 -1 0 -1 -1 -1 -1 -2 -1 -1 -1 -1 0 -2 -1 -1 -1 -2 0 -1 0 -2 -1 -2 0 -1 0 -2 0 -2zm243 -139l0 119 -54 0 1 -119c-49,-11 -85,-55 -85,-107 0,-52 36,-96 84,-107l0 -71 -65 21 92 -156 91 155 -64 -20 0 71c47,12 83,55 83,107 0,51 -36,95 -83,107zm331 82l108 -131c25,-30 38,-65 38,-104l0 -132 -64 20 91 -155 92 156 -65 -21 0 137c1,45 -19,93 -48,128l-115 139 -37 -37zm-65 -82l0 119 -54 0 0 -119c-48,-12 -83,-56 -83,-107 0,-52 35,-95 83,-107l0 -71 -65 21 92 -156 91 155 -64 -20 0 71c48,12 84,55 84,107 0,52 -36,95 -84,107zm-27 -208c56,0 101,45 101,101 0,55 -45,100 -101,100 -55,0 -100,-45 -100,-100 0,-56 45,-101 100,-101zm8 118l0 -39c0,-13 11,-24 25,-24 13,0 24,11 24,24l0 39c0,14 -11,25 -24,25 -14,0 -25,-11 -25,-25zm13 0c0,7 5,12 12,12 7,0 12,-5 12,-12l0 -39c0,-6 -5,-12 -12,-12 -7,0 -12,6 -12,12l0 39zm-76 -16l0 -46 46 0 0 12 -34 0 0 19c9,-7 23,-6 31,4 3,4 5,9 5,14l0 13c0,14 -11,25 -25,25 -13,0 -23,-10 -24,-23l12 0c1,7 8,11 14,10 6,-1 11,-6 11,-12l0 -11c0,-7 -6,-12 -13,-12 -5,0 -9,3 -11,7l-12 0zm-212 -102c56,0 101,45 101,101 0,55 -45,101 -101,101 -55,0 -101,-46 -101,-101 0,-56 46,-101 101,-101zm10 117l0 -37c0,-13 11,-24 24,-24 13,0 24,11 24,24l0 37c0,14 -11,25 -24,25 -13,0 -24,-11 -24,-25zm12 0c0,7 5,12 12,12 7,0 12,-5 12,-12l0 -37c0,-7 -5,-12 -12,-12 -7,0 -12,5 -12,12l0 37zm-68 -20c-6,-4 -9,-10 -9,-17 0,-13 11,-24 24,-24 14,0 24,11 24,24 0,7 -3,13 -8,17 6,4 10,11 10,19 0,14 -12,26 -26,26 -14,0 -25,-12 -25,-26 0,-8 3,-15 10,-19zm2 19c0,7 6,13 13,13 8,0 14,-6 14,-13 0,-7 -6,-14 -14,-14 -7,0 -13,7 -13,14zm1 -36c0,6 6,12 12,12 7,0 12,-6 12,-12 0,-7 -5,-12 -12,-12 -6,0 -12,5 -12,12z"/>
 </g>
</svg>
