<?xml version="1.0" encoding="UTF-8"?>
<!DOCTYPE svg PUBLIC "-//W3C//DTD SVG 1.1//EN" "http://www.w3.org/Graphics/SVG/1.1/DTD/svg11.dtd">
<!-- Creator: CorelDRAW X6 -->
<svg xmlns="http://www.w3.org/2000/svg" xml:space="preserve" width="61.3644mm" height="40.5124mm" version="1.1" style="shape-rendering:geometricPrecision; text-rendering:geometricPrecision; image-rendering:optimizeQuality; fill-rule:evenodd; clip-rule:evenodd"
viewBox="0 0 1561 1031"
 xmlns:xlink="http://www.w3.org/1999/xlink">
 <defs>
  <style type="text/css">
   <![CDATA[
    .fil2 {fill:black}
    .fil0 {fill:#0000FA}
    .fil1 {fill:red}
   ]]>
  </style>
 </defs>
 <g id="Layer_x0020_1">
  <metadata id="CorelCorpID_0Corel-Layer"/>
  <g id="_620502944">
   <path class="fil0" d="M0 977l0 -924 0 -3 0 -2 1 -3 0 -3 1 -2 0 -3 1 -2 1 -3 1 -2 1 -2 2 -2 1 -3 2 -2 1 -2 2 -2 2 -1 1 -2 2 -2 2 -1 2 -2 3 -1 2 -2 2 -1 2 -1 3 -1 2 -1 3 0 2 -1 3 0 3 -1 2 0 3 0 1455 0 3 0 2 0 3 1 3 0 2 1 3 0 2 1 3 1 2 1 2 1 2 2 3 1 2 2 2 1 2 2 1 2 2 1 2 2 1 2 2 2 1 3 2 2 1 2 1 2 1 3 1 2 0 3 1 2 0 3 1 3 0 2 0 3 0 924 0 3 0 3 -1 3 0 2 -1 3 0 2 -1 3 -1 2 -1 2 -1 3 -2 2 -1 2 -2 2 -1 2 -2 2 -2 2 -1 2 -2 1 -2 2 -2 2 -3 1 -2 1 -2 1 -2 1 -3 1 -2 1 -3 1 -2 0 -3 1 -3 0 -2 0 -3 1 -1455 0 -3 -1 -2 0 -3 0 -3 -1 -2 0 -3 -1 -2 -1 -3 -1 -2 -1 -2 -1 -2 -1 -3 -1 -2 -2 -2 -2 -2 -1 -1 -2 -2 -2 -2 -2 -1 -2 -2 -2 -1 -2 -2 -2 -1 -2 -1 -3 -1 -2 -1 -3 0 -2 -1 -3 0 -2 -1 -3 0 -3 0 -3zm1211 -904l147 251 -103 -33 0 105c83,19 145,94 145,183 0,89 -62,164 -146,183l0 180 -86 0 -1 -181c-81,-21 -142,-95 -142,-182 0,-88 61,-162 142,-182l0 -106 -104 33 148 -251zm-855 0l147 251 -104 -33 0 106c82,20 143,94 143,182 0,88 -61,162 -143,183l0 180 -87 0 0 -180c-84,-19 -146,-94 -146,-183 0,-89 62,-164 146,-183l0 -105 -104 33 148 -251zm426 0l147 251 -103 -33 -1 106c83,19 144,93 144,181 0,88 -61,162 -144,182l1 182 -87 0 -1 -183c-81,-20 -142,-93 -142,-181 0,-87 61,-161 142,-181l0 -106 -104 33 148 -251z"/>
   <path class="fil1" d="M1213 405c95,0 173,78 173,174 0,95 -78,173 -173,173 -96,0 -174,-78 -174,-173 0,-96 78,-174 174,-174zm-859 0c95,0 174,78 174,174 0,96 -79,174 -174,174 -96,0 -175,-78 -175,-174 0,-96 79,-174 175,-174zm429 -1c96,0 174,78 174,174 0,96 -78,175 -174,175 -96,0 -175,-79 -175,-175 0,-96 79,-174 175,-174zm430 47c70,0 127,58 127,128 0,70 -57,127 -127,127 -70,0 -128,-57 -128,-127 0,-70 58,-128 128,-128zm-430 0c70,0 126,57 126,127 0,70 -56,127 -126,127 -70,0 -127,-57 -127,-127 0,-70 57,-127 127,-127zm-429 0c70,0 128,58 128,128 0,71 -58,128 -128,128 -71,0 -129,-57 -129,-128 0,-70 58,-128 129,-128z"/>
   <path class="fil2" d="M1147 617l20 0 0 6c0,5 4,9 9,9 5,0 10,-4 10,-9l0 -33c0,-5 -5,-9 -10,-9 -4,0 -8,3 -9,7l-17 0 0 -72 55 0 0 18 -38 0 0 36c9,-8 23,-8 32,1 4,4 6,10 6,16l0 36c0,15 -13,28 -29,28 -16,0 -29,-13 -29,-28l0 -6zm-753 6l0 -80c0,-16 13,-29 29,-29 16,0 29,13 29,29l0 80c0,16 -13,29 -29,29 -16,0 -29,-13 -29,-29zm19 0c0,5 5,9 10,9 5,0 10,-4 10,-9l0 -80c0,-5 -5,-9 -10,-9 -5,0 -10,4 -10,9l0 80zm-98 0l0 -80c0,-16 13,-29 29,-29 16,0 29,13 29,29l0 80c0,16 -13,29 -29,29 -16,0 -29,-13 -29,-29zm19 0c0,5 4,9 10,9 5,0 9,-4 9,-9l0 -80c0,-5 -4,-9 -9,-9 -6,0 -10,4 -10,9l0 80zm-82 -72l0 -21 19 -14 20 0 0 134 -20 0 0 -114 -19 15zm539 72l0 -80c0,-16 13,-28 29,-28 16,0 29,12 29,28l0 80c0,16 -13,28 -29,28 -16,0 -29,-12 -29,-28zm19 0c0,5 5,9 10,9 5,0 10,-4 10,-9l0 -80c0,-5 -5,-9 -10,-9 -5,0 -10,4 -10,9l0 80zm-86 -44c-6,-4 -10,-10 -10,-18l0 -18c0,-16 13,-28 29,-28 16,0 29,12 29,28l0 18c0,8 -4,14 -10,18 6,4 10,11 10,18l0 26c0,16 -13,28 -29,28 -16,0 -29,-12 -29,-28l0 -26c0,-7 4,-14 10,-18zm9 44c0,5 5,9 10,9 5,0 10,-4 10,-9l0 -27c0,-5 -5,-9 -10,-9 -5,0 -10,4 -10,9l0 27zm0 -60c0,5 5,9 10,9 5,0 10,-4 10,-9l0 -20c0,-5 -5,-9 -10,-9 -5,0 -10,4 -10,9l0 20zm491 60l0 -79c0,-16 13,-29 29,-29 16,0 29,13 29,29l0 79c0,15 -13,28 -29,28 -16,0 -29,-13 -29,-28zm19 0c0,5 5,9 10,9 5,0 9,-4 9,-9l0 -79c0,-6 -4,-10 -9,-10 -5,0 -10,4 -10,10l0 79z"/>
  </g>
 </g>
</svg>
