<?xml version="1.0" encoding="UTF-8"?>
<!DOCTYPE svg PUBLIC "-//W3C//DTD SVG 1.1//EN" "http://www.w3.org/Graphics/SVG/1.1/DTD/svg11.dtd">
<!-- Creator: CorelDRAW X6 -->
<svg xmlns="http://www.w3.org/2000/svg" xml:space="preserve" width="61.3644mm" height="40.5125mm" version="1.1" style="shape-rendering:geometricPrecision; text-rendering:geometricPrecision; image-rendering:optimizeQuality; fill-rule:evenodd; clip-rule:evenodd"
viewBox="0 0 4100 2706"
 xmlns:xlink="http://www.w3.org/1999/xlink">
 <defs>
  <style type="text/css">
   <![CDATA[
    .fil0 {fill:#0000FA}
   ]]>
  </style>
 </defs>
 <g id="Layer_x0020_1">
  <metadata id="CorelCorpID_0Corel-Layer"/>
  <path class="fil0" d="M0 2567l0 -2427 0 -8 1 -7 1 -7 1 -7 1 -7 2 -6 2 -7 3 -6 3 -6 3 -6 3 -6 4 -6 4 -5 4 -5 4 -5 5 -5 5 -5 5 -4 5 -4 5 -4 6 -4 6 -3 6 -3 6 -3 6 -3 7 -2 6 -2 7 -1 7 -1 7 -1 7 -1 8 0 3820 0 7 0 7 1 7 1 7 1 7 1 7 2 6 2 6 3 7 3 6 3 5 3 6 4 6 4 5 4 5 4 5 5 4 5 5 5 4 5 4 5 3 6 4 6 3 6 3 6 2 6 2 7 2 6 2 7 1 7 1 7 0 7 1 8 0 2427 -1 7 0 7 -1 7 -1 7 -2 7 -2 7 -2 6 -2 6 -3 7 -3 6 -4 5 -3 6 -4 5 -4 6 -5 5 -4 5 -5 4 -5 5 -5 4 -6 4 -6 3 -5 4 -6 3 -7 3 -6 2 -6 2 -7 2 -7 2 -7 1 -7 1 -7 0 -7 0 -3820 0 -8 0 -7 0 -7 -1 -7 -1 -7 -2 -6 -2 -7 -2 -6 -2 -6 -3 -6 -3 -6 -4 -6 -3 -5 -4 -5 -4 -5 -5 -5 -4 -5 -5 -4 -5 -4 -6 -4 -5 -4 -6 -3 -5 -3 -6 -3 -7 -3 -6 -2 -6 -2 -7 -1 -7 -1 -7 -1 -7 -1 -7 0 -7zm2295 -1729l232 -66 0 1760 262 -1 0 -730c2,-142 91,-269 257,-269l133 1 -76 266 662 -382 -663 -397 75 278 -126 0c-85,-1 -211,26 -260,92l-2 -620 232 68 -364 -664 -362 664zm-1294 488l-83 -246 239 1c101,0 196,60 198,203l0 1247 244 -1 -1 -1294c1,-109 -77,-381 -390,-389l-287 -1 81 -282 -667 392 666 370zm1024 -1130l64 0 0 178 -64 0 0 -178zm0 262c21,0 42,0 64,0 0,60 0,119 0,178 -22,0 -43,0 -64,0 0,-59 0,-118 0,-178zm-1 263c22,0 43,0 65,0 0,59 0,118 0,177 -22,0 -43,0 -65,0 0,-59 0,-118 0,-177zm0 262c22,0 43,0 64,0 0,59 0,119 0,178 -21,0 -42,0 -64,0 0,-59 0,-119 0,-178zm0 263c22,0 43,0 64,0 0,59 0,118 0,177 -21,0 -42,0 -64,0 0,-59 0,-118 0,-177zm0 262c21,0 43,0 64,0 0,59 0,118 0,178 -21,0 -43,0 -64,0 0,-60 0,-119 0,-178zm0 262c21,0 43,0 64,0 0,60 0,119 0,178 -21,0 -43,0 -64,0 0,-59 0,-118 0,-178zm0 263c21,0 42,0 64,0 0,59 0,118 0,177 -22,0 -43,0 -64,0 0,-59 0,-118 0,-177zm0 262l64 0 0 178 -64 0 0 -178z"/>
 </g>
</svg>
