<?xml version="1.0" encoding="UTF-8"?>
<!DOCTYPE svg PUBLIC "-//W3C//DTD SVG 1.1//EN" "http://www.w3.org/Graphics/SVG/1.1/DTD/svg11.dtd">
<!-- Creator: CorelDRAW X6 -->
<svg xmlns="http://www.w3.org/2000/svg" xml:space="preserve" width="31.0479mm" height="31.0479mm" version="1.1" style="shape-rendering:geometricPrecision; text-rendering:geometricPrecision; image-rendering:optimizeQuality; fill-rule:evenodd; clip-rule:evenodd"
viewBox="0 0 246 246"
 xmlns:xlink="http://www.w3.org/1999/xlink">
 <defs>
  <style type="text/css">
   <![CDATA[
    .fil0 {fill:#0000FA}
   ]]>
  </style>
 </defs>
 <g id="Layer_x0020_1">
  <metadata id="CorelCorpID_0Corel-Layer"/>
  <path class="fil0" d="M234 246l1 0 0 0 1 0 0 0 1 -1 1 0 0 0 1 0 0 -1 1 0 0 0 1 -1 0 0 1 0 0 -1 1 0 0 -1 0 0 1 -1 0 0 0 -1 1 0 0 -1 0 0 0 -1 1 -1 0 0 0 -1 0 0 0 -1 0 -1 0 -220 0 -1 0 -1 0 0 0 -1 0 0 -1 -1 0 -1 0 0 0 -1 -1 0 0 -1 0 0 -1 -1 0 0 0 -1 -1 0 0 -1 -1 0 0 0 -1 -1 0 0 -1 0 0 -1 -1 0 0 0 -1 0 -1 -1 0 0 -1 0 0 0 -1 0 -1 0 -220 0 -1 0 -1 0 0 0 -1 0 -1 0 0 1 -1 0 0 0 -1 0 0 1 -1 0 0 0 -1 1 0 0 -1 0 0 1 -1 0 0 1 0 0 -1 1 0 0 0 1 -1 0 0 1 0 0 0 1 -1 1 0 0 0 1 0 0 0 1 0 1 0 220 0 1 0 1 0 0 0 1 0 0 1 1 0 1 0 0 0 1 1 0 0 1 0 0 1 1 0 0 0 1 1 0 0 1 1 0 0 0 1 1 0 0 1 0 0 1 1 0 0 0 1 0 0 1 1 0 1 0 0 0 1 0 1 0 220 0 1 0zm-99 -169l-1 158 -23 0 0 -159 -20 7 32 -60 32 60 -20 -6zm-77 158l-6 0 0 -16 6 0 0 16zm0 -24c-2,0 -4,0 -6,0 0,-5 0,-10 0,-16 2,0 4,0 6,0 0,6 0,11 0,16zm0 -23c-2,0 -4,0 -6,0 0,-5 0,-11 0,-16 2,0 4,0 6,0 0,5 0,11 0,16zm0 -24c-2,0 -4,0 -6,0 0,-5 0,-10 0,-16 2,0 4,0 6,0 0,6 0,11 0,16zm0 -23c-2,0 -4,0 -6,0 0,-5 0,-11 0,-16 2,0 4,0 6,0 0,5 0,11 0,16zm0 -23l-6 0 0 -16 6 0 0 16zm136 117l-6 0 0 -16 6 0 0 16zm0 -24c-2,0 -4,0 -6,0 0,-5 0,-10 0,-16 2,0 4,0 6,0 0,6 0,11 0,16zm0 -23c-2,0 -4,0 -6,0 0,-5 0,-11 0,-16 2,0 4,0 6,0 0,5 0,11 0,16zm0 -24c-2,0 -4,0 -6,0 0,-5 0,-10 0,-16 2,0 4,0 6,0 0,6 0,11 0,16zm0 -23c-2,0 -4,0 -6,0 0,-5 0,-11 0,-16 2,0 4,0 6,0 0,5 0,11 0,16zm0 -23l-6 0 0 -16 6 0 0 16z"/>
 </g>
</svg>
