<?xml version="1.0" encoding="UTF-8"?>
<!DOCTYPE svg PUBLIC "-//W3C//DTD SVG 1.1//EN" "http://www.w3.org/Graphics/SVG/1.1/DTD/svg11.dtd">
<!-- Creator: CorelDRAW X6 -->
<svg xmlns="http://www.w3.org/2000/svg" xml:space="preserve" width="31.0477mm" height="31.0477mm" version="1.1" style="shape-rendering:geometricPrecision; text-rendering:geometricPrecision; image-rendering:optimizeQuality; fill-rule:evenodd; clip-rule:evenodd"
viewBox="0 0 327 327"
 xmlns:xlink="http://www.w3.org/1999/xlink">
 <defs>
  <style type="text/css">
   <![CDATA[
    .fil0 {fill:#0000FA}
   ]]>
  </style>
 </defs>
 <g id="Layer_x0020_1">
  <metadata id="CorelCorpID_0Corel-Layer"/>
  <path class="fil0" d="M311 327l1 0 1 0 0 0 1 -1 1 0 1 0 1 0 0 -1 1 0 1 -1 0 0 1 0 1 -1 0 -1 1 0 0 -1 1 0 1 -1 0 -1 0 0 1 -1 0 -1 1 0 0 -1 0 -1 0 -1 1 -1 0 0 0 -1 0 -1 0 -1 0 -293 0 -1 0 -1 0 -1 0 -1 -1 0 0 -1 0 -1 0 -1 -1 0 0 -1 -1 -1 0 -1 0 0 -1 -1 -1 0 0 -1 -1 -1 0 0 -1 -1 -1 0 0 -1 -1 0 -1 0 0 -1 -1 0 -1 0 -1 0 -1 -1 0 0 -1 0 -1 0 -1 0 -293 0 -1 0 -1 0 -1 0 -1 0 0 1 -1 0 -1 0 -1 0 -1 1 0 0 -1 0 -1 1 0 0 -1 1 0 0 -1 1 -1 1 0 0 -1 1 0 0 -1 1 0 1 0 1 -1 0 0 1 0 1 0 1 -1 0 0 1 0 1 0 1 0 1 0 293 0 1 0 1 0 1 0 0 1 1 0 1 0 1 0 1 1 0 0 1 0 1 1 0 0 1 1 1 0 0 1 1 1 0 0 1 1 1 0 0 1 0 1 1 1 0 0 1 1 0 1 0 1 0 0 1 1 0 1 0 1 0 1 0 293 0 1 0zm-215 -15l0 -185c0,-17 13,-32 31,-32l103 0 -10 32 77 -45 -77 -44 10 30 -107 0c-31,0 -54,25 -54,57l1 187 26 0zm-65 0l-8 0 0 -21 8 0 0 21zm0 -31c-3,0 -5,0 -8,0 0,-7 0,-14 0,-21 3,0 5,0 8,0 0,7 0,14 0,21zm0 -31c-3,0 -5,0 -8,0 0,-7 0,-14 0,-21 3,0 5,0 8,0 0,7 0,14 0,21zm0 -31c-3,0 -5,0 -8,0 0,-7 0,-15 0,-22 3,0 5,0 8,0 0,7 0,15 0,22zm0 -32c-3,0 -5,0 -8,0 0,-7 0,-14 0,-21 3,0 5,0 8,0 0,7 0,14 0,21zm0 -31l-8 0 0 -21 8 0 0 21zm173 156l-8 0 0 -21 8 0 0 21zm0 -31c-3,0 -6,0 -8,0 0,-7 0,-14 0,-21 2,0 5,0 8,0 0,7 0,14 0,21zm0 -31c-3,0 -6,0 -8,0 0,-7 0,-14 0,-21 2,0 5,0 8,0 0,7 0,14 0,21zm0 -31c-3,0 -6,0 -8,0 0,-7 0,-15 0,-22 2,0 5,0 8,0 0,7 0,15 0,22zm0 -32c-3,0 -6,0 -8,0 0,-7 0,-14 0,-21 2,0 5,0 8,0 0,7 0,14 0,21zm0 -31l-8 0 0 -21 8 0 0 21z"/>
 </g>
</svg>
