<?xml version="1.0" encoding="UTF-8"?>
<!DOCTYPE svg PUBLIC "-//W3C//DTD SVG 1.1//EN" "http://www.w3.org/Graphics/SVG/1.1/DTD/svg11.dtd">
<!-- Creator: CorelDRAW X6 -->
<svg xmlns="http://www.w3.org/2000/svg" xml:space="preserve" width="31.0477mm" height="31.0477mm" version="1.1" style="shape-rendering:geometricPrecision; text-rendering:geometricPrecision; image-rendering:optimizeQuality; fill-rule:evenodd; clip-rule:evenodd"
viewBox="0 0 516 516"
 xmlns:xlink="http://www.w3.org/1999/xlink">
 <defs>
  <style type="text/css">
   <![CDATA[
    .fil0 {fill:#0000FA}
   ]]>
  </style>
 </defs>
 <g id="Layer_x0020_1">
  <metadata id="CorelCorpID_0Corel-Layer"/>
  <path class="fil0" d="M25 516l-1 0 -1 0 -2 0 -1 0 -1 -1 -1 0 -2 -1 -1 0 -1 -1 -1 0 -1 -1 -1 -1 -1 -1 -1 -1 -1 0 -1 -1 -1 -1 -1 -1 0 -1 -1 -1 -1 -2 0 -1 -1 -1 0 -1 -1 -1 0 -2 0 -1 -1 -1 0 -1 0 -2 0 -1 0 -463 0 -2 0 -1 0 -1 1 -2 0 -1 0 -1 1 -1 0 -2 1 -1 0 -1 1 -1 1 -1 0 -1 1 -1 1 -1 1 -1 1 -1 1 -1 1 -1 1 0 1 -1 1 -1 1 0 1 -1 2 0 1 -1 1 0 1 0 2 -1 1 0 1 0 2 0 463 0 1 0 2 0 1 0 1 1 2 0 1 0 1 1 1 0 1 1 2 0 1 1 1 1 1 0 1 1 1 1 1 1 0 1 1 1 1 1 1 1 1 1 0 1 1 1 0 1 1 2 0 1 1 1 0 1 0 2 0 1 0 1 0 2 0 463 0 1 0 2 0 1 0 1 0 1 -1 2 0 1 -1 1 0 1 -1 1 0 2 -1 1 -1 1 -1 1 -1 1 0 1 -1 0 -1 1 -1 1 -1 1 -1 1 -2 0 -1 1 -1 0 -1 1 -1 0 -2 1 -1 0 -1 0 -1 0 -2 0 -1 0 -464 0 -1 0zm339 -23l0 -293c0,-26 -20,-49 -48,-50l-163 0 16 50 -122 -71 122 -69 -16 48 170 0c48,0 85,39 85,89l-2 296 -42 0zm104 0l12 0 0 -33 -12 0 0 33zm0 -49c4,0 8,0 12,0 0,-11 0,-22 0,-34 -4,0 -8,0 -12,0 0,12 0,23 0,34zm0 -49c4,0 8,0 12,0 0,-12 0,-23 0,-34 -4,0 -8,0 -12,0 0,11 0,22 0,34zm0 -50c4,0 8,0 12,0 0,-11 0,-22 0,-33 -4,0 -8,0 -12,0 0,11 0,22 0,33zm0 -49c4,0 8,0 12,0 0,-11 0,-22 0,-33 -4,0 -8,0 -12,0 0,11 0,22 0,33zm0 -49l12 0 0 -34 -12 0 0 34zm-273 246l12 0 0 -33 -12 0 0 33zm0 -49c4,0 8,0 12,0 0,-11 0,-22 0,-34 -4,0 -8,0 -12,0 0,12 0,23 0,34zm0 -49c4,0 8,0 12,0 0,-12 0,-23 0,-34 -4,0 -8,0 -12,0 0,11 0,22 0,34zm0 -50c4,0 8,0 12,0 0,-11 0,-22 0,-33 -4,0 -8,0 -12,0 0,11 0,22 0,33zm0 -49c4,0 8,0 12,0 0,-11 0,-22 0,-33 -4,0 -8,0 -12,0 0,11 0,22 0,33zm0 -49l12 0 0 -34 -12 0 0 34z"/>
 </g>
</svg>
