<?xml version="1.0" encoding="UTF-8"?>
<!DOCTYPE svg PUBLIC "-//W3C//DTD SVG 1.1//EN" "http://www.w3.org/Graphics/SVG/1.1/DTD/svg11.dtd">
<!-- Creator: CorelDRAW X6 -->
<svg xmlns="http://www.w3.org/2000/svg" xml:space="preserve" width="31.0475mm" height="31.0475mm" version="1.1" style="shape-rendering:geometricPrecision; text-rendering:geometricPrecision; image-rendering:optimizeQuality; fill-rule:evenodd; clip-rule:evenodd"
viewBox="0 0 902 902"
 xmlns:xlink="http://www.w3.org/1999/xlink">
 <defs>
  <style type="text/css">
   <![CDATA[
    .fil0 {fill:#0000FA}
   ]]>
  </style>
 </defs>
 <g id="Layer_x0020_1">
  <metadata id="CorelCorpID_0Corel-Layer"/>
  <path class="fil0" d="M44 902l-2 0 -3 -1 -2 0 -2 0 -2 -1 -2 -1 -3 -1 -2 -1 -2 -1 -2 -1 -1 -1 -2 -1 -2 -2 -2 -1 -1 -2 -2 -1 -1 -2 -2 -2 -1 -2 -1 -1 -1 -2 -1 -2 -1 -2 -1 -3 -1 -2 -1 -2 0 -2 0 -2 -1 -3 0 -2 0 -3 0 -808 0 -3 0 -2 1 -2 0 -3 0 -2 1 -2 1 -2 1 -2 1 -3 1 -2 1 -1 1 -2 1 -2 2 -2 1 -2 2 -1 1 -2 2 -1 2 -2 2 -1 2 -1 1 -1 2 -1 3 -1 2 -1 2 -1 2 -1 2 0 3 0 2 -1 2 0 3 0 809 0 2 0 2 0 3 1 2 0 2 1 3 0 2 1 2 1 2 1 2 1 2 1 2 1 1 1 2 2 2 1 1 2 2 1 1 2 2 2 1 2 1 1 1 2 1 2 1 2 1 3 1 2 0 2 1 2 0 2 1 3 0 2 0 3 0 808 0 3 0 2 -1 3 0 2 0 2 -1 2 -1 3 -1 2 -1 2 -1 2 -1 2 -1 2 -1 1 -2 2 -1 2 -2 1 -1 2 -2 1 -2 2 -1 1 -2 1 -2 1 -2 1 -2 1 -2 1 -3 1 -2 1 -2 0 -2 0 -3 1 -2 0 -3 0 -809 0 -2 0zm168 -40l0 -584 -85 22 123 -215 122 216 -86 -22 1 267c20,-26 52,-37 85,-36l258 0 -24 -86 216 123 -216 122 24 -85 -259 0c-48,-1 -84,36 -84,86l0 192 -75 0zm-132 0l22 0 0 -59 -22 0 0 59zm0 -87c7,0 15,0 22,0 0,-19 0,-39 0,-58 -7,0 -15,0 -22,0 0,19 0,39 0,58zm0 -86c7,0 15,0 22,0 0,-19 0,-39 0,-58 -7,0 -15,0 -22,0 0,19 0,39 0,58zm0 -86c7,0 15,0 22,0 0,-19 0,-39 0,-58 -7,0 -15,0 -22,0 0,19 0,39 0,58zm0 -86c7,0 15,0 22,0 0,-19 0,-39 0,-58 -7,0 -15,0 -22,0 0,19 0,39 0,58zm0 -86l22 0 0 -59 -22 0 0 59zm467 431l22 0 0 -59 -22 0 0 59zm0 -87c7,0 15,0 22,0 0,-19 0,-39 0,-58 -7,0 -15,0 -22,0 0,19 0,39 0,58z"/>
 </g>
</svg>
