<?xml version="1.0" encoding="UTF-8"?>
<!DOCTYPE svg PUBLIC "-//W3C//DTD SVG 1.1//EN" "http://www.w3.org/Graphics/SVG/1.1/DTD/svg11.dtd">
<!-- Creator: CorelDRAW X6 -->
<svg xmlns="http://www.w3.org/2000/svg" xml:space="preserve" width="31.0481mm" height="31.0481mm" version="1.1" style="shape-rendering:geometricPrecision; text-rendering:geometricPrecision; image-rendering:optimizeQuality; fill-rule:evenodd; clip-rule:evenodd"
viewBox="0 0 3572 3572"
 xmlns:xlink="http://www.w3.org/1999/xlink">
 <defs>
  <style type="text/css">
   <![CDATA[
    .fil0 {fill:#0000FA}
   ]]>
  </style>
 </defs>
 <g id="Layer_x0020_1">
  <metadata id="CorelCorpID_0Corel-Layer"/>
  <path class="fil0" d="M3397 3572l10 -1 9 -1 9 -2 9 -2 8 -2 9 -3 8 -4 8 -3 8 -4 8 -5 7 -5 8 -5 7 -5 6 -6 7 -6 6 -7 6 -6 5 -7 5 -8 5 -7 4 -8 5 -8 3 -8 4 -8 2 -9 3 -8 2 -9 2 -9 1 -9 0 -10 1 -10 0 -3202 0 -10 -1 -9 -1 -9 -2 -10 -2 -8 -3 -9 -2 -9 -4 -8 -3 -8 -4 -8 -5 -8 -5 -7 -5 -8 -5 -7 -6 -6 -6 -7 -7 -6 -7 -6 -7 -5 -7 -5 -7 -5 -8 -5 -8 -4 -8 -3 -8 -4 -9 -3 -9 -2 -9 -2 -9 -2 -9 -1 -9 -1 -10 0 -3203 1 -10 0 -10 0 -9 2 -9 1 -9 2 -8 3 -9 3 -8 3 -8 4 -8 4 -8 4 -7 5 -7 5 -7 5 -7 6 -6 6 -6 7 -6 6 -6 7 -5 8 -4 7 -5 8 -4 8 -3 8 -4 8 -3 9 -2 8 -2 9 -2 9 -1 9 -1 10 0 10 0 3202 0 10 1 10 1 9 2 9 2 9 2 9 3 8 3 8 4 9 4 8 5 7 4 8 6 7 5 7 6 7 6 6 6 6 7 6 7 5 7 5 8 5 7 5 8 4 8 3 9 4 8 3 9 2 9 2 9 2 9 1 9 1 10 0 3205 0 8 0zm-665 -161l0 -2312 337 90 -486 -851 -483 854 338 -88 -1 1058c-82,-104 -208,-145 -339,-141l-1021 0 94 -343 -854 490 853 482 -95 -338 1026 0c193,-2 335,145 335,340l0 759 296 0zm523 0l-87 0 0 -232 87 0 0 232zm0 -340c-29,0 -58,0 -87,0 0,-78 0,-155 0,-233 29,0 58,0 87,0 0,78 0,155 0,233zm0 -341c-29,0 -58,0 -87,0 0,-78 0,-155 0,-233 29,0 58,0 87,0 0,78 0,155 0,233zm0 -341c-29,0 -58,0 -87,0 0,-77 0,-155 0,-232 29,0 58,0 87,0 0,77 0,155 0,232zm0 -341c-29,0 -58,0 -87,0 0,-77 0,-155 0,-232 29,0 58,0 87,0 0,77 0,155 0,232zm0 -340l-87 0 0 -233 87 0 0 233zm-1850 1703l-87 0 1 -232 86 0 0 232zm0 -340c-29,0 -58,0 -87,0 1,-78 1,-155 1,-233 29,0 57,0 86,0 0,78 0,155 0,233z"/>
 </g>
</svg>
