<?xml version="1.0" encoding="UTF-8"?>
<!DOCTYPE svg PUBLIC "-//W3C//DTD SVG 1.1//EN" "http://www.w3.org/Graphics/SVG/1.1/DTD/svg11.dtd">
<!-- Creator: CorelDRAW X6 -->
<svg xmlns="http://www.w3.org/2000/svg" xml:space="preserve" width="49.8449mm" height="24.9223mm" version="1.1" style="shape-rendering:geometricPrecision; text-rendering:geometricPrecision; image-rendering:optimizeQuality; fill-rule:evenodd; clip-rule:evenodd"
viewBox="0 0 1264 632"
 xmlns:xlink="http://www.w3.org/1999/xlink">
 <defs>
  <style type="text/css">
   <![CDATA[
    .str0 {stroke:#2B2A29;stroke-width:1.93184}
    .fil1 {fill:#212220}
    .fil0 {fill:white}
   ]]>
  </style>
 </defs>
 <g id="Layer_x0020_1">
  <metadata id="CorelCorpID_0Corel-Layer"/>
  <path class="fil0" d="M95 0l0 0 1074 0 0 0c52,0 95,42 95,95l0 0 0 442 0 0c0,52 -42,95 -95,95l0 0 -1074 0 0 0 0 0c-52,0 -95,-42 -95,-95l0 0 0 0 0 -442 0 0 0 0c0,-52 42,-95 95,-95l0 0z"/>
  <path class="fil1 str0" d="M1169 21l4 0 4 0 4 0 4 1 4 1 3 1 3 1 3 1 3 1 3 2 3 2 3 2 3 2 3 2 3 2 3 2 2 3 2 3 2 3 2 3 2 3 2 3 2 3 1 3 1 3 1 3 1 3 1 4 1 4 0 4 0 4 0 4 0 442 0 4 0 4 0 4 -1 4 -1 4 -1 3 -1 3 -1 3 -1 3 -2 3 -2 3 -2 3 -2 3 -2 3 -2 3 -2 3 -3 2 -3 2 -3 2 -3 2 -3 2 -3 2 -3 2 -3 1 -3 1 -3 1 -3 1 -4 1 -4 1 -4 0 -4 0 -4 0 -1074 0 -4 0 -4 0 -4 0 -4 -1 -4 -1 -3 -1 -3 -1 -3 -1 -3 -1 -3 -2 -3 -2 -3 -2 -3 -2 -3 -2 -3 -2 -3 -2 -2 -3 -2 -3 -2 -3 -2 -3 -2 -3 -2 -3 -2 -3 -1 -3 -1 -3 -1 -3 -1 -3 -1 -4 -1 -4 0 -4 0 -4 0 -4 0 -442 0 -4 0 -4 0 -4 1 -4 1 -4 1 -3 1 -3 1 -3 1 -3 2 -3 2 -3 2 -3 2 -3 2 -3 2 -3 2 -3 3 -2 3 -2 3 -2 3 -2 3 -2 3 -2 3 -2 3 -1 3 -1 3 -1 3 -1 4 -1 4 -1 4 0 4 0 4 0 1074 0zm0 21l3 0 3 0 3 0 3 0 3 1 2 1 2 1 2 1 2 1 2 1 2 1 2 1 2 1 2 2 2 2 2 2 2 2 2 2 2 2 1 2 1 2 1 2 1 2 1 2 1 2 1 2 1 2 1 3 0 3 0 3 0 3 0 3 0 441 0 3 0 3 0 3 0 3 -1 3 -1 2 -1 2 -1 2 -1 2 -1 2 -1 2 -1 2 -1 2 -2 2 -2 2 -2 2 -2 2 -2 2 -2 2 -2 1 -2 1 -2 1 -2 1 -2 1 -2 1 -2 1 -2 1 -3 1 -3 0 -3 0 -3 0 -3 0 -1073 0 -3 0 -3 0 -3 0 -3 0 -3 -1 -2 -1 -2 -1 -2 -1 -2 -1 -2 -1 -2 -1 -2 -1 -2 -1 -2 -2 -2 -2 -2 -2 -2 -2 -2 -2 -2 -2 -1 -2 -1 -2 -1 -2 -1 -2 -1 -2 -1 -2 -1 -2 -1 -2 -1 -3 0 -3 0 -3 0 -3 0 -3 0 -441 0 -3 0 -3 0 -3 0 -3 1 -3 1 -2 1 -2 1 -2 1 -2 1 -2 1 -2 1 -2 1 -2 2 -2 2 -2 2 -2 2 -2 2 -2 2 -2 2 -1 2 -1 2 -1 2 -1 2 -1 2 -1 2 -1 2 -1 3 -1 3 0 3 0 3 0 3 0 1073 0z"/>
  <path class="fil1 str0" d="M1038 496l-812 0 0 -248 45 0 0 35 90 0 0 101 33 -13 34 -190 23 158 9 -23 67 0 46 -203 42 203 17 0 37 45 0 -45 31 -226 51 226 0 23 85 0 23 48 23 0 0 -194c38,-14 75,-17 113,0l0 93 45 0 0 211z"/>
 </g>
</svg>
