<?xml version="1.0" encoding="UTF-8"?>
<!DOCTYPE svg PUBLIC "-//W3C//DTD SVG 1.1//EN" "http://www.w3.org/Graphics/SVG/1.1/DTD/svg11.dtd">
<!-- Creator: CorelDRAW X6 -->
<svg xmlns="http://www.w3.org/2000/svg" xml:space="preserve" width="49.8449mm" height="24.9223mm" version="1.1" style="shape-rendering:geometricPrecision; text-rendering:geometricPrecision; image-rendering:optimizeQuality; fill-rule:evenodd; clip-rule:evenodd"
viewBox="0 0 3741 1870"
 xmlns:xlink="http://www.w3.org/1999/xlink">
 <defs>
  <style type="text/css">
   <![CDATA[
    .str0 {stroke:#2B2A29;stroke-width:5.71865}
    .str1 {stroke:red;stroke-width:5.71865}
    .fil1 {fill:#212220}
    .fil2 {fill:red}
    .fil0 {fill:white}
   ]]>
  </style>
 </defs>
 <g id="Layer_x0020_1">
  <metadata id="CorelCorpID_0Corel-Layer"/>
  <path class="fil0" d="M281 0l0 0 3180 0 0 0c155,0 281,126 281,281l0 0 0 1309 0 0c0,155 -126,281 -281,281l0 0 -3180 0 0 0 0 0c-155,0 -281,-126 -281,-281l0 0 0 -1 0 -1308 0 -1 0 0c0,-155 126,-281 281,-281l0 0z"/>
  <path class="fil1 str0" d="M3459 62l12 0 11 1 11 1 11 2 11 2 10 3 10 3 10 4 10 4 9 5 9 5 9 6 9 6 8 6 8 7 8 7 7 8 7 8 6 8 6 9 6 9 5 9 5 9 4 10 4 10 3 10 3 10 2 11 2 11 1 11 1 11 0 12 0 1308 0 12 -1 11 -1 11 -2 11 -2 11 -3 10 -3 10 -4 10 -4 10 -5 9 -5 9 -6 9 -6 9 -6 8 -7 8 -7 8 -8 7 -8 7 -8 6 -9 6 -9 6 -9 5 -9 5 -10 4 -10 4 -10 3 -10 3 -11 2 -11 2 -11 1 -11 1 -12 0 -3178 0 -12 0 -11 -1 -11 -1 -11 -2 -11 -2 -10 -3 -10 -3 -10 -4 -10 -4 -9 -5 -9 -5 -9 -6 -9 -6 -8 -6 -8 -7 -8 -7 -7 -8 -7 -8 -6 -8 -6 -9 -6 -9 -5 -9 -5 -9 -4 -10 -4 -10 -3 -10 -3 -10 -2 -11 -2 -11 -1 -11 -1 -11 0 -12 0 -1308 0 -12 1 -11 1 -11 2 -11 2 -11 3 -10 3 -10 4 -10 4 -10 5 -9 5 -9 6 -9 6 -9 6 -8 7 -8 7 -8 8 -7 8 -7 8 -6 9 -6 9 -6 9 -5 9 -5 10 -4 10 -4 10 -3 10 -3 11 -2 11 -2 11 -1 11 -1 12 0 3178 0zm-1 62l10 0 8 1 8 1 8 1 7 2 7 2 7 2 7 3 7 3 7 3 7 4 6 4 6 4 6 5 6 5 5 5 5 5 5 6 5 6 4 6 4 6 4 7 3 7 3 7 3 7 2 7 2 7 2 7 1 8 1 8 1 8 0 10 0 1306 0 10 -1 8 -1 8 -1 8 -2 7 -2 7 -2 7 -3 7 -3 7 -3 7 -4 7 -4 6 -4 6 -5 6 -5 6 -5 5 -5 5 -6 5 -6 5 -6 4 -6 4 -7 4 -7 3 -7 3 -7 3 -7 2 -7 2 -8 2 -8 1 -8 1 -8 1 -10 0 -3176 0 -10 0 -8 -1 -8 -1 -8 -1 -7 -2 -7 -2 -7 -2 -7 -3 -7 -3 -7 -3 -7 -4 -6 -4 -6 -4 -6 -5 -6 -5 -5 -5 -5 -5 -5 -6 -5 -6 -4 -6 -4 -6 -4 -7 -3 -7 -3 -7 -3 -7 -2 -7 -2 -7 -2 -8 -1 -8 -1 -8 -1 -8 0 -10 0 -1306 0 -10 1 -8 1 -8 1 -8 2 -7 2 -7 2 -7 3 -7 3 -7 3 -7 4 -7 4 -6 4 -6 5 -6 5 -6 5 -5 5 -5 6 -5 6 -5 6 -4 6 -4 7 -4 7 -3 7 -3 7 -3 7 -2 7 -2 7 -2 8 -1 8 -1 8 -1 10 0 3176 0z"/>
  <path class="fil1 str0" d="M3073 1470l-2405 0 0 -735 134 0 0 103 267 0 0 298 98 -40 102 -561 67 468 25 -67 198 0 138 -601 124 601 49 0 110 134 0 -134 91 -668 150 668 0 67 250 0 67 141 67 0 0 -573c111,-40 223,-51 334,0l0 277 134 0 0 624z"/>
  <path class="fil2 str1" d="M125 1445l3084 -1320 260 0c68,0 145,57 148,156l0 144 -3083 1320 -260 0c-93,-8 -146,-78 -148,-155l0 -145z"/>
 </g>
</svg>
