<?xml version="1.0" encoding="UTF-8"?>
<!DOCTYPE svg PUBLIC "-//W3C//DTD SVG 1.1//EN" "http://www.w3.org/Graphics/SVG/1.1/DTD/svg11.dtd">
<!-- Creator: CorelDRAW X6 -->
<svg xmlns="http://www.w3.org/2000/svg" xml:space="preserve" width="81.0937mm" height="17.2185mm" version="1.1" style="shape-rendering:geometricPrecision; text-rendering:geometricPrecision; image-rendering:optimizeQuality; fill-rule:evenodd; clip-rule:evenodd"
viewBox="0 0 1692 359"
 xmlns:xlink="http://www.w3.org/1999/xlink">
 <defs>
  <style type="text/css">
   <![CDATA[
    .fil0 {fill:#0000FA}
   ]]>
  </style>
 </defs>
 <g id="Layer_x0020_1">
  <metadata id="CorelCorpID_0Corel-Layer"/>
  <path class="fil0" d="M1662 0l2 0 2 0 1 0 1 1 2 0 1 0 2 1 1 0 1 1 1 0 2 1 1 1 1 1 1 1 1 1 1 0 1 1 1 2 1 1 1 1 0 1 1 1 1 1 0 2 1 1 0 1 1 2 0 1 0 2 0 1 1 1 0 2 0 301 0 2 -1 1 0 2 0 1 0 1 -1 2 0 1 -1 1 0 2 -1 1 -1 1 0 1 -1 2 -1 1 -1 1 -1 1 -1 1 -1 1 -1 0 -1 1 -1 1 -2 1 -1 0 -1 1 -1 0 -2 1 -1 0 -2 1 -1 0 -1 0 -2 0 -2 0 -1633 0 -2 0 -1 0 -1 0 -2 0 -1 -1 -2 0 -1 -1 -1 0 -2 -1 -1 0 -1 -1 -1 -1 -1 -1 -1 0 -1 -1 -2 -1 0 -1 -1 -1 -1 -1 -1 -2 -1 -1 -1 -1 0 -1 -1 -2 0 -1 -1 -1 0 -2 0 -1 -1 -1 0 -2 0 -1 0 -2 0 -301 0 -2 0 -1 0 -1 1 -2 0 -1 0 -2 1 -1 0 -1 1 -2 0 -1 1 -1 1 -1 1 -1 1 -1 1 -1 0 -2 2 0 1 -1 1 -1 1 -1 1 -1 1 -1 1 0 2 -1 1 0 1 -1 2 0 1 0 2 -1 1 0 1 0 2 0 1633 0zm-1556 266l0 -173 26 0 0 89 1 0 71 -89 31 0 -55 69 61 104 -31 0 -48 -84 -30 32 0 52 -26 0zm157 0l0 -173 110 0 0 25 -84 0 0 49 72 0 0 24 -72 0 0 51 84 0 0 24 -110 0zm123 -22l18 -20c6,5 14,10 22,13 9,3 17,5 27,5 10,0 19,-3 25,-7 6,-5 9,-10 9,-18 0,-13 -8,-21 -23,-23 -4,0 -7,-1 -11,-1 -3,-1 -7,-1 -12,-2 -14,-2 -26,-8 -34,-16 -8,-9 -11,-20 -11,-33 0,-14 4,-27 14,-36 10,-10 24,-14 42,-14 11,0 21,1 30,5 10,3 18,8 26,13l-14 21c-7,-4 -14,-7 -21,-9 -7,-3 -15,-4 -22,-4 -8,0 -15,2 -21,6 -5,4 -8,11 -8,19 0,5 2,9 6,14 3,4 10,7 18,8 3,0 5,1 9,1 3,1 7,1 11,2 16,2 28,7 36,17 7,10 11,21 11,32 0,16 -5,29 -16,38 -11,8 -26,13 -45,13 -26,0 -48,-8 -66,-24zm188 22l0 -149 -47 0 0 -24 121 0 0 24 -48 0 0 149 -26 0zm96 0l0 -173 110 0 0 25 -84 0 0 49 72 0 0 24 -72 0 0 51 84 0 0 24 -110 0zm165 -149l0 52 39 0c10,0 18,-3 22,-8 5,-6 8,-12 8,-19 0,-9 -3,-16 -9,-20 -5,-4 -11,-5 -19,-5l-41 0zm-27 149l0 -173 68 0c15,0 27,4 35,12 5,4 9,9 13,15 3,7 5,14 5,22 0,11 -3,21 -9,29 -6,9 -14,15 -25,18l40 77 -31 0 -36 -74 -33 0 0 74 -27 0zm241 -48l28 0c-3,16 -11,28 -22,37 -11,8 -24,13 -39,13 -13,0 -25,-4 -34,-10 -9,-7 -16,-14 -20,-21 -3,-5 -5,-11 -6,-17 -1,-6 -1,-19 -1,-40 0,-21 0,-34 1,-40 1,-6 3,-12 6,-17 4,-8 11,-15 20,-21 9,-7 21,-10 34,-10 17,0 30,5 41,15 11,10 17,22 20,36l-28 0c-2,-7 -6,-12 -11,-17 -6,-5 -13,-8 -22,-8 -6,0 -11,1 -16,4 -4,2 -8,5 -10,9 -4,4 -6,9 -7,14 -2,6 -2,17 -2,35 0,18 0,29 2,35 1,5 3,10 7,14 2,3 6,6 10,9 5,2 10,4 16,4 15,0 26,-8 33,-24zm50 48l0 -173 26 0 0 173 -26 0zm66 0l0 -173 111 0 0 25 -84 0 0 49 72 0 0 24 -72 0 0 51 84 0 0 24 -111 0zm139 0l0 -173 25 0 50 113 48 -113 25 0 0 173 -26 0 0 -108 -1 0 -36 84 -22 0 -36 -84 0 0 0 108 -27 0zm173 -22l17 -20c7,5 14,10 23,13 8,3 17,5 26,5 11,0 20,-3 26,-7 6,-5 9,-10 9,-18 0,-13 -8,-21 -23,-23 -4,0 -7,-1 -11,-1 -3,-1 -7,-1 -12,-2 -15,-2 -26,-8 -34,-16 -8,-9 -12,-20 -12,-33 0,-14 5,-27 15,-36 10,-10 24,-14 42,-14 10,0 20,1 30,5 9,3 18,8 26,13l-15 21c-6,-4 -13,-7 -20,-9 -7,-3 -15,-4 -22,-4 -8,0 -15,2 -21,6 -6,4 -8,11 -8,19 0,5 1,9 5,14 4,4 10,7 19,8 2,0 5,1 9,1 3,1 6,1 11,2 16,2 28,7 35,17 8,10 12,21 12,32 0,16 -5,29 -16,38 -11,8 -26,13 -45,13 -26,0 -48,-8 -66,-24zm-1323 60l0 -34 20 0 0 19 -20 15z"/>
 </g>
</svg>
