<?xml version="1.0" encoding="UTF-8"?>
<!DOCTYPE svg PUBLIC "-//W3C//DTD SVG 1.1//EN" "http://www.w3.org/Graphics/SVG/1.1/DTD/svg11.dtd">
<!-- Creator: CorelDRAW X6 -->
<svg xmlns="http://www.w3.org/2000/svg" xml:space="preserve" width="81.0936mm" height="17.2185mm" version="1.1" style="shape-rendering:geometricPrecision; text-rendering:geometricPrecision; image-rendering:optimizeQuality; fill-rule:evenodd; clip-rule:evenodd"
viewBox="0 0 3274 695"
 xmlns:xlink="http://www.w3.org/1999/xlink">
 <defs>
  <style type="text/css">
   <![CDATA[
    .fil0 {fill:#0000FA}
    .fil1 {fill:red}
   ]]>
  </style>
 </defs>
 <g id="Layer_x0020_1">
  <metadata id="CorelCorpID_0Corel-Layer"/>
  <g id="_623784736">
   <path class="fil0" d="M3217 0l4 0 3 0 3 1 2 0 3 1 3 1 2 0 3 1 2 2 3 1 2 1 2 2 2 1 3 2 2 2 2 1 1 2 2 2 2 3 1 2 2 2 1 2 2 3 1 2 1 3 1 2 0 3 1 3 0 2 1 3 0 3 0 4 0 582 0 3 0 3 -1 3 0 2 -1 3 0 3 -1 2 -1 3 -1 2 -2 3 -1 2 -2 2 -1 3 -2 2 -2 2 -1 2 -2 2 -2 1 -3 2 -2 2 -2 1 -2 1 -3 2 -2 1 -3 1 -2 1 -3 0 -3 1 -2 1 -3 0 -3 0 -4 0 -3160 0 -4 0 -3 0 -3 0 -2 -1 -3 -1 -3 0 -2 -1 -3 -1 -2 -1 -3 -2 -2 -1 -2 -1 -2 -2 -3 -2 -2 -1 -2 -2 -1 -2 -2 -2 -2 -2 -1 -3 -2 -2 -1 -2 -1 -3 -2 -2 -1 -3 0 -2 -1 -3 -1 -3 0 -2 -1 -3 0 -3 0 -3 0 -582 0 -4 0 -3 1 -3 0 -2 1 -3 1 -3 0 -2 1 -3 2 -2 1 -3 1 -2 2 -2 1 -2 2 -3 2 -2 1 -2 2 -1 2 -2 3 -2 2 -1 2 -2 2 -1 3 -1 2 -2 3 -1 2 0 3 -1 3 -1 2 0 3 -1 3 0 4 0 3160 0zm-3012 515l0 -335 51 0 0 173 1 0 137 -173 61 0 -108 133 119 202 -60 0 -92 -163 -58 61 0 102 -51 0zm303 0l0 -335 215 0 0 49 -164 0 0 95 139 0 0 45 -139 0 0 99 164 0 0 47 -215 0zm240 -43l33 -38c13,10 27,18 44,24 16,6 33,10 51,10 21,0 37,-5 49,-13 12,-9 18,-20 18,-34 0,-26 -15,-42 -44,-45 -8,-1 -15,-2 -22,-3 -6,-1 -14,-2 -22,-3 -29,-4 -51,-15 -67,-32 -15,-17 -22,-38 -22,-63 0,-28 9,-52 28,-70 19,-18 46,-28 81,-28 20,0 40,4 58,10 18,7 35,15 50,25l-28 42c-12,-7 -25,-14 -39,-18 -14,-5 -29,-7 -44,-7 -15,0 -28,3 -39,11 -11,8 -17,20 -17,36 0,10 4,19 11,27 8,8 20,14 37,16 4,1 10,2 16,3 6,1 14,1 22,2 31,4 54,16 69,34 15,19 22,40 22,63 0,31 -10,55 -32,72 -21,17 -49,25 -85,25 -51,0 -93,-15 -128,-46zm363 43l0 -289 -92 0 0 -46 234 0 0 46 -91 0 0 289 -51 0zm185 0l0 -335 214 0 0 49 -163 0 0 95 139 0 0 45 -139 0 0 99 163 0 0 47 -214 0zm320 -289l0 101 76 0c19,0 34,-5 43,-16 10,-10 14,-23 14,-37 0,-17 -5,-30 -17,-38 -9,-7 -21,-10 -37,-10l-79 0zm-51 289l0 -335 131 0c28,0 51,8 68,23 9,8 17,18 24,30 6,12 9,26 9,41 0,22 -5,41 -17,57 -12,17 -27,29 -48,36l78 148 -60 0 -69 -143 -65 0 0 143 -51 0zm466 -93l54 0c-7,31 -21,55 -42,71 -22,17 -47,25 -76,25 -26,0 -48,-6 -66,-19 -18,-13 -31,-26 -39,-41 -5,-10 -9,-20 -11,-32 -2,-12 -3,-38 -3,-78 0,-40 1,-66 3,-78 2,-12 6,-22 11,-32 8,-15 21,-28 39,-41 18,-13 40,-20 66,-20 32,0 58,10 79,30 21,19 34,43 39,70l-54 0c-4,-13 -12,-24 -23,-34 -11,-10 -25,-14 -41,-14 -12,0 -22,2 -31,7 -9,5 -16,10 -21,17 -6,9 -11,18 -13,28 -2,10 -4,33 -4,67 0,35 2,57 4,67 2,10 7,20 13,28 5,7 12,12 21,17 9,5 19,8 31,8 28,0 50,-16 64,-46zm96 93l0 -335 51 0 0 335 -51 0zm129 0l0 -335 214 0 0 49 -163 0 0 95 139 0 0 45 -139 0 0 99 163 0 0 47 -214 0zm268 0l0 -335 48 0 97 219 93 -219 49 0 0 335 -51 0 0 -209 -1 0 -70 162 -43 0 -70 -162 -1 0 0 209 -51 0zm335 -43l34 -38c12,10 27,18 43,24 16,6 33,10 51,10 21,0 37,-5 49,-13 12,-9 18,-20 18,-34 0,-26 -15,-42 -44,-45 -8,-1 -15,-2 -21,-3 -7,-1 -14,-2 -23,-3 -29,-4 -51,-15 -66,-32 -16,-17 -23,-38 -23,-63 0,-28 9,-52 28,-70 20,-18 46,-28 81,-28 21,0 40,4 58,10 19,7 35,15 51,25l-28 42c-13,-7 -26,-14 -40,-18 -14,-5 -29,-7 -43,-7 -16,0 -29,3 -40,11 -11,8 -16,20 -16,36 0,10 3,19 11,27 7,8 19,14 36,16 5,1 10,2 16,3 7,1 14,1 22,2 31,4 54,16 69,34 15,19 23,40 23,63 0,31 -11,55 -32,72 -22,17 -50,25 -86,25 -50,0 -93,-15 -128,-46zm-2561 116l0 -66 38 0 0 38 -38 28z"/>
   <path class="fil1" d="M3228 1c24,4 44,25 46,52l0 77 -3228 564c-21,-3 -46,-24 -46,-54l0 -75 3228 -564z"/>
  </g>
 </g>
</svg>
