<?xml version="1.0" encoding="UTF-8"?>
<!DOCTYPE svg PUBLIC "-//W3C//DTD SVG 1.1//EN" "http://www.w3.org/Graphics/SVG/1.1/DTD/svg11.dtd">
<!-- Creator: CorelDRAW X6 -->
<svg xmlns="http://www.w3.org/2000/svg" xml:space="preserve" width="47.6136mm" height="47.6136mm" version="1.1" style="shape-rendering:geometricPrecision; text-rendering:geometricPrecision; image-rendering:optimizeQuality; fill-rule:evenodd; clip-rule:evenodd"
viewBox="0 0 1160 1160"
 xmlns:xlink="http://www.w3.org/1999/xlink">
 <defs>
  <style type="text/css">
   <![CDATA[
    .fil0 {fill:#2B2A29}
    .fil3 {fill:#FEFEFE}
    .fil4 {fill:blue}
    .fil2 {fill:red}
    .fil1 {fill:#2B2A29;fill-rule:nonzero}
   ]]>
  </style>
 </defs>
 <g id="Layer_x0020_1">
  <metadata id="CorelCorpID_0Corel-Layer"/>
  <path class="fil0" d="M46 0c-25,0 -46,21 -46,46l0 1068c0,25 21,46 46,46l1068 0c25,0 46,-21 46,-46l0 -1068c0,-25 -21,-46 -46,-46l-1068 0zm0 13c-18,0 -33,15 -33,33l0 1068c0,18 15,33 33,33l1068 0c18,0 33,-15 33,-33l0 -1068c0,-18 -15,-33 -33,-33l-1068 0z"/>
  <polygon class="fil1" points="290,1080 290,1059 367,934 293,934 293,911 398,911 398,931 321,1056 398,1056 398,1080 "/>
  <path class="fil1" d="M422 1021l0 -51c0,-33 27,-60 60,-60 33,0 60,27 60,60l0 51c0,33 -27,60 -60,60 -33,0 -60,-27 -60,-60zm26 0c0,19 15,35 35,35 19,0 35,-15 35,-35l0 -51c0,-19 -15,-35 -35,-35 -19,0 -35,16 -35,35l0 51z"/>
  <polygon class="fil1" points="576,1080 576,911 600,911 677,1032 677,911 702,911 702,1080 678,1080 601,959 601,1080 "/>
  <path class="fil1" d="M726 1080l62 -169 21 0 62 169 -27 0 -13 -38 -65 0 -13 38 -27 0zm47 -60l50 0 -25 -74 -25 74z"/>
  <path class="fil2" d="M580 91c196,0 357,160 357,357 0,196 -160,357 -357,357 -196,0 -357,-160 -357,-357 0,-196 160,-357 357,-357z"/>
  <path class="fil3" d="M740 654l-366 -366c-34,44 -55,100 -55,160 0,144 117,261 261,261 60,0 116,-21 160,-55z"/>
  <path class="fil4" d="M724 653l-349 -349c-30,42 -46,92 -46,144 0,138 112,250 250,250 52,0 102,-16 144,-46z"/>
  <path class="fil3" d="M420 242l366 366c34,-44 55,-100 55,-160 0,-144 -117,-261 -261,-261 -60,0 -116,21 -160,55z"/>
  <path class="fil4" d="M436 243l349 349c30,-42 46,-92 46,-144 0,-138 -112,-250 -250,-250 -52,0 -102,16 -144,46z"/>
 </g>
</svg>
