<?xml version="1.0" encoding="UTF-8"?>
<!DOCTYPE svg PUBLIC "-//W3C//DTD SVG 1.1//EN" "http://www.w3.org/Graphics/SVG/1.1/DTD/svg11.dtd">
<!-- Creator: CorelDRAW X6 -->
<svg xmlns="http://www.w3.org/2000/svg" xml:space="preserve" width="47.6136mm" height="47.6135mm" version="1.1" style="shape-rendering:geometricPrecision; text-rendering:geometricPrecision; image-rendering:optimizeQuality; fill-rule:evenodd; clip-rule:evenodd"
viewBox="0 0 3214 3214"
 xmlns:xlink="http://www.w3.org/1999/xlink">
 <defs>
  <style type="text/css">
   <![CDATA[
    .fil0 {fill:#2B2A29}
    .fil1 {fill:red}
    .fil3 {fill:#212220;fill-rule:nonzero}
    .fil2 {fill:#2B2A29;fill-rule:nonzero}
   ]]>
  </style>
 </defs>
 <g id="Layer_x0020_1">
  <metadata id="CorelCorpID_0Corel-Layer"/>
  <path class="fil0" d="M128 0c-71,0 -128,57 -128,128l0 2959c0,71 57,128 128,128l2959 0c71,0 128,-57 128,-128l0 -2959c0,-71 -57,-128 -128,-128l-2959 0zm0 37c-50,0 -91,41 -91,91l0 2959c0,50 41,91 91,91l2959 0c50,0 91,-41 91,-91l0 -2959c0,-50 -41,-91 -91,-91l-2959 0z"/>
  <path class="fil1" d="M1607 252c544,0 989,444 989,989 0,545 -444,989 -989,989 -545,0 -989,-444 -989,-989 0,-545 444,-989 989,-989zm0 262c401,0 727,326 727,727 0,401 -326,727 -727,727 -401,0 -727,-326 -727,-727 0,-401 326,-727 727,-727z"/>
  <polygon class="fil2" points="803,2991 803,2933 1015,2587 811,2587 811,2524 1103,2524 1103,2578 891,2925 1103,2925 1103,2991 "/>
  <path class="fil2" d="M1170 2829l0 -142c0,-92 75,-167 167,-167 92,0 167,75 167,167l0 142c0,92 -75,167 -167,167 -92,0 -167,-74 -167,-167zm71 0c0,53 43,96 96,96 53,0 96,-43 96,-96l0 -142c0,-53 -43,-96 -96,-96 -53,0 -96,43 -96,96l0 142z"/>
  <polygon class="fil2" points="1595,2991 1595,2524 1662,2524 1874,2858 1874,2524 1945,2524 1945,2991 1879,2991 1666,2658 1666,2991 "/>
  <path class="fil2" d="M2012 2991l171 -467 58 0 171 467 -75 0 -35 -104 -180 0 -35 104 -75 0zm131 -167l138 0 -69 -204 -69 204z"/>
  <path class="fil3" d="M1404 1694l0 -138 -258 0 0 -121 187 -646 137 0 -194 646 128 0 0 -247 130 0 0 247 62 0 0 121 -62 0 0 138 -130 0zm295 -820c21,-29 47,-52 79,-69 32,-17 65,-25 99,-25 33,0 65,7 94,20 29,14 54,32 73,56 19,24 33,48 40,72 7,24 11,51 11,80l0 461c0,27 -2,51 -7,71 -5,20 -16,43 -32,69 -16,25 -40,47 -72,65 -32,18 -66,27 -103,27 -43,0 -82,-11 -117,-33 -36,-22 -61,-46 -75,-74 -14,-28 -22,-50 -25,-67 -3,-17 -4,-36 -4,-59l0 -461c0,-27 3,-51 9,-72 6,-21 16,-42 31,-62zm251 71c-18,-24 -42,-37 -71,-37 -15,0 -31,4 -45,13 -15,9 -25,18 -31,28 -6,10 -10,21 -12,32 -2,11 -3,20 -3,27l0 461c0,9 1,19 2,30 1,11 9,26 22,44 13,19 36,28 67,28 16,0 31,-4 44,-12 13,-8 23,-17 29,-26 6,-10 10,-19 12,-29 2,-9 3,-21 3,-35l0 -461c0,-18 -1,-31 -2,-38 -1,-7 -6,-16 -14,-26z"/>
 </g>
</svg>
