<?xml version="1.0" encoding="UTF-8"?>
<!DOCTYPE svg PUBLIC "-//W3C//DTD SVG 1.1//EN" "http://www.w3.org/Graphics/SVG/1.1/DTD/svg11.dtd">
<!-- Creator: CorelDRAW X6 -->
<svg xmlns="http://www.w3.org/2000/svg" xml:space="preserve" width="47.6136mm" height="47.6135mm" version="1.1" style="shape-rendering:geometricPrecision; text-rendering:geometricPrecision; image-rendering:optimizeQuality; fill-rule:evenodd; clip-rule:evenodd"
viewBox="0 0 4250 4250"
 xmlns:xlink="http://www.w3.org/1999/xlink">
 <defs>
  <style type="text/css">
   <![CDATA[
    .fil3 {fill:#2B2A29}
    .fil0 {fill:#CCCCCC}
    .fil2 {fill:#2B2A29;fill-rule:nonzero}
    .fil1 {fill:#CCCCCC;fill-rule:nonzero}
   ]]>
  </style>
 </defs>
 <g id="Layer_x0020_1">
  <metadata id="CorelCorpID_0Corel-Layer"/>
  <path class="fil0" d="M2125 334c720,0 1307,587 1307,1307 0,720 -587,1307 -1307,1307 -720,0 -1307,-587 -1307,-1307 0,-720 587,-1307 1307,-1307zm0 346c531,0 961,430 961,961 0,531 -430,961 -961,961 -531,0 -961,-430 -961,-961 0,-531 430,-961 961,-961z"/>
  <path class="fil1" d="M1856 2239l0 -183 -341 0 0 -160 248 -854 181 0 -257 854 169 0 0 -327 172 0 0 327 83 0 0 160 -83 0 0 183 -172 0zm389 -1084c28,-38 62,-68 104,-91 42,-22 86,-33 131,-33 44,0 86,9 125,27 39,18 71,42 97,74 26,31 43,63 53,95 10,32 14,68 14,106l0 610c0,36 -3,67 -10,94 -7,27 -21,57 -42,91 -22,33 -53,62 -95,86 -42,24 -87,36 -136,36 -56,0 -108,-14 -155,-43 -47,-29 -80,-61 -99,-98 -19,-37 -30,-66 -33,-88 -4,-22 -5,-48 -5,-78l0 -610c0,-36 4,-68 12,-95 8,-27 21,-55 40,-83zm332 93c-24,-32 -55,-48 -93,-48 -20,0 -40,6 -60,17 -20,11 -33,24 -41,38 -8,14 -13,28 -15,42 -2,14 -4,26 -4,36l0 610c0,12 1,25 3,39 2,14 11,34 29,58 17,25 47,37 89,37 22,0 41,-5 58,-15 17,-10 30,-22 38,-35 8,-13 13,-26 15,-38 2,-12 4,-28 4,-47l0 -610c0,-24 -1,-41 -3,-50 -2,-10 -8,-21 -19,-34z"/>
  <polygon class="fil2" points="1061,3954 1061,3878 1342,3420 1072,3420 1072,3337 1458,3337 1458,3409 1177,3867 1458,3867 1458,3954 "/>
  <path class="fil2" d="M1546 3740l0 -188c0,-121 99,-220 221,-220 121,0 220,99 220,220l0 188c0,122 -99,220 -220,220 -122,0 -221,-98 -221,-220zm94 0c0,70 56,127 127,127 70,0 126,-57 126,-127l0 -188c0,-70 -57,-126 -126,-126 -71,0 -127,57 -127,126l0 188z"/>
  <polygon class="fil2" points="2109,3954 2109,3337 2197,3337 2478,3778 2478,3337 2572,3337 2572,3954 2484,3954 2202,3514 2202,3954 "/>
  <path class="fil2" d="M2660 3954l226 -617 77 0 226 617 -99 0 -46 -137 -238 0 -47 137 -99 0zm174 -220l182 0 -91 -270 -91 270z"/>
  <path class="fil3" d="M169 0c-93,0 -169,76 -169,169l0 3912c0,93 76,169 169,169l3912 0c93,0 169,-76 169,-169l0 -3912c0,-93 -76,-169 -169,-169l-3912 0zm179 4201l3853 -3853 0 -179c0,-8 -1,-16 -2,-24l-4054 4054c8,2 16,2 24,2l179 0zm3853 -3648l-3648 3648 3527 0c67,0 121,-54 121,-121l0 -3527zm-4153 3535l4041 -4041c-3,0 -6,0 -9,0l-197 0 -3836 3836 0 197c0,3 0,6 0,9zm0 -411l3630 -3630 -3509 0c-67,0 -121,54 -121,121l0 3509z"/>
 </g>
</svg>
