<?xml version="1.0" encoding="UTF-8"?>
<!DOCTYPE svg PUBLIC "-//W3C//DTD SVG 1.1//EN" "http://www.w3.org/Graphics/SVG/1.1/DTD/svg11.dtd">
<!-- Creator: CorelDRAW X6 -->
<svg xmlns="http://www.w3.org/2000/svg" xml:space="preserve" width="47.6857mm" height="47.6857mm" version="1.1" style="shape-rendering:geometricPrecision; text-rendering:geometricPrecision; image-rendering:optimizeQuality; fill-rule:evenodd; clip-rule:evenodd"
viewBox="0 0 4165 4165"
 xmlns:xlink="http://www.w3.org/1999/xlink">
 <defs>
  <style type="text/css">
   <![CDATA[
    .fil4 {fill:#FEFEFE}
    .fil0 {fill:black}
    .fil3 {fill:blue}
    .fil1 {fill:#2B2A29;fill-rule:nonzero}
    .fil2 {fill:#2B2A29;fill-rule:nonzero}
   ]]>
  </style>
 </defs>
 <g id="Layer_x0020_1">
  <metadata id="CorelCorpID_0Corel-Layer"/>
  <path class="fil0" d="M166 0c-91,0 -166,74 -166,166l0 3834c0,91 74,166 166,166l3834 0c91,0 166,-74 166,-166l0 -3834c0,-91 -74,-166 -166,-166l-3834 0zm0 71c-52,0 -95,42 -95,95l0 3834c0,52 42,95 95,95l3834 0c52,0 95,-42 95,-95l0 -3834c0,-52 -42,-95 -95,-95l-3834 0z"/>
  <g id="_836214544">
   <g>
    <polygon class="fil1" points="1040,3876 1040,3800 1316,3352 1051,3352 1051,3271 1429,3271 1429,3341 1154,3790 1429,3790 1429,3876 "/>
    <path id="1" class="fil2" d="M1041 3800l0 75 -2 0 0 -75 0 0 2 0zm-2 0l0 0 0 0 0 0zm277 -448l-276 448 -1 -1 276 -448 1 0 1 1zm-1 -1l1 0 -1 1 -1 -1zm-265 0l265 0 0 2 -265 0 -1 -1 1 -1zm0 2l-1 0 0 -1 1 1zm1 -82l0 81 -2 0 0 -81 1 -1 1 1zm-2 0l0 -1 1 0 -1 1zm379 1l-378 0 0 -2 378 0 1 1 -1 1zm0 -2l1 0 0 1 -1 -1zm-1 71l0 -70 2 0 0 70 0 0 -2 0zm2 0l0 0 0 0 0 0zm-277 448l275 -449 1 1 -275 449 -1 0 -1 -1zm1 1l-1 0 1 -1 1 1zm275 0l-275 0 0 -2 275 0 1 1 -1 1zm0 -2l1 0 0 1 -1 -1zm-1 87l0 -86 2 0 0 86 -1 1 -1 -1zm2 0l0 1 -1 0 1 -1zm-390 -1l389 0 0 2 -389 0 -1 -1 1 -1zm0 2l-1 0 0 -1 1 1z"/>
   </g>
   <g>
    <path class="fil1" d="M1516 3665l0 -184c0,-119 97,-216 216,-216 119,0 216,97 216,216l0 184c0,120 -97,216 -216,216 -120,0 -216,-97 -216,-216zm92 0c0,69 55,124 124,124 68,0 124,-55 124,-124l0 -184c0,-68 -55,-124 -124,-124 -69,0 -124,56 -124,124l0 184z"/>
    <path id="1" class="fil2" d="M1517 3481l0 184 -2 0 0 -184 0 0 2 0zm215 -217l0 2 0 0 -11 0 -11 1 -11 1 -11 2 -10 2 -10 3 -10 3 -10 4 -10 4 -9 5 -9 5 -9 6 -8 6 -8 6 -8 7 -7 7 -7 7 -7 8 -6 8 -6 8 -6 9 -5 9 -5 9 -4 10 -4 10 -3 10 -3 10 -2 10 -2 11 -1 11 -1 11 0 11 -2 0 0 -11 1 -11 1 -11 2 -11 2 -10 3 -10 3 -10 4 -10 4 -10 5 -9 5 -9 6 -9 6 -8 6 -8 7 -8 7 -8 8 -7 8 -7 8 -6 9 -6 9 -6 9 -5 9 -5 10 -4 10 -4 10 -3 10 -3 11 -2 11 -2 11 -1 11 -1 11 0 0 0zm217 217l-2 0 0 0 0 -11 -1 -11 -1 -11 -2 -11 -2 -10 -3 -10 -3 -10 -4 -10 -4 -10 -5 -9 -5 -9 -6 -9 -6 -8 -6 -8 -7 -8 -7 -7 -7 -7 -8 -7 -8 -6 -8 -6 -9 -6 -9 -5 -9 -5 -10 -4 -10 -4 -10 -3 -10 -3 -10 -2 -11 -2 -11 -1 -11 -1 -11 0 0 -2 11 0 11 1 11 1 11 2 10 2 10 3 10 3 10 4 10 4 9 5 9 5 9 6 8 6 8 6 8 7 8 7 7 8 7 8 6 8 6 8 6 9 5 9 5 9 4 10 4 10 3 10 3 10 2 10 2 11 1 11 1 11 0 11 0 0zm-2 184l0 -184 2 0 0 184 0 0 -2 0zm-215 217l0 -2 0 0 11 0 11 -1 11 -1 11 -2 10 -2 10 -3 10 -3 10 -4 10 -4 9 -5 9 -5 9 -6 8 -6 8 -6 8 -7 7 -7 7 -7 7 -8 6 -8 6 -8 6 -9 5 -9 5 -9 4 -10 4 -10 3 -10 3 -10 2 -10 2 -11 1 -11 1 -11 0 -11 2 0 0 11 -1 11 -1 11 -2 11 -2 11 -3 10 -3 10 -4 10 -4 10 -5 9 -5 9 -6 9 -6 8 -6 8 -7 8 -7 8 -8 7 -8 7 -8 6 -8 6 -9 6 -9 5 -9 5 -10 4 -10 4 -10 3 -10 3 -10 2 -11 2 -11 1 -11 1 -11 0 0 0zm-217 -217l2 0 0 0 0 11 1 11 1 11 2 11 2 10 3 10 3 10 4 10 4 10 5 9 5 9 6 9 6 8 6 8 7 8 7 7 7 7 8 7 8 6 8 6 9 6 9 5 9 5 10 4 10 4 10 3 10 3 10 2 11 2 11 1 11 1 11 0 0 2 -11 0 -11 -1 -11 -1 -11 -2 -11 -2 -10 -3 -10 -3 -10 -4 -10 -4 -9 -5 -9 -5 -9 -6 -9 -6 -8 -6 -8 -7 -8 -7 -7 -8 -7 -8 -6 -8 -6 -8 -6 -9 -5 -9 -5 -9 -4 -10 -4 -10 -3 -10 -3 -10 -2 -11 -2 -11 -1 -11 -1 -11 0 -11 0 0zm217 124l0 2 0 0 -6 0 -6 0 -6 -1 -6 -1 -6 -1 -6 -2 -6 -2 -6 -2 -6 -3 -5 -3 -5 -3 -5 -3 -5 -3 -5 -4 -5 -4 -4 -4 -4 -4 -4 -5 -4 -5 -3 -5 -3 -5 -3 -5 -3 -5 -2 -6 -2 -6 -2 -6 -2 -6 -1 -6 -1 -6 -1 -6 0 -6 0 -6 2 0 0 6 0 6 1 6 1 6 1 6 2 6 2 6 2 6 2 5 3 5 3 5 3 5 3 5 4 5 4 4 4 4 4 4 4 4 5 4 5 3 5 3 5 3 5 3 5 2 6 2 6 2 6 2 6 1 6 1 6 1 6 0 6 0 0 0zm123 -124l2 0 0 0 0 6 0 6 -1 6 -1 6 -1 6 -2 6 -2 6 -2 6 -2 6 -3 5 -3 5 -3 5 -3 5 -4 5 -4 5 -4 4 -4 4 -5 4 -5 4 -5 3 -5 3 -5 3 -5 3 -6 3 -6 2 -6 2 -6 2 -6 1 -6 1 -6 1 -6 0 -6 0 0 -2 6 0 6 0 6 -1 6 -1 6 -1 6 -2 6 -2 6 -2 5 -2 5 -3 5 -3 5 -3 5 -3 5 -4 4 -4 4 -4 4 -4 4 -4 4 -5 3 -5 3 -5 3 -5 3 -5 2 -5 2 -6 2 -6 2 -6 1 -6 1 -6 1 -6 0 -6 0 -6 0 0zm2 -184l0 184 -2 0 0 -184 0 0 2 0zm-125 -123l0 -2 0 0 6 0 6 0 6 1 6 1 6 1 6 2 6 2 6 2 6 3 5 3 5 3 5 3 5 3 5 4 5 4 4 4 4 4 4 5 4 5 3 5 3 5 3 5 3 5 2 6 2 6 2 6 2 6 1 6 1 6 1 6 0 6 0 6 -2 0 0 -6 0 -6 -1 -6 -1 -6 -1 -6 -2 -6 -2 -6 -2 -6 -2 -5 -3 -5 -3 -5 -3 -5 -3 -5 -4 -5 -4 -4 -4 -4 -4 -4 -4 -4 -5 -4 -5 -3 -5 -3 -5 -3 -5 -3 -5 -2 -6 -2 -6 -2 -6 -2 -6 -1 -6 -1 -6 -1 -6 0 -6 0 0 0zm-124 123l-2 0 0 0 0 -6 0 -6 1 -6 1 -6 1 -6 2 -6 2 -6 2 -6 2 -6 3 -5 3 -5 3 -5 3 -5 4 -5 4 -5 4 -4 4 -4 5 -4 5 -4 5 -3 5 -3 5 -3 5 -3 6 -3 6 -2 6 -2 6 -2 6 -1 6 -1 6 -1 6 0 6 0 0 2 -6 0 -6 0 -6 1 -6 1 -6 1 -6 2 -6 2 -6 2 -5 2 -5 3 -5 3 -5 3 -5 3 -5 4 -4 4 -4 4 -4 4 -4 4 -4 5 -3 5 -3 5 -3 5 -3 5 -2 5 -2 6 -2 6 -2 6 -1 6 -1 6 -1 6 0 6 0 6 0 0zm-2 184l0 -184 2 0 0 184 0 0 -2 0z"/>
   </g>
   <g>
    <polygon class="fil1" points="2067,3876 2067,3271 2153,3271 2429,3703 2429,3271 2521,3271 2521,3876 2434,3876 2158,3444 2158,3876 "/>
    <path id="1" class="fil2" d="M2067 3271l0 605 -2 0 0 -605 1 -1 1 1zm-2 0l0 -1 1 0 -1 1zm87 1l-86 0 0 -2 86 0 1 0 -1 1zm0 -2l0 0 0 0 -1 0zm275 434l-276 -432 1 -1 276 432 0 0 -2 0zm2 0l0 3 -2 -2 2 0zm0 -432l0 432 -2 0 0 -432 1 -1 1 1zm-2 0l0 -1 1 0 -1 1zm93 1l-92 0 0 -2 92 0 1 1 -1 1zm0 -2l1 0 0 1 -1 -1zm-1 606l0 -605 2 0 0 605 -1 1 -1 -1zm2 0l0 1 -1 0 1 -1zm-87 -1l86 0 0 2 -86 0 -1 0 1 -1zm0 2l0 0 0 0 1 0zm-275 -433l276 432 -1 1 -276 -432 0 0 2 0zm-2 0l0 -3 2 2 -2 0zm0 432l0 -432 2 0 0 432 -1 1 -1 -1zm2 0l0 1 -1 0 1 -1zm-93 -1l92 0 0 2 -92 0 -1 -1 1 -1zm0 2l-1 0 0 -1 1 1z"/>
   </g>
   <g>
    <path class="fil1" d="M2607 3876l222 -605 76 0 221 605 -97 0 -45 -135 -233 0 -46 135 -97 0zm170 -216l179 0 -89 -265 -90 265z"/>
    <path id="1" class="fil2" d="M2829 3271l-222 605 -2 -1 222 -605 1 -1 1 1zm-2 -1l0 -1 1 0 -1 1zm76 1l-76 0 0 -2 76 0 1 1 -1 1zm0 -2l1 0 0 1 -1 -1zm220 606l-221 -605 2 -1 221 605 -1 1 -1 -1zm2 -1l0 1 -1 0 1 -1zm-98 -1l97 0 0 2 -97 0 -1 -1 1 -1zm0 2l-1 0 0 -1 1 1zm-45 -136l45 135 -2 1 -45 -135 1 -1 1 1zm-1 -1l1 0 0 1 -1 -1zm-233 0l233 0 0 2 -233 0 -1 -1 1 -1zm-1 1l0 -1 1 0 -1 1zm-46 135l46 -135 2 1 -46 135 -1 1 -1 -1zm2 1l0 1 -1 0 1 -1zm-98 -1l97 0 0 2 -97 0 -1 -1 1 -1zm0 2l-1 0 0 -1 1 1zm349 -216l-179 0 0 -2 179 0 1 1 -1 1zm1 -1l0 1 -1 0 1 -1zm-89 -265l89 265 -2 1 -89 -265 0 -1 2 0zm-2 0l1 -2 1 2 -2 0zm-90 265l90 -265 2 1 -90 265 -1 1 -1 -1zm1 1l-1 0 0 -1 1 1z"/>
   </g>
  </g>
  <g>
   <polygon class="fil3" points="2083,326 2149,327 2215,333 2280,341 2344,352 2407,367 2469,384 2529,405 2588,428 2646,454 2702,483 2757,515 2810,549 2861,585 2910,624 2957,665 3002,708 3045,753 3086,800 3125,849 3161,901 3195,953 3227,1008 3256,1064 3282,1122 3305,1181 3326,1241 3343,1303 3358,1366 3369,1430 3378,1495 3383,1561 3384,1627 3383,1694 3378,1760 3369,1825 3358,1889 3343,1952 3326,2014 3305,2074 3282,2133 3256,2191 3227,2247 3195,2302 3161,2354 3125,2405 3086,2455 3045,2502 3002,2547 2957,2590 2910,2631 2861,2670 2810,2706 2757,2740 2702,2772 2646,2800 2588,2827 2529,2850 2469,2870 2407,2888 2344,2903 2280,2914 2215,2922 2149,2927 2083,2929 2016,2927 1950,2922 1885,2914 1821,2903 1758,2888 1696,2870 1636,2850 1577,2827 1519,2800 1463,2772 1409,2740 1356,2706 1305,2670 1255,2631 1208,2590 1163,2547 1120,2502 1079,2455 1040,2405 1004,2354 970,2302 938,2247 910,2191 883,2133 860,2074 840,2014 822,1952 807,1889 796,1825 788,1760 783,1694 781,1627 783,1561 788,1495 796,1430 807,1366 822,1303 840,1241 860,1181 883,1122 910,1064 938,1008 970,953 1004,901 1040,849 1079,800 1120,753 1163,708 1208,665 1255,624 1305,585 1356,549 1409,515 1463,483 1519,454 1577,428 1636,405 1696,384 1758,367 1821,352 1885,341 1950,333 2016,327 "/>
   <g>
    <path class="fil4" d="M2108 953c-77,3 -144,-58 -151,-134 -3,-74 58,-157 152,-149 92,5 136,83 132,150 -1,67 -61,130 -133,133z"/>
    <path class="fil4" d="M1598 2556c-44,-24 -60,-65 -46,-118l197 -462 317 -371 -65 -354 -307 360c-34,34 -77,31 -110,5 -26,-20 -33,-69 -10,-100l421 -495 234 -40 387 257 0 314c-4,39 -36,67 -71,69 -43,0 -71,-25 -77,-68l0 -227 -135 -88 -41 400 -394 464 -175 407c-18,39 -66,73 -127,47z"/>
    <path class="fil4" d="M2438 2503l-263 -659 138 -161 300 756c13,45 -3,89 -52,118 -28,13 -99,12 -123,-54z"/>
   </g>
  </g>
 </g>
</svg>
