<?xml version="1.0" encoding="UTF-8"?>
<!DOCTYPE svg PUBLIC "-//W3C//DTD SVG 1.1//EN" "http://www.w3.org/Graphics/SVG/1.1/DTD/svg11.dtd">
<!-- Creator: CorelDRAW X6 -->
<svg xmlns="http://www.w3.org/2000/svg" xml:space="preserve" width="47.6283mm" height="47.6283mm" version="1.1" style="shape-rendering:geometricPrecision; text-rendering:geometricPrecision; image-rendering:optimizeQuality; fill-rule:evenodd; clip-rule:evenodd"
viewBox="0 0 1204 1204"
 xmlns:xlink="http://www.w3.org/1999/xlink">
 <defs>
  <style type="text/css">
   <![CDATA[
    .str0 {stroke:#2B2A29;stroke-width:0.103629}
    .fil3 {fill:#2B2A29}
    .fil1 {fill:#FEFEFE}
    .fil0 {fill:#CCCCCC}
    .fil2 {fill:#2B2A29;fill-rule:nonzero}
   ]]>
  </style>
 </defs>
 <g id="Layer_x0020_1">
  <metadata id="CorelCorpID_0Corel-Layer"/>
  <polygon class="fil0" points="602,94 621,95 640,96 659,99 678,102 696,106 714,111 731,117 748,124 765,131 781,140 797,149 812,159 827,169 841,180 855,192 868,205 880,218 892,231 903,246 914,260 923,276 933,291 941,308 948,324 955,341 961,359 966,377 970,395 974,413 976,432 978,451 978,470 978,490 976,509 974,528 970,546 966,564 961,582 955,599 948,617 941,633 933,649 923,665 914,680 903,695 892,709 880,723 868,736 855,749 841,760 827,772 812,782 797,792 781,801 765,809 748,817 731,824 714,830 696,835 678,839 659,842 640,845 621,846 602,847 583,846 564,845 545,842 526,839 508,835 490,830 473,824 456,817 439,809 423,801 407,792 392,782 377,772 363,760 349,749 336,736 324,723 312,709 301,695 290,680 280,665 271,649 263,633 255,617 249,599 243,582 238,564 233,546 230,528 228,509 226,490 226,470 226,451 228,432 230,413 233,395 238,377 243,359 249,341 255,324 263,308 271,291 280,276 290,260 301,246 312,231 324,218 336,205 349,192 363,180 377,169 392,159 407,149 423,140 439,131 456,124 473,117 490,111 508,106 526,102 545,99 564,96 583,95 "/>
  <g id="_909564912">
   <path class="fil1" d="M609 276c-22,1 -42,-17 -44,-39 -1,-21 17,-45 44,-43 27,1 39,24 38,43 0,19 -18,37 -38,38z"/>
   <path class="fil1" d="M462 739c-13,-7 -17,-19 -13,-34l57 -133 92 -107 -19 -102 -89 104c-10,10 -22,9 -32,1 -7,-6 -10,-20 -3,-29l122 -143 68 -12 112 74 0 91c-1,11 -10,20 -21,20 -12,0 -20,-7 -22,-20l0 -66 -39 -26 -12 116 -114 134 -51 118c-5,11 -19,21 -37,14z"/>
   <path class="fil1" d="M705 723l-76 -190 40 -47 87 218c4,13 -1,26 -15,34 -8,4 -29,4 -36,-16z"/>
  </g>
  <g id="_909567504">
   <polygon class="fil2" points="301,1120 301,1098 380,969 304,969 304,945 413,945 413,966 334,1095 413,1095 413,1120 "/>
   <path class="fil2" d="M438 1059l0 -53c0,-34 28,-62 63,-62 34,0 62,28 62,62l0 53c0,35 -28,62 -62,62 -35,0 -63,-28 -63,-62zm27 0c0,20 16,36 36,36 20,0 36,-16 36,-36l0 -53c0,-20 -16,-36 -36,-36 -20,0 -36,16 -36,36l0 53z"/>
   <polygon class="fil2" points="597,1120 597,945 622,945 702,1070 702,945 728,945 728,1120 704,1120 624,995 624,1120 "/>
   <path class="fil2" d="M753 1120l64 -175 22 0 64 175 -28 0 -13 -39 -67 0 -13 39 -28 0zm49 -62l52 0 -26 -76 -26 76z"/>
  </g>
  <path class="fil3 str0" d="M48 0c-26,0 -48,21 -48,48l0 1108c0,26 21,48 48,48l1108 0c26,0 48,-21 48,-48l0 -1108c0,-26 -21,-48 -48,-48l-1108 0zm0 21c-15,0 -27,12 -27,27l0 987 1014 -1014 -987 0zm-27 1073l0 58 1131 -1131 -58 0 -1073 1073zm27 90c0,0 0,0 1,0l58 0 1078 -1078 0 -58c0,0 0,0 0,-1l-1136 1136zm117 0l992 0c15,0 27,-12 27,-27l0 -992 -1019 1019z"/>
 </g>
</svg>
