<?xml version="1.0" encoding="UTF-8"?>
<!DOCTYPE svg PUBLIC "-//W3C//DTD SVG 1.1//EN" "http://www.w3.org/Graphics/SVG/1.1/DTD/svg11.dtd">
<!-- Creator: CorelDRAW X6 -->
<svg xmlns="http://www.w3.org/2000/svg" xml:space="preserve" width="47.4004mm" height="47.4004mm" version="1.1" style="shape-rendering:geometricPrecision; text-rendering:geometricPrecision; image-rendering:optimizeQuality; fill-rule:evenodd; clip-rule:evenodd"
viewBox="0 0 1835 1835"
 xmlns:xlink="http://www.w3.org/1999/xlink">
 <defs>
  <style type="text/css">
   <![CDATA[
    .str0 {stroke:#2B2A29;stroke-width:0.158753}
    .fil0 {fill:black}
    .fil3 {fill:blue}
    .fil4 {fill:white}
    .fil1 {fill:#2B2A29;fill-rule:nonzero}
    .fil2 {fill:#2B2A29;fill-rule:nonzero}
   ]]>
  </style>
 </defs>
 <g id="Layer_x0020_1">
  <metadata id="CorelCorpID_0Corel-Layer"/>
  <path class="fil0 str0" d="M73 0c-40,0 -73,33 -73,73l0 1689c0,40 33,73 73,73l1689 0c40,0 73,-33 73,-73l0 -1689c0,-40 -33,-73 -73,-73l-1689 0zm0 31c-23,0 -42,19 -42,42l0 1689c0,23 19,42 42,42l1689 0c23,0 42,-19 42,-42l0 -1689c0,-23 -19,-42 -42,-42l-1689 0z"/>
  <g id="_836255088">
   <g>
    <polygon class="fil1" points="458,1708 458,1675 580,1477 463,1477 463,1441 630,1441 630,1472 509,1670 630,1670 630,1708 "/>
    <path id="1" class="fil2" d="M459 1675l0 33 -1 0 0 -33 0 0 1 0zm-1 0l0 0 0 0 0 0zm122 -197l-122 197 -1 0 122 -197 0 0 0 1zm0 -1l1 0 0 1 0 -1zm-117 0l117 0 0 1 -117 0 0 0 0 0zm0 1l0 0 0 0 0 0zm0 -36l0 36 -1 0 0 -36 0 0 0 0zm-1 0l0 0 0 0 0 0zm167 0l-167 0 0 -1 167 0 0 0 0 0zm0 -1l0 0 0 0 0 0zm0 31l0 -31 1 0 0 31 0 0 -1 0zm1 0l0 0 0 0 0 0zm-122 197l121 -198 1 0 -121 198 0 0 0 -1zm0 1l-1 0 0 -1 0 1zm121 0l-121 0 0 -1 121 0 0 0 0 0zm0 -1l0 0 0 0 0 0zm0 38l0 -38 1 0 0 38 0 0 0 0zm1 0l0 0 0 0 0 0zm-172 0l171 0 0 1 -171 0 0 0 0 0zm0 1l0 0 0 0 0 0z"/>
   </g>
   <g>
    <path class="fil1" d="M668 1615l0 -81c0,-52 43,-95 95,-95 52,0 95,43 95,95l0 81c0,53 -43,95 -95,95 -53,0 -95,-43 -95,-95zm41 0c0,30 24,55 55,55 30,0 55,-24 55,-55l0 -81c0,-30 -24,-55 -55,-55 -30,0 -55,25 -55,55l0 81z"/>
    <path id="1" class="fil2" d="M668 1534l0 81 -1 0 0 -81 0 0 1 0zm95 -95l0 1 0 0 -5 0 -5 0 -5 1 -5 1 -5 1 -5 1 -4 1 -4 2 -4 2 -4 2 -4 2 -4 2 -4 3 -4 3 -3 3 -3 3 -3 3 -3 3 -3 4 -3 4 -2 4 -2 4 -2 4 -2 4 -2 4 -1 4 -1 4 -1 5 -1 5 -1 5 0 5 0 5 -1 0 0 -5 0 -5 1 -5 1 -5 1 -5 1 -5 2 -4 2 -4 2 -4 2 -4 2 -4 2 -4 3 -4 3 -4 3 -3 3 -3 3 -3 3 -3 4 -3 4 -3 4 -2 4 -2 4 -2 4 -2 4 -2 4 -2 5 -1 5 -1 5 -1 5 -1 5 0 5 0 0 0zm95 95l-1 0 0 0 0 -5 0 -5 -1 -5 -1 -5 -1 -5 -1 -4 -1 -4 -2 -4 -2 -4 -2 -4 -2 -4 -2 -4 -3 -4 -3 -4 -3 -3 -3 -3 -3 -3 -3 -3 -4 -3 -4 -3 -4 -2 -4 -2 -4 -2 -4 -2 -4 -2 -4 -1 -4 -1 -5 -1 -5 -1 -5 -1 -5 0 -5 0 0 -1 5 0 5 0 5 1 5 1 5 1 5 1 4 2 4 2 4 2 4 2 4 2 4 2 4 3 4 3 3 3 3 3 3 3 3 3 3 4 3 4 2 4 2 4 2 4 2 4 2 4 2 4 1 5 1 5 1 5 1 5 0 5 0 5 0 0zm-1 81l0 -81 1 0 0 81 0 0 -1 0zm-95 96l0 -1 0 0 5 0 5 0 5 -1 5 -1 5 -1 4 -1 4 -1 4 -2 4 -2 4 -2 4 -2 4 -2 4 -3 4 -3 3 -3 3 -3 3 -3 3 -3 3 -4 3 -4 2 -4 2 -4 2 -4 2 -4 2 -4 1 -4 1 -5 1 -5 1 -5 1 -5 0 -5 0 -5 1 0 0 5 0 5 -1 5 -1 5 -1 5 -1 5 -2 4 -2 4 -2 4 -2 4 -2 4 -2 4 -3 4 -3 4 -3 3 -3 3 -3 3 -3 3 -4 3 -4 3 -4 2 -4 2 -4 2 -4 2 -4 2 -4 2 -5 1 -5 1 -5 1 -5 1 -5 0 -5 0 0 0zm-96 -96l1 0 0 0 0 5 0 5 1 5 1 5 1 5 1 5 1 4 2 4 2 4 2 4 2 4 2 4 3 4 3 4 3 3 3 3 3 3 3 3 4 3 4 3 4 2 4 2 4 2 4 2 4 2 4 1 5 1 5 1 5 1 5 1 5 0 5 0 0 1 -5 0 -5 0 -5 -1 -5 -1 -5 -1 -5 -1 -4 -2 -4 -2 -4 -2 -4 -2 -4 -2 -4 -2 -4 -3 -4 -3 -3 -3 -3 -3 -3 -3 -3 -3 -3 -4 -3 -4 -2 -4 -2 -4 -2 -4 -2 -4 -2 -4 -2 -4 -1 -5 -1 -5 -1 -5 -1 -5 0 -5 0 -5 0 0zm96 54l0 1 0 0 -3 0 -3 0 -3 0 -3 0 -3 -1 -3 -1 -3 -1 -3 -1 -2 -1 -2 -1 -2 -1 -2 -1 -2 -2 -2 -2 -2 -2 -2 -2 -2 -2 -2 -2 -2 -2 -2 -2 -1 -2 -1 -2 -1 -2 -1 -2 -1 -3 -1 -3 -1 -3 -1 -3 0 -3 0 -3 0 -3 0 -3 1 0 0 3 0 3 0 3 0 3 1 3 1 3 1 3 1 2 1 2 1 2 1 2 1 2 2 2 2 2 2 2 2 2 2 2 2 2 2 2 2 2 2 1 2 1 2 1 2 1 2 1 3 1 3 1 3 1 3 0 3 0 3 0 3 0 0 0zm54 -54l1 0 0 0 0 3 0 3 0 3 0 3 -1 3 -1 3 -1 3 -1 3 -1 2 -1 2 -1 2 -1 2 -2 2 -2 2 -2 2 -2 2 -2 2 -2 2 -2 2 -2 2 -2 1 -2 1 -2 1 -2 1 -2 1 -3 1 -3 1 -3 1 -3 0 -3 0 -3 0 -3 0 0 -1 3 0 3 0 3 0 3 0 3 -1 3 -1 3 -1 2 -1 2 -1 2 -1 2 -1 2 -1 2 -2 2 -2 2 -2 2 -2 2 -2 2 -2 2 -2 2 -2 1 -2 1 -2 1 -2 1 -2 1 -2 1 -3 1 -3 1 -3 0 -3 0 -3 0 -3 0 -3 0 0zm1 -81l0 81 -1 0 0 -81 0 0 1 0zm-55 -54l0 -1 0 0 3 0 3 0 3 0 3 0 3 1 3 1 3 1 2 1 2 1 2 1 2 1 2 1 2 2 2 2 2 2 2 2 2 2 2 2 2 2 2 2 1 2 1 2 1 2 1 2 1 2 1 3 1 3 1 3 0 3 0 3 0 3 0 3 -1 0 0 -3 0 -3 0 -3 0 -3 -1 -3 -1 -3 -1 -3 -1 -2 -1 -2 -1 -2 -1 -2 -1 -2 -2 -2 -2 -2 -2 -2 -2 -2 -2 -2 -2 -2 -2 -2 -2 -2 -2 -1 -2 -1 -2 -1 -2 -1 -2 -1 -3 -1 -3 -1 -3 -1 -3 0 -3 0 -3 0 -3 0 0 0zm-54 54l-1 0 0 0 0 -3 0 -3 0 -3 0 -3 1 -3 1 -3 1 -3 1 -2 1 -2 1 -2 1 -2 1 -2 2 -2 2 -2 2 -2 2 -2 2 -2 2 -2 2 -2 2 -2 2 -1 2 -1 2 -1 2 -1 3 -1 3 -1 3 -1 3 -1 3 0 3 0 3 0 3 0 0 1 -3 0 -3 0 -3 0 -3 0 -3 1 -3 1 -3 1 -2 1 -2 1 -2 1 -2 1 -2 1 -2 2 -2 2 -2 2 -2 2 -2 2 -2 2 -2 2 -2 2 -1 2 -1 2 -1 2 -1 2 -1 2 -1 3 -1 3 -1 3 0 3 0 3 0 3 0 3 0 0zm-1 81l0 -81 1 0 0 81 0 0 -1 0z"/>
   </g>
   <g>
    <polygon class="fil1" points="911,1708 911,1441 949,1441 1070,1632 1070,1441 1111,1441 1111,1708 1073,1708 951,1518 951,1708 "/>
    <path id="1" class="fil2" d="M911 1441l0 267 -1 0 0 -267 0 0 0 0zm-1 0l0 0 0 0 0 0zm38 0l-38 0 0 -1 38 0 0 0 0 1zm0 -1l0 0 0 0 0 0zm121 191l-121 -190 1 0 121 190 0 0 -1 0zm1 0l0 1 -1 -1 1 0zm0 -190l0 190 -1 0 0 -190 0 0 0 0zm-1 0l0 0 0 0 0 0zm41 0l-41 0 0 -1 41 0 0 0 0 0zm0 -1l0 0 0 0 0 0zm0 267l0 -267 1 0 0 267 0 0 0 0zm1 0l0 0 0 0 0 0zm-38 0l38 0 0 1 -38 0 0 0 0 -1zm0 1l0 0 0 0 0 0zm-121 -191l122 190 -1 0 -122 -190 0 0 1 0zm-1 0l0 -1 1 1 -1 0zm0 190l0 -190 1 0 0 190 0 0 0 0zm1 0l0 0 0 0 0 0zm-41 0l40 0 0 1 -40 0 0 0 0 0zm0 1l0 0 0 0 0 0z"/>
   </g>
   <g>
    <path class="fil1" d="M1149 1708l98 -267 33 0 97 267 -43 0 -20 -59 -103 0 -20 59 -43 0zm75 -95l79 0 -39 -117 -39 117z"/>
    <path id="1" class="fil2" d="M1247 1441l-98 267 -1 0 98 -267 0 0 0 0zm-1 0l0 0 0 0 0 0zm34 0l-33 0 0 -1 33 0 0 0 0 0zm0 -1l0 0 0 0 0 0zm97 267l-97 -267 1 0 97 267 0 0 0 0zm1 0l0 0 -1 0 0 0zm-43 0l43 0 0 1 -43 0 0 0 0 0zm0 1l0 0 0 0 0 0zm-20 -60l20 59 -1 0 -20 -59 0 0 0 0zm0 0l0 0 0 0 0 0zm-103 0l103 0 0 1 -103 0 0 0 0 0zm0 0l0 0 0 0 0 0zm-20 59l20 -59 1 0 -20 59 0 0 0 0zm1 0l0 0 0 0 0 0zm-43 0l43 0 0 1 -43 0 0 0 0 0zm0 1l-1 0 0 0 0 0zm154 -95l-79 0 0 -1 79 0 0 0 0 0zm0 0l0 0 -1 0 0 0zm-39 -117l39 117 -1 0 -39 -117 0 0 1 0zm-1 0l0 -1 0 1 -1 0zm-39 117l39 -117 1 0 -39 117 0 0 0 0zm0 0l-1 0 0 0 0 0z"/>
   </g>
  </g>
  <g>
   <polygon class="fil3" points="1435,1291 1438,1290 1441,1290 1444,1289 1447,1289 1450,1288 1452,1287 1455,1286 1458,1285 1460,1283 1463,1282 1465,1281 1467,1279 1470,1277 1472,1275 1474,1273 1476,1271 1478,1269 1479,1267 1481,1264 1483,1262 1484,1260 1485,1257 1486,1254 1488,1252 1488,1249 1489,1246 1490,1243 1490,1241 1491,1238 1491,1235 1491,1231 1491,203 1491,200 1491,197 1490,194 1490,191 1489,188 1489,185 1488,183 1487,180 1485,177 1484,175 1483,172 1481,170 1479,168 1478,165 1476,163 1474,161 1472,159 1470,157 1467,155 1465,154 1463,152 1460,151 1458,150 1455,148 1452,147 1449,146 1447,146 1444,145 1441,144 1438,144 1435,144 1432,144 403,144 400,144 397,144 394,145 391,145 388,146 386,146 383,147 380,148 378,150 375,151 373,152 370,154 368,156 366,157 363,159 361,161 359,163 358,165 356,168 354,170 353,172 351,175 350,177 349,180 348,183 347,185 346,188 345,191 345,194 345,197 344,200 344,203 344,1231 344,1235 344,1238 345,1241 345,1244 346,1246 347,1249 348,1252 349,1255 350,1257 351,1260 353,1262 354,1265 356,1267 358,1269 360,1271 361,1273 364,1275 366,1277 368,1279 370,1281 373,1282 375,1284 378,1285 380,1286 383,1287 386,1288 388,1289 391,1289 394,1290 397,1290 400,1291 403,1291 1432,1291 "/>
   <path class="fil4" d="M665 1148l0 -861 338 0c144,0 261,117 261,261 0,144 -117,261 -261,261l-208 0 0 338 -131 0zm131 -461l200 0c76,0 138,-62 138,-138 0,-76 -62,-138 -138,-138l-200 0 0 277z"/>
  </g>
 </g>
</svg>
