<?xml version="1.0" encoding="UTF-8"?>
<!DOCTYPE svg PUBLIC "-//W3C//DTD SVG 1.1//EN" "http://www.w3.org/Graphics/SVG/1.1/DTD/svg11.dtd">
<!-- Creator: CorelDRAW X6 -->
<svg xmlns="http://www.w3.org/2000/svg" xml:space="preserve" width="47.6284mm" height="47.6283mm" version="1.1" style="shape-rendering:geometricPrecision; text-rendering:geometricPrecision; image-rendering:optimizeQuality; fill-rule:evenodd; clip-rule:evenodd"
viewBox="0 0 3401 3401"
 xmlns:xlink="http://www.w3.org/1999/xlink">
 <defs>
  <style type="text/css">
   <![CDATA[
    .str0 {stroke:#2B2A29;stroke-width:0.292727}
    .fil3 {fill:#2B2A29}
    .fil0 {fill:#CCCCCC}
    .fil1 {fill:white}
    .fil2 {fill:#2B2A29;fill-rule:nonzero}
   ]]>
  </style>
 </defs>
 <g id="Layer_x0020_1">
  <metadata id="CorelCorpID_0Corel-Layer"/>
  <polygon class="fil0" points="2659,2391 2665,2391 2670,2390 2675,2389 2681,2388 2686,2386 2691,2385 2696,2383 2701,2380 2705,2378 2710,2375 2714,2373 2719,2369 2723,2366 2727,2363 2731,2359 2734,2355 2738,2351 2741,2347 2744,2343 2747,2338 2750,2334 2752,2329 2754,2324 2756,2319 2758,2314 2759,2309 2761,2304 2762,2298 2762,2293 2763,2287 2763,2281 2763,376 2763,370 2762,365 2762,359 2761,354 2759,349 2758,343 2756,338 2754,333 2752,329 2750,324 2747,319 2744,315 2741,310 2738,306 2734,302 2731,298 2727,295 2723,291 2719,288 2714,285 2710,282 2705,279 2700,277 2696,275 2691,273 2686,271 2680,270 2675,268 2670,267 2664,267 2659,266 2653,266 747,266 741,267 736,267 730,268 725,269 719,270 714,271 709,273 704,275 699,277 695,280 690,282 686,285 682,288 677,291 673,295 670,298 666,302 663,306 659,310 656,315 654,319 651,324 649,328 646,333 644,338 643,343 641,348 640,354 639,359 638,365 638,370 638,376 638,2281 638,2288 638,2293 639,2299 640,2304 641,2309 643,2314 644,2319 646,2324 648,2329 651,2334 654,2339 656,2343 659,2347 663,2351 666,2355 670,2359 674,2363 678,2366 682,2370 686,2373 690,2375 695,2378 700,2380 705,2383 709,2385 715,2386 720,2388 725,2389 730,2390 736,2391 741,2391 747,2391 2654,2391 "/>
  <path class="fil1" d="M1232 2126l0 -1595 626 0c267,0 484,217 484,484 0,268 -217,484 -484,484l-384 0 0 626 -242 0zm242 -854l370 0c141,0 256,-115 256,-256 0,-141 -115,-256 -256,-256l-370 0 0 512z"/>
  <g id="_1159269344">
   <polygon class="fil2" points="849,3164 849,3103 1074,2737 858,2737 858,2670 1167,2670 1167,2728 942,3094 1167,3094 1167,3164 "/>
   <path class="fil2" d="M1237 2992l0 -150c0,-97 79,-176 177,-176 97,0 176,79 176,176l0 150c0,98 -79,176 -176,176 -98,0 -177,-79 -177,-176zm75 0c0,56 45,102 102,102 56,0 101,-45 101,-102l0 -150c0,-56 -45,-101 -101,-101 -56,0 -102,45 -102,101l0 150z"/>
   <polygon class="fil2" points="1687,3164 1687,2670 1758,2670 1983,3023 1983,2670 2058,2670 2058,3164 1987,3164 1762,2812 1762,3164 "/>
   <path class="fil2" d="M2128 3164l181 -494 62 0 180 494 -79 0 -37 -110 -190 0 -37 110 -79 0zm139 -176l146 0 -73 -216 -73 216z"/>
  </g>
  <path class="fil3 str0" d="M135 0c-75,0 -135,61 -135,135l0 3130c0,75 61,135 135,135l3130 0c75,0 135,-61 135,-135l0 -3130c0,-75 -61,-135 -135,-135l-3130 0zm0 58c-43,0 -77,35 -77,77l0 2788 2866 -2866 -2788 0zm-77 3030l0 165 3195 -3195 -165 0 -3030 3030zm75 254c1,0 1,0 2,0l163 0 3044 -3044 0 -163c0,-1 0,-1 0,-2l-3209 3209zm329 0l2803 0c43,0 77,-35 77,-77l0 -2803 -2880 2880z"/>
 </g>
</svg>
