<?xml version="1.0" encoding="UTF-8"?>
<!DOCTYPE svg PUBLIC "-//W3C//DTD SVG 1.1//EN" "http://www.w3.org/Graphics/SVG/1.1/DTD/svg11.dtd">
<!-- Creator: CorelDRAW X6 -->
<svg xmlns="http://www.w3.org/2000/svg" xml:space="preserve" width="35.2139mm" height="35.2139mm" version="1.1" style="shape-rendering:geometricPrecision; text-rendering:geometricPrecision; image-rendering:optimizeQuality; fill-rule:evenodd; clip-rule:evenodd"
viewBox="0 0 1121 1121"
 xmlns:xlink="http://www.w3.org/1999/xlink">
 <defs>
  <style type="text/css">
   <![CDATA[
    .fil2 {fill:#212220}
    .fil1 {fill:#FEFEFE}
    .fil0 {fill:blue}
   ]]>
  </style>
 </defs>
 <g id="Layer_x0020_1">
  <metadata id="CorelCorpID_0Corel-Layer"/>
  <polygon class="fil0" points="1121,1054 1121,1057 1121,1061 1121,1064 1120,1067 1119,1071 1118,1074 1117,1077 1116,1080 1115,1083 1113,1086 1112,1089 1110,1092 1108,1094 1106,1097 1104,1099 1102,1102 1099,1104 1097,1106 1094,1108 1092,1110 1089,1112 1086,1113 1083,1115 1080,1116 1077,1117 1074,1118 1071,1119 1067,1120 1064,1121 1061,1121 1057,1121 1054,1121 68,1121 64,1121 61,1121 57,1121 54,1120 51,1119 48,1118 44,1117 41,1116 38,1115 35,1113 33,1112 30,1110 27,1108 25,1106 22,1104 20,1102 18,1099 15,1097 13,1094 12,1092 10,1089 8,1086 7,1083 5,1080 4,1077 3,1074 2,1071 1,1067 1,1064 0,1061 0,1057 0,1054 0,68 0,64 0,61 1,57 1,54 2,51 3,48 4,44 5,41 7,38 8,35 10,33 12,30 13,27 15,25 18,22 20,20 22,18 25,15 27,13 30,12 33,10 35,8 38,7 41,5 44,4 48,3 51,2 54,1 57,1 61,0 64,0 68,0 1054,0 1057,0 1061,0 1064,1 1067,1 1071,2 1074,3 1077,4 1080,5 1083,7 1086,8 1089,10 1092,12 1094,13 1097,15 1099,18 1102,20 1104,22 1106,25 1108,27 1110,30 1112,33 1113,35 1115,38 1116,41 1117,44 1118,48 1119,51 1120,54 1121,57 1121,61 1121,64 1121,68 "/>
  <polygon class="fil1" points="1056,931 66,931 563,66 "/>
  <g id="_989587904">
   <path class="fil2" d="M565 315c-23,1 -44,-18 -46,-40 -1,-22 17,-47 46,-45 28,1 41,25 40,45 0,20 -19,39 -40,40z"/>
   <path class="fil2" d="M411 862c-13,-7 -18,-20 -14,-36l60 -202 96 -112 -20 -107 -93 109c-10,10 -23,10 -33,2 -8,-6 -10,-21 -3,-30l127 -150 71 -12 117 78 0 95c-1,12 -11,20 -21,21 -13,0 -21,-8 -23,-21l0 -69 -41 -27 -12 121 -119 140 -53 186c-5,12 -20,22 -38,14z"/>
   <path class="fil2" d="M664 846l-80 -262 42 -49 91 291c4,14 -1,27 -16,36 -9,4 -30,4 -37,-16z"/>
   <polygon class="fil2" points="868,909 792,665 868,665 968,909 "/>
   <path class="fil2" d="M691 909l-6 -35c36,5 48,-24 46,-49l-40 -161 38 0 56 244 -94 0z"/>
   <polygon class="fil2" points="508,908 522,664 596,664 607,908 "/>
   <path class="fil2" d="M323 909l60 -244 44 0 -45 170c1,23 15,48 52,39l-7 35 -103 0z"/>
   <polygon class="fil2" points="154,909 257,665 326,665 247,909 "/>
  </g>
 </g>
</svg>
