<?xml version="1.0" encoding="UTF-8"?>
<!DOCTYPE svg PUBLIC "-//W3C//DTD SVG 1.1//EN" "http://www.w3.org/Graphics/SVG/1.1/DTD/svg11.dtd">
<!-- Creator: CorelDRAW X6 -->
<svg xmlns="http://www.w3.org/2000/svg" xml:space="preserve" width="35.2139mm" height="35.2139mm" version="1.1" style="shape-rendering:geometricPrecision; text-rendering:geometricPrecision; image-rendering:optimizeQuality; fill-rule:evenodd; clip-rule:evenodd"
viewBox="0 0 5849 5849"
 xmlns:xlink="http://www.w3.org/1999/xlink">
 <defs>
  <style type="text/css">
   <![CDATA[
    .fil2 {fill:#212220}
    .fil1 {fill:#FEFEFE}
    .fil0 {fill:blue}
   ]]>
  </style>
 </defs>
 <g id="Layer_x0020_1">
  <metadata id="CorelCorpID_0Corel-Layer"/>
  <polygon class="fil0" points="5849,5495 5849,5515 5847,5533 5845,5550 5842,5568 5838,5585 5833,5601 5828,5618 5822,5634 5815,5649 5807,5665 5798,5679 5789,5694 5779,5707 5769,5721 5758,5734 5746,5746 5734,5758 5721,5769 5708,5779 5694,5789 5679,5798 5665,5807 5649,5814 5634,5822 5618,5828 5601,5833 5585,5838 5568,5842 5550,5845 5533,5847 5515,5849 5495,5849 354,5849 334,5849 317,5847 299,5845 282,5842 265,5838 248,5833 231,5828 215,5822 200,5814 185,5807 170,5798 156,5789 142,5779 128,5769 116,5758 103,5746 92,5734 81,5721 70,5707 60,5694 51,5679 43,5665 35,5649 28,5634 21,5618 16,5601 11,5585 7,5568 4,5550 2,5533 0,5515 0,5495 0,354 0,334 2,317 4,299 7,282 11,265 16,248 21,231 28,215 35,200 43,185 51,170 60,156 70,142 81,128 92,116 103,103 116,92 128,81 142,70 156,60 170,51 185,43 200,35 215,28 231,21 248,16 265,11 282,7 299,4 317,2 334,0 354,0 5495,0 5515,0 5533,2 5550,4 5568,7 5585,11 5601,16 5618,21 5634,28 5649,35 5665,43 5679,51 5694,60 5708,70 5721,81 5734,92 5746,103 5758,116 5769,128 5779,142 5789,156 5798,170 5807,185 5815,200 5822,215 5828,231 5833,248 5838,265 5842,282 5845,299 5847,317 5849,334 5849,354 "/>
  <polygon class="fil1" points="5507,4854 342,4854 2936,343 "/>
  <g id="_989593024">
   <path class="fil2" d="M2904 1642c122,5 227,-91 238,-211 5,-116 -91,-247 -239,-235 -145,7 -214,131 -209,236 2,105 97,205 209,210z"/>
   <path class="fil2" d="M3708 4498c70,-38 96,-102 72,-187l-311 -1054 -499 -585 102 -559 483 568c54,54 121,50 173,8 41,-31 53,-109 17,-158l-663 -781 -369 -63 -611 405 -1 496c7,62 57,107 112,110 67,0 111,-39 121,-107l0 -358 213 -140 65 631 620 733 276 968c27,62 104,116 200,74z"/>
   <path class="fil2" d="M2384 4413l415 -1365 -218 -254 -473 1518c-21,71 5,140 83,186 45,21 155,19 194,-85z"/>
   <polygon class="fil2" points="1320,4739 1716,3467 1320,3467 802,4739 "/>
   <path class="fil2" d="M2247 4739l34 -181c-186,28 -251,-125 -238,-254l209 -839 -200 0 -293 1274 490 0z"/>
   <polygon class="fil2" points="3199,4738 3125,3466 2740,3466 2683,4737 "/>
   <path class="fil2" d="M4163 4739l-311 -1273 -227 -1 234 885c-5,121 -76,252 -270,205l35 184 540 0z"/>
   <polygon class="fil2" points="5047,4739 4508,3467 4148,3469 4560,4739 "/>
  </g>
 </g>
</svg>
