<?xml version="1.0" encoding="UTF-8"?>
<!DOCTYPE svg PUBLIC "-//W3C//DTD SVG 1.1//EN" "http://www.w3.org/Graphics/SVG/1.1/DTD/svg11.dtd">
<!-- Creator: CorelDRAW X6 -->
<svg xmlns="http://www.w3.org/2000/svg" xml:space="preserve" width="35.2139mm" height="35.2139mm" version="1.1" style="shape-rendering:geometricPrecision; text-rendering:geometricPrecision; image-rendering:optimizeQuality; fill-rule:evenodd; clip-rule:evenodd"
viewBox="0 0 1864 1864"
 xmlns:xlink="http://www.w3.org/1999/xlink">
 <defs>
  <style type="text/css">
   <![CDATA[
    .fil1 {fill:#FEFEFE}
    .fil0 {fill:blue}
   ]]>
  </style>
 </defs>
 <g id="Layer_x0020_1">
  <metadata id="CorelCorpID_0Corel-Layer"/>
  <polygon class="fil0" points="1864,1751 1864,1758 1864,1763 1863,1769 1862,1774 1861,1780 1859,1785 1857,1790 1855,1796 1853,1801 1851,1805 1848,1810 1845,1815 1842,1819 1839,1823 1835,1827 1831,1831 1827,1835 1823,1839 1819,1842 1815,1845 1810,1848 1805,1851 1801,1853 1796,1855 1790,1857 1785,1859 1780,1861 1774,1862 1769,1863 1763,1864 1758,1864 1751,1864 113,1864 107,1864 101,1864 95,1863 90,1862 84,1861 79,1859 74,1857 69,1855 64,1853 59,1851 54,1848 50,1845 45,1842 41,1839 37,1835 33,1831 29,1827 26,1823 22,1819 19,1815 16,1810 14,1805 11,1801 9,1796 7,1790 5,1785 4,1780 2,1774 1,1769 1,1763 0,1758 0,1751 0,113 0,107 1,101 1,95 2,90 4,84 5,79 7,74 9,69 11,64 14,59 16,54 19,50 22,45 26,41 29,37 33,33 37,29 41,26 45,22 50,19 54,16 59,14 64,11 69,9 74,7 79,5 84,4 90,2 95,1 101,1 107,0 113,0 1751,0 1758,0 1763,1 1769,1 1774,2 1780,4 1785,5 1790,7 1796,9 1801,11 1805,14 1810,16 1815,19 1819,22 1823,26 1827,29 1831,33 1835,37 1839,41 1842,45 1845,50 1848,54 1851,59 1853,64 1855,69 1857,74 1859,79 1861,84 1862,90 1863,95 1864,101 1864,107 1864,113 "/>
  <path class="fil1" d="M515 1608l0 -1406 552 0c236,0 427,191 427,427 0,236 -191,427 -427,427l-339 0 0 552 -213 0zm213 -753l326 0c125,0 226,-101 226,-226 0,-125 -101,-226 -226,-226l-326 0 0 452z"/>
 </g>
</svg>
