<?xml version="1.0" encoding="UTF-8"?>
<!DOCTYPE svg PUBLIC "-//W3C//DTD SVG 1.1//EN" "http://www.w3.org/Graphics/SVG/1.1/DTD/svg11.dtd">
<!-- Creator: CorelDRAW X6 -->
<svg xmlns="http://www.w3.org/2000/svg" xml:space="preserve" width="35.2359mm" height="35.2359mm" version="1.1" style="shape-rendering:geometricPrecision; text-rendering:geometricPrecision; image-rendering:optimizeQuality; fill-rule:evenodd; clip-rule:evenodd"
viewBox="0 0 797 797"
 xmlns:xlink="http://www.w3.org/1999/xlink">
 <defs>
  <style type="text/css">
   <![CDATA[
    .fil1 {fill:#FEFEFE}
    .fil0 {fill:blue}
    .fil2 {fill:red}
   ]]>
  </style>
 </defs>
 <g id="Layer_x0020_1">
  <metadata id="CorelCorpID_0Corel-Layer"/>
  <polygon class="fil0" points="797,749 797,751 797,754 796,756 796,758 795,761 795,763 794,765 793,767 792,770 791,772 790,774 789,776 787,778 786,779 784,781 783,783 781,784 779,786 778,787 776,789 774,790 772,791 770,792 767,793 765,794 763,795 761,795 758,796 756,796 754,797 751,797 749,797 48,797 46,797 43,797 41,796 39,796 36,795 34,795 32,794 30,793 27,792 25,791 23,790 21,789 20,787 18,786 16,784 14,783 13,781 11,779 10,778 8,776 7,774 6,772 5,770 4,767 3,765 2,763 2,761 1,758 1,756 1,754 0,751 0,749 0,48 0,46 1,43 1,41 1,39 2,36 2,34 3,32 4,30 5,27 6,25 7,23 8,21 10,20 11,18 13,16 14,14 16,13 18,11 20,10 21,8 23,7 25,6 27,5 30,4 32,3 34,2 36,2 39,1 41,1 43,1 46,0 48,0 749,0 751,0 754,1 756,1 758,1 761,2 763,2 765,3 767,4 770,5 772,6 774,7 776,8 778,10 779,11 781,13 783,14 784,16 786,18 787,20 789,21 790,23 791,25 792,27 793,30 794,32 795,34 795,36 796,39 796,41 797,43 797,46 797,48 "/>
  <path class="fil1" d="M220 687l0 -601 236 0c101,0 182,82 182,182 0,101 -82,182 -182,182l-145 0 0 236 -91 0zm91 -322l140 0c53,0 96,-43 96,-97 0,-53 -43,-96 -96,-96l-140 0 0 193z"/>
  <path class="fil2" d="M48 797c-33,0 -48,-27 -48,-47l0 -20 723 -730 29 0c24,0 46,22 46,46l0 23 -730 728 -19 0z"/>
 </g>
</svg>
