<?xml version="1.0" encoding="utf-8"?>
<!-- Generator: Adobe Illustrator 16.0.0, SVG Export Plug-In . SVG Version: 6.00 Build 0)  -->
<!DOCTYPE svg PUBLIC "-//W3C//DTD SVG 1.1//EN" "http://www.w3.org/Graphics/SVG/1.1/DTD/svg11.dtd">
<svg version="1.1" id="Layer_1" xmlns="http://www.w3.org/2000/svg" xmlns:xlink="http://www.w3.org/1999/xlink" x="0px" y="0px"
	 width="80.022px" height="80.022px" viewBox="0 0 80.022 80.022" enable-background="new 0 0 80.022 80.022" xml:space="preserve">
<polygon fill="none" stroke="#231F20" stroke-width="0.0216" stroke-miterlimit="22.9256" points="80.011,74.582 80.003,74.87 
	79.983,75.145 79.949,75.417 79.901,75.683 79.839,75.945 79.767,76.203 79.681,76.454 79.584,76.7 79.476,76.939 79.357,77.173 
	79.226,77.401 79.085,77.621 78.934,77.833 78.772,78.039 78.602,78.234 78.422,78.422 78.234,78.602 78.038,78.773 77.833,78.934 
	77.621,79.085 77.401,79.226 77.173,79.357 76.939,79.476 76.7,79.584 76.454,79.681 76.203,79.767 75.945,79.839 75.683,79.901 
	75.417,79.949 75.145,79.983 74.87,80.003 74.582,80.011 5.44,80.011 5.152,80.003 4.876,79.983 4.605,79.949 4.339,79.901 
	4.077,79.839 3.82,79.767 3.568,79.681 3.322,79.584 3.083,79.476 2.849,79.357 2.622,79.226 2.402,79.085 2.189,78.934 
	1.984,78.773 1.787,78.602 1.599,78.422 1.419,78.234 1.249,78.039 1.088,77.833 0.937,77.621 0.796,77.401 0.665,77.173 
	0.545,76.939 0.437,76.7 0.34,76.454 0.254,76.203 0.182,75.945 0.121,75.683 0.073,75.417 0.039,75.145 0.018,74.87 0.011,74.582 
	0.011,5.44 0.018,5.152 0.039,4.876 0.073,4.605 0.121,4.338 0.182,4.077 0.254,3.82 0.34,3.568 0.437,3.322 0.545,3.083 
	0.665,2.849 0.796,2.622 0.937,2.402 1.088,2.189 1.249,1.984 1.419,1.787 1.599,1.599 1.787,1.419 1.984,1.249 2.189,1.087 
	2.402,0.937 2.622,0.795 2.849,0.665 3.082,0.545 3.322,0.437 3.568,0.34 3.82,0.254 4.077,0.182 4.339,0.121 4.605,0.074 
	4.876,0.039 5.152,0.018 5.44,0.011 74.582,0.011 74.87,0.018 75.145,0.039 75.417,0.074 75.683,0.121 75.945,0.182 76.203,0.254 
	76.454,0.34 76.7,0.437 76.939,0.545 77.173,0.665 77.401,0.795 77.621,0.937 77.833,1.087 78.038,1.249 78.234,1.419 78.422,1.599 
	78.602,1.787 78.772,1.984 78.934,2.189 79.085,2.402 79.226,2.622 79.357,2.849 79.476,3.083 79.584,3.322 79.681,3.568 
	79.767,3.82 79.839,4.077 79.901,4.338 79.949,4.605 79.983,4.876 80.003,5.152 80.011,5.44 "/>
<polygon fill-rule="evenodd" clip-rule="evenodd" fill="#0001FE" points="78.733,74.062 78.726,74.321 78.708,74.558 78.678,74.792 
	78.637,75.022 78.585,75.248 78.523,75.468 78.45,75.684 78.366,75.897 78.273,76.103 78.169,76.304 78.056,76.5 77.935,76.689 
	77.805,76.873 77.667,77.049 77.519,77.219 77.365,77.382 77.202,77.537 77.033,77.684 76.855,77.823 76.671,77.953 76.482,78.074 
	76.287,78.187 76.085,78.291 75.879,78.383 75.667,78.467 75.451,78.54 75.23,78.603 75.004,78.655 74.774,78.696 74.541,78.725 
	74.303,78.744 74.044,78.75 5.96,78.75 5.702,78.744 5.464,78.725 5.23,78.696 5.001,78.655 4.775,78.603 4.554,78.54 4.337,78.467 
	4.126,78.383 3.919,78.291 3.718,78.187 3.522,78.074 3.333,77.953 3.15,77.823 2.973,77.684 2.804,77.537 2.641,77.382 
	2.486,77.219 2.339,77.049 2.2,76.873 2.07,76.689 1.948,76.5 1.835,76.304 1.732,76.103 1.639,75.897 1.556,75.684 1.482,75.468 
	1.419,75.248 1.368,75.022 1.326,74.792 1.297,74.558 1.279,74.321 1.272,74.062 1.272,5.978 1.279,5.719 1.297,5.482 1.326,5.248 
	1.368,5.018 1.419,4.792 1.482,4.572 1.556,4.355 1.639,4.143 1.732,3.937 1.835,3.736 1.948,3.54 2.07,3.351 2.2,3.167 
	2.339,2.991 2.486,2.82 2.641,2.658 2.804,2.503 2.973,2.356 3.15,2.217 3.333,2.087 3.522,1.965 3.718,1.853 3.919,1.75 
	4.126,1.657 4.338,1.573 4.554,1.5 4.775,1.437 5.001,1.385 5.23,1.344 5.464,1.314 5.702,1.296 5.96,1.29 74.044,1.29 
	74.303,1.296 74.541,1.314 74.774,1.344 75.004,1.385 75.23,1.437 75.451,1.5 75.667,1.573 75.879,1.657 76.085,1.75 76.287,1.853 
	76.482,1.965 76.671,2.087 76.855,2.217 77.033,2.356 77.202,2.503 77.365,2.658 77.519,2.82 77.667,2.991 77.805,3.167 
	77.935,3.351 78.056,3.54 78.169,3.736 78.273,3.937 78.366,4.143 78.45,4.355 78.523,4.572 78.585,4.792 78.637,5.018 
	78.678,5.248 78.708,5.482 78.726,5.719 78.733,5.978 "/>
<polygon fill="none" stroke="#231F20" stroke-width="0.0216" stroke-miterlimit="22.9256" points="78.733,74.062 78.726,74.321 
	78.708,74.558 78.678,74.792 78.637,75.022 78.585,75.248 78.523,75.468 78.45,75.684 78.366,75.897 78.273,76.103 78.169,76.304 
	78.056,76.5 77.935,76.689 77.805,76.873 77.667,77.049 77.519,77.219 77.365,77.382 77.202,77.537 77.033,77.684 76.855,77.823 
	76.671,77.953 76.482,78.074 76.287,78.187 76.085,78.291 75.879,78.383 75.667,78.467 75.451,78.54 75.23,78.603 75.004,78.655 
	74.774,78.696 74.541,78.725 74.303,78.744 74.044,78.75 5.96,78.75 5.702,78.744 5.464,78.725 5.23,78.696 5.001,78.655 
	4.775,78.603 4.554,78.54 4.337,78.467 4.126,78.383 3.919,78.291 3.718,78.187 3.522,78.074 3.333,77.953 3.15,77.823 
	2.973,77.684 2.804,77.537 2.641,77.382 2.486,77.219 2.339,77.049 2.2,76.873 2.07,76.689 1.948,76.5 1.835,76.304 1.732,76.103 
	1.639,75.897 1.556,75.684 1.482,75.468 1.419,75.248 1.368,75.022 1.326,74.792 1.297,74.558 1.279,74.321 1.272,74.062 
	1.272,5.978 1.279,5.719 1.297,5.482 1.326,5.248 1.368,5.018 1.419,4.792 1.482,4.572 1.556,4.355 1.639,4.143 1.732,3.937 
	1.835,3.736 1.948,3.54 2.07,3.351 2.2,3.167 2.339,2.991 2.486,2.82 2.641,2.658 2.804,2.503 2.973,2.356 3.15,2.217 3.333,2.087 
	3.522,1.965 3.718,1.853 3.919,1.75 4.126,1.657 4.338,1.573 4.554,1.5 4.775,1.437 5.001,1.385 5.23,1.344 5.464,1.314 
	5.702,1.296 5.96,1.29 74.044,1.29 74.303,1.296 74.541,1.314 74.774,1.344 75.004,1.385 75.23,1.437 75.451,1.5 75.667,1.573 
	75.879,1.657 76.085,1.75 76.287,1.853 76.482,1.965 76.671,2.087 76.855,2.217 77.033,2.356 77.202,2.503 77.365,2.658 
	77.519,2.82 77.667,2.991 77.805,3.167 77.935,3.351 78.056,3.54 78.169,3.736 78.273,3.937 78.366,4.143 78.45,4.355 78.523,4.572 
	78.585,4.792 78.637,5.018 78.678,5.248 78.708,5.482 78.726,5.719 78.733,5.978 "/>
<path fill-rule="evenodd" clip-rule="evenodd" fill="#FFFFFF" d="M27.99,38.413h13.846c5.286,0,9.571-4.286,9.571-9.586
	c0-5.286-4.285-9.572-9.571-9.572H27.99V38.413z M18.944,70.349V10.738h23.417c9.99,0,18.105,8.098,18.105,18.088
	c0,10.008-8.115,18.106-18.105,18.106H27.99v23.417H18.944z"/>
<polygon fill-rule="evenodd" clip-rule="evenodd" fill="#FFFFFF" points="36.809,62.226 36.809,60.556 38.381,59.379 39.952,59.379 
	39.952,70.378 38.381,70.378 38.381,61.047 "/>
<path fill-rule="evenodd" clip-rule="evenodd" fill="#FFFFFF" d="M44.092,70.283V59.371h1.558v3.995
	c0.913-1.128,2.57-1.303,3.698-0.391c0.62,0.501,0.978,1.251,0.978,2.048v5.26h-1.559v-4.774c0-0.863-0.697-1.561-1.558-1.561
	s-1.56,0.697-1.56,1.561v4.774H44.092z"/>
<path fill-rule="evenodd" clip-rule="evenodd" fill="#FFFFFF" d="M62.41,74.385v-5.493h-3.884l-2.524-8.339l-0.015-8.158
	l15.608-0.009v8.19l-2.492,8.315h-3.976l0.016,5.493H62.41z M61.502,75.295l0.015-5.481l-3.705-0.009l-2.715-9.242v-9.075
	l17.463,0.018l-0.015,9.011l-2.814,9.289h-3.672v5.502L61.502,75.295z"/>
<polygon fill-rule="evenodd" clip-rule="evenodd" fill="#FFFFFF" points="64.027,66.189 64.021,65.207 68.602,65.207 68.602,66.186 
	"/>
<path fill-rule="evenodd" clip-rule="evenodd" fill="#FFFFFF" d="M62.523,56.294h2.646l-1.366,1.718L62.523,56.294z M58.348,59.96
	l-1.228-3.355c2-0.825,4.851-1.134,7.019-1.198c2.101,0.042,4.188,0.317,6.301,1.016l-1.116,3.445l-1.021-0.279l0.477-1.477
	l-0.607-0.192l-0.463,1.559c-0.467-0.047-0.927-0.103-1.395-0.16l0.337-1.603l-0.634-0.133l-0.347,1.631
	c-1.291-0.134-2.375-0.081-3.5,0.038l-0.271-1.675l-0.587,0.084l0.243,1.629l-1.416,0.241l-0.412-1.597l-0.531,0.154l0.359,1.561
	C59.11,59.789,58.772,59.853,58.348,59.96z"/>
</svg>
