<?xml version="1.0" encoding="UTF-8"?>
<!DOCTYPE svg PUBLIC "-//W3C//DTD SVG 1.1//EN" "http://www.w3.org/Graphics/SVG/1.1/DTD/svg11.dtd">
<!-- Creator: CorelDRAW X6 -->
<svg xmlns="http://www.w3.org/2000/svg" xml:space="preserve" width="35.2358mm" height="35.2359mm" version="1.1" style="shape-rendering:geometricPrecision; text-rendering:geometricPrecision; image-rendering:optimizeQuality; fill-rule:evenodd; clip-rule:evenodd"
viewBox="0 0 1639 1639"
 xmlns:xlink="http://www.w3.org/1999/xlink">
 <defs>
  <style type="text/css">
   <![CDATA[
    .fil1 {fill:#FEFEFE}
    .fil0 {fill:blue}
    .fil2 {fill:red}
   ]]>
  </style>
 </defs>
 <g id="Layer_x0020_1">
  <metadata id="CorelCorpID_0Corel-Layer"/>
  <polygon class="fil0" points="1638,1539 1638,1544 1638,1549 1637,1554 1636,1559 1635,1564 1634,1569 1632,1573 1630,1578 1628,1582 1626,1586 1624,1591 1621,1595 1618,1598 1616,1602 1612,1606 1609,1609 1606,1612 1602,1616 1598,1619 1595,1621 1591,1624 1586,1626 1582,1628 1578,1630 1573,1632 1569,1634 1564,1635 1559,1636 1554,1637 1549,1638 1544,1638 1539,1638 100,1638 94,1638 89,1638 84,1637 79,1636 75,1635 70,1634 65,1632 61,1630 56,1628 52,1626 48,1624 44,1621 40,1619 36,1616 33,1612 29,1609 26,1606 23,1602 20,1598 17,1595 15,1591 12,1586 10,1582 8,1578 6,1573 5,1569 4,1564 3,1559 2,1554 1,1549 1,1544 1,1539 1,100 1,94 1,89 2,84 3,79 4,75 5,70 6,65 8,61 10,56 12,52 15,48 17,44 20,40 23,36 26,33 29,29 33,26 36,23 40,20 44,17 48,15 52,12 56,10 61,8 65,7 70,5 75,4 79,3 84,2 89,1 94,1 100,1 1539,1 1544,1 1549,1 1554,2 1559,3 1564,4 1569,5 1573,7 1578,8 1582,10 1586,12 1591,15 1595,17 1598,20 1602,23 1606,26 1609,29 1612,33 1616,36 1618,40 1621,44 1624,48 1626,52 1628,56 1630,61 1632,65 1634,70 1635,75 1636,79 1637,84 1638,89 1638,94 1638,100 "/>
  <g id="_841037216">
   <path class="fil1" d="M374 1460l0 -1260 495 0c211,0 383,171 383,382 0,212 -172,383 -383,383l-304 0 0 495 -191 0zm191 -675l293 0c112,0 202,-91 202,-203 0,-112 -91,-202 -202,-202l-293 0 0 405z"/>
   <polygon class="fil1" points="752,1289 752,1253 785,1228 818,1228 818,1461 785,1461 785,1264 "/>
   <path class="fil1" d="M906 1459l0 -231 33 0 0 84c19,-24 54,-28 78,-8 13,11 21,26 21,43l0 111 -33 0 0 -101c0,-18 -15,-33 -33,-33 -18,0 -33,15 -33,33l0 101 -33 0z"/>
   <path class="fil1" d="M1274 1565l0 -116 -78 0 -57 -195 0 -192 369 0 0 190 -60 196 -78 0 0 116 -96 0zm19 -19l0 -116 -82 0 -53 -176 0 -172 330 0 0 173 -53 176 -84 0 0 116 -58 0z"/>
   <polygon class="fil1" points="1327,1372 1327,1352 1424,1352 1424,1372 "/>
   <path class="fil1" d="M1207 1241l-26 -71c42,-17 103,-24 148,-25 44,1 89,7 133,21l-24 73 -22 -6 10 -31 -13 -4 -10 33c-10,-1 -20,-2 -30,-3l7 -34 -13 -3 -7 34c-27,-3 -50,-2 -74,1l-6 -35 -12 2 5 34 -30 5 -9 -34 -11 3 8 33c-9,3 -17,4 -26,7zm88 -78l56 0 -29 36 -27 -36z"/>
  </g>
  <path class="fil2" d="M99 1639c-67,0 -99,-56 -99,-96l0 -41 1486 -1501 59 0c49,1 94,46 94,94l0 48 -1501 1497 -38 0z"/>
 </g>
</svg>
