<?xml version="1.0" encoding="UTF-8"?>
<!DOCTYPE svg PUBLIC "-//W3C//DTD SVG 1.1//EN" "http://www.w3.org/Graphics/SVG/1.1/DTD/svg11.dtd">
<!-- Creator: CorelDRAW X6 -->
<svg xmlns="http://www.w3.org/2000/svg" xml:space="preserve" width="35.1552mm" height="35.1552mm" version="1.1" style="shape-rendering:geometricPrecision; text-rendering:geometricPrecision; image-rendering:optimizeQuality; fill-rule:evenodd; clip-rule:evenodd"
viewBox="0 0 1108 1108"
 xmlns:xlink="http://www.w3.org/1999/xlink">
 <defs>
  <style type="text/css">
   <![CDATA[
    .fil0 {fill:#212220}
    .fil1 {fill:#FEFEFE}
    .fil2 {fill:blue}
   ]]>
  </style>
 </defs>
 <g id="Layer_x0020_1">
  <metadata id="CorelCorpID_0Corel-Layer"/>
  <g id="_994981968">
   <path class="fil0" d="M906 653l-66 24 -46 0c2,-31 -25,-67 -67,-68 -40,1 -65,30 -68,67l-260 0c0,-35 -28,-66 -67,-67 -39,1 -67,31 -68,67l-33 0c-14,0 -29,-12 -29,-29l0 -114 57 -99c4,-7 11,-19 27,-20l593 0c10,-1 26,10 26,26l0 210zm-38 -118l-111 0 0 -99 111 0 0 98zm-128 0l-105 0 0 -99 105 0 0 99zm-123 0l-109 0 0 -99 109 0 0 98zm-128 0l-109 0 0 -99 109 0 0 98zm-129 0l-134 0 58 -99 76 0 0 99z"/>
   <path class="fil0" d="M331 624c30,0 55,24 55,54 0,30 -25,54 -55,54 -30,0 -55,-24 -55,-54 0,-30 25,-54 55,-54z"/>
   <path class="fil1" d="M331 652c15,0 27,12 27,26 0,14 -12,26 -27,26 -15,0 -26,-12 -26,-26 0,-14 12,-26 26,-26z"/>
   <path class="fil0" d="M727 624c30,0 54,24 54,53 0,29 -24,53 -54,53 -30,0 -54,-24 -54,-53 0,-29 24,-53 54,-53z"/>
   <path class="fil1" d="M727 652c14,0 26,11 26,26 0,14 -12,26 -26,26 -14,0 -26,-12 -26,-26 0,-14 12,-26 26,-26z"/>
  </g>
  <path class="fil2" d="M1041 0l4 0 3 0 3 0 3 1 3 1 3 1 3 1 3 1 3 1 3 1 3 2 3 2 3 2 3 2 2 2 2 2 2 2 2 2 2 3 2 3 2 3 2 3 1 3 1 3 1 3 1 3 1 3 1 3 1 3 0 3 0 3 0 4 0 974 0 4 0 3 0 3 -1 3 -1 3 -1 3 -1 3 -1 3 -1 3 -1 3 -2 3 -2 3 -2 3 -2 3 -2 2 -2 2 -2 2 -2 2 -3 2 -3 2 -3 2 -3 2 -3 1 -3 1 -3 1 -3 1 -3 1 -3 1 -3 1 -3 0 -3 0 -4 0 -974 0 -4 0 -3 0 -3 0 -3 -1 -3 -1 -3 -1 -3 -1 -3 -1 -3 -1 -3 -1 -3 -2 -3 -2 -3 -2 -3 -2 -2 -2 -2 -2 -2 -2 -2 -2 -2 -3 -2 -3 -2 -3 -2 -3 -1 -3 -1 -3 -1 -3 -1 -3 -1 -3 -1 -3 -1 -3 0 -3 0 -3 0 -4 0 -974 0 -4 0 -3 0 -3 1 -3 1 -3 1 -3 1 -3 1 -3 1 -3 1 -3 2 -3 2 -3 2 -3 2 -3 2 -2 2 -2 2 -2 2 -2 3 -2 3 -2 3 -2 3 -2 3 -1 3 -1 3 -1 3 -1 3 -1 3 -1 3 -1 3 0 3 0 4 0 974 0zm-80 147l0 813 -813 0 0 -813 813 0z"/>
 </g>
</svg>
