<?xml version="1.0" encoding="UTF-8"?>
<!DOCTYPE svg PUBLIC "-//W3C//DTD SVG 1.1//EN" "http://www.w3.org/Graphics/SVG/1.1/DTD/svg11.dtd">
<!-- Creator: CorelDRAW X6 -->
<svg xmlns="http://www.w3.org/2000/svg" xml:space="preserve" width="35.1552mm" height="35.1552mm" version="1.1" style="shape-rendering:geometricPrecision; text-rendering:geometricPrecision; image-rendering:optimizeQuality; fill-rule:evenodd; clip-rule:evenodd"
viewBox="0 0 4895 4895"
 xmlns:xlink="http://www.w3.org/1999/xlink">
 <defs>
  <style type="text/css">
   <![CDATA[
    .fil1 {fill:#212220}
    .fil2 {fill:#FEFEFE}
    .fil0 {fill:blue}
   ]]>
  </style>
 </defs>
 <g id="Layer_x0020_1">
  <metadata id="CorelCorpID_0Corel-Layer"/>
  <path class="fil0" d="M4599 0l16 0 15 1 15 2 14 3 14 3 14 4 14 5 13 5 13 6 13 7 12 7 12 8 12 8 11 9 11 9 10 10 10 10 9 11 9 11 8 12 8 12 7 12 7 13 6 13 5 13 5 14 4 14 3 14 3 14 2 15 1 15 0 16 0 4302 0 16 -1 15 -2 15 -3 14 -3 14 -4 14 -5 14 -5 13 -6 13 -7 13 -7 12 -8 12 -8 12 -9 11 -9 11 -10 10 -10 10 -11 9 -11 9 -12 8 -12 8 -12 7 -13 7 -13 6 -13 5 -14 5 -14 4 -14 3 -14 3 -15 2 -15 1 -16 0 -4302 0 -16 0 -15 -1 -15 -2 -14 -3 -14 -3 -14 -4 -14 -5 -13 -5 -13 -6 -13 -7 -12 -7 -12 -8 -12 -8 -11 -9 -11 -9 -10 -10 -10 -10 -9 -11 -9 -11 -8 -12 -8 -12 -7 -12 -7 -13 -6 -13 -5 -13 -5 -14 -4 -14 -3 -14 -3 -14 -2 -15 -1 -15 0 -16 0 -4302 0 -16 1 -15 2 -15 3 -15 3 -14 4 -14 5 -14 5 -13 6 -13 7 -13 7 -12 8 -12 8 -12 9 -11 9 -11 10 -10 10 -10 11 -9 11 -9 12 -8 12 -8 12 -7 13 -7 13 -6 13 -5 14 -5 14 -4 14 -3 15 -3 15 -2 15 -1 16 0 4302 0zm-355 651l0 3593 -3593 0 0 -3593 3593 0z"/>
  <g id="_1170800368">
   <path class="fil1" d="M3060 3105c55,0 101,46 101,101 0,55 -46,101 -101,101 -56,0 -101,-46 -101,-101 0,-56 46,-101 101,-101z"/>
   <path class="fil1" d="M3310 3105c55,0 101,46 101,101 0,55 -46,101 -101,101 -56,0 -101,-46 -101,-101 0,-56 46,-101 101,-101z"/>
   <path class="fil1" d="M1599 3105c55,0 101,46 101,101 0,55 -45,101 -101,101 -56,0 -101,-46 -101,-101 0,-56 46,-101 101,-101z"/>
   <path class="fil1" d="M1849 3105c55,0 101,46 101,101 0,55 -46,101 -101,101 -56,0 -101,-46 -101,-101 0,-56 46,-101 101,-101z"/>
   <path class="fil1" d="M3828 3203l188 -36 -1 -453 -118 -455 -785 0 -92 -71 -1178 0c-36,18 -66,45 -98,70l-796 1 -2 116 22 0 -90 336 -1 458 180 34 392 0 47 -122 453 0 49 122 898 0 65 -124 454 0 49 124 361 0z"/>
   <polygon class="fil2" points="3953,2676 3876,2373 3828,2373 3828,2676 "/>
   <polygon class="fil2" points="3463,2373 3111,2373 3111,2676 3463,2676 "/>
   <polygon class="fil2" points="3047,2373 2695,2373 2695,2676 3047,2676 "/>
   <polygon class="fil2" points="2631,2373 2279,2373 2279,2676 2631,2676 "/>
   <polygon class="fil2" points="2213,2373 1862,2373 1862,2676 2213,2676 "/>
   <polygon class="fil2" points="1799,2373 1447,2373 1447,2676 1799,2676 "/>
   <polygon class="fil2" points="933,2676 1010,2373 1058,2373 1058,2676 "/>
   <polygon class="fil2" points="1225,2431 1130,2431 1130,3142 1225,3142 "/>
   <polygon class="fil2" points="1367,2431 1271,2431 1271,3142 1367,3142 "/>
   <polygon class="fil2" points="3630,2431 3535,2431 3535,3142 3630,3142 "/>
   <polygon class="fil2" points="3770,2431 3674,2431 3674,3142 3770,3142 "/>
   <polygon class="fil1" points="2648,2167 2814,1957 2439,1643 2085,1956 2235,2167 "/>
   <polygon class="fil2" points="2623,2131 2760,1957 2436,1693 2136,1957 2260,2131 "/>
  </g>
 </g>
</svg>
