<?xml version="1.0" encoding="UTF-8"?>
<!DOCTYPE svg PUBLIC "-//W3C//DTD SVG 1.1//EN" "http://www.w3.org/Graphics/SVG/1.1/DTD/svg11.dtd">
<!-- Creator: CorelDRAW X6 -->
<svg xmlns="http://www.w3.org/2000/svg" xml:space="preserve" width="35.1552mm" height="35.1552mm" version="1.1" style="shape-rendering:geometricPrecision; text-rendering:geometricPrecision; image-rendering:optimizeQuality; fill-rule:evenodd; clip-rule:evenodd"
viewBox="0 0 1850 1850"
 xmlns:xlink="http://www.w3.org/1999/xlink">
 <defs>
  <style type="text/css">
   <![CDATA[
    .fil1 {fill:#212220}
    .fil0 {fill:blue}
   ]]>
  </style>
 </defs>
 <g id="Layer_x0020_1">
  <metadata id="CorelCorpID_0Corel-Layer"/>
  <path class="fil0" d="M1737 0l6 0 6 0 6 1 5 1 5 1 5 2 5 2 5 2 5 2 5 2 5 3 5 3 4 3 4 3 4 4 4 4 4 4 4 4 3 4 3 4 3 5 3 5 2 5 2 5 2 5 2 5 2 5 1 5 1 5 1 6 0 6 0 6 0 1625 0 6 0 6 -1 6 -1 5 -1 5 -2 5 -2 5 -2 5 -2 5 -2 5 -3 5 -3 5 -3 4 -3 4 -4 4 -4 4 -4 4 -4 4 -4 3 -4 3 -5 3 -5 3 -5 2 -5 2 -5 2 -5 2 -5 2 -5 1 -5 1 -6 1 -6 0 -6 0 -1625 0 -6 0 -6 0 -6 -1 -5 -1 -5 -1 -5 -2 -5 -2 -5 -2 -5 -2 -5 -2 -5 -3 -5 -3 -4 -3 -4 -3 -4 -4 -4 -4 -4 -4 -4 -4 -3 -4 -3 -4 -3 -5 -3 -5 -2 -5 -2 -5 -2 -5 -2 -5 -2 -5 -1 -5 -1 -5 -1 -6 0 -6 0 -6 0 -1625 0 -6 0 -6 1 -6 1 -5 1 -5 2 -5 2 -5 2 -5 2 -5 2 -5 3 -5 3 -5 3 -4 3 -4 4 -4 4 -4 4 -4 4 -4 4 -3 4 -3 5 -3 5 -3 5 -2 5 -2 5 -2 5 -2 5 -2 5 -1 5 -1 6 -1 6 0 6 0 1625 0zm-134 246l0 1357 -1357 0 0 -1357 1357 0z"/>
  <g id="_813625120">
   <g>
    <polygon class="fil1" points="552,535 552,459 650,459 651,536 "/>
    <polygon class="fil1" points="760,536 759,459 859,459 859,535 "/>
    <polygon class="fil1" points="968,536 968,459 1067,459 1067,535 "/>
    <polygon class="fil1" points="1176,535 1177,459 1276,459 1275,535 "/>
    <polygon class="fil1" points="656,426 656,349 754,350 755,426 "/>
    <polygon class="fil1" points="864,425 864,349 963,349 963,426 "/>
    <polygon class="fil1" points="1072,426 1072,349 1171,349 1171,425 "/>
   </g>
   <path class="fil1" d="M1210 1255c55,0 100,45 100,100 0,55 -45,100 -100,100 -55,0 -100,-45 -100,-100 0,-55 45,-100 100,-100zm1 48c29,0 53,24 53,53 0,29 -24,53 -53,53 -29,0 -53,-24 -53,-53 0,-29 24,-53 53,-53z"/>
   <path class="fil1" d="M540 1253c55,0 100,45 100,100 0,55 -45,100 -100,100 -55,0 -100,-45 -100,-100 0,-55 45,-100 100,-100zm1 48c29,0 53,24 53,53 0,29 -24,53 -53,53 -29,0 -53,-24 -53,-53 0,-29 24,-53 53,-53z"/>
   <path class="fil1" d="M1540 1235l-28 -74 -246 0 -127 -156 -373 0 -143 154 -292 47 -12 29 1221 0zm-347 -74l-97 -128 -142 0 0 128 239 0zm-265 1l0 -129 -154 0c-38,43 -79,84 -116,128l270 0z"/>
   <path class="fil1" d="M425 1354c5,-46 11,-74 61,-100l-177 0 0 41 29 42 87 17z"/>
   <path class="fil1" d="M1472 1347l69 -94 -281 1c47,24 60,48 66,107l146 -14z"/>
   <path class="fil1" d="M1095 1359c-6,-52 29,-92 62,-106l-559 0c43,31 59,56 59,107l439 0z"/>
  </g>
 </g>
</svg>
