<?xml version="1.0" encoding="UTF-8"?>
<!DOCTYPE svg PUBLIC "-//W3C//DTD SVG 1.1//EN" "http://www.w3.org/Graphics/SVG/1.1/DTD/svg11.dtd">
<!-- Creator: CorelDRAW X6 -->
<svg xmlns="http://www.w3.org/2000/svg" xml:space="preserve" width="35.4095mm" height="35.4095mm" version="1.1" style="shape-rendering:geometricPrecision; text-rendering:geometricPrecision; image-rendering:optimizeQuality; fill-rule:evenodd; clip-rule:evenodd"
viewBox="0 0 1398 1398"
 xmlns:xlink="http://www.w3.org/1999/xlink">
 <defs>
  <style type="text/css">
   <![CDATA[
    .fil1 {fill:none}
    .fil3 {fill:#FEFEFE}
    .fil0 {fill:blue}
    .fil2 {fill:#212220;fill-rule:nonzero}
   ]]>
  </style>
 </defs>
 <g id="Layer_x0020_1">
  <metadata id="CorelCorpID_0Corel-Layer"/>
  <path class="fil0" d="M0 72l0 -4 0 -4 0 -4 1 -4 1 -3 1 -3 1 -3 1 -3 1 -3 2 -3 2 -3 2 -3 2 -3 2 -3 2 -3 2 -3 3 -2 3 -2 3 -2 3 -2 3 -2 3 -2 3 -2 3 -1 3 -1 3 -1 3 -1 3 -1 4 -1 4 0 4 0 4 0 1254 0 4 0 4 0 4 0 4 1 3 1 3 1 3 1 3 1 3 1 3 2 3 2 3 2 3 2 3 2 3 2 3 2 2 3 2 3 2 3 2 3 2 3 2 3 2 3 1 3 1 3 1 3 1 3 1 3 1 4 0 4 0 4 0 4 0 1254 0 4 0 4 0 4 -1 4 -1 3 -1 3 -1 3 -1 3 -1 3 -2 3 -2 3 -2 3 -2 3 -2 3 -2 3 -2 3 -3 2 -3 2 -3 2 -3 2 -3 2 -3 2 -3 2 -3 1 -3 1 -3 1 -3 1 -3 1 -4 1 -4 0 -4 0 -4 0 -1254 0 -4 0 -4 0 -4 0 -4 -1 -3 -1 -3 -1 -3 -1 -3 -1 -3 -1 -3 -2 -3 -2 -3 -2 -3 -2 -3 -2 -3 -2 -3 -2 -2 -3 -2 -3 -2 -3 -2 -3 -2 -3 -2 -3 -2 -3 -1 -3 -1 -3 -1 -3 -1 -3 -1 -3 -1 -4 0 -4 0 -4 0 -4 0 -1254zm183 110l1033 0 0 1033 -1033 0 0 -1033z"/>
  <rect class="fil1" x="183" y="183" width="1032" height="1032"/>
  <path class="fil2" d="M278 1121l0 -422c0,-116 47,-222 123,-298 76,-76 182,-123 298,-123l0 0 0 0 0 0 0 0c116,0 222,47 298,123 76,76 123,182 123,298l0 422 -843 0z"/>
  <path class="fil3" d="M296 1102l0 -118 164 0 0 118 -164 0zm0 -403c0,-50 9,-99 27,-145l1 -2 152 63 -1 2c-10,26 -14,54 -14,82l0 2 -164 0 0 -2zm0 18l164 0 0 118 -164 0 0 -118zm0 133l164 0 0 118 -164 0 0 -118zm185 -250l-152 -63 1 -2c19,-42 44,-80 76,-114l2 -2 116 116 -2 2c-17,18 -30,39 -41,61l-1 2zm54 -76l-116 -116 2 -2c33,-32 72,-58 114,-76l2 -1 63 152 -2 1c-22,10 -43,24 -61,41l-2 2zm79 -49l-63 -152 2 -1c43,-17 89,-26 135,-27l3 0 0 164 -2 0c-25,1 -49,6 -72,14l-2 1zm486 226l-162 0 0 -2c0,-28 -5,-56 -14,-82l-1 -2 152 -63 1 2c18,46 27,95 27,145l0 2 -2 0zm2 16l0 118 -164 0 0 -118 164 0zm0 133l0 118 -164 0 0 -118 164 0zm0 133l0 118 -164 0 0 -118 164 0zm-187 -386c-10,-22 -24,-43 -41,-61l-2 -2 116 -116 2 2c32,33 57,72 76,114l1 2 -152 63 -1 -2zm-55 -75c-18,-17 -39,-30 -61,-41l-2 -1 63 -152 2 1c42,19 81,45 114,76l2 2 -116 116 -2 -2zm-80 -49c-23,-8 -47,-13 -72,-14l-2 0 0 -164 3 0c46,1 91,10 134,27l2 1 -63 152 -2 -1z"/>
 </g>
</svg>
