<?xml version="1.0" encoding="UTF-8"?>
<!DOCTYPE svg PUBLIC "-//W3C//DTD SVG 1.1//EN" "http://www.w3.org/Graphics/SVG/1.1/DTD/svg11.dtd">
<!-- Creator: CorelDRAW X6 -->
<svg xmlns="http://www.w3.org/2000/svg" xml:space="preserve" width="35.4591mm" height="35.4633mm" version="1.1" style="shape-rendering:geometricPrecision; text-rendering:geometricPrecision; image-rendering:optimizeQuality; fill-rule:evenodd; clip-rule:evenodd"
viewBox="0 0 205181 205205"
 xmlns:xlink="http://www.w3.org/1999/xlink">
 <defs>
  <style type="text/css">
   <![CDATA[
    .fil1 {fill:none}
    .fil3 {fill:#FEFEFE}
    .fil0 {fill:blue}
    .fil4 {fill:red}
    .fil2 {fill:#212220;fill-rule:nonzero}
   ]]>
  </style>
 </defs>
 <g id="Layer_x0020_1">
  <metadata id="CorelCorpID_0Corel-Layer"/>
  <path class="fil0" d="M189 10589l15 -581 41 -534 68 -526 93 -517 118 -508 143 -498 166 -488 190 -477 212 -466 234 -454 256 -442 277 -428 296 -414 316 -400 334 -384 352 -367 369 -351 385 -333 401 -315 416 -295 430 -275 443 -255 455 -234 468 -211 479 -189 490 -165 499 -142 509 -117 517 -93 526 -67 535 -41 581 -15 183696 0 579 15 532 41 524 67 516 93 507 118 498 142 488 166 477 189 466 212 455 234 442 255 429 276 415 296 400 315 384 333 369 351 352 369 333 385 315 400 296 415 276 429 255 442 234 454 212 466 189 477 166 488 142 497 118 507 93 516 67 524 41 532 14 579 0 183725 -14 583 -41 536 -67 528 -93 518 -117 509 -142 499 -165 489 -189 478 -211 466 -233 454 -254 441 -274 428 -295 414 -314 399 -332 383 -350 367 -367 350 -383 332 -399 314 -414 295 -428 274 -442 254 -454 233 -466 211 -478 189 -489 165 -499 142 -509 117 -518 93 -528 67 -536 41 -583 14 -183725 0 -583 -14 -536 -41 -527 -68 -518 -93 -509 -118 -499 -142 -488 -166 -477 -189 -466 -211 -454 -234 -442 -255 -428 -275 -414 -296 -399 -315 -384 -333 -367 -351 -350 -368 -332 -385 -314 -400 -295 -415 -275 -429 -254 -443 -233 -456 -211 -468 -189 -479 -166 -490 -142 -501 -117 -510 -93 -519 -67 -528 -41 -537 -15 -583 0 -183697zm26748 16163l151398 0 0 151398 -151398 0 0 -151398z"/>
  <rect class="fil1" x="27053" y="26869" width="151166" height="151166"/>
  <path class="fil2" d="M40856 164216l6 -61781c0,-17061 6914,-32506 18091,-43683 11177,-11178 26622,-18092 43683,-18092l0 -6 1 0 1 0 0 6c17061,0 32506,6914 43683,18091 11177,11177 18091,26622 18091,43683l6 61781 -123561 0z"/>
  <path class="fil3" d="M43516 161557l0 -17337 24067 0 0 17337 -24067 0zm-6 -59121c1,-7265 1320,-14451 3932,-21231l132 -343 22237 9259 -117 321c-1400,3847 -2105,7901 -2105,11994l0 358 -24080 0 0 -358zm6 2660l24067 0 0 17260 -24067 0 0 -17260zm0 19562l24067 0 0 17260 -24067 0 0 -17260zm27174 -36665l-22233 -9257 149 -336c2734,-6131 6506,-11762 11124,-16634l253 -266 17023 17022 -231 253c-2422,2646 -4430,5653 -5941,8906l-145 311zm7942 -11101l-17022 -17022 266 -253c4874,-4642 10515,-8434 16660,-11183l336 -150 9217 22253 -310 145c-3252,1523 -6255,3544 -8895,5977l-252 233zm11581 -7241l-9217 -22252 342 -132c6322,-2444 13006,-3768 19781,-3939l367 -9 0 24086 -343 14c-3625,152 -7202,860 -10607,2113l-323 119zm71194 33143l-23722 -1 0 -358c0,-4105 -709,-8169 -2117,-12026l-117 -322 22236 -9259 133 343c2621,6790 3945,13987 3945,21264l0 345 -357 13zm351 2302l0 17260 -24067 0 0 -17260 24067 0zm0 19562l0 17260 -24067 0 0 -17260 24067 0zm0 19562l0 17337 -24067 0 0 -17337 24067 0zm-27333 -56570c-1518,-3260 -3536,-6272 -5969,-8921l-233 -252 17023 -17022 253 266c4631,4873 8412,10510 11154,16649l150 335 -22233 9258 -145 -311zm-8081 -11034c-2649,-2433 -5663,-4451 -8923,-5969l-311 -145 9217 -22252 336 150c6156,2743 11806,6531 16690,11173l266 253 -17022 17022 -252 -232zm-11683 -7113c-3383,-1235 -6933,-1933 -10531,-2084l-343 -14 0 -24086 367 9c6747,170 13405,1484 19704,3909l343 132 -9218 22253 -322 -117z"/>
  <path class="fil4" d="M10021 205181c-5571,-127 -9903,-5205 -9984,-9741l-36 -7388 186143 -188052 9030 24c5013,100 10054,4781 10008,10292l-30 7343 -188021 187546 -7109 -24z"/>
 </g>
</svg>
