<?xml version="1.0" encoding="UTF-8"?>
<!DOCTYPE svg PUBLIC "-//W3C//DTD SVG 1.1//EN" "http://www.w3.org/Graphics/SVG/1.1/DTD/svg11.dtd">
<!-- Creator: CorelDRAW X6 -->
<svg xmlns="http://www.w3.org/2000/svg" xml:space="preserve" width="39.9309mm" height="19.3782mm" version="1.1" style="shape-rendering:geometricPrecision; text-rendering:geometricPrecision; image-rendering:optimizeQuality; fill-rule:evenodd; clip-rule:evenodd"
viewBox="0 0 1190 578"
 xmlns:xlink="http://www.w3.org/1999/xlink">
 <defs>
  <style type="text/css">
   <![CDATA[
    .fil0 {fill:black}
   ]]>
  </style>
 </defs>
 <g id="Layer_x0020_1">
  <metadata id="CorelCorpID_0Corel-Layer"/>
  <path class="fil0" d="M192 381l25 -29c26,22 61,31 94,22 18,-4 29,-22 24,-40 -3,-13 -14,-23 -28,-25l-40 -5c-39,-5 -66,-41 -61,-80 4,-32 30,-57 62,-61 35,-4 70,5 99,25l-21 31c-22,-15 -48,-21 -74,-18 -18,2 -31,19 -29,37 2,15 14,27 29,29l40 5c39,5 66,41 61,79 -4,29 -25,53 -53,60 -45,11 -92,0 -128,-30zm268 32l0 -215 -69 0 0 -33 175 0 0 33 -68 0 0 215 -38 0zm124 -86l0 -76c0,-48 40,-88 88,-88 49,0 89,40 89,88l0 76c0,48 -40,88 -89,88 -48,0 -88,-40 -88,-88zm38 0c0,28 22,51 50,51 29,0 51,-23 51,-51l0 -76c0,-28 -22,-50 -51,-50 -28,0 -50,22 -50,50l0 76zm188 86l0 -248 97 0c41,0 75,34 75,75 0,42 -34,76 -75,76l-60 0 0 97 -37 0zm37 -133l58 0c22,0 40,-18 40,-40 0,-22 -18,-39 -40,-39l-58 0 0 79zm-847 236l0 3 0 4 1 3 0 3 1 3 1 3 1 2 1 3 1 3 1 2 2 3 1 3 2 2 2 2 2 2 2 3 2 2 2 2 3 1 2 2 3 2 2 1 3 2 2 1 3 1 3 1 3 1 3 0 3 1 3 0 3 0 3 1 1068 0 3 -1 3 0 3 0 3 -1 3 0 3 -1 3 -1 3 -1 2 -1 3 -2 3 -1 2 -2 2 -2 3 -1 2 -2 2 -2 2 -3 2 -2 2 -2 2 -2 1 -3 2 -3 1 -2 1 -3 1 -3 1 -2 1 -3 1 -3 0 -3 1 -3 0 -4 0 -3 0 -455 0 -3 0 -3 -1 -3 0 -3 -1 -3 -1 -3 -1 -3 -1 -3 -1 -2 -1 -3 -2 -2 -1 -3 -2 -2 -2 -3 -2 -2 -2 -2 -2 -2 -2 -2 -3 -2 -2 -2 -2 -1 -3 -2 -3 -1 -2 -1 -3 -1 -3 -1 -3 -1 -3 -1 -3 0 -3 -1 -3 0 -3 0 -1068 0 -3 0 -3 0 -3 1 -3 0 -3 1 -3 1 -3 1 -3 1 -2 1 -3 1 -2 2 -3 1 -2 2 -3 2 -2 2 -2 2 -2 2 -2 2 -2 3 -2 2 -1 3 -2 2 -1 3 -1 2 -1 3 -1 3 -1 3 -1 3 0 3 -1 3 0 3 0 3 0 455zm18 0l0 3 0 2 0 2 0 2 1 2 0 2 1 2 1 2 1 2 1 2 1 2 1 2 1 1 1 2 2 2 1 1 2 2 1 1 2 1 2 2 2 1 1 1 2 1 2 1 2 0 2 1 2 1 2 0 3 1 2 0 2 0 3 0 1066 0 3 0 2 0 3 0 2 -1 2 0 2 -1 2 -1 2 0 2 -1 2 -1 2 -1 1 -1 2 -2 2 -1 1 -1 2 -2 1 -1 2 -2 1 -2 1 -1 1 -2 1 -2 1 -2 1 -2 1 -2 1 -2 0 -2 1 -2 0 -2 0 -2 1 -2 0 -3 0 -454 0 -3 -1 -2 0 -2 0 -3 -1 -2 0 -2 -1 -2 -1 -2 -1 -2 -1 -2 -1 -1 -1 -2 -1 -2 -1 -2 -2 -1 -1 -2 -2 -1 -1 -2 -2 -1 -2 -1 -1 -1 -2 -1 -2 -1 -2 -1 -2 -1 -2 -1 -2 0 -2 -1 -2 0 -3 0 -2 0 -3 0 -1066 0 -3 0 -2 0 -2 0 -3 0 -2 1 -2 0 -2 1 -2 1 -2 1 -2 1 -1 1 -2 1 -2 1 -2 1 -1 2 -2 1 -1 2 -2 1 -1 2 -1 2 -1 2 -1 1 -1 2 -1 2 -1 2 -1 2 0 2 -1 2 0 3 0 2 0 2 0 3 0 454z"/>
 </g>
</svg>
