<?xml version="1.0" encoding="UTF-8"?>
<!DOCTYPE svg PUBLIC "-//W3C//DTD SVG 1.1//EN" "http://www.w3.org/Graphics/SVG/1.1/DTD/svg11.dtd">
<!-- Creator: CorelDRAW X6 -->
<svg xmlns="http://www.w3.org/2000/svg" xml:space="preserve" width="79.5213mm" height="33.3477mm" version="1.1" style="shape-rendering:geometricPrecision; text-rendering:geometricPrecision; image-rendering:optimizeQuality; fill-rule:evenodd; clip-rule:evenodd"
viewBox="0 0 3666 1537"
 xmlns:xlink="http://www.w3.org/1999/xlink">
 <defs>
  <style type="text/css">
   <![CDATA[
    .fil0 {fill:blue}
    .fil1 {fill:#FEFEFE;fill-rule:nonzero}
    .fil2 {fill:blue;fill-rule:nonzero}
   ]]>
  </style>
 </defs>
 <g id="Layer_x0020_1">
  <metadata id="CorelCorpID_0Corel-Layer"/>
  <path class="fil0" d="M3666 1490c0,-481 0,-962 0,-1443 0,-26 -21,-47 -47,-47 -1190,0 -2381,0 -3571,0l0 0c-26,0 -47,21 -47,47l0 238c0,402 0,803 0,1205l0 0c0,26 21,47 47,47l0 0c1191,0 2381,0 3572,0 26,0 47,-21 47,-47z"/>
  <g id="_1744564080">
   <g>
    <polygon class="fil1" points="3201,1195 3330,841 3375,841 3504,1195 3448,1195 3421,1116 3284,1116 3258,1195 "/>
    <polygon class="fil2" points="3301,1068 3405,1068 3353,913 "/>
    <polygon class="fil1" points="2935,1195 2935,841 3163,841 3163,891 2989,891 2989,992 3138,992 3138,1040 2989,1040 2989,1144 3163,1144 3163,1195 "/>
    <path class="fil1" d="M2613 1195l0 -354 145 0c56,0 101,45 101,101 0,43 -28,82 -69,96l81 157 -63 0 -73 -152 -70 0 0 152 -54 0z"/>
    <path class="fil2" d="M2667 996l88 0c30,0 54,-24 54,-54 0,-30 -24,-54 -54,-54l-88 0 0 107z"/>
    <polygon class="fil1" points="2259,1195 2388,841 2433,841 2562,1195 2505,1195 2479,1116 2342,1116 2316,1195 "/>
    <polygon class="fil2" points="2358,1068 2463,1068 2411,913 "/>
    <path class="fil1" d="M1747 1195l0 -354 145 0c56,0 101,45 101,101 0,43 -28,82 -69,96l81 157 -63 0 -73 -152 -69 0 0 152 -54 0z"/>
    <path class="fil2" d="M1800 996l88 0c30,0 54,-24 54,-54 0,-30 -24,-54 -54,-54l-88 0 0 107z"/>
    <polygon class="fil1" points="1450,1195 1450,841 1677,841 1677,891 1503,891 1503,992 1652,992 1652,1040 1503,1040 1503,1144 1677,1144 1677,1195 "/>
    <path class="fil1" d="M1127 1195l0 -354 126 0c70,0 126,57 126,127l0 101c0,70 -56,126 -126,126l-126 0z"/>
    <path class="fil2" d="M1181 1144l73 0c40,0 73,-33 73,-73l0 -108c0,-40 -32,-73 -73,-73l-73 0 0 253z"/>
    <path class="fil1" d="M805 1195l0 -354 145 0c56,0 101,45 101,101 0,43 -28,82 -69,96l81 157 -63 0 -73 -152 -70 0 0 152 -54 0z"/>
    <path class="fil2" d="M858 996l89 0c30,0 54,-24 54,-54 0,-30 -24,-54 -54,-54l-89 0 0 107z"/>
    <path class="fil1" d="M482 1072l0 -108c0,-70 57,-126 127,-126 70,0 126,57 126,126l0 108c0,70 -57,126 -126,126 -70,0 -127,-57 -127,-126z"/>
    <path class="fil2" d="M536 1072c0,40 33,73 73,73 40,0 73,-33 73,-73l0 -108c0,-40 -33,-73 -73,-73 -40,0 -73,32 -73,73l0 108z"/>
    <path class="fil1" d="M185 1195l0 -354 145 0c52,0 95,43 95,95 0,31 -15,60 -40,78 46,28 61,89 32,135 -18,29 -49,47 -83,47l-149 0z"/>
    <path class="fil2" d="M239 989l85 0c28,0 51,-23 51,-51 0,-28 -23,-51 -51,-51l-85 0 0 101z"/>
    <path class="fil2" d="M239 1144l88 0c30,0 54,-24 54,-54 0,-30 -24,-54 -54,-54l-88 0 0 107z"/>
   </g>
   <g>
    <polygon class="fil1" points="2661,256 2600,194 2647,195 2682,230 2717,194 2764,195 2703,256 "/>
    <polygon class="fil1" points="2818,654 2947,299 2992,299 3121,654 3064,654 3038,575 2901,575 2875,654 "/>
    <polygon class="fil2" points="2917,527 3022,527 2969,372 "/>
    <polygon class="fil1" points="2558,654 2558,610 2719,347 2564,347 2564,299 2786,299 2786,341 2625,603 2786,603 2786,654 "/>
    <polygon class="fil1" points="2273,654 2273,299 2501,299 2501,350 2327,350 2327,451 2476,451 2476,499 2327,499 2327,603 2501,603 2501,654 "/>
    <path class="fil1" d="M1957 654l0 -354 146 0c52,0 95,42 95,95 0,31 -15,60 -40,78 46,28 61,89 32,135 -18,29 -49,47 -84,47l-149 0z"/>
    <path class="fil2" d="M2011 448l85 0c28,0 51,-23 51,-51 0,-28 -23,-51 -51,-51l-85 0 0 101z"/>
    <path class="fil2" d="M2011 603l89 0c30,0 54,-24 54,-54 0,-30 -24,-54 -54,-54l-89 0 0 107z"/>
    <path class="fil1" d="M1634 531l0 -108c0,-70 57,-127 127,-127 70,0 127,57 127,127l0 108c0,70 -57,127 -127,127 -70,0 -127,-57 -127,-127z"/>
    <path class="fil2" d="M1688 531c0,40 33,73 73,73 40,0 73,-33 73,-73l0 -108c0,-40 -33,-73 -73,-73 -40,0 -73,33 -73,73l0 108z"/>
    <path class="fil1" d="M1337 654l0 -354 145 0c56,0 101,45 101,101 0,43 -28,82 -69,96l81 157 -63 0 -73 -152 -70 0 0 152 -54 0z"/>
    <path class="fil2" d="M1391 455l89 0c30,0 54,-24 54,-54 0,-30 -24,-54 -54,-54l-89 0 0 108z"/>
    <polygon class="fil1" points="1039,654 1039,299 1267,299 1267,350 1093,350 1093,451 1242,451 1242,499 1093,499 1093,603 1267,603 1267,654 "/>
    <polygon class="fil1" points="903,654 903,299 957,299 957,654 "/>
    <path class="fil1" d="M600 654l0 -354 139 0c59,0 108,48 108,108 0,59 -48,107 -108,107l-85 0 0 139 -54 0z"/>
    <path class="fil2" d="M654 464l82 0c31,0 57,-25 57,-57 0,-32 -26,-57 -57,-57l-82 0 0 114z"/>
   </g>
  </g>
 </g>
</svg>
