<?xml version="1.0" encoding="UTF-8"?>
<!DOCTYPE svg PUBLIC "-//W3C//DTD SVG 1.1//EN" "http://www.w3.org/Graphics/SVG/1.1/DTD/svg11.dtd">
<!-- Creator: CorelDRAW X6 -->
<svg xmlns="http://www.w3.org/2000/svg" xml:space="preserve" width="79.5975mm" height="33.4351mm" version="1.1" style="shape-rendering:geometricPrecision; text-rendering:geometricPrecision; image-rendering:optimizeQuality; fill-rule:evenodd; clip-rule:evenodd"
viewBox="0 0 983509 413125"
 xmlns:xlink="http://www.w3.org/1999/xlink">
 <defs>
  <style type="text/css">
   <![CDATA[
    .str0 {stroke:#E31E24;stroke-width:941.529}
    .fil0 {fill:blue}
    .fil3 {fill:red}
    .fil1 {fill:#FEFEFE;fill-rule:nonzero}
    .fil2 {fill:blue;fill-rule:nonzero}
   ]]>
  </style>
 </defs>
 <g id="Layer_x0020_1">
  <metadata id="CorelCorpID_0Corel-Layer"/>
  <path class="fil0" d="M983038 399976c0,-128896 0,-257792 0,-386688 0,-7005 -5674,-12679 -12679,-12679 -319052,0 -638105,0 -957157,0l-53 0c-7005,0 -12679,5674 -12679,12679l0 63762c0,107623 0,215248 0,322872l0 54c0,7005 5674,12679 12679,12679l10 0c319066,0 638134,0 957200,0 7005,0 12679,-5674 12679,-12679z"/>
  <g id="_878317152">
   <g>
    <polygon class="fil1" points="858311,320783 893034,225874 904908,225874 939673,320783 924412,320783 917272,299647 880711,299647 873571,320783 "/>
    <polygon class="fil2" points="885037,286917 912988,286917 898951,245337 "/>
    <polygon class="fil1" points="787149,320783 787149,225874 848151,225874 848151,239462 801595,239462 801595,266555 841377,266555 841377,279287 801595,279287 801595,307236 848151,307236 848151,320783 "/>
    <path class="fil1" d="M700768 320783l0 -94909 38968 0c14933,0 27052,12160 27052,27135 0,11628 -7385,21952 -18362,25705l21790 42069 -16975 0 -19463 -40640 -18646 0 0 40640 -14364 0z"/>
    <path class="fil2" d="M715132 267413l23706 0c7998,0 14403,-6488 14403,-14403 0,-7957 -6405,-14405 -14403,-14405l-23706 0 0 28808z"/>
    <polygon class="fil1" points="605820,320783 640583,225874 652417,225874 687222,320783 671921,320783 664780,299647 628220,299647 621079,320783 "/>
    <polygon class="fil2" points="632546,286917 660496,286917 646500,245337 "/>
    <path class="fil1" d="M468597 320783l0 -94909 38967 0c14974,0 27134,12160 27134,27135 0,11628 -7385,21952 -18402,25705l21789 42069 -16973 0 -19504 -40640 -18607 0 0 40640 -14403 0z"/>
    <path class="fil2" d="M483001 267413l23706 0c7957,0 14405,-6488 14405,-14403 0,-7957 -6447,-14405 -14405,-14405l-23706 0 0 28808z"/>
    <polygon class="fil1" points="388949,320783 388949,225874 449950,225874 449950,239462 403393,239462 403393,266555 443218,266555 443218,279287 403393,279287 403393,307236 449950,307236 449950,320783 "/>
    <path class="fil1" d="M302568 320783l0 -94909 33867 0c18729,0 33867,15219 33867,33907l0 27135c0,18729 -15137,33867 -33867,33867l-33867 0z"/>
    <path class="fil2" d="M316972 307236l19463 0c10772,0 19463,-8732 19463,-19463l0 -28848c0,-10772 -8691,-19463 -19463,-19463l-19463 0 0 67774z"/>
    <path class="fil1" d="M216146 320783l0 -94909 38967 0c14975,0 27135,12160 27135,27135 0,11628 -7427,21952 -18403,25705l21749 42069 -16934 0 -19504 -40640 -18648 0 0 40640 -14363 0z"/>
    <path class="fil2" d="M230509 267413l23748 0c7915,0 14403,-6488 14403,-14403 0,-7957 -6488,-14405 -14403,-14405l-23748 0 0 28808z"/>
    <path class="fil1" d="M129725 287773l0 -28848c0,-18688 15179,-33867 33907,-33867 18688,0 33867,15178 33867,33867l0 28848c0,18688 -15178,33868 -33867,33868 -18728,0 -33907,-15179 -33907,-33868z"/>
    <path class="fil2" d="M144128 287773c0,10731 8732,19463 19504,19463 10731,0 19463,-8732 19463,-19463l0 -28848c0,-10772 -8732,-19463 -19463,-19463 -10772,0 -19504,8691 -19504,19463l0 28848z"/>
    <path class="fil1" d="M50117 320783l0 -94909 38967 0c14036,0 25379,11426 25379,25421 0,8282 -3998,16117 -10813,20850 12404,7550 16240,23748 8650,36112 -4774,7793 -13220,12527 -22361,12527l-39823 0z"/>
    <path class="fil2" d="M64521 265740l22850 0c7508,0 13547,-6080 13547,-13588 0,-7467 -6040,-13547 -13547,-13547l-22850 0 0 27135z"/>
    <path class="fil2" d="M64521 307236l23706 0c7957,0 14405,-6405 14405,-14403 0,-7956 -6447,-14403 -14405,-14403l-23706 0 0 28807z"/>
   </g>
   <g>
    <polygon class="fil1" points="713541,69148 697259,52705 709828,52827 719171,62171 728515,52705 741204,52745 724843,69107 "/>
    <polygon class="fil1" points="755609,175850 790332,80859 802206,80859 837012,175850 821751,175850 814570,154632 778009,154632 770869,175850 "/>
    <polygon class="fil2" points="782294,141902 810286,141902 796290,100363 "/>
    <polygon class="fil1" points="686079,175850 686079,163976 729291,93589 687752,93589 687752,80859 747122,80859 747122,91876 703871,162262 747122,162262 747122,175850 "/>
    <polygon class="fil1" points="609736,175850 609736,80859 670818,80859 670818,94447 624140,94447 624140,121540 664005,121540 664005,134270 624140,134270 624140,162262 670818,162262 670818,175850 "/>
    <path class="fil1" d="M524947 175850l0 -94991 39049 0c13996,0 25379,11384 25379,25461 0,8243 -4039,16076 -10813,20851 12363,7548 16240,23748 8650,36112 -4774,7793 -13220,12567 -22400,12567l-39865 0z"/>
    <path class="fil2" d="M539350 120684l22891 0c7509,0 13588,-6040 13588,-13547 0,-7508 -6079,-13547 -13588,-13547l-22891 0 0 27094z"/>
    <path class="fil2" d="M539350 162262l23789 0c7915,0 14363,-6447 14363,-14403 0,-7998 -6447,-14403 -14363,-14403l-23789 0 0 28807z"/>
    <path class="fil1" d="M438444 142799l0 -28888c0,-18688 15220,-33909 33948,-33909 18688,0 33907,15220 33907,33909l0 28888c0,18688 -15219,33907 -33907,33907 -18728,0 -33948,-15219 -33948,-33907z"/>
    <path class="fil2" d="M452888 142799c0,10731 8732,19463 19504,19463 10772,0 19504,-8732 19504,-19463l0 -28888c0,-10732 -8732,-19463 -19504,-19463 -10772,0 -19504,8731 -19504,19463l0 28888z"/>
    <path class="fil1" d="M358795 175850l0 -94991 38967 0c14974,0 27175,12118 27175,27134 0,11629 -7467,21953 -18443,25707l21829 42150 -16973 0 -19504 -40722 -18688 0 0 40722 -14363 0z"/>
    <path class="fil2" d="M373158 122438l23747 0c7998,0 14445,-6488 14445,-14445 0,-7998 -6447,-14403 -14445,-14403l-23747 0 0 28849z"/>
    <polygon class="fil1" points="279025,175850 279025,80859 340107,80859 340107,94447 293469,94447 293469,121540 333333,121540 333333,134270 293469,134270 293469,162262 340107,162262 340107,175850 "/>
    <polygon class="fil1" points="242587,175850 242587,80859 257031,80859 257031,175850 "/>
    <path class="fil1" d="M161225 175850l0 -94991 37294 0c15913,0 28848,12894 28848,28848 0,15913 -12934,28808 -28848,28808l-22891 0 0 37335 -14403 0z"/>
    <path class="fil2" d="M175629 124927l22033 0c8406,0 15261,-6814 15261,-15220 0,-8447 -6855,-15260 -15261,-15260l-22033 0 0 30480z"/>
   </g>
  </g>
  <path class="fil3 str0" d="M471 399921l116 -22804 943468 -376646 26305 138c6372,-65 12639,4912 12679,12679l0 22812 -943182 376534 -26706 21c-7991,-125 -12612,-6331 -12679,-12733z"/>
 </g>
</svg>
