<?xml version="1.0" encoding="UTF-8"?>
<!DOCTYPE svg PUBLIC "-//W3C//DTD SVG 1.1//EN" "http://www.w3.org/Graphics/SVG/1.1/DTD/svg11.dtd">
<!-- Creator: CorelDRAW X6 -->
<svg xmlns="http://www.w3.org/2000/svg" xml:space="preserve" width="112.988mm" height="35.4471mm" version="1.1" style="shape-rendering:geometricPrecision; text-rendering:geometricPrecision; image-rendering:optimizeQuality; fill-rule:evenodd; clip-rule:evenodd"
viewBox="0 0 10302 3232"
 xmlns:xlink="http://www.w3.org/1999/xlink">
 <defs>
  <style type="text/css">
   <![CDATA[
    .fil0 {fill:blue}
    .fil1 {fill:#FEFEFE;fill-rule:nonzero}
   ]]>
  </style>
 </defs>
 <g id="Layer_x0020_1">
  <metadata id="CorelCorpID_0Corel-Layer"/>
  <path class="fil0" d="M151 0c-84,0 -151,68 -151,151l0 1438 0 1438 0 53c0,84 68,151 151,151l9999 0c84,0 151,-68 151,-151l0 -2929c0,-84 -68,-151 -151,-151l-9999 0z"/>
  <path class="fil1" d="M503 690l0 255 178 0c44,0 78,-14 99,-40 22,-27 33,-56 33,-87 0,-48 -17,-83 -51,-105 -22,-15 -50,-22 -85,-22l-173 0zm-120 677l0 -790 287 0c31,0 60,3 89,10 28,6 58,22 89,46 24,19 44,44 61,76 17,32 25,70 25,113 0,56 -21,110 -63,161 -42,51 -104,76 -185,76l-182 0 0 309 -120 0zm671 0l0 -790 120 0 0 790 -120 0zm299 0l0 -790 505 0 0 113 -386 0 0 225 329 0 0 107 -329 0 0 232 386 0 0 113 -505 0zm750 -684l0 240 181 0c45,0 78,-13 101,-38 22,-25 34,-54 34,-88 0,-40 -14,-70 -40,-90 -22,-16 -51,-24 -87,-24l-188 0zm-120 684l0 -790 309 0c68,0 121,17 160,52 22,19 41,43 56,72 15,29 23,61 23,97 0,51 -14,96 -41,135 -27,39 -65,67 -113,83l183 351 -142 0 -163 -337 -153 0 0 337 -120 0zm664 -395c0,-95 2,-156 8,-184 5,-27 14,-53 27,-76 19,-34 49,-67 91,-97 42,-30 94,-46 156,-46 62,0 114,15 156,46 42,30 73,63 92,97 13,23 21,48 26,76 5,27 8,89 8,184 0,95 -2,156 -8,184 -5,28 -14,53 -26,76 -19,35 -50,67 -92,97 -42,30 -94,45 -156,45 -62,0 -114,-15 -156,-45 -42,-30 -72,-62 -91,-97 -13,-23 -22,-48 -27,-76 -5,-27 -8,-89 -8,-184zm120 0c0,81 3,134 8,158 6,24 16,46 32,66 12,16 28,30 49,41 21,11 45,17 73,17 28,0 53,-6 73,-17 21,-11 37,-25 49,-41 16,-19 26,-41 32,-66 6,-24 8,-77 8,-158 0,-81 -3,-134 -8,-158 -6,-24 -16,-46 -32,-67 -12,-15 -28,-29 -49,-40 -21,-11 -45,-17 -73,-17 -28,0 -53,6 -73,17 -21,12 -37,25 -49,40 -16,20 -26,43 -32,67 -6,24 -8,77 -8,158zm597 395l0 -790 306 0c77,0 135,20 175,59 40,40 59,91 59,153 0,33 -8,64 -24,94 -16,30 -47,55 -93,76l0 2c43,10 76,33 97,68 21,36 32,73 32,114 0,68 -22,123 -65,163 -44,41 -95,61 -154,61l-334 0zm304 -351l-184 0 0 238 184 0c44,0 77,-12 98,-36 21,-24 31,-52 31,-83 0,-31 -10,-59 -31,-83 -21,-24 -53,-36 -98,-36zm-11 -333l-173 0 0 227 173 0c43,0 75,-11 96,-33 21,-22 31,-49 31,-80 0,-30 -11,-57 -31,-79 -21,-23 -53,-34 -96,-34zm397 684l0 -790 506 0 0 113 -386 0 0 225 329 0 0 107 -329 0 0 232 386 0 0 113 -506 0zm582 0l0 -100 359 -584 -344 0 0 -106 491 0 0 90 -360 587 360 0 0 113 -505 0zm553 -1l288 -791 99 0 288 791 -126 0 -61 -178 -300 0 -63 178 -126 0zm225 -284l229 0c-17,-49 -30,-87 -39,-115 -10,-28 -18,-52 -25,-73 -7,-21 -14,-43 -21,-65 -7,-22 -17,-52 -29,-90 -13,39 -23,70 -30,94 -8,23 -15,46 -22,67 -7,22 -15,46 -24,73 -9,27 -22,63 -38,109zm494 183l79 -90c30,24 64,43 102,57 39,14 79,22 122,22 49,0 87,-10 115,-31 28,-20 42,-47 42,-80 0,-62 -34,-98 -103,-107 -18,-2 -35,-4 -51,-6 -16,-2 -34,-5 -54,-8 -68,-9 -120,-34 -156,-75 -36,-41 -54,-90 -54,-147 0,-67 22,-123 67,-166 45,-44 108,-65 190,-65 49,0 95,8 138,23 43,16 83,35 119,59l-67 99c-29,-18 -60,-33 -93,-44 -33,-11 -67,-17 -102,-17 -37,0 -68,9 -94,28 -26,19 -38,47 -38,85 0,22 9,43 26,63 17,19 46,32 86,39 11,2 23,4 38,6 15,2 32,4 51,6 74,9 128,36 163,80 35,44 53,94 53,148 0,73 -25,129 -75,169 -50,40 -118,60 -202,60 -119,0 -220,-36 -302,-108zm903 5l96 -70c25,36 60,54 105,54 30,0 60,-11 91,-32 31,-21 46,-59 46,-113l0 -533 120 0 0 545c0,79 -26,141 -78,185 -53,44 -111,66 -174,66 -46,0 -86,-9 -120,-29 -35,-19 -63,-44 -85,-75zm602 -298c0,-95 2,-156 8,-184 5,-27 14,-53 27,-76 19,-34 49,-67 91,-97 42,-30 94,-46 156,-46 62,0 114,15 156,46 42,30 73,63 92,97 13,23 21,48 26,76 5,27 8,89 8,184 0,95 -2,156 -8,184 -5,28 -14,53 -26,76 -19,35 -50,67 -92,97 -42,30 -94,45 -156,45 -62,0 -114,-15 -156,-45 -42,-30 -72,-62 -91,-97 -13,-23 -22,-48 -27,-76 -5,-27 -8,-89 -8,-184zm120 0c0,81 3,134 8,158 6,24 16,46 32,66 12,16 28,30 49,41 21,11 45,17 73,17 28,0 53,-6 73,-17 21,-11 37,-25 49,-41 16,-19 26,-41 32,-66 6,-24 8,-77 8,-158 0,-81 -3,-134 -8,-158 -6,-24 -16,-46 -32,-67 -12,-15 -28,-29 -49,-40 -21,-11 -45,-17 -73,-17 -28,0 -53,6 -73,17 -21,12 -37,25 -49,40 -16,20 -26,43 -32,67 -6,24 -8,77 -8,158zm528 293l79 -90c30,24 64,43 102,57 39,14 79,22 122,22 49,0 87,-10 115,-31 28,-20 42,-47 42,-80 0,-62 -34,-98 -103,-107 -18,-2 -35,-4 -51,-6 -16,-2 -33,-5 -54,-8 -68,-9 -120,-34 -156,-75 -36,-41 -54,-90 -54,-147 0,-67 22,-123 67,-166 45,-44 108,-65 190,-65 49,0 95,8 138,23 43,16 83,35 119,59l-67 99c-29,-18 -60,-33 -93,-44 -33,-11 -67,-17 -102,-17 -37,0 -68,9 -94,28 -26,19 -38,47 -38,85 0,22 9,43 26,63 17,19 46,32 86,39 11,2 23,4 38,6 15,2 32,4 51,6 74,9 128,36 163,80 35,44 53,94 53,148 0,73 -25,129 -75,169 -50,40 -118,60 -202,60 -119,0 -220,-36 -302,-108zm719 102l0 -790 120 0 0 677 386 0 0 113 -505 0zm547 -1l288 -791 99 0 288 791 -126 0 -61 -178 -300 0 -63 178 -126 0zm225 -284l229 0c-17,-49 -30,-87 -39,-115 -10,-28 -18,-52 -25,-73 -7,-21 -14,-43 -21,-65 -7,-22 -17,-52 -29,-90 -13,39 -23,70 -30,94 -8,23 -15,46 -22,67 -7,22 -15,46 -24,73 -9,27 -22,63 -38,109zm-7763 1560l0 -790 306 0c77,0 135,20 175,59 40,40 59,91 59,153 0,33 -8,64 -24,94 -16,30 -47,55 -93,76l0 2c43,10 76,33 97,68 21,36 32,73 32,114 0,68 -22,123 -65,163 -44,41 -95,61 -154,61l-334 0zm304 -351l-184 0 0 238 184 0c44,0 77,-12 98,-36 21,-24 31,-52 31,-83 0,-31 -10,-59 -31,-83 -21,-24 -53,-36 -98,-36zm-11 -333l-173 0 0 227 173 0c43,0 75,-11 96,-33 21,-22 31,-49 31,-80 0,-30 -11,-57 -31,-79 -21,-23 -53,-34 -96,-34zm370 289c0,-95 2,-156 8,-184 5,-27 14,-53 27,-76 19,-34 49,-67 91,-97 42,-30 94,-46 156,-46 62,0 114,15 156,46 42,30 73,63 92,97 13,23 21,48 26,76 5,27 8,89 8,184 0,95 -2,156 -8,184 -5,28 -14,53 -26,76 -19,35 -50,67 -92,97 -42,30 -94,45 -156,45 -62,0 -114,-15 -156,-45 -42,-30 -72,-62 -91,-97 -13,-23 -22,-48 -27,-76 -5,-27 -8,-89 -8,-184zm120 0c0,81 3,134 8,158 6,24 16,46 32,66 12,16 28,30 49,41 21,11 45,17 73,17 28,0 53,-6 73,-17 21,-11 37,-25 49,-41 16,-19 26,-41 32,-66 6,-24 8,-77 8,-158 0,-81 -3,-134 -8,-158 -6,-24 -16,-46 -32,-67 -12,-15 -28,-29 -49,-40 -21,-11 -45,-17 -73,-17 -28,0 -53,6 -73,17 -21,12 -37,25 -49,40 -16,20 -26,43 -32,67 -6,24 -8,77 -8,158zm717 -289l0 240 181 0c45,0 78,-13 101,-38 22,-25 34,-54 34,-88 0,-40 -14,-70 -40,-90 -22,-16 -51,-24 -87,-24l-188 0zm-120 684l0 -790 309 0c68,0 121,17 160,52 22,19 41,43 56,72 15,29 23,61 23,97 0,51 -14,96 -41,135 -27,39 -65,67 -113,83l183 351 -142 0 -163 -337 -153 0 0 337 -120 0zm690 0l0 -790 277 0c108,0 188,44 241,133 20,34 31,65 36,94 4,29 7,85 7,168 0,89 -3,148 -9,178 -6,30 -18,58 -36,86 -24,37 -56,68 -97,93 -41,25 -91,38 -149,38l-269 0zm120 -677l0 564 144 0c66,0 115,-23 146,-69 13,-20 21,-41 25,-64 4,-23 5,-71 5,-144 0,-71 -2,-120 -6,-147 -4,-27 -14,-52 -29,-73 -33,-44 -80,-66 -141,-66l-144 0zm592 677l0 -790 505 0 0 113 -386 0 0 225 329 0 0 107 -329 0 0 232 386 0 0 113 -505 0zm750 -684l0 240 181 0c45,0 78,-13 101,-38 22,-25 34,-54 34,-88 0,-40 -14,-70 -40,-90 -22,-16 -51,-24 -87,-24l-188 0zm-120 684l0 -790 309 0c68,0 121,17 160,52 22,19 41,43 56,72 15,29 23,61 23,97 0,51 -14,96 -41,135 -27,39 -65,67 -113,83l183 351 -142 0 -163 -337 -153 0 0 337 -120 0zm690 0l0 -790 120 0 0 677 386 0 0 113 -505 0zm547 -1l288 -791 99 0 288 791 -126 0 -61 -178 -300 0 -63 178 -126 0zm225 -284l229 0c-17,-49 -30,-87 -39,-115 -10,-28 -18,-52 -25,-73 -7,-21 -14,-43 -21,-65 -7,-22 -17,-52 -29,-90 -13,39 -23,70 -30,94 -8,23 -15,46 -22,67 -7,22 -15,46 -24,73 -9,27 -22,63 -38,109zm563 285l0 -790 113 0 357 562 2 0 0 -562 120 0 0 790 -113 0 -357 -562 -3 0 0 562 -120 0zm772 0l0 -790 277 0c108,0 188,44 241,133 20,34 31,65 36,94 4,29 7,85 7,168 0,89 -3,148 -9,178 -6,30 -18,58 -36,86 -24,37 -56,68 -97,93 -41,25 -91,38 -149,38l-269 0zm120 -677l0 564 144 0c66,0 115,-23 146,-69 13,-20 21,-41 25,-64 4,-23 5,-71 5,-144 0,-71 -2,-120 -6,-147 -4,-27 -14,-52 -29,-73 -33,-44 -80,-66 -141,-66l-144 0z"/>
  <polygon class="fil1" points="4849,524 4719,393 4819,394 4894,469 4968,393 5069,393 4939,524 "/>
 </g>
</svg>
