<?xml version="1.0" encoding="UTF-8"?>
<!DOCTYPE svg PUBLIC "-//W3C//DTD SVG 1.1//EN" "http://www.w3.org/Graphics/SVG/1.1/DTD/svg11.dtd">
<!-- Creator: CorelDRAW X6 -->
<svg xmlns="http://www.w3.org/2000/svg" xml:space="preserve" width="112.989mm" height="35.45mm" version="1.1" style="shape-rendering:geometricPrecision; text-rendering:geometricPrecision; image-rendering:optimizeQuality; fill-rule:evenodd; clip-rule:evenodd"
viewBox="0 0 10181 3194"
 xmlns:xlink="http://www.w3.org/1999/xlink">
 <defs>
  <style type="text/css">
   <![CDATA[
    .fil0 {fill:blue}
    .fil2 {fill:red}
    .fil1 {fill:#FEFEFE;fill-rule:nonzero}
   ]]>
  </style>
 </defs>
 <g id="Layer_x0020_1">
  <metadata id="CorelCorpID_0Corel-Layer"/>
  <path class="fil0" d="M150 0c-83,0 -150,67 -150,150l0 1421 0 1421 0 52c0,83 67,150 150,150l9881 0c83,0 150,-67 150,-150l0 -2895c0,-83 -67,-150 -150,-150l-9881 0z"/>
  <path class="fil1" d="M497 682l0 252 176 0c44,0 77,-13 98,-40 22,-27 32,-55 32,-86 0,-47 -17,-82 -51,-104 -22,-15 -50,-22 -84,-22l-171 0zm-119 669l0 -781 284 0c30,0 60,3 88,10 28,6 57,21 88,45 24,18 44,43 60,75 16,32 25,69 25,111 0,56 -21,109 -62,159 -42,50 -103,76 -183,76l-180 0 0 305 -119 0zm663 0l0 -781 119 0 0 781 -119 0zm296 0l0 -781 500 0 0 112 -381 0 0 222 325 0 0 106 -325 0 0 229 381 0 0 111 -500 0zm741 -676l0 237 179 0c44,0 78,-12 100,-37 22,-25 33,-54 33,-87 0,-40 -13,-69 -40,-89 -22,-16 -51,-24 -86,-24l-186 0zm-119 676l0 -781 305 0c67,0 120,17 159,52 22,19 40,43 55,71 15,29 23,60 23,95 0,50 -14,95 -40,134 -27,39 -64,66 -111,82l181 347 -140 0 -161 -333 -152 0 0 333 -119 0zm656 -390c0,-94 2,-155 8,-182 5,-27 14,-52 27,-75 18,-34 48,-66 90,-96 42,-30 93,-45 155,-45 61,0 112,15 154,45 42,30 72,62 91,96 12,23 21,48 26,75 5,27 8,88 8,182 0,94 -2,155 -8,182 -5,27 -14,52 -26,75 -19,34 -49,66 -91,96 -42,30 -93,44 -154,44 -61,0 -113,-15 -155,-44 -42,-29 -72,-61 -90,-96 -13,-23 -22,-48 -27,-75 -5,-27 -8,-88 -8,-182zm118 0c0,80 3,133 8,157 6,24 16,46 31,65 12,16 28,29 48,40 20,11 45,17 72,17 28,0 52,-6 72,-17 20,-11 37,-25 48,-40 15,-19 26,-41 31,-65 5,-24 8,-76 8,-157 0,-80 -3,-132 -8,-156 -6,-24 -16,-46 -31,-66 -12,-15 -28,-28 -48,-40 -20,-11 -44,-17 -72,-17 -28,0 -52,6 -72,17 -20,12 -36,25 -48,40 -15,20 -26,42 -31,66 -5,24 -8,76 -8,156zm590 390l0 -781 303 0c76,0 134,20 173,59 39,39 59,89 59,151 0,32 -8,63 -24,93 -16,30 -46,55 -92,75l0 2c43,10 75,33 96,68 21,35 31,73 31,112 0,67 -21,121 -65,161 -43,40 -94,60 -152,60l-330 0zm301 -347l-182 0 0 235 182 0c44,0 76,-12 97,-36 21,-24 31,-51 31,-82 0,-31 -10,-58 -31,-82 -20,-24 -53,-36 -97,-36zm-11 -329l-171 0 0 224 171 0c42,0 74,-11 95,-33 21,-22 31,-48 31,-79 0,-30 -10,-56 -31,-78 -21,-22 -52,-33 -95,-33zm392 676l0 -781 500 0 0 112 -381 0 0 222 325 0 0 106 -325 0 0 229 381 0 0 111 -500 0zm575 0l0 -99 355 -577 -340 0 0 -105 485 0 0 89 -356 580 356 0 0 111 -500 0zm547 -1l285 -781 98 0 285 781 -124 0 -60 -176 -296 0 -62 176 -125 0zm222 -281l226 0c-16,-48 -29,-86 -39,-113 -10,-27 -18,-52 -25,-73 -7,-21 -14,-42 -21,-64 -7,-22 -17,-51 -28,-89 -12,39 -22,70 -30,93 -8,23 -15,45 -22,67 -7,22 -15,45 -24,72 -9,26 -21,62 -37,108zm488 181l78 -89c29,24 63,42 101,57 38,14 78,22 120,22 48,0 86,-10 114,-30 27,-20 41,-46 41,-79 0,-61 -34,-97 -102,-106 -18,-2 -35,-4 -50,-6 -15,-2 -33,-5 -54,-8 -67,-9 -119,-34 -154,-74 -35,-40 -53,-89 -53,-146 0,-66 22,-121 67,-164 44,-43 107,-64 188,-64 48,0 94,8 136,23 43,15 82,35 117,59l-66 97c-29,-18 -59,-32 -92,-44 -33,-11 -67,-16 -101,-16 -36,0 -67,9 -93,28 -25,19 -38,46 -38,84 0,22 9,43 26,62 17,19 46,32 85,38 10,2 23,4 38,6 15,2 31,4 50,6 73,9 127,35 162,79 35,44 52,93 52,146 0,72 -25,128 -74,167 -50,40 -116,59 -200,59 -118,0 -217,-36 -299,-107zm893 5l95 -69c24,35 59,53 104,53 30,0 59,-11 90,-31 30,-21 45,-58 45,-111l0 -527 118 0 0 539c0,78 -26,139 -78,183 -52,44 -109,66 -172,66 -45,0 -85,-9 -119,-28 -34,-19 -62,-43 -84,-74zm595 -295c0,-94 2,-155 7,-182 5,-27 14,-52 27,-75 18,-34 48,-66 90,-96 42,-30 93,-45 155,-45 61,0 112,15 154,45 42,30 72,62 91,96 12,23 21,48 26,75 5,27 7,88 7,182 0,94 -2,155 -7,182 -5,27 -14,52 -26,75 -19,34 -49,66 -91,96 -42,30 -93,44 -154,44 -61,0 -113,-15 -155,-44 -42,-29 -72,-61 -90,-96 -13,-23 -22,-48 -27,-75 -5,-27 -7,-88 -7,-182zm118 0c0,80 3,133 8,157 6,24 16,46 31,65 12,16 28,29 48,40 20,11 45,17 72,17 28,0 52,-6 72,-17 20,-11 37,-25 48,-40 15,-19 26,-41 31,-65 5,-24 8,-76 8,-157 0,-80 -3,-132 -8,-156 -6,-24 -16,-46 -31,-66 -12,-15 -28,-28 -48,-40 -20,-11 -44,-17 -72,-17 -28,0 -52,6 -72,17 -20,12 -36,25 -48,40 -15,20 -26,42 -31,66 -5,24 -8,76 -8,156zm522 289l78 -89c29,24 63,42 101,57 38,14 78,22 120,22 48,0 86,-10 114,-30 27,-20 41,-46 41,-79 0,-61 -34,-97 -102,-106 -18,-2 -35,-4 -50,-6 -15,-2 -33,-5 -54,-8 -67,-9 -119,-34 -154,-74 -35,-40 -53,-89 -53,-146 0,-66 22,-121 67,-164 44,-43 107,-64 188,-64 48,0 94,8 136,23 43,15 82,35 117,59l-66 97c-29,-18 -59,-32 -92,-44 -33,-11 -67,-16 -101,-16 -36,0 -67,9 -93,28 -25,19 -38,46 -38,84 0,22 9,43 26,62 17,19 46,32 85,38 10,2 23,4 38,6 15,2 31,4 50,6 73,9 127,35 162,79 35,44 52,93 52,146 0,72 -25,128 -74,167 -50,40 -116,59 -200,59 -118,0 -217,-36 -299,-107zm710 101l0 -781 119 0 0 669 381 0 0 111 -500 0zm541 -1l285 -781 98 0 285 781 -124 0 -60 -176 -296 0 -62 176 -125 0zm222 -281l226 0c-16,-48 -29,-86 -39,-113 -10,-27 -18,-52 -25,-73 -7,-21 -14,-42 -21,-64 -7,-22 -17,-51 -28,-89 -12,39 -22,70 -30,93 -7,23 -15,45 -22,67 -7,22 -15,45 -24,72 -9,26 -21,62 -37,108zm-7672 1542l0 -781 303 0c76,0 134,20 173,59 39,39 59,89 59,151 0,32 -8,63 -24,93 -16,30 -46,55 -92,75l0 2c43,10 75,33 96,68 21,35 31,73 31,112 0,67 -21,121 -65,161 -43,40 -94,60 -152,60l-330 0zm301 -347l-182 0 0 235 182 0c44,0 76,-12 97,-36 21,-24 31,-51 31,-82 0,-31 -10,-58 -31,-82 -20,-24 -53,-36 -97,-36zm-11 -329l-171 0 0 224 171 0c42,0 74,-11 95,-33 21,-22 31,-48 31,-79 0,-30 -10,-56 -31,-78 -21,-22 -52,-33 -95,-33zm366 286c0,-94 2,-155 7,-182 5,-27 14,-52 27,-75 18,-34 48,-66 90,-96 42,-30 93,-45 155,-45 61,0 112,15 154,45 42,30 72,62 91,96 12,23 21,48 26,75 5,27 7,88 7,182 0,94 -2,155 -7,182 -5,27 -14,52 -26,75 -19,34 -49,66 -91,96 -42,30 -93,44 -154,44 -61,0 -113,-15 -155,-44 -42,-29 -72,-61 -90,-96 -13,-23 -22,-48 -27,-75 -5,-27 -7,-88 -7,-182zm118 0c0,80 3,133 8,157 6,24 16,46 31,65 12,16 28,29 48,40 20,11 45,17 72,17 28,0 52,-6 72,-17 20,-11 37,-25 48,-40 15,-19 26,-41 31,-65 5,-24 8,-76 8,-157 0,-80 -3,-132 -8,-156 -6,-24 -16,-46 -31,-66 -12,-15 -28,-28 -48,-40 -20,-11 -44,-17 -72,-17 -28,0 -52,6 -72,17 -20,12 -36,25 -48,40 -15,20 -26,42 -31,66 -5,24 -8,76 -8,156zm708 -286l0 237 179 0c44,0 78,-12 100,-37 22,-25 33,-54 33,-87 0,-40 -13,-69 -40,-89 -22,-16 -51,-24 -86,-24l-186 0zm-119 676l0 -781 305 0c67,0 120,17 159,52 22,19 40,43 55,71 15,29 23,60 23,95 0,50 -14,95 -40,134 -27,39 -64,66 -111,82l181 347 -140 0 -161 -333 -152 0 0 333 -119 0zm682 0l0 -781 273 0c107,0 186,44 238,131 19,33 31,64 35,93 4,29 7,84 7,166 0,88 -3,147 -9,176 -6,29 -18,58 -35,85 -23,36 -55,67 -96,92 -40,25 -90,37 -148,37l-266 0zm119 -669l0 557 142 0c65,0 113,-23 145,-68 13,-20 21,-41 24,-63 3,-23 5,-70 5,-143 0,-70 -2,-119 -6,-145 -4,-27 -13,-51 -29,-72 -33,-44 -79,-65 -139,-65l-142 0zm585 669l0 -781 500 0 0 112 -381 0 0 222 325 0 0 106 -325 0 0 229 381 0 0 111 -500 0zm741 -676l0 237 179 0c44,0 78,-12 100,-37 22,-25 33,-54 33,-87 0,-40 -13,-69 -40,-89 -22,-16 -51,-24 -86,-24l-186 0zm-119 676l0 -781 305 0c67,0 120,17 159,52 22,19 40,43 55,71 15,29 23,60 23,95 0,50 -14,95 -40,134 -27,39 -64,66 -111,82l181 347 -140 0 -161 -333 -152 0 0 333 -119 0zm682 0l0 -781 119 0 0 669 381 0 0 111 -500 0zm541 -1l285 -781 98 0 285 781 -124 0 -60 -176 -296 0 -62 176 -125 0zm222 -281l226 0c-16,-48 -29,-86 -39,-113 -10,-27 -18,-52 -25,-73 -7,-21 -14,-42 -21,-64 -7,-22 -17,-51 -28,-89 -12,39 -22,70 -30,93 -7,23 -15,45 -22,67 -7,22 -15,45 -24,72 -9,26 -21,62 -37,108zm556 281l0 -781 112 0 353 555 2 0 0 -555 119 0 0 781 -112 0 -353 -555 -3 0 0 555 -119 0zm763 0l0 -781 273 0c107,0 186,44 238,131 19,33 31,64 35,93 4,29 7,84 7,166 0,88 -3,147 -9,176 -6,29 -18,58 -35,85 -23,36 -55,67 -96,92 -40,25 -90,37 -148,37l-266 0zm119 -669l0 557 142 0c65,0 113,-23 145,-68 13,-20 21,-41 24,-63 3,-23 5,-70 5,-143 0,-70 -2,-119 -6,-145 -4,-27 -13,-51 -29,-72 -33,-44 -79,-65 -139,-65l-142 0z"/>
  <path class="fil2" d="M0 2885l9405 -2885 632 0c45,1 83,24 108,52 21,23 36,57 36,97l-1 160 -9403 2884 -628 0c-41,0 -82,-19 -110,-50 -30,-32 -40,-72 -39,-114l0 -146z"/>
  <polygon class="fil1" points="4792,518 4664,389 4763,390 4836,463 4910,389 5010,389 4881,518 "/>
 </g>
</svg>
