<?xml version="1.0" encoding="UTF-8"?>
<!DOCTYPE svg PUBLIC "-//W3C//DTD SVG 1.1//EN" "http://www.w3.org/Graphics/SVG/1.1/DTD/svg11.dtd">
<!-- Creator: CorelDRAW X6 -->
<svg xmlns="http://www.w3.org/2000/svg" xml:space="preserve" width="79.5213mm" height="33.3477mm" version="1.1" style="shape-rendering:geometricPrecision; text-rendering:geometricPrecision; image-rendering:optimizeQuality; fill-rule:evenodd; clip-rule:evenodd"
viewBox="0 0 4156 1743"
 xmlns:xlink="http://www.w3.org/1999/xlink">
 <defs>
  <style type="text/css">
   <![CDATA[
    .fil0 {fill:blue}
    .fil1 {fill:#FEFEFE;fill-rule:nonzero}
   ]]>
  </style>
 </defs>
 <g id="Layer_x0020_1">
  <metadata id="CorelCorpID_0Corel-Layer"/>
  <path class="fil0" d="M4156 1689c0,-545 0,-1090 0,-1636 0,-30 -24,-54 -54,-54 -1349,0 -2699,0 -4048,0l0 0c-30,0 -54,24 -54,54l0 270c0,455 0,910 0,1366l0 0c0,30 24,54 54,54l0 0c1350,0 2699,0 4049,0 30,0 54,-24 54,-54z"/>
  <path class="fil1" d="M685 520l-46 -93 -42 0 0 93 -33 0 0 -220 85 0c21,0 37,6 50,18 12,12 19,27 19,46 0,15 -4,28 -13,38 -8,10 -18,17 -31,20l51 98 -39 0zm-1 -156c0,-11 -3,-19 -10,-25 -7,-6 -16,-9 -27,-9l-50 0 0 69 50 0c11,0 20,-3 27,-9 7,-6 10,-15 10,-25z"/>
  <path class="fil1" d="M919 410c0,26 -1,43 -2,52 -2,14 -9,27 -19,37 -16,16 -35,24 -58,24 -23,0 -42,-8 -58,-24 -10,-10 -16,-22 -19,-37 -2,-9 -2,-26 -2,-52 0,-26 1,-43 2,-52 3,-14 9,-27 19,-37 16,-16 35,-24 58,-24 23,0 43,8 58,24 10,10 16,22 19,37 2,9 2,26 2,52zm-33 0c0,-36 -4,-59 -13,-68 -8,-9 -19,-14 -33,-14 -13,0 -24,5 -33,14 -9,9 -13,32 -13,68 0,36 4,59 13,68 8,9 19,14 33,14 13,0 24,-5 33,-14 9,-9 13,-32 13,-68z"/>
  <path class="fil1" d="M1128 458c0,20 -6,35 -19,46 -12,11 -28,16 -48,16l-89 0 0 -220 86 0c20,0 37,5 49,16 12,11 18,26 18,44 0,11 -3,21 -9,30 -6,8 -12,13 -20,17 22,9 33,26 33,51zm-33 -2c0,-10 -3,-18 -9,-24 -7,-6 -16,-9 -27,-9l-53 0 0 67 53 0c11,0 20,-3 27,-10 6,-6 9,-14 9,-24zm-3 -95c0,-10 -3,-18 -10,-24 -6,-5 -15,-8 -26,-8l-50 0 0 63 50 0c11,0 20,-3 26,-8 7,-6 10,-13 10,-24z"/>
  <polygon class="fil1" points="1180,520 1180,300 1321,300 1321,330 1214,330 1214,394 1305,394 1305,424 1214,424 1214,490 1321,490 1321,520 "/>
  <path class="fil1" d="M1356 520l0 -29 102 -162 -98 0 0 -30 137 0 0 27 -102 163 102 0 0 30 -141 0zm85 -242l-27 0 -40 -50 26 0 27 30 27 -30 26 0 -40 50z"/>
  <path class="fil1" d="M1682 457c0,20 -7,36 -22,48 -14,11 -33,17 -57,17 -33,0 -59,-10 -78,-29l22 -22c14,14 33,21 56,21 30,0 46,-11 46,-34 0,-10 -3,-18 -9,-23 -5,-5 -13,-8 -24,-9l-26 -4c-18,-2 -32,-8 -42,-18 -11,-10 -16,-24 -16,-42 0,-19 7,-35 20,-47 13,-12 31,-18 54,-18 28,0 50,8 68,25l-21 21c-12,-11 -28,-17 -48,-17 -13,0 -22,3 -30,10 -7,6 -11,14 -11,24 0,9 3,15 8,20 6,5 14,9 25,10l25 4c18,3 32,8 41,16 12,11 18,26 18,45zm-63 -179l-27 0 -40 -50 26 0 27 30 27 -30 26 0 -40 50z"/>
  <path class="fil1" d="M1862 520l-62 -109 -37 45 0 64 -33 0 0 -220 33 0 0 111 90 -111 41 0 -72 86 79 134 -39 0zm-69 20l31 0 -22 46 -25 0 16 -46z"/>
  <path class="fil1" d="M1937 520l0 -220 141 0 0 30 -107 0 0 64 92 0 0 30 -92 0 0 66 107 0 0 30 -141 0zm16 -249l0 -23 96 0 0 23 -96 0z"/>
  <path class="fil1" d="M2248 520l-46 -93 -42 0 0 93 -33 0 0 -220 85 0c21,0 37,6 50,18 12,12 19,27 19,46 0,15 -4,28 -13,38 -8,10 -18,17 -31,20l51 98 -39 0zm-1 -156c0,-11 -3,-19 -10,-25 -7,-6 -16,-9 -27,-9l-50 0 0 69 50 0c11,0 20,-3 27,-9 7,-6 10,-15 10,-25z"/>
  <path class="fil1" d="M2470 457c0,20 -7,36 -22,48 -14,11 -33,17 -57,17 -33,0 -59,-10 -78,-29l22 -22c14,14 33,21 56,21 30,0 46,-11 46,-34 0,-10 -3,-18 -9,-23 -5,-5 -13,-8 -24,-9l-26 -4c-18,-2 -32,-8 -42,-18 -11,-10 -16,-24 -16,-42 0,-19 7,-35 20,-47 13,-12 31,-18 54,-18 28,0 50,8 68,25l-21 21c-12,-11 -28,-17 -48,-17 -13,0 -22,3 -30,10 -7,6 -11,14 -11,24 0,9 3,15 8,20 6,5 14,9 25,10l25 4c18,3 32,8 41,16 12,11 18,26 18,45z"/>
  <path class="fil1" d="M2669 410c0,26 -1,43 -2,52 -2,14 -9,27 -19,37 -16,16 -35,24 -58,24 -23,0 -42,-8 -58,-24 -10,-10 -16,-22 -19,-37 -2,-9 -2,-26 -2,-52 0,-26 1,-43 2,-52 3,-14 9,-27 19,-37 16,-16 35,-24 58,-24 23,0 43,8 58,24 10,10 16,22 19,37 2,9 2,26 2,52zm-33 0c0,-36 -4,-59 -13,-68 -8,-9 -19,-14 -33,-14 -13,0 -24,5 -33,14 -9,9 -13,32 -13,68 0,36 4,59 13,68 8,9 19,14 33,14 13,0 24,-5 33,-14 9,-9 13,-32 13,-68z"/>
  <path class="fil1" d="M2859 457c0,20 -7,36 -22,48 -14,11 -33,17 -57,17 -33,0 -59,-10 -78,-29l22 -22c14,14 33,21 56,21 30,0 46,-11 46,-34 0,-10 -3,-18 -9,-23 -5,-5 -13,-8 -24,-9l-26 -4c-18,-2 -32,-8 -42,-18 -11,-10 -16,-24 -16,-42 0,-19 7,-35 20,-47 13,-12 31,-18 54,-18 28,0 50,8 68,25l-21 21c-12,-11 -28,-17 -48,-17 -13,0 -22,3 -30,10 -7,6 -11,14 -11,24 0,9 3,15 8,20 6,5 14,9 25,10l25 4c18,3 32,8 41,16 12,11 18,26 18,45zm-63 -179l-27 0 -40 -50 26 0 27 30 27 -30 26 0 -40 50z"/>
  <path class="fil1" d="M3034 520l-15 -44 -87 0 -15 44 -36 0 81 -220 27 0 81 220 -36 0zm-58 -171l-34 98 68 0 -33 -98z"/>
  <polygon class="fil1" points="3239,520 3137,365 3137,520 3104,520 3104,300 3134,300 3236,454 3236,300 3270,300 3270,520 "/>
  <path class="fil1" d="M3457 520l-15 -44 -87 0 -15 44 -36 0 81 -220 27 0 81 220 -36 0zm-58 -171l-34 98 68 0 -33 -98z"/>
  <path class="fil1" d="M3665 457c0,20 -7,36 -22,48 -14,11 -33,17 -57,17 -33,0 -59,-10 -78,-29l22 -22c14,14 33,21 56,21 30,0 46,-11 46,-34 0,-10 -3,-18 -9,-23 -5,-5 -13,-8 -24,-9l-26 -4c-18,-2 -32,-8 -42,-18 -11,-10 -16,-24 -16,-42 0,-19 7,-35 20,-47 13,-12 31,-18 54,-18 28,0 50,8 68,25l-21 21c-12,-11 -28,-17 -48,-17 -13,0 -22,3 -30,10 -7,6 -11,14 -11,24 0,9 3,15 8,20 6,5 14,9 25,10l25 4c18,3 32,8 41,16 12,11 18,26 18,45z"/>
  <polygon class="fil1" points="1801,868 1775,868 1703,648 1737,648 1788,808 1839,648 1874,648 "/>
  <polygon class="fil1" points="1907,868 1907,648 1941,648 1941,868 "/>
  <polygon class="fil1" points="2002,868 2002,648 2142,648 2142,678 2035,678 2035,742 2127,742 2127,772 2035,772 2035,838 2142,838 2142,868 "/>
  <polygon class="fil1" points="2266,678 2266,868 2233,868 2233,678 2172,678 2172,648 2327,648 2327,678 "/>
  <path class="fil1" d="M2476 868l-15 -44 -87 0 -15 44 -36 0 81 -220 27 0 81 220 -36 0zm-58 -171l-34 98 68 0 -33 -98z"/>
  <path class="fil1" d="M895 1154c0,20 -6,35 -19,46 -12,11 -28,16 -48,16l-89 0 0 -220 86 0c20,0 37,5 49,16 12,11 18,26 18,44 0,11 -3,21 -9,30 -6,8 -12,13 -20,17 22,9 33,26 33,51zm-33 -2c0,-10 -3,-18 -9,-24 -7,-6 -16,-9 -27,-9l-53 0 0 67 53 0c11,0 20,-3 27,-10 6,-6 9,-14 9,-24zm-3 -95c0,-10 -3,-18 -10,-24 -6,-5 -15,-8 -26,-8l-50 0 0 63 50 0c11,0 20,-3 26,-8 7,-6 10,-13 10,-24z"/>
  <path class="fil1" d="M1098 1106c0,26 -1,43 -2,52 -2,14 -9,27 -19,37 -16,16 -35,24 -58,24 -23,0 -42,-8 -58,-24 -10,-10 -16,-22 -19,-37 -2,-9 -2,-26 -2,-52 0,-26 1,-43 2,-52 3,-14 9,-27 19,-37 16,-16 35,-24 58,-24 23,0 43,8 58,24 10,10 16,22 19,37 2,9 2,26 2,52zm-33 0c0,-36 -4,-59 -13,-68 -8,-9 -19,-14 -33,-14 -13,0 -24,5 -33,14 -9,9 -13,32 -13,68 0,36 4,59 13,68 8,9 19,14 33,14 13,0 24,-5 33,-14 9,-9 13,-32 13,-68z"/>
  <path class="fil1" d="M1272 1217l-46 -93 -42 0 0 93 -33 0 0 -220 85 0c21,0 37,6 50,18 12,12 19,27 19,46 0,15 -4,28 -13,38 -8,10 -18,17 -31,20l51 98 -39 0zm-1 -156c0,-11 -3,-19 -10,-25 -7,-6 -16,-9 -27,-9l-50 0 0 69 50 0c11,0 20,-3 27,-9 7,-6 10,-15 10,-25z"/>
  <path class="fil1" d="M1513 1105c0,23 -1,40 -2,49 -3,18 -10,32 -20,42 -14,14 -33,21 -57,21l-77 0 0 -220 77 0c24,0 43,7 57,21 11,11 17,24 20,41 1,9 2,24 2,47zm-33 0c0,-34 -4,-55 -12,-64 -9,-10 -22,-15 -37,-15l-41 0 0 160 41 0c16,0 28,-5 37,-15 8,-9 12,-31 12,-67z"/>
  <polygon class="fil1" points="1566,1217 1566,996 1707,996 1707,1026 1599,1026 1599,1090 1691,1090 1691,1120 1599,1120 1599,1186 1707,1186 1707,1217 "/>
  <path class="fil1" d="M1877 1217l-46 -93 -42 0 0 93 -33 0 0 -220 85 0c21,0 37,6 50,18 12,12 19,27 19,46 0,15 -4,28 -13,38 -8,10 -18,17 -31,20l51 98 -39 0zm-1 -156c0,-11 -3,-19 -10,-25 -7,-6 -16,-9 -27,-9l-50 0 0 69 50 0c11,0 20,-3 27,-9 7,-6 10,-15 10,-25z"/>
  <path class="fil1" d="M2185 1151c-4,21 -13,38 -27,50 -14,12 -31,17 -51,17 -23,0 -42,-8 -58,-24 -10,-10 -16,-22 -19,-37 -2,-9 -2,-26 -2,-52 0,-26 1,-43 2,-52 3,-14 9,-27 19,-37 16,-16 35,-24 58,-24 21,0 38,6 52,17 14,12 23,29 27,50l-34 0c-6,-25 -21,-38 -45,-38 -13,0 -24,4 -33,13 -9,10 -13,33 -13,69 0,36 4,59 13,69 8,9 19,13 33,13 24,0 39,-13 45,-38l34 0z"/>
  <path class="fil1" d="M2355 1217l-46 -93 -42 0 0 93 -33 0 0 -220 85 0c21,0 37,6 50,18 12,12 19,27 19,46 0,15 -4,28 -13,38 -8,10 -18,17 -31,20l51 98 -39 0zm-1 -156c0,-11 -3,-19 -10,-25 -7,-6 -16,-9 -27,-9l-50 0 0 69 50 0c11,0 20,-3 27,-9 7,-6 10,-15 10,-25z"/>
  <path class="fil1" d="M2590 1106c0,26 -1,43 -2,52 -2,14 -9,27 -19,37 -16,16 -35,24 -58,24 -23,0 -42,-8 -58,-24 -10,-10 -16,-22 -19,-37 -2,-9 -2,-26 -2,-52 0,-26 1,-43 2,-52 3,-14 9,-27 19,-37 16,-16 35,-24 58,-24 23,0 43,8 58,24 10,10 16,22 19,37 2,9 2,26 2,52zm-33 0c0,-36 -4,-59 -13,-68 -8,-9 -19,-14 -33,-14 -13,0 -24,5 -33,14 -9,9 -13,32 -13,68 0,36 4,59 13,68 8,9 19,14 33,14 13,0 24,-5 33,-14 9,-9 13,-32 13,-68z"/>
  <path class="fil1" d="M2780 1154c0,20 -7,36 -22,48 -14,11 -33,17 -57,17 -33,0 -59,-10 -78,-29l22 -22c14,14 33,21 56,21 30,0 46,-11 46,-34 0,-10 -3,-18 -9,-23 -5,-5 -13,-8 -24,-9l-26 -4c-18,-2 -32,-8 -42,-18 -11,-10 -16,-24 -16,-42 0,-19 7,-35 20,-47 13,-12 31,-18 54,-18 28,0 50,8 68,25l-21 21c-12,-11 -28,-17 -48,-17 -13,0 -22,3 -30,10 -7,6 -11,14 -11,24 0,9 3,15 8,20 6,5 14,9 25,10l25 4c18,3 32,8 41,16 12,11 18,26 18,45z"/>
  <path class="fil1" d="M2964 1154c0,20 -7,36 -22,48 -14,11 -33,17 -57,17 -33,0 -59,-10 -78,-29l22 -22c14,14 33,21 56,21 30,0 46,-11 46,-34 0,-10 -3,-18 -9,-23 -5,-5 -13,-8 -24,-9l-26 -4c-18,-2 -32,-8 -42,-18 -11,-10 -16,-24 -16,-42 0,-19 7,-35 20,-47 13,-12 31,-18 54,-18 28,0 50,8 68,25l-21 21c-12,-11 -28,-17 -48,-17 -13,0 -22,3 -30,10 -7,6 -11,14 -11,24 0,9 3,15 8,20 6,5 14,9 25,10l25 4c18,3 32,8 41,16 12,11 18,26 18,45z"/>
  <polygon class="fil1" points="3012,1217 3012,996 3045,996 3045,1217 "/>
  <polygon class="fil1" points="3241,1217 3139,1061 3139,1217 3106,1217 3106,996 3137,996 3238,1151 3238,996 3272,996 3272,1217 "/>
  <path class="fil1" d="M3484 1131c0,27 -7,48 -20,62 -16,17 -36,25 -61,25 -23,0 -42,-8 -58,-24 -10,-10 -16,-22 -19,-37 -2,-9 -2,-26 -2,-52 0,-26 1,-43 2,-52 3,-14 9,-27 19,-37 16,-16 35,-24 58,-24 22,0 41,7 55,20 13,12 21,28 25,48l-34 0c-6,-26 -21,-38 -46,-38 -13,0 -24,5 -33,14 -9,10 -13,33 -13,68 0,36 4,59 13,69 8,9 19,13 33,13 15,0 27,-5 36,-15 7,-9 11,-20 11,-35l0 -12 -47 0 0 -28 80 0 0 34z"/>
  <path class="fil1" d="M1843 1411c0,19 -6,35 -19,48 -13,13 -30,19 -51,19l-50 0 0 87 -33 0 0 -220 84 0c21,0 38,6 51,19 13,13 19,29 19,48zm-33 0c0,-12 -4,-21 -11,-27 -7,-6 -16,-10 -28,-10l-48 0 0 73 48 0c12,0 21,-3 28,-10 7,-7 11,-16 11,-27z"/>
  <path class="fil1" d="M2037 1454c0,26 -1,43 -2,52 -2,14 -9,27 -19,37 -16,16 -35,24 -58,24 -23,0 -42,-8 -58,-24 -10,-10 -16,-22 -19,-37 -2,-9 -2,-26 -2,-52 0,-26 1,-43 2,-52 3,-14 9,-27 19,-37 16,-16 35,-24 58,-24 23,0 43,8 58,24 10,10 16,22 19,37 2,9 2,26 2,52zm-33 0c0,-36 -4,-59 -13,-68 -8,-9 -19,-14 -33,-14 -13,0 -24,5 -33,14 -9,9 -13,32 -13,68 0,36 4,59 13,68 8,9 19,14 33,14 13,0 24,-5 33,-14 9,-9 13,-32 13,-68z"/>
  <polygon class="fil1" points="2090,1565 2090,1344 2123,1344 2123,1565 "/>
  <polygon class="fil1" points="2319,1565 2217,1410 2217,1565 2184,1565 2184,1344 2214,1344 2316,1499 2316,1344 2350,1344 2350,1565 "/>
  <polygon class="fil1" points="2485,1374 2485,1565 2452,1565 2452,1374 2391,1374 2391,1344 2546,1344 2546,1374 "/>
 </g>
</svg>
