<?xml version="1.0" encoding="UTF-8"?>
<!DOCTYPE svg PUBLIC "-//W3C//DTD SVG 1.1//EN" "http://www.w3.org/Graphics/SVG/1.1/DTD/svg11.dtd">
<!-- Creator: CorelDRAW X6 -->
<svg xmlns="http://www.w3.org/2000/svg" xml:space="preserve" width="34.8868mm" height="52.8432mm" version="1.1" style="shape-rendering:geometricPrecision; text-rendering:geometricPrecision; image-rendering:optimizeQuality; fill-rule:evenodd; clip-rule:evenodd"
viewBox="0 0 1239 1877"
 xmlns:xlink="http://www.w3.org/1999/xlink">
 <defs>
  <style type="text/css">
   <![CDATA[
    .str0 {stroke:white;stroke-width:2.70594}
    .fil1 {fill:#FEFEFE}
    .fil0 {fill:blue}
   ]]>
  </style>
 </defs>
 <g id="Layer_x0020_1">
  <metadata id="CorelCorpID_0Corel-Layer"/>
  <polygon class="fil0" points="0,1813 0,1816 0,1819 1,1822 1,1826 2,1829 3,1832 4,1835 5,1838 6,1840 8,1843 9,1846 11,1848 13,1851 15,1853 17,1856 19,1858 21,1860 23,1862 26,1864 28,1866 31,1867 33,1869 36,1870 39,1872 42,1873 45,1874 48,1875 51,1875 54,1876 57,1876 60,1876 64,1877 1175,1877 1178,1876 1182,1876 1185,1876 1188,1875 1191,1875 1194,1874 1197,1873 1200,1872 1203,1870 1205,1869 1208,1867 1211,1866 1213,1864 1216,1862 1218,1860 1220,1858 1222,1856 1224,1853 1226,1851 1228,1848 1230,1846 1231,1843 1233,1840 1234,1838 1235,1835 1236,1832 1237,1829 1238,1826 1238,1822 1239,1819 1239,1816 1239,1813 1239,64 1239,60 1239,57 1238,54 1238,51 1237,48 1236,45 1235,42 1234,39 1233,36 1231,33 1230,31 1228,28 1226,26 1224,23 1222,21 1220,19 1218,17 1216,15 1213,13 1211,11 1208,9 1205,8 1203,6 1200,5 1197,4 1194,3 1191,2 1188,1 1185,1 1182,0 1178,0 1175,0 64,0 60,0 57,0 54,1 51,1 48,2 45,3 42,4 39,5 36,6 33,8 31,9 28,11 26,13 23,15 21,17 19,19 17,21 15,23 13,26 11,28 9,31 8,33 6,36 5,39 4,42 3,45 2,48 1,51 1,54 0,57 0,60 0,64 "/>
  <g id="_831312240">
   <path class="fil1 str0" d="M201 1259l837 0 0 191 -17 25 -99 0 -17 -25 0 -78c-188,15 -378,15 -571,0l0 79 -18 24 -95 0 -20 -26 1 -191z"/>
   <path class="fil1 str0" d="M201 1218l838 1 0 -90c-15,-92 -78,-224 -153,-319l-265 -11 -260 10c-103,149 -129,189 -158,318l0 91zm99 -143c29,0 52,23 52,52 0,29 -23,52 -52,52 -29,0 -52,-23 -52,-52 0,-29 23,-52 52,-52zm640 0c29,0 52,23 52,52 0,29 -23,52 -52,52 -29,0 -52,-23 -52,-52 0,-29 23,-52 52,-52zm-665 -57c234,-17 465,-17 691,4 -27,-69 -64,-131 -111,-186l-235 -10 -234 11c-46,55 -83,116 -111,182z"/>
  </g>
 </g>
</svg>
