<?xml version="1.0" encoding="UTF-8"?>
<!DOCTYPE svg PUBLIC "-//W3C//DTD SVG 1.1//EN" "http://www.w3.org/Graphics/SVG/1.1/DTD/svg11.dtd">
<!-- Creator: CorelDRAW X6 -->
<svg xmlns="http://www.w3.org/2000/svg" xml:space="preserve" width="34.8872mm" height="52.8474mm" version="1.1" style="shape-rendering:geometricPrecision; text-rendering:geometricPrecision; image-rendering:optimizeQuality; fill-rule:evenodd; clip-rule:evenodd"
viewBox="0 0 53094 80427"
 xmlns:xlink="http://www.w3.org/1999/xlink">
 <defs>
  <style type="text/css">
   <![CDATA[
    .fil1 {fill:#FEFEFE}
    .fil0 {fill:blue}
    .fil2 {fill:red}
   ]]>
  </style>
 </defs>
 <g id="Layer_x0020_1">
  <metadata id="CorelCorpID_0Corel-Layer"/>
  <polygon class="fil0" points="0,77684 4,77835 14,77975 32,78111 56,78246 86,78377 123,78507 166,78633 215,78757 269,78878 330,78996 395,79110 466,79221 543,79328 624,79432 710,79531 801,79626 896,79717 995,79803 1098,79884 1206,79960 1316,80031 1431,80097 1548,80157 1669,80212 1793,80261 1920,80304 2049,80340 2181,80371 2316,80395 2452,80412 2591,80423 2743,80427 50351,80427 50502,80423 50641,80412 50777,80395 50912,80371 51044,80340 51173,80304 51300,80261 51424,80212 51544,80157 51662,80097 51777,80031 51887,79960 51995,79884 52098,79803 52197,79716 52292,79626 52383,79531 52469,79432 52550,79328 52626,79221 52698,79110 52763,78996 52824,78878 52878,78757 52927,78633 52970,78507 53007,78377 53037,78246 53061,78111 53079,77974 53089,77835 53093,77684 53093,2749 53089,2598 53079,2458 53061,2322 53037,2187 53007,2055 52970,1926 52927,1799 52878,1676 52824,1555 52763,1437 52698,1323 52626,1212 52550,1105 52469,1001 52383,902 52292,807 52197,716 52098,630 51995,549 51887,473 51777,402 51662,336 51544,276 51424,221 51300,172 51173,129 51044,93 50912,62 50777,38 50641,21 50502,10 50351,6 2743,6 2591,10 2452,21 2316,38 2181,62 2049,93 1920,129 1793,172 1669,221 1548,276 1431,336 1316,402 1206,473 1098,549 995,630 896,716 801,807 710,902 624,1001 543,1105 466,1212 395,1323 330,1437 269,1555 215,1676 166,1799 123,1926 86,2055 56,2187 32,2322 14,2458 4,2597 0,2748 "/>
  <path class="fil1" d="M8622 53971l35883 19 -11 8197 -727 1083 -4260 17 -721 -1083 -5 -3326c-8046,629 -16203,653 -24486,-17l-3 3404 -776 1025 -4089 -8 -837 -1108 33 -8203z"/>
  <path class="fil1" d="M8605 52222l35897 36 -14 -3851c-641,-3930 -3363,-9614 -6575,-13689l-11366 -489 -11137 448c-4425,6371 -5540,8118 -6791,13631l-14 3915zm4239 -6114c1229,0 2225,996 2225,2225 0,1229 -997,2225 -2225,2225 -1229,0 -2225,-997 -2225,-2225 0,-1229 997,-2225 2225,-2225zm27429 0c1229,0 2225,996 2225,2225 0,1229 -997,2225 -2225,2225 -1229,0 -2225,-997 -2225,-2225 0,-1229 996,-2225 2225,-2225zm-28502 -2440c10047,-717 19928,-710 29609,171 -1152,-2937 -2736,-5597 -4752,-7979l-10092 -431 -10009 456c-1951,2378 -3536,4973 -4755,7783z"/>
  <path class="fil2" d="M53093 4500l-49498 75927 -928 -2c-1621,-62 -2653,-1354 -2664,-2624l-3 -1867 49498 -75926 901 -6c1006,43 1702,467 2227,1212 333,511 477,1069 466,1664l0 1624z"/>
 </g>
</svg>
