<?xml version="1.0" encoding="UTF-8"?>
<!DOCTYPE svg PUBLIC "-//W3C//DTD SVG 1.1//EN" "http://www.w3.org/Graphics/SVG/1.1/DTD/svg11.dtd">
<!-- Creator: CorelDRAW X6 -->
<svg xmlns="http://www.w3.org/2000/svg" xml:space="preserve" width="35.4094mm" height="35.4095mm" version="1.1" style="shape-rendering:geometricPrecision; text-rendering:geometricPrecision; image-rendering:optimizeQuality; fill-rule:evenodd; clip-rule:evenodd"
viewBox="0 0 10330 10330"
 xmlns:xlink="http://www.w3.org/1999/xlink">
 <defs>
  <style type="text/css">
   <![CDATA[
    .fil1 {fill:#FEFEFE}
    .fil0 {fill:blue}
   ]]>
  </style>
 </defs>
 <g id="Layer_x0020_1">
  <metadata id="CorelCorpID_0Corel-Layer"/>
  <polygon class="fil0" points="9825,10329 9852,10327 9879,10324 9905,10319 9930,10313 9955,10306 9980,10298 10004,10288 10028,10277 10050,10266 10073,10253 10094,10239 10115,10224 10135,10208 10155,10191 10173,10174 10191,10155 10208,10136 10224,10115 10239,10094 10253,10073 10266,10051 10277,10028 10288,10004 10298,9980 10306,9955 10313,9930 10319,9905 10324,9879 10327,9852 10329,9825 10330,9796 10330,536 10329,506 10327,479 10324,453 10319,426 10313,401 10306,376 10298,351 10288,327 10277,303 10266,280 10253,258 10239,236 10224,215 10208,195 10191,175 10173,157 10155,139 10135,122 10115,106 10094,91 10072,77 10050,65 10027,53 10003,42 9979,32 9955,24 9929,17 9904,11 9878,6 9851,3 9824,1 9795,0 532,2 503,2 475,4 449,8 423,12 397,18 372,25 348,34 324,43 300,54 277,66 255,78 234,92 213,107 193,123 174,139 155,157 138,176 121,195 106,215 91,236 77,257 64,280 53,303 42,326 33,350 24,375 17,400 11,426 7,452 3,479 1,506 0,535 0,9796 1,9826 3,9853 6,9879 11,9906 17,9931 24,9956 32,9981 42,10005 52,10029 64,10052 77,10074 91,10095 106,10116 121,10136 138,10156 156,10174 174,10192 194,10209 214,10224 235,10239 256,10253 278,10266 301,10278 325,10288 349,10298 374,10306 399,10313 424,10319 451,10324 477,10327 504,10329 534,10330 9801,10330 "/>
  <rect class="fil1" x="2507" y="592" width="760" height="1709"/>
  <rect class="fil1" x="2507" y="3076" width="760" height="1709"/>
  <rect class="fil1" x="2507" y="5545" width="760" height="1709"/>
  <rect class="fil1" x="2507" y="8028" width="760" height="1709"/>
  <polygon class="fil1" points="4216,9722 4216,7633 7444,6494 7444,3835 4216,2696 4216,607 4975,607 4975,2126 8204,3266 8204,7064 4975,8203 4975,9722 "/>
 </g>
</svg>
