<?xml version="1.0" standalone="no"?>
<!DOCTYPE svg PUBLIC "-//W3C//DTD SVG 20010904//EN"
 "http://www.w3.org/TR/2001/REC-SVG-20010904/DTD/svg10.dtd">
<svg version="1.0" xmlns="http://www.w3.org/2000/svg"
 width="500.000000pt" height="500.000000pt" viewBox="0 0 500.000000 500.000000"
 preserveAspectRatio="xMidYMid meet">

<g transform="translate(0.000000,500.000000) scale(0.100000,-0.100000)"
fill="#000000" stroke="none">
<path d="M193 3271 c-26 -12 -52 -35 -70 -62 l-28 -43 0 -660 c0 -364 3 -673
7 -688 11 -38 57 -88 95 -104 27 -12 409 -14 2310 -14 l2278 0 40 23 c22 13
49 40 62 62 l23 40 0 664 c0 643 -1 666 -20 705 -11 23 -36 52 -57 66 l-37 25
-2280 2 c-2224 3 -2282 2 -2323 -16z m4581 -117 c14 -14 16 -88 16 -663 0
-490 -3 -650 -12 -659 -9 -9 -528 -12 -2274 -12 l-2263 0 -15 22 c-14 20 -16
98 -16 653 0 555 2 633 16 653 l15 22 2259 0 c2040 0 2260 -2 2274 -16z"/>
<path d="M1140 2515 l0 -295 183 2 182 3 0 40 0 40 -142 3 -143 3 0 84 0 85
120 0 120 0 0 40 0 40 -120 0 -121 0 3 83 3 82 143 3 143 3 -3 37 -3 37 -182
3 -183 2 0 -295z"/>
<path d="M1670 2515 l0 -295 186 0 185 0 -3 43 -3 42 -137 3 -138 3 0 249 0
250 -45 0 -45 0 0 -295z"/>
<path d="M2297 2796 c-59 -22 -102 -63 -124 -120 -15 -39 -16 -268 -2 -319 34
-124 197 -177 310 -101 65 44 91 99 93 193 l1 76 -99 3 c-62 2 -102 -1 -106
-8 -4 -6 -5 -24 -2 -40 4 -29 5 -30 63 -30 l59 0 0 -30 c0 -79 -51 -130 -129
-130 -50 0 -96 37 -112 89 -15 52 -8 259 11 287 34 53 125 73 177 39 13 -9 33
-31 43 -49 17 -28 23 -31 58 -28 l40 4 -12 36 c-16 54 -82 116 -138 130 -59
15 -83 15 -131 -2z"/>
<path d="M2825 2623 c-38 -103 -86 -233 -106 -288 -21 -55 -34 -104 -30 -108
5 -5 25 -7 46 -5 37 3 39 5 58 61 l19 57 116 0 117 0 18 -60 17 -60 45 0 c25
0 45 4 45 8 0 4 -47 136 -104 293 l-104 284 -34 3 -34 3 -69 -188z m185 -200
c0 -2 -39 -3 -86 -3 -65 0 -85 3 -82 13 3 6 22 63 43 126 l38 114 43 -124 c24
-68 44 -125 44 -126z"/>
<path d="M3235 2782 c3 -15 45 -147 93 -293 l87 -264 34 0 34 0 94 280 c51
154 93 285 93 292 0 9 -15 13 -44 13 l-43 0 -26 -82 c-14 -46 -43 -138 -64
-205 -21 -68 -40 -123 -43 -123 -3 0 -17 40 -32 88 -14 48 -43 140 -63 205
l-37 117 -45 0 c-44 0 -44 -1 -38 -28z"/>
<path d="M3935 2798 c-21 -60 -159 -438 -179 -492 -14 -37 -26 -72 -26 -77 0
-5 20 -9 45 -9 l45 0 17 60 18 61 120 -3 119 -3 17 -55 16 -55 47 -3 c25 -2
46 -1 46 2 0 2 -43 123 -96 268 -53 145 -101 275 -106 291 -8 22 -16 27 -44
27 -19 0 -37 -6 -39 -12z m86 -250 c22 -62 39 -116 39 -120 0 -4 -39 -8 -86
-8 -65 0 -84 3 -81 13 3 6 22 62 43 124 21 62 40 110 43 108 2 -3 21 -55 42
-117z"/>
<path d="M860 2596 c0 -123 -4 -216 -11 -235 -19 -55 -90 -77 -151 -45 -30 15
-31 15 -57 -11 l-26 -26 23 -19 c54 -44 171 -44 237 1 64 44 70 67 73 317 l3
222 -45 0 -46 0 0 -204z"/>
</g>
</svg>
