<?xml version="1.0" standalone="no"?>
<!DOCTYPE svg PUBLIC "-//W3C//DTD SVG 20010904//EN"
 "http://www.w3.org/TR/2001/REC-SVG-20010904/DTD/svg10.dtd">
<svg version="1.0" xmlns="http://www.w3.org/2000/svg"
 width="500.000000pt" height="500.000000pt" viewBox="0 0 500.000000 500.000000"
 preserveAspectRatio="xMidYMid meet">

<g transform="translate(0.000000,500.000000) scale(0.100000,-0.100000)"
fill="#000000" stroke="none">
<path d="M193 3271 c-26 -12 -52 -35 -70 -62 l-28 -43 0 -660 c0 -364 3 -673
7 -688 11 -38 57 -88 95 -104 27 -12 409 -14 2310 -14 l2278 0 40 23 c22 13
49 40 62 62 l23 40 0 664 c0 643 -1 666 -20 705 -11 23 -36 52 -57 66 l-37 25
-2280 2 c-2224 3 -2282 2 -2323 -16z m3967 -111 c-40 -14 -319 -103 -525 -169
-104 -33 -296 -94 -425 -135 -195 -62 -236 -72 -243 -60 -4 8 -23 14 -41 14
-27 0 -35 -5 -47 -32 -13 -30 -23 -35 -149 -75 -74 -24 -140 -43 -147 -43 -7
0 -20 16 -29 35 -46 99 -185 141 -286 89 -68 -35 -107 -109 -108 -201 l0 -62
-162 -51 c-90 -28 -173 -55 -186 -60 -53 -22 -52 -26 -52 195 l0 205 -45 0
-45 0 0 -223 0 -223 -89 -27 c-77 -24 -105 -27 -225 -27 l-136 0 0 85 0 85
120 0 120 0 0 40 0 40 -120 0 -121 0 3 83 3 82 143 3 143 3 -3 37 -3 37 -182
3 -183 2 0 -294 0 -295 30 -3 c20 -2 -45 -27 -213 -80 -267 -84 -714 -227
-734 -235 -11 -4 -13 112 -13 609 0 539 2 616 16 636 l15 22 1972 -1 c1091 0
1961 -4 1947 -9z m619 -1326 c-10 -12 -332 -14 -1988 -13 l-1976 1 155 50 c85
27 241 76 345 109 105 34 244 78 310 99 66 21 226 73 355 114 l236 75 49 -25
c42 -21 61 -25 112 -22 79 5 136 42 175 113 26 48 29 51 110 77 46 14 84 23
86 19 1 -5 -13 -52 -32 -105 -39 -106 -38 -110 25 -104 30 3 34 8 52 61 l19
57 117 0 117 0 17 -60 18 -60 45 0 c24 0 44 4 44 8 0 5 -25 75 -55 157 -30 82
-53 150 -52 152 2 1 52 18 113 38 80 25 110 31 114 22 2 -6 32 -93 65 -192
l60 -180 34 0 34 0 84 250 83 251 208 66 c244 78 793 253 872 278 l55 17 3
-620 c1 -449 -1 -624 -9 -633z m-2316 846 c29 -32 35 -60 14 -60 -7 0 -60 -16
-118 -35 -57 -19 -107 -35 -111 -35 -11 0 -10 49 2 91 24 87 150 110 213 39z
m1072 -17 c-14 -59 -80 -263 -85 -263 -3 0 -21 53 -41 118 l-36 117 76 27 c96
33 94 33 86 1z m-537 -186 c20 -56 19 -57 -72 -57 l-85 0 10 28 c7 22 21 31
62 44 71 22 71 22 85 -15z m-528 -137 c0 -20 -65 -50 -109 -50 -55 0 -47 9 32
37 73 25 77 26 77 13z"/>
<path d="M870 2613 c-1 -212 -8 -258 -45 -290 -31 -27 -91 -31 -121 -8 -25 19
-26 19 -52 -5 -28 -27 -28 -36 3 -56 62 -40 165 -37 228 8 59 42 67 79 67 321
l0 217 -40 0 -40 0 0 -187z"/>
<path d="M3935 2793 c-4 -10 -40 -108 -80 -218 -40 -110 -85 -231 -99 -269
-14 -37 -26 -72 -26 -77 0 -5 20 -9 45 -9 l45 0 17 60 18 61 120 -3 119 -3 17
-55 16 -55 47 -3 c25 -2 46 -1 46 2 0 3 -43 124 -96 268 -53 145 -101 275
-106 291 -8 22 -16 27 -43 27 -22 0 -35 -6 -40 -17z m85 -243 c22 -61 40 -116
40 -121 0 -5 -39 -9 -86 -9 -65 0 -84 3 -81 13 3 6 22 62 43 124 21 62 40 111
41 109 2 -2 21 -54 43 -116z"/>
</g>
</svg>
