<?xml version="1.0" encoding="utf-8"?>
<!-- Generator: Adobe Illustrator 16.0.0, SVG Export Plug-In . SVG Version: 6.00 Build 0)  -->
<!DOCTYPE svg PUBLIC "-//W3C//DTD SVG 1.1//EN" "http://www.w3.org/Graphics/SVG/1.1/DTD/svg11.dtd">
<svg version="1.1" id="Layer_1" xmlns="http://www.w3.org/2000/svg" xmlns:xlink="http://www.w3.org/1999/xlink" x="0px" y="0px"
	 width="80.021px" height="80.021px" viewBox="0 0 80.021 80.021" enable-background="new 0 0 80.021 80.021" xml:space="preserve">
<path fill-rule="evenodd" clip-rule="evenodd" d="M39.16,21.884h18.288v13.032H39.16V21.884z M35.968,62.543V40.627h-2.633
	l-0.006,13.617c0.046,4.86-3.529,8.29-7.916,8.29c-6.203,0.006-9.674-6.119-7.522-11.11l12.275-29.538h4.718v2.768h-2.811
	L20.16,52.436c-1.308,3.291,1.006,7.346,5.015,7.346c2.866-0.297,5.343-1.687,5.425-5.57V40.627c0-1.965,1.061-2.752,2.735-2.738
	h2.633V21.886c0-2.913,1.398-4.43,4.489-4.43h15.854c2.936,0,4.34,2.122,4.349,4.416v40.662L35.968,62.543z"/>
<path fill="none" stroke="#231F20" stroke-width="0.0216" stroke-miterlimit="22.9256" d="M39.16,21.884h18.288v13.032H39.16V21.884
	z M35.968,62.543V40.627h-2.633l-0.006,13.617c0.046,4.86-3.529,8.29-7.916,8.29c-6.203,0.006-9.674-6.119-7.522-11.11
	l12.275-29.538h4.718v2.768h-2.811L20.16,52.436c-1.308,3.291,1.006,7.346,5.015,7.346c2.866-0.297,5.343-1.687,5.425-5.57V40.627
	c0-1.965,1.061-2.752,2.735-2.738h2.633V21.886c0-2.913,1.398-4.43,4.489-4.43h15.854c2.936,0,4.34,2.122,4.349,4.416v40.662
	L35.968,62.543z"/>
<polygon fill="none" stroke="#231F20" stroke-width="0.0216" stroke-miterlimit="22.9256" points="73.953,0.011 74.263,0.019 
	74.568,0.042 74.871,0.081 75.168,0.135 75.461,0.203 75.747,0.285 76.028,0.38 76.303,0.489 76.571,0.611 76.833,0.746 
	77.086,0.892 77.332,1.05 77.57,1.22 77.799,1.4 78.02,1.591 78.229,1.792 78.431,2.002 78.622,2.223 78.802,2.452 78.972,2.689 
	79.13,2.935 79.275,3.189 79.41,3.45 79.532,3.718 79.641,3.993 79.737,4.274 79.818,4.561 79.887,4.854 79.94,5.15 79.979,5.453 
	80.003,5.759 80.011,6.069 80.011,73.953 80.003,74.263 79.979,74.569 79.94,74.871 79.887,75.169 79.818,75.461 79.737,75.748 
	79.641,76.029 79.532,76.304 79.41,76.572 79.275,76.833 79.13,77.087 78.972,77.332 78.802,77.57 78.622,77.8 78.431,78.02 
	78.229,78.229 78.02,78.431 77.799,78.622 77.57,78.803 77.332,78.972 77.086,79.13 76.833,79.276 76.571,79.41 76.303,79.532 
	76.028,79.642 75.747,79.737 75.461,79.819 75.168,79.887 74.871,79.941 74.568,79.979 74.263,80.003 73.953,80.011 6.068,80.011 
	5.759,80.003 5.453,79.979 5.151,79.94 4.854,79.887 4.562,79.817 4.274,79.735 3.994,79.639 3.72,79.529 3.451,79.407 3.19,79.271 
	2.937,79.124 2.69,78.966 2.452,78.795 2.224,78.614 2.003,78.423 1.792,78.221 1.592,78.009 1.4,77.788 1.22,77.559 1.051,77.32 
	0.893,77.074 0.746,76.819 0.611,76.558 0.49,76.289 0.381,76.015 0.284,75.733 0.203,75.446 0.135,75.154 0.081,74.857 
	0.042,74.556 0.019,74.249 0.011,73.94 0.011,6.069 0.019,5.758 0.042,5.45 0.08,5.147 0.134,4.849 0.201,4.555 0.283,4.268 
	0.378,3.987 0.486,3.711 0.607,3.443 0.742,3.182 0.888,2.928 1.045,2.682 1.214,2.445 1.395,2.216 1.584,1.996 1.785,1.786 
	1.995,1.585 2.216,1.395 2.444,1.215 2.682,1.045 2.928,0.888 3.182,0.742 3.442,0.608 3.711,0.487 3.986,0.378 4.268,0.283 
	4.556,0.202 4.849,0.134 5.146,0.081 5.449,0.042 5.757,0.019 6.068,0.011 "/>
<path fill-rule="evenodd" clip-rule="evenodd" fill="#0001FE" d="M68.342,11.68v56.662H11.68V11.68H68.342z M73.936,1.411
	l0.255,0.006l0.235,0.019l0.231,0.029l0.228,0.042l0.225,0.052l0.22,0.063l0.215,0.074l0.212,0.083l0.205,0.094l0.201,0.103
	l0.195,0.113l0.189,0.122l0.184,0.13l0.176,0.139l0.17,0.147l0.163,0.155l0.155,0.163l0.147,0.169l0.14,0.177l0.13,0.184
	l0.122,0.189l0.113,0.195L78.15,4.06l0.093,0.206l0.084,0.21L78.4,4.692l0.063,0.22l0.053,0.224l0.041,0.228l0.029,0.232
	l0.019,0.235l0.006,0.256v67.849l-0.006,0.256l-0.019,0.235l-0.029,0.231l-0.041,0.228l-0.053,0.224l-0.063,0.22l-0.073,0.216
	l-0.084,0.211l-0.093,0.205l-0.104,0.201l-0.113,0.195l-0.122,0.189l-0.13,0.184l-0.14,0.177l-0.147,0.17l-0.155,0.163l-0.163,0.154
	l-0.169,0.147l-0.177,0.14l-0.184,0.131l-0.189,0.122l-0.195,0.112l-0.201,0.104l-0.205,0.094l-0.212,0.083L75.329,78.4l-0.22,0.063
	l-0.225,0.052l-0.228,0.041l-0.231,0.029l-0.235,0.019l-0.256,0.007H6.086l-0.255-0.007l-0.234-0.019l-0.23-0.029l-0.228-0.041
	l-0.224-0.053l-0.219-0.063L4.48,78.326l-0.21-0.084l-0.206-0.095l-0.201-0.104l-0.195-0.113l-0.189-0.123l-0.184-0.131
	l-0.177-0.141l-0.171-0.148l-0.163-0.156l-0.155-0.163l-0.147-0.171l-0.14-0.178l-0.131-0.185l-0.122-0.189l-0.113-0.196
	l-0.104-0.201l-0.094-0.206L1.694,75.53l-0.073-0.216l-0.063-0.22l-0.052-0.224l-0.041-0.228l-0.029-0.231l-0.019-0.234L1.41,73.923
	V6.086l0.007-0.258l0.019-0.237l0.029-0.233l0.041-0.229l0.052-0.225l0.063-0.22l0.073-0.216l0.083-0.211l0.093-0.206L1.973,3.85
	l0.112-0.195l0.121-0.188l0.13-0.183l0.138-0.176L2.62,2.938l0.155-0.162l0.162-0.155l0.169-0.146l0.177-0.138l0.183-0.13
	l0.189-0.121L3.85,1.973L4.051,1.87l0.206-0.093l0.211-0.083L4.684,1.62l0.221-0.063l0.225-0.052l0.229-0.041l0.232-0.029
	l0.237-0.019l0.258-0.006H73.936z"/>
<path fill="none" stroke="#231F20" stroke-width="0.0216" stroke-miterlimit="22.9256" d="M68.342,11.68v56.662H11.68V11.68H68.342z
	 M73.936,1.411l0.255,0.006l0.235,0.019l0.231,0.029l0.228,0.042l0.225,0.052l0.22,0.063l0.215,0.074l0.212,0.083l0.205,0.094
	l0.201,0.103l0.195,0.113l0.189,0.122l0.184,0.13l0.176,0.139l0.17,0.147l0.163,0.155l0.155,0.163l0.147,0.169l0.14,0.177
	l0.13,0.184l0.122,0.189l0.113,0.195L78.15,4.06l0.093,0.206l0.084,0.21L78.4,4.692l0.063,0.22l0.053,0.224l0.041,0.228l0.029,0.232
	l0.019,0.235l0.006,0.256v67.849l-0.006,0.256l-0.019,0.235l-0.029,0.231l-0.041,0.228l-0.053,0.224l-0.063,0.22l-0.073,0.216
	l-0.084,0.211l-0.093,0.205l-0.104,0.201l-0.113,0.195l-0.122,0.189l-0.13,0.184l-0.14,0.177l-0.147,0.17l-0.155,0.163l-0.163,0.154
	l-0.169,0.147l-0.177,0.14l-0.184,0.131l-0.189,0.122l-0.195,0.112l-0.201,0.104l-0.205,0.094l-0.212,0.083L75.329,78.4l-0.22,0.063
	l-0.225,0.052l-0.228,0.041l-0.231,0.029l-0.235,0.019l-0.256,0.007H6.086l-0.255-0.007l-0.234-0.019l-0.23-0.029l-0.228-0.041
	l-0.224-0.053l-0.219-0.063L4.48,78.326l-0.21-0.084l-0.206-0.095l-0.201-0.104l-0.195-0.113l-0.189-0.123l-0.184-0.131
	l-0.177-0.141l-0.171-0.148l-0.163-0.156l-0.155-0.163l-0.147-0.171l-0.14-0.178l-0.131-0.185l-0.122-0.189l-0.113-0.196
	l-0.104-0.201l-0.094-0.206L1.694,75.53l-0.073-0.216l-0.063-0.22l-0.052-0.224l-0.041-0.228l-0.029-0.231l-0.019-0.234L1.41,73.923
	V6.086l0.007-0.258l0.019-0.237l0.029-0.233l0.041-0.229l0.052-0.225l0.063-0.22l0.073-0.216l0.083-0.211l0.093-0.206L1.973,3.85
	l0.112-0.195l0.121-0.188l0.13-0.183l0.138-0.176L2.62,2.938l0.155-0.162l0.162-0.155l0.169-0.146l0.177-0.138l0.183-0.13
	l0.189-0.121L3.85,1.973L4.051,1.87l0.206-0.093l0.211-0.083L4.684,1.62l0.221-0.063l0.225-0.052l0.229-0.041l0.232-0.029
	l0.237-0.019l0.258-0.006H73.936z"/>
</svg>
