<?xml version="1.0" encoding="UTF-8"?>
<!DOCTYPE svg PUBLIC "-//W3C//DTD SVG 1.1//EN" "http://www.w3.org/Graphics/SVG/1.1/DTD/svg11.dtd">
<!-- Creator: CorelDRAW X6 -->
<svg xmlns="http://www.w3.org/2000/svg" xml:space="preserve" width="31.7694mm" height="31.7694mm" version="1.1" style="shape-rendering:geometricPrecision; text-rendering:geometricPrecision; image-rendering:optimizeQuality; fill-rule:evenodd; clip-rule:evenodd"
viewBox="0 0 559 559"
 xmlns:xlink="http://www.w3.org/1999/xlink">
 <defs>
  <style type="text/css">
   <![CDATA[
    .str0 {stroke:black;stroke-width:1.34197}
    .fil0 {fill:none}
    .fil1 {fill:#212220}
    .fil2 {fill:blue}
   ]]>
  </style>
 </defs>
 <g id="Layer_x0020_1">
  <metadata id="CorelCorpID_0Corel-Layer"/>
  <rect class="fil0 str0" x="72" y="72" width="416" height="416"/>
  <path class="fil1" d="M252 446l0 -191 10 -11 0 -49 -5 -5 -89 0 0 -30 94 0 0 -26 -94 0 0 -23 70 -22 103 0 0 45 -39 0 0 26 39 0 0 30 -34 0 -5 5 0 49 10 11 0 191c-7,35 -54,33 -60,0z"/>
  <path class="fil2" d="M526 0l2 0 2 0 2 0 2 0 2 0 2 0 2 1 2 1 1 1 1 1 1 1 1 1 1 1 1 1 1 1 1 1 1 1 1 1 1 1 1 1 1 1 1 1 1 1 1 1 1 2 1 2 0 2 0 2 0 2 0 2 0 2 0 2 0 492 0 2 0 2 0 2 0 2 0 2 0 2 -1 2 -1 2 -1 1 -1 1 -1 1 -1 1 -1 1 -1 1 -1 1 -1 1 -1 1 -1 1 -1 1 -1 1 -1 1 -1 1 -1 1 -1 1 -2 1 -2 1 -2 0 -2 0 -2 0 -2 0 -2 0 -2 0 -492 0 -2 0 -2 0 -2 0 -2 0 -2 0 -2 0 -2 -1 -2 -1 -1 -1 -1 -1 -1 -1 -1 -1 -1 -1 -1 -1 -1 -1 -1 -1 -1 -1 -1 -1 -1 -1 -1 -1 -1 -1 -1 -1 -1 -1 -1 -1 -1 -2 -1 -2 0 -2 0 -2 0 -2 0 -2 0 -2 0 -2 0 -492 0 -2 0 -2 0 -2 0 -2 0 -2 0 -2 1 -2 1 -2 1 -1 1 -1 1 -1 1 -1 1 -1 1 -1 1 -1 1 -1 1 -1 1 -1 1 -1 1 -1 1 -1 1 -1 1 -1 1 -1 2 -1 2 -1 2 0 2 0 2 0 2 0 2 0 2 0 492 0zm-41 74l0 411 -411 0 0 -411 411 0z"/>
 </g>
</svg>
