<?xml version="1.0" encoding="UTF-8"?>
<!DOCTYPE svg PUBLIC "-//W3C//DTD SVG 1.1//EN" "http://www.w3.org/Graphics/SVG/1.1/DTD/svg11.dtd">
<!-- Creator: CorelDRAW X6 -->
<svg xmlns="http://www.w3.org/2000/svg" xml:space="preserve" width="31.7694mm" height="31.7694mm" version="1.1" style="shape-rendering:geometricPrecision; text-rendering:geometricPrecision; image-rendering:optimizeQuality; fill-rule:evenodd; clip-rule:evenodd"
viewBox="0 0 1142 1142"
 xmlns:xlink="http://www.w3.org/1999/xlink">
 <defs>
  <style type="text/css">
   <![CDATA[
    .fil0 {fill:#212220}
    .fil1 {fill:blue}
   ]]>
  </style>
 </defs>
 <g id="Layer_x0020_1">
  <metadata id="CorelCorpID_0Corel-Layer"/>
  <path class="fil0" d="M320 796l0 -55c12,-53 25,-90 54,-132l43 -64c108,-4 213,-4 322,1l42 62c27,47 37,73 52,133l0 54 -512 0zm452 -87c18,0 32,14 32,31 0,17 -14,31 -32,31 -18,0 -32,-14 -32,-31 0,-17 14,-31 32,-31zm-392 0c18,0 32,14 32,31 0,17 -14,31 -32,31 -18,0 -32,-14 -32,-31 0,-17 14,-31 32,-31zm-15 -36c18,-39 42,-77 69,-111 98,-5 189,-4 287,0 29,31 51,74 68,113 -71,-8 -150,-10 -212,-10 -56,-1 -138,2 -211,7z"/>
  <path class="fil0" d="M231 818c74,-162 148,-325 220,-488l20 0 -224 495 -16 -8z"/>
  <polygon class="fil0" points="894,826 677,330 696,330 911,818 "/>
  <polygon class="fil0" points="695,518 643,330 659,330 713,517 "/>
  <polygon class="fil0" points="564,517 564,330 582,330 582,517 "/>
  <polygon class="fil0" points="631,518 606,330 624,330 649,517 "/>
  <polygon class="fil0" points="432,517 491,330 508,330 452,517 "/>
  <polygon class="fil0" points="496,517 526,330 543,330 514,517 "/>
  <polygon class="fil0" points="452,298 452,261 555,228 555,187 591,187 591,228 696,261 696,298 "/>
  <path class="fil0" d="M765 955l-13 -18 0 -45c-58,3 -111,6 -175,6 -68,0 -109,-2 -175,-6l0 45 -14 18 -53 0 -13 -18 0 -115 512 0 0 115 -13 18 -55 0z"/>
  <path class="fil1" d="M1073 0l4 0 3 0 3 0 3 1 3 1 3 1 3 1 3 1 3 1 3 2 3 2 3 2 3 2 3 2 3 2 2 2 2 2 2 3 2 3 2 3 2 3 2 3 2 3 1 3 1 3 1 3 1 3 1 3 1 3 0 3 0 3 0 4 0 1004 0 4 0 3 0 3 -1 3 -1 3 -1 3 -1 3 -1 3 -1 3 -2 3 -2 3 -2 3 -2 3 -2 3 -2 3 -2 2 -2 2 -3 2 -3 2 -3 2 -3 2 -3 2 -3 2 -3 1 -3 1 -3 1 -3 1 -3 1 -3 1 -3 0 -3 0 -4 0 -1004 0 -4 0 -3 0 -3 0 -3 -1 -3 -1 -3 -1 -3 -1 -3 -1 -3 -1 -3 -2 -3 -2 -3 -2 -3 -2 -3 -2 -3 -2 -2 -2 -2 -2 -2 -3 -2 -3 -2 -3 -2 -3 -2 -3 -2 -3 -1 -3 -1 -3 -1 -3 -1 -3 -1 -3 -1 -3 0 -3 0 -3 0 -4 0 -1004 0 -4 0 -4 0 -3 1 -3 1 -3 1 -3 1 -3 1 -3 1 -3 2 -3 2 -3 2 -3 2 -3 2 -3 2 -3 2 -2 2 -2 3 -2 3 -2 3 -2 3 -2 3 -2 3 -2 3 -1 3 -1 3 -1 3 -1 3 -1 3 -1 3 0 4 0 4 0 1004 0zm-83 152l0 838 -838 0 0 -838 838 0z"/>
 </g>
</svg>
