<?xml version="1.0" encoding="UTF-8"?>
<!DOCTYPE svg PUBLIC "-//W3C//DTD SVG 1.1//EN" "http://www.w3.org/Graphics/SVG/1.1/DTD/svg11.dtd">
<!-- Creator: CorelDRAW X6 -->
<svg xmlns="http://www.w3.org/2000/svg" xml:space="preserve" width="31.7694mm" height="31.7694mm" version="1.1" style="shape-rendering:geometricPrecision; text-rendering:geometricPrecision; image-rendering:optimizeQuality; fill-rule:evenodd; clip-rule:evenodd"
viewBox="0 0 54539 54539"
 xmlns:xlink="http://www.w3.org/1999/xlink">
 <defs>
  <style type="text/css">
   <![CDATA[
    .fil0 {fill:#212220}
    .fil1 {fill:blue}
   ]]>
  </style>
 </defs>
 <g id="Layer_x0020_1">
  <metadata id="CorelCorpID_0Corel-Layer"/>
  <path class="fil0" d="M38403 44205c-14305,-8321 -21018,-17190 -26974,-28898l1865 -4089 6984 10726c72,113 -173,324 -74,567 2025,5171 7155,9987 11638,12718l557 -185 9835 7192 -3830 1969z"/>
  <polygon class="fil0" points="33060,34658 35207,33457 43110,39118 42625,41634 "/>
  <polygon class="fil0" points="20678,21055 14009,10956 16497,10334 21894,18683 "/>
  <path class="fil1" d="M51236 0l181 5 166 13 164 21 161 29 158 37 155 44 152 52 149 59 145 66 142 73 138 80 134 86 129 92 125 98 120 104 115 110 110 115 104 120 98 125 92 129 86 134 79 138 73 142 66 146 59 149 52 152 44 155 37 158 29 161 21 164 13 166 5 181 0 47932 -5 181 -13 166 -21 164 -29 161 -37 158 -44 155 -52 152 -59 149 -66 146 -73 142 -79 138 -86 134 -92 129 -98 125 -104 120 -110 115 -115 110 -120 104 -125 98 -129 92 -134 86 -138 80 -142 73 -145 66 -149 59 -152 52 -155 44 -158 37 -161 29 -164 21 -166 13 -181 5 -47932 0 -180 -5 -166 -13 -163 -21 -161 -29 -158 -37 -155 -45 -152 -52 -149 -59 -145 -67 -142 -73 -138 -80 -134 -87 -130 -93 -125 -99 -120 -105 -115 -110 -110 -116 -104 -121 -99 -125 -92 -130 -86 -134 -80 -138 -73 -142 -66 -146 -59 -149 -52 -152 -44 -155 -37 -158 -29 -161 -21 -163 -13 -165 -5 -180 0 -47924 5 -182 13 -168 21 -165 29 -162 37 -159 44 -156 52 -152 59 -149 66 -146 73 -142 79 -138 86 -134 92 -129 98 -124 104 -119 109 -115 115 -109 120 -104 124 -98 129 -92 134 -86 138 -79 142 -73 146 -66 149 -59 153 -52 156 -44 159 -37 162 -29 165 -21 167 -13 182 -4 47933 0zm-3952 7254l0 40030 -40030 0 0 -40030 40030 0z"/>
 </g>
</svg>
