<?xml version="1.0" encoding="utf-8"?>
<!-- Generator: Adobe Illustrator 16.0.0, SVG Export Plug-In . SVG Version: 6.00 Build 0)  -->
<!DOCTYPE svg PUBLIC "-//W3C//DTD SVG 1.1//EN" "http://www.w3.org/Graphics/SVG/1.1/DTD/svg11.dtd">
<svg version="1.1" id="Layer_1" xmlns="http://www.w3.org/2000/svg" xmlns:xlink="http://www.w3.org/1999/xlink" x="0px" y="0px"
	 width="80.022px" height="80.021px" viewBox="0 0 80.022 80.021" enable-background="new 0 0 80.022 80.021" xml:space="preserve">
<path fill-rule="evenodd" clip-rule="evenodd" d="M56.556,61.098L40.102,43.926l-14.994,16.05c-3.293,4.477-7.971,1.169-5.596-2.434
	l17.843-16.514l-4.921-5.076c-0.898-0.582-1.89-0.448-2.922-0.387c-8.788,0.451-16.197-12.151-12.113-16.84
	c5.488-3.665,17.582,3.983,16.806,11.927c-0.129,1.265-0.079,1.832,0.354,2.718l5.68,4.971l5.404-5.055
	c0.776-0.771,1.084-1.084,1.084-2.032c-0.026-2.364,0.544-4.364,2.047-5.724c3.035-2.768,5.259-4.735,9.375-7.651
	c0.319-0.372,0.866,0.035,0.532,0.456l-7.963,7.744C50.25,26.659,51,27.403,51.634,26.79l8.044-7.515
	c0.389-0.439,1.061,0.148,0.645,0.555l-7.656,7.93c-0.509,0.541,0.259,1.36,0.8,0.704l7.897-7.68
	c0.468-0.291,1.056,0.061,0.727,0.616l-7.616,7.916c-0.587,0.541,0.192,1.39,0.719,0.762l7.906-7.767
	c0.576-0.361,0.89,0.183,0.584,0.546c-2.546,3.061-4.77,6.104-7.581,9.154c-1.496,1.232-3.281,2.419-6.003,2.393
	c-0.643,0.171-1.203,0.09-1.93,0.817l-5.09,5.471l17.849,15.854C64.953,59.891,59.646,64.452,56.556,61.098z"/>
<path fill="none" stroke="#231F20" stroke-width="0.1" stroke-miterlimit="22.9256" d="M56.556,61.098L40.102,43.926l-14.994,16.05
	c-3.293,4.477-7.971,1.169-5.596-2.434l17.843-16.514l-4.921-5.076c-0.898-0.582-1.89-0.448-2.922-0.387
	c-8.788,0.451-16.197-12.151-12.113-16.84c5.488-3.665,17.582,3.983,16.806,11.927c-0.129,1.265-0.079,1.832,0.354,2.718l5.68,4.971
	l5.404-5.055c0.776-0.771,1.084-1.084,1.084-2.032c-0.026-2.364,0.544-4.364,2.047-5.724c3.035-2.768,5.259-4.735,9.375-7.651
	c0.319-0.372,0.866,0.035,0.532,0.456l-7.963,7.744C50.25,26.659,51,27.403,51.634,26.79l8.044-7.515
	c0.389-0.439,1.061,0.148,0.645,0.555l-7.656,7.93c-0.509,0.541,0.259,1.36,0.8,0.704l7.897-7.68
	c0.468-0.291,1.056,0.061,0.727,0.616l-7.616,7.916c-0.587,0.541,0.192,1.39,0.719,0.762l7.906-7.767
	c0.576-0.361,0.89,0.183,0.584,0.546c-2.546,3.061-4.77,6.104-7.581,9.154c-1.496,1.232-3.281,2.419-6.003,2.393
	c-0.643,0.171-1.203,0.09-1.93,0.817l-5.09,5.471l17.849,15.854C64.953,59.891,59.646,64.452,56.556,61.098z"/>
<polygon fill="none" stroke="#231F20" stroke-width="0.0216" stroke-miterlimit="22.9256" points="73.953,0.011 74.263,0.019 
	74.569,0.042 74.872,0.081 75.169,0.134 75.462,0.202 75.748,0.285 76.029,0.38 76.304,0.489 76.572,0.611 76.833,0.745 
	77.087,0.892 77.333,1.05 77.57,1.219 77.8,1.4 78.02,1.59 78.23,1.792 78.432,2.002 78.622,2.222 78.803,2.452 78.972,2.689 
	79.13,2.935 79.276,3.189 79.411,3.45 79.533,3.718 79.642,3.993 79.737,4.274 79.819,4.561 79.888,4.853 79.941,5.15 79.979,5.453 
	80.003,5.759 80.012,6.068 80.012,73.953 80.003,74.263 79.979,74.568 79.941,74.871 79.888,75.168 79.819,75.461 79.737,75.748 
	79.642,76.028 79.533,76.304 79.411,76.572 79.276,76.833 79.13,77.086 78.972,77.332 78.803,77.57 78.622,77.799 78.432,78.02 
	78.23,78.229 78.02,78.431 77.8,78.622 77.57,78.802 77.333,78.972 77.087,79.13 76.833,79.275 76.572,79.41 76.304,79.532 
	76.029,79.641 75.748,79.737 75.462,79.818 75.169,79.887 74.871,79.94 74.569,79.979 74.263,80.003 73.954,80.011 6.069,80.011 
	5.76,80.003 5.453,79.979 5.151,79.94 4.854,79.887 4.563,79.817 4.275,79.734 3.995,79.639 3.72,79.529 3.452,79.406 3.19,79.271 
	2.937,79.124 2.691,78.965 2.453,78.795 2.225,78.614 2.004,78.422 1.793,78.221 1.593,78.009 1.401,77.788 1.221,77.558 
	1.052,77.319 0.893,77.073 0.746,76.819 0.612,76.558 0.49,76.289 0.381,76.015 0.285,75.733 0.203,75.446 0.135,75.154 
	0.081,74.856 0.043,74.556 0.02,74.249 0.011,73.94 0.011,6.068 0.019,5.757 0.043,5.45 0.081,5.147 0.134,4.848 0.202,4.555 
	0.283,4.268 0.379,3.986 0.487,3.711 0.608,3.443 0.743,3.182 0.889,2.928 1.046,2.682 1.215,2.444 1.395,2.215 1.585,1.996 
	1.786,1.786 1.996,1.585 2.216,1.394 2.445,1.215 2.683,1.045 2.928,0.888 3.183,0.742 3.443,0.608 3.712,0.487 3.987,0.378 
	4.269,0.283 4.556,0.201 4.849,0.134 5.147,0.081 5.45,0.042 5.758,0.019 6.069,0.011 "/>
<path fill-rule="evenodd" clip-rule="evenodd" fill="#0001FE" d="M68.343,11.679v56.663H11.68V11.679H68.343z M73.936,1.411
	l0.256,0.006l0.235,0.018l0.231,0.03l0.228,0.041l0.225,0.052l0.22,0.063l0.215,0.074l0.211,0.083l0.206,0.094l0.201,0.103
	l0.195,0.113l0.188,0.122L76.73,2.34l0.177,0.139l0.17,0.147l0.163,0.155l0.155,0.163l0.147,0.17l0.139,0.177l0.131,0.184
	l0.122,0.189l0.113,0.196l0.103,0.2l0.094,0.207l0.083,0.21l0.074,0.216l0.063,0.22l0.052,0.224l0.042,0.228l0.029,0.232
	l0.019,0.235l0.006,0.256v67.849l-0.006,0.255l-0.019,0.235l-0.029,0.231l-0.042,0.228l-0.052,0.225l-0.063,0.22l-0.074,0.216
	l-0.083,0.211l-0.094,0.205l-0.103,0.201l-0.113,0.195l-0.122,0.189l-0.131,0.184l-0.139,0.177l-0.147,0.17l-0.155,0.162
	l-0.163,0.155l-0.17,0.147l-0.177,0.14l-0.183,0.13l-0.189,0.122l-0.195,0.113l-0.201,0.104l-0.206,0.093l-0.211,0.084L75.33,78.4
	l-0.22,0.063l-0.225,0.053l-0.228,0.041l-0.231,0.029l-0.235,0.019l-0.256,0.006H6.087l-0.255-0.006l-0.234-0.019l-0.231-0.03
	L5.14,78.515l-0.224-0.053l-0.22-0.063l-0.215-0.074l-0.211-0.084l-0.205-0.094l-0.201-0.104L3.669,77.93l-0.19-0.122l-0.183-0.132
	l-0.178-0.14l-0.17-0.148l-0.163-0.156L2.63,77.067l-0.148-0.17L2.343,76.72l-0.131-0.185L2.09,76.346l-0.113-0.196l-0.104-0.202
	l-0.094-0.206L1.695,75.53l-0.074-0.216l-0.063-0.22L1.507,74.87l-0.041-0.227l-0.03-0.231l-0.019-0.234l-0.006-0.255V6.086
	l0.006-0.258l0.019-0.238l0.029-0.232l0.041-0.229l0.052-0.225l0.063-0.22l0.073-0.216l0.083-0.211L1.87,4.05L1.974,3.85
	l0.111-0.195l0.121-0.189l0.131-0.183l0.138-0.176l0.146-0.169l0.155-0.162l0.162-0.154l0.169-0.147l0.176-0.138l0.184-0.13
	l0.188-0.122l0.195-0.112l0.2-0.103l0.206-0.093l0.211-0.083L4.685,1.62l0.22-0.063L5.13,1.506l0.229-0.042l0.233-0.029l0.237-0.018
	l0.258-0.006H73.936z"/>
<path fill="none" stroke="#231F20" stroke-width="0.0216" stroke-miterlimit="22.9256" d="M68.343,11.679v56.663H11.68V11.679
	H68.343z M73.936,1.411l0.256,0.006l0.235,0.018l0.231,0.03l0.228,0.041l0.225,0.052l0.22,0.063l0.215,0.074l0.211,0.083
	l0.206,0.094l0.201,0.103l0.195,0.113l0.188,0.122L76.73,2.34l0.177,0.139l0.17,0.147l0.163,0.155l0.155,0.163l0.147,0.17
	l0.139,0.177l0.131,0.184l0.122,0.189l0.113,0.196l0.103,0.2l0.094,0.207l0.083,0.21l0.074,0.216l0.063,0.22l0.052,0.224
	l0.042,0.228l0.029,0.232l0.019,0.235l0.006,0.256v67.849l-0.006,0.255l-0.019,0.235l-0.029,0.231l-0.042,0.228l-0.052,0.225
	l-0.063,0.22l-0.074,0.216l-0.083,0.211l-0.094,0.205l-0.103,0.201l-0.113,0.195l-0.122,0.189l-0.131,0.184l-0.139,0.177
	l-0.147,0.17l-0.155,0.162l-0.163,0.155l-0.17,0.147l-0.177,0.14l-0.183,0.13l-0.189,0.122l-0.195,0.113l-0.201,0.104l-0.206,0.093
	l-0.211,0.084L75.33,78.4l-0.22,0.063l-0.225,0.053l-0.228,0.041l-0.231,0.029l-0.235,0.019l-0.256,0.006H6.087l-0.255-0.006
	l-0.234-0.019l-0.231-0.03L5.14,78.515l-0.224-0.053l-0.22-0.063l-0.215-0.074l-0.211-0.084l-0.205-0.094l-0.201-0.104L3.669,77.93
	l-0.19-0.122l-0.183-0.132l-0.178-0.14l-0.17-0.148l-0.163-0.156L2.63,77.067l-0.148-0.17L2.343,76.72l-0.131-0.185L2.09,76.346
	l-0.113-0.196l-0.104-0.202l-0.094-0.206L1.695,75.53l-0.074-0.216l-0.063-0.22L1.507,74.87l-0.041-0.227l-0.03-0.231l-0.019-0.234
	l-0.006-0.255V6.086l0.006-0.258l0.019-0.238l0.029-0.232l0.041-0.229l0.052-0.225l0.063-0.22l0.073-0.216l0.083-0.211L1.87,4.05
	L1.974,3.85l0.111-0.195l0.121-0.189l0.131-0.183l0.138-0.176l0.146-0.169l0.155-0.162l0.162-0.154l0.169-0.147l0.176-0.138
	l0.184-0.13l0.188-0.122l0.195-0.112l0.2-0.103l0.206-0.093l0.211-0.083L4.685,1.62l0.22-0.063L5.13,1.506l0.229-0.042l0.233-0.029
	l0.237-0.018l0.258-0.006H73.936z"/>
</svg>
