<?xml version="1.0" encoding="UTF-8"?>
<!DOCTYPE svg PUBLIC "-//W3C//DTD SVG 1.1//EN" "http://www.w3.org/Graphics/SVG/1.1/DTD/svg11.dtd">
<!-- Creator: CorelDRAW X6 -->
<svg xmlns="http://www.w3.org/2000/svg" xml:space="preserve" width="31.7694mm" height="31.7694mm" version="1.1" style="shape-rendering:geometricPrecision; text-rendering:geometricPrecision; image-rendering:optimizeQuality; fill-rule:evenodd; clip-rule:evenodd"
viewBox="0 0 1232 1232"
 xmlns:xlink="http://www.w3.org/1999/xlink">
 <defs>
  <style type="text/css">
   <![CDATA[
    .fil1 {fill:#212220}
    .fil0 {fill:blue}
   ]]>
  </style>
 </defs>
 <g id="Layer_x0020_1">
  <metadata id="CorelCorpID_0Corel-Layer"/>
  <path class="fil0" d="M1157 0l4 0 4 0 4 0 4 1 4 1 4 1 3 1 3 1 3 1 3 2 3 2 3 2 3 2 3 2 3 2 3 2 2 3 2 3 2 3 2 3 2 3 2 3 2 3 1 3 1 3 1 3 1 4 1 4 1 4 0 4 0 4 0 4 0 1083 0 4 0 4 0 4 -1 4 -1 4 -1 4 -1 3 -1 3 -1 3 -2 3 -2 3 -2 3 -2 3 -2 3 -2 3 -2 3 -3 2 -3 2 -3 2 -3 2 -3 2 -3 2 -3 2 -3 1 -3 1 -3 1 -4 1 -4 1 -4 1 -4 0 -4 0 -4 0 -1083 0 -4 0 -4 0 -4 0 -4 -1 -4 -1 -4 -1 -3 -1 -3 -1 -3 -2 -3 -2 -3 -2 -3 -2 -3 -2 -3 -2 -3 -2 -3 -2 -2 -3 -2 -3 -2 -3 -2 -3 -2 -3 -2 -3 -2 -3 -1 -3 -1 -3 -1 -3 -1 -4 -1 -4 -1 -4 0 -4 0 -4 0 -4 0 -1083 0 -4 0 -4 0 -4 1 -4 1 -4 1 -4 1 -3 1 -3 1 -3 2 -3 2 -3 2 -3 2 -3 2 -3 2 -3 2 -3 3 -2 3 -2 3 -2 3 -2 3 -2 3 -2 3 -2 3 -1 3 -1 3 -1 4 -1 4 -1 4 -1 4 0 4 0 4 0 1083 0zm-89 164l0 904 -904 0 0 -904 904 0z"/>
  <path class="fil1" d="M494 714c-72,-64 -122,-177 -131,-284l598 0c-1,97 -64,182 -158,194 -21,34 -43,64 -74,89l-235 1zm330 -133c16,-38 29,-77 36,-117l59 0c-3,42 -52,115 -95,117z"/>
  <path class="fil1" d="M459 824c-65,-8 -139,-41 -208,-87l730 0c-72,41 -142,69 -225,87l0 8 -297 0 0 -8z"/>
 </g>
</svg>
