<?xml version="1.0" encoding="UTF-8"?>
<!DOCTYPE svg PUBLIC "-//W3C//DTD SVG 1.1//EN" "http://www.w3.org/Graphics/SVG/1.1/DTD/svg11.dtd">
<!-- Creator: CorelDRAW X6 -->
<svg xmlns="http://www.w3.org/2000/svg" xml:space="preserve" width="31.7694mm" height="31.7694mm" version="1.1" style="shape-rendering:geometricPrecision; text-rendering:geometricPrecision; image-rendering:optimizeQuality; fill-rule:evenodd; clip-rule:evenodd"
viewBox="0 0 11284 11284"
 xmlns:xlink="http://www.w3.org/1999/xlink">
 <defs>
  <style type="text/css">
   <![CDATA[
    .fil0 {fill:#212220}
    .fil1 {fill:blue}
   ]]>
  </style>
 </defs>
 <g id="Layer_x0020_1">
  <metadata id="CorelCorpID_0Corel-Layer"/>
  <path class="fil0" d="M4597 8213l0 -380 -1911 -261 0 379 -367 -50 1 -2029c-6,-100 34,-187 194,-185l1675 232 2172 -1304 1 -1465c2,-65 55,-129 115,-131l2307 308c113,28 179,115 179,210l0 2465 -397 -56 0 -354 -3564 2172 0 503 -406 -54zm1875 -3408l396 -717 1660 221 -396 718 -1660 -221zm-1465 2216l0 -780c-2,-123 -16,-201 -215,-241l-311 -42 1735 -1032 1853 240 -3063 1854z"/>
  <path class="fil1" d="M10601 0l37 1 34 3 34 4 33 6 33 8 32 9 32 11 31 12 30 14 29 15 29 16 28 18 27 19 26 20 25 22 24 23 23 24 22 25 20 26 19 27 18 28 16 29 15 29 14 30 12 31 11 32 9 32 8 33 6 33 4 34 3 34 1 37 0 9917 -1 37 -3 34 -4 34 -6 33 -8 33 -9 32 -11 32 -12 31 -14 30 -15 29 -16 29 -18 28 -19 27 -20 26 -22 25 -23 24 -24 23 -25 22 -26 20 -27 19 -28 18 -29 16 -29 15 -30 14 -31 12 -32 11 -32 9 -33 8 -33 6 -34 4 -34 3 -37 1 -9917 0 -37 -1 -34 -3 -34 -4 -33 -6 -33 -8 -32 -9 -31 -11 -31 -12 -30 -14 -29 -15 -29 -17 -28 -18 -27 -19 -26 -20 -25 -22 -24 -23 -23 -24 -22 -25 -20 -26 -19 -27 -18 -28 -16 -29 -15 -29 -14 -30 -12 -31 -11 -32 -9 -32 -8 -33 -6 -33 -4 -34 -3 -34 -1 -37 0 -9915 1 -38 3 -35 4 -34 6 -33 8 -33 9 -32 11 -32 12 -31 14 -30 15 -29 16 -28 18 -28 19 -27 20 -26 21 -25 23 -24 24 -23 25 -21 26 -20 27 -19 28 -18 28 -16 29 -15 30 -14 31 -12 32 -11 32 -9 33 -8 33 -6 34 -4 35 -3 38 -1 9917 0zm-818 1501l0 8282 -8282 0 0 -8282 8282 0z"/>
 </g>
</svg>
