<?xml version="1.0" encoding="UTF-8"?>
<!DOCTYPE svg PUBLIC "-//W3C//DTD SVG 1.1//EN" "http://www.w3.org/Graphics/SVG/1.1/DTD/svg11.dtd">
<!-- Creator: CorelDRAW X6 -->
<svg xmlns="http://www.w3.org/2000/svg" xml:space="preserve" width="31.7694mm" height="31.7694mm" version="1.1" style="shape-rendering:geometricPrecision; text-rendering:geometricPrecision; image-rendering:optimizeQuality; fill-rule:evenodd; clip-rule:evenodd"
viewBox="0 0 1002 1002"
 xmlns:xlink="http://www.w3.org/1999/xlink">
 <defs>
  <style type="text/css">
   <![CDATA[
    .fil0 {fill:#212220}
    .fil1 {fill:blue}
   ]]>
  </style>
 </defs>
 <g id="Layer_x0020_1">
  <metadata id="CorelCorpID_0Corel-Layer"/>
  <path class="fil0" d="M275 731c9,-40 13,-92 9,-134l-91 33 33 -47c-25,0 -44,-4 -69,-12 11,-5 91,-59 91,-67 -26,-2 -51,-9 -77,-14 31,-23 58,-41 87,-66l-46 3c28,-31 49,-52 63,-72l-23 0 48 -82 48 82 -23 0c10,11 38,48 58,71 -14,2 -28,-2 -42,-3 25,27 58,49 89,68 -13,15 -61,14 -78,16 22,21 58,51 87,63 -12,8 -63,13 -65,13 -8,35 90,70 -58,16 -7,34 1,124 9,133l-49 0z"/>
  <polygon class="fil0" points="451,507 445,484 641,436 845,485 838,508 641,462 "/>
  <path class="fil0" d="M483 731l0 -220 158 -38 161 37 0 221 -60 0 0 -175 -60 0 0 175 -200 0zm100 -175l58 0 0 71 -58 0 0 -71z"/>
  <path class="fil1" d="M942 0l3 0 3 0 3 0 3 1 3 1 3 1 3 1 3 1 3 1 3 1 3 1 2 2 2 2 2 2 2 2 2 2 2 2 2 2 2 2 2 2 2 2 1 3 1 3 1 3 1 3 1 3 1 3 1 3 1 3 0 3 0 3 0 3 0 881 0 3 0 3 0 3 -1 3 -1 3 -1 3 -1 3 -1 3 -1 3 -1 3 -1 3 -2 2 -2 2 -2 2 -2 2 -2 2 -2 2 -2 2 -2 2 -2 2 -2 2 -3 1 -3 1 -3 1 -3 1 -3 1 -3 1 -3 1 -3 1 -3 0 -3 0 -3 0 -881 0 -3 0 -3 0 -3 0 -3 -1 -3 -1 -3 -1 -3 -1 -3 -1 -3 -1 -3 -1 -3 -1 -2 -2 -2 -2 -2 -2 -2 -2 -2 -2 -2 -2 -2 -2 -2 -2 -2 -2 -2 -2 -1 -3 -1 -3 -1 -3 -1 -3 -1 -3 -1 -3 -1 -3 -1 -3 0 -3 0 -3 0 -3 0 -881 0 -3 0 -3 0 -3 1 -3 1 -3 1 -3 1 -3 1 -3 1 -3 1 -3 1 -3 2 -2 2 -2 2 -2 2 -2 2 -2 2 -2 2 -2 2 -2 2 -2 2 -2 3 -1 3 -1 3 -1 3 -1 3 -1 3 -1 3 -1 3 -1 3 0 3 0 3 0 881 0zm-73 133l0 736 -736 0 0 -736 736 0z"/>
 </g>
</svg>
