<?xml version="1.0" encoding="UTF-8"?>
<!DOCTYPE svg PUBLIC "-//W3C//DTD SVG 1.1//EN" "http://www.w3.org/Graphics/SVG/1.1/DTD/svg11.dtd">
<!-- Creator: CorelDRAW X6 -->
<svg xmlns="http://www.w3.org/2000/svg" xml:space="preserve" width="31.6118mm" height="31.6118mm" version="1.1" style="shape-rendering:geometricPrecision; text-rendering:geometricPrecision; image-rendering:optimizeQuality; fill-rule:evenodd; clip-rule:evenodd"
viewBox="0 0 2793 2793"
 xmlns:xlink="http://www.w3.org/1999/xlink">
 <defs>
  <style type="text/css">
   <![CDATA[
    .fil0 {fill:#212220}
    .fil1 {fill:blue}
   ]]>
  </style>
 </defs>
 <g id="Layer_x0020_1">
  <metadata id="CorelCorpID_0Corel-Layer"/>
  <path class="fil0" d="M662 1905l0 -54 772 0c-212,-60 -149,-350 49,-340 194,10 230,283 34,340l772 0 0 54c-538,0 -1088,0 -1627,0zm811 -304c46,0 83,37 83,83 0,46 -37,83 -83,83 -46,0 -83,-37 -83,-83 0,-46 37,-83 83,-83z"/>
  <path class="fil0" d="M1051 1051c2,-29 -6,-47 -46,-48l-149 0c-29,0 -48,6 -47,48l0 638 -328 0 0 -83 203 0c-47,-201 -47,-396 -3,-603 14,-65 75,-115 127,-115l1342 0c65,0 105,45 126,115 42,169 51,423 3,582 -19,63 -66,104 -132,104l-456 0c-1,-104 -80,-208 -211,-212 -148,5 -217,108 -219,212l-210 0 0 -637zm655 204l0 -252 393 0c29,0 49,21 49,48l0 160c0,30 -18,45 -49,45l-393 0zm-81 0l0 -252 -391 0c-29,0 -48,20 -48,48l0 160c0,30 18,45 48,45l390 0z"/>
  <polygon class="fil0" points="844,1689 844,1255 1019,1255 1019,1689 "/>
  <path class="fil1" d="M2624 0l9 0 9 1 8 1 8 1 8 2 8 2 8 3 8 3 7 3 7 4 7 4 7 4 7 5 6 5 6 5 6 6 6 6 5 6 5 6 5 7 4 7 4 7 4 7 3 7 3 8 3 8 2 8 2 8 1 8 1 8 1 9 0 9 0 2454 0 9 -1 9 -1 8 -1 8 -2 8 -2 8 -3 8 -3 8 -3 7 -4 7 -4 7 -4 7 -5 7 -5 6 -5 6 -6 6 -6 6 -6 5 -6 5 -7 5 -7 4 -7 4 -7 4 -7 3 -8 3 -8 3 -8 2 -8 2 -8 1 -8 1 -9 1 -9 0 -2454 0 -9 0 -8 -1 -8 -1 -8 -1 -8 -2 -8 -2 -8 -3 -8 -3 -7 -3 -7 -4 -7 -4 -7 -4 -7 -5 -6 -5 -6 -5 -6 -6 -6 -6 -5 -6 -5 -6 -5 -7 -4 -7 -4 -7 -4 -7 -3 -7 -3 -8 -3 -8 -2 -8 -2 -8 -1 -8 -1 -8 -1 -8 0 -9 0 -2454 0 -9 1 -9 1 -8 1 -8 2 -8 2 -8 3 -8 3 -8 3 -7 4 -7 4 -7 4 -7 5 -7 5 -6 5 -6 6 -6 6 -6 6 -5 6 -5 7 -5 7 -4 7 -4 7 -4 7 -3 8 -3 8 -3 8 -2 8 -2 8 -1 8 -1 9 -1 9 0 2454 0zm-202 371l0 2050 -2050 0 0 -2050 2050 0z"/>
 </g>
</svg>
