<?xml version="1.0" encoding="UTF-8"?>
<!DOCTYPE svg PUBLIC "-//W3C//DTD SVG 1.1//EN" "http://www.w3.org/Graphics/SVG/1.1/DTD/svg11.dtd">
<!-- Creator: CorelDRAW X6 -->
<svg xmlns="http://www.w3.org/2000/svg" xml:space="preserve" width="31.6118mm" height="31.6118mm" version="1.1" style="shape-rendering:geometricPrecision; text-rendering:geometricPrecision; image-rendering:optimizeQuality; fill-rule:evenodd; clip-rule:evenodd"
viewBox="0 0 1800 1800"
 xmlns:xlink="http://www.w3.org/1999/xlink">
 <defs>
  <style type="text/css">
   <![CDATA[
    .fil0 {fill:#212220}
    .fil1 {fill:blue}
   ]]>
  </style>
 </defs>
 <g id="Layer_x0020_1">
  <metadata id="CorelCorpID_0Corel-Layer"/>
  <path class="fil0" d="M831 1409l-394 0 0 -42 103 0c-24,-102 -24,-201 -2,-306 7,-33 38,-59 64,-59l680 0c33,0 53,23 64,59 21,86 26,214 1,295 -10,32 -34,53 -67,53l-231 0c0,-53 -41,-105 -107,-107 -75,2 -112,55 -112,108zm-228 -220l123 0 0 -103c1,-15 -3,-24 -23,-25l-76 0c-15,0 -24,3 -24,24l0 103zm455 0l0 -128 199 0c15,0 25,10 25,24l0 81c0,15 -9,23 -25,23l-199 0zm-41 0l0 -128 -198 0c-15,0 -24,10 -24,24l0 81c0,15 9,23 24,23l198 0z"/>
  <path class="fil0" d="M531 890l0 -35 97 0c95,-164 188,-333 287,-495l-36 -59 36 -18 25 40 23 -40 34 18 -35 59 290 495 90 0 0 35 -811 0zm284 -35l125 -203 125 203 -249 0z"/>
  <path class="fil0" d="M528 1519l0 -28 391 0c-107,-30 -76,-177 25,-172 98,5 116,143 17,172l391 0 0 28c-273,0 -551,0 -824,0zm411 -154c23,0 42,19 42,42 0,23 -19,42 -42,42 -23,0 -42,-19 -42,-42 0,-23 19,-42 42,-42z"/>
  <path class="fil1" d="M1691 0l6 0 5 0 5 1 5 1 5 1 5 1 5 2 5 2 5 2 5 2 5 3 4 3 4 3 4 3 4 3 4 4 4 4 3 4 3 4 3 4 3 4 3 5 2 5 2 5 2 5 2 5 1 5 1 5 1 5 1 5 0 5 0 6 0 1582 0 6 0 5 -1 5 -1 5 -1 5 -1 5 -2 5 -2 5 -2 5 -2 5 -3 5 -3 4 -3 4 -3 4 -3 4 -4 4 -4 4 -4 3 -4 3 -4 3 -4 3 -5 3 -5 2 -5 2 -5 2 -5 2 -5 1 -5 1 -5 1 -5 1 -5 0 -6 0 -1582 0 -6 0 -5 0 -5 -1 -5 -1 -5 -1 -5 -1 -5 -2 -5 -2 -5 -2 -5 -2 -5 -3 -4 -3 -4 -3 -4 -3 -4 -3 -4 -4 -4 -4 -3 -4 -3 -4 -3 -4 -3 -4 -3 -5 -2 -5 -2 -5 -2 -5 -2 -5 -1 -5 -1 -5 -1 -5 -1 -5 0 -5 0 -6 0 -1582 0 -6 0 -6 1 -5 1 -5 1 -5 1 -5 2 -5 2 -5 2 -5 2 -5 3 -5 3 -4 3 -4 3 -4 3 -4 4 -4 4 -4 4 -3 4 -3 4 -3 4 -3 5 -3 5 -2 5 -2 5 -2 5 -2 5 -1 5 -1 5 -1 5 -1 6 0 6 0 1582 0zm-130 239l0 1321 -1321 0 0 -1321 1321 0z"/>
 </g>
</svg>
