<?xml version="1.0" encoding="UTF-8"?>
<!DOCTYPE svg PUBLIC "-//W3C//DTD SVG 1.1//EN" "http://www.w3.org/Graphics/SVG/1.1/DTD/svg11.dtd">
<!-- Creator: CorelDRAW X6 -->
<svg xmlns="http://www.w3.org/2000/svg" xml:space="preserve" width="31.6118mm" height="31.6118mm" version="1.1" style="shape-rendering:geometricPrecision; text-rendering:geometricPrecision; image-rendering:optimizeQuality; fill-rule:evenodd; clip-rule:evenodd"
viewBox="0 0 572 572"
 xmlns:xlink="http://www.w3.org/1999/xlink">
 <defs>
  <style type="text/css">
   <![CDATA[
    .fil1 {fill:#212220}
    .fil0 {fill:blue}
   ]]>
  </style>
 </defs>
 <g id="Layer_x0020_1">
  <metadata id="CorelCorpID_0Corel-Layer"/>
  <path class="fil0" d="M537 0l2 0 2 0 2 0 2 0 2 0 2 0 2 1 2 1 2 1 1 1 1 1 1 1 1 1 1 1 1 1 1 1 1 1 1 1 1 1 1 1 1 1 1 1 1 1 1 2 1 2 1 2 0 2 0 2 0 2 0 2 0 2 0 2 0 503 0 2 0 2 0 2 0 2 0 2 0 2 -1 2 -1 2 -1 2 -1 1 -1 1 -1 1 -1 1 -1 1 -1 1 -1 1 -1 1 -1 1 -1 1 -1 1 -1 1 -1 1 -1 1 -2 1 -2 1 -2 1 -2 0 -2 0 -2 0 -2 0 -2 0 -2 0 -503 0 -2 0 -2 0 -2 0 -2 0 -2 0 -2 0 -2 -1 -2 -1 -2 -1 -1 -1 -1 -1 -1 -1 -1 -1 -1 -1 -1 -1 -1 -1 -1 -1 -1 -1 -1 -1 -1 -1 -1 -1 -1 -1 -1 -1 -1 -2 -1 -2 -1 -2 0 -2 0 -2 0 -2 0 -2 0 -2 0 -2 0 -502 0 -2 0 -2 0 -2 0 -2 0 -2 0 -2 1 -2 1 -2 1 -2 1 -1 1 -1 1 -1 1 -1 1 -1 1 -1 1 -1 1 -1 1 -1 1 -1 1 -1 1 -1 1 -1 1 -1 2 -1 2 -1 2 -1 2 0 2 0 2 0 2 0 2 0 2 0 503 0zm-41 76l0 420 -420 0 0 -420 420 0z"/>
  <polygon class="fil1" points="107,455 107,290 118,290 118,455 "/>
  <path class="fil1" d="M140 147l0 -9 24 -1c10,-30 53,-27 57,5l-80 5z"/>
  <path class="fil1" d="M163 152l57 -4c-2,31 -47,36 -57,4z"/>
  <path class="fil1" d="M242 273l-15 -96c20,-6 30,-15 46,4 9,20 18,41 10,62 -6,13 -25,28 -41,30z"/>
  <path class="fil1" d="M132 441l50 -151c-4,-19 -10,-39 -15,-58l-44 52c-16,10 -18,-3 -16,-15l65 -83 47 -8 17 112 41 149c1,19 -25,22 -30,0l-38 -137 -46 139c-6,19 -30,18 -30,-1z"/>
  <polygon class="fil1" points="297,455 297,291 307,290 307,455 "/>
  <path class="fil1" d="M314 440l23 -68 -13 0 46 -102 -7 -29 -7 31 -50 12c-13,1 -17,-15 -5,-21l38 -9 12 -55 57 -21 52 62 7 38c2,15 -19,17 -22,3l-5 -31 -26 -30 3 40 47 112 -27 0 23 67c2,19 -22,21 -29,1l-23 -67 -40 0 -24 68c-7,19 -26,19 -28,0z"/>
  <path class="fil1" d="M364 123c16,0 29,13 29,29 0,16 -13,29 -29,29 -16,0 -29,-13 -29,-29 0,-16 13,-29 29,-29z"/>
  <path class="fil1" d="M443 185c-7,0 -13,-6 -18,-11 -6,-9 -5,-19 -10,-24 -6,-5 -12,-4 -18,-4l-2 -7c6,-2 9,-3 16,-3 20,3 21,7 30,21 3,10 11,24 23,22 -2,6 -17,8 -22,6z"/>
 </g>
</svg>
