<?xml version="1.0" encoding="UTF-8"?>
<!DOCTYPE svg PUBLIC "-//W3C//DTD SVG 1.1//EN" "http://www.w3.org/Graphics/SVG/1.1/DTD/svg11.dtd">
<!-- Creator: CorelDRAW X6 -->
<svg xmlns="http://www.w3.org/2000/svg" xml:space="preserve" width="31.6119mm" height="31.6118mm" version="1.1" style="shape-rendering:geometricPrecision; text-rendering:geometricPrecision; image-rendering:optimizeQuality; fill-rule:evenodd; clip-rule:evenodd"
viewBox="0 0 10392 10392"
 xmlns:xlink="http://www.w3.org/1999/xlink">
 <defs>
  <style type="text/css">
   <![CDATA[
    .fil1 {fill:#212220}
    .fil0 {fill:blue}
   ]]>
  </style>
 </defs>
 <g id="Layer_x0020_1">
  <metadata id="CorelCorpID_0Corel-Layer"/>
  <path class="fil0" d="M9763 0l34 1 32 2 31 4 31 6 30 7 30 8 29 10 28 11 28 13 27 14 26 15 26 16 25 18 24 19 23 20 22 21 21 22 20 23 19 24 18 25 16 26 15 26 14 27 13 28 11 28 10 29 8 30 7 30 6 31 4 31 2 32 1 34 0 9133 -1 34 -2 32 -4 31 -6 31 -7 30 -8 30 -10 29 -11 28 -13 28 -14 27 -15 26 -16 26 -18 25 -19 24 -20 23 -21 22 -22 21 -23 20 -24 19 -25 18 -26 16 -26 15 -27 14 -28 13 -28 11 -29 10 -30 8 -30 7 -31 6 -31 4 -32 2 -34 1 -9133 0 -34 -1 -32 -2 -31 -4 -31 -6 -30 -7 -30 -9 -29 -10 -28 -11 -28 -13 -27 -14 -26 -15 -26 -16 -25 -18 -24 -19 -23 -20 -22 -21 -21 -22 -20 -23 -19 -24 -18 -25 -16 -26 -15 -26 -14 -27 -13 -28 -11 -28 -10 -29 -8 -30 -7 -30 -6 -31 -4 -31 -2 -32 -1 -34 0 -9132 1 -35 2 -32 4 -31 6 -31 7 -30 8 -30 10 -29 11 -28 13 -28 14 -27 15 -26 16 -25 17 -25 19 -24 20 -23 21 -22 22 -21 23 -20 24 -19 25 -18 25 -16 26 -15 27 -14 28 -13 28 -11 29 -10 30 -8 30 -7 31 -5 31 -4 32 -2 35 -1 9133 0zm-753 1382l0 7627 -7627 0 0 -7627 7627 0z"/>
  <path class="fil1" d="M5161 5066c-48,85 -172,195 -282,195l115 -935 1334 -770 1126 1000c228,300 -10,623 -329,484l-844 -736 -565 382 508 348c-264,331 -785,276 -1063,32z"/>
  <path class="fil1" d="M4103 3993c736,38 945,882 505,1279 -151,-8 -368,-75 -508,-233 -144,153 -295,211 -500,233 -455,-378 -236,-1253 503,-1279z"/>
  <path class="fil1" d="M1884 5518l0 -281c351,345 706,340 1140,28 406,304 596,310 1075,7 349,295 728,297 1103,16 385,277 729,292 1074,-30 422,325 745,312 1067,7 435,336 839,309 1166,-101l-1 354c-336,334 -800,323 -1160,66 -318,242 -740,258 -1056,5 -391,251 -712,242 -1093,-5 -374,249 -662,237 -1101,-2 -386,246 -678,255 -1073,5 -357,258 -720,254 -1140,-70z"/>
  <path class="fil1" d="M1888 5711c430,367 737,370 1141,48 310,315 654,316 1068,-3 352,316 701,323 1111,6 352,320 744,313 1085,-11 297,324 713,329 1056,6 361,310 799,336 1159,-50l1 1129 -6621 -2 0 -1123z"/>
 </g>
</svg>
