<?xml version="1.0" encoding="UTF-8"?>
<!DOCTYPE svg PUBLIC "-//W3C//DTD SVG 1.1//EN" "http://www.w3.org/Graphics/SVG/1.1/DTD/svg11.dtd">
<!-- Creator: CorelDRAW X6 -->
<svg xmlns="http://www.w3.org/2000/svg" xml:space="preserve" width="31.6118mm" height="31.6118mm" version="1.1" style="shape-rendering:geometricPrecision; text-rendering:geometricPrecision; image-rendering:optimizeQuality; fill-rule:evenodd; clip-rule:evenodd"
viewBox="0 0 1846 1846"
 xmlns:xlink="http://www.w3.org/1999/xlink">
 <defs>
  <style type="text/css">
   <![CDATA[
    .fil0 {fill:#212220}
    .fil1 {fill:blue}
   ]]>
  </style>
 </defs>
 <g id="Layer_x0020_1">
  <metadata id="CorelCorpID_0Corel-Layer"/>
  <path class="fil0" d="M545 943l0 -40c0,-45 37,-82 82,-82 45,0 82,37 82,82l0 40c0,45 -37,82 -82,82 -45,0 -82,-37 -82,-82zm40 0c0,23 19,42 42,42 23,0 42,-19 42,-42l0 -40c0,-23 -19,-42 -42,-42 -23,0 -42,19 -42,42l0 40z"/>
  <path class="fil0" d="M321 1022l0 -279 110 0c47,0 85,38 85,85 0,47 -38,85 -85,85l-67 0 0 110 -42 0zm42 -149l65 0c25,0 45,-20 45,-45 0,-25 -20,-45 -45,-45l-65 0 0 90z"/>
  <path class="fil1" d="M1734 0l6 0 6 0 6 1 5 1 5 1 5 2 5 2 5 2 5 2 5 2 5 3 5 3 4 3 4 3 4 4 4 4 4 4 4 4 3 4 3 4 3 5 3 5 2 5 2 5 2 5 2 5 2 5 1 5 1 5 1 6 0 6 0 6 0 1622 0 6 0 6 -1 6 -1 5 -1 5 -2 5 -2 5 -2 5 -2 5 -2 5 -3 5 -3 5 -3 4 -3 4 -4 4 -4 4 -4 4 -4 4 -4 3 -4 3 -5 3 -5 3 -5 2 -5 2 -5 2 -5 2 -5 2 -5 1 -5 1 -6 1 -6 0 -6 0 -1622 0 -6 0 -6 0 -6 -1 -5 -1 -5 -1 -5 -2 -5 -2 -5 -2 -5 -2 -5 -2 -5 -3 -5 -3 -4 -3 -4 -3 -4 -4 -4 -4 -4 -4 -4 -4 -3 -4 -3 -4 -3 -5 -3 -5 -2 -5 -2 -5 -2 -5 -2 -5 -2 -5 -1 -5 -1 -5 -1 -6 0 -6 0 -6 0 -1622 0 -6 0 -6 1 -6 1 -5 1 -5 1 -5 2 -5 2 -5 2 -5 2 -5 3 -5 3 -5 3 -4 3 -4 4 -4 4 -4 4 -4 4 -4 4 -3 4 -3 5 -3 5 -3 5 -2 5 -2 5 -2 5 -2 5 -1 5 -1 5 -1 6 -1 6 0 6 0 1622 0zm-134 246l0 1355 -1355 0 0 -1355 1355 0z"/>
  <path class="fil0" d="M834 1022l-25 0c-25,0 -45,-20 -45,-45l0 -234 40 0 0 229c0,7 6,13 12,13l17 0 0 37z"/>
  <path class="fil0" d="M1525 1022l-40 0 0 -21c-7,13 -20,21 -35,21l-25 0c-33,0 -60,-27 -60,-60 0,-33 27,-60 60,-60l60 0 0 -20c0,-11 -8,-20 -19,-22 -14,-2 -29,-2 -43,0 -7,1 -13,6 -16,12l-31 -25c9,-14 24,-24 41,-26 19,-3 38,-3 56,0 30,5 52,31 52,61l0 139zm-40 -87l-57 0c-14,0 -25,11 -25,25 0,14 11,25 25,25l32 0c14,0 25,-11 25,-25l0 -25z"/>
  <polygon class="fil0" points="883,783 883,744 923,744 923,783 "/>
  <polygon class="fil0" points="883,1022 883,823 923,823 923,1022 "/>
  <path class="fil0" d="M1132 993c-32,38 -88,43 -126,12 -20,-17 -32,-42 -32,-69l0 -25c0,-49 40,-90 90,-90 27,0 52,12 69,32l-31 25c-17,-21 -49,-24 -70,-7 -11,10 -18,24 -18,38l0 25c0,27 22,50 50,50 15,0 29,-7 38,-18l31 25z"/>
  <polygon class="fil0" points="1171,783 1171,744 1211,744 1211,783 "/>
  <polygon class="fil0" points="1171,1022 1171,823 1211,823 1211,1022 "/>
  <path class="fil0" d="M1276 823l40 0 0 224c0,30 -24,55 -55,55l-20 0 0 -37 15 0c11,0 20,-9 20,-20l0 -221z"/>
  <polygon class="fil0" points="1276,783 1276,744 1316,744 1316,783 "/>
 </g>
</svg>
