<?xml version="1.0" encoding="UTF-8"?>
<!DOCTYPE svg PUBLIC "-//W3C//DTD SVG 1.1//EN" "http://www.w3.org/Graphics/SVG/1.1/DTD/svg11.dtd">
<!-- Creator: CorelDRAW X6 -->
<svg xmlns="http://www.w3.org/2000/svg" xml:space="preserve" width="31.6119mm" height="31.6118mm" version="1.1" style="shape-rendering:geometricPrecision; text-rendering:geometricPrecision; image-rendering:optimizeQuality; fill-rule:evenodd; clip-rule:evenodd"
viewBox="0 0 2731 2731"
 xmlns:xlink="http://www.w3.org/1999/xlink">
 <defs>
  <style type="text/css">
   <![CDATA[
    .fil0 {fill:#212220}
    .fil1 {fill:blue}
   ]]>
  </style>
 </defs>
 <g id="Layer_x0020_1">
  <metadata id="CorelCorpID_0Corel-Layer"/>
  <path class="fil0" d="M2236 1833l-58 0 0 -30c-11,19 -30,30 -51,30l-36 0c-48,0 -87,-39 -87,-88 0,-48 39,-87 87,-87l88 0 0 -29c0,-16 -12,-29 -27,-32 -21,-4 -42,-4 -62,0 -10,2 -19,8 -24,18l-46 -36c14,-21 36,-35 60,-39 27,-5 55,-5 82,0 44,8 75,45 75,90l0 204zm-58 -128l-84 0c-20,0 -36,16 -36,36 0,20 16,36 36,36l47 0c20,0 37,-16 37,-36l0 -36z"/>
  <path class="fil0" d="M801 1717l0 -58c0,-66 54,-120 120,-120 66,0 120,54 120,120l0 58c0,66 -54,120 -120,120 -66,0 -120,-54 -120,-120zm58 0c0,34 28,62 62,62 34,0 62,-28 62,-62l0 -58c0,-34 -28,-62 -62,-62 -34,0 -62,28 -62,62l0 58z"/>
  <path class="fil0" d="M495 1950l0 -408 58 0 0 33c34,-42 96,-49 138,-15 23,19 37,47 37,77l0 102c0,54 -44,98 -98,98 -30,0 -58,-13 -77,-36l0 150 -58 0zm58 -230c0,32 26,58 58,58 32,0 58,-26 58,-58l0 -66c0,-32 -26,-58 -58,-58 -32,0 -58,26 -58,58l0 66z"/>
  <path class="fil0" d="M1416 1073l-184 0 0 7c0,26 15,49 39,58 33,13 70,4 93,-23l45 39c-39,46 -104,62 -160,39 -46,-18 -76,-63 -76,-113l0 -59c0,-67 54,-122 122,-122 67,0 122,54 122,122l0 52zm-184 -52l125 0c0,-35 -28,-63 -63,-63 -35,0 -63,28 -63,63z"/>
  <polygon class="fil0" points="1530,1327 1530,1236 1585,1235 1584,1299 "/>
  <path class="fil0" d="M1224 1833l-37 0c-36,0 -66,-29 -66,-66l0 -343 58 0 0 335c0,10 8,18 18,18l26 0 0 55z"/>
  <polygon class="fil0" points="1297,1483 1297,1425 1355,1425 1355,1483 "/>
  <polygon class="fil0" points="1297,1833 1297,1541 1355,1541 1355,1833 "/>
  <path class="fil0" d="M1660 1789c-46,56 -129,63 -185,17 -30,-25 -47,-62 -47,-101l0 -37c0,-72 59,-131 131,-131 39,0 76,17 101,47l-45 37c-26,-31 -72,-35 -103,-10 -17,14 -26,35 -26,56l0 37c0,40 33,73 73,73 22,0 42,-9 56,-26l45 37z"/>
  <polygon class="fil0" points="1718,1483 1718,1425 1777,1425 1777,1483 "/>
  <polygon class="fil0" points="1718,1833 1718,1541 1777,1541 1777,1833 "/>
  <path class="fil0" d="M1871 1541l58 0 0 328c0,44 -36,80 -80,80l-29 0 0 -55 22 0c16,0 29,-13 29,-29l0 -324z"/>
  <polygon class="fil0" points="1871,1483 1871,1425 1930,1425 1930,1483 "/>
  <path class="fil0" d="M1107 1080c-14,80 -91,134 -171,119 -71,-12 -122,-74 -122,-145l0 -125c0,-82 66,-148 147,-148 72,0 133,51 145,122l-64 0c-14,-45 -62,-69 -107,-55 -35,11 -59,44 -59,81l0 125c0,47 38,85 85,85 37,0 70,-24 81,-59l64 0z"/>
  <path class="fil0" d="M1601 1198l-37 0c-37,0 -66,-30 -66,-66l0 -347 59 0 0 339c0,10 8,18 18,18l26 0 0 55z"/>
  <path class="fil0" d="M1896 1198l-59 0 0 -33c-35,43 -97,50 -140,15 -23,-19 -37,-47 -37,-77l0 -199 59 0 0 181c0,33 26,59 59,59 33,0 59,-26 59,-59l0 -181 59 0 0 295z"/>
  <path class="fil1" d="M2566 0l9 0 8 1 8 1 8 1 8 2 8 2 8 3 7 3 7 3 7 4 7 4 7 4 6 5 6 5 6 5 6 5 5 6 5 6 5 6 5 6 4 7 4 7 4 7 3 7 3 7 3 8 2 8 2 8 1 8 1 8 1 8 0 9 0 2400 0 9 -1 8 -1 8 -1 8 -2 8 -2 8 -3 8 -3 7 -3 7 -4 7 -4 7 -4 7 -5 6 -5 6 -5 6 -5 6 -6 5 -6 5 -6 5 -6 5 -7 4 -7 4 -7 4 -7 3 -7 3 -8 3 -8 2 -8 2 -8 1 -8 1 -8 1 -9 0 -2400 0 -9 0 -8 -1 -8 -1 -8 -1 -8 -2 -8 -2 -8 -3 -7 -3 -7 -3 -7 -4 -7 -4 -7 -4 -6 -5 -6 -5 -6 -5 -6 -6 -6 -6 -5 -6 -5 -6 -5 -7 -4 -7 -4 -7 -4 -7 -3 -7 -3 -7 -3 -8 -2 -8 -2 -8 -1 -8 -1 -8 -1 -8 0 -9 0 -2400 0 -9 1 -8 1 -8 1 -8 2 -8 2 -8 3 -8 3 -7 3 -7 4 -7 4 -7 4 -7 5 -6 5 -6 5 -6 5 -6 6 -5 6 -5 6 -5 6 -5 7 -4 7 -4 7 -4 7 -3 7 -3 8 -3 8 -2 8 -2 8 -1 8 -1 8 -1 9 0 2400 0zm-198 363l0 2004 -2004 0 0 -2004 2004 0z"/>
 </g>
</svg>
