<?xml version="1.0" encoding="UTF-8"?>
<!DOCTYPE svg PUBLIC "-//W3C//DTD SVG 1.1//EN" "http://www.w3.org/Graphics/SVG/1.1/DTD/svg11.dtd">
<!-- Creator: CorelDRAW X6 -->
<svg xmlns="http://www.w3.org/2000/svg" xml:space="preserve" width="31.6118mm" height="31.6118mm" version="1.1" style="shape-rendering:geometricPrecision; text-rendering:geometricPrecision; image-rendering:optimizeQuality; fill-rule:evenodd; clip-rule:evenodd"
viewBox="0 0 2895 2895"
 xmlns:xlink="http://www.w3.org/1999/xlink">
 <defs>
  <style type="text/css">
   <![CDATA[
    .fil0 {fill:#212220}
    .fil1 {fill:blue}
   ]]>
  </style>
 </defs>
 <g id="Layer_x0020_1">
  <metadata id="CorelCorpID_0Corel-Layer"/>
  <path class="fil0" d="M1842 2307l-792 -745c-189,-15 -386,-16 -567,-55 -30,-28 -32,-56 -1,-83 180,-47 383,-50 568,-58l792 -777 166 0 -464 677c1,31 2,66 2,97 188,2 364,36 547,49l246 -227 96 0 -178 227 20 27 1 47 -21 30 178 233 -95 1 -247 -233c-184,15 -366,49 -548,46l0 104 463 641 -166 0z"/>
  <path class="fil1" d="M2719 0l10 0 9 1 9 1 9 2 8 2 8 2 8 3 8 3 8 4 8 4 7 4 7 5 7 5 7 5 6 6 6 6 6 6 6 6 5 7 5 7 5 7 4 7 4 8 4 8 3 8 3 8 2 8 2 8 2 9 1 9 1 9 0 10 0 2544 0 10 -1 9 -1 9 -2 9 -2 8 -2 8 -3 8 -3 8 -4 8 -4 8 -4 7 -5 7 -5 7 -5 7 -6 6 -6 6 -6 6 -6 6 -7 5 -7 5 -7 5 -7 4 -8 4 -8 4 -8 3 -8 3 -8 2 -8 2 -9 2 -9 1 -9 1 -10 0 -2544 0 -10 0 -9 -1 -9 -1 -9 -2 -8 -2 -8 -2 -8 -3 -8 -3 -8 -4 -8 -4 -7 -4 -7 -5 -7 -5 -7 -5 -6 -6 -6 -6 -6 -6 -6 -6 -5 -7 -5 -7 -5 -7 -4 -7 -4 -8 -4 -8 -3 -8 -3 -8 -2 -8 -2 -8 -2 -9 -1 -9 -1 -9 0 -10 0 -2543 0 -10 1 -9 1 -9 2 -9 2 -8 2 -8 3 -8 3 -8 3 -8 4 -8 4 -7 5 -7 5 -7 5 -7 6 -6 6 -6 6 -6 6 -5 7 -5 7 -5 7 -5 7 -4 8 -4 8 -3 8 -3 8 -3 8 -2 8 -2 9 -2 9 -1 9 -1 10 0 2544 0zm-210 385l0 2124 -2124 0 0 -2124 2124 0z"/>
 </g>
</svg>
