<?xml version="1.0" encoding="UTF-8"?>
<!DOCTYPE svg PUBLIC "-//W3C//DTD SVG 1.1//EN" "http://www.w3.org/Graphics/SVG/1.1/DTD/svg11.dtd">
<!-- Creator: CorelDRAW X6 -->
<svg xmlns="http://www.w3.org/2000/svg" xml:space="preserve" width="31.6118mm" height="31.6118mm" version="1.1" style="shape-rendering:geometricPrecision; text-rendering:geometricPrecision; image-rendering:optimizeQuality; fill-rule:evenodd; clip-rule:evenodd"
viewBox="0 0 1792 1792"
  xmlns:xlink="http://www.w3.org/1999/xlink">
 <defs>
  <style type="text/css">
   <![CDATA[
    .fil0 {fill:#212220}
    .fil1 {fill:blue}
   ]]>
  </style>
 </defs>
 <g id="Layer_x0020_1">
  <metadata id="CorelCorpID_0Corel-Layer"/>
  <path class="fil0" d="M310 1435l0 -82 202 0c-109,-28 -82,-161 9,-163 101,1 124,138 14,163l629 0c-114,-35 -69,-164 18,-162 84,-2 127,129 16,162l273 1 0 82 -1160 -1zm871 -203c22,0 40,17 40,39 0,21 -18,39 -40,39 -22,0 -39,-17 -39,-39 0,-21 18,-39 39,-39zm-658 -2c22,0 40,17 40,39 0,22 -18,39 -40,39 -22,0 -39,-17 -39,-39 0,-21 18,-39 39,-39z"/>
  <path class="fil0" d="M1487 1234l-110 40 -88 0c-1,-54 -38,-103 -106,-106 -67,3 -106,38 -110,105l-442 0c-2,-58 -49,-106 -108,-106 -62,0 -105,47 -106,107l-63 0c-24,0 -49,-20 -49,-48l0 -191 96 -166c7,-12 18,-32 46,-33l997 0c17,-1 43,17 43,44l0 353zm-918 -190l-225 0 97 -166 128 0 0 165zm217 0l-183 0 0 -165 183 0 0 165zm215 0l-183 0 0 -165 183 0 0 165zm207 0l-176 0 0 -165 176 0 0 165zm215 0l-186 0 0 -165 186 0 0 165z"/>
  <polygon class="fil0" points="315,609 895,356 1472,610 1439,679 894,438 343,679 "/>
  <polygon class="fil0" points="491,679 476,648 896,463 1310,649 1299,679 894,505 "/>
  <path class="fil1" d="M1683 0l6 0 5 0 5 1 5 1 5 1 5 1 5 2 5 2 5 2 5 2 5 3 4 3 4 3 4 3 4 3 4 4 4 4 3 4 3 4 3 4 3 4 3 5 2 5 2 5 2 5 2 5 1 5 1 5 1 5 1 5 0 5 0 6 0 1574 0 6 0 5 -1 5 -1 5 -1 5 -1 5 -2 5 -2 5 -2 5 -2 5 -3 5 -3 4 -3 4 -3 4 -3 4 -4 4 -4 4 -4 3 -4 3 -4 3 -4 3 -5 3 -5 2 -5 2 -5 2 -5 2 -5 1 -5 1 -5 1 -5 1 -5 0 -6 0 -1574 0 -6 0 -5 0 -5 -1 -5 -1 -5 -1 -5 -1 -5 -2 -5 -2 -5 -2 -5 -2 -5 -3 -4 -3 -4 -3 -4 -3 -4 -3 -4 -4 -4 -4 -3 -4 -3 -4 -3 -4 -3 -4 -3 -5 -2 -5 -2 -5 -2 -5 -2 -5 -1 -5 -1 -5 -1 -5 -1 -5 0 -5 0 -6 0 -1574 0 -6 0 -6 1 -5 1 -5 1 -5 1 -5 2 -5 2 -5 2 -5 2 -5 3 -5 3 -4 3 -4 3 -4 3 -4 4 -4 4 -4 4 -3 4 -3 4 -3 4 -3 5 -3 5 -2 5 -2 5 -2 5 -2 5 -1 5 -1 5 -1 5 -1 5 0 6 0 1574 0zm-130 238l0 1315 -1315 0 0 -1315 1315 0z"/>
 </g>
</svg>
