<?xml version="1.0" encoding="utf-8"?>
<!-- Generator: Adobe Illustrator 16.0.0, SVG Export Plug-In . SVG Version: 6.00 Build 0)  -->
<!DOCTYPE svg PUBLIC "-//W3C//DTD SVG 1.1//EN" "http://www.w3.org/Graphics/SVG/1.1/DTD/svg11.dtd">
<svg version="1.1" id="Layer_1" xmlns="http://www.w3.org/2000/svg" xmlns:xlink="http://www.w3.org/1999/xlink" x="0px" y="0px"
	 width="80.021px" height="80.022px" viewBox="0 0 80.021 80.022" enable-background="new 0 0 80.021 80.022" xml:space="preserve">
<path fill-rule="evenodd" clip-rule="evenodd" d="M58.734,60.899c4.643-1.516,3.817-8.515-1.137-8.515
	c-4.948,0-6.034,6.984-1.396,8.515h-6.996c4.74-1.364,3.726-8.515-1.288-8.515c-4.969,0-6.043,7.059-1.344,8.515h-7.049
	c4.658-1.492,3.593-8.515-1.37-8.515c-4.928,0-6.047,6.925-1.421,8.515h-6.848c1.772-0.577,2.98-2.234,2.98-4.123
	c0-2.418-1.975-4.392-4.393-4.392c-4.969,0-5.892,7.419-0.671,8.515H19.46c2.998-0.637,2.488-5.082-0.58-5.082
	c-3.046,0-3.517,4.425-0.557,5.082h-4.055v3.45h51.5v-3.45H58.734z"/>
<path fill="none" stroke="#231F20" stroke-width="0.1511" stroke-miterlimit="22.9256" d="M58.734,60.899
	c4.643-1.516,3.817-8.515-1.137-8.515c-4.948,0-6.034,6.984-1.396,8.515h-6.996c4.74-1.364,3.726-8.515-1.288-8.515
	c-4.969,0-6.043,7.059-1.344,8.515h-7.049c4.658-1.492,3.593-8.515-1.37-8.515c-4.928,0-6.047,6.925-1.421,8.515h-6.848
	c1.772-0.577,2.98-2.234,2.98-4.123c0-2.418-1.975-4.392-4.393-4.392c-4.969,0-5.892,7.419-0.671,8.515H19.46
	c2.998-0.637,2.488-5.082-0.58-5.082c-3.046,0-3.517,4.425-0.557,5.082h-4.055v3.45h51.5v-3.45H58.734z"/>
<path fill-rule="evenodd" clip-rule="evenodd" d="M55.334,38.149h5.81v3.779h-5.81V38.149z M53.221,48.297V36.489h12.548v1.791
	l-2.578-0.006v10.023H53.221z"/>
<path fill="none" stroke="#231F20" stroke-width="0.1511" stroke-miterlimit="22.9256" d="M55.334,38.149h5.81v3.779h-5.81V38.149z
	 M53.221,48.297V36.489h12.548v1.791l-2.578-0.006v10.023H53.221z"/>
<path fill-rule="evenodd" clip-rule="evenodd" d="M19.243,44.201l2.182-4.524l2.82-0.006l-0.006-3.181h3.563v3.181h6.768
	c0.914-3.27,7.313-3.261,8.299,0l9.363,0.006v8.62l-31.258,0.006L19.243,44.201z"/>
<path fill="none" stroke="#231F20" stroke-width="0.1511" stroke-miterlimit="22.9256" d="M19.243,44.201l2.182-4.524l2.82-0.006
	l-0.006-3.181h3.563v3.181h6.768c0.914-3.27,7.313-3.261,8.299,0l9.363,0.006v8.62l-31.258,0.006L19.243,44.201z"/>
<polygon fill-rule="evenodd" clip-rule="evenodd" points="63.19,55.655 63.19,51.811 22.534,51.811 22.534,55.622 14.899,55.622 
	14.899,52.387 16.953,52.387 20.584,49.09 65.763,49.096 65.763,55.655 "/>
<polygon fill="none" stroke="#231F20" stroke-width="0.1511" stroke-miterlimit="22.9256" points="63.19,55.655 63.19,51.811 
	22.534,51.811 22.534,55.622 14.899,55.622 14.899,52.387 16.953,52.387 20.584,49.09 65.763,49.096 65.763,55.655 "/>
<polygon fill-rule="evenodd" clip-rule="evenodd" points="15.328,26.702 40.604,15.661 65.766,26.714 64.36,29.742 40.566,19.227 
	16.548,29.735 "/>
<polygon fill="none" stroke="#231F20" stroke-width="0.1511" stroke-miterlimit="22.9256" points="15.328,26.702 40.604,15.661 
	65.766,26.714 64.36,29.742 40.566,19.227 16.548,29.735 "/>
<polygon fill-rule="evenodd" clip-rule="evenodd" points="23.028,29.753 22.336,28.377 40.649,20.328 58.723,28.428 58.22,29.721 
	40.572,22.136 "/>
<polygon fill="none" stroke="#231F20" stroke-width="0.1511" stroke-miterlimit="22.9256" points="23.028,29.753 22.336,28.377 
	40.649,20.328 58.723,28.428 58.22,29.721 40.572,22.136 "/>
<polygon fill="none" stroke="#231F20" stroke-width="0.0216" stroke-miterlimit="22.9256" points="73.952,0.011 74.262,0.019 
	74.568,0.042 74.87,0.081 75.168,0.135 75.46,0.203 75.747,0.285 76.028,0.38 76.303,0.489 76.571,0.611 76.832,0.746 77.086,0.892 
	77.331,1.05 77.569,1.22 77.798,1.4 78.019,1.591 78.229,1.792 78.431,2.003 78.621,2.222 78.802,2.452 78.971,2.689 79.129,2.935 
	79.275,3.189 79.409,3.45 79.531,3.718 79.641,3.993 79.736,4.274 79.818,4.561 79.887,4.854 79.94,5.15 79.979,5.453 80.002,5.759 
	80.011,6.069 80.011,73.953 80.002,74.262 79.979,74.569 79.94,74.871 79.887,75.168 79.818,75.46 79.736,75.748 79.641,76.029 
	79.531,76.303 79.409,76.572 79.275,76.833 79.129,77.086 78.971,77.332 78.802,77.57 78.621,77.798 78.431,78.019 78.229,78.23 
	78.019,78.431 77.798,78.622 77.569,78.802 77.331,78.971 77.086,79.129 76.832,79.276 76.571,79.411 76.303,79.532 76.028,79.641 
	75.747,79.737 75.46,79.819 75.168,79.887 74.87,79.941 74.568,79.979 74.262,80.002 73.952,80.011 6.068,80.011 5.759,80.002 
	5.453,79.979 5.151,79.94 4.854,79.886 4.562,79.817 4.274,79.735 3.994,79.638 3.72,79.529 3.451,79.407 3.19,79.271 2.937,79.124 
	2.69,78.965 2.452,78.794 2.224,78.614 2.003,78.422 1.792,78.22 1.591,78.008 1.4,77.788 1.22,77.558 1.051,77.32 0.893,77.073 
	0.746,76.819 0.611,76.557 0.489,76.289 0.381,76.014 0.284,75.733 0.202,75.446 0.134,75.154 0.08,74.857 0.042,74.555 
	0.018,74.25 0.011,73.94 0.011,6.069 0.018,5.758 0.041,5.45 0.08,5.147 0.134,4.849 0.201,4.556 0.282,4.268 0.378,3.987 
	0.486,3.711 0.607,3.443 0.742,3.182 0.888,2.928 1.045,2.682 1.214,2.445 1.395,2.216 1.584,1.996 1.785,1.786 1.995,1.585 
	2.216,1.395 2.444,1.215 2.682,1.045 2.928,0.888 3.182,0.743 3.442,0.608 3.711,0.487 3.986,0.378 4.268,0.283 4.556,0.201 
	4.849,0.134 5.146,0.081 5.449,0.042 5.757,0.019 6.068,0.011 "/>
<path fill-rule="evenodd" clip-rule="evenodd" fill="#0001FE" d="M68.341,11.68v56.662H11.68V11.68H68.341z M73.935,1.411
	l0.256,0.007l0.235,0.018l0.231,0.029l0.228,0.042l0.224,0.052l0.22,0.063l0.216,0.074l0.211,0.083l0.206,0.094l0.2,0.103
	l0.195,0.113l0.189,0.122l0.184,0.13l0.177,0.139l0.17,0.147l0.163,0.155l0.154,0.163l0.148,0.17l0.139,0.177l0.131,0.184
	l0.122,0.189l0.112,0.195l0.104,0.201l0.094,0.206l0.083,0.21l0.073,0.216l0.063,0.22l0.052,0.224l0.041,0.228l0.029,0.231
	l0.019,0.235l0.007,0.256v67.849l-0.007,0.256l-0.019,0.235l-0.029,0.231l-0.041,0.228l-0.052,0.224l-0.063,0.22l-0.073,0.216
	l-0.083,0.211l-0.094,0.206l-0.104,0.2l-0.112,0.195l-0.122,0.189l-0.131,0.184l-0.139,0.177l-0.148,0.17l-0.154,0.163l-0.163,0.155
	l-0.17,0.146l-0.177,0.14l-0.184,0.131l-0.189,0.122l-0.195,0.112l-0.2,0.104l-0.206,0.094l-0.211,0.083L75.328,78.4l-0.22,0.063
	l-0.224,0.052l-0.228,0.041l-0.231,0.029l-0.235,0.019l-0.256,0.007H6.086l-0.255-0.007l-0.234-0.019l-0.23-0.029l-0.228-0.041
	l-0.224-0.053L4.695,78.4L4.48,78.326L4.27,78.242l-0.205-0.095l-0.201-0.104L3.668,77.93l-0.189-0.123l-0.184-0.131l-0.178-0.141
	l-0.17-0.148l-0.163-0.156l-0.155-0.163L2.48,76.897l-0.139-0.178L2.21,76.536l-0.121-0.19l-0.113-0.196l-0.104-0.201l-0.094-0.207
	L1.694,75.53l-0.073-0.216l-0.063-0.22l-0.053-0.224l-0.041-0.228l-0.029-0.231l-0.019-0.234L1.41,73.922V6.086l0.007-0.257
	l0.019-0.237l0.029-0.233l0.04-0.229l0.053-0.225l0.063-0.22l0.073-0.216l0.083-0.211l0.093-0.206L1.973,3.85l0.111-0.195
	l0.122-0.189l0.13-0.183l0.138-0.176L2.62,2.938l0.155-0.162l0.162-0.155l0.169-0.146l0.177-0.138l0.183-0.13l0.189-0.122
	L3.85,1.973L4.051,1.87l0.206-0.093l0.211-0.083l0.216-0.073l0.221-0.063l0.225-0.052l0.229-0.041l0.232-0.029l0.237-0.018
	l0.258-0.007H73.935z"/>
<path fill="none" stroke="#231F20" stroke-width="0.0216" stroke-miterlimit="22.9256" d="M68.341,11.68v56.662H11.68V11.68H68.341z
	 M73.935,1.411l0.256,0.007l0.235,0.018l0.231,0.029l0.228,0.042l0.224,0.052l0.22,0.063l0.216,0.074l0.211,0.083l0.206,0.094
	l0.2,0.103l0.195,0.113l0.189,0.122l0.184,0.13l0.177,0.139l0.17,0.147l0.163,0.155l0.154,0.163l0.148,0.17l0.139,0.177l0.131,0.184
	l0.122,0.189l0.112,0.195l0.104,0.201l0.094,0.206l0.083,0.21l0.073,0.216l0.063,0.22l0.052,0.224l0.041,0.228l0.029,0.231
	l0.019,0.235l0.007,0.256v67.849l-0.007,0.256l-0.019,0.235l-0.029,0.231l-0.041,0.228l-0.052,0.224l-0.063,0.22l-0.073,0.216
	l-0.083,0.211l-0.094,0.206l-0.104,0.2l-0.112,0.195l-0.122,0.189l-0.131,0.184l-0.139,0.177l-0.148,0.17l-0.154,0.163l-0.163,0.155
	l-0.17,0.146l-0.177,0.14l-0.184,0.131l-0.189,0.122l-0.195,0.112l-0.2,0.104l-0.206,0.094l-0.211,0.083L75.328,78.4l-0.22,0.063
	l-0.224,0.052l-0.228,0.041l-0.231,0.029l-0.235,0.019l-0.256,0.007H6.086l-0.255-0.007l-0.234-0.019l-0.23-0.029l-0.228-0.041
	l-0.224-0.053L4.695,78.4L4.48,78.326L4.27,78.242l-0.205-0.095l-0.201-0.104L3.668,77.93l-0.189-0.123l-0.184-0.131l-0.178-0.141
	l-0.17-0.148l-0.163-0.156l-0.155-0.163L2.48,76.897l-0.139-0.178L2.21,76.536l-0.121-0.19l-0.113-0.196l-0.104-0.201l-0.094-0.207
	L1.694,75.53l-0.073-0.216l-0.063-0.22l-0.053-0.224l-0.041-0.228l-0.029-0.231l-0.019-0.234L1.41,73.922V6.086l0.007-0.257
	l0.019-0.237l0.029-0.233l0.04-0.229l0.053-0.225l0.063-0.22l0.073-0.216l0.083-0.211l0.093-0.206L1.973,3.85l0.111-0.195
	l0.122-0.189l0.13-0.183l0.138-0.176L2.62,2.938l0.155-0.162l0.162-0.155l0.169-0.146l0.177-0.138l0.183-0.13l0.189-0.122
	L3.85,1.973L4.051,1.87l0.206-0.093l0.211-0.083l0.216-0.073l0.221-0.063l0.225-0.052l0.229-0.041l0.232-0.029l0.237-0.018
	l0.258-0.007H73.935z"/>
</svg>
