<?xml version="1.0" encoding="UTF-8"?>
<!DOCTYPE svg PUBLIC "-//W3C//DTD SVG 1.1//EN" "http://www.w3.org/Graphics/SVG/1.1/DTD/svg11.dtd">
<!-- Creator: CorelDRAW X6 -->
<svg xmlns="http://www.w3.org/2000/svg" xml:space="preserve" width="31.6118mm" height="32.8475mm" version="1.1" style="shape-rendering:geometricPrecision; text-rendering:geometricPrecision; image-rendering:optimizeQuality; fill-rule:evenodd; clip-rule:evenodd"
viewBox="0 0 536 557"
 xmlns:xlink="http://www.w3.org/1999/xlink">
 <defs>
  <style type="text/css">
   <![CDATA[
    .fil1 {fill:#212220}
    .fil0 {fill:blue}
   ]]>
  </style>
 </defs>
 <g id="Layer_x0020_1">
  <metadata id="CorelCorpID_0Corel-Layer"/>
  <path class="fil0" d="M504 21l2 0 2 0 2 0 2 0 2 0 2 0 1 1 1 1 1 1 1 1 1 1 1 1 1 1 1 1 1 1 1 1 1 1 1 1 1 1 1 1 1 1 1 1 1 1 1 1 1 1 1 1 0 2 0 2 0 2 0 2 0 2 0 2 0 471 0 2 0 2 0 2 0 2 0 2 0 2 -1 1 -1 1 -1 1 -1 1 -1 1 -1 1 -1 1 -1 1 -1 1 -1 1 -1 1 -1 1 -1 1 -1 1 -1 1 -1 1 -1 1 -1 1 -1 1 -1 1 -2 0 -2 0 -2 0 -2 0 -2 0 -2 0 -471 0 -2 0 -2 0 -2 0 -2 0 -2 0 -2 0 -1 -1 -1 -1 -1 -1 -1 -1 -1 -1 -1 -1 -1 -1 -1 -1 -1 -1 -1 -1 -1 -1 -1 -1 -1 -1 -1 -1 -1 -1 -1 -1 -1 -1 -1 -1 -1 -1 -1 -1 0 -2 0 -2 0 -2 0 -2 0 -2 0 -2 0 -471 0 -2 0 -2 0 -2 0 -2 0 -2 0 -2 1 -1 1 -1 1 -1 1 -1 1 -1 1 -1 1 -1 1 -1 1 -1 1 -1 1 -1 1 -1 1 -1 1 -1 1 -1 1 -1 1 -1 1 -1 1 -1 1 -1 2 0 2 0 2 0 2 0 2 0 2 0 471 0zm-39 71l0 394 -394 0 0 -394 394 0z"/>
  <polygon class="fil1" points="215,185 215,159 210,159 210,182 205,178 205,159 200,159 200,174 194,169 194,154 205,154 205,140 210,140 210,154 221,154 221,189 "/>
  <path class="fil1" d="M252 238l0 -7c-20,-18 -74,-68 -102,-65 -20,3 -35,44 -44,59l0 -13c10,-21 28,-54 46,-53 32,2 83,48 106,67l0 7c9,9 29,24 36,35l0 -30 4 0 0 -42 -12 0 0 -8c1,-2 4,-1 5,0 5,2 7,4 10,8 17,44 42,98 42,143 -33,-45 -62,-82 -90,-103z"/>
  <path class="fil1" d="M228 197l0 -4 12 0 0 -26c5,-7 12,-10 21,-10 11,0 15,4 20,10l0 30 -54 0z"/>
  <polygon class="fil1" points="88,1 87,0 "/>
  <path class="fil1" d="M247 186l0 -12c4,-8 18,-8 28,0l0 12c-10,-5 -23,-6 -28,0z"/>
  <path class="fil1" d="M148 371c2,-33 -10,-88 -27,-113 8,-17 17,-35 29,-50 9,-3 18,1 28,5 60,30 121,76 165,137l0 15 -23 0c-18,22 -41,21 -60,6 -19,15 -37,16 -56,0 -16,16 -35,21 -56,0z"/>
  <path class="fil1" d="M88 379c17,17 39,18 58,1 19,17 37,17 58,0 20,17 38,17 55,0 22,18 38,17 59,-3l0 47 -231 0 0 -45z"/>
  <polygon class="fil1" points="325,439 325,371 449,371 449,439 "/>
 </g>
</svg>
