<?xml version="1.0" encoding="UTF-8"?>
<!DOCTYPE svg PUBLIC "-//W3C//DTD SVG 1.1//EN" "http://www.w3.org/Graphics/SVG/1.1/DTD/svg11.dtd">
<!-- Creator: CorelDRAW X6 -->
<svg xmlns="http://www.w3.org/2000/svg" xml:space="preserve" width="31.6119mm" height="31.6118mm" version="1.1" style="shape-rendering:geometricPrecision; text-rendering:geometricPrecision; image-rendering:optimizeQuality; fill-rule:evenodd; clip-rule:evenodd"
viewBox="0 0 1063 1063"
 xmlns:xlink="http://www.w3.org/1999/xlink">
 <defs>
  <style type="text/css">
   <![CDATA[
    .fil0 {fill:#212220}
    .fil1 {fill:blue}
   ]]>
  </style>
 </defs>
 <g id="Layer_x0020_1">
  <metadata id="CorelCorpID_0Corel-Layer"/>
  <path class="fil0" d="M589 551c-1,0 6,-13 12,-14l56 -5 56 -48 93 0 37 48 51 0 8 19 -313 0zm81 -19l41 -36 29 0 0 36 -70 0zm80 0l0 -36 40 0 25 36 -66 0z"/>
  <path class="fil0" d="M846 674c-20,0 -38,-10 -53,-22 -43,25 -65,25 -107,0 -35,25 -67,27 -102,1 -33,24 -72,24 -106,-1 -45,25 -66,24 -108,3 -37,20 -67,22 -101,-3 -7,6 -15,12 -24,15l-77 -251 264 0 17 -30 161 0 0 30 291 0 0 29 -706 0 47 159 65 0c-29,-15 -15,-47 7,-47 22,0 37,30 8,47l166 0c-27,-12 -19,-47 6,-47 22,0 39,32 7,47l141 0c-26,-12 -16,-46 9,-46 25,0 32,35 9,46l165 0c-28,-13 -14,-46 9,-46 22,0 36,33 8,46l61 0 0 46c-19,16 -31,24 -56,24zm-196 -103c5,0 10,4 10,10 0,5 -4,10 -10,10 -5,0 -10,-4 -10,-10 0,-5 4,-10 10,-10zm182 0c5,0 10,4 10,10 0,5 -4,10 -10,10 -5,0 -10,-4 -10,-10 0,-5 4,-10 10,-10zm-338 -1c5,0 10,4 10,10 0,5 -4,10 -10,10 -5,0 -10,-4 -10,-10 0,-5 4,-10 10,-10zm-181 0c5,0 10,4 10,10 0,5 -4,10 -10,10 -5,0 -10,-4 -10,-10 0,-5 4,-10 10,-10z"/>
  <path class="fil0" d="M252 551c-1,0 6,-14 12,-15l56 -5 56 -48 93 0 37 48 51 0 7 20 -312 0zm81 -20l41 -36 29 0 0 36 -70 0zm80 0l0 -36 40 0 25 36 -65 0z"/>
  <path class="fil0" d="M257 575l-5 -17 43 0c-8,6 -11,14 -11,25l-26 -7z"/>
  <path class="fil0" d="M345 583c0,-11 -4,-20 -12,-25l145 0c-9,7 -12,18 -12,25l-120 0z"/>
  <path class="fil0" d="M525 583c0,-11 -3,-18 -13,-25l50 0 -14 25 -23 0z"/>
  <polygon class="fil0" points="457,368 490,300 609,326 609,368 "/>
  <path class="fil0" d="M594 576l-5 -18 43 0c-8,6 -14,14 -13,25l-25 -7z"/>
  <path class="fil0" d="M680 583c0,-11 -4,-20 -11,-25l145 0c-9,8 -12,14 -13,25l-121 0z"/>
  <path class="fil0" d="M862 583c0,-11 -4,-17 -12,-25l50 0 -14 25 -24 0z"/>
  <path class="fil0" d="M161 763l0 -96c36,33 72,34 107,2 35,31 61,31 101,0 44,33 64,30 107,-1 32,32 75,32 106,1 34,31 73,31 102,0 33,30 73,31 108,0 40,34 76,31 109,-1l0 95c-246,0 -493,0 -740,0z"/>
  <path class="fil1" d="M999 0l4 0 3 0 3 0 3 1 3 1 3 1 3 1 3 1 3 1 3 1 3 2 3 2 3 2 2 2 2 2 2 2 2 2 2 2 2 2 2 3 2 3 2 3 1 3 1 3 1 3 1 3 1 3 1 3 1 3 0 3 0 3 0 4 0 934 0 4 0 3 0 3 -1 3 -1 3 -1 3 -1 3 -1 3 -1 3 -1 3 -2 3 -2 3 -2 3 -2 2 -2 2 -2 2 -2 2 -2 2 -2 2 -3 2 -3 2 -3 2 -3 1 -3 1 -3 1 -3 1 -3 1 -3 1 -3 1 -3 0 -3 0 -4 0 -934 0 -4 0 -3 0 -3 0 -3 -1 -3 -1 -3 -1 -3 -1 -3 -1 -3 -1 -3 -1 -3 -2 -3 -2 -3 -2 -2 -2 -2 -2 -2 -2 -2 -2 -2 -2 -2 -2 -2 -3 -2 -3 -2 -3 -1 -3 -1 -3 -1 -3 -1 -3 -1 -3 -1 -3 -1 -3 0 -3 0 -3 0 -4 0 -934 0 -4 0 -3 0 -3 1 -3 1 -3 1 -3 1 -3 1 -3 1 -3 1 -3 2 -3 2 -3 2 -3 2 -2 2 -2 2 -2 2 -2 2 -2 2 -2 3 -2 3 -2 3 -2 3 -1 3 -1 3 -1 3 -1 3 -1 3 -1 3 -1 3 0 3 0 4 0 934 0zm-77 141l0 780 -780 0 0 -780 780 0z"/>
 </g>
</svg>
