<?xml version="1.0" encoding="UTF-8"?>
<!DOCTYPE svg PUBLIC "-//W3C//DTD SVG 1.1//EN" "http://www.w3.org/Graphics/SVG/1.1/DTD/svg11.dtd">
<!-- Creator: CorelDRAW X6 -->
<svg xmlns="http://www.w3.org/2000/svg" xml:space="preserve" width="31.6118mm" height="31.6118mm" version="1.1" style="shape-rendering:geometricPrecision; text-rendering:geometricPrecision; image-rendering:optimizeQuality; fill-rule:evenodd; clip-rule:evenodd"
viewBox="0 0 35384 35384"
 xmlns:xlink="http://www.w3.org/1999/xlink">
 <defs>
  <style type="text/css">
   <![CDATA[
    .fil0 {fill:#212220}
    .fil1 {fill:blue}
   ]]>
  </style>
 </defs>
 <g id="Layer_x0020_1">
  <metadata id="CorelCorpID_0Corel-Layer"/>
  <path class="fil0" d="M18051 25283c-938,1120 -2706,1091 -3566,0 -1117,1247 -2588,838 -3729,3 -528,439 -879,833 -1753,830l-3113 -6192 5743 4 896 1627 10735 0 745 -1631 682 0 565 -1335 2419 0 -4 1339 1815 0 0 5349c-1225,1139 -2402,1069 -3783,-11 -1132,951 -2423,1297 -3714,59 -1206,985 -2773,1085 -3938,-43z"/>
  <path class="fil0" d="M7144 29447l5 -3528c789,1292 2723,1292 3608,-52 1122,1345 2575,1268 3732,0 1028,1350 2507,1312 3566,0 1221,1350 2608,1312 3910,0 932,1339 2839,1379 3728,-3 1384,1371 2655,1319 3798,0l3 3582 -22350 0z"/>
  <path class="fil1" d="M33241 0l117 3 108 8 106 14 104 19 103 24 101 29 99 34 97 38 94 43 92 47 90 52 87 56 84 60 81 64 78 68 75 71 71 75 67 78 64 81 60 84 56 87 52 90 47 92 43 94 38 97 34 99 29 101 24 103 19 104 14 106 8 108 3 117 0 31098 -3 117 -8 108 -14 106 -19 104 -24 103 -29 101 -34 99 -38 97 -43 94 -47 92 -52 90 -56 87 -60 84 -64 81 -67 78 -71 75 -75 71 -78 67 -81 64 -84 60 -87 56 -90 52 -92 47 -94 43 -97 38 -99 34 -101 29 -103 24 -104 19 -106 14 -108 8 -117 3 -31098 0 -117 -3 -107 -8 -106 -14 -104 -19 -102 -24 -101 -29 -99 -34 -96 -39 -94 -43 -92 -48 -90 -52 -87 -56 -84 -60 -81 -64 -78 -68 -75 -72 -71 -75 -68 -78 -64 -81 -60 -84 -56 -87 -52 -90 -47 -92 -43 -95 -38 -97 -34 -99 -29 -101 -24 -103 -19 -104 -14 -106 -8 -107 -3 -117 0 -31092 3 -118 8 -109 14 -107 19 -105 24 -103 29 -101 34 -99 38 -97 43 -94 47 -92 51 -89 56 -87 60 -84 63 -81 67 -78 71 -74 74 -71 78 -67 81 -63 84 -60 87 -56 89 -51 92 -47 94 -43 97 -38 99 -33 101 -29 103 -24 105 -19 107 -14 109 -8 118 -3 31098 0zm-2564 4707l0 25970 -25970 0 0 -25970 25970 0z"/>
  <polygon class="fil0" points="15750,13054 20699,13054 20699,15875 15750,15875 "/>
  <polygon class="fil0" points="18051,12436 18051,8725 18489,8725 18492,12436 "/>
  <polygon class="fil0" points="25471,18103 25769,17244 27673,17241 27673,18103 "/>
  <polygon class="fil0" points="6048,18649 13879,5937 18449,7921 18179,8115 14226,7353 10959,18649 "/>
 </g>
</svg>
