<?xml version="1.0" encoding="UTF-8"?>
<!DOCTYPE svg PUBLIC "-//W3C//DTD SVG 1.1//EN" "http://www.w3.org/Graphics/SVG/1.1/DTD/svg11.dtd">
<!-- Creator: CorelDRAW X6 -->
<svg xmlns="http://www.w3.org/2000/svg" xml:space="preserve" width="88.556mm" height="52.6549mm" version="1.1" style="shape-rendering:geometricPrecision; text-rendering:geometricPrecision; image-rendering:optimizeQuality; fill-rule:evenodd; clip-rule:evenodd"
viewBox="0 0 30392 18071"
 xmlns:xlink="http://www.w3.org/1999/xlink">
 <defs>
  <style type="text/css">
   <![CDATA[
    .fil0 {fill:#212220}
    .fil2 {fill:#FEFEFE}
    .fil1 {fill:blue}
    .fil3 {fill:#FEFEFE;fill-rule:nonzero}
   ]]>
  </style>
 </defs>
 <g id="Layer_x0020_1">
  <metadata id="CorelCorpID_0Corel-Layer"/>
  <path class="fil0" d="M15600 9485l0 -3886 209 -234 -2 -990 -94 -97 -1821 0 0 -621 1916 0 0 -524 -1917 -2 -4 -478 1436 -457 2094 8 -1 928 -796 2 0 524 793 0 0 621 -698 0 -94 96 0 991 207 234 1 3886c-153,724 -1105,670 -1229,0z"/>
  <path class="fil0" d="M20835 8189l0 -590c132,-559 265,-963 570,-1402l458 -678c1151,-47 2268,-41 3426,14l446 662c287,497 393,774 555,1414l1 581 -5457 0zm4814 -922c189,0 342,149 342,331 0,182 -154,330 -342,330 -190,0 -342,-148 -342,-330 0,-182 153,-331 342,-331zm-4177 0c190,0 343,149 343,331 0,182 -154,330 -343,330 -189,0 -342,-148 -342,-330 0,-182 154,-331 342,-331zm-163 -380c187,-415 449,-820 732,-1177 1041,-53 2011,-45 3053,0 313,329 547,790 724,1203 -758,-89 -1599,-112 -2262,-105 -595,-7 -1470,21 -2247,79z"/>
  <path class="fil0" d="M19888 8421c792,-1726 1576,-3459 2348,-5194l210 0 -2389 5276 -169 -82z"/>
  <polygon class="fil0" points="26947,8506 24636,3227 24831,3227 27127,8423 "/>
  <polygon class="fil0" points="24828,5220 24269,3227 24443,3227 25015,5217 "/>
  <polygon class="fil0" points="23434,5218 23434,3227 23624,3227 23624,5218 "/>
  <polygon class="fil0" points="24145,5220 23878,3227 24068,3227 24333,5217 "/>
  <polygon class="fil0" points="22028,5217 22651,3227 22836,3224 22235,5217 "/>
  <polygon class="fil0" points="22706,5217 23027,3227 23206,3227 22903,5217 "/>
  <polygon class="fil0" points="22235,2878 22235,2488 23335,2132 23335,1702 23721,1702 23722,2133 24832,2488 24832,2878 "/>
  <path class="fil0" d="M25566 9879l-144 -196 -1 -478c-615,35 -1179,62 -1860,66 -725,-4 -1157,-21 -1868,-69l0 481 -148 196 -566 0 -144 -196 0 -1226 5457 0 0 1227 -143 195 -583 0z"/>
  <path class="fil0" d="M6289 9870l0 -3541 -426 0 -1 2200c8,786 -570,1340 -1278,1340 -1003,1 -1564,-989 -1216,-1795l1983 -4773 762 0 0 447 -454 0 -1926 4489c-211,532 163,1186 811,1186 463,-48 864,-272 876,-900l0 -2195c0,-318 171,-445 442,-443l426 0 0 -2585c0,-471 227,-716 725,-716l2563 0c475,0 701,342 702,713l0 6571 -3990 1zm515 -6570l2956 0 0 2107 -2956 0 0 -2107z"/>
  <path class="fil1" d="M721 0l28950 0 40 1 37 3 36 5 35 6 35 8 34 10 33 11 33 13 32 14 31 16 30 17 29 19 28 20 27 21 26 23 25 24 24 25 23 26 21 27 20 28 19 29 17 30 16 31 14 32 13 33 11 33 10 34 8 35 6 35 5 36 3 37 1 40 0 16628 -1 40 -3 37 -5 36 -6 35 -8 35 -10 34 -11 33 -13 33 -14 32 -16 31 -17 30 -19 29 -20 28 -21 27 -23 26 -24 25 -25 24 -26 23 -27 21 -28 20 -29 19 -30 17 -31 16 -32 14 -33 13 -33 11 -34 10 -35 8 -35 6 -36 5 -37 3 -40 1 -28950 0 -40 -1 -37 -3 -36 -5 -35 -6 -35 -8 -34 -10 -33 -11 -33 -13 -32 -14 -31 -16 -30 -17 -29 -19 -28 -20 -27 -21 -26 -23 -25 -24 -24 -25 -23 -26 -21 -27 -20 -28 -19 -29 -17 -30 -16 -31 -14 -32 -13 -33 -11 -33 -10 -34 -8 -35 -6 -35 -5 -36 -3 -37 -1 -40 0 -16628 1 -40 3 -37 5 -36 6 -35 8 -35 10 -34 11 -33 13 -33 14 -32 16 -31 17 -30 19 -29 20 -28 21 -27 23 -26 24 -25 25 -24 26 -23 27 -21 28 -20 29 -19 30 -17 31 -16 32 -14 33 -13 33 -11 34 -10 35 -8 35 -6 36 -5 37 -3 40 -1zm871 1592l27208 0 0 8727 -27208 0 0 -8727z"/>
  <path class="fil2" d="M14173 15983l0 -1224c-56,-1123 -680,-1786 -1786,-1806l-554 0 279 -916 -2178 1261 2178 1252 -279 -914 554 0c593,0 1105,517 1105,1123l0 1224 680 0z"/>
  <path class="fil3" d="M16296 15697l0 -352 1024 -1281c40,-50 66,-96 77,-139 12,-42 18,-83 18,-122 0,-91 -32,-176 -97,-255 -64,-78 -153,-117 -264,-117 -102,0 -189,34 -262,101 -72,67 -113,160 -121,278l-376 0c1,-212 74,-391 218,-537 144,-145 314,-218 512,-218 218,0 400,74 545,220 145,147 218,324 218,531 0,177 -52,331 -156,460l-843 1057 999 0 0 374 -1494 0zm1903 271l0 -645 375 0 0 374 -375 271zm812 -1473l0 -1416 1394 0 0 376 -1040 0 0 591c120,-96 259,-144 418,-144 100,0 191,19 272,58 82,38 147,83 195,135 72,78 124,163 158,254 33,92 49,246 49,463 0,176 -13,307 -39,393 -26,85 -67,164 -123,236 -53,68 -129,132 -226,191 -97,58 -210,88 -341,88 -169,0 -332,-52 -489,-156 -157,-104 -249,-278 -277,-523l375 0c44,204 169,305 375,305 183,0 291,-63 322,-189 31,-126 47,-250 47,-374 0,-145 -24,-266 -74,-361 -49,-96 -151,-144 -305,-144 -145,0 -258,73 -338,218l-354 0z"/>
 </g>
</svg>
