<?xml version="1.0" encoding="utf-8"?>
<!-- Generator: Adobe Illustrator 16.0.0, SVG Export Plug-In . SVG Version: 6.00 Build 0)  -->
<!DOCTYPE svg PUBLIC "-//W3C//DTD SVG 1.1//EN" "http://www.w3.org/Graphics/SVG/1.1/DTD/svg11.dtd">
<svg version="1.1" id="Layer_1" xmlns="http://www.w3.org/2000/svg" xmlns:xlink="http://www.w3.org/1999/xlink" x="0px" y="0px"
	 width="80.021px" height="80.021px" viewBox="0 0 80.021 80.021" enable-background="new 0 0 80.021 80.021" xml:space="preserve">
<circle fill="none" stroke="#231F20" stroke-width="0.0216" stroke-miterlimit="22.9256" cx="40.011" cy="40.011" r="40"/>
<polygon fill-rule="evenodd" clip-rule="evenodd" fill="#FF1E00" points="40.011,2.682 41.927,2.73 43.818,2.875 45.683,3.113 
	47.518,3.442 49.319,3.86 51.088,4.365 52.821,4.953 54.515,5.623 56.167,6.372 57.776,7.198 59.34,8.099 60.854,9.071 
	62.319,10.114 63.73,11.225 65.086,12.399 66.384,13.638 67.623,14.936 68.798,16.292 69.908,17.703 70.951,19.168 71.924,20.683 
	72.824,22.247 73.651,23.855 74.399,25.508 75.069,27.202 75.658,28.935 76.163,30.704 76.581,32.507 76.909,34.342 77.147,36.206 
	77.293,38.098 77.341,40.015 77.293,41.932 77.147,43.823 76.909,45.688 76.581,47.522 76.163,49.325 75.658,51.094 75.069,52.827 
	74.399,54.521 73.651,56.173 72.824,57.782 71.924,59.346 70.951,60.861 69.908,62.325 68.798,63.737 67.623,65.093 66.384,66.391 
	65.086,67.63 63.73,68.805 62.319,69.915 60.854,70.958 59.34,71.931 57.776,72.831 56.167,73.658 54.515,74.406 52.821,75.077 
	51.088,75.665 49.319,76.17 47.518,76.588 45.683,76.916 43.818,77.155 41.927,77.3 40.011,77.349 38.094,77.3 36.202,77.155 
	34.338,76.916 32.502,76.588 30.699,76.17 28.931,75.665 27.198,75.077 25.504,74.406 23.852,73.658 22.241,72.831 20.678,71.931 
	19.162,70.958 17.698,69.915 16.286,68.805 14.93,67.63 13.632,66.391 12.394,65.093 11.219,63.737 10.108,62.325 9.065,60.86 
	8.093,59.346 7.191,57.782 6.365,56.173 5.616,54.521 4.946,52.827 4.357,51.094 3.854,49.325 3.436,47.522 3.106,45.688 
	2.868,43.823 2.724,41.932 2.675,40.015 2.724,38.098 2.868,36.206 3.106,34.342 3.436,32.507 3.854,30.704 4.357,28.935 
	4.946,27.202 5.616,25.508 6.365,23.855 7.191,22.247 8.093,20.683 9.065,19.168 10.108,17.703 11.219,16.292 12.394,14.936 
	13.632,13.638 14.93,12.399 16.286,11.225 17.698,10.114 19.162,9.072 20.678,8.099 22.241,7.198 23.852,6.372 25.504,5.623 
	27.198,4.953 28.931,4.365 30.699,3.86 32.502,3.442 34.338,3.113 36.202,2.875 38.094,2.73 "/>
<polygon fill="none" stroke="#231F20" stroke-width="0.1" stroke-miterlimit="22.9256" points="40.011,2.682 41.927,2.73 
	43.818,2.875 45.683,3.113 47.518,3.442 49.319,3.86 51.088,4.365 52.821,4.953 54.515,5.623 56.167,6.372 57.776,7.198 
	59.34,8.099 60.854,9.071 62.319,10.114 63.73,11.225 65.086,12.399 66.384,13.638 67.623,14.936 68.798,16.292 69.908,17.703 
	70.951,19.168 71.924,20.683 72.824,22.247 73.651,23.855 74.399,25.508 75.069,27.202 75.658,28.935 76.163,30.704 76.581,32.507 
	76.909,34.342 77.147,36.206 77.293,38.098 77.341,40.015 77.293,41.932 77.147,43.823 76.909,45.688 76.581,47.522 76.163,49.325 
	75.658,51.094 75.069,52.827 74.399,54.521 73.651,56.173 72.824,57.782 71.924,59.346 70.951,60.861 69.908,62.325 68.798,63.737 
	67.623,65.093 66.384,66.391 65.086,67.63 63.73,68.805 62.319,69.915 60.854,70.958 59.34,71.931 57.776,72.831 56.167,73.658 
	54.515,74.406 52.821,75.077 51.088,75.665 49.319,76.17 47.518,76.588 45.683,76.916 43.818,77.155 41.927,77.3 40.011,77.349 
	38.094,77.3 36.202,77.155 34.338,76.916 32.502,76.588 30.699,76.17 28.931,75.665 27.198,75.077 25.504,74.406 23.852,73.658 
	22.241,72.831 20.678,71.931 19.162,70.958 17.698,69.915 16.286,68.805 14.93,67.63 13.632,66.391 12.394,65.093 11.219,63.737 
	10.108,62.325 9.065,60.86 8.093,59.346 7.191,57.782 6.365,56.173 5.616,54.521 4.946,52.827 4.357,51.094 3.854,49.325 
	3.436,47.522 3.106,45.688 2.868,43.823 2.724,41.932 2.675,40.015 2.724,38.098 2.868,36.206 3.106,34.342 3.436,32.507 
	3.854,30.704 4.357,28.935 4.946,27.202 5.616,25.508 6.365,23.855 7.191,22.247 8.093,20.683 9.065,19.168 10.108,17.703 
	11.219,16.292 12.394,14.936 13.632,13.638 14.93,12.399 16.286,11.225 17.698,10.114 19.162,9.072 20.678,8.099 22.241,7.198 
	23.852,6.372 25.504,5.623 27.198,4.953 28.931,4.365 30.699,3.86 32.502,3.442 34.338,3.113 36.202,2.875 38.094,2.73 "/>
<path fill-rule="evenodd" clip-rule="evenodd" fill="#FFFFFF" d="M8.427,47.953c-2.471-5.23-2.348-10.985-0.065-15.839l63.382-0.038
	c2.29,5.285,2.152,11.42-0.041,15.851L8.427,47.953z"/>
<path fill="none" stroke="#231F20" stroke-width="0.1" stroke-miterlimit="22.9256" d="M8.427,47.953
	c-2.471-5.23-2.348-10.985-0.065-15.839l63.382-0.038c2.29,5.285,2.152,11.42-0.041,15.851L8.427,47.953z"/>
</svg>
