<?xml version="1.0" encoding="utf-8"?>
<!-- Generator: Adobe Illustrator 16.0.0, SVG Export Plug-In . SVG Version: 6.00 Build 0)  -->
<!DOCTYPE svg PUBLIC "-//W3C//DTD SVG 1.1//EN" "http://www.w3.org/Graphics/SVG/1.1/DTD/svg11.dtd">
<svg version="1.1" id="Layer_1" xmlns="http://www.w3.org/2000/svg" xmlns:xlink="http://www.w3.org/1999/xlink" x="0px" y="0px"
	 width="80.022px" height="80.022px" viewBox="0 0 80.022 80.022" enable-background="new 0 0 80.022 80.022" xml:space="preserve">
<circle fill="none" stroke="#231F20" stroke-width="0.0216" stroke-miterlimit="22.9256" cx="40.011" cy="40.011" r="40"/>
<path fill-rule="evenodd" clip-rule="evenodd" fill="#FF1E00" d="M39.98,11.62c15.698,0,28.43,12.731,28.43,28.43
	c0,15.698-12.731,28.43-28.43,28.43c-15.699,0-28.43-12.731-28.43-28.43C11.55,24.351,24.281,11.62,39.98,11.62z M39.982,1.385
	c21.292,0,38.662,17.367,38.662,38.665c0,21.294-17.37,38.664-38.662,38.664c-21.297,0-38.667-17.37-38.667-38.664
	C1.316,18.752,18.686,1.385,39.982,1.385z"/>
<path fill="none" stroke="#231F20" stroke-width="0.1" stroke-miterlimit="22.9256" d="M39.98,11.62
	c15.698,0,28.43,12.731,28.43,28.43c0,15.698-12.731,28.43-28.43,28.43c-15.699,0-28.43-12.731-28.43-28.43
	C11.55,24.351,24.281,11.62,39.98,11.62z M39.982,1.385c21.292,0,38.662,17.367,38.662,38.665c0,21.294-17.37,38.664-38.662,38.664
	c-21.297,0-38.667-17.37-38.667-38.664C1.316,18.752,18.686,1.385,39.982,1.385z"/>
</svg>
