<?xml version="1.0" encoding="UTF-8"?>
<!DOCTYPE svg PUBLIC "-//W3C//DTD SVG 1.1//EN" "http://www.w3.org/Graphics/SVG/1.1/DTD/svg11.dtd">
<!-- Creator: CorelDRAW X6 -->
<svg xmlns="http://www.w3.org/2000/svg" xml:space="preserve" width="33.67mm" height="33.67mm" version="1.1" style="shape-rendering:geometricPrecision; text-rendering:geometricPrecision; image-rendering:optimizeQuality; fill-rule:evenodd; clip-rule:evenodd"
viewBox="0 0 148 148"
 xmlns:xlink="http://www.w3.org/1999/xlink">
 <defs>
  <style type="text/css">
   <![CDATA[
    .fil1 {fill:black}
    .fil0 {fill:red}
   ]]>
  </style>
 </defs>
 <g id="Layer_x0020_1">
  <metadata id="CorelCorpID_0Corel-Layer"/>
  <g id="_1081621520">
   <path class="fil0" d="M74 0c41,0 74,33 74,74 0,41 -33,74 -74,74 -41,0 -74,-33 -74,-74 0,-41 33,-74 74,-74zm0 20c30,0 54,24 54,54 0,30 -24,54 -54,54 -30,0 -54,-24 -54,-54 0,-30 24,-54 54,-54z"/>
   <path class="fil1" d="M46 55c-4,6 -6,11 -8,18l0 8 72 0 0 -8c-2,-8 -4,-12 -7,-18l-6 -9 -23 -1 -22 1 -6 9zm8 -7c-4,5 -7,10 -10,16 11,-1 22,-1 30,-1 9,0 20,0 30,1 -3,-5 -6,-11 -10,-16l-20 -1 -20 1zm47 21c3,0 5,2 5,4 0,3 -2,4 -5,4 -2,0 -4,-1 -4,-4 0,-2 2,-4 4,-4zm-54 0c2,0 4,2 4,4 0,3 -2,4 -4,4 -3,0 -5,-1 -5,-4 0,-2 2,-4 5,-4zm53 34l-2 -2 0 -7c-8,1 -15,1 -24,1 -9,0 -15,0 -25,-1l0 7 -1 2 -8 0 -2 -2 0 -17 72 0 0 17 -2 2 -8 0z"/>
  </g>
 </g>
</svg>
