<?xml version="1.0" encoding="UTF-8"?>
<!DOCTYPE svg PUBLIC "-//W3C//DTD SVG 1.1//EN" "http://www.w3.org/Graphics/SVG/1.1/DTD/svg11.dtd">
<!-- Creator: CorelDRAW X6 -->
<svg xmlns="http://www.w3.org/2000/svg" xml:space="preserve" width="33.67mm" height="33.67mm" version="1.1" style="shape-rendering:geometricPrecision; text-rendering:geometricPrecision; image-rendering:optimizeQuality; fill-rule:evenodd; clip-rule:evenodd"
viewBox="0 0 170 170"
 xmlns:xlink="http://www.w3.org/1999/xlink">
 <defs>
  <style type="text/css">
   <![CDATA[
    .fil1 {fill:black}
    .fil0 {fill:red}
   ]]>
  </style>
 </defs>
 <g id="Layer_x0020_1">
  <metadata id="CorelCorpID_0Corel-Layer"/>
  <g id="_1063517424">
   <path class="fil0" d="M85 0c47,0 85,38 85,85 0,47 -38,85 -85,85 -47,0 -85,-38 -85,-85 0,-47 38,-85 85,-85zm0 23c35,0 63,28 63,62 0,35 -28,63 -63,63 -34,0 -62,-28 -62,-63 0,-34 28,-62 62,-62z"/>
   <path class="fil1" d="M34 100c0,-5 2,-8 5,-11 3,-3 8,-4 12,-3l-2 4c-2,0 -4,1 -6,2 -5,2 -6,11 -1,15 5,4 11,3 14,-2 3,-4 2,-10 -2,-12l-2 4c2,2 1,5 0,6 -2,2 -5,3 -8,0 -1,-2 -2,-4 0,-6 1,-2 4,-3 5,-2l10 -18c0,-4 1,-8 3,-11l8 1c5,1 14,2 16,8 2,3 3,7 6,8 10,3 27,-2 36,-8l9 10 -2 2c-6,-5 -13,-5 -19,-4 -4,1 -8,3 -10,5 -3,3 -4,8 -4,11l-1 5 -23 -1c-3,0 -4,-3 -6,-5l-10 -17 -5 8c3,3 5,6 5,11 0,9 -7,15 -15,14 -7,-1 -12,-6 -13,-14zm37 -12l-4 -8 9 2 -5 6zm47 26c-6,-1 -12,-5 -13,-11 -1,-7 2,-14 9,-16 13,-5 23,9 17,19 -3,5 -6,8 -13,8zm-1 -5c-4,-1 -6,-3 -7,-7l5 0c3,4 9,2 9,-3 -1,-3 -3,-5 -5,-5 -2,0 -4,1 -5,3l-4 0c2,-7 10,-9 15,-5 2,2 3,4 3,8 0,4 -3,10 -11,9zm-21 -28c-5,-1 -7,-5 -9,-9 13,3 23,3 38,-2l1 3c-8,5 -20,9 -30,8l0 0zm-48 -3c-1,-1 -1,-2 -1,-3 0,-2 0,-4 1,-6l14 -12c1,0 2,0 3,0 -4,5 -7,10 -8,15l-1 6 -8 0z"/>
  </g>
 </g>
</svg>
