<?xml version="1.0" encoding="UTF-8"?>
<!DOCTYPE svg PUBLIC "-//W3C//DTD SVG 1.1//EN" "http://www.w3.org/Graphics/SVG/1.1/DTD/svg11.dtd">
<!-- Creator: CorelDRAW X6 -->
<svg xmlns="http://www.w3.org/2000/svg" xml:space="preserve" width="33.6699mm" height="33.67mm" version="1.1" style="shape-rendering:geometricPrecision; text-rendering:geometricPrecision; image-rendering:optimizeQuality; fill-rule:evenodd; clip-rule:evenodd"
viewBox="0 0 201 201"
 xmlns:xlink="http://www.w3.org/1999/xlink">
 <defs>
  <style type="text/css">
   <![CDATA[
    .fil1 {fill:black}
    .fil0 {fill:red}
   ]]>
  </style>
 </defs>
 <g id="Layer_x0020_1">
  <metadata id="CorelCorpID_0Corel-Layer"/>
  <g id="_1081619312">
   <path class="fil0" d="M100 0c56,0 101,45 101,100 0,56 -45,101 -101,101 -55,0 -100,-45 -100,-101 0,-55 45,-100 100,-100zm0 27c41,0 74,33 74,73 0,41 -33,74 -74,74 -40,0 -73,-33 -73,-74 0,-40 33,-73 73,-73z"/>
   <path class="fil1" d="M138 93c12,0 21,9 21,20 0,12 -9,21 -21,21 -9,0 -17,-7 -19,-16l0 0 -1 0 -3 0 0 0 -9 1c-3,0 -4,-1 -5,-3 -1,-1 -1,-3 -1,-4l-24 -18 -2 3c7,4 9,11 9,18 -1,5 -3,9 -6,12 -3,4 -9,6 -14,6 -5,1 -11,-1 -14,-4 -4,-4 -6,-9 -7,-14 0,-5 1,-10 4,-14 4,-5 7,-7 14,-8 4,-1 8,0 11,2l8 -15 -6 -4c-1,0 -2,-1 -3,-3 0,-2 0,-3 1,-4 1,-1 3,-2 4,-2l10 2c1,0 1,1 1,2 -1,1 -1,1 -2,1l-9 -2c-1,0 -2,0 -2,1 0,1 1,2 1,2l10 5 -3 5 38 0 1 -3 -10 -3 2 -3c0,0 1,-1 2,-1l6 0 8 0c2,0 2,1 1,3 -1,1 -2,3 -4,4l-1 0 -2 3 6 9 0 0 1 3 0 0 0 0c3,-1 6,-2 9,-2zm-19 15c0,0 0,-1 0,-2 1,-3 3,-5 6,-8 0,0 0,0 1,-1 0,0 0,0 0,0l-6 -10 -10 20 9 1zm12 -10l0 0 0 0 4 6 4 6c1,1 2,2 2,3 0,2 -1,3 -2,3l-5 0 0 0 0 0 -12 1c2,8 8,13 16,13 10,0 18,-7 18,-17 0,-9 -8,-17 -18,-17 -2,0 -5,1 -7,2zm-75 30c-6,-2 -9,-7 -10,-12 -1,-6 0,-10 4,-14 2,-3 6,-5 10,-5 3,-1 6,0 10,1l-3 6c-1,2 -2,6 -4,6 -1,0 -1,0 -2,0 -2,1 -2,3 -2,4 1,1 1,2 3,2 2,0 3,-2 2,-4 3,0 5,-4 7,-8l2 -4c2,2 4,5 5,7 1,4 1,6 0,9 0,5 -3,8 -6,11 -5,2 -10,4 -16,1zm46 -20l-24 -18 2 -4 37 0 -10 21c-2,0 -4,0 -5,1zm26 -8l6 10 -12 -1c1,-4 3,-7 6,-9z"/>
  </g>
 </g>
</svg>
