<?xml version="1.0" encoding="UTF-8"?>
<!DOCTYPE svg PUBLIC "-//W3C//DTD SVG 1.1//EN" "http://www.w3.org/Graphics/SVG/1.1/DTD/svg11.dtd">
<!-- Creator: CorelDRAW X6 -->
<svg xmlns="http://www.w3.org/2000/svg" xml:space="preserve" width="33.6699mm" height="33.6699mm" version="1.1" style="shape-rendering:geometricPrecision; text-rendering:geometricPrecision; image-rendering:optimizeQuality; fill-rule:evenodd; clip-rule:evenodd"
viewBox="0 0 246 246"
 xmlns:xlink="http://www.w3.org/1999/xlink">
 <defs>
  <style type="text/css">
   <![CDATA[
    .fil1 {fill:black}
    .fil0 {fill:red}
   ]]>
  </style>
 </defs>
 <g id="Layer_x0020_1">
  <metadata id="CorelCorpID_0Corel-Layer"/>
  <g id="_1081622512">
   <path class="fil0" d="M123 0c67,0 123,55 123,123 0,67 -56,123 -123,123 -68,0 -123,-56 -123,-123 0,-68 55,-123 123,-123zm0 32c50,0 90,41 90,91 0,50 -40,90 -90,90 -50,0 -91,-40 -91,-90 0,-50 41,-91 91,-91z"/>
   <path class="fil1" d="M93 152c1,-6 -5,-15 -12,-16 -5,-1 -10,0 -15,5 -2,2 -4,6 -4,10 -3,0 -7,0 -7,-4l0 -26 15 -21c0,-1 1,-1 2,-1l23 0c2,0 3,1 3,3l0 35 60 0c-7,2 -10,7 -11,15l-54 0zm-29 -33c-1,0 -1,-1 -1,-2l10 -13 18 0 0 15 -27 0z"/>
   <path class="fil1" d="M179 151c0,-5 -4,-13 -11,-15l23 0 0 8 -12 7z"/>
   <path class="fil1" d="M103 132l0 -47c0,-3 2,-4 6,-4l77 0c4,0 5,2 5,4l0 47 -88 0z"/>
   <path class="fil1" d="M163 139c7,0 13,6 13,13 0,7 -6,12 -13,12 -7,0 -12,-5 -12,-12 0,-7 5,-13 12,-13zm0 6c4,0 7,3 7,7 0,3 -3,6 -7,6 -3,0 -6,-3 -6,-6 0,-4 3,-7 6,-7z"/>
   <path class="fil1" d="M78 139c7,0 12,5 12,12 0,7 -5,13 -12,13 -7,0 -13,-6 -13,-13 0,-7 6,-12 13,-12zm0 6c3,0 6,3 6,6 0,4 -3,7 -6,7 -4,0 -7,-3 -7,-7 0,-3 3,-6 7,-6z"/>
  </g>
 </g>
</svg>
