<?xml version="1.0" encoding="UTF-8"?>
<!DOCTYPE svg PUBLIC "-//W3C//DTD SVG 1.1//EN" "http://www.w3.org/Graphics/SVG/1.1/DTD/svg11.dtd">
<!-- Creator: CorelDRAW X6 -->
<svg xmlns="http://www.w3.org/2000/svg" xml:space="preserve" width="33.67mm" height="33.6699mm" version="1.1" style="shape-rendering:geometricPrecision; text-rendering:geometricPrecision; image-rendering:optimizeQuality; fill-rule:evenodd; clip-rule:evenodd"
viewBox="0 0 443 443"
 xmlns:xlink="http://www.w3.org/1999/xlink">
 <defs>
  <style type="text/css">
   <![CDATA[
    .fil1 {fill:black}
    .fil0 {fill:red}
   ]]>
  </style>
 </defs>
 <g id="Layer_x0020_1">
  <metadata id="CorelCorpID_0Corel-Layer"/>
  <g id="_164786448">
   <path class="fil0" d="M221 0c122,0 222,99 222,221 0,122 -100,222 -222,222 -122,0 -221,-100 -221,-222 0,-122 99,-221 221,-221zm0 59c90,0 163,72 163,162 0,90 -73,163 -163,163 -90,0 -162,-73 -162,-163 0,-90 72,-162 162,-162z"/>
   <path class="fil1" d="M156 256c-9,-8 -21,-10 -32,-5l-11 -45c-2,-7 0,-16 8,-16l60 0 0 -60 12 0 0 60 16 0 28 -62c2,-3 6,-6 10,-6l47 0c9,0 16,6 16,17l0 38c1,5 1,8 5,11l14 10 0 6 -14 14c-4,-4 -11,-7 -16,-8 -12,-3 -27,-2 -38,5 -15,9 -23,26 -22,41l-83 0zm131 44c6,0 12,-1 17,-3 5,-2 10,-5 14,-9 4,-4 7,-9 9,-14 2,-5 3,-11 3,-17 0,-6 -1,-11 -3,-17 -2,-5 -5,-9 -9,-13 -4,-4 -9,-7 -14,-10 -5,-2 -11,-3 -17,-3 -6,0 -11,1 -17,3 -5,3 -9,6 -13,10 -4,4 -7,8 -10,13 -2,6 -3,11 -3,17 0,6 1,12 3,17 3,5 6,10 10,14 4,4 8,7 13,9 6,2 11,3 17,3m0 -19c4,0 7,0 10,-1 3,-2 5,-3 7,-6 3,-2 4,-4 6,-7 1,-3 1,-6 1,-10 0,-3 0,-6 -1,-9 -2,-3 -3,-6 -6,-8 -2,-2 -4,-4 -7,-5 -3,-1 -6,-2 -10,-2 -3,0 -6,1 -9,2 -3,1 -6,3 -8,5 -2,2 -4,5 -5,8 -1,3 -2,6 -2,9 0,4 1,7 2,10 1,3 3,5 5,7 2,3 5,4 8,6 3,1 6,1 9,1m-151 20c4,0 7,0 10,-2 2,-1 5,-3 7,-5 2,-2 4,-4 5,-7 1,-3 2,-6 2,-9 0,-4 -1,-7 -2,-10 -1,-3 -3,-5 -5,-7 -2,-2 -5,-4 -7,-5 -3,-1 -6,-2 -10,-2 -3,0 -6,1 -9,2 -3,1 -5,3 -7,5 -3,2 -4,4 -5,7 -2,3 -2,6 -2,10 0,3 0,6 2,9 1,3 2,5 5,7 2,2 4,4 7,5 3,2 6,2 9,2m0 -11c2,0 4,-1 5,-1 2,-1 3,-2 4,-3 1,-1 2,-2 3,-4 0,-1 1,-3 1,-4 0,-2 -1,-4 -1,-5 -1,-2 -2,-3 -3,-4 -1,-1 -2,-2 -4,-3 -1,0 -3,-1 -5,-1 -1,0 -3,1 -4,1 -2,1 -3,2 -4,3 -1,1 -2,2 -3,4 -1,1 -1,3 -1,5 0,1 0,3 1,4 1,2 2,3 3,4 1,1 2,2 4,3 1,0 3,1 4,1m97 -100l56 0c5,0 6,-3 6,-5l0 -46c0,-4 -4,-8 -9,-8l-36 0c-2,0 -5,1 -6,4l-19 42c-3,7 3,13 8,13"/>
  </g>
 </g>
</svg>
