<?xml version="1.0" encoding="UTF-8"?>
<!DOCTYPE svg PUBLIC "-//W3C//DTD SVG 1.1//EN" "http://www.w3.org/Graphics/SVG/1.1/DTD/svg11.dtd">
<!-- Creator: CorelDRAW X6 -->
<svg xmlns="http://www.w3.org/2000/svg" xml:space="preserve" width="33.67mm" height="33.67mm" version="1.1" style="shape-rendering:geometricPrecision; text-rendering:geometricPrecision; image-rendering:optimizeQuality; fill-rule:evenodd; clip-rule:evenodd"
viewBox="0 0 117 117"
 xmlns:xlink="http://www.w3.org/1999/xlink">
 <defs>
  <style type="text/css">
   <![CDATA[
    .fil1 {fill:black}
    .fil0 {fill:red}
   ]]>
  </style>
 </defs>
 <g id="Layer_x0020_1">
  <metadata id="CorelCorpID_0Corel-Layer"/>
  <g id="_1068350672">
   <path class="fil0" d="M58 0c32,0 59,26 59,58 0,32 -27,59 -59,59 -32,0 -58,-27 -58,-59 0,-32 26,-58 58,-58zm0 15c24,0 43,20 43,43 0,24 -19,43 -43,43 -23,0 -43,-19 -43,-43 0,-23 20,-43 43,-43z"/>
   <path class="fil1" d="M53 52l0 0 0 0zm2 33l0 -7 3 0 0 4 -3 3zm-4 -20l0 0 0 0zm23 -45l-16 11 -15 -11c5,-2 10,-3 15,-3 5,0 11,1 16,3zm0 76c-6,2 -10,4 -16,3 -5,1 -10,-1 -15,-3l15 -10 16 10zm-43 -28l7 0 0 4c0,2 2,3 4,3 2,0 3,-1 3,-3l0 -9c0,-2 -1,-4 -3,-4l-2 0 0 -6 2 0c2,0 3,-1 3,-3l0 -7c0,-2 -1,-4 -3,-4 -2,0 -4,2 -4,4l0 4 -7 0 0 -4c0,-6 5,-11 11,-11 6,0 10,5 10,11l0 6c0,3 -1,6 -4,7 3,2 4,4 4,7l0 9c0,6 -4,10 -10,10 -6,0 -11,-4 -11,-10l0 -4zm30 5l4 0 0 2c0,1 2,2 3,2 1,0 2,-1 2,-2l0 -8c0,-2 -1,-3 -2,-3 -1,0 -2,1 -2,2l-5 0 0 -18 14 0 0 4 -10 0 0 9c3,-2 6,-2 9,1 1,1 1,2 1,4l0 9c0,4 -3,7 -7,7 -4,0 -7,-3 -7,-7l0 -2zm18 9l0 -10 2 0 0 1c1,-1 2,-1 3,-1 0,1 1,1 1,1 0,-1 2,-1 3,0 1,0 1,1 1,1l0 8 -2 0 0 -7c0,0 0,-1 -1,-1 -1,0 -1,1 -1,1l0 7 -2 0 0 -7c0,0 0,-1 -1,-1 -1,0 -1,1 -1,1l0 7 -2 0z"/>
  </g>
 </g>
</svg>
