<?xml version="1.0" encoding="UTF-8"?>
<!DOCTYPE svg PUBLIC "-//W3C//DTD SVG 1.1//EN" "http://www.w3.org/Graphics/SVG/1.1/DTD/svg11.dtd">
<!-- Creator: CorelDRAW X6 -->
<svg xmlns="http://www.w3.org/2000/svg" xml:space="preserve" width="33.67mm" height="33.67mm" version="1.1" style="shape-rendering:geometricPrecision; text-rendering:geometricPrecision; image-rendering:optimizeQuality; fill-rule:evenodd; clip-rule:evenodd"
viewBox="0 0 130 130"
 xmlns:xlink="http://www.w3.org/1999/xlink">
 <defs>
  <style type="text/css">
   <![CDATA[
    .fil1 {fill:black}
    .fil0 {fill:red}
   ]]>
  </style>
 </defs>
 <g id="Layer_x0020_1">
  <metadata id="CorelCorpID_0Corel-Layer"/>
  <g id="_1068334352">
   <path class="fil0" d="M65 0c36,0 65,29 65,65 0,36 -29,65 -65,65 -36,0 -65,-29 -65,-65 0,-36 29,-65 65,-65zm0 17c27,0 48,22 48,48 0,27 -21,48 -48,48 -26,0 -48,-21 -48,-48 0,-26 22,-48 48,-48z"/>
   <path class="fil1" d="M47 95l21 -51 -16 0 0 8 -9 0 0 -16 34 0 0 7 -20 52 -10 0zm39 0l-3 0c-2,0 -5,-3 -5,-5l0 -14 -2 0 0 -4 2 0 0 -7 5 0 0 7 3 0 0 4 -3 0 0 13c0,1 1,1 1,1l2 0 0 5z"/>
  </g>
 </g>
</svg>
