<?xml version="1.0" encoding="UTF-8"?>
<!DOCTYPE svg PUBLIC "-//W3C//DTD SVG 1.1//EN" "http://www.w3.org/Graphics/SVG/1.1/DTD/svg11.dtd">
<!-- Creator: CorelDRAW X6 -->
<svg xmlns="http://www.w3.org/2000/svg" xml:space="preserve" width="33.67mm" height="33.67mm" version="1.1" style="shape-rendering:geometricPrecision; text-rendering:geometricPrecision; image-rendering:optimizeQuality; fill-rule:evenodd; clip-rule:evenodd"
viewBox="0 0 147 147"
 xmlns:xlink="http://www.w3.org/1999/xlink">
 <defs>
  <style type="text/css">
   <![CDATA[
    .fil1 {fill:black}
    .fil0 {fill:red}
   ]]>
  </style>
 </defs>
 <g id="Layer_x0020_1">
  <metadata id="CorelCorpID_0Corel-Layer"/>
  <g id="_1070809552">
   <path class="fil0" d="M74 0c40,0 73,33 73,74 0,40 -33,73 -73,73 -41,0 -74,-33 -74,-73 0,-41 33,-74 74,-74zm0 19c29,0 54,25 54,55 0,29 -25,54 -54,54 -30,0 -55,-25 -55,-54 0,-30 25,-55 55,-55z"/>
   <path class="fil1" d="M74 86l-8 -8 17 0 -9 8zm33 27c-3,0 -5,-2 -5,-5l0 -5 -4 0 0 -6 -18 2c-1,2 -3,3 -6,3 -3,1 -6,-1 -7,-3l-17 -2 0 6 -5 0 0 5c0,3 -2,5 -5,5 -2,0 -4,-2 -4,-5l0 -26c0,-3 1,-5 4,-5 3,0 5,2 5,4l0 6 5 0 0 6 17 -2c1,-2 3,-4 7,-4 3,0 5,1 7,4l17 2 0 -6 4 0 0 -6c0,-2 2,-5 5,-4 3,0 4,2 4,4l1 27c-1,3 -4,5 -5,5zm-51 -58l0 -21 21 0 0 6 -16 0 0 9c5,-4 11,-3 14,1 2,2 3,4 3,7l0 6c0,6 -5,11 -12,11 -5,0 -10,-5 -11,-10l6 0c0,3 3,5 6,4 3,0 5,-3 5,-5l0 -5c0,-3 -2,-6 -6,-6 -2,0 -4,1 -5,3l-5 0zm38 19l-3 0c-4,0 -6,-3 -6,-6l0 -16 -3 0 0 -4 3 0 0 -8 5 0 0 8 4 0 0 4 -4 0 0 15c0,1 1,2 1,2l3 0 0 5z"/>
  </g>
 </g>
</svg>
