<?xml version="1.0" encoding="UTF-8"?>
<!DOCTYPE svg PUBLIC "-//W3C//DTD SVG 1.1//EN" "http://www.w3.org/Graphics/SVG/1.1/DTD/svg11.dtd">
<!-- Creator: CorelDRAW X6 -->
<svg xmlns="http://www.w3.org/2000/svg" xml:space="preserve" width="33.67mm" height="33.67mm" version="1.1" style="shape-rendering:geometricPrecision; text-rendering:geometricPrecision; image-rendering:optimizeQuality; fill-rule:evenodd; clip-rule:evenodd"
viewBox="0 0 169 169"
 xmlns:xlink="http://www.w3.org/1999/xlink">
 <defs>
  <style type="text/css">
   <![CDATA[
    .fil1 {fill:black}
    .fil0 {fill:red}
   ]]>
  </style>
 </defs>
 <g id="Layer_x0020_1">
  <metadata id="CorelCorpID_0Corel-Layer"/>
  <g id="_1068342064">
   <path class="fil0" d="M85 0c46,0 84,38 84,85 0,46 -38,84 -84,84 -47,0 -85,-38 -85,-84 0,-47 38,-85 85,-85zm0 22c34,0 62,28 62,63 0,34 -28,62 -62,62 -35,0 -63,-28 -63,-62 0,-35 28,-63 63,-63z"/>
   <path class="fil1" d="M35 114l14 -8 -1 5 13 0 0 5 -13 0 1 6 -14 -8zm84 8l2 -6 -12 0 0 -5 12 0 -2 -5 15 8 -15 8zm-64 -34c0,-4 -3,-7 -8,-7 -5,0 -7,4 -7,7l-3 0c-1,-1 -2,-2 -2,-3l0 -11 7 -8c0,-1 1,-2 3,-2l11 0c2,0 3,2 2,3l0 14 33 0c-2,2 -4,5 -4,7l-32 0zm-16 -14l5 -7 10 0 0 7 -15 0zm78 14c0,-3 -1,-5 -4,-7l21 0 0 4 -17 3zm-19 -7l8 0c-2,1 -3,3 -4,5 0,-2 -2,-4 -4,-5zm-38 -21c0,-1 1,-2 2,-2l70 0c2,0 2,1 3,2l-1 20 -74 0 0 -20zm35 22c3,0 6,3 6,6 0,4 -3,6 -6,6 -3,0 -6,-2 -6,-6 0,-3 3,-6 6,-6zm14 0c4,0 6,3 6,6 0,4 -2,6 -6,6 -3,0 -5,-2 -5,-6 0,-3 2,-6 5,-6zm-62 0c4,0 6,3 6,6 0,4 -2,6 -6,6 -3,0 -6,-2 -6,-6 0,-3 3,-6 6,-6zm23 28l0 -2 2 -2 3 0 0 15 -3 0 0 -12 -2 1zm12 9l0 2c2,0 4,-2 4,-4l0 -7c0,-2 -2,-4 -4,-4l0 2c1,0 2,1 2,2l0 7c0,1 -1,2 -2,2zm0 -11l0 -2c0,0 0,0 0,0 -2,0 -4,2 -4,4l0 7c0,2 2,4 4,4 0,0 0,0 0,0l0 -2c0,0 0,0 0,0 -1,0 -2,-1 -2,-2l0 -7c0,-1 1,-2 2,-2 0,0 0,0 0,0zm7 13l0 -8 2 0 0 1c1,-1 3,-2 4,-1 0,1 0,1 0,1 1,-1 3,-2 5,-1 0,1 1,2 1,3l0 5 -2 0 0 -5c0,-1 -1,-2 -1,-2 -1,0 -2,1 -2,2l0 5 -2 0 0 -5c0,-1 0,-2 -1,-2 -1,0 -2,1 -2,2l0 5 -2 0z"/>
  </g>
 </g>
</svg>
