<?xml version="1.0" encoding="utf-8"?>
<!-- Generator: Adobe Illustrator 16.0.0, SVG Export Plug-In . SVG Version: 6.00 Build 0)  -->
<!DOCTYPE svg PUBLIC "-//W3C//DTD SVG 1.1//EN" "http://www.w3.org/Graphics/SVG/1.1/DTD/svg11.dtd">
<svg version="1.1" id="Layer_1" xmlns="http://www.w3.org/2000/svg" xmlns:xlink="http://www.w3.org/1999/xlink" x="0px" y="0px"
	 width="80.021px" height="80.021px" viewBox="0 0 80.021 80.021" enable-background="new 0 0 80.021 80.021" xml:space="preserve">
<circle fill="none" stroke="#231F20" stroke-width="0.0216" stroke-miterlimit="22.9256" cx="40.011" cy="40.011" r="40"/>
<path fill-rule="evenodd" clip-rule="evenodd" fill="#FF1E00" d="M57.79,62.246L17.795,22.251
	c-8.966,11.171-8.271,27.542,2.092,37.903C30.248,70.517,46.619,71.212,57.79,62.246z M22.222,17.825l39.994,39.995
	c8.966-11.17,8.271-27.542-2.091-37.903C49.763,9.554,33.393,8.858,22.222,17.825z M12.646,12.671
	c15.067-15.068,39.65-15.07,54.723,0.002c15.069,15.069,15.069,39.655,0.001,54.722c-15.071,15.072-39.656,15.071-54.726,0.002
	C-2.428,52.326-2.426,27.743,12.646,12.671z"/>
<path fill="none" stroke="#231F20" stroke-width="0.1" stroke-miterlimit="22.9256" d="M57.79,62.246L17.795,22.251
	c-8.966,11.171-8.271,27.542,2.092,37.903C30.248,70.517,46.619,71.212,57.79,62.246z M22.222,17.825l39.994,39.995
	c8.966-11.17,8.271-27.542-2.091-37.903C49.763,9.554,33.393,8.858,22.222,17.825z M12.646,12.671
	c15.067-15.068,39.65-15.07,54.723,0.002c15.069,15.069,15.069,39.655,0.001,54.722c-15.071,15.072-39.656,15.071-54.726,0.002
	C-2.428,52.326-2.426,27.743,12.646,12.671z"/>
<polygon fill-rule="evenodd" clip-rule="evenodd" fill="#231F20" points="31.504,37.376 19.653,25.448 14.638,28.516 31.827,38.448 
	"/>
<polygon fill-rule="evenodd" clip-rule="evenodd" fill="#231F20" points="29.668,23.939 26.782,21.057 31.229,18.377 "/>
<polygon fill-rule="evenodd" clip-rule="evenodd" fill="#231F20" points="52.313,58.263 52.323,61.659 44.368,61.659 44.319,50.235 
	"/>
<path fill-rule="evenodd" clip-rule="evenodd" d="M44.264,38.616v-2.778c0.066-1.593-1.003-3.188-2.997-3.191l-2.859-0.012
	l-8.022-8.008l11.746,0.003c2.853-0.081,5.914,1.194,7.669,3.235c1.87,1.859,2.66,5.276,2.501,7.01l-0.012,11.781L44.264,38.616z"/>
</svg>
