<?xml version="1.0" encoding="UTF-8"?>
<!DOCTYPE svg PUBLIC "-//W3C//DTD SVG 1.1//EN" "http://www.w3.org/Graphics/SVG/1.1/DTD/svg11.dtd">
<!-- Creator: CorelDRAW X6 -->
<svg xmlns="http://www.w3.org/2000/svg" xml:space="preserve" width="33.67mm" height="33.67mm" version="1.1" style="shape-rendering:geometricPrecision; text-rendering:geometricPrecision; image-rendering:optimizeQuality; fill-rule:evenodd; clip-rule:evenodd"
viewBox="0 0 436 436"
 xmlns:xlink="http://www.w3.org/1999/xlink">
 <defs>
  <style type="text/css">
   <![CDATA[
    .fil1 {fill:black}
    .fil0 {fill:red}
   ]]>
  </style>
 </defs>
 <g id="Layer_x0020_1">
  <metadata id="CorelCorpID_0Corel-Layer"/>
  <g id="_1081616400">
   <path class="fil0" d="M218 0c120,0 218,98 218,218 0,120 -98,218 -218,218 -120,0 -218,-98 -218,-218 0,-120 98,-218 218,-218zm0 58c88,0 160,71 160,160 0,88 -72,160 -160,160 -89,0 -160,-72 -160,-160 0,-89 71,-160 160,-160z"/>
   <path class="fil1" d="M277 256c15,0 28,13 28,28 0,16 -13,29 -28,29 -16,0 -29,-13 -29,-29 0,-15 13,-28 29,-28zm0 14c8,0 14,6 14,14 0,8 -6,15 -14,15 -9,0 -15,-7 -15,-15 0,-8 6,-14 15,-14zm31 19c3,-19 -12,-37 -32,-36 -18,0 -34,15 -31,36 -8,-3 -17,-13 -20,-20 1,-7 5,-19 8,-25 17,-8 47,-16 68,-19l41 -52 23 0 3 10 -23 0 -25 32 6 10 46 0c0,14 -8,49 -18,64l-46 0zm-184 -33c15,0 28,13 28,28 0,16 -13,29 -28,29 -16,0 -29,-13 -29,-29 0,-15 13,-28 29,-28zm0 14c8,0 15,6 15,14 0,8 -7,15 -15,15 -8,0 -15,-7 -15,-15 0,-8 7,-14 15,-14zm-42 19c-7,-13 -17,-41 -17,-64l39 0 9 -9 -14 -37 -30 0 4 -10 47 0 47 49c7,18 10,35 12,53l-24 18c3,-18 -11,-36 -31,-36 -20,1 -34,16 -31,36l-11 0zm86 -130l22 -53 -17 0 0 9 -9 0 0 -18 36 0 0 8 -22 54 -10 0zm42 -17l0 -28c0,-10 8,-18 17,-18 10,0 18,8 18,18l0 28c0,10 -8,18 -18,18 -9,0 -17,-8 -17,-18zm8 0c0,5 4,9 9,9 5,0 9,-4 9,-9l0 -28c0,-5 -4,-9 -9,-9 -5,0 -9,4 -9,9l0 28zm35 17l0 -24 5 0 0 3c3,-4 8,-4 11,-2 1,1 1,1 2,2 3,-4 9,-4 12,-1 3,1 4,4 4,7l0 15 -5 0 0 -15c0,-2 -2,-5 -5,-5 -2,0 -5,3 -5,5l0 15 -4 0 0 -15c0,-2 -2,-5 -5,-5 -3,0 -5,3 -5,5l0 15 -5 0z"/>
  </g>
 </g>
</svg>
