<?xml version="1.0" encoding="UTF-8"?>
<!DOCTYPE svg PUBLIC "-//W3C//DTD SVG 1.1//EN" "http://www.w3.org/Graphics/SVG/1.1/DTD/svg11.dtd">
<!-- Creator: CorelDRAW X6 -->
<svg xmlns="http://www.w3.org/2000/svg" xml:space="preserve" width="33.67mm" height="33.67mm" version="1.1" style="shape-rendering:geometricPrecision; text-rendering:geometricPrecision; image-rendering:optimizeQuality; fill-rule:evenodd; clip-rule:evenodd"
viewBox="0 0 749 749"
 xmlns:xlink="http://www.w3.org/1999/xlink">
 <defs>
  <style type="text/css">
   <![CDATA[
    .fil1 {fill:black}
    .fil0 {fill:red}
   ]]>
  </style>
 </defs>
 <g id="Layer_x0020_1">
  <metadata id="CorelCorpID_0Corel-Layer"/>
  <g id="_1070814416">
   <path class="fil0" d="M374 0c206,0 375,168 375,374 0,206 -169,375 -375,375 -206,0 -374,-169 -374,-375 0,-206 168,-374 374,-374zm0 99c152,0 276,123 276,275 0,152 -124,276 -276,276 -152,0 -275,-124 -275,-276 0,-152 123,-275 275,-275z"/>
   <path class="fil1" d="M594 463l-443 0 0 -12 443 0 0 12zm-187 -76l0 -20c4,-20 8,-33 19,-48l16 -24 58 -2 60 2 15 23c10,18 14,27 19,49l0 20 -187 0zm16 -45c6,-14 15,-28 25,-41l52 -2 53 2c11,12 19,28 25,42 -26,-3 -55,-4 -78,-3 -20,-1 -51,0 -77,2zm145 103l-4 -5 0 -18c-21,1 -40,2 -64,3 -25,-1 -40,-1 -64,-3l0 18 -4 5 -22 0 -3 -5 0 -44 187 1 0 43 -3 5 -23 0z"/>
   <path class="fil0" d="M153 388l0 -20c5,-20 10,-34 20,-49l16 -24 59 -2 59 3 16 23c10,17 13,26 19,48l0 21 -189 0zm17 -45c6,-15 15,-29 25,-41l53 -3 53 3c10,11 18,27 25,41 -27,-3 -56,-3 -79,-3 -20,0 -50,1 -77,3zm145 103l-3 -6 0 -17c-21,1 -41,2 -64,2 -25,0 -40,-1 -65,-3l0 18 -3 6 -23 0 -4 -6 0 -43 189 0 0 43 -3 6 -24 0z"/>
  </g>
 </g>
</svg>
