<?xml version="1.0" encoding="UTF-8"?>
<!DOCTYPE svg PUBLIC "-//W3C//DTD SVG 1.1//EN" "http://www.w3.org/Graphics/SVG/1.1/DTD/svg11.dtd">
<!-- Creator: CorelDRAW X6 -->
<svg xmlns="http://www.w3.org/2000/svg" xml:space="preserve" width="33.6699mm" height="33.6699mm" version="1.1" style="shape-rendering:geometricPrecision; text-rendering:geometricPrecision; image-rendering:optimizeQuality; fill-rule:evenodd; clip-rule:evenodd"
viewBox="0 0 2386 2386"
 xmlns:xlink="http://www.w3.org/1999/xlink">
 <defs>
  <style type="text/css">
   <![CDATA[
    .fil1 {fill:black}
    .fil0 {fill:#999999}
   ]]>
  </style>
 </defs>
 <g id="Layer_x0020_1">
  <metadata id="CorelCorpID_0Corel-Layer"/>
  <g id="_1081618160">
   <path class="fil0" d="M339 1242l-1 -78c18,-74 38,-130 79,-189l61 -90 226 -9 231 10 59 89c38,66 53,103 75,188l-1 79 -729 0zm65 -175c25,-55 59,-110 97,-158l203 -9 204 9c42,44 73,107 97,162 -101,-12 -213,-15 -302,-14 -79,-1 -195,3 -299,10zm562 398l-14 -22 0 -67c-82,4 -157,8 -248,9 -96,-1 -154,-3 -249,-9l0 68 -14 21 -89 0 -13 -20 0 -169 730 1 0 166 -15 22 -88 0zm89 -109l-3 0 3 0zm892 109l-14 -22 1 -67c-82,4 -157,8 -248,9 -96,-1 -154,-3 -249,-9l0 68 -13 21 -88 0 -12 -23 1 -166 725 1 -1 167 -11 21 -91 0zm-623 -223l0 -81c17,-74 34,-127 75,-186l61 -90 226 -9 231 10 59 89c38,66 52,103 74,188l-1 79 -725 0zm62 -175c25,-55 59,-110 97,-158l203 -9 204 9c42,44 73,107 97,162 -101,-12 -213,-15 -302,-14 -79,-1 -196,3 -299,10zm684 467l-1754 0 0 -47 1754 1 0 46z"/>
   <path class="fil1" d="M349 349c28,-29 59,-56 90,-82 31,-25 64,-49 97,-71 33,-22 67,-42 101,-60 35,-18 70,-34 106,-49 36,-14 73,-27 110,-38 37,-11 74,-20 112,-27 37,-7 75,-13 113,-16 38,-4 77,-6 115,-6 38,0 77,2 115,6 38,3 76,9 113,16 38,7 76,16 112,27 37,11 74,24 110,38 36,15 71,31 106,49 35,18 69,39 102,60 33,22 65,46 96,71 31,26 62,53 91,82 29,29 56,59 81,90 26,31 49,64 71,97 22,33 42,67 60,102 18,34 35,70 49,105 15,36 27,73 38,110 11,37 20,74 28,112 7,37 12,76 16,114 3,38 5,76 5,114 0,38 -2,77 -5,115 -4,38 -9,76 -16,113 -8,38 -17,76 -28,112 -11,37 -23,74 -38,110 -14,36 -31,71 -49,106 -18,34 -38,68 -60,102 -22,33 -45,65 -71,96 -25,31 -52,62 -81,91 -29,29 -60,56 -91,81 -31,25 -63,49 -96,71 -33,22 -67,42 -102,60 -35,18 -70,35 -106,49 -36,15 -73,27 -110,38 -36,11 -74,20 -111,28 -38,7 -76,12 -114,16 -38,3 -77,5 -115,5 -38,0 -76,-2 -114,-5 -38,-4 -77,-9 -114,-17 -38,-7 -75,-16 -112,-27 -37,-11 -74,-23 -110,-38 -35,-14 -71,-31 -106,-49 -34,-18 -68,-38 -101,-60 -33,-21 -65,-45 -97,-71 -31,-25 -61,-52 -90,-81 -29,-29 -57,-60 -82,-91 -25,-31 -49,-63 -71,-96 -21,-33 -41,-67 -60,-102 -18,-35 -34,-70 -49,-106 -14,-36 -27,-73 -38,-109 -11,-37 -20,-75 -27,-112 -7,-38 -13,-76 -16,-114 -4,-38 -6,-77 -6,-115 0,-38 2,-76 6,-114 3,-38 9,-76 16,-114 7,-38 16,-75 27,-112 11,-37 24,-74 38,-109 15,-36 31,-72 49,-106 18,-35 38,-69 60,-102 22,-33 46,-65 71,-97 25,-31 53,-61 82,-90zm1741 144c21,27 42,56 60,84 19,29 36,59 52,90 16,30 30,61 43,93 13,31 24,64 34,96 10,33 18,66 25,99 7,34 13,67 17,101 3,33 6,67 7,101 1,34 1,69 -1,103 -2,33 -5,67 -10,101 -5,34 -11,67 -19,101 -8,33 -17,66 -28,98 -10,33 -23,65 -36,97 -14,31 -29,62 -46,92 -16,31 -34,61 -54,89 -19,29 -40,58 -62,85 -23,27 -47,54 -72,79 -26,25 -53,50 -80,72 -28,23 -56,44 -86,64 -29,19 -59,38 -90,54 -31,17 -62,32 -94,46 -32,14 -65,26 -98,37 -33,11 -66,20 -100,28 -33,7 -68,14 -101,18 -34,5 -69,9 -103,11 -34,1 -68,2 -103,1 -34,-2 -68,-4 -102,-8 -33,-4 -67,-9 -100,-16 -33,-7 -67,-16 -99,-25 -32,-10 -64,-22 -96,-34 -31,-13 -62,-27 -92,-43 -30,-15 -59,-32 -87,-51 -29,-18 -56,-38 -83,-60l1604 -1603zm-35 -44l-1611 1611c-14,-11 -28,-23 -42,-37 539,-539 1079,-1078 1616,-1615 13,14 25,27 37,41zm-78 -79c-10,-12 -27,-28 -43,-39l-1610 1610c15,17 20,23 38,41l1615 -1612zm-84 -76c-28,-22 -57,-42 -87,-61 -29,-19 -59,-36 -90,-52 -31,-16 -62,-30 -94,-43 -32,-13 -64,-24 -97,-34 -32,-10 -65,-18 -99,-25 -33,-7 -67,-13 -100,-17 -34,-4 -68,-6 -102,-7 -33,-1 -67,-1 -101,1 -34,2 -68,5 -101,10 -34,5 -67,12 -100,19 -33,8 -66,17 -98,28 -33,11 -65,23 -96,37 -32,13 -63,29 -93,45 -30,17 -60,35 -89,54 -29,20 -57,41 -85,63 -27,23 -54,47 -79,72 -25,25 -49,51 -71,78 -23,27 -44,55 -63,83 -19,29 -37,59 -54,89 -16,30 -31,61 -44,93 -14,31 -26,63 -37,96 -10,32 -19,66 -27,99 -8,33 -14,67 -19,101 -5,34 -8,68 -10,102 -2,34 -2,68 -1,103 1,34 3,68 7,102 4,34 9,68 16,102 7,33 15,67 25,100 9,32 21,65 33,97 12,32 27,63 42,94 15,31 32,61 50,90 19,30 39,58 60,86l1604 -1605z"/>
  </g>
 </g>
</svg>
