<?xml version="1.0" encoding="UTF-8"?>
<!DOCTYPE svg PUBLIC "-//W3C//DTD SVG 1.1//EN" "http://www.w3.org/Graphics/SVG/1.1/DTD/svg11.dtd">
<!-- Creator: CorelDRAW X6 -->
<svg xmlns="http://www.w3.org/2000/svg" xml:space="preserve" width="33.67mm" height="33.6699mm" version="1.1" style="shape-rendering:geometricPrecision; text-rendering:geometricPrecision; image-rendering:optimizeQuality; fill-rule:evenodd; clip-rule:evenodd"
viewBox="0 0 130 130"
 xmlns:xlink="http://www.w3.org/1999/xlink">
 <defs>
  <style type="text/css">
   <![CDATA[
    .fil1 {fill:black}
    .fil0 {fill:#999999}
   ]]>
  </style>
 </defs>
 <g id="Layer_x0020_1">
  <metadata id="CorelCorpID_0Corel-Layer"/>
  <g id="_1081618896">
   <path class="fil0" d="M56 72l0 0 0 0zm51 12l0 -1 0 -4c-5,0 -9,0 -14,0 -5,0 -8,0 -14,0l0 4 0 1 -5 0 -1 -1 0 -10 40 0 0 10 0 1 -6 0zm-34 -13l0 -4c1,-4 2,-7 4,-11l4 -5 12 0 13 0 3 5c2,4 3,6 4,11l0 4 -40 0zm4 -9c1,-4 3,-7 5,-9l11 -1 11 1c3,2 4,6 6,9 -6,-1 -12,-1 -17,-1 -4,0 -11,0 -16,1zm-22 22l-5 -1 -1 0 0 -7 -8 2c0,1 -2,2 -3,2 -2,0 -3,-1 -4,-2l-8 -2 0 7 -1 1 -6 -1 0 0 0 -8 -2 0 0 -40c0,-3 2,-4 3,-4l35 0c2,0 3,2 3,3l0 41 -2 0 0 8 -1 1zm60 3l-100 1 0 -3 100 0 0 2z"/>
   <path class="fil1" d="M19 19c2,-2 3,-3 5,-4 2,-2 3,-3 5,-4 2,-1 4,-3 6,-4 2,-1 4,-1 6,-2 2,-1 4,-2 6,-2 2,-1 4,-1 6,-2 2,0 4,-1 6,-1 2,0 4,0 6,0 2,0 4,0 6,0 2,0 5,1 7,1 2,1 4,1 6,2 2,0 4,1 6,2 2,1 4,1 5,2 2,1 4,3 6,4 2,1 4,2 5,4 2,1 4,2 5,4 2,2 3,3 5,5 1,2 2,3 4,5 1,2 2,4 3,6 1,2 2,4 3,6 0,2 1,4 2,6 0,2 1,4 1,6 0,2 1,4 1,6 0,2 0,4 0,6 0,2 0,4 0,6 0,2 -1,5 -1,7 0,2 -1,4 -1,6 -1,2 -2,4 -2,6 -1,2 -2,4 -3,5 -1,2 -2,4 -3,6 -2,2 -3,4 -4,5 -2,2 -3,4 -5,5 -1,2 -3,3 -5,5 -1,1 -3,2 -5,4 -2,1 -4,2 -6,3 -1,1 -3,2 -5,3 -2,0 -4,1 -6,2 -2,0 -4,1 -6,1 -2,0 -5,1 -7,1 -2,0 -4,0 -6,0 -2,0 -4,0 -6,0 -2,0 -4,-1 -6,-1 -2,0 -4,-1 -6,-1 -2,-1 -4,-2 -6,-2 -2,-1 -4,-2 -6,-3 -2,-1 -4,-2 -6,-3 -2,-2 -3,-3 -5,-4 -2,-2 -3,-3 -5,-5 -2,-1 -3,-3 -4,-5 -2,-1 -3,-3 -4,-5 -1,-2 -3,-4 -4,-6 -1,-1 -1,-3 -2,-5 -1,-2 -2,-4 -2,-6 -1,-2 -1,-4 -2,-6 0,-2 -1,-5 -1,-7 0,-2 0,-4 0,-6 0,-2 0,-4 0,-6 1,-2 1,-4 1,-6 1,-2 1,-4 2,-6 0,-2 1,-4 2,-6 1,-2 1,-4 2,-6 1,-2 3,-4 4,-6 1,-2 2,-3 4,-5 1,-2 2,-3 4,-5zm95 8c1,1 2,3 3,5 1,1 2,3 3,4 1,2 2,4 3,5 0,2 1,4 1,6 1,2 1,3 2,5 0,2 0,4 1,6 0,1 0,3 0,5 0,2 0,4 0,6 0,2 0,3 -1,5 0,2 0,4 -1,6 0,2 0,3 -1,5 -1,2 -1,4 -2,5 -1,2 -2,4 -3,6 0,1 -1,3 -2,4 -2,2 -3,3 -4,5 -1,1 -2,3 -4,4 -1,2 -3,3 -4,4 -2,1 -3,3 -5,4 -1,1 -3,2 -5,3 -1,1 -3,1 -5,2 -2,1 -3,2 -5,2 -2,1 -4,1 -6,2 -2,0 -3,0 -5,1 -2,0 -4,0 -6,0 -2,0 -4,0 -5,0 -2,0 -4,0 -6,0 -2,0 -4,-1 -6,-1 -1,0 -3,-1 -5,-1 -2,-1 -3,-1 -5,-2 -2,-1 -4,-2 -5,-2 -2,-1 -3,-2 -5,-3 -2,-1 -3,-2 -4,-4l87 -87zm-2 -2l-88 87c-1,0 -1,-1 -2,-2 29,-29 59,-58 88,-88 1,1 2,2 2,3zm-4 -5c-1,0 -2,-1 -2,-2l-88 88c0,1 1,1 2,2l88 -88zm-5 -4c-1,-1 -3,-2 -4,-3 -2,-1 -4,-2 -5,-3 -2,-1 -4,-2 -5,-2 -2,-1 -4,-2 -6,-2 -2,-1 -3,-1 -5,-2 -2,0 -4,0 -6,-1 -1,0 -3,0 -5,0 -2,0 -4,0 -6,0 -2,0 -3,0 -5,1 -2,0 -4,0 -6,1 -1,0 -3,1 -5,1 -2,1 -4,1 -5,2 -2,1 -4,2 -5,3 -2,1 -4,2 -5,3 -2,1 -3,2 -5,3 -1,1 -3,3 -4,4 -2,1 -3,3 -4,4 -1,2 -2,3 -3,5 -2,1 -2,3 -3,5 -1,1 -2,3 -3,5 -1,1 -1,3 -2,5 0,2 -1,4 -1,5 -1,2 -1,4 -1,6 -1,2 -1,4 -1,5 0,2 0,4 0,6 0,2 0,4 0,6 1,1 1,3 1,5 1,2 1,4 2,6 0,1 1,3 1,5 1,2 2,3 3,5 1,2 2,3 3,5 1,2 2,3 3,5l87 -88z"/>
  </g>
 </g>
</svg>
