<?xml version="1.0" encoding="utf-8"?>
<!-- Generator: Adobe Illustrator 16.0.0, SVG Export Plug-In . SVG Version: 6.00 Build 0)  -->
<!DOCTYPE svg PUBLIC "-//W3C//DTD SVG 1.1//EN" "http://www.w3.org/Graphics/SVG/1.1/DTD/svg11.dtd">
<svg version="1.1" id="Layer_1" xmlns="http://www.w3.org/2000/svg" xmlns:xlink="http://www.w3.org/1999/xlink" x="0px" y="0px"
	 width="80.021px" height="80.022px" viewBox="0 0 80.021 80.022" enable-background="new 0 0 80.021 80.022" xml:space="preserve">
<circle fill="none" stroke="#231F20" stroke-width="0.0216" stroke-miterlimit="22.9256" cx="40.012" cy="40.011" r="40"/>
<path fill-rule="evenodd" clip-rule="evenodd" fill="#FF1E00" d="M39.998,11.612c15.699,0,28.431,12.731,28.431,28.43
	c0,15.699-12.731,28.429-28.431,28.429c-15.698,0-28.429-12.73-28.429-28.429C11.569,24.344,24.3,11.612,39.998,11.612z
	 M40.002,1.378c21.291,0,38.661,17.367,38.661,38.664c0,21.294-17.37,38.665-38.661,38.665c-21.298,0-38.668-17.37-38.668-38.665
	C1.334,18.745,18.704,1.378,40.002,1.378z"/>
<path fill="none" stroke="#231F20" stroke-width="0.1" stroke-miterlimit="22.9256" d="M39.998,11.612
	c15.699,0,28.431,12.731,28.431,28.43c0,15.699-12.731,28.429-28.431,28.429c-15.698,0-28.429-12.73-28.429-28.429
	C11.569,24.344,24.3,11.612,39.998,11.612z M40.002,1.378c21.291,0,38.661,17.367,38.661,38.664
	c0,21.294-17.37,38.665-38.661,38.665c-21.298,0-38.668-17.37-38.668-38.665C1.334,18.745,18.704,1.378,40.002,1.378z"/>
<path fill-rule="evenodd" clip-rule="evenodd" d="M22.447,48.824h5.011v1.566c0,1.386,1.124,2.507,2.511,2.507
	c1.389,0,2.51-1.121,2.51-2.507v-8.463c0-1.383-1.121-2.507-2.51-2.507c-1.145,0-2.146,0.783-2.433,1.892l-4.463-0.018V22.493
	h14.423v4.697H27.458v9.451c2.406-2.253,6.176-2.132,8.426,0.266c1.034,1.104,1.612,2.559,1.612,4.084v9.399
	c0,4.15-3.368,7.524-7.527,7.524c-4.148,0-7.521-3.374-7.521-7.524V48.824z"/>
<path fill="none" stroke="#000000" stroke-width="0.0216" stroke-miterlimit="22.9256" d="M22.447,48.824h5.011v1.566
	c0,1.386,1.124,2.507,2.511,2.507c1.389,0,2.51-1.121,2.51-2.507v-8.463c0-1.383-1.121-2.507-2.51-2.507
	c-1.145,0-2.146,0.783-2.433,1.892l-4.463-0.018V22.493h14.423v4.697H27.458v9.451c2.406-2.253,6.176-2.132,8.426,0.266
	c1.034,1.104,1.612,2.559,1.612,4.084v9.399c0,4.15-3.368,7.524-7.527,7.524c-4.148,0-7.521-3.374-7.521-7.524V48.824z"/>
<path fill-rule="evenodd" clip-rule="evenodd" d="M47.524,50.39c0,1.386,1.121,2.507,2.51,2.507c1.384,0,2.511-1.121,2.511-2.507
	V29.697c0-1.381-1.127-2.507-2.511-2.507c-1.389,0-2.51,1.126-2.51,2.507V50.39z M42.508,50.39V29.697
	c0-4.154,3.37-7.527,7.526-7.527c4.157,0,7.517,3.374,7.517,7.527V50.39c0,4.15-3.359,7.524-7.517,7.524
	C45.878,57.915,42.508,54.541,42.508,50.39z"/>
<path fill="none" stroke="#000000" stroke-width="0.0216" stroke-miterlimit="22.9256" d="M47.524,50.39
	c0,1.386,1.121,2.507,2.51,2.507c1.384,0,2.511-1.121,2.511-2.507V29.697c0-1.381-1.127-2.507-2.511-2.507
	c-1.389,0-2.51,1.126-2.51,2.507V50.39z M42.508,50.39V29.697c0-4.154,3.37-7.527,7.526-7.527c4.157,0,7.517,3.374,7.517,7.527
	V50.39c0,4.15-3.359,7.524-7.517,7.524C45.878,57.915,42.508,54.541,42.508,50.39z"/>
</svg>
