<?xml version="1.0" encoding="utf-8"?>
<!-- Generator: Adobe Illustrator 16.0.0, SVG Export Plug-In . SVG Version: 6.00 Build 0)  -->
<!DOCTYPE svg PUBLIC "-//W3C//DTD SVG 1.1//EN" "http://www.w3.org/Graphics/SVG/1.1/DTD/svg11.dtd">
<svg version="1.1" id="Layer_1" xmlns="http://www.w3.org/2000/svg" xmlns:xlink="http://www.w3.org/1999/xlink" x="0px" y="0px"
	 width="80.021px" height="80.021px" viewBox="0 0 80.021 80.021" enable-background="new 0 0 80.021 80.021" xml:space="preserve">
<circle fill="none" stroke="#231F20" stroke-width="0.0216" stroke-miterlimit="22.9256" cx="40.011" cy="40.011" r="40"/>
<path fill-rule="evenodd" clip-rule="evenodd" fill="#737577" d="M36.14,44.046h-0.087H36.14z"/>
<path fill="none" stroke="#737577" stroke-width="0.0216" stroke-miterlimit="22.9256" d="M36.14,44.046h-0.087H36.14z"/>
<path fill-rule="evenodd" clip-rule="evenodd" fill="#737577" d="M20.767,49.646h5.498v1.718c0,1.521,1.232,2.751,2.748,2.751
	c1.519,0,2.748-1.229,2.748-2.751v-9.272c0-1.518-1.229-2.748-2.748-2.748c-1.261,0-2.354,0.854-2.661,2.077l-4.896-0.018V20.796
	H37.26v5.145H26.265v10.36c2.635-2.473,6.763-2.343,9.233,0.295c1.131,1.2,1.762,2.799,1.762,4.465v10.302
	c0,4.547-3.691,8.245-8.247,8.245c-4.547,0-8.246-3.698-8.246-8.245V49.646z"/>
<path fill="none" stroke="#737577" stroke-width="0.0216" stroke-miterlimit="22.9256" d="M20.767,49.646h5.498v1.718
	c0,1.521,1.232,2.751,2.748,2.751c1.519,0,2.748-1.229,2.748-2.751v-9.272c0-1.519-1.229-2.748-2.748-2.748
	c-1.261,0-2.354,0.854-2.661,2.077l-4.896-0.018V20.796H37.26v5.145H26.265v10.36c2.635-2.473,6.763-2.343,9.233,0.295
	c1.131,1.2,1.762,2.799,1.762,4.465v10.302c0,4.547-3.691,8.245-8.247,8.245c-4.547,0-8.246-3.698-8.246-8.245V49.646z"/>
<path fill-rule="evenodd" clip-rule="evenodd" fill="#737577" d="M48.254,51.363c0,1.521,1.229,2.751,2.751,2.751
	c1.516,0,2.742-1.229,2.742-2.751V28.691c0-1.521-1.227-2.75-2.742-2.75c-1.521,0-2.751,1.229-2.751,2.75V51.363z M42.756,51.363
	V28.691c0-4.558,3.69-8.246,8.249-8.246c4.553,0,8.235,3.688,8.235,8.246v22.672c0,4.547-3.683,8.245-8.235,8.245
	C46.446,59.608,42.756,55.91,42.756,51.363z"/>
<path fill="none" stroke="#737577" stroke-width="0.0216" stroke-miterlimit="22.9256" d="M48.254,51.363
	c0,1.521,1.229,2.751,2.751,2.751c1.516,0,2.742-1.229,2.742-2.751V28.691c0-1.521-1.227-2.75-2.742-2.75
	c-1.521,0-2.751,1.229-2.751,2.75V51.363z M42.756,51.363V28.691c0-4.558,3.69-8.246,8.249-8.246c4.553,0,8.235,3.688,8.235,8.246
	v22.672c0,4.547-3.683,8.245-8.235,8.245C46.446,59.608,42.756,55.91,42.756,51.363z"/>
<path fill-rule="evenodd" clip-rule="evenodd" d="M62.667,10.895c-0.908-0.706-1.842-1.365-2.797-1.976
	c-0.954-0.61-1.935-1.177-2.93-1.689s-2.014-0.978-3.043-1.394c-1.03-0.417-2.077-0.79-3.133-1.108
	c-1.056-0.318-2.129-0.593-3.208-0.815S45.391,3.508,44.3,3.38c-1.087-0.127-2.189-0.211-3.286-0.243
	c-1.096-0.032-2.195-0.021-3.288,0.041c-1.094,0.061-2.188,0.176-3.274,0.333c-1.088,0.156-2.173,0.364-3.242,0.616
	c-1.07,0.252-2.136,0.556-3.186,0.902c-1.05,0.347-2.088,0.744-3.106,1.186c-1.018,0.439-2.024,0.934-3.005,1.472
	s-1.947,1.125-2.884,1.755c-0.938,0.631-1.857,1.319-2.739,2.039c-0.883,0.72-1.759,1.501-2.577,2.313
	c-0.813,0.807-1.582,1.657-2.306,2.531c-0.723,0.873-1.403,1.781-2.027,2.709c-0.625,0.929-1.206,1.889-1.738,2.869
	c-0.533,0.98-1.024,1.987-1.458,3.005c-0.435,1.018-0.827,2.062-1.169,3.118c-0.341,1.056-0.645,2.128-0.894,3.207
	c-0.249,1.079-0.457,2.178-0.61,3.274s-0.27,2.204-0.327,3.309c-0.061,1.105-0.069,2.219-0.04,3.323
	c0.028,1.105,0.112,2.221,0.237,3.323c0.124,1.102,0.303,2.204,0.521,3.292c0.217,1.087,0.482,2.172,0.795,3.236
	c0.31,1.065,0.68,2.12,1.082,3.153c0.402,1.032,0.859,2.056,1.356,3.051c0.498,0.995,1.047,1.973,1.641,2.924
	c0.593,0.952,1.231,1.88,1.917,2.779L62.667,10.895z M65.397,13.341c-0.317-0.385-0.855-0.899-1.376-1.267L11.834,64.267
	c0.475,0.538,0.654,0.749,1.218,1.334L65.397,13.341z M67.92,15.921L15.725,68.119c-0.451-0.367-0.917-0.74-1.351-1.209
	C31.833,49.461,49.318,31.987,66.72,14.573C67.159,15.03,67.541,15.444,67.92,15.921z M69.057,17.327
	c0.7,0.888,1.359,1.811,1.962,2.748c0.602,0.937,1.171,1.909,1.677,2.892c0.51,0.983,0.975,1.996,1.389,3.02
	s0.787,2.068,1.104,3.124c0.318,1.053,0.594,2.129,0.816,3.208s0.405,2.169,0.529,3.259c0.127,1.09,0.208,2.192,0.243,3.294
	c0.034,1.102,0.025,2.207-0.035,3.306c-0.058,1.099-0.171,2.198-0.327,3.291s-0.361,2.184-0.613,3.259
	c-0.249,1.076-0.558,2.149-0.899,3.199c-0.341,1.05-0.737,2.097-1.177,3.118c-0.439,1.021-0.935,2.026-1.47,3.01
	s-1.122,1.95-1.75,2.884c-0.627,0.935-1.313,1.852-2.036,2.73s-1.501,1.744-2.317,2.56c-0.833,0.833-1.706,1.62-2.6,2.351
	c-0.895,0.732-1.825,1.426-2.774,2.06c-0.949,0.637-1.933,1.229-2.927,1.768c-0.995,0.538-2.021,1.041-3.058,1.483
	c-1.035,0.442-2.095,0.842-3.162,1.188c-1.066,0.348-2.151,0.654-3.239,0.902c-1.087,0.252-2.192,0.457-3.292,0.61
	c-1.099,0.154-2.213,0.27-3.32,0.327c-1.104,0.058-2.216,0.066-3.323,0.031c-1.108-0.034-2.216-0.115-3.31-0.242
	c-1.093-0.125-2.189-0.31-3.263-0.529c-1.072-0.221-2.148-0.498-3.195-0.813c-1.048-0.315-2.089-0.688-3.102-1.1
	s-2.016-0.873-2.984-1.377c-0.97-0.503-1.921-1.058-2.841-1.657c-0.92-0.599-1.813-1.246-2.676-1.938L69.057,17.327z M12.636,12.665
	c0.935-0.937,1.923-1.822,2.936-2.646s2.057-1.594,3.127-2.296c1.07-0.706,2.173-1.354,3.295-1.941
	c1.122-0.587,2.271-1.122,3.434-1.59c1.159-0.469,2.352-0.885,3.546-1.235c1.194-0.35,2.409-0.654,3.627-0.885
	c1.218-0.234,2.453-0.414,3.686-0.529s2.476-0.179,3.714-0.179s2.481,0.063,3.714,0.179s2.467,0.295,3.686,0.529
	c1.217,0.231,2.435,0.535,3.629,0.885c1.195,0.35,2.387,0.766,3.55,1.235c1.163,0.468,2.311,1.003,3.434,1.59
	c1.122,0.587,2.227,1.238,3.297,1.944c1.07,0.703,2.115,1.472,3.127,2.296c1.013,0.824,2.002,1.709,2.936,2.646
	c0.938,0.94,1.826,1.926,2.645,2.932c0.818,1.007,1.594,2.057,2.297,3.126c0.705,1.07,1.354,2.172,1.94,3.294
	s1.122,2.27,1.591,3.433c0.469,1.16,0.885,2.349,1.235,3.543c0.35,1.194,0.647,2.409,0.882,3.629
	c0.234,1.221,0.414,2.458,0.529,3.688c0.116,1.229,0.18,2.473,0.18,3.71s-0.063,2.481-0.18,3.71
	c-0.115,1.229-0.295,2.467-0.529,3.688c-0.234,1.221-0.532,2.435-0.882,3.629c-0.351,1.195-0.767,2.384-1.235,3.546
	c-0.469,1.163-1.004,2.312-1.591,3.434s-1.235,2.227-1.94,3.297c-0.703,1.07-1.473,2.114-2.297,3.126
	c-0.824,1.013-1.71,2.002-2.646,2.937c-0.94,0.937-1.927,1.824-2.934,2.643c-1.007,0.819-2.057,1.594-3.127,2.297
	c-1.07,0.705-2.172,1.356-3.294,1.943s-2.271,1.122-3.434,1.591s-2.354,0.885-3.549,1.235c-1.195,0.35-2.41,0.652-3.628,0.885
	c-1.218,0.233-2.453,0.413-3.685,0.528c-1.232,0.116-2.477,0.18-3.714,0.18c-1.238,0-2.482-0.066-3.714-0.182
	c-1.232-0.116-2.468-0.295-3.686-0.529c-1.218-0.231-2.436-0.532-3.63-0.882c-1.194-0.351-2.387-0.767-3.547-1.232
	c-1.159-0.466-2.311-1.001-3.433-1.588c-1.123-0.587-2.225-1.235-3.295-1.94c-1.07-0.703-2.114-1.473-3.127-2.297
	c-1.012-0.824-2.001-1.709-2.936-2.646c-0.938-0.94-1.825-1.927-2.644-2.934c-0.819-1.006-1.594-2.056-2.297-3.126
	c-0.706-1.07-1.354-2.175-1.941-3.298c-0.587-1.121-1.122-2.27-1.591-3.433c-0.468-1.162-0.885-2.354-1.235-3.548
	c-0.35-1.194-0.653-2.412-0.885-3.629c-0.234-1.218-0.413-2.453-0.529-3.685c-0.115-1.232-0.179-2.476-0.179-3.713
	s0.066-2.481,0.182-3.714c0.116-1.232,0.295-2.467,0.529-3.685c0.231-1.217,0.532-2.435,0.882-3.629
	c0.351-1.195,0.768-2.386,1.232-3.546c0.466-1.16,1.001-2.311,1.589-3.433c0.587-1.122,1.234-2.227,1.94-3.297
	c0.703-1.07,1.473-2.114,2.297-3.126C10.813,14.588,11.695,13.604,12.636,12.665z"/>
<path fill="none" stroke="#000000" stroke-width="0.0216" stroke-miterlimit="22.9256" d="M62.667,10.895
	c-0.908-0.706-1.842-1.365-2.797-1.976c-0.954-0.61-1.935-1.177-2.93-1.689s-2.014-0.978-3.043-1.394
	c-1.03-0.417-2.077-0.79-3.133-1.108c-1.056-0.318-2.129-0.593-3.208-0.815S45.391,3.508,44.3,3.38
	c-1.087-0.127-2.189-0.211-3.286-0.243c-1.096-0.032-2.195-0.021-3.288,0.04c-1.094,0.061-2.188,0.177-3.274,0.333
	c-1.088,0.156-2.173,0.364-3.242,0.616c-1.07,0.251-2.136,0.556-3.186,0.902c-1.05,0.347-2.088,0.744-3.106,1.186
	c-1.018,0.439-2.024,0.934-3.005,1.472s-1.947,1.125-2.884,1.755c-0.938,0.631-1.857,1.319-2.739,2.039
	c-0.883,0.72-1.759,1.501-2.577,2.313c-0.813,0.807-1.582,1.657-2.306,2.531c-0.723,0.874-1.403,1.782-2.027,2.71
	c-0.625,0.929-1.206,1.889-1.738,2.869s-1.024,1.987-1.458,3.005c-0.435,1.018-0.827,2.062-1.169,3.118
	c-0.341,1.056-0.645,2.128-0.894,3.207c-0.249,1.079-0.457,2.178-0.61,3.274s-0.27,2.204-0.327,3.309
	c-0.061,1.105-0.069,2.218-0.04,3.323c0.028,1.105,0.112,2.221,0.237,3.323c0.124,1.102,0.303,2.204,0.521,3.291
	c0.217,1.087,0.482,2.172,0.795,3.236c0.31,1.065,0.681,2.12,1.082,3.153c0.402,1.032,0.859,2.056,1.356,3.051
	c0.498,0.995,1.047,1.973,1.641,2.924c0.593,0.952,1.231,1.88,1.918,2.779L62.667,10.895z M65.397,13.341
	c-0.317-0.385-0.855-0.9-1.376-1.267L11.834,64.267c0.475,0.538,0.654,0.749,1.218,1.334L65.397,13.341z M67.92,15.921
	L15.725,68.119c-0.451-0.367-0.917-0.74-1.351-1.209C31.833,49.461,49.318,31.987,66.72,14.573
	C67.159,15.03,67.541,15.444,67.92,15.921z M69.057,17.327c0.7,0.888,1.359,1.811,1.962,2.748c0.602,0.937,1.171,1.909,1.677,2.892
	c0.51,0.983,0.975,1.996,1.389,3.02s0.787,2.068,1.104,3.124c0.318,1.053,0.594,2.129,0.816,3.207
	c0.223,1.079,0.405,2.169,0.529,3.26c0.127,1.09,0.208,2.192,0.243,3.294c0.034,1.102,0.025,2.207-0.035,3.306
	c-0.058,1.099-0.171,2.198-0.327,3.291s-0.361,2.184-0.613,3.259c-0.248,1.076-0.558,2.149-0.899,3.199
	c-0.341,1.05-0.737,2.097-1.177,3.118c-0.439,1.021-0.935,2.026-1.47,3.01s-1.122,1.95-1.75,2.884
	c-0.627,0.935-1.313,1.852-2.036,2.73s-1.501,1.744-2.317,2.56c-0.833,0.833-1.706,1.62-2.6,2.351
	c-0.895,0.732-1.825,1.426-2.774,2.06c-0.949,0.637-1.933,1.229-2.927,1.768c-0.995,0.538-2.021,1.041-3.058,1.483
	c-1.035,0.442-2.095,0.842-3.162,1.188c-1.066,0.348-2.151,0.654-3.239,0.902c-1.087,0.252-2.192,0.457-3.292,0.61
	c-1.099,0.154-2.213,0.27-3.32,0.327c-1.104,0.058-2.216,0.066-3.323,0.031c-1.107-0.034-2.216-0.115-3.31-0.242
	c-1.093-0.125-2.189-0.31-3.263-0.529c-1.072-0.221-2.148-0.498-3.195-0.813c-1.047-0.315-2.089-0.688-3.102-1.1
	s-2.016-0.873-2.984-1.377c-0.97-0.503-1.921-1.058-2.841-1.657c-0.92-0.599-1.813-1.246-2.676-1.938L69.057,17.327z M12.636,12.665
	c0.935-0.937,1.923-1.822,2.936-2.646s2.057-1.594,3.127-2.296c1.07-0.706,2.173-1.354,3.295-1.941
	c1.122-0.587,2.271-1.122,3.434-1.59c1.159-0.469,2.352-0.885,3.546-1.235c1.194-0.35,2.409-0.654,3.627-0.885
	c1.218-0.234,2.453-0.414,3.686-0.529s2.476-0.179,3.714-0.179s2.481,0.063,3.714,0.179s2.467,0.295,3.686,0.529
	c1.217,0.231,2.435,0.535,3.629,0.885c1.195,0.35,2.387,0.766,3.55,1.235c1.163,0.468,2.311,1.003,3.434,1.59
	c1.122,0.587,2.227,1.238,3.297,1.944c1.07,0.703,2.115,1.472,3.127,2.296c1.013,0.824,2.002,1.709,2.936,2.646
	c0.938,0.94,1.826,1.926,2.645,2.932c0.818,1.007,1.594,2.057,2.297,3.126c0.705,1.07,1.354,2.172,1.94,3.294
	s1.122,2.27,1.591,3.433c0.469,1.16,0.885,2.348,1.235,3.543c0.35,1.194,0.647,2.409,0.882,3.629
	c0.234,1.221,0.414,2.458,0.529,3.688c0.116,1.229,0.18,2.472,0.18,3.71c0,1.238-0.063,2.481-0.18,3.71
	c-0.115,1.229-0.295,2.467-0.529,3.688c-0.234,1.221-0.532,2.435-0.882,3.629c-0.351,1.195-0.767,2.384-1.235,3.546
	c-0.469,1.163-1.004,2.312-1.591,3.434s-1.235,2.227-1.94,3.297c-0.703,1.07-1.473,2.114-2.297,3.126
	c-0.824,1.013-1.71,2.002-2.646,2.937c-0.94,0.937-1.927,1.824-2.934,2.643c-1.007,0.819-2.057,1.594-3.127,2.297
	c-1.07,0.705-2.172,1.356-3.294,1.943s-2.271,1.122-3.434,1.591s-2.354,0.885-3.549,1.235c-1.195,0.35-2.41,0.652-3.628,0.885
	c-1.218,0.233-2.453,0.413-3.685,0.528c-1.232,0.116-2.477,0.18-3.714,0.18c-1.238,0-2.482-0.066-3.714-0.182
	c-1.232-0.116-2.468-0.295-3.686-0.529c-1.218-0.231-2.436-0.532-3.63-0.882c-1.194-0.351-2.387-0.767-3.547-1.232
	c-1.159-0.466-2.311-1.001-3.433-1.588c-1.123-0.588-2.225-1.235-3.295-1.94c-1.07-0.703-2.114-1.473-3.127-2.297
	c-1.012-0.824-2.001-1.709-2.936-2.646c-0.938-0.94-1.825-1.927-2.644-2.934c-0.819-1.006-1.594-2.056-2.297-3.126
	c-0.706-1.07-1.354-2.175-1.941-3.298c-0.587-1.121-1.122-2.27-1.591-3.433c-0.468-1.162-0.885-2.354-1.235-3.548
	c-0.35-1.195-0.653-2.412-0.885-3.629c-0.234-1.218-0.413-2.453-0.529-3.685c-0.115-1.232-0.179-2.476-0.179-3.713
	s0.066-2.481,0.182-3.714c0.116-1.232,0.295-2.467,0.529-3.685c0.231-1.217,0.532-2.435,0.882-3.629
	c0.351-1.195,0.768-2.386,1.232-3.546c0.466-1.16,1.001-2.311,1.589-3.433c0.587-1.122,1.234-2.227,1.94-3.297
	c0.703-1.07,1.473-2.114,2.297-3.126C10.813,14.588,11.695,13.604,12.636,12.665z"/>
</svg>
