<?xml version="1.0" encoding="UTF-8"?>
<!DOCTYPE svg PUBLIC "-//W3C//DTD SVG 1.1//EN" "http://www.w3.org/Graphics/SVG/1.1/DTD/svg11.dtd">
<!-- Creator: CorelDRAW X6 -->
<svg xmlns="http://www.w3.org/2000/svg" xml:space="preserve" width="33.6699mm" height="33.67mm" version="1.1" style="shape-rendering:geometricPrecision; text-rendering:geometricPrecision; image-rendering:optimizeQuality; fill-rule:evenodd; clip-rule:evenodd"
viewBox="0 0 199 199"
 xmlns:xlink="http://www.w3.org/1999/xlink">
 <defs>
  <style type="text/css">
   <![CDATA[
    .fil1 {fill:black}
    .fil0 {fill:red}
   ]]>
  </style>
 </defs>
 <g id="Layer_x0020_1">
  <metadata id="CorelCorpID_0Corel-Layer"/>
  <g id="_946124096">
   <path class="fil0" d="M100 0c55,0 99,45 99,100 0,55 -44,99 -99,99 -55,0 -100,-44 -100,-99 0,-55 45,-100 100,-100zm0 26c40,0 73,33 73,74 0,40 -33,73 -73,73 -41,0 -74,-33 -74,-73 0,-41 33,-74 74,-74z"/>
   <path class="fil1" d="M51 118c0,-8 7,-12 11,-12l57 0c-1,-4 -7,-8 -11,-7l-57 5 -11 13 0 -47 11 15 58 5c10,0 17,7 19,16l11 0c2,-4 6,-6 11,-6 4,1 8,4 9,8 1,8 -6,13 -13,12 -4,-2 -6,-5 -7,-8l-11 0c-1,9 -9,17 -19,17l-47 0c-7,0 -11,-5 -11,-11zm12 5c-3,0 -5,-2 -5,-5 -1,-3 2,-6 5,-6l57 0c-1,7 -6,11 -13,11l-44 0z"/>
  </g>
 </g>
</svg>
