<?xml version="1.0" encoding="utf-8"?>
<!-- Generator: Adobe Illustrator 16.0.0, SVG Export Plug-In . SVG Version: 6.00 Build 0)  -->
<!DOCTYPE svg PUBLIC "-//W3C//DTD SVG 1.1//EN" "http://www.w3.org/Graphics/SVG/1.1/DTD/svg11.dtd">
<svg version="1.1" id="Layer_1" xmlns="http://www.w3.org/2000/svg" xmlns:xlink="http://www.w3.org/1999/xlink" x="0px" y="0px"
	 width="80.013px" height="80.021px" viewBox="0 0 80.013 80.021" enable-background="new 0 0 80.013 80.021" xml:space="preserve">
<path fill="none" stroke="#231F20" stroke-width="0.0216" stroke-miterlimit="22.9256" d="M11.725,11.726
	c15.62-15.621,40.943-15.621,56.562,0c15.619,15.621,15.619,40.948,0,56.569s-40.942,15.621-56.562,0
	C-3.894,52.674-3.894,27.347,11.725,11.726z"/>
<path fill-rule="evenodd" clip-rule="evenodd" fill="#FF1E00" d="M40.027,78.698c-21.29,0-38.659-17.366-38.659-38.662
	c0-21.293,17.369-38.663,38.659-38.663c21.297,0,38.666,17.369,38.666,38.663C78.693,61.332,61.324,78.698,40.027,78.698z"/>
<path fill="none" stroke="#231F20" stroke-width="0.0216" stroke-miterlimit="22.9256" d="M40.027,78.698
	c-21.29,0-38.659-17.366-38.659-38.662c0-21.293,17.369-38.663,38.659-38.663c21.297,0,38.666,17.369,38.666,38.663
	C78.693,61.332,61.324,78.698,40.027,78.698z"/>
<path fill-rule="evenodd" clip-rule="evenodd" fill="#FFFFFF" d="M40.271,35.292l17.496-17.496
	c-4.865-3.885-11.03-6.208-17.738-6.208c-6.584,0-12.646,2.239-17.467,5.995L40.271,35.292z"/>
<path fill="none" stroke="#231F20" stroke-width="0.0216" stroke-miterlimit="22.9256" d="M40.271,35.292l17.496-17.496
	c-4.865-3.885-11.03-6.208-17.738-6.208c-6.584,0-12.646,2.239-17.467,5.995L40.271,35.292z"/>
<path fill-rule="evenodd" clip-rule="evenodd" fill="#FFFFFF" d="M17.786,57.776l17.496-17.496L17.572,22.571
	c-3.756,4.822-5.995,10.883-5.995,17.467C11.578,46.746,13.901,52.912,17.786,57.776z"/>
<path fill="none" stroke="#231F20" stroke-width="0.0216" stroke-miterlimit="22.9256" d="M17.786,57.776l17.496-17.496
	L17.572,22.571c-3.756,4.822-5.995,10.883-5.995,17.467C11.578,46.746,13.901,52.912,17.786,57.776z"/>
<path fill-rule="evenodd" clip-rule="evenodd" fill="#FFFFFF" d="M40.271,45.271L22.835,62.705
	c4.776,3.629,10.733,5.785,17.193,5.785c6.584,0,12.646-2.239,17.468-5.995L40.271,45.271z"/>
<path fill="none" stroke="#231F20" stroke-width="0.0216" stroke-miterlimit="22.9256" d="M40.271,45.271L22.835,62.705
	c4.776,3.629,10.733,5.785,17.193,5.785c6.584,0,12.646-2.239,17.468-5.995L40.271,45.271z"/>
<path fill-rule="evenodd" clip-rule="evenodd" fill="#FFFFFF" d="M62.695,22.845L45.26,40.281l17.226,17.225
	c3.756-4.821,5.995-10.883,5.995-17.467C68.48,33.579,66.324,27.622,62.695,22.845z"/>
<path fill="none" stroke="#231F20" stroke-width="0.0216" stroke-miterlimit="22.9256" d="M62.695,22.845L45.26,40.281
	l17.226,17.225c3.756-4.821,5.995-10.883,5.995-17.467C68.48,33.579,66.324,27.622,62.695,22.845z"/>
<polygon fill-rule="evenodd" clip-rule="evenodd" fill="#0001FE" points="53.235,16.351 52.744,16.083 52.246,15.824 51.742,15.576 
	51.233,15.338 50.718,15.11 50.197,14.893 49.672,14.687 49.141,14.491 48.604,14.306 48.063,14.131 47.517,13.969 46.966,13.816 
	46.41,13.676 45.851,13.547 45.286,13.43 44.717,13.325 44.144,13.231 43.567,13.15 42.986,13.08 42.401,13.023 41.813,12.979 
	41.223,12.947 40.627,12.927 40.028,12.921 39.441,12.927 38.857,12.946 38.276,12.977 37.699,13.02 37.125,13.074 36.554,13.142 
	35.987,13.22 35.425,13.31 34.866,13.412 34.311,13.525 33.76,13.649 33.214,13.784 32.672,13.931 32.135,14.088 31.603,14.256 
	31.074,14.435 30.551,14.624 30.033,14.823 29.521,15.033 29.013,15.253 28.511,15.482 28.015,15.722 27.524,15.971 27.039,16.23 
	26.56,16.499 26.086,16.777 25.62,17.064 25.158,17.36 24.704,17.666 24.602,17.737 40.271,33.406 55.739,17.938 55.598,17.836 
	55.139,17.52 54.672,17.213 54.199,16.917 53.721,16.629 "/>
<polygon fill="none" stroke="#231F20" stroke-width="0.0216" stroke-miterlimit="22.9256" points="53.235,16.351 52.744,16.083 
	52.246,15.824 51.742,15.576 51.233,15.338 50.718,15.11 50.197,14.893 49.672,14.687 49.141,14.491 48.604,14.306 48.063,14.131 
	47.517,13.969 46.966,13.816 46.41,13.676 45.851,13.547 45.286,13.43 44.717,13.325 44.144,13.231 43.567,13.15 42.986,13.08 
	42.401,13.023 41.813,12.979 41.223,12.947 40.627,12.927 40.028,12.921 39.441,12.927 38.857,12.946 38.276,12.977 37.699,13.02 
	37.125,13.074 36.554,13.142 35.987,13.22 35.425,13.31 34.866,13.412 34.311,13.525 33.76,13.649 33.214,13.784 32.672,13.931 
	32.135,14.088 31.603,14.256 31.074,14.435 30.551,14.624 30.033,14.823 29.521,15.033 29.013,15.253 28.511,15.482 28.015,15.722 
	27.524,15.971 27.039,16.23 26.56,16.499 26.086,16.777 25.62,17.064 25.158,17.36 24.704,17.666 24.602,17.737 40.271,33.406 
	55.739,17.938 55.598,17.836 55.139,17.52 54.672,17.213 54.199,16.917 53.721,16.629 "/>
<polygon fill-rule="evenodd" clip-rule="evenodd" fill="#0001FE" points="63.837,53.029 64.096,52.544 64.345,52.053 64.585,51.556 
	64.815,51.054 65.034,50.547 65.244,50.034 65.443,49.516 65.633,48.993 65.812,48.466 65.979,47.933 66.137,47.396 66.283,46.854 
	66.418,46.308 66.542,45.757 66.656,45.202 66.758,44.643 66.848,44.08 66.926,43.514 66.993,42.942 67.048,42.369 67.091,41.791 
	67.122,41.21 67.141,40.626 67.146,40.039 67.141,39.462 67.122,38.889 67.093,38.319 67.052,37.752 66.998,37.188 66.935,36.628 
	66.858,36.072 66.771,35.519 66.673,34.97 66.564,34.425 66.444,33.884 66.314,33.348 66.173,32.814 66.021,32.286 65.859,31.763 
	65.688,31.243 65.505,30.729 65.313,30.219 65.11,29.714 64.898,29.214 64.676,28.72 64.445,28.23 64.204,27.746 63.955,27.268 
	63.695,26.795 63.427,26.328 63.15,25.866 62.864,25.411 62.569,24.962 62.526,24.899 47.146,40.281 62.33,55.466 62.401,55.363 
	62.707,54.909 63.004,54.448 63.291,53.981 63.568,53.508 "/>
<polygon fill="none" stroke="#231F20" stroke-width="0.0216" stroke-miterlimit="22.9256" points="63.837,53.029 64.096,52.544 
	64.345,52.053 64.585,51.556 64.815,51.054 65.034,50.547 65.244,50.034 65.443,49.516 65.633,48.993 65.812,48.466 65.979,47.933 
	66.137,47.396 66.283,46.854 66.418,46.308 66.542,45.757 66.656,45.202 66.758,44.643 66.848,44.08 66.926,43.514 66.993,42.942 
	67.048,42.369 67.091,41.791 67.122,41.21 67.141,40.626 67.146,40.039 67.141,39.462 67.122,38.889 67.093,38.319 67.052,37.752 
	66.998,37.188 66.935,36.628 66.858,36.072 66.771,35.519 66.673,34.97 66.564,34.425 66.444,33.884 66.314,33.348 66.173,32.814 
	66.021,32.286 65.859,31.763 65.688,31.243 65.505,30.729 65.313,30.219 65.11,29.714 64.898,29.214 64.676,28.72 64.445,28.23 
	64.204,27.746 63.955,27.268 63.695,26.795 63.427,26.328 63.15,25.866 62.864,25.411 62.569,24.962 62.526,24.899 47.146,40.281 
	62.33,55.466 62.401,55.363 62.707,54.909 63.004,54.448 63.291,53.981 63.568,53.508 "/>
<polygon fill-rule="evenodd" clip-rule="evenodd" fill="#0001FE" points="16.221,27.049 15.961,27.534 15.712,28.025 15.473,28.521 
	15.243,29.023 15.022,29.531 14.813,30.044 14.614,30.562 14.425,31.085 14.247,31.612 14.078,32.145 13.921,32.682 13.775,33.224 
	13.639,33.771 13.515,34.321 13.402,34.876 13.3,35.435 13.21,35.998 13.131,36.564 13.064,37.135 13.009,37.708 12.966,38.286 
	12.936,38.867 12.917,39.451 12.911,40.039 12.917,40.637 12.937,41.232 12.969,41.824 13.013,42.412 13.07,42.997 13.14,43.577 
	13.221,44.154 13.314,44.727 13.42,45.295 13.537,45.86 13.667,46.42 13.807,46.976 13.958,47.526 14.122,48.073 14.295,48.614 
	14.48,49.15 14.676,49.682 14.883,50.208 15.1,50.728 15.328,51.243 15.566,51.753 15.814,52.256 16.073,52.754 16.341,53.245 
	16.619,53.73 16.906,54.209 17.203,54.683 17.51,55.148 17.826,55.607 17.928,55.749 33.396,40.281 17.728,24.612 17.655,24.714 
	17.35,25.168 17.054,25.629 16.767,26.096 16.489,26.57 "/>
<polygon fill="none" stroke="#231F20" stroke-width="0.0216" stroke-miterlimit="22.9256" points="16.221,27.049 15.961,27.534 
	15.712,28.025 15.473,28.521 15.243,29.023 15.022,29.531 14.813,30.044 14.614,30.562 14.425,31.085 14.247,31.612 14.078,32.145 
	13.921,32.682 13.775,33.224 13.639,33.771 13.515,34.321 13.402,34.876 13.3,35.435 13.21,35.998 13.131,36.564 13.064,37.135 
	13.009,37.708 12.966,38.286 12.936,38.867 12.917,39.451 12.911,40.039 12.917,40.637 12.937,41.232 12.969,41.824 13.013,42.412 
	13.07,42.997 13.14,43.577 13.221,44.154 13.314,44.727 13.42,45.295 13.537,45.86 13.667,46.42 13.807,46.976 13.958,47.526 
	14.122,48.073 14.295,48.614 14.48,49.15 14.676,49.682 14.883,50.208 15.1,50.728 15.328,51.243 15.566,51.753 15.814,52.256 
	16.073,52.754 16.341,53.245 16.619,53.73 16.906,54.209 17.203,54.683 17.51,55.148 17.826,55.607 17.928,55.749 33.396,40.281 
	17.728,24.612 17.655,24.714 17.35,25.168 17.054,25.629 16.767,26.096 16.489,26.57 "/>
<polygon fill-rule="evenodd" clip-rule="evenodd" fill="#0001FE" points="27.257,63.965 27.736,64.215 28.22,64.455 28.709,64.687 
	29.204,64.908 29.704,65.12 30.209,65.322 30.719,65.515 31.233,65.697 31.752,65.869 32.276,66.031 32.805,66.184 33.337,66.324 
	33.874,66.455 34.416,66.574 34.96,66.684 35.509,66.781 36.062,66.868 36.619,66.944 37.179,67.009 37.742,67.062 38.309,67.103 
	38.879,67.133 39.453,67.15 40.028,67.157 40.616,67.15 41.2,67.132 41.781,67.101 42.358,67.058 42.933,67.003 43.503,66.937 
	44.07,66.857 44.633,66.768 45.191,66.666 45.746,66.553 46.297,66.429 46.843,66.293 47.385,66.146 47.923,65.989 48.455,65.821 
	48.983,65.643 49.506,65.453 50.023,65.254 50.536,65.044 51.044,64.824 51.546,64.595 52.043,64.355 52.533,64.105 53.019,63.847 
	53.498,63.578 53.971,63.301 54.438,63.014 54.898,62.717 55.354,62.412 55.455,62.34 40.271,47.155 24.89,62.536 24.952,62.579 
	25.401,62.874 25.856,63.16 26.318,63.438 26.785,63.705 "/>
<polygon fill="none" stroke="#231F20" stroke-width="0.0216" stroke-miterlimit="22.9256" points="27.257,63.965 27.736,64.215 
	28.22,64.455 28.709,64.687 29.204,64.908 29.704,65.12 30.209,65.322 30.719,65.515 31.233,65.697 31.752,65.869 32.276,66.031 
	32.805,66.184 33.337,66.324 33.874,66.455 34.416,66.574 34.96,66.684 35.509,66.781 36.062,66.868 36.619,66.944 37.179,67.009 
	37.742,67.062 38.309,67.103 38.879,67.133 39.453,67.15 40.028,67.157 40.616,67.15 41.2,67.132 41.781,67.101 42.358,67.058 
	42.933,67.003 43.503,66.937 44.07,66.857 44.633,66.768 45.191,66.666 45.746,66.553 46.297,66.429 46.843,66.293 47.385,66.146 
	47.923,65.989 48.455,65.821 48.983,65.643 49.506,65.453 50.023,65.254 50.536,65.044 51.044,64.824 51.546,64.595 52.043,64.355 
	52.533,64.105 53.019,63.847 53.498,63.578 53.971,63.301 54.438,63.014 54.898,62.717 55.354,62.412 55.455,62.34 40.271,47.155 
	24.89,62.536 24.952,62.579 25.401,62.874 25.856,63.16 26.318,63.438 26.785,63.705 "/>
</svg>
