<?xml version="1.0" encoding="UTF-8"?>
<!DOCTYPE svg PUBLIC "-//W3C//DTD SVG 1.1//EN" "http://www.w3.org/Graphics/SVG/1.1/DTD/svg11.dtd">
<!-- Creator: CorelDRAW X6 -->
<svg xmlns="http://www.w3.org/2000/svg" xml:space="preserve" width="33.6429mm" height="33.6429mm" version="1.1" style="shape-rendering:geometricPrecision; text-rendering:geometricPrecision; image-rendering:optimizeQuality; fill-rule:evenodd; clip-rule:evenodd"
viewBox="0 0 312 312"
 xmlns:xlink="http://www.w3.org/1999/xlink">
 <defs>
  <style type="text/css">
   <![CDATA[
    .fil1 {fill:#0000FA}
    .fil0 {fill:red}
   ]]>
  </style>
 </defs>
 <g id="Layer_x0020_1">
  <metadata id="CorelCorpID_0Corel-Layer"/>
  <g id="_1081612464">
   <path class="fil0" d="M266 46c61,60 61,159 0,220 -61,61 -160,61 -220,0 -61,-61 -61,-160 0,-220 60,-61 159,-61 220,0zm-181 19l161 161c16,-19 25,-44 25,-70 0,-63 -52,-115 -115,-115 -27,0 -51,9 -71,24zm141 181l-161 -161c-15,20 -24,44 -24,71 0,63 52,115 115,115 26,0 51,-9 70,-25z"/>
   <polygon class="fil1" points="253,206 254,204 255,202 256,200 257,198 258,196 258,194 259,192 260,190 260,188 261,186 262,183 262,181 263,179 263,177 264,174 264,172 264,170 265,168 265,165 265,163 265,161 265,158 265,156 265,150 265,145 264,139 263,134 262,129 260,123 259,118 257,113 254,108 252,104 249,99 247,95 243,90 240,86 237,82 233,79 229,75 225,72 221,68 217,65 213,62 208,60 203,57 198,55 193,53 188,51 183,50 178,49 173,48 167,47 161,47 156,47 153,47 151,47 149,47 146,47 144,47 142,47 140,48 137,48 135,49 133,49 131,49 128,50 126,51 124,51 122,52 120,53 118,53 116,54 113,55 111,56 109,57 107,58 105,59 103,60 102,61 100,62 98,63 96,64 94,66 94,66 246,218 246,218 247,216 248,214 250,212 251,210 252,208 "/>
   <polygon class="fil1" points="59,105 58,107 57,109 56,111 55,114 54,116 53,118 53,120 52,122 51,124 51,126 50,128 49,131 49,133 49,135 48,137 48,140 47,142 47,144 47,146 47,149 47,151 47,153 47,156 47,161 47,167 48,173 49,178 50,183 51,188 53,193 55,198 57,203 60,208 62,213 65,217 68,221 72,225 75,229 79,233 82,237 86,240 90,243 95,247 99,249 104,252 108,254 113,257 118,259 123,260 129,262 134,263 139,264 145,265 150,265 156,265 158,265 161,265 163,265 165,265 168,265 170,264 172,264 174,264 177,263 179,263 181,262 183,262 186,261 188,260 190,260 192,259 194,258 196,258 198,257 200,256 202,255 204,254 206,253 208,252 210,251 212,250 214,248 216,247 218,246 218,246 66,94 66,94 64,96 63,98 62,100 61,102 60,103 "/>
  </g>
 </g>
</svg>
