<?xml version="1.0" encoding="utf-8"?>
<!-- Generator: Adobe Illustrator 16.0.0, SVG Export Plug-In . SVG Version: 6.00 Build 0)  -->
<!DOCTYPE svg PUBLIC "-//W3C//DTD SVG 1.1//EN" "http://www.w3.org/Graphics/SVG/1.1/DTD/svg11.dtd">
<svg version="1.1" id="Layer_1" xmlns="http://www.w3.org/2000/svg" xmlns:xlink="http://www.w3.org/1999/xlink" x="0px" y="0px"
	 width="80.021px" height="80.021px" viewBox="0 0 80.021 80.021" enable-background="new 0 0 80.021 80.021" xml:space="preserve">
<circle fill="none" stroke="#231F20" stroke-width="0.0216" stroke-miterlimit="22.9256" cx="40.01" cy="40.011" r="40"/>
<path fill-rule="evenodd" clip-rule="evenodd" d="M62.649,10.907c-0.908-0.706-1.843-1.365-2.797-1.976
	c-0.954-0.61-1.935-1.177-2.93-1.689c-0.995-0.512-2.014-0.978-3.043-1.394c-1.03-0.417-2.077-0.79-3.133-1.108
	s-2.129-0.593-3.207-0.815c-1.079-0.223-2.167-0.405-3.258-0.532c-1.087-0.127-2.189-0.211-3.285-0.243
	c-1.097-0.032-2.195-0.02-3.289,0.041c-1.094,0.061-2.187,0.177-3.273,0.333c-1.088,0.156-2.173,0.365-3.243,0.616
	c-1.07,0.252-2.135,0.555-3.185,0.902S25.919,5.785,24.9,6.228c-1.019,0.44-2.024,0.934-3.005,1.472s-1.946,1.125-2.884,1.755
	c-0.938,0.631-1.857,1.319-2.739,2.039c-0.883,0.72-1.759,1.501-2.577,2.313c-0.813,0.807-1.582,1.657-2.306,2.531
	c-0.723,0.873-1.402,1.781-2.027,2.709c-0.625,0.929-1.206,1.889-1.738,2.869S6.6,23.904,6.166,24.922s-0.827,2.062-1.168,3.118
	c-0.342,1.056-0.646,2.128-0.895,3.208c-0.249,1.079-0.457,2.177-0.61,3.273c-0.152,1.096-0.269,2.204-0.326,3.309
	c-0.062,1.105-0.07,2.218-0.041,3.323c0.029,1.104,0.113,2.221,0.237,3.323c0.125,1.102,0.304,2.204,0.521,3.291
	c0.218,1.088,0.483,2.173,0.796,3.236c0.31,1.065,0.68,2.121,1.081,3.153c0.402,1.032,0.859,2.056,1.357,3.051
	c0.497,0.994,1.047,1.972,1.64,2.924c0.593,0.951,1.231,1.88,1.918,2.779L62.649,10.907z M65.38,13.354
	c-0.317-0.385-0.856-0.899-1.377-1.267l-52.186,52.19c0.475,0.539,0.654,0.75,1.218,1.334L65.38,13.354z M67.902,15.934
	L15.708,68.131c-0.451-0.368-0.916-0.741-1.351-1.209C31.816,49.474,49.301,32,66.702,14.586
	C67.142,15.043,67.523,15.457,67.902,15.934z M69.039,17.339c0.7,0.888,1.359,1.81,1.961,2.747c0.602,0.938,1.172,1.909,1.678,2.893
	c0.509,0.983,0.975,1.995,1.389,3.019c0.413,1.024,0.786,2.068,1.104,3.124c0.318,1.053,0.593,2.129,0.816,3.208
	c0.222,1.079,0.404,2.169,0.528,3.259c0.128,1.09,0.208,2.192,0.243,3.294c0.035,1.102,0.026,2.207-0.035,3.306
	c-0.058,1.099-0.17,2.198-0.326,3.292c-0.156,1.093-0.361,2.183-0.613,3.259c-0.249,1.076-0.558,2.148-0.899,3.199
	c-0.342,1.05-0.737,2.097-1.177,3.118c-0.44,1.021-0.935,2.027-1.47,3.01c-0.535,0.983-1.123,1.949-1.75,2.884
	c-0.628,0.935-1.313,1.851-2.036,2.73c-0.724,0.879-1.502,1.743-2.317,2.56c-0.833,0.832-1.706,1.619-2.6,2.351
	c-0.895,0.732-1.825,1.426-2.774,2.06c-0.948,0.636-1.932,1.229-2.927,1.767c-0.995,0.538-2.022,1.042-3.058,1.483
	c-1.035,0.443-2.094,0.842-3.161,1.188c-1.067,0.348-2.152,0.654-3.239,0.903c-1.088,0.251-2.193,0.457-3.292,0.61
	c-1.1,0.152-2.213,0.269-3.32,0.326c-1.105,0.059-2.216,0.066-3.323,0.032c-1.108-0.035-2.216-0.116-3.31-0.243
	c-1.094-0.125-2.189-0.31-3.263-0.528c-1.072-0.221-2.149-0.498-3.196-0.813s-2.088-0.688-3.101-1.1
	c-1.012-0.41-2.016-0.873-2.985-1.376c-0.969-0.504-1.92-1.059-2.84-1.657s-1.813-1.247-2.676-1.938L69.039,17.339z M12.619,12.677
	c0.935-0.938,1.924-1.822,2.936-2.646c1.013-0.824,2.057-1.593,3.127-2.296c1.07-0.706,2.172-1.354,3.295-1.94
	c1.122-0.587,2.271-1.122,3.433-1.591c1.16-0.468,2.352-0.885,3.546-1.235c1.195-0.35,2.41-0.653,3.628-0.885
	c1.218-0.234,2.452-0.414,3.685-0.529s2.477-0.18,3.714-0.18c1.238,0,2.481,0.064,3.714,0.18s2.468,0.295,3.686,0.529
	c1.217,0.231,2.435,0.535,3.63,0.885c1.194,0.35,2.386,0.767,3.549,1.235c1.163,0.469,2.311,1.004,3.434,1.591
	c1.122,0.587,2.227,1.238,3.297,1.943c1.07,0.703,2.114,1.472,3.127,2.296s2.002,1.709,2.936,2.646
	c0.938,0.94,1.825,1.926,2.644,2.932c0.818,1.007,1.594,2.057,2.297,3.126c0.706,1.07,1.354,2.172,1.94,3.294
	c0.588,1.122,1.123,2.27,1.592,3.433c0.468,1.16,0.885,2.349,1.234,3.543c0.351,1.194,0.648,2.409,0.882,3.63
	c0.234,1.22,0.414,2.458,0.53,3.687c0.115,1.229,0.179,2.473,0.179,3.71c0,1.238-0.063,2.481-0.179,3.711
	c-0.116,1.229-0.296,2.467-0.53,3.687c-0.233,1.221-0.531,2.436-0.882,3.629c-0.35,1.195-0.767,2.384-1.234,3.546
	c-0.469,1.163-1.004,2.312-1.592,3.434c-0.587,1.122-1.234,2.227-1.94,3.297c-0.703,1.07-1.472,2.113-2.297,3.126
	c-0.824,1.013-1.709,2.001-2.646,2.936c-0.939,0.938-1.927,1.825-2.933,2.644c-1.007,0.818-2.057,1.594-3.127,2.296
	c-1.07,0.706-2.172,1.356-3.294,1.943c-1.123,0.587-2.271,1.122-3.434,1.591c-1.163,0.469-2.354,0.886-3.549,1.235
	s-2.409,0.653-3.627,0.885c-1.218,0.234-2.453,0.413-3.686,0.529c-1.231,0.115-2.476,0.18-3.714,0.18
	c-1.237,0-2.481-0.067-3.714-0.183c-1.232-0.116-2.467-0.295-3.685-0.529c-1.218-0.231-2.436-0.532-3.63-0.882
	c-1.195-0.35-2.387-0.767-3.547-1.232c-1.159-0.465-2.311-1-3.433-1.588c-1.122-0.587-2.225-1.234-3.295-1.94
	c-1.07-0.702-2.114-1.472-3.127-2.297c-1.013-0.823-2.001-1.708-2.936-2.646c-0.937-0.94-1.825-1.926-2.644-2.933
	c-0.818-1.006-1.594-2.057-2.297-3.127c-0.705-1.069-1.354-2.174-1.94-3.297c-0.587-1.121-1.122-2.27-1.591-3.433
	c-0.469-1.162-0.885-2.354-1.235-3.548c-0.35-1.195-0.653-2.413-0.885-3.63c-0.234-1.218-0.414-2.453-0.53-3.685
	c-0.115-1.232-0.179-2.476-0.179-3.713c0-1.237,0.066-2.481,0.183-3.713c0.115-1.232,0.295-2.467,0.529-3.685
	c0.231-1.217,0.532-2.435,0.882-3.629c0.351-1.194,0.767-2.386,1.232-3.546s1.001-2.311,1.588-3.433
	c0.587-1.122,1.234-2.227,1.94-3.297c0.703-1.07,1.473-2.114,2.297-3.126C10.797,14.601,11.679,13.617,12.619,12.677z"/>
<path fill="none" stroke="#000000" stroke-width="0.0216" stroke-miterlimit="22.9256" d="M62.649,10.907
	c-0.908-0.706-1.843-1.365-2.797-1.976c-0.954-0.61-1.935-1.177-2.93-1.689c-0.995-0.512-2.014-0.978-3.043-1.394
	c-1.03-0.416-2.076-0.789-3.133-1.107c-1.056-0.318-2.129-0.593-3.207-0.815c-1.079-0.223-2.167-0.405-3.258-0.532
	c-1.087-0.127-2.189-0.211-3.285-0.243c-1.097-0.032-2.195-0.02-3.289,0.041c-1.094,0.061-2.187,0.177-3.273,0.333
	c-1.088,0.156-2.173,0.365-3.243,0.616s-2.135,0.555-3.185,0.902S25.919,5.785,24.9,6.228c-1.019,0.44-2.024,0.934-3.005,1.472
	s-1.946,1.125-2.884,1.755c-0.938,0.631-1.857,1.319-2.739,2.039c-0.883,0.72-1.759,1.501-2.577,2.313
	c-0.813,0.807-1.582,1.657-2.306,2.531c-0.723,0.874-1.402,1.782-2.027,2.71s-1.206,1.889-1.738,2.869S6.6,23.904,6.166,24.922
	s-0.827,2.062-1.168,3.118c-0.342,1.056-0.646,2.128-0.895,3.208c-0.249,1.079-0.457,2.177-0.61,3.273
	c-0.152,1.096-0.269,2.204-0.326,3.309c-0.062,1.105-0.07,2.218-0.041,3.323c0.029,1.104,0.113,2.221,0.237,3.323
	c0.125,1.102,0.304,2.204,0.521,3.291c0.218,1.088,0.483,2.173,0.796,3.236c0.31,1.065,0.68,2.121,1.081,3.153
	c0.402,1.031,0.859,2.056,1.357,3.051c0.497,0.994,1.047,1.972,1.64,2.924c0.593,0.951,1.231,1.88,1.918,2.779L62.649,10.907z
	 M65.38,13.354c-0.317-0.385-0.856-0.899-1.376-1.267l-52.187,52.19c0.475,0.539,0.654,0.75,1.218,1.334L65.38,13.354z
	 M67.902,15.934L15.708,68.131c-0.451-0.368-0.916-0.741-1.351-1.209C31.816,49.474,49.302,32,66.702,14.586
	C67.142,15.043,67.523,15.457,67.902,15.934z M69.039,17.339c0.7,0.888,1.359,1.81,1.961,2.747c0.602,0.938,1.172,1.909,1.678,2.893
	c0.509,0.983,0.975,1.995,1.389,3.019c0.413,1.024,0.786,2.068,1.104,3.124c0.318,1.053,0.593,2.129,0.816,3.207
	c0.222,1.079,0.404,2.169,0.528,3.26c0.128,1.09,0.208,2.192,0.243,3.294c0.035,1.102,0.026,2.207-0.035,3.306
	c-0.058,1.099-0.17,2.198-0.326,3.292c-0.156,1.093-0.361,2.183-0.613,3.259c-0.249,1.076-0.558,2.148-0.899,3.199
	c-0.341,1.05-0.737,2.097-1.177,3.118c-0.44,1.021-0.935,2.027-1.47,3.01c-0.535,0.983-1.123,1.949-1.75,2.884
	c-0.628,0.935-1.313,1.851-2.036,2.73c-0.723,0.879-1.501,1.743-2.317,2.56c-0.833,0.832-1.706,1.619-2.6,2.351
	c-0.895,0.732-1.825,1.426-2.774,2.06c-0.948,0.636-1.932,1.229-2.927,1.767c-0.995,0.538-2.022,1.041-3.058,1.483
	c-1.035,0.443-2.094,0.842-3.161,1.188c-1.067,0.348-2.152,0.654-3.239,0.903c-1.088,0.251-2.193,0.457-3.292,0.61
	c-1.099,0.152-2.213,0.269-3.32,0.326c-1.105,0.059-2.216,0.066-3.323,0.032c-1.108-0.035-2.216-0.116-3.31-0.243
	c-1.093-0.125-2.189-0.31-3.263-0.529c-1.072-0.22-2.149-0.497-3.196-0.813s-2.088-0.688-3.101-1.1
	c-1.012-0.41-2.016-0.873-2.985-1.376c-0.969-0.504-1.92-1.059-2.84-1.657s-1.813-1.247-2.676-1.938L69.039,17.339z M12.619,12.677
	c0.935-0.938,1.924-1.822,2.936-2.646c1.013-0.824,2.057-1.593,3.127-2.296c1.07-0.706,2.172-1.354,3.295-1.94
	c1.122-0.587,2.271-1.122,3.433-1.591c1.16-0.468,2.352-0.885,3.547-1.235c1.194-0.35,2.409-0.653,3.627-0.885
	c1.218-0.234,2.452-0.414,3.685-0.529s2.477-0.18,3.714-0.18c1.238,0,2.481,0.064,3.714,0.18s2.468,0.295,3.686,0.529
	c1.217,0.231,2.435,0.535,3.63,0.885c1.194,0.35,2.386,0.767,3.549,1.235c1.163,0.469,2.311,1.004,3.434,1.591
	c1.122,0.587,2.227,1.238,3.297,1.943c1.07,0.703,2.114,1.472,3.127,2.296s2.002,1.709,2.936,2.646
	c0.938,0.94,1.825,1.926,2.644,2.932c0.818,1.007,1.594,2.057,2.297,3.126c0.706,1.07,1.354,2.172,1.941,3.294
	c0.587,1.122,1.122,2.27,1.591,3.433c0.468,1.16,0.885,2.349,1.234,3.543c0.351,1.194,0.648,2.409,0.883,3.63
	c0.234,1.22,0.413,2.458,0.529,3.687c0.115,1.229,0.179,2.473,0.179,3.71c0,1.238-0.063,2.481-0.179,3.711
	c-0.116,1.229-0.295,2.467-0.529,3.687c-0.234,1.221-0.532,2.436-0.883,3.629c-0.35,1.195-0.767,2.384-1.234,3.546
	c-0.469,1.163-1.004,2.311-1.591,3.434c-0.588,1.121-1.235,2.227-1.941,3.297c-0.703,1.07-1.472,2.113-2.297,3.126
	c-0.824,1.013-1.709,2.001-2.646,2.936c-0.939,0.938-1.927,1.825-2.933,2.644c-1.007,0.818-2.057,1.594-3.127,2.296
	c-1.07,0.706-2.172,1.356-3.294,1.943c-1.123,0.587-2.271,1.122-3.434,1.591c-1.163,0.469-2.354,0.886-3.549,1.235
	s-2.409,0.653-3.627,0.885c-1.218,0.234-2.453,0.413-3.686,0.529c-1.231,0.115-2.476,0.179-3.714,0.179
	c-1.237,0-2.481-0.066-3.714-0.182c-1.232-0.116-2.467-0.295-3.685-0.529c-1.218-0.231-2.436-0.532-3.63-0.882
	c-1.195-0.35-2.387-0.767-3.547-1.232c-1.159-0.465-2.311-1.001-3.433-1.588s-2.225-1.234-3.295-1.94
	c-1.07-0.702-2.114-1.472-3.127-2.297c-1.013-0.823-2.001-1.708-2.936-2.646c-0.937-0.94-1.825-1.926-2.644-2.933
	c-0.818-1.006-1.594-2.057-2.297-3.127c-0.705-1.07-1.354-2.174-1.94-3.297c-0.587-1.121-1.122-2.27-1.591-3.433
	c-0.469-1.162-0.885-2.354-1.235-3.548c-0.35-1.195-0.653-2.413-0.885-3.63c-0.234-1.217-0.414-2.453-0.53-3.685
	c-0.115-1.232-0.179-2.476-0.179-3.713c0-1.237,0.066-2.481,0.183-3.713c0.115-1.232,0.295-2.467,0.529-3.685
	c0.231-1.217,0.532-2.435,0.882-3.629c0.351-1.194,0.767-2.386,1.232-3.546s1.001-2.311,1.588-3.433
	c0.587-1.123,1.234-2.227,1.94-3.297c0.703-1.07,1.473-2.114,2.297-3.126C10.797,14.601,11.679,13.617,12.619,12.677z"/>
</svg>
