<?xml version="1.0" encoding="UTF-8"?>
<!DOCTYPE svg PUBLIC "-//W3C//DTD SVG 1.1//EN" "http://www.w3.org/Graphics/SVG/1.1/DTD/svg11.dtd">
<!-- Creator: CorelDRAW X6 -->
<svg xmlns="http://www.w3.org/2000/svg" xml:space="preserve" width="38.3501mm" height="38.3501mm" version="1.1" style="shape-rendering:geometricPrecision; text-rendering:geometricPrecision; image-rendering:optimizeQuality; fill-rule:evenodd; clip-rule:evenodd"
viewBox="0 0 765 765"
 xmlns:xlink="http://www.w3.org/1999/xlink">
 <defs>
  <style type="text/css">
   <![CDATA[
    .fil0 {fill:#212220}
    .fil1 {fill:red}
   ]]>
  </style>
 </defs>
 <g id="Layer_x0020_1">
  <metadata id="CorelCorpID_0Corel-Layer"/>
  <path class="fil0" d="M187 546c-3,17 -19,28 -36,25 -15,-3 -25,-15 -25,-30l0 -26c0,-17 14,-31 31,-31 15,0 28,11 30,25l-13 0c-3,-9 -13,-14 -22,-11 -7,2 -12,9 -12,17l0 26c0,10 8,18 18,18 8,0 14,-5 17,-12l13 0z"/>
  <path class="fil0" d="M201 485l13 0 0 56c0,10 8,18 18,18 10,0 18,-8 18,-18l0 -56 13 0 0 56c0,17 -14,31 -31,31 -17,0 -31,-14 -31,-31l0 -56z"/>
  <path class="fil0" d="M273 560l8 -10c9,8 21,11 33,8 6,-2 10,-8 8,-14 -1,-5 -5,-8 -10,-9l-14 -2c-13,-2 -23,-14 -21,-28 1,-11 10,-20 21,-21 12,-1 24,2 34,8l-7 11c-7,-5 -17,-7 -25,-6 -6,1 -11,6 -10,13 1,5 5,9 10,10l14 2c13,2 23,14 21,28 -1,10 -9,18 -18,21 -16,4 -32,0 -44,-10z"/>
  <polygon class="fil0" points="366,571 366,496 342,496 342,485 403,485 403,496 379,496 379,571 "/>
  <path class="fil0" d="M409 541l0 -26c0,-17 14,-31 31,-31 17,0 31,14 31,31l0 26c0,17 -14,31 -31,31 -17,0 -31,-14 -31,-31zm13 0c0,10 8,18 18,18 10,0 18,-8 18,-18l0 -26c0,-10 -8,-18 -18,-18 -10,0 -18,8 -18,18l0 26z"/>
  <polygon class="fil0" points="488,571 488,485 500,485 525,541 549,485 561,485 561,571 548,571 548,516 530,558 519,558 501,516 501,571 "/>
  <path class="fil0" d="M575 560l8 -10c9,8 21,11 33,8 6,-2 10,-8 8,-14 -1,-5 -5,-8 -10,-9l-14 -2c-13,-2 -23,-14 -21,-28 1,-11 10,-20 21,-21 12,-1 24,2 34,8l-7 11c-7,-5 -17,-7 -25,-6 -6,1 -11,6 -10,13 1,5 5,9 10,10l14 2c13,2 23,14 21,28 -1,10 -9,18 -18,21 -16,4 -32,0 -44,-10z"/>
  <polygon class="fil0" points="216,281 216,193 228,193 253,250 278,193 291,193 291,281 278,281 278,225 259,268 248,268 229,225 229,281 "/>
  <path class="fil0" d="M310 193l13 0 0 57c0,10 8,18 18,18 10,0 18,-8 18,-18l0 -57 13 0 0 57c0,17 -14,31 -31,31 -17,0 -31,-14 -31,-31l0 -57z"/>
  <polygon class="fil0" points="391,281 391,193 404,193 404,281 "/>
  <polygon class="fil0" points="441,281 441,205 417,205 417,193 479,193 479,205 454,205 454,281 "/>
  <path class="fil0" d="M474 281l32 -88 11 0 32 88 -14 0 -7 -20 -34 0 -7 20 -14 0zm25 -31l26 0 -13 -38 -13 38z"/>
  <path class="fil0" d="M90 384c0,-25 17,-49 49,-50l485 0c31,0 49,25 50,48 0,27 -20,50 -50,50l-485 0c-33,0 -50,-25 -49,-48z"/>
  <path class="fil1" d="M382 0c211,0 382,171 382,382 0,211 -171,382 -382,382 -211,0 -382,-171 -382,-382 0,-211 171,-382 382,-382zm0 48c184,0 334,150 334,334 0,184 -150,334 -334,334 -184,0 -334,-150 -334,-334 0,-184 150,-334 334,-334z"/>
 </g>
</svg>
