<?xml version="1.0" encoding="UTF-8"?>
<!DOCTYPE svg PUBLIC "-//W3C//DTD SVG 1.1//EN" "http://www.w3.org/Graphics/SVG/1.1/DTD/svg11.dtd">
<!-- Creator: CorelDRAW X6 -->
<svg xmlns="http://www.w3.org/2000/svg" xml:space="preserve" width="33.67mm" height="33.67mm" version="1.1" style="shape-rendering:geometricPrecision; text-rendering:geometricPrecision; image-rendering:optimizeQuality; fill-rule:evenodd; clip-rule:evenodd"
viewBox="0 0 1327 1327"
 xmlns:xlink="http://www.w3.org/1999/xlink">
 <defs>
  <style type="text/css">
   <![CDATA[
    .fil1 {fill:#212220}
    .fil0 {fill:red}
   ]]>
  </style>
 </defs>
 <g id="Layer_x0020_1">
  <metadata id="CorelCorpID_0Corel-Layer"/>
  <path class="fil0" d="M664 0c366,0 664,297 664,664 0,366 -297,664 -664,664 -366,0 -664,-297 -664,-664 0,-366 297,-664 664,-664zm0 84c320,0 580,260 580,580 0,320 -260,580 -580,580 -320,0 -580,-260 -580,-580 0,-320 260,-580 580,-580z"/>
  <path class="fil1" d="M157 666c0,-43 29,-86 85,-87l842 0c54,0 86,43 86,84 -1,47 -34,87 -87,87l-841 0c-58,-1 -86,-43 -86,-84z"/>
  <path class="fil1" d="M256 991l0 -148 58 0c25,0 45,20 45,45 0,25 -20,45 -45,45l-36 0 0 58 -23 0zm23 -80l34 0c13,0 24,-11 24,-24 0,-13 -11,-24 -24,-24l-34 0 0 48z"/>
  <path class="fil1" d="M381 939l0 -45c0,-29 24,-53 53,-53 29,0 53,24 53,53l0 45c0,29 -24,53 -53,53 -29,0 -53,-24 -53,-53zm23 0c0,17 14,30 30,30 17,0 30,-14 30,-30l0 -45c0,-17 -14,-30 -30,-30 -17,0 -30,14 -30,30l0 45z"/>
  <polygon class="fil1" points="516,991 516,842 538,842 538,969 611,969 611,991 "/>
  <polygon class="fil1" points="632,991 632,842 655,842 655,991 "/>
  <path class="fil1" d="M789 948c-5,29 -33,48 -61,43 -25,-5 -44,-27 -44,-52l0 -45c0,-29 24,-53 53,-53 26,0 48,18 52,44l-23 0c-5,-16 -22,-25 -38,-20 -13,4 -21,16 -21,29l0 45c0,17 14,30 31,30 13,0 25,-9 29,-21l23 0z"/>
  <polygon class="fil1" points="816,991 816,842 838,842 838,991 "/>
  <path class="fil1" d="M921 842l23 0 0 102c0,26 -21,48 -48,48 -15,0 -29,-7 -38,-19l18 -13c8,11 24,14 35,5 6,-5 10,-12 10,-20l0 -102z"/>
  <path class="fil1" d="M956 991l54 -148 19 0 54 148 -24 0 -11 -33 -57 0 -11 33 -24 0zm42 -53l44 0 -22 -65 -22 65z"/>
  <path class="fil1" d="M427 466l15 -17c16,13 37,18 56,13 11,-3 17,-13 14,-24 -2,-8 -9,-14 -17,-15l-24 -3c-23,-3 -39,-24 -36,-47 3,-19 18,-34 37,-36 21,-3 42,3 59,15l-13 18c-13,-9 -28,-13 -44,-11 -11,1 -19,11 -17,22 1,9 8,16 17,17l24 3c23,3 39,24 36,47 -2,17 -15,31 -32,36 -27,7 -55,0 -76,-18z"/>
  <polygon class="fil1" points="587,485 587,357 546,357 546,337 651,337 651,357 610,357 610,485 "/>
  <path class="fil1" d="M661 434l0 -45c0,-29 24,-53 53,-53 29,0 53,24 53,53l0 45c0,29 -24,53 -53,53 -29,0 -53,-24 -53,-53zm22 0c0,17 14,30 30,30 17,0 30,-14 30,-30l0 -45c0,-17 -14,-30 -30,-30 -17,0 -30,14 -30,30l0 45z"/>
  <path class="fil1" d="M796 485l0 -148 58 0c25,0 45,20 45,45 0,25 -20,45 -45,45l-36 0 0 58 -22 0zm22 -79l34 0c13,0 24,-11 24,-24 0,-13 -11,-24 -24,-24l-34 0 0 48z"/>
 </g>
</svg>
