<?xml version="1.0" encoding="UTF-8"?>
<!DOCTYPE svg PUBLIC "-//W3C//DTD SVG 1.1//EN" "http://www.w3.org/Graphics/SVG/1.1/DTD/svg11.dtd">
<!-- Creator: CorelDRAW X6 -->
<svg xmlns="http://www.w3.org/2000/svg" xml:space="preserve" width="33.67mm" height="33.67mm" version="1.1" style="shape-rendering:geometricPrecision; text-rendering:geometricPrecision; image-rendering:optimizeQuality; fill-rule:evenodd; clip-rule:evenodd"
viewBox="0 0 5893 5893"
 xmlns:xlink="http://www.w3.org/1999/xlink">
 <defs>
  <style type="text/css">
   <![CDATA[
    .fil1 {fill:#212220}
    .fil0 {fill:red}
   ]]>
  </style>
 </defs>
 <g id="Layer_x0020_1">
  <metadata id="CorelCorpID_0Corel-Layer"/>
  <path class="fil0" d="M2947 0c1627,0 2947,1319 2947,2947 0,1627 -1319,2947 -2947,2947 -1627,0 -2947,-1319 -2947,-2947 0,-1627 1319,-2947 2947,-2947zm0 373c1421,0 2574,1153 2574,2574 0,1421 -1153,2574 -2574,2574 -1421,0 -2574,-1153 -2574,-2574 0,-1421 1153,-2574 2574,-2574z"/>
  <path class="fil1" d="M696 3016c-2,-192 130,-380 378,-384l3739 1c241,0 381,190 384,372 -3,210 -151,386 -386,386l-3735 -1c-255,-2 -383,-192 -380,-373z"/>
  <path class="fil1" d="M1211 4475l0 -676 242 0c133,0 242,108 242,242l0 193c0,133 -108,242 -242,242l-242 0zm103 -97l139 0c77,0 139,-62 139,-139l0 -205c0,-77 -62,-139 -139,-139l-139 0 0 483z"/>
  <path class="fil1" d="M1754 4475l248 -676 85 0 248 676 -109 0 -51 -151 -261 0 -51 151 -109 0zm190 -242l200 0 -100 -296 -100 296z"/>
  <polygon class="fil1" points="2431,4475 2431,3799 2527,3799 2835,4282 2835,3799 2938,3799 2938,4475 2842,4475 2533,3992 2533,4475 "/>
  <path class="fil1" d="M3554 4100l0 139c0,133 -108,242 -242,242 -133,0 -242,-108 -242,-242l0 -205c0,-134 108,-242 242,-242 117,0 217,84 238,199l-105 0c-23,-73 -102,-114 -175,-90 -58,18 -97,72 -97,132l0 205c0,77 62,139 139,139 77,0 139,-62 139,-139l0 -42 -139 0 0 -97 242 0z"/>
  <polygon class="fil1" points="3687,4475 3687,3799 4122,3799 4122,3895 3790,3895 3790,4088 4074,4088 4074,4179 3790,4179 3790,4378 4122,4378 4122,4475 "/>
  <path class="fil1" d="M4255 4475l0 -676 278 0c107,0 193,87 193,193 0,83 -53,157 -131,183l155 300 -121 0 -139 -290 -133 0 0 290 -103 0zm103 -381l169 0c57,0 103,-46 103,-103 0,-57 -46,-103 -103,-103l-169 0 0 205z"/>
  <path class="fil1" d="M1293 2231l0 -675 277 0c100,0 181,81 181,181 0,59 -29,114 -77,148 88,54 116,169 61,257 -34,56 -94,89 -159,89l-283 0zm102 -97l169 0c56,0 102,-46 102,-102 0,-57 -46,-103 -102,-103l-169 0 0 204zm0 -295l163 0c53,0 96,-43 96,-96 0,-53 -43,-96 -96,-96l-163 0 0 193z"/>
  <polygon class="fil1" points="1896,2231 1896,1556 1998,1556 1998,2231 "/>
  <path class="fil1" d="M2107 2144l66 -78c71,60 167,82 257,60 48,-12 77,-61 66,-109 -9,-36 -39,-63 -76,-68l-109 -15c-106,-14 -181,-111 -166,-217 11,-87 80,-155 168,-166 95,-11 191,12 270,67l-58 84c-58,-40 -129,-57 -200,-49 -50,6 -85,51 -79,101 5,41 37,73 77,79l110 15c105,14 179,111 166,216 -11,79 -68,142 -145,162 -122,31 -252,1 -348,-81z"/>
  <polygon class="fil1" points="2836,2231 2836,1647 2649,1647 2649,1556 3125,1556 3125,1647 2938,1647 2938,2231 "/>
  <path class="fil1" d="M3089 2231l247 -675 84 0 247 675 -109 0 -50 -151 -260 0 -51 151 -109 0zm190 -241l199 0 -100 -295 -99 295z"/>
  <polygon class="fil1" points="3763,2231 3763,1556 3860,1556 4053,1996 4245,1556 4342,1556 4342,2231 4239,2231 4239,1803 4095,2135 4011,2135 3866,1803 3866,2231 "/>
  <polygon class="fil1" points="4498,2231 4498,1556 4601,1556 4601,2231 "/>
  <polygon class="fil1" points="1820,1412 2083,1412 2083,1473 1820,1473 "/>
 </g>
</svg>
