<?xml version="1.0" encoding="UTF-8"?>
<!DOCTYPE svg PUBLIC "-//W3C//DTD SVG 1.1//EN" "http://www.w3.org/Graphics/SVG/1.1/DTD/svg11.dtd">
<!-- Creator: CorelDRAW X6 -->
<svg xmlns="http://www.w3.org/2000/svg" xml:space="preserve" width="42.3mm" height="20.528mm" version="1.1" style="shape-rendering:geometricPrecision; text-rendering:geometricPrecision; image-rendering:optimizeQuality; fill-rule:evenodd; clip-rule:evenodd"
viewBox="0 0 875 425"
 xmlns:xlink="http://www.w3.org/1999/xlink">
 <defs>
  <style type="text/css">
   <![CDATA[
    .fil0 {fill:#212220}
    .fil1 {fill:#212220;fill-rule:nonzero}
   ]]>
  </style>
 </defs>
 <g id="Layer_x0020_1">
  <metadata id="CorelCorpID_0Corel-Layer"/>
  <path class="fil0" d="M0 379l0 2 0 2 0 2 0 2 1 2 1 2 1 2 1 2 1 2 1 2 1 2 1 2 1 2 1 2 1 2 1 2 2 1 2 1 2 1 2 1 2 1 2 1 2 1 2 1 2 1 2 1 2 1 2 1 2 0 2 0 2 0 2 0 784 0 2 0 2 0 2 0 2 0 2 -1 2 -1 2 -1 2 -1 2 -1 2 -1 2 -1 2 -1 2 -1 2 -1 2 -1 2 -1 1 -2 1 -2 1 -2 1 -2 1 -2 1 -2 1 -2 1 -2 1 -2 1 -2 1 -2 1 -2 0 -2 0 -2 0 -2 0 -2 0 -334 0 -2 0 -2 0 -2 0 -2 -1 -2 -1 -2 -1 -2 -1 -2 -1 -2 -1 -2 -1 -2 -1 -2 -1 -2 -1 -2 -1 -2 -1 -2 -2 -1 -2 -1 -2 -1 -2 -1 -2 -1 -2 -1 -2 -1 -2 -1 -2 -1 -2 -1 -2 -1 -2 -1 -2 0 -2 0 -2 0 -2 0 -784 0 -2 0 -2 0 -2 0 -2 0 -2 1 -2 1 -2 1 -2 1 -2 1 -2 1 -2 1 -2 1 -2 1 -2 1 -2 1 -2 1 -1 2 -1 2 -1 2 -1 2 -1 2 -1 2 -1 2 -1 2 -1 2 -1 2 -1 2 -1 2 0 2 0 2 0 2 0 2 0 334zm13 0l0 2 0 2 0 2 0 2 0 2 0 2 1 1 1 1 1 1 1 1 1 1 1 1 1 1 1 1 1 1 1 1 1 1 1 1 1 1 1 1 1 1 1 1 1 1 1 1 1 1 1 1 2 0 2 0 2 0 2 0 2 0 2 0 784 0 2 0 2 0 2 0 2 0 2 0 2 0 1 -1 1 -1 1 -1 1 -1 1 -1 1 -1 1 -1 1 -1 1 -1 1 -1 1 -1 1 -1 1 -1 1 -1 1 -1 1 -1 1 -1 1 -1 1 -1 1 -1 0 -2 0 -2 0 -2 0 -2 0 -2 0 -2 0 -334 0 -2 0 -2 0 -2 0 -2 0 -2 0 -2 -1 -1 -1 -1 -1 -1 -1 -1 -1 -1 -1 -1 -1 -1 -1 -1 -1 -1 -1 -1 -1 -1 -1 -1 -1 -1 -1 -1 -1 -1 -1 -1 -1 -1 -1 -1 -1 -1 -1 -1 -2 0 -2 0 -2 0 -2 0 -2 0 -2 0 -784 0 -2 0 -2 0 -2 0 -2 0 -2 0 -2 0 -1 1 -1 1 -1 1 -1 1 -1 1 -1 1 -1 1 -1 1 -1 1 -1 1 -1 1 -1 1 -1 1 -1 1 -1 1 -1 1 -1 1 -1 1 -1 1 -1 1 0 2 0 2 0 2 0 2 0 2 0 2 0 334z"/>
  <path class="fil1" d="M578 302l0 -95 19 0 0 10 0 0c6,-8 14,-11 25,-11 7,0 12,1 16,4 4,2 8,5 11,9 8,-8 18,-12 30,-12 7,0 15,3 21,8 7,6 10,14 10,25l0 63 -19 0 0 -57c0,-6 -2,-11 -5,-15 -4,-4 -8,-5 -13,-5 -6,0 -10,2 -14,5 -4,4 -5,9 -5,15l0 57 -19 0 0 -57c0,-6 -2,-11 -5,-15 -4,-4 -8,-5 -13,-5 -5,0 -10,2 -14,5 -4,4 -5,9 -5,15l0 57 -19 0zm-150 -51l0 -77c0,-16 5,-28 15,-37 10,-9 21,-13 34,-13 13,0 24,4 34,13 10,9 15,21 15,37l0 77c0,16 -5,28 -15,37 -10,9 -22,13 -34,13 -13,0 -24,-4 -34,-13 -10,-9 -15,-21 -15,-37zm74 -1l0 -74c0,-8 -2,-15 -7,-20 -4,-5 -10,-7 -18,-7 -7,0 -13,2 -18,7 -4,5 -7,11 -7,20l0 74c0,8 2,15 7,20 4,5 10,7 18,7 7,0 13,-2 18,-7 5,-5 7,-11 7,-20zm-206 2l0 -76c0,-16 5,-28 15,-37 10,-9 21,-13 34,-13 13,0 24,4 34,13 10,9 15,21 15,37l0 76c0,16 -5,28 -15,37 -10,9 -21,13 -34,13 -13,0 -24,-4 -34,-13 -10,-9 -15,-21 -15,-37zm74 -1l0 -74c0,-8 -2,-15 -7,-20 -4,-5 -10,-7 -18,-7 -7,0 -13,2 -18,7 -4,5 -7,11 -7,20l0 74c0,8 2,15 7,20 4,5 10,7 18,7 7,0 13,-2 18,-7 5,-5 7,-11 7,-20zm-167 -29l0 -22 9 0c8,0 15,-2 20,-7 5,-5 7,-11 7,-18 0,-7 -3,-13 -8,-18 -5,-5 -11,-7 -18,-7 -5,0 -10,2 -15,5 -5,4 -8,9 -9,16l-25 0c1,-12 6,-23 16,-32 9,-9 20,-14 33,-14 16,0 28,5 38,16 9,10 14,22 14,35 0,7 -1,13 -4,20 -3,6 -8,12 -15,17 7,5 13,11 16,17 3,7 5,14 5,21 0,16 -5,29 -15,39 -10,10 -23,15 -38,15 -12,0 -23,-4 -32,-12 -10,-8 -15,-19 -18,-34l25 0c2,6 5,11 9,15 4,4 10,6 17,6 7,0 13,-2 19,-7 5,-5 8,-12 8,-20 0,-9 -3,-16 -8,-21 -5,-5 -12,-7 -19,-7l-11 0z"/>
 </g>
</svg>
