<?xml version="1.0" encoding="UTF-8"?>
<!DOCTYPE svg PUBLIC "-//W3C//DTD SVG 1.1//EN" "http://www.w3.org/Graphics/SVG/1.1/DTD/svg11.dtd">
<!-- Creator: CorelDRAW X6 -->
<svg xmlns="http://www.w3.org/2000/svg" xml:space="preserve" width="42.3762mm" height="42.3762mm" version="1.1" style="shape-rendering:geometricPrecision; text-rendering:geometricPrecision; image-rendering:optimizeQuality; fill-rule:evenodd; clip-rule:evenodd"
viewBox="0 0 881 881"
 xmlns:xlink="http://www.w3.org/1999/xlink">
 <defs>
  <style type="text/css">
   <![CDATA[
    .str0 {stroke:#2B2A29;stroke-width:1.5846}
    .fil0 {fill:#212220}
    .fil1 {fill:#212220;fill-rule:nonzero}
   ]]>
  </style>
 </defs>
 <g id="Layer_x0020_1">
  <metadata id="CorelCorpID_0Corel-Layer"/>
  <path class="fil0 str0" d="M837 880l2 0 2 0 2 0 2 -1 2 -1 2 -1 2 -1 2 -1 2 -1 2 -1 2 -1 2 -1 2 -1 2 -1 2 -2 2 -2 1 -2 1 -2 1 -2 1 -2 1 -2 1 -2 1 -2 1 -2 1 -2 1 -2 1 -2 0 -2 0 -2 0 -2 0 -2 0 -789 0 -3 0 -2 0 -2 0 -2 -1 -2 -1 -2 -1 -2 -1 -2 -1 -2 -1 -2 -1 -2 -1 -2 -1 -2 -1 -2 -1 -2 -2 -2 -2 -2 -2 -1 -2 -1 -2 -1 -2 -1 -2 -1 -2 -1 -2 -1 -2 -1 -2 -1 -2 -1 -2 -1 -2 0 -2 0 -2 0 -3 0 -789 0 -3 0 -2 0 -2 0 -2 0 -2 1 -2 1 -2 1 -2 1 -2 1 -2 1 -2 1 -2 1 -2 1 -2 1 -2 1 -2 1 -1 2 -1 2 -1 2 -1 2 -1 2 -1 2 -1 2 -1 2 -1 2 -1 2 -1 2 -1 2 0 2 0 2 0 2 0 3 0 789 0 3 0 2 0 2 0 2 1 2 1 2 1 2 1 2 1 2 1 2 1 2 1 2 1 2 1 2 1 2 2 2 2 2 2 1 2 1 2 1 2 1 2 1 2 1 2 1 2 1 2 1 2 1 2 1 2 0 2 0 2 0 3 0 789 0 2 0zm-1 -13l2 0 2 0 2 0 2 0 2 0 1 -1 1 -1 1 -1 1 -1 1 -1 1 -1 1 -1 1 -1 1 -1 1 -1 1 -1 1 -1 1 -1 1 -1 1 -1 1 -1 1 -1 1 -1 1 -1 1 -1 0 -2 0 -2 0 -2 0 -2 0 -2 0 -2 0 -788 0 -2 0 -2 0 -2 0 -2 0 -2 0 -2 -1 -1 -1 -1 -1 -1 -1 -1 -1 -1 -1 -1 -1 -1 -1 -1 -1 -1 -1 -1 -1 -1 -1 -1 -1 -1 -1 -1 -1 -1 -1 -1 -1 -1 -1 -1 -1 -1 -1 -1 -2 0 -2 0 -2 0 -2 0 -2 0 -2 0 -788 0 -2 0 -2 0 -2 0 -2 0 -2 0 -2 0 -1 1 -1 1 -1 1 -1 1 -1 1 -1 1 -1 1 -1 1 -1 1 -1 1 -1 1 -1 1 -1 1 -1 1 -1 1 -1 1 -1 1 -1 1 -1 1 -1 1 0 2 0 2 0 2 0 2 0 2 0 2 0 788 0 2 0 2 0 2 0 2 0 2 0 2 1 1 1 1 1 1 1 1 1 1 1 1 1 1 1 1 1 1 1 1 1 1 1 1 1 1 1 1 1 1 1 1 1 1 1 1 1 1 1 1 2 0 2 0 2 0 2 0 2 0 2 0 789 0 2 0z"/>
  <path class="fil0" d="M595 700l0 -97 19 0 0 11c11,-14 32,-16 46,-5 2,2 4,4 6,6 13,-16 36,-18 51,-5 8,7 13,17 13,28l0 62 -19 0 0 -59c0,-11 -9,-19 -19,-19 -11,0 -19,9 -19,19l0 59 -19 0 0 -59c0,-11 -9,-19 -19,-19 -11,0 -19,9 -19,19l0 59 -19 0z"/>
  <path class="fil1" d="M200 703l0 -155 -26 19 0 -28 26 -19 26 0 0 183 -26 0zm103 -84l0 -99 97 0 0 26 -73 0 0 41c8,-7 18,-10 29,-10 7,0 13,1 19,4 6,3 10,6 14,9 5,5 9,11 11,18 2,6 3,17 3,32 0,12 -1,21 -3,27 -2,6 -5,11 -9,16 -4,5 -9,9 -16,13 -7,4 -15,6 -24,6 -12,0 -23,-4 -34,-11 -11,-7 -17,-19 -19,-36l26 0c3,14 12,21 26,21 13,0 20,-4 22,-13 2,-9 3,-17 3,-26 0,-10 -2,-19 -5,-25 -3,-7 -11,-10 -21,-10 -10,0 -18,5 -24,15l-25 0zm215 31l0 -78c0,-9 -2,-16 -7,-21 -5,-5 -11,-7 -19,-7 -8,0 -14,2 -19,7 -5,5 -7,12 -7,21l0 78c0,9 2,16 7,21 5,5 11,7 19,7 8,0 14,-2 19,-7 5,-5 7,-12 7,-21zm-78 2l0 -81c0,-17 5,-30 16,-39 11,-9 23,-14 36,-14 13,0 26,5 36,14 11,9 16,22 16,39l0 81c0,17 -5,30 -16,39 -11,9 -23,14 -36,14 -14,0 -26,-5 -36,-14 -11,-9 -16,-22 -16,-39z"/>
  <path class="fil1" d="M94 372l22 -25c8,7 18,12 29,16 11,4 22,6 34,6 14,0 24,-3 32,-9 8,-6 12,-13 12,-22 0,-17 -10,-27 -29,-30 -5,-1 -10,-1 -14,-2 -4,-1 -9,-1 -15,-2 -19,-3 -34,-10 -44,-21 -10,-11 -15,-25 -15,-41 0,-19 6,-34 19,-46 13,-12 30,-18 53,-18 14,0 27,2 39,7 12,4 23,10 33,17l-19 28c-8,-5 -17,-9 -26,-12 -9,-3 -19,-5 -29,-5 -10,0 -19,3 -26,8 -7,5 -11,13 -11,24 0,6 2,12 7,18 5,5 13,9 24,11 3,1 6,1 11,2 4,1 9,1 14,2 21,3 36,10 46,22 10,12 15,26 15,41 0,20 -7,36 -21,47 -14,11 -33,17 -57,17 -33,0 -62,-10 -85,-30zm235 29l0 -191 -61 0 0 -30 155 0 0 30 -61 0 0 191 -34 0zm110 -111c0,-27 1,-44 2,-51 1,-8 4,-15 8,-21 5,-10 14,-19 25,-27 12,-9 26,-13 44,-13 17,0 32,4 44,13 12,8 20,18 26,27 4,6 6,14 7,21 1,8 2,25 2,51 0,27 -1,44 -2,51 -1,8 -4,15 -7,21 -5,10 -14,19 -26,27 -12,8 -26,13 -44,13 -17,0 -32,-4 -44,-13 -12,-8 -20,-17 -25,-27 -4,-6 -6,-14 -8,-21 -1,-8 -2,-25 -2,-51zm34 0c0,23 1,38 2,44 2,7 5,13 9,18 3,4 8,8 14,11 6,3 13,5 21,5 8,0 15,-2 20,-5 6,-3 10,-7 14,-11 4,-5 7,-12 9,-18 2,-7 2,-22 2,-44 0,-23 -1,-37 -2,-44 -2,-7 -5,-13 -9,-19 -3,-4 -8,-8 -14,-11 -6,-3 -13,-5 -20,-5 -8,0 -15,2 -21,5 -6,3 -10,7 -14,11 -4,6 -7,12 -9,19 -2,7 -2,22 -2,44zm197 -79l0 71 50 0c12,0 22,-4 28,-11 6,-8 9,-16 9,-24 0,-13 -5,-23 -14,-29 -6,-4 -14,-6 -24,-6l-49 0zm-34 189l0 -221 80 0c9,0 17,1 25,3 8,2 16,6 25,13 7,5 12,12 17,21 5,9 7,20 7,32 0,16 -6,31 -18,45 -12,14 -29,21 -52,21l-51 0 0 86 -34 0z"/>
 </g>
</svg>
