<?xml version="1.0" encoding="UTF-8"?>
<!DOCTYPE svg PUBLIC "-//W3C//DTD SVG 1.1//EN" "http://www.w3.org/Graphics/SVG/1.1/DTD/svg11.dtd">
<!-- Creator: CorelDRAW X6 -->
<svg xmlns="http://www.w3.org/2000/svg" xml:space="preserve" width="42.3mm" height="20.528mm" version="1.1" style="shape-rendering:geometricPrecision; text-rendering:geometricPrecision; image-rendering:optimizeQuality; fill-rule:evenodd; clip-rule:evenodd"
viewBox="0 0 1794 871"
 xmlns:xlink="http://www.w3.org/1999/xlink">
 <defs>
  <style type="text/css">
   <![CDATA[
    .fil0 {fill:#212220}
    .fil1 {fill:#212220;fill-rule:nonzero}
   ]]>
  </style>
 </defs>
 <g id="Layer_x0020_1">
  <metadata id="CorelCorpID_0Corel-Layer"/>
  <polygon class="fil0" points="210,794 211,309 106,340 253,76 401,341 296,308 296,794 "/>
  <polygon class="fil0" points="1497,794 1498,309 1393,340 1540,76 1688,341 1583,308 1583,794 "/>
  <path class="fil1" d="M575 678l0 -39 113 -142c4,-6 7,-11 9,-15 1,-5 2,-9 2,-14 0,-10 -4,-19 -11,-28 -7,-9 -17,-13 -29,-13 -11,0 -21,4 -29,11 -8,7 -12,18 -13,31l-42 0c0,-23 8,-43 24,-59 16,-16 35,-24 57,-24 24,0 44,8 60,24 16,16 24,36 24,59 0,20 -6,37 -17,51l-93 117 111 0 0 41 -165 0z"/>
  <path class="fil1" d="M854 680l0 -218 31 0 0 136 1 0 60 -73 37 0 -54 61 61 95 -39 0 -41 -73 -25 28 0 45 -31 0zm161 0l0 -156 31 0 0 17 1 0c10,-12 23,-18 40,-18 11,0 19,2 26,6 6,4 12,9 18,14 12,-13 29,-20 49,-20 12,0 24,5 35,14 11,9 17,23 17,40l0 103 -31 0 0 -93c0,-10 -3,-19 -9,-25 -6,-6 -13,-9 -22,-9 -9,0 -16,3 -22,9 -6,6 -9,14 -9,25l0 93 -31 0 0 -93c0,-10 -3,-19 -9,-25 -6,-6 -13,-9 -22,-9 -9,0 -16,3 -22,9 -6,6 -9,14 -9,25l0 93 -31 0z"/>
  <path class="fil0" d="M26 778l0 4 0 3 0 3 1 3 1 3 1 3 1 3 1 3 1 3 1 3 2 3 2 3 2 3 2 2 2 2 2 2 2 2 2 2 3 2 3 2 3 2 3 2 3 1 3 1 3 1 3 1 3 1 3 1 3 1 3 0 3 0 4 0 1608 0 4 0 3 0 3 0 3 -1 3 -1 3 -1 3 -1 3 -1 3 -1 3 -1 3 -2 3 -2 3 -2 3 -2 2 -2 2 -2 2 -2 2 -2 2 -2 2 -3 2 -3 2 -3 1 -3 1 -3 1 -3 1 -3 1 -3 1 -3 1 -3 0 -3 0 -3 0 -4 0 -685 0 -4 0 -3 0 -3 -1 -3 -1 -3 -1 -3 -1 -3 -1 -3 -1 -3 -1 -3 -2 -3 -2 -3 -2 -3 -2 -2 -2 -2 -2 -2 -2 -2 -2 -2 -2 -2 -3 -2 -3 -2 -3 -2 -3 -1 -3 -1 -3 -1 -3 -1 -3 -1 -3 -1 -3 -1 -3 0 -3 0 -4 0 -1608 0 -4 0 -3 0 -3 0 -3 1 -3 1 -3 1 -3 1 -3 1 -3 1 -3 1 -3 2 -3 2 -3 2 -3 2 -2 2 -2 2 -2 2 -2 2 -2 2 -2 3 -2 3 -2 3 -1 3 -1 3 -1 3 -1 3 -1 3 -1 3 -1 3 0 3 0 3 0 4 0 685zm-26 0l0 5 0 5 1 5 1 5 1 4 1 4 1 4 2 4 2 4 2 4 2 4 2 4 3 4 3 3 3 3 3 3 3 3 3 3 3 3 4 3 4 2 4 2 4 2 4 2 4 2 4 1 4 1 4 1 5 1 5 1 5 0 5 0 1608 0 5 0 5 0 5 -1 5 -1 4 -1 4 -1 4 -1 4 -2 4 -2 4 -2 4 -2 4 -2 4 -3 3 -3 3 -3 3 -3 3 -3 3 -3 3 -3 3 -4 2 -4 2 -4 2 -4 2 -4 2 -4 1 -4 1 -4 1 -4 1 -5 1 -5 0 -5 0 -5 0 -685 0 -5 0 -5 -1 -5 -1 -5 -1 -4 -1 -4 -1 -4 -2 -4 -2 -4 -2 -4 -2 -4 -2 -4 -3 -4 -3 -3 -3 -3 -3 -3 -3 -3 -3 -3 -3 -3 -4 -3 -4 -2 -4 -2 -4 -2 -4 -2 -4 -2 -4 -1 -4 -1 -4 -1 -5 -1 -5 -1 -5 0 -5 0 -1608 0 -5 0 -5 0 -5 1 -5 1 -4 1 -4 1 -4 1 -4 2 -4 2 -4 2 -4 2 -4 2 -4 3 -3 3 -3 3 -3 3 -3 3 -3 3 -3 3 -3 4 -2 4 -2 4 -2 4 -2 4 -2 4 -1 4 -1 4 -1 4 -1 5 -1 5 0 5 0 5 0 685z"/>
 </g>
</svg>
