<?xml version="1.0" encoding="UTF-8"?>
<!DOCTYPE svg PUBLIC "-//W3C//DTD SVG 1.1//EN" "http://www.w3.org/Graphics/SVG/1.1/DTD/svg11.dtd">
<!-- Creator: CorelDRAW X6 -->
<svg xmlns="http://www.w3.org/2000/svg" xml:space="preserve" width="42.2999mm" height="20.528mm" version="1.1" style="shape-rendering:geometricPrecision; text-rendering:geometricPrecision; image-rendering:optimizeQuality; fill-rule:evenodd; clip-rule:evenodd"
viewBox="0 0 18682 9066"
 xmlns:xlink="http://www.w3.org/1999/xlink">
 <defs>
  <style type="text/css">
   <![CDATA[
    .fil0 {fill:#212220}
    .fil1 {fill:#212220;fill-rule:nonzero}
   ]]>
  </style>
 </defs>
 <g id="Layer_x0020_1">
  <metadata id="CorelCorpID_0Corel-Layer"/>
  <path class="fil0" d="M0 8101l1 53 4 49 6 48 8 47 11 46 13 46 15 45 17 44 19 43 21 41 23 40 25 39 27 38 29 36 30 35 32 33 33 32 35 30 36 29 38 27 39 25 40 23 41 21 43 19 44 17 45 15 45 13 46 11 47 8 48 6 49 4 53 1 16752 0 53 -1 49 -4 48 -6 47 -8 46 -11 45 -13 45 -15 44 -17 43 -19 41 -21 40 -23 39 -25 38 -27 36 -29 35 -30 33 -32 32 -33 30 -35 29 -36 27 -38 25 -39 23 -40 21 -41 19 -43 17 -44 15 -45 13 -46 11 -46 8 -47 6 -48 4 -49 1 -53 0 -7136 -1 -53 -4 -49 -6 -48 -8 -47 -11 -46 -13 -45 -15 -45 -17 -44 -19 -42 -21 -41 -23 -40 -25 -39 -27 -38 -29 -36 -30 -35 -32 -33 -33 -32 -35 -30 -36 -29 -38 -27 -39 -25 -40 -23 -41 -21 -43 -19 -44 -17 -45 -15 -45 -13 -46 -11 -47 -8 -48 -6 -49 -4 -53 -1 -16752 0 -53 1 -49 4 -48 6 -47 8 -46 11 -45 13 -45 15 -44 17 -43 19 -41 21 -40 23 -39 25 -38 27 -36 29 -35 30 -33 32 -32 33 -30 35 -29 36 -27 38 -25 39 -23 40 -21 41 -19 42 -17 44 -15 45 -13 45 -11 46 -8 47 -6 48 -4 49 -1 53 0 7136zm275 -3l1 43 3 35 4 34 6 34 8 33 9 32 11 32 12 31 14 30 15 30 17 29 18 28 19 27 20 26 22 25 23 24 24 23 25 22 26 20 27 19 28 18 29 17 30 15 30 14 31 12 32 11 32 9 33 8 34 6 34 4 35 3 43 1 16745 0 43 -1 35 -3 34 -4 34 -6 33 -8 32 -9 32 -11 31 -12 30 -14 30 -15 29 -17 28 -18 27 -19 26 -20 25 -22 24 -23 23 -24 22 -25 20 -26 19 -27 18 -28 17 -29 15 -30 14 -30 12 -31 11 -32 9 -32 8 -33 6 -34 4 -34 3 -35 1 -43 0 -7129 -1 -43 -3 -35 -4 -34 -6 -34 -8 -33 -9 -32 -11 -32 -12 -31 -14 -30 -15 -30 -17 -29 -18 -28 -19 -27 -20 -26 -22 -25 -23 -24 -24 -23 -25 -22 -26 -20 -27 -19 -28 -18 -29 -17 -30 -15 -30 -14 -31 -12 -32 -11 -32 -9 -33 -8 -34 -6 -34 -4 -35 -3 -43 -1 -16745 0 -43 1 -35 3 -34 4 -34 6 -33 8 -32 9 -32 11 -31 12 -30 14 -30 15 -29 17 -28 18 -27 19 -26 20 -25 22 -24 23 -23 24 -22 25 -20 26 -19 27 -18 28 -17 29 -15 30 -14 30 -12 31 -11 32 -9 32 -8 33 -6 34 -4 34 -3 35 -1 43 0 7129z"/>
  <polygon class="fil0" points="1822,6416 4567,4761 4278,5930 16365,5924 16365,6909 4283,6916 4563,8008 "/>
  <path class="fil1" d="M7400 3300l0 -378 147 0c143,0 255,-40 338,-120 83,-80 125,-182 125,-305 0,-122 -44,-225 -130,-308 -86,-83 -189,-125 -308,-125 -90,0 -176,30 -257,90 -81,60 -132,151 -156,271l-430 0c17,-211 105,-395 265,-553 160,-158 348,-238 561,-238 267,0 481,88 642,264 160,176 241,372 241,590 0,115 -22,227 -68,336 -45,109 -129,203 -252,282 126,81 216,180 271,298 55,118 82,237 82,357 0,280 -88,502 -263,668 -175,165 -390,248 -645,248 -203,0 -385,-65 -547,-196 -162,-130 -263,-321 -303,-572l429 0c40,103 93,186 160,248 67,62 162,94 285,94 119,0 224,-42 316,-126 92,-85 138,-200 138,-348 0,-149 -46,-266 -137,-350 -91,-84 -200,-126 -326,-126l-180 0zm2876 493l0 -1271c0,-144 -39,-256 -116,-337 -77,-81 -179,-121 -305,-121 -127,0 -229,40 -306,121 -77,81 -115,193 -115,337l0 1271c0,145 38,258 115,338 76,81 179,121 306,121 126,0 228,-40 305,-121 78,-80 116,-193 116,-338zm-1271 25l0 -1320c0,-276 87,-488 259,-638 172,-150 369,-225 591,-225 221,0 418,75 591,225 173,150 259,362 259,638l0 1320c0,275 -86,487 -259,636 -173,149 -370,224 -591,224 -221,0 -418,-74 -591,-224 -173,-149 -259,-362 -259,-636zm2768 835l0 -1601 322 0 0 171 6 0c102,-126 241,-190 417,-190 112,0 201,20 266,60 66,40 128,90 185,148 126,-139 295,-208 506,-208 124,0 244,47 360,142 116,95 174,233 174,413l0 1065 -323 0 0 -954c0,-108 -30,-192 -91,-253 -61,-61 -135,-91 -225,-91 -93,0 -169,31 -229,91 -61,61 -91,145 -91,253l0 954 -321 0 0 -954c0,-108 -31,-192 -91,-253 -61,-61 -136,-91 -225,-91 -92,0 -169,31 -229,91 -60,61 -90,145 -90,253l0 954 -322 0z"/>
 </g>
</svg>
