<?xml version="1.0" encoding="UTF-8"?>
<!DOCTYPE svg PUBLIC "-//W3C//DTD SVG 1.1//EN" "http://www.w3.org/Graphics/SVG/1.1/DTD/svg11.dtd">
<!-- Creator: CorelDRAW X6 -->
<svg xmlns="http://www.w3.org/2000/svg" xml:space="preserve" width="42.3mm" height="20.528mm" version="1.1" style="shape-rendering:geometricPrecision; text-rendering:geometricPrecision; image-rendering:optimizeQuality; fill-rule:evenodd; clip-rule:evenodd"
viewBox="0 0 1589 771"
 xmlns:xlink="http://www.w3.org/1999/xlink">
 <defs>
  <style type="text/css">
   <![CDATA[
    .fil0 {fill:#212220}
    .fil1 {fill:#2B2A29;fill-rule:nonzero}
   ]]>
  </style>
 </defs>
 <g id="Layer_x0020_1">
  <metadata id="CorelCorpID_0Corel-Layer"/>
  <polygon class="fil0" points="828,597 1243,596 1220,689 1453,554 1219,413 1244,512 829,512 827,63 781,62 781,512 365,512 389,413 156,554 389,689 365,596 781,597 781,708 828,708 "/>
  <path class="fil1" d="M171 266l0 -33 13 0c12,0 22,-3 29,-10 7,-7 11,-16 11,-26 0,-11 -4,-20 -11,-27 -7,-7 -16,-11 -27,-11 -8,0 -15,3 -22,8 -7,5 -12,13 -14,24l-37 0c1,-18 9,-34 23,-48 14,-14 30,-21 49,-21 23,0 42,8 56,23 14,15 21,32 21,51 0,10 -2,20 -6,29 -4,9 -11,18 -22,25 11,7 19,16 24,26 5,10 7,21 7,31 0,24 -8,44 -23,58 -15,14 -34,22 -56,22 -18,0 -33,-6 -48,-17 -14,-11 -23,-28 -26,-50l37 0c3,9 8,16 14,22 6,5 14,8 25,8 10,0 19,-4 27,-11 8,-7 12,-17 12,-30 0,-13 -4,-23 -12,-30 -8,-7 -17,-11 -28,-11l-16 0zm250 43l0 -110c0,-12 -3,-22 -10,-29 -7,-7 -16,-10 -26,-10 -11,0 -20,3 -27,10 -7,7 -10,17 -10,29l0 110c0,13 3,22 10,29 7,7 16,10 27,10 11,0 20,-3 26,-10 7,-7 10,-17 10,-29zm-110 2l0 -115c0,-24 8,-42 23,-55 15,-13 32,-20 51,-20 19,0 36,7 51,20 15,13 23,31 23,55l0 115c0,24 -7,42 -23,55 -15,13 -32,19 -51,19 -19,0 -36,-6 -51,-19 -15,-13 -23,-31 -23,-55zm224 73l0 -136 27 0 0 15 1 0c9,-11 21,-16 35,-16 10,0 17,2 23,5 6,3 11,8 16,13 11,-12 25,-18 43,-18 11,0 21,4 31,12 10,8 15,20 15,35l0 91 -28 0 0 -81c0,-9 -3,-16 -8,-22 -5,-5 -12,-8 -19,-8 -8,0 -14,3 -20,8 -5,5 -8,12 -8,22l0 81 -27 0 0 -81c0,-9 -3,-16 -8,-22 -5,-5 -12,-8 -19,-8 -8,0 -14,3 -20,8 -5,5 -8,12 -8,22l0 81 -27 0z"/>
  <path class="fil1" d="M956 383l0 -221 -37 27 0 -39 37 -27 37 0 0 260 -37 0zm229 -75l0 -110c0,-12 -3,-22 -10,-29 -7,-7 -16,-10 -26,-10 -11,0 -20,3 -27,10 -7,7 -10,17 -10,29l0 110c0,13 3,22 10,29 7,7 16,10 27,10 11,0 20,-3 26,-10 7,-7 10,-17 10,-29zm-110 2l0 -115c0,-24 8,-42 23,-55 15,-13 32,-20 51,-20 19,0 36,7 51,20 15,13 23,31 23,55l0 115c0,24 -7,42 -23,55 -15,13 -32,19 -51,19 -19,0 -36,-6 -51,-19 -15,-13 -23,-31 -23,-55zm217 73l0 -136 27 0 0 15 1 0c9,-11 20,-16 35,-16 10,0 17,2 23,5 6,3 11,8 16,13 11,-12 25,-18 43,-18 11,0 21,4 31,12 10,8 15,20 15,35l0 91 -28 0 0 -81c0,-9 -3,-16 -8,-22 -5,-5 -12,-8 -19,-8 -8,0 -14,3 -20,8 -5,5 -8,12 -8,22l0 81 -27 0 0 -81c0,-9 -3,-16 -8,-22 -5,-5 -12,-8 -19,-8 -8,0 -14,3 -20,8 -5,5 -8,12 -8,22l0 81 -27 0z"/>
  <path class="fil0" d="M0 689l0 5 0 4 1 4 1 4 1 4 1 4 1 4 1 4 2 4 2 4 2 3 2 3 2 3 2 3 3 3 3 3 3 3 3 3 3 2 3 2 3 2 3 2 4 2 4 2 4 1 4 1 4 1 4 1 4 1 4 1 4 0 5 0 1424 0 5 0 4 0 4 -1 4 -1 4 -1 4 -1 4 -1 4 -1 4 -2 4 -2 3 -2 3 -2 3 -2 3 -2 3 -3 3 -3 3 -3 3 -3 2 -3 2 -3 2 -3 2 -3 2 -4 2 -4 1 -4 1 -4 1 -4 1 -4 1 -4 1 -4 0 -4 0 -5 0 -607 0 -5 0 -4 -1 -4 -1 -4 -1 -4 -1 -4 -1 -4 -1 -4 -2 -4 -2 -4 -2 -3 -2 -3 -2 -3 -2 -3 -3 -3 -3 -3 -3 -3 -3 -3 -3 -2 -3 -2 -3 -2 -3 -2 -4 -2 -4 -2 -4 -1 -4 -1 -4 -1 -4 -1 -4 -1 -4 -1 -4 0 -5 0 -1424 0 -5 0 -4 0 -4 1 -4 1 -4 1 -4 1 -4 1 -4 1 -4 2 -4 2 -3 2 -3 2 -3 2 -3 2 -3 3 -3 3 -3 3 -3 3 -2 3 -2 3 -2 3 -2 3 -2 4 -2 4 -1 4 -1 4 -1 4 -1 4 -1 4 -1 4 0 4 0 5 0 607zm23 0l0 4 0 3 0 3 1 3 1 3 1 3 1 3 1 3 1 3 1 3 1 2 2 2 2 2 2 2 2 2 2 2 2 2 2 2 2 2 2 2 2 2 2 1 3 1 3 1 3 1 3 1 3 1 3 1 3 1 3 0 3 0 4 0 1424 0 4 0 3 0 3 0 3 -1 3 -1 3 -1 3 -1 3 -1 3 -1 3 -1 2 -1 2 -2 2 -2 2 -2 2 -2 2 -2 2 -2 2 -2 2 -2 2 -2 2 -2 1 -2 1 -3 1 -3 1 -3 1 -3 1 -3 1 -3 1 -3 0 -3 0 -3 0 -4 0 -606 0 -4 0 -3 0 -3 -1 -3 -1 -3 -1 -3 -1 -3 -1 -3 -1 -3 -1 -3 -1 -2 -2 -2 -2 -2 -2 -2 -2 -2 -2 -2 -2 -2 -2 -2 -2 -2 -2 -2 -2 -2 -2 -1 -3 -1 -3 -1 -3 -1 -3 -1 -3 -1 -3 -1 -3 -1 -3 0 -3 0 -4 0 -1424 0 -4 0 -3 0 -3 0 -3 1 -3 1 -3 1 -3 1 -3 1 -3 1 -3 1 -2 1 -2 2 -2 2 -2 2 -2 2 -2 2 -2 2 -2 2 -2 2 -2 2 -2 2 -1 2 -1 3 -1 3 -1 3 -1 3 -1 3 -1 3 -1 3 0 3 0 3 0 4 0 606z"/>
 </g>
</svg>
