<?xml version="1.0" encoding="UTF-8"?>
<!DOCTYPE svg PUBLIC "-//W3C//DTD SVG 1.1//EN" "http://www.w3.org/Graphics/SVG/1.1/DTD/svg11.dtd">
<!-- Creator: CorelDRAW X6 -->
<svg xmlns="http://www.w3.org/2000/svg" xml:space="preserve" width="42.3mm" height="20.528mm" version="1.1" style="shape-rendering:geometricPrecision; text-rendering:geometricPrecision; image-rendering:optimizeQuality; fill-rule:evenodd; clip-rule:evenodd"
viewBox="0 0 1715 832"
 xmlns:xlink="http://www.w3.org/1999/xlink">
 <defs>
  <style type="text/css">
   <![CDATA[
    .fil0 {fill:#212220}
    .fil1 {fill:#212220;fill-rule:nonzero}
   ]]>
  </style>
 </defs>
 <g id="Layer_x0020_1">
  <metadata id="CorelCorpID_0Corel-Layer"/>
  <path class="fil0" d="M0 744l0 5 0 4 1 4 1 4 1 4 1 4 1 4 2 4 2 4 2 4 2 4 2 4 2 3 3 3 3 3 3 3 3 3 3 3 3 3 3 2 4 2 4 2 4 2 4 2 4 2 4 1 4 1 4 1 4 1 4 1 4 0 5 0 1537 0 5 0 4 0 4 -1 4 -1 4 -1 4 -1 4 -1 4 -2 4 -2 4 -2 4 -2 4 -2 3 -2 3 -3 3 -3 3 -3 3 -3 3 -3 3 -3 2 -3 2 -4 2 -4 2 -4 2 -4 2 -4 1 -4 1 -4 1 -4 1 -4 1 -4 0 -4 0 -5 0 -655 0 -5 0 -4 -1 -4 -1 -4 -1 -4 -1 -4 -1 -4 -2 -4 -2 -4 -2 -4 -2 -4 -2 -4 -2 -3 -3 -3 -3 -3 -3 -3 -3 -3 -3 -3 -3 -3 -3 -2 -4 -2 -4 -2 -4 -2 -4 -2 -4 -2 -4 -1 -4 -1 -4 -1 -4 -1 -4 -1 -4 0 -5 0 -1537 0 -5 0 -4 0 -4 1 -4 1 -4 1 -4 1 -4 1 -4 2 -4 2 -4 2 -4 2 -4 2 -3 2 -3 3 -3 3 -3 3 -3 3 -3 3 -3 3 -2 3 -2 4 -2 4 -2 4 -2 4 -2 4 -1 4 -1 4 -1 4 -1 4 -1 4 0 4 0 5 0 655zm25 0l0 4 0 3 0 3 1 3 1 3 1 3 1 3 1 3 1 3 1 3 2 3 2 3 2 2 2 2 2 2 2 2 2 2 2 2 2 2 2 2 3 2 3 2 3 1 3 1 3 1 3 1 3 1 3 1 3 1 3 0 3 0 4 0 1537 0 4 0 3 0 3 0 3 -1 3 -1 3 -1 3 -1 3 -1 3 -1 3 -1 3 -2 3 -2 2 -2 2 -2 2 -2 2 -2 2 -2 2 -2 2 -2 2 -2 2 -3 2 -3 1 -3 1 -3 1 -3 1 -3 1 -3 1 -3 1 -3 0 -3 0 -3 0 -4 0 -654 0 -4 0 -3 0 -3 -1 -3 -1 -3 -1 -3 -1 -3 -1 -3 -1 -3 -1 -3 -2 -3 -2 -3 -2 -2 -2 -2 -2 -2 -2 -2 -2 -2 -2 -2 -2 -2 -2 -2 -3 -2 -3 -2 -3 -1 -3 -1 -3 -1 -3 -1 -3 -1 -3 -1 -3 -1 -3 0 -3 0 -4 0 -1537 0 -4 0 -3 0 -3 0 -3 1 -3 1 -3 1 -3 1 -3 1 -3 1 -3 1 -3 2 -3 2 -2 2 -2 2 -2 2 -2 2 -2 2 -2 2 -2 2 -2 2 -2 3 -2 3 -1 3 -1 3 -1 3 -1 3 -1 3 -1 3 -1 3 0 3 0 3 0 4 0 654z"/>
  <polygon class="fil0" points="1563,589 1311,437 1337,544 228,544 228,634 1337,635 1311,735 "/>
  <path class="fil1" d="M620 427l0 -233 -39 28 0 -42 39 -28 39 0 0 275 -39 0zm207 -79l0 -117c0,-13 -4,-23 -11,-31 -7,-7 -16,-11 -28,-11 -12,0 -21,4 -28,11 -7,7 -11,18 -11,31l0 117c0,13 3,24 11,31 7,7 16,11 28,11 12,0 21,-4 28,-11 7,-7 11,-18 11,-31zm-117 2l0 -121c0,-25 8,-45 24,-59 16,-14 34,-21 54,-21 20,0 38,7 54,21 16,14 24,33 24,59l0 121c0,25 -8,45 -24,58 -16,14 -34,21 -54,21 -20,0 -38,-7 -54,-21 -16,-14 -24,-33 -24,-58zm254 77l0 -147 30 0 0 16 1 0c9,-12 22,-17 38,-17 10,0 18,2 24,6 6,4 12,8 17,14 12,-13 27,-19 46,-19 11,0 22,4 33,13 11,9 16,21 16,38l0 98 -30 0 0 -88c0,-10 -3,-18 -8,-23 -6,-6 -12,-8 -21,-8 -9,0 -16,3 -21,8 -6,6 -8,13 -8,23l0 88 -29 0 0 -88c0,-10 -3,-18 -8,-23 -6,-6 -12,-8 -21,-8 -8,0 -16,3 -21,8 -6,6 -8,13 -8,23l0 88 -30 0z"/>
 </g>
</svg>
