<?xml version="1.0" encoding="UTF-8"?>
<!DOCTYPE svg PUBLIC "-//W3C//DTD SVG 1.1//EN" "http://www.w3.org/Graphics/SVG/1.1/DTD/svg11.dtd">
<!-- Creator: CorelDRAW X6 -->
<svg xmlns="http://www.w3.org/2000/svg" xml:space="preserve" width="42.5391mm" height="20.6464mm" version="1.1" style="shape-rendering:geometricPrecision; text-rendering:geometricPrecision; image-rendering:optimizeQuality; fill-rule:evenodd; clip-rule:evenodd"
viewBox="0 0 4109 1994"
 xmlns:xlink="http://www.w3.org/1999/xlink">
 <defs>
  <style type="text/css">
   <![CDATA[
    .str0 {stroke:#2B2A29;stroke-width:0.463622}
    .str1 {stroke:#2B2A29;stroke-width:2.1346}
    .fil0 {fill:black}
   ]]>
  </style>
 </defs>
 <g id="Layer_x0020_1">
  <metadata id="CorelCorpID_0Corel-Layer"/>
  <path class="fil0 str0" d="M0 1782l0 12 1 11 1 11 2 10 2 10 3 10 3 10 4 10 4 9 5 9 5 9 5 9 6 8 6 8 7 8 7 7 7 7 8 7 8 6 8 6 9 6 9 5 9 5 9 4 10 4 10 3 10 3 10 2 10 2 11 1 11 1 12 0 3684 0 12 0 11 -1 11 -1 10 -2 10 -2 10 -3 10 -3 10 -4 9 -4 9 -5 9 -5 9 -6 8 -6 8 -6 8 -7 7 -7 7 -7 7 -8 6 -8 6 -8 6 -9 5 -9 5 -9 4 -9 4 -10 3 -10 3 -10 2 -10 2 -10 1 -11 1 -11 0 -12 0 -1569 0 -12 -1 -11 -1 -11 -2 -10 -2 -10 -3 -10 -3 -10 -4 -10 -4 -9 -5 -9 -5 -9 -6 -9 -6 -8 -6 -8 -7 -8 -7 -7 -7 -7 -8 -7 -8 -6 -8 -6 -9 -5 -9 -5 -9 -5 -9 -4 -10 -4 -10 -3 -10 -3 -10 -2 -10 -2 -11 -1 -11 -1 -12 0 -3684 0 -12 0 -11 1 -11 1 -10 2 -10 2 -10 3 -10 3 -10 4 -9 4 -9 5 -9 5 -9 5 -8 6 -8 6 -8 7 -7 7 -7 7 -7 8 -6 8 -6 8 -5 9 -5 9 -5 9 -4 9 -4 10 -3 10 -3 10 -2 10 -2 10 -1 11 -1 11 0 12 0 1569zm60 -1l0 9 1 8 1 8 1 7 2 7 2 7 2 7 3 7 3 7 3 6 4 6 4 6 4 6 4 6 5 6 5 5 5 5 6 5 6 5 6 4 6 4 6 4 6 3 7 3 7 3 7 2 7 2 7 2 7 1 8 1 8 1 9 0 3682 0 9 0 8 -1 8 -1 7 -1 7 -2 7 -2 7 -2 7 -3 7 -3 7 -3 6 -4 6 -4 6 -4 6 -5 6 -5 5 -5 5 -5 5 -6 5 -6 4 -6 4 -6 4 -6 3 -6 3 -7 3 -7 2 -7 2 -7 2 -7 1 -7 1 -8 1 -8 0 -9 0 -1568 0 -9 -1 -8 -1 -8 -1 -7 -2 -7 -2 -7 -2 -7 -3 -7 -3 -7 -3 -7 -4 -6 -4 -6 -4 -6 -5 -6 -5 -6 -5 -5 -5 -5 -5 -5 -6 -5 -6 -4 -6 -4 -6 -4 -6 -3 -7 -3 -7 -3 -7 -2 -7 -2 -7 -2 -7 -1 -8 -1 -8 -1 -9 0 -3682 0 -9 0 -8 1 -8 1 -7 1 -7 2 -7 2 -7 2 -7 3 -7 3 -7 3 -6 4 -6 4 -6 4 -6 5 -6 5 -5 5 -5 5 -5 6 -4 6 -4 6 -4 6 -4 6 -3 7 -3 7 -3 7 -2 7 -2 7 -2 7 -1 7 -1 8 -1 8 0 9 0 1568z"/>
  <polygon class="fil0 str1" points="346,1752 663,743 838,1046 1374,511 1374,511 1521,364 1521,364 1643,242 1858,457 1589,726 1588,725 1054,1258 1364,1444 "/>
  <polygon class="fil0 str1" points="3752,1752 3435,743 3260,1046 2724,511 2724,511 2577,364 2577,364 2455,242 2240,457 2509,726 2510,725 3044,1258 2734,1444 "/>
 </g>
</svg>
