<?xml version="1.0" encoding="UTF-8"?>
<!DOCTYPE svg PUBLIC "-//W3C//DTD SVG 1.1//EN" "http://www.w3.org/Graphics/SVG/1.1/DTD/svg11.dtd">
<!-- Creator: CorelDRAW X6 -->
<svg xmlns="http://www.w3.org/2000/svg" xml:space="preserve" width="42.5392mm" height="20.6465mm" version="1.1" style="shape-rendering:geometricPrecision; text-rendering:geometricPrecision; image-rendering:optimizeQuality; fill-rule:evenodd; clip-rule:evenodd"
viewBox="0 0 3102 1506"
 xmlns:xlink="http://www.w3.org/1999/xlink">
 <defs>
  <style type="text/css">
   <![CDATA[
    .str0 {stroke:#2B2A29;stroke-width:0.350057}
    .fil0 {fill:black}
   ]]>
  </style>
 </defs>
 <g id="Layer_x0020_1">
  <metadata id="CorelCorpID_0Corel-Layer"/>
  <path class="fil0 str0" d="M0 1345l0 9 1 8 1 8 1 8 2 8 2 8 3 7 3 7 3 7 4 7 4 7 4 6 4 6 5 6 5 6 5 6 6 5 6 5 6 5 6 4 6 4 7 4 7 4 7 3 7 3 7 3 8 2 8 2 8 1 8 1 8 1 9 0 2782 0 9 0 8 -1 8 -1 8 -1 8 -2 8 -2 7 -3 7 -3 7 -3 7 -4 7 -4 6 -4 6 -4 6 -5 6 -5 6 -5 5 -6 5 -6 5 -6 4 -6 4 -6 4 -7 4 -7 3 -7 3 -7 3 -7 2 -8 2 -8 1 -8 1 -8 1 -8 0 -9 0 -1185 0 -9 -1 -8 -1 -8 -1 -8 -2 -8 -2 -8 -3 -7 -3 -7 -3 -7 -4 -7 -4 -7 -4 -6 -4 -6 -5 -6 -5 -6 -5 -6 -6 -5 -6 -5 -6 -5 -6 -4 -6 -4 -7 -4 -7 -4 -7 -3 -7 -3 -7 -3 -8 -2 -8 -2 -8 -1 -8 -1 -8 -1 -9 0 -2782 0 -9 0 -8 1 -8 1 -8 1 -8 2 -8 2 -7 3 -7 3 -7 3 -7 4 -7 4 -6 4 -6 4 -6 5 -6 5 -6 5 -5 6 -5 6 -5 6 -4 6 -4 6 -4 7 -4 7 -3 7 -3 7 -3 7 -2 8 -2 8 -1 8 -1 8 -1 8 0 9 0 1185zm46 -1l0 7 0 6 1 6 1 6 1 5 2 5 2 5 2 5 2 5 3 5 3 5 3 5 3 4 3 4 4 4 4 4 4 4 4 4 4 3 4 3 5 3 5 3 5 3 5 2 5 2 5 2 5 2 5 1 6 1 6 1 6 0 7 0 2780 0 7 0 6 0 6 -1 6 -1 5 -1 5 -2 5 -2 5 -2 5 -2 5 -3 5 -3 5 -3 4 -3 4 -3 4 -4 4 -4 4 -4 4 -4 3 -4 3 -4 3 -5 3 -5 3 -5 2 -5 2 -5 2 -5 2 -5 1 -5 1 -6 1 -6 0 -6 0 -7 0 -1184 0 -7 0 -6 -1 -6 -1 -6 -1 -5 -2 -5 -2 -5 -2 -5 -2 -5 -3 -5 -3 -5 -3 -5 -3 -4 -3 -4 -4 -4 -4 -4 -4 -4 -4 -4 -4 -3 -4 -3 -5 -3 -5 -3 -5 -3 -5 -2 -5 -2 -5 -2 -5 -2 -5 -1 -6 -1 -6 -1 -6 0 -7 0 -2780 0 -7 0 -6 0 -6 1 -6 1 -5 1 -5 2 -5 2 -5 2 -5 2 -5 3 -5 3 -5 3 -4 3 -4 3 -4 4 -4 4 -4 4 -4 4 -3 4 -3 4 -3 5 -3 5 -3 5 -2 5 -2 5 -2 5 -2 5 -1 5 -1 6 -1 6 0 6 0 7 0 1184z"/>
  <polygon class="fil0" points="981,1323 981,1322 1263,528 1386,753 1947,192 2029,274 2111,357 1550,918 1775,1040 982,1322 "/>
 </g>
</svg>
