<?xml version="1.0" encoding="UTF-8"?>
<!DOCTYPE svg PUBLIC "-//W3C//DTD SVG 1.1//EN" "http://www.w3.org/Graphics/SVG/1.1/DTD/svg11.dtd">
<!-- Creator: CorelDRAW X6 -->
<svg xmlns="http://www.w3.org/2000/svg" xml:space="preserve" width="42.3762mm" height="20.6042mm" version="1.1" style="shape-rendering:geometricPrecision; text-rendering:geometricPrecision; image-rendering:optimizeQuality; fill-rule:evenodd; clip-rule:evenodd"
viewBox="0 0 37101 18039"
 xmlns:xlink="http://www.w3.org/1999/xlink">
 <defs>
  <style type="text/css">
   <![CDATA[
    .str0 {stroke:#2B2A29;stroke-width:66.7135}
    .fil0 {fill:#212220}
   ]]>
  </style>
 </defs>
 <g id="Layer_x0020_1">
  <metadata id="CorelCorpID_0Corel-Layer"/>
  <path class="fil0 str0" d="M578 1953l2 -85 5 -70 9 -68 12 -67 15 -65 18 -64 21 -63 24 -61 27 -60 30 -59 33 -57 35 -55 38 -53 41 -52 43 -50 45 -47 48 -45 50 -43 52 -41 53 -38 55 -35 57 -33 59 -30 60 -27 61 -24 63 -21 64 -18 65 -15 67 -12 68 -9 70 -5 85 -2 33194 0 85 2 70 5 68 9 67 12 65 15 64 18 63 21 61 24 60 27 59 30 57 33 55 35 53 38 52 41 50 43 47 45 45 47 43 50 41 52 38 53 35 55 33 57 30 59 27 60 24 61 21 63 18 64 15 65 12 67 9 68 5 70 2 85 0 14133 -2 85 -5 70 -9 68 -12 67 -15 65 -18 64 -21 63 -24 61 -27 60 -30 58 -33 57 -35 55 -38 53 -41 52 -43 50 -45 47 -47 45 -50 43 -52 41 -54 38 -55 35 -57 33 -59 30 -60 27 -62 24 -63 21 -64 18 -65 15 -67 12 -68 9 -70 5 -85 2 -33194 0 -85 -2 -70 -5 -68 -9 -67 -12 -65 -15 -64 -18 -63 -21 -61 -24 -60 -27 -58 -30 -57 -33 -55 -35 -53 -38 -52 -41 -50 -43 -48 -45 -45 -47 -43 -50 -41 -52 -38 -53 -35 -55 -33 -57 -30 -58 -27 -60 -24 -61 -21 -63 -18 -64 -15 -65 -12 -67 -9 -68 -5 -70 -2 -85 0 -14133zm-545 -7l3 -105 7 -97 12 -95 17 -94 21 -92 26 -90 30 -88 34 -86 38 -84 42 -82 46 -80 50 -77 53 -75 57 -72 60 -69 63 -66 66 -63 69 -60 72 -57 75 -53 77 -50 80 -46 82 -42 84 -38 86 -34 88 -30 90 -26 92 -21 94 -17 95 -12 97 -7 105 -3 33208 0 105 3 97 7 95 12 94 17 92 21 90 26 88 30 86 34 84 38 82 42 80 46 77 50 75 53 72 57 69 60 66 63 63 66 60 69 57 72 53 75 50 77 46 80 42 82 38 84 34 86 30 88 26 90 21 92 17 94 12 95 7 97 3 105 0 14147 -3 105 -7 97 -12 95 -17 94 -21 92 -26 90 -30 88 -34 86 -38 84 -42 82 -46 80 -50 77 -53 75 -57 72 -60 69 -63 66 -66 63 -69 60 -72 57 -75 53 -77 50 -80 46 -82 42 -84 38 -86 34 -88 30 -90 26 -92 21 -94 17 -95 12 -97 7 -105 3 -33208 0 -105 -3 -97 -7 -95 -12 -94 -17 -92 -21 -90 -26 -88 -30 -86 -34 -84 -38 -82 -42 -80 -46 -77 -50 -75 -53 -72 -57 -69 -60 -66 -63 -63 -66 -60 -69 -57 -72 -53 -75 -50 -77 -46 -80 -42 -82 -38 -84 -34 -86 -30 -88 -26 -90 -21 -92 -17 -94 -12 -95 -7 -97 -3 -105 0 -14147z"/>
  <polygon class="fil0" points="35641,8977 26061,3433 27191,7359 2447,7365 2440,10597 27178,10638 26142,14606 "/>
 </g>
</svg>
