<?xml version="1.0" encoding="UTF-8"?>
<!DOCTYPE svg PUBLIC "-//W3C//DTD SVG 1.1//EN" "http://www.w3.org/Graphics/SVG/1.1/DTD/svg11.dtd">
<!-- Creator: CorelDRAW X6 -->
<svg xmlns="http://www.w3.org/2000/svg" xml:space="preserve" width="42.3761mm" height="20.6042mm" version="1.1" style="shape-rendering:geometricPrecision; text-rendering:geometricPrecision; image-rendering:optimizeQuality; fill-rule:evenodd; clip-rule:evenodd"
viewBox="0 0 1716 834"
 xmlns:xlink="http://www.w3.org/1999/xlink">
 <defs>
  <style type="text/css">
   <![CDATA[
    .str0 {stroke:#2B2A29;stroke-width:3.08483}
    .fil0 {fill:#212220}
   ]]>
  </style>
 </defs>
 <g id="Layer_x0020_1">
  <metadata id="CorelCorpID_0Corel-Layer"/>
  <path class="fil0 str0" d="M1689 90l0 -4 0 -3 0 -3 -1 -3 -1 -3 -1 -3 -1 -3 -1 -3 -1 -3 -1 -3 -2 -3 -2 -3 -2 -2 -2 -2 -2 -2 -2 -2 -2 -2 -2 -2 -2 -2 -2 -2 -3 -2 -3 -2 -3 -1 -3 -1 -3 -1 -3 -1 -3 -1 -3 -1 -3 -1 -3 0 -3 0 -4 0 -1535 0 -4 0 -3 0 -3 0 -3 1 -3 1 -3 1 -3 1 -3 1 -3 1 -3 1 -3 2 -3 2 -2 2 -2 2 -2 2 -2 2 -2 2 -2 2 -2 2 -2 2 -2 3 -2 3 -1 3 -1 3 -1 3 -1 3 -1 3 -1 3 -1 3 0 3 0 3 0 4 0 654 0 4 0 3 0 3 1 3 1 3 1 3 1 3 1 3 1 3 1 3 2 3 2 3 2 2 2 2 2 2 2 2 2 2 2 2 2 2 2 2 3 2 3 2 3 1 3 1 3 1 3 1 3 1 3 1 3 1 3 0 3 0 4 0 1535 0 4 0 3 0 3 0 3 -1 3 -1 3 -1 3 -1 3 -1 3 -1 3 -1 3 -2 3 -2 2 -2 2 -2 2 -2 2 -2 2 -2 2 -2 2 -2 2 -2 2 -3 2 -3 1 -3 1 -3 1 -3 1 -3 1 -3 1 -3 1 -3 0 -3 0 -3 0 -4 0 -654zm25 0l0 -5 0 -4 -1 -4 -1 -4 -1 -4 -1 -4 -1 -4 -2 -4 -2 -4 -2 -4 -2 -4 -2 -4 -2 -3 -3 -3 -3 -3 -3 -3 -3 -3 -3 -3 -3 -3 -3 -2 -4 -2 -4 -2 -4 -2 -4 -2 -4 -2 -4 -1 -4 -1 -4 -1 -4 -1 -4 -1 -4 0 -5 0 -1536 0 -5 0 -4 0 -4 1 -4 1 -4 1 -4 1 -4 1 -4 2 -4 2 -4 2 -4 2 -4 2 -3 2 -3 3 -3 3 -3 3 -3 3 -3 3 -3 3 -2 3 -2 4 -2 4 -2 4 -2 4 -2 4 -1 4 -1 4 -1 4 -1 4 -1 4 0 4 0 5 0 654 0 5 0 4 1 4 1 4 1 4 1 4 1 4 2 4 2 4 2 4 2 4 2 4 2 3 3 3 3 3 3 3 3 3 3 3 3 3 3 2 4 2 4 2 4 2 4 2 4 2 4 1 4 1 4 1 4 1 4 1 4 0 5 0 1536 0 5 0 4 0 4 -1 4 -1 4 -1 4 -1 4 -1 4 -2 4 -2 4 -2 4 -2 4 -2 3 -2 3 -3 3 -3 3 -3 3 -3 3 -3 3 -3 2 -3 2 -4 2 -4 2 -4 2 -4 2 -4 1 -4 1 -4 1 -4 1 -4 1 -4 0 -4 0 -5 0 -654z"/>
  <polygon class="fil0" points="395,282 746,356 747,87 968,88 969,356 1320,283 857,747 "/>
 </g>
</svg>
