<?xml version="1.0" encoding="UTF-8"?>
<!DOCTYPE svg PUBLIC "-//W3C//DTD SVG 1.1//EN" "http://www.w3.org/Graphics/SVG/1.1/DTD/svg11.dtd">
<!-- Creator: CorelDRAW X6 -->
<svg xmlns="http://www.w3.org/2000/svg" xml:space="preserve" width="42.3mm" height="20.5279mm" version="1.1" style="shape-rendering:geometricPrecision; text-rendering:geometricPrecision; image-rendering:optimizeQuality; fill-rule:evenodd; clip-rule:evenodd"
viewBox="0 0 3152 1530"
 xmlns:xlink="http://www.w3.org/1999/xlink">
 <defs>
  <style type="text/css">
   <![CDATA[
    .fil0 {fill:#212220}
   ]]>
  </style>
 </defs>
 <g id="Layer_x0020_1">
  <metadata id="CorelCorpID_0Corel-Layer"/>
  <path class="fil0" d="M511 944c80,0 146,66 146,146 0,81 -66,146 -146,146 -80,0 -146,-66 -146,-146 0,-81 66,-146 146,-146zm0 76c41,0 74,32 74,72 0,40 -33,72 -74,72 -41,0 -74,-32 -74,-72 0,-40 34,-72 74,-72z"/>
  <path class="fil0" d="M1493 946c80,0 146,66 146,146 0,80 -66,146 -146,146 -80,0 -146,-66 -146,-146 0,-80 66,-146 146,-146zm0 74c41,0 74,32 74,72 0,40 -33,72 -74,72 -41,0 -74,-32 -74,-72 0,-40 34,-72 74,-72z"/>
  <path class="fil0" d="M348 695c-6,9 -3,17 10,18l308 0 0 -172 -208 0 -109 154zm393 -177l0 401 694 1c-80,30 -123,90 -128,173l-617 0c-1,-95 -65,-172 -146,-182 -58,-8 -112,0 -168,55 -26,30 -45,76 -44,118 -42,-3 -89,5 -87,-46l2 -302 175 -234c4,-8 16,-15 26,-15l262 0"/>
  <path class="fil0" d="M868 285l884 -2c49,0 54,20 54,43l0 544 -1004 0 1 -541c1,-35 25,-44 65,-44zm-158 202c18,-1 32,18 30,31"/>
  <path class="fil0" d="M2824 952c81,0 147,66 147,147 0,81 -66,147 -147,147 -81,0 -147,-66 -147,-147 0,-81 66,-147 147,-147zm-1 69c41,0 74,33 74,74 0,41 -34,74 -74,74 -41,0 -74,-34 -74,-74 0,-41 33,-74 74,-74z"/>
  <path class="fil0" d="M2172 948c81,0 147,66 147,147 0,81 -66,147 -147,147 -81,0 -147,-66 -147,-147 0,-81 66,-147 147,-147zm0 73c41,0 74,33 74,74 0,41 -33,74 -74,74 -41,0 -74,-33 -74,-74 0,-41 33,-74 74,-74z"/>
  <polygon class="fil0" points="2005,886 2005,566 3027,566 3027,886 "/>
  <path class="fil0" d="M2850 918c71,10 127,56 145,121l32 -49 0 -72 -177 0z"/>
  <path class="fil0" d="M2207 918c57,8 118,65 135,120l313 3c15,-62 75,-119 141,-123l-590 0z"/>
  <path class="fil0" d="M1802 994l150 0 51 44c16,-64 83,-117 136,-120l-592 0c82,24 125,104 122,172l133 -96z"/>
  <path class="fil0" d="M3106 163l0 -7 0 -6 -1 -6 -1 -6 -1 -6 -2 -5 -2 -5 -2 -5 -2 -5 -3 -5 -3 -5 -3 -5 -3 -5 -3 -4 -4 -4 -4 -4 -4 -4 -4 -4 -4 -3 -5 -3 -5 -3 -5 -3 -5 -3 -5 -2 -5 -2 -5 -2 -5 -2 -6 -1 -6 -1 -6 -1 -6 0 -7 0 -2826 0 -7 0 -6 0 -6 1 -6 1 -6 1 -5 2 -5 2 -5 2 -5 2 -5 3 -5 3 -5 3 -5 3 -4 3 -4 4 -4 4 -4 4 -4 4 -3 4 -3 5 -3 5 -3 5 -3 5 -2 5 -2 5 -2 5 -2 5 -1 6 -1 6 -1 6 0 6 0 7 0 1203 0 7 0 6 1 6 1 6 1 6 2 5 2 5 2 5 2 5 3 5 3 5 3 5 3 5 3 4 4 4 4 4 4 4 4 4 4 3 5 3 5 3 5 3 5 3 5 2 5 2 5 2 5 2 6 1 6 1 6 1 6 0 7 0 2826 0 7 0 6 0 6 -1 6 -1 6 -1 5 -2 5 -2 5 -2 5 -2 5 -3 5 -3 5 -3 5 -3 4 -3 4 -4 4 -4 4 -4 4 -4 3 -4 3 -5 3 -5 3 -5 3 -5 2 -5 2 -5 2 -5 2 -5 1 -6 1 -6 1 -6 0 -6 0 -7 0 -1203zm46 -1l0 -9 -1 -8 -1 -8 -1 -8 -2 -8 -2 -8 -3 -8 -3 -7 -3 -7 -4 -7 -4 -7 -4 -7 -5 -6 -5 -6 -5 -6 -5 -6 -6 -5 -6 -5 -6 -5 -6 -5 -7 -4 -7 -4 -7 -4 -7 -3 -7 -3 -8 -3 -8 -2 -8 -2 -8 -1 -8 -1 -8 -1 -9 0 -2827 0 -9 0 -8 1 -8 1 -8 1 -8 2 -8 2 -8 3 -7 3 -7 3 -7 4 -7 4 -7 4 -6 5 -6 5 -6 5 -6 5 -5 6 -5 6 -5 6 -5 6 -4 7 -4 7 -4 7 -3 7 -3 7 -3 8 -2 8 -2 8 -1 8 -1 8 -1 8 0 9 0 1204 0 9 1 8 1 8 1 8 2 8 2 8 3 8 3 7 3 7 4 7 4 7 4 7 5 6 5 6 5 6 5 6 6 5 6 5 6 5 6 5 7 4 7 4 7 4 7 3 7 3 8 3 8 2 8 2 8 1 8 1 8 1 9 0 2827 0 9 0 8 -1 8 -1 8 -1 8 -2 8 -2 8 -3 7 -3 7 -3 7 -4 7 -4 7 -4 6 -5 6 -5 6 -5 6 -5 5 -6 5 -6 5 -6 5 -6 4 -7 4 -7 4 -7 3 -7 3 -7 3 -8 2 -8 2 -8 1 -8 1 -8 1 -8 0 -9 0 -1204z"/>
 </g>
</svg>
