<?xml version="1.0" encoding="UTF-8"?>
<!DOCTYPE svg PUBLIC "-//W3C//DTD SVG 1.1//EN" "http://www.w3.org/Graphics/SVG/1.1/DTD/svg11.dtd">
<!-- Creator: CorelDRAW X6 -->
<svg xmlns="http://www.w3.org/2000/svg" xml:space="preserve" width="42.2999mm" height="20.5279mm" version="1.1" style="shape-rendering:geometricPrecision; text-rendering:geometricPrecision; image-rendering:optimizeQuality; fill-rule:evenodd; clip-rule:evenodd"
viewBox="0 0 3404 1652"
 xmlns:xlink="http://www.w3.org/1999/xlink">
 <defs>
  <style type="text/css">
   <![CDATA[
    .fil0 {fill:#212220}
   ]]>
  </style>
 </defs>
 <g id="Layer_x0020_1">
  <metadata id="CorelCorpID_0Corel-Layer"/>
  <path class="fil0" d="M2428 888c122,0 221,99 221,221 0,122 -99,221 -221,221 -122,0 -221,-99 -221,-221 0,-122 99,-221 221,-221zm2 106c65,0 118,53 118,118 0,65 -53,118 -118,118 -65,0 -118,-53 -118,-118 0,-65 53,-118 118,-118z"/>
  <path class="fil0" d="M947 885c122,0 221,99 221,221 0,122 -99,221 -221,221 -122,0 -221,-99 -221,-221 0,-122 99,-221 221,-221zm2 106c65,0 118,53 118,118 0,65 -53,118 -118,118 -65,0 -118,-53 -118,-118 0,-65 53,-118 118,-118z"/>
  <path class="fil0" d="M828 886c-112,58 -125,119 -135,221l-191 -38 -65 -93 0 -91 391 1z"/>
  <path class="fil0" d="M2536 886l622 -1 -152 207 -323 31c-14,-131 -43,-183 -146,-237z"/>
  <path class="fil0" d="M2310 885c-73,31 -150,119 -137,235l-970 1c1,-112 -34,-169 -130,-236l1237 1z"/>
  <path class="fil0" d="M3157 846l-61 -163 -544 1 -281 -345 -825 0 -317 341 -645 103 -27 64 2700 -1zm-768 -164l-214 -283 -314 1 0 282 528 -1zm-586 2l1 -285 -341 1c-85,95 -175,185 -257,284l598 0z"/>
  <path class="fil0" d="M3354 176l0 -8 0 -6 -1 -6 -1 -6 -1 -6 -2 -6 -2 -6 -2 -6 -2 -6 -3 -5 -3 -5 -3 -5 -4 -5 -4 -5 -4 -5 -4 -4 -4 -4 -5 -4 -5 -4 -5 -3 -5 -3 -5 -3 -5 -3 -6 -2 -6 -2 -6 -2 -6 -2 -6 -1 -6 -1 -6 -1 -6 0 -8 0 -3051 0 -8 0 -6 0 -6 1 -6 1 -6 1 -6 2 -6 2 -6 2 -6 2 -5 3 -5 3 -5 3 -5 3 -5 4 -5 4 -4 4 -4 4 -4 5 -4 5 -4 5 -3 5 -3 5 -3 5 -2 6 -2 6 -2 6 -2 6 -1 6 -1 6 -1 6 0 6 0 8 0 1299 0 8 0 6 1 6 1 6 1 6 2 6 2 6 2 6 2 6 3 5 3 5 3 5 4 5 4 5 4 5 4 4 4 4 5 4 5 4 5 4 5 3 5 3 5 3 6 2 6 2 6 2 6 2 6 1 6 1 6 1 6 0 8 0 3051 0 8 0 6 0 6 -1 6 -1 6 -1 6 -2 6 -2 6 -2 6 -2 5 -3 5 -3 5 -3 5 -4 5 -4 5 -4 4 -4 4 -4 4 -5 4 -5 4 -5 3 -5 3 -5 3 -5 2 -6 2 -6 2 -6 2 -6 1 -6 1 -6 1 -6 0 -6 0 -8 0 -1299zm50 -1l0 -10 -1 -9 -1 -9 -2 -9 -2 -8 -2 -8 -3 -8 -3 -8 -4 -8 -4 -8 -4 -7 -5 -7 -5 -7 -5 -7 -6 -6 -6 -6 -6 -6 -6 -6 -7 -5 -7 -5 -7 -5 -7 -4 -8 -4 -8 -4 -8 -3 -8 -3 -8 -2 -8 -2 -9 -2 -9 -1 -9 -1 -10 0 -3052 0 -10 0 -9 1 -9 1 -9 2 -8 2 -8 2 -8 3 -8 3 -8 4 -8 4 -7 4 -7 5 -7 5 -7 5 -6 6 -6 6 -6 6 -6 6 -5 7 -5 7 -5 7 -4 7 -4 8 -4 8 -3 8 -3 8 -2 8 -2 8 -2 9 -1 9 -1 9 0 10 0 1300 0 10 1 9 1 9 2 9 2 8 2 8 3 8 3 8 4 8 4 8 4 7 5 7 5 7 5 7 6 6 6 6 6 6 6 6 7 5 7 5 7 5 7 4 8 4 8 4 8 3 8 3 8 2 8 2 9 2 9 1 9 1 10 0 3052 0 10 0 9 -1 9 -1 9 -2 8 -2 8 -2 8 -3 8 -3 8 -4 8 -4 7 -4 7 -5 7 -5 7 -5 6 -6 6 -6 6 -6 6 -6 5 -7 5 -7 5 -7 4 -7 4 -8 4 -8 3 -8 3 -8 2 -8 2 -8 2 -9 1 -9 1 -9 0 -10 0 -1300z"/>
 </g>
</svg>
