<?xml version="1.0" encoding="UTF-8"?>
<!DOCTYPE svg PUBLIC "-//W3C//DTD SVG 1.1//EN" "http://www.w3.org/Graphics/SVG/1.1/DTD/svg11.dtd">
<!-- Creator: CorelDRAW X6 -->
<svg xmlns="http://www.w3.org/2000/svg" xml:space="preserve" width="42.3mm" height="20.5279mm" version="1.1" style="shape-rendering:geometricPrecision; text-rendering:geometricPrecision; image-rendering:optimizeQuality; fill-rule:evenodd; clip-rule:evenodd"
viewBox="0 0 1150 558"
 xmlns:xlink="http://www.w3.org/1999/xlink">
 <defs>
  <style type="text/css">
   <![CDATA[
    .fil0 {fill:#212220}
   ]]>
  </style>
 </defs>
 <g id="Layer_x0020_1">
  <metadata id="CorelCorpID_0Corel-Layer"/>
  <path class="fil0" d="M787 360c37,0 67,29 67,66 0,36 -30,66 -67,66 -37,0 -67,-30 -67,-66 0,-36 30,-66 67,-66m1 34c18,0 32,14 32,32 0,17 -15,32 -32,32 -18,0 -32,-14 -32,-32 0,-17 14,-32 32,-32m-488 0c18,0 33,14 33,32 0,18 -15,32 -33,32 -18,0 -33,-14 -33,-32 0,-18 14,-32 33,-32m1 -34c37,0 68,30 68,66 0,37 -30,66 -68,66 -37,0 -67,-30 -67,-66 0,-37 30,-66 67,-66m34 -110l-165 0 71 -122 94 0 0 122zm159 0l-134 0 0 -122 135 0 0 121zm158 0l-135 0 0 -122 135 0 0 121zm152 0l-129 0 0 -122 129 0 0 122zm157 0l-136 0 0 -122 137 0 0 121zm47 146l-81 30 -56 0c3,-38 -30,-83 -83,-83 -49,1 -81,37 -84,83l-321 0c0,-43 -34,-82 -83,-82 -48,1 -83,39 -83,82l-41 0c-17,0 -36,-15 -36,-35l0 -140 71 -122c5,-9 13,-24 34,-24l732 0c12,-1 32,12 31,33m0 0l0 259"/>
  <path class="fil0" d="M1133 60l0 -3 0 -2 0 -2 0 -2 0 -2 -1 -2 -1 -2 -1 -2 -1 -2 -1 -2 -1 -2 -1 -2 -1 -2 -1 -2 -1 -2 -1 -1 -1 -1 -2 -1 -2 -1 -2 -1 -2 -1 -2 -1 -2 -1 -2 -1 -2 -1 -2 -1 -2 -1 -2 0 -2 0 -2 0 -2 0 -3 0 -1031 0 -3 0 -2 0 -2 0 -2 0 -2 0 -2 1 -2 1 -2 1 -2 1 -2 1 -2 1 -2 1 -2 1 -2 1 -2 1 -1 1 -1 1 -1 2 -1 2 -1 2 -1 2 -1 2 -1 2 -1 2 -1 2 -1 2 -1 2 0 2 0 2 0 2 0 2 0 3 0 439 0 3 0 2 0 2 0 2 0 2 1 2 1 2 1 2 1 2 1 2 1 2 1 2 1 2 1 2 1 2 1 1 1 1 2 1 2 1 2 1 2 1 2 1 2 1 2 1 2 1 2 1 2 1 2 0 2 0 2 0 2 0 3 0 1031 0 3 0 2 0 2 0 2 0 2 0 2 -1 2 -1 2 -1 2 -1 2 -1 2 -1 2 -1 2 -1 2 -1 2 -1 1 -1 1 -1 1 -2 1 -2 1 -2 1 -2 1 -2 1 -2 1 -2 1 -2 1 -2 1 -2 0 -2 0 -2 0 -2 0 -2 0 -3 0 -439zm17 0l0 -3 0 -3 0 -3 -1 -3 -1 -3 -1 -3 -1 -3 -1 -3 -1 -3 -1 -3 -1 -2 -2 -2 -2 -2 -2 -2 -2 -2 -2 -2 -2 -2 -2 -2 -2 -2 -2 -2 -2 -2 -2 -1 -3 -1 -3 -1 -3 -1 -3 -1 -3 -1 -3 -1 -3 -1 -3 0 -3 0 -3 0 -1031 0 -3 0 -3 0 -3 0 -3 1 -3 1 -3 1 -3 1 -3 1 -3 1 -3 1 -2 1 -2 2 -2 2 -2 2 -2 2 -2 2 -2 2 -2 2 -2 2 -2 2 -2 2 -1 2 -1 3 -1 3 -1 3 -1 3 -1 3 -1 3 -1 3 0 3 0 3 0 3 0 439 0 3 0 3 0 3 1 3 1 3 1 3 1 3 1 3 1 3 1 3 1 2 2 2 2 2 2 2 2 2 2 2 2 2 2 2 2 2 2 2 2 2 2 1 3 1 3 1 3 1 3 1 3 1 3 1 3 1 3 0 3 0 3 0 1031 0 3 0 3 0 3 0 3 -1 3 -1 3 -1 3 -1 3 -1 3 -1 3 -1 2 -1 2 -2 2 -2 2 -2 2 -2 2 -2 2 -2 2 -2 2 -2 2 -2 2 -2 1 -2 1 -3 1 -3 1 -3 1 -3 1 -3 1 -3 1 -3 0 -3 0 -3 0 -3 0 -439z"/>
 </g>
</svg>
