<?xml version="1.0" encoding="UTF-8"?>
<!DOCTYPE svg PUBLIC "-//W3C//DTD SVG 1.1//EN" "http://www.w3.org/Graphics/SVG/1.1/DTD/svg11.dtd">
<!-- Creator: CorelDRAW X6 -->
<svg xmlns="http://www.w3.org/2000/svg" xml:space="preserve" width="42.3mm" height="20.5279mm" version="1.1" style="shape-rendering:geometricPrecision; text-rendering:geometricPrecision; image-rendering:optimizeQuality; fill-rule:evenodd; clip-rule:evenodd"
viewBox="0 0 2196 1066"
 xmlns:xlink="http://www.w3.org/1999/xlink">
 <defs>
  <style type="text/css">
   <![CDATA[
    .fil0 {fill:#212220}
   ]]>
  </style>
 </defs>
 <g id="Layer_x0020_1">
  <metadata id="CorelCorpID_0Corel-Layer"/>
  <path class="fil0" d="M2164 114l0 -5 0 -4 -1 -4 -1 -4 -1 -4 -1 -4 -1 -4 -1 -4 -2 -4 -2 -3 -2 -3 -2 -3 -2 -3 -2 -3 -3 -3 -3 -3 -3 -3 -3 -3 -3 -2 -3 -2 -3 -2 -3 -2 -3 -2 -4 -2 -4 -1 -4 -1 -4 -1 -4 -1 -4 -1 -4 -1 -4 0 -5 0 -1968 0 -5 0 -4 0 -4 1 -4 1 -4 1 -4 1 -4 1 -4 1 -4 2 -3 2 -3 2 -3 2 -3 2 -3 2 -3 3 -3 3 -3 3 -3 3 -2 3 -2 3 -2 3 -2 3 -2 3 -2 4 -1 4 -1 4 -1 4 -1 4 -1 4 -1 4 0 4 0 5 0 838 0 5 0 4 1 4 1 4 1 4 1 4 1 4 1 4 2 4 2 3 2 3 2 3 2 3 2 3 3 3 3 3 3 3 3 3 3 2 3 2 3 2 3 2 3 2 4 2 4 1 4 1 4 1 4 1 4 1 4 1 4 0 5 0 1968 0 5 0 4 0 4 -1 4 -1 4 -1 4 -1 4 -1 4 -1 4 -2 3 -2 3 -2 3 -2 3 -2 3 -2 3 -3 3 -3 3 -3 3 -3 2 -3 2 -3 2 -3 2 -3 2 -3 2 -4 1 -4 1 -4 1 -4 1 -4 1 -4 1 -4 0 -4 0 -5 0 -838zm32 0l0 -6 0 -6 -1 -6 -1 -6 -1 -5 -2 -5 -2 -5 -2 -5 -2 -5 -2 -5 -3 -5 -3 -5 -3 -4 -3 -4 -4 -4 -4 -4 -4 -4 -4 -4 -4 -3 -4 -3 -5 -3 -5 -3 -5 -2 -5 -2 -5 -2 -5 -2 -5 -2 -5 -1 -6 -1 -6 -1 -6 0 -6 0 -1969 0 -6 0 -6 0 -6 1 -6 1 -5 1 -5 2 -5 2 -5 2 -5 2 -5 2 -5 3 -5 3 -4 3 -4 3 -4 4 -4 4 -4 4 -4 4 -3 4 -3 4 -3 5 -3 5 -2 5 -2 5 -2 5 -2 5 -2 5 -1 5 -1 6 -1 6 0 6 0 6 0 839 0 6 0 6 1 6 1 6 1 5 2 5 2 5 2 5 2 5 2 5 3 5 3 5 3 4 3 4 4 4 4 4 4 4 4 4 4 3 4 3 5 3 5 3 5 2 5 2 5 2 5 2 5 2 5 1 6 1 6 1 6 0 6 0 1969 0 6 0 6 0 6 -1 6 -1 5 -1 5 -2 5 -2 5 -2 5 -2 5 -2 5 -3 5 -3 4 -3 4 -3 4 -4 4 -4 4 -4 4 -4 3 -4 3 -4 3 -5 3 -5 2 -5 2 -5 2 -5 2 -5 2 -5 1 -5 1 -6 1 -6 0 -6 0 -6 0 -839z"/>
  <path class="fil0" d="M1782 560c-84,-74 -177,-72 -261,-59 -52,8 -110,45 -139,77 -35,41 -56,99 -59,153l-1 56 -326 -9c-37,-3 -55,-40 -74,-72l-146 -231 -69 105c47,41 76,95 75,157 -5,118 -103,201 -216,191 -98,-14 -166,-75 -177,-192 3,-62 26,-114 68,-151 45,-37 107,-58 173,-42l-34 59c-25,-4 -55,3 -81,18 -71,39 -90,156 -16,216 67,50 148,35 195,-31 37,-53 21,-133 -22,-169l-32 54c21,29 15,71 -7,91 -25,24 -64,33 -101,1 -24,-25 -28,-64 -9,-90 14,-27 52,-36 71,-31l137 -241c-1,-54 15,-110 40,-158l119 18c64,8 197,32 217,117 22,39 42,89 89,99 135,45 367,-27 487,-101l123 140 -25 25zm-140 -235c-204,70 -333,69 -521,24 31,51 53,113 124,122l3 3c133,12 304,-41 418,-103l-23 -45zm-140 365l-66 0c29,-89 140,-120 209,-63 35,30 49,54 52,106 0,53 -51,141 -154,127 -56,-9 -85,-42 -101,-88l63 -1c43,51 129,27 129,-47 -6,-46 -38,-65 -67,-68 -26,-3 -54,13 -65,32zm45 239c-80,-5 -157,-72 -172,-149 -21,-99 24,-189 120,-229 181,-65 326,128 244,273 -44,66 -88,107 -191,104m-962 -622c-15,25 -18,52 -19,82 -3,19 -3,23 11,37l123 7 9 -90c16,-60 52,-135 105,-206 -12,-2 -23,-1 -36,0l-192 170zm320 259l-67 -110 131 29 -64 82z"/>
 </g>
</svg>
