<?xml version="1.0" encoding="UTF-8"?>
<!DOCTYPE svg PUBLIC "-//W3C//DTD SVG 1.1//EN" "http://www.w3.org/Graphics/SVG/1.1/DTD/svg11.dtd">
<!-- Creator: CorelDRAW X6 -->
<svg xmlns="http://www.w3.org/2000/svg" xml:space="preserve" width="42.3mm" height="20.5279mm" version="1.1" style="shape-rendering:geometricPrecision; text-rendering:geometricPrecision; image-rendering:optimizeQuality; fill-rule:evenodd; clip-rule:evenodd"
viewBox="0 0 7274 3530"
 xmlns:xlink="http://www.w3.org/1999/xlink">
 <defs>
  <style type="text/css">
   <![CDATA[
    .fil0 {fill:#212220}
   ]]>
  </style>
 </defs>
 <g id="Layer_x0020_1">
  <metadata id="CorelCorpID_0Corel-Layer"/>
  <path class="fil0" d="M4956 1551l0 0 -288 -478 63 -133 62 -1c64,-47 126,-93 161,-156 35,-60 24,-101 -34,-104l-334 4 -247 3c-43,0 -70,15 -92,40l-45 95 384 120 -60 107 -1478 0 85 -179 -374 -195c-18,-7 -58,-41 -46,-81 10,-29 39,-41 63,-36l362 63c42,3 62,-13 74,-43 4,-40 -4,-65 -48,-82l-362 -62c-66,-11 -134,20 -168,58 -37,43 -68,90 -48,191 16,48 56,98 117,124l244 128 -234 467 -75 152c-110,-56 -235,-87 -367,-87 -451,0 -817,366 -817,817 0,451 366,817 817,817 451,0 817,-366 817,-817 0,-270 -131,-509 -333,-658l2 -4 0 0 12 -24 0 0 44 -89 972 705c-10,63 -9,121 26,175 57,83 106,115 210,125l398 -45 0 0 103 -12 0 1 1 0c80,367 407,642 798,642 451,0 817,-366 817,-817 0,-451 -366,-817 -817,-817 -131,0 -255,31 -365,86l-1 -1zm-283 892l112 -10 0 0 0 0 546 -50c61,-4 99,-47 103,-99 4,-51 -31,-108 -102,-115l-248 -405 0 0 0 0 -51 -83c87,-42 185,-66 289,-66 369,0 669,299 669,669 0,369 -299,669 -669,669 -314,0 -577,-217 -649,-509zm-143 -362c47,-183 155,-342 303,-452l-242 -401 -396 817 335 37zm149 16c39,-137 121,-255 230,-341l236 392 -466 -51zm-799 -28l-996 -705 87 -174 1499 -2 -413 839c-69,-12 -128,0 -177,41zm-1307 -383l-24 48 -93 190c-36,70 -87,212 -160,234 -29,11 -46,-6 -84,11 -55,29 -77,80 -62,131 14,40 40,71 99,80 69,0 123,-65 108,-135 93,-33 181,-193 251,-317l60 -118 0 0 23 -48c152,123 250,310 250,521 0,369 -299,669 -669,669 -369,0 -669,-299 -669,-669 0,-369 299,-669 669,-669 109,0 211,26 302,72z"/>
  <path class="fil0" d="M7167 377l0 -17 -1 -14 -2 -13 -2 -13 -3 -13 -4 -13 -4 -12 -5 -12 -5 -12 -6 -12 -6 -11 -7 -11 -7 -10 -8 -10 -8 -10 -9 -9 -9 -9 -10 -8 -10 -8 -11 -7 -11 -7 -11 -6 -12 -6 -12 -5 -12 -5 -12 -4 -13 -4 -13 -3 -13 -2 -13 -2 -14 -1 -17 0 -6519 0 -17 0 -14 1 -13 2 -13 2 -13 3 -13 4 -12 4 -12 5 -12 5 -12 6 -11 6 -11 7 -11 7 -10 8 -10 8 -9 9 -9 9 -8 10 -8 10 -7 10 -7 11 -6 11 -6 12 -5 12 -5 12 -4 12 -4 13 -3 13 -2 13 -2 13 -1 14 0 17 0 2776 0 17 1 14 2 13 2 13 3 13 4 13 4 12 5 12 5 12 6 12 6 11 7 11 7 11 8 10 8 10 9 9 9 9 10 8 10 8 11 7 11 7 11 6 11 6 12 5 12 5 12 4 13 4 13 3 13 2 13 2 14 1 17 0 6519 0 17 0 14 -1 13 -2 13 -2 13 -3 13 -4 12 -4 12 -5 12 -5 12 -6 11 -6 11 -7 11 -7 10 -8 10 -8 9 -9 9 -9 8 -10 8 -10 7 -11 7 -11 6 -11 6 -12 5 -12 5 -12 4 -12 4 -13 3 -13 2 -13 2 -13 1 -14 0 -17 0 -2776zm107 -1l-1 -21 -1 -19 -2 -19 -3 -18 -4 -18 -5 -18 -6 -17 -7 -17 -7 -17 -8 -16 -9 -16 -10 -15 -10 -15 -11 -14 -12 -14 -12 -13 -13 -12 -14 -12 -14 -11 -15 -10 -15 -10 -16 -9 -16 -8 -17 -7 -17 -7 -17 -6 -18 -5 -18 -4 -18 -3 -19 -2 -19 -1 -21 -1 -6522 0 -21 1 -19 1 -19 2 -18 3 -18 4 -18 5 -17 6 -17 7 -17 7 -16 8 -16 9 -15 10 -15 10 -14 11 -14 12 -13 12 -12 13 -12 14 -11 14 -10 15 -10 15 -9 16 -8 16 -7 17 -7 17 -6 17 -5 18 -4 18 -3 18 -2 19 -1 19 -1 21 0 2778 1 21 1 19 2 19 3 18 4 18 5 18 6 17 7 17 7 17 8 16 9 16 10 15 10 15 11 14 12 14 12 13 13 12 14 12 14 11 15 10 15 10 16 9 16 8 17 7 17 7 17 6 18 5 18 4 18 3 19 2 19 1 21 1 6522 0 21 -1 19 -1 19 -2 18 -3 18 -4 18 -5 17 -6 17 -7 17 -7 16 -8 16 -9 15 -10 15 -10 14 -11 14 -12 13 -12 12 -13 12 -14 11 -14 10 -15 10 -15 9 -16 8 -16 7 -17 7 -17 6 -17 5 -18 4 -18 3 -18 2 -19 1 -19 1 -21 0 -2778z"/>
 </g>
</svg>
