<?xml version="1.0" encoding="UTF-8"?>
<!DOCTYPE svg PUBLIC "-//W3C//DTD SVG 1.1//EN" "http://www.w3.org/Graphics/SVG/1.1/DTD/svg11.dtd">
<!-- Creator: CorelDRAW X6 -->
<svg xmlns="http://www.w3.org/2000/svg" xml:space="preserve" width="42.3mm" height="20.5279mm" version="1.1" style="shape-rendering:geometricPrecision; text-rendering:geometricPrecision; image-rendering:optimizeQuality; fill-rule:evenodd; clip-rule:evenodd"
viewBox="0 0 3143 1525"
 xmlns:xlink="http://www.w3.org/1999/xlink">
 <defs>
  <style type="text/css">
   <![CDATA[
    .fil1 {fill:#212220}
    .fil0 {fill:red;fill-rule:nonzero}
   ]]>
  </style>
 </defs>
 <g id="Layer_x0020_1">
  <metadata id="CorelCorpID_0Corel-Layer"/>
  <path class="fil0" d="M1709 454c1,48 -25,86 -48,104 -27,32 -63,71 -71,111 -4,19 -3,39 1,59 17,-6 33,-15 47,-29 38,-28 71,-92 70,-124 12,-36 28,-67 62,-87 68,-42 149,-23 191,47 33,74 19,146 -54,187 -39,22 -76,20 -111,9 -31,-10 -87,-13 -131,-1 -17,8 -33,13 -54,32 19,17 31,27 53,35 52,11 86,11 136,-6 28,-9 76,-10 108,12 61,32 86,112 58,176 -38,70 -116,104 -198,57 -33,-19 -56,-63 -61,-94 -9,-46 -37,-95 -65,-122 -19,-16 -29,-18 -50,-23 -4,23 -5,28 -2,48 5,38 32,101 75,123 27,32 42,51 44,93 7,87 -65,147 -134,147 -93,-1 -140,-76 -135,-149 1,-43 10,-54 41,-86 40,-32 63,-85 72,-129 4,-20 3,-27 0,-48 -23,4 -31,9 -45,16 -36,30 -59,60 -69,117 -4,37 -26,87 -56,102 -71,56 -175,22 -206,-52 -25,-49 -8,-138 50,-169 26,-15 76,-31 110,-19 40,17 118,12 158,-3 17,-5 23,-11 38,-25 -11,-10 -21,-17 -33,-23 -77,-30 -137,-8 -196,1 -85,-4 -135,-62 -138,-138 3,-84 69,-138 137,-135 75,-1 128,61 134,112 6,46 34,87 65,115 13,16 31,27 53,33 3,-20 3,-37 -1,-56 -17,-51 -36,-86 -72,-118 -22,-17 -45,-63 -44,-96 0,-81 63,-139 141,-139 67,0 131,58 131,137z"/>
  <path class="fil1" d="M3097 163l0 -7 0 -6 -1 -6 -1 -6 -1 -6 -2 -5 -2 -5 -2 -5 -2 -5 -3 -5 -3 -5 -3 -5 -3 -5 -3 -4 -4 -4 -4 -4 -4 -4 -4 -4 -4 -3 -5 -3 -5 -3 -5 -3 -5 -3 -5 -2 -5 -2 -5 -2 -5 -2 -6 -1 -6 -1 -6 -1 -6 0 -7 0 -2817 0 -7 0 -6 0 -6 1 -6 1 -6 1 -5 2 -5 2 -5 2 -5 2 -5 3 -5 3 -5 3 -5 3 -4 3 -4 4 -4 4 -4 4 -4 4 -3 4 -3 5 -3 5 -3 5 -3 5 -2 5 -2 5 -2 5 -2 5 -1 6 -1 6 -1 6 0 6 0 7 0 1199 0 7 0 6 1 6 1 6 1 6 2 5 2 5 2 5 2 5 3 5 3 5 3 5 3 5 3 4 4 4 4 4 4 4 4 4 4 3 5 3 5 3 5 3 5 3 5 2 5 2 5 2 5 2 6 1 6 1 6 1 6 0 7 0 2817 0 7 0 6 0 6 -1 6 -1 6 -1 5 -2 5 -2 5 -2 5 -2 5 -3 5 -3 5 -3 5 -3 4 -3 4 -4 4 -4 4 -4 4 -4 3 -4 3 -5 3 -5 3 -5 3 -5 2 -5 2 -5 2 -5 2 -5 1 -6 1 -6 1 -6 0 -6 0 -7 0 -1199zm46 -1l0 -9 -1 -8 -1 -8 -1 -8 -2 -8 -2 -8 -3 -7 -3 -7 -3 -7 -4 -7 -4 -7 -4 -7 -5 -6 -5 -6 -5 -6 -5 -6 -6 -5 -6 -5 -6 -5 -6 -5 -7 -4 -7 -4 -7 -4 -7 -3 -7 -3 -7 -3 -8 -2 -8 -2 -8 -1 -8 -1 -8 -1 -9 0 -2818 0 -9 0 -8 1 -8 1 -8 1 -8 2 -8 2 -8 3 -7 3 -7 3 -7 4 -7 4 -7 4 -6 5 -6 5 -6 5 -6 5 -5 6 -5 6 -5 6 -5 6 -4 7 -4 7 -4 7 -3 7 -3 7 -3 7 -2 8 -2 8 -1 8 -1 8 -1 8 0 9 0 1201 0 9 1 8 1 8 1 8 2 8 2 8 3 7 3 7 3 7 4 7 4 7 4 7 5 6 5 6 5 6 5 6 6 5 6 5 6 5 6 5 7 4 7 4 7 4 7 3 7 3 7 3 8 2 8 2 8 1 8 1 8 1 9 0 2818 0 9 0 8 -1 8 -1 8 -1 8 -2 8 -2 7 -3 7 -3 7 -3 7 -4 7 -4 7 -4 6 -5 6 -5 6 -5 6 -5 5 -6 5 -6 5 -6 5 -6 4 -7 4 -7 4 -7 3 -7 3 -7 3 -7 2 -8 2 -8 1 -8 1 -8 1 -8 0 -9 0 -1201z"/>
 </g>
</svg>
