<?xml version="1.0" encoding="UTF-8"?>
<!DOCTYPE svg PUBLIC "-//W3C//DTD SVG 1.1//EN" "http://www.w3.org/Graphics/SVG/1.1/DTD/svg11.dtd">
<!-- Creator: CorelDRAW X6 -->
<svg xmlns="http://www.w3.org/2000/svg" xml:space="preserve" width="42.3mm" height="20.5279mm" version="1.1" style="shape-rendering:geometricPrecision; text-rendering:geometricPrecision; image-rendering:optimizeQuality; fill-rule:evenodd; clip-rule:evenodd"
viewBox="0 0 3699 1795"
 xmlns:xlink="http://www.w3.org/1999/xlink">
 <defs>
  <style type="text/css">
   <![CDATA[
    .fil0 {fill:#212220}
    .fil1 {fill:#2B2A29;fill-rule:nonzero}
   ]]>
  </style>
 </defs>
 <g id="Layer_x0020_1">
  <metadata id="CorelCorpID_0Corel-Layer"/>
  <path class="fil0" d="M3644 192l0 -8 -1 -7 -1 -7 -1 -7 -2 -7 -2 -6 -2 -6 -2 -6 -3 -6 -3 -6 -3 -6 -4 -6 -4 -5 -4 -5 -4 -5 -5 -5 -5 -5 -5 -4 -5 -4 -5 -4 -6 -4 -6 -3 -6 -3 -6 -3 -6 -2 -6 -2 -6 -2 -7 -2 -7 -1 -7 -1 -7 -1 -8 0 -3315 0 -8 0 -7 1 -7 1 -7 1 -7 2 -6 2 -6 2 -6 2 -6 3 -6 3 -6 3 -6 4 -5 4 -5 4 -5 4 -5 5 -5 5 -4 5 -4 5 -4 5 -4 6 -3 6 -3 6 -3 6 -2 6 -2 6 -2 6 -2 7 -1 7 -1 7 -1 7 0 8 0 1411 0 8 1 7 1 7 1 7 2 7 2 6 2 6 2 6 3 6 3 6 3 6 4 6 4 5 4 5 4 5 5 5 5 5 5 4 5 4 5 4 6 4 6 3 6 3 6 3 6 2 6 2 6 2 7 2 7 1 7 1 7 1 8 0 3315 0 8 0 7 -1 7 -1 7 -1 7 -2 6 -2 6 -2 6 -2 6 -3 6 -3 6 -3 6 -4 5 -4 5 -4 5 -4 5 -5 5 -5 4 -5 4 -5 4 -5 4 -6 3 -6 3 -6 3 -6 2 -6 2 -6 2 -6 2 -7 1 -7 1 -7 1 -7 0 -8 0 -1411zm54 -1l0 -11 -1 -10 -1 -10 -2 -9 -2 -9 -3 -9 -3 -9 -3 -9 -4 -8 -4 -8 -5 -8 -5 -8 -5 -7 -6 -7 -6 -7 -6 -7 -7 -6 -7 -6 -7 -6 -7 -5 -8 -5 -8 -5 -8 -4 -8 -4 -9 -3 -9 -3 -9 -3 -9 -2 -9 -2 -10 -1 -10 -1 -11 0 -3317 0 -11 0 -10 1 -10 1 -9 2 -9 2 -9 3 -9 3 -9 3 -8 4 -8 4 -8 5 -8 5 -7 5 -7 6 -7 6 -7 6 -6 7 -6 7 -6 7 -5 7 -5 8 -5 8 -4 8 -4 8 -3 9 -3 9 -3 9 -2 9 -2 9 -1 10 -1 10 0 11 0 1413 0 11 1 10 1 10 2 9 2 9 3 9 3 9 3 9 4 8 4 8 5 8 5 8 5 7 6 7 6 7 6 7 7 6 7 6 7 6 7 5 8 5 8 5 8 4 8 4 9 3 9 3 9 3 9 2 9 2 10 1 10 1 11 0 3317 0 11 0 10 -1 10 -1 9 -2 9 -2 9 -3 9 -3 9 -3 8 -4 8 -4 8 -5 8 -5 7 -5 7 -6 7 -6 7 -6 6 -7 6 -7 6 -7 5 -7 5 -8 5 -8 4 -8 4 -8 3 -9 3 -9 3 -9 2 -9 2 -9 1 -10 1 -10 0 -11 0 -1413z"/>
  <path class="fil1" d="M198 1235l0 -91 263 -330c10,-13 17,-25 20,-36 3,-11 5,-21 5,-31 0,-23 -8,-45 -25,-65 -17,-20 -39,-30 -68,-30 -26,0 -49,9 -67,26 -19,17 -29,41 -31,71l-97 0c0,-55 19,-100 56,-138 37,-37 81,-56 132,-56 56,0 103,19 140,57 37,38 56,83 56,137 0,46 -13,85 -40,118l-217 272 257 0 0 96 -384 0zm454 0l0 -91 263 -330c10,-13 17,-25 20,-36 3,-11 5,-21 5,-31 0,-23 -8,-45 -25,-65 -17,-20 -39,-30 -68,-30 -26,0 -49,9 -67,26 -19,17 -29,41 -31,71l-97 0c0,-55 19,-100 56,-138 37,-37 81,-56 132,-56 56,0 103,19 140,57 37,38 56,83 56,137 0,46 -13,85 -40,118l-217 272 257 0 0 96 -384 0zm433 0l0 -96 97 0 0 96 -97 0zm387 -133l0 -196c0,-22 -6,-39 -18,-52 -12,-12 -28,-19 -47,-19 -20,0 -35,6 -47,19 -12,13 -18,30 -18,52l0 196c0,22 6,40 18,52 12,12 28,19 47,19 19,0 35,-6 47,-19 12,-12 18,-30 18,-52zm-196 4l0 -204c0,-43 13,-75 40,-98 27,-23 57,-35 91,-35 34,0 64,12 91,35 27,23 40,56 40,98l0 204c0,42 -13,75 -40,98 -27,23 -57,35 -91,35 -34,0 -65,-11 -91,-35 -27,-23 -40,-56 -40,-98zm508 -4l0 -196c0,-22 -6,-39 -18,-52 -12,-12 -28,-19 -47,-19 -20,0 -35,6 -47,19 -12,13 -18,30 -18,52l0 196c0,22 6,40 18,52 12,12 28,19 47,19 19,0 35,-6 47,-19 12,-12 18,-30 18,-52zm-196 4l0 -204c0,-43 13,-75 40,-98 27,-23 57,-35 91,-35 34,0 64,12 91,35 27,23 40,56 40,98l0 204c0,42 -13,75 -40,98 -27,23 -57,35 -91,35 -34,0 -65,-11 -91,-35 -27,-23 -40,-56 -40,-98zm380 -84l0 -97 285 0 0 97 -285 0zm364 -266l0 -194 383 0 0 97 -228 577 -108 0 228 -577 -179 0 0 97 -97 0zm329 480l0 -96 97 0 0 96 -97 0zm416 -133l0 -196c0,-22 -6,-39 -18,-52 -12,-12 -28,-19 -47,-19 -20,0 -35,6 -47,19 -12,13 -18,30 -18,52l0 196c0,22 6,40 18,52 12,12 28,19 47,19 19,0 35,-6 47,-19 12,-12 18,-30 18,-52zm-196 4l0 -204c0,-43 13,-75 40,-98 27,-23 57,-35 91,-35 34,0 64,12 91,35 27,23 40,56 40,98l0 204c0,42 -13,75 -40,98 -27,23 -57,35 -91,35 -34,0 -65,-11 -91,-35 -27,-23 -40,-56 -40,-98zm508 -4l0 -196c0,-22 -6,-39 -18,-52 -12,-12 -28,-19 -47,-19 -20,0 -35,6 -47,19 -12,13 -18,30 -18,52l0 196c0,22 6,40 18,52 12,12 28,19 47,19 19,0 35,-6 47,-19 12,-12 18,-30 18,-52zm-196 4l0 -204c0,-43 13,-75 40,-98 27,-23 57,-35 91,-35 34,0 64,12 91,35 27,23 40,56 40,98l0 204c0,42 -13,75 -40,98 -27,23 -57,35 -91,35 -34,0 -65,-11 -91,-35 -27,-23 -40,-56 -40,-98z"/>
 </g>
</svg>
