<?xml version="1.0" encoding="UTF-8"?>
<!DOCTYPE svg PUBLIC "-//W3C//DTD SVG 1.1//EN" "http://www.w3.org/Graphics/SVG/1.1/DTD/svg11.dtd">
<!-- Creator: CorelDRAW X6 -->
<svg xmlns="http://www.w3.org/2000/svg" xml:space="preserve" width="42.3mm" height="20.5279mm" version="1.1" style="shape-rendering:geometricPrecision; text-rendering:geometricPrecision; image-rendering:optimizeQuality; fill-rule:evenodd; clip-rule:evenodd"
viewBox="0 0 1138 552"
 xmlns:xlink="http://www.w3.org/1999/xlink">
 <defs>
  <style type="text/css">
   <![CDATA[
    .fil0 {fill:#212220}
    .fil1 {fill:#2B2A29;fill-rule:nonzero}
   ]]>
  </style>
 </defs>
 <g id="Layer_x0020_1">
  <metadata id="CorelCorpID_0Corel-Layer"/>
  <path class="fil0" d="M1122 59l0 -3 0 -2 0 -2 0 -2 0 -2 -1 -2 -1 -2 -1 -2 -1 -2 -1 -2 -1 -2 -1 -2 -1 -2 -1 -2 -1 -2 -1 -1 -1 -1 -2 -1 -2 -1 -2 -1 -2 -1 -2 -1 -2 -1 -2 -1 -2 -1 -2 -1 -2 -1 -2 0 -2 0 -2 0 -2 0 -3 0 -1020 0 -3 0 -2 0 -2 0 -2 0 -2 0 -2 1 -2 1 -2 1 -2 1 -2 1 -2 1 -2 1 -2 1 -2 1 -2 1 -1 1 -1 1 -1 2 -1 2 -1 2 -1 2 -1 2 -1 2 -1 2 -1 2 -1 2 -1 2 0 2 0 2 0 2 0 2 0 3 0 434 0 3 0 2 0 2 0 2 0 2 1 2 1 2 1 2 1 2 1 2 1 2 1 2 1 2 1 2 1 2 1 1 1 1 2 1 2 1 2 1 2 1 2 1 2 1 2 1 2 1 2 1 2 1 2 0 2 0 2 0 2 0 3 0 1020 0 3 0 2 0 2 0 2 0 2 0 2 -1 2 -1 2 -1 2 -1 2 -1 2 -1 2 -1 2 -1 2 -1 2 -1 1 -1 1 -1 1 -2 1 -2 1 -2 1 -2 1 -2 1 -2 1 -2 1 -2 1 -2 1 -2 0 -2 0 -2 0 -2 0 -2 0 -3 0 -434zm17 0l0 -3 0 -3 0 -3 -1 -3 -1 -3 -1 -3 -1 -3 -1 -3 -1 -3 -1 -3 -1 -2 -2 -2 -2 -2 -2 -2 -2 -2 -2 -2 -2 -2 -2 -2 -2 -2 -2 -2 -2 -2 -2 -1 -3 -1 -3 -1 -3 -1 -3 -1 -3 -1 -3 -1 -3 -1 -3 0 -3 0 -3 0 -1021 0 -3 0 -3 0 -3 0 -3 1 -3 1 -3 1 -3 1 -3 1 -3 1 -3 1 -2 1 -2 2 -2 2 -2 2 -2 2 -2 2 -2 2 -2 2 -2 2 -2 2 -2 2 -1 2 -1 3 -1 3 -1 3 -1 3 -1 3 -1 3 -1 3 0 3 0 3 0 3 0 435 0 3 0 3 0 3 1 3 1 3 1 3 1 3 1 3 1 3 1 3 1 2 2 2 2 2 2 2 2 2 2 2 2 2 2 2 2 2 2 2 2 2 2 1 3 1 3 1 3 1 3 1 3 1 3 1 3 1 3 0 3 0 3 0 1021 0 3 0 3 0 3 0 3 -1 3 -1 3 -1 3 -1 3 -1 3 -1 3 -1 2 -1 2 -2 2 -2 2 -2 2 -2 2 -2 2 -2 2 -2 2 -2 2 -2 2 -2 1 -2 1 -3 1 -3 1 -3 1 -3 1 -3 1 -3 1 -3 0 -3 0 -3 0 -3 0 -435z"/>
  <polygon class="fil0" points="569,183 494,258 473,237 548,162 514,128 472,171 469,116 532,54 560,83 536,107 570,141 603,107 578,82 607,53 670,116 667,171 624,128 590,162 666,237 645,259 "/>
  <path class="fil1" d="M113 328c0,10 3,18 10,23 6,5 14,8 22,8 8,0 15,-3 22,-8 6,-5 10,-13 10,-23 0,-10 -3,-18 -10,-23 -6,-5 -14,-8 -22,-8 -8,0 -15,3 -22,8 -6,5 -10,13 -10,23zm-35 94c0,-21 9,-38 26,-49 -6,-6 -12,-12 -16,-19 -4,-7 -6,-15 -6,-25 0,-18 6,-32 18,-45 12,-12 27,-18 44,-18 18,0 32,6 44,18 12,12 18,27 18,45 0,10 -2,18 -6,25 -4,7 -9,13 -16,19 17,12 26,28 26,49 0,19 -7,35 -20,47 -13,12 -29,18 -47,18 -18,0 -34,-6 -47,-18 -13,-12 -20,-28 -20,-47zm31 0c0,10 4,18 11,25 7,7 15,10 25,10 9,0 17,-3 25,-10 7,-7 11,-15 11,-25 0,-10 -4,-18 -11,-25 -7,-7 -15,-10 -25,-10 -9,0 -18,3 -25,10 -7,7 -11,15 -11,25zm105 64l0 -31 31 0 0 31 -31 0zm125 -43l0 -63c0,-7 -2,-13 -6,-17 -4,-4 -9,-6 -15,-6 -6,0 -11,2 -15,6 -4,4 -6,10 -6,17l0 63c0,7 2,13 6,17 4,4 9,6 15,6 6,0 11,-2 15,-6 4,-4 6,-10 6,-17zm-63 1l0 -66c0,-14 4,-24 13,-32 9,-7 18,-11 29,-11 11,0 21,4 29,11 9,7 13,18 13,32l0 66c0,14 -4,24 -13,32 -9,7 -18,11 -29,11 -11,0 -21,-4 -29,-11 -9,-7 -13,-18 -13,-32zm164 -1l0 -63c0,-7 -2,-13 -6,-17 -4,-4 -9,-6 -15,-6 -6,0 -11,2 -15,6 -4,4 -6,10 -6,17l0 63c0,7 2,13 6,17 4,4 9,6 15,6 6,0 11,-2 15,-6 4,-4 6,-10 6,-17zm-63 1l0 -66c0,-14 4,-24 13,-32 9,-7 18,-11 29,-11 11,0 21,4 29,11 9,7 13,18 13,32l0 66c0,14 -4,24 -13,32 -9,7 -18,11 -29,11 -11,0 -21,-4 -29,-11 -9,-7 -13,-18 -13,-32zm123 -27l0 -31 92 0 0 31 -92 0zm152 69l0 -185 -31 23 0 -33 31 -23 31 0 0 218 -31 0zm69 -155l0 -63 124 0 0 31 -74 186 -35 0 74 -186 -58 0 0 31 -31 0zm97 155l0 -31 31 0 0 31 -31 0zm98 -68l0 -19 7 0c7,0 13,-2 17,-6 4,-4 6,-9 6,-15 0,-6 -2,-11 -6,-15 -4,-4 -9,-6 -15,-6 -5,0 -9,2 -13,4 -4,3 -7,8 -8,14l-21 0c1,-11 5,-20 13,-28 8,-8 17,-12 28,-12 13,0 24,4 32,13 8,9 12,19 12,29 0,6 -1,11 -3,17 -2,5 -6,10 -13,14 6,4 11,9 14,15 3,6 4,12 4,18 0,14 -4,25 -13,33 -9,8 -19,12 -32,12 -10,0 -19,-3 -27,-10 -8,-7 -13,-16 -15,-29l21 0c2,5 5,9 8,12 3,3 8,5 14,5 6,0 11,-2 16,-6 5,-4 7,-10 7,-17 0,-7 -2,-13 -7,-17 -5,-4 -10,-6 -16,-6l-9 0zm133 25l0 -63c0,-7 -2,-13 -6,-17 -4,-4 -9,-6 -15,-6 -6,0 -11,2 -15,6 -4,4 -6,10 -6,17l0 63c0,7 2,13 6,17 4,4 9,6 15,6 6,0 11,-2 15,-6 4,-4 6,-10 6,-17zm-63 1l0 -66c0,-14 4,-24 13,-32 9,-7 18,-11 29,-11 11,0 21,4 29,11 9,7 13,18 13,32l0 66c0,14 -4,24 -13,32 -9,7 -18,11 -29,11 -11,0 -21,-4 -29,-11 -9,-7 -13,-18 -13,-32z"/>
 </g>
</svg>
