<?xml version="1.0" encoding="UTF-8"?>
<!DOCTYPE svg PUBLIC "-//W3C//DTD SVG 1.1//EN" "http://www.w3.org/Graphics/SVG/1.1/DTD/svg11.dtd">
<!-- Creator: CorelDRAW X6 -->
<svg xmlns="http://www.w3.org/2000/svg" xml:space="preserve" width="42.3mm" height="20.528mm" version="1.1" style="shape-rendering:geometricPrecision; text-rendering:geometricPrecision; image-rendering:optimizeQuality; fill-rule:evenodd; clip-rule:evenodd"
viewBox="0 0 957 465"
 xmlns:xlink="http://www.w3.org/1999/xlink">
 <defs>
  <style type="text/css">
   <![CDATA[
    .fil0 {fill:#212220}
    .fil2 {fill:#2B2A29;fill-rule:nonzero}
    .fil1 {fill:#E31E24;fill-rule:nonzero}
   ]]>
  </style>
 </defs>
 <g id="Layer_x0020_1">
  <metadata id="CorelCorpID_0Corel-Layer"/>
  <path class="fil0" d="M943 50l0 -2 0 -2 0 -2 0 -2 0 -2 0 -2 -1 -2 -1 -2 -1 -2 -1 -2 -1 -1 -1 -1 -1 -1 -1 -1 -1 -1 -1 -1 -1 -1 -1 -1 -1 -1 -1 -1 -1 -1 -1 -1 -2 -1 -2 -1 -2 -1 -2 -1 -2 0 -2 0 -2 0 -2 0 -2 0 -2 0 -858 0 -2 0 -2 0 -2 0 -2 0 -2 0 -2 0 -2 1 -2 1 -2 1 -2 1 -1 1 -1 1 -1 1 -1 1 -1 1 -1 1 -1 1 -1 1 -1 1 -1 1 -1 1 -1 1 -1 2 -1 2 -1 2 -1 2 0 2 0 2 0 2 0 2 0 2 0 2 0 365 0 2 0 2 0 2 0 2 0 2 0 2 1 2 1 2 1 2 1 2 1 1 1 1 1 1 1 1 1 1 1 1 1 1 1 1 1 1 1 1 1 1 1 1 2 1 2 1 2 1 2 1 2 0 2 0 2 0 2 0 2 0 2 0 858 0 2 0 2 0 2 0 2 0 2 0 2 0 2 -1 2 -1 2 -1 2 -1 1 -1 1 -1 1 -1 1 -1 1 -1 1 -1 1 -1 1 -1 1 -1 1 -1 1 -1 1 -1 1 -2 1 -2 1 -2 1 -2 0 -2 0 -2 0 -2 0 -2 0 -2 0 -2 0 -365zm14 0l0 -3 0 -3 0 -2 0 -2 -1 -2 -1 -2 -1 -2 -1 -2 -1 -2 -1 -2 -1 -2 -1 -2 -1 -2 -1 -2 -2 -2 -2 -2 -2 -2 -2 -2 -2 -1 -2 -1 -2 -1 -2 -1 -2 -1 -2 -1 -2 -1 -2 -1 -2 -1 -2 -1 -2 0 -2 0 -3 0 -3 0 -858 0 -3 0 -3 0 -2 0 -2 0 -2 1 -2 1 -2 1 -2 1 -2 1 -2 1 -2 1 -2 1 -2 1 -2 1 -2 2 -2 2 -2 2 -2 2 -1 2 -1 2 -1 2 -1 2 -1 2 -1 2 -1 2 -1 2 -1 2 -1 2 0 2 0 2 0 3 0 3 0 366 0 3 0 3 0 2 0 2 1 2 1 2 1 2 1 2 1 2 1 2 1 2 1 2 1 2 1 2 2 2 2 2 2 2 2 2 2 1 2 1 2 1 2 1 2 1 2 1 2 1 2 1 2 1 2 1 2 0 2 0 3 0 3 0 858 0 3 0 3 0 2 0 2 0 2 -1 2 -1 2 -1 2 -1 2 -1 2 -1 2 -1 2 -1 2 -1 2 -1 2 -2 2 -2 2 -2 2 -2 1 -2 1 -2 1 -2 1 -2 1 -2 1 -2 1 -2 1 -2 1 -2 1 -2 0 -2 0 -2 0 -3 0 -3 0 -366z"/>
  <path class="fil1" d="M507 61c0,10 -5,18 -10,21 -5,7 -13,15 -15,23 -1,4 -1,8 0,12 4,-1 7,-3 10,-6 8,-6 15,-19 14,-26 2,-7 6,-14 13,-18 14,-9 31,-5 39,10 7,15 4,30 -11,38 -8,4 -16,4 -23,2 -6,-2 -18,-3 -27,0 -3,2 -7,3 -11,7 4,3 6,6 11,7 11,2 18,2 28,-1 6,-2 16,-2 22,3 13,7 18,23 12,36 -8,14 -24,21 -41,12 -7,-4 -12,-13 -13,-19 -2,-9 -8,-20 -13,-25 -4,-3 -6,-4 -10,-5 -1,5 -1,6 0,10 1,8 7,21 15,25 6,7 9,11 9,19 1,18 -13,30 -28,30 -19,0 -29,-16 -28,-31 0,-9 2,-11 9,-18 8,-7 13,-17 15,-27 1,-4 1,-6 0,-10 -5,1 -6,2 -9,3 -7,6 -12,12 -14,24 -1,8 -5,18 -12,21 -15,12 -36,5 -42,-11 -5,-10 -2,-28 10,-35 5,-3 16,-6 23,-4 8,3 24,2 32,-1 3,-1 5,-2 8,-5 -2,-2 -4,-4 -7,-5 -16,-6 -28,-2 -40,0 -17,-1 -28,-13 -28,-28 1,-17 14,-28 28,-28 15,0 26,12 28,23 1,9 7,18 13,24 3,3 6,5 11,7 1,-4 1,-8 0,-12 -3,-11 -7,-18 -15,-24 -4,-3 -9,-13 -9,-20 0,-17 13,-29 29,-29 14,0 27,12 27,28z"/>
  <path class="fil2" d="M95 276c0,9 3,15 8,20 5,4 11,7 18,7 7,0 13,-2 18,-7 5,-4 8,-11 8,-20 0,-9 -3,-15 -8,-20 -5,-4 -11,-7 -18,-7 -7,0 -13,2 -18,7 -5,4 -8,11 -8,20zm-29 79c0,-18 7,-32 22,-41 -5,-5 -10,-10 -13,-16 -3,-6 -5,-13 -5,-21 0,-15 5,-27 15,-38 10,-10 23,-15 37,-15 15,0 27,5 37,15 10,10 15,23 15,38 0,8 -2,15 -5,21 -3,6 -8,11 -13,16 14,10 21,23 21,41 0,16 -5,29 -17,40 -11,10 -24,15 -39,15 -15,0 -28,-5 -39,-15 -11,-10 -16,-23 -16,-40zm26 0c0,8 3,15 9,21 6,5 13,8 21,8 8,0 15,-3 21,-8 6,-5 9,-12 9,-21 0,-8 -3,-15 -9,-21 -6,-6 -13,-8 -21,-8 -8,0 -15,3 -21,8 -6,6 -9,12 -9,21zm88 54l0 -26 26 0 0 26 -26 0zm105 -36l0 -53c0,-6 -2,-11 -5,-14 -3,-3 -7,-5 -13,-5 -5,0 -10,2 -13,5 -3,3 -5,8 -5,14l0 53c0,6 2,11 5,14 3,3 7,5 13,5 5,0 10,-2 13,-5 3,-3 5,-8 5,-14zm-53 1l0 -55c0,-12 4,-20 11,-27 7,-6 15,-9 25,-9 9,0 18,3 25,9 7,6 11,15 11,27l0 55c0,12 -4,20 -11,27 -7,6 -16,9 -25,9 -9,0 -18,-3 -25,-9 -7,-6 -11,-15 -11,-27zm138 -1l0 -53c0,-6 -2,-11 -5,-14 -3,-3 -7,-5 -13,-5 -5,0 -10,2 -13,5 -3,3 -5,8 -5,14l0 53c0,6 2,11 5,14 3,3 7,5 13,5 5,0 10,-2 13,-5 3,-3 5,-8 5,-14zm-53 1l0 -55c0,-12 4,-20 11,-27 7,-6 15,-9 25,-9 9,0 18,3 25,9 7,6 11,15 11,27l0 55c0,12 -4,20 -11,27 -7,6 -16,9 -25,9 -9,0 -18,-3 -25,-9 -7,-6 -11,-15 -11,-27zm103 -23l0 -26 78 0 0 26 -78 0zm128 58l0 -155 -26 19 0 -28 26 -19 26 0 0 183 -26 0zm58 -130l0 -53 104 0 0 26 -62 157 -29 0 62 -157 -49 0 0 26 -26 0zm82 130l0 -26 26 0 0 26 -26 0zm71 -57l0 -16 6 0c6,0 11,-2 14,-5 4,-3 5,-8 5,-13 0,-5 -2,-9 -5,-13 -4,-4 -8,-5 -13,-5 -4,0 -7,1 -11,4 -3,3 -6,6 -7,11l-18 0c1,-9 4,-17 11,-23 7,-7 15,-10 24,-10 11,0 20,4 27,11 7,7 10,16 10,25 0,5 -1,10 -3,14 -2,5 -5,9 -11,12 5,3 9,8 11,13 2,5 3,10 3,15 0,12 -4,21 -11,28 -7,7 -16,10 -27,10 -8,0 -16,-3 -23,-8 -7,-5 -11,-13 -13,-24l18 0c2,4 4,8 7,10 3,3 7,4 12,4 5,0 9,-2 13,-5 4,-4 6,-8 6,-15 0,-6 -2,-11 -6,-15 -4,-4 -8,-5 -14,-5l-8 0zm106 21l0 -53c0,-6 -2,-11 -5,-14 -3,-3 -7,-5 -13,-5 -5,0 -10,2 -13,5 -3,3 -5,8 -5,14l0 53c0,6 2,11 5,14 3,3 7,5 13,5 5,0 10,-2 13,-5 3,-3 5,-8 5,-14zm-53 1l0 -55c0,-12 4,-20 11,-27 7,-6 15,-9 25,-9 9,0 18,3 25,9 7,6 11,15 11,27l0 55c0,12 -4,20 -11,27 -7,6 -16,9 -25,9 -9,0 -18,-3 -25,-9 -7,-6 -11,-15 -11,-27z"/>
 </g>
</svg>
