<?xml version="1.0" encoding="UTF-8"?>
<!DOCTYPE svg PUBLIC "-//W3C//DTD SVG 1.1//EN" "http://www.w3.org/Graphics/SVG/1.1/DTD/svg11.dtd">
<!-- Creator: CorelDRAW X6 -->
<svg xmlns="http://www.w3.org/2000/svg" xml:space="preserve" width="42.3mm" height="20.5279mm" version="1.1" style="shape-rendering:geometricPrecision; text-rendering:geometricPrecision; image-rendering:optimizeQuality; fill-rule:evenodd; clip-rule:evenodd"
viewBox="0 0 1102 535"
 xmlns:xlink="http://www.w3.org/1999/xlink">
 <defs>
  <style type="text/css">
   <![CDATA[
    .fil0 {fill:#2B2A29}
    .fil1 {fill:#2B2A29;fill-rule:nonzero}
   ]]>
  </style>
 </defs>
 <g id="Layer_x0020_1">
  <metadata id="CorelCorpID_0Corel-Layer"/>
  <path class="fil0" d="M0 478l0 3 0 3 0 3 0 3 1 3 1 3 1 3 1 3 1 3 1 2 1 2 1 2 2 2 2 2 2 2 2 2 2 2 2 2 2 2 2 2 2 1 2 1 2 1 3 1 3 1 3 1 3 1 3 1 3 0 3 0 3 0 3 0 988 0 3 0 3 0 3 0 3 0 3 -1 3 -1 3 -1 3 -1 3 -1 2 -1 2 -1 2 -1 2 -2 2 -2 2 -2 2 -2 2 -2 2 -2 2 -2 2 -2 1 -2 1 -2 1 -2 1 -3 1 -3 1 -3 1 -3 1 -3 1 -3 0 -3 0 -3 0 -3 0 -421 0 -3 0 -3 0 -3 -1 -3 -1 -3 -1 -3 -1 -3 -1 -3 -1 -3 -1 -2 -1 -2 -1 -2 -2 -2 -2 -2 -2 -2 -2 -2 -2 -2 -2 -2 -2 -2 -2 -2 -2 -1 -2 -1 -2 -1 -3 -1 -3 -1 -3 -1 -3 -1 -3 -1 -3 0 -3 0 -3 0 -3 0 -988 0 -3 0 -3 0 -3 0 -3 0 -3 1 -3 1 -3 1 -3 1 -3 1 -2 1 -2 1 -2 1 -2 2 -2 2 -2 2 -2 2 -2 2 -2 2 -2 2 -2 2 -1 2 -1 2 -1 2 -1 3 -1 3 -1 3 -1 3 -1 3 0 3 0 3 0 3 0 3 0 421zm1086 -61l0 -360 0 -3 0 -2 0 -2 0 -2 0 -2 -1 -2 -1 -2 -1 -2 -1 -2 -1 -2 -1 -2 -1 -2 -1 -2 -1 -2 -1 -1 -1 -1 -1 -1 -1 -1 -2 -1 -2 -1 -2 -1 -2 -1 -2 -1 -2 -1 -2 -1 -2 -1 -2 -1 -2 0 -2 0 -2 0 -2 0 -3 0 -988 0 -3 0 -2 0 -2 0 -2 0 -2 0 -2 1 -2 1 -2 1 -2 1 -2 1 -2 1 -2 1 -2 1 -2 1 -1 1 -1 1 -1 1 -1 1 -1 2 -1 2 -1 2 -1 2 -1 2 -1 2 -1 2 -1 2 -1 2 0 2 0 2 0 2 0 2 0 3 0 403 8 1 565 1 0 -45 198 0 298 0z"/>
  <path class="fil1" d="M408 152c78,-18 152,-27 233,-28 26,26 44,53 62,85 -111,3 -225,18 -334,38 4,-35 29,-82 40,-96zm-58 190l394 -50 -3 -22 -75 10 -3 -20 75 -10 -1 -7 -75 10 -3 -21 68 -8c-14,-34 -52,-92 -81,-112 -83,-1 -164,7 -246,28 -24,30 -42,79 -50,131l73 -8 3 21 -82 10 1 6 81 -10 2 21 -81 10 2 22"/>
  <polygon class="fil1" points="376,462 366,452 353,361 747,311 759,401 750,414 713,419 702,408 697,371 420,406 425,443 419,457 "/>
 </g>
</svg>
