<?xml version="1.0" encoding="UTF-8"?>
<!DOCTYPE svg PUBLIC "-//W3C//DTD SVG 1.1//EN" "http://www.w3.org/Graphics/SVG/1.1/DTD/svg11.dtd">
<!-- Creator: CorelDRAW X6 -->
<svg xmlns="http://www.w3.org/2000/svg" xml:space="preserve" width="42.3mm" height="20.5279mm" version="1.1" style="shape-rendering:geometricPrecision; text-rendering:geometricPrecision; image-rendering:optimizeQuality; fill-rule:evenodd; clip-rule:evenodd"
viewBox="0 0 3026 1469"
 xmlns:xlink="http://www.w3.org/1999/xlink">
 <defs>
  <style type="text/css">
   <![CDATA[
    .fil0 {fill:#212220}
    .fil2 {fill:#2B2A29}
    .fil1 {fill:#FFED00}
   ]]>
  </style>
 </defs>
 <g id="Layer_x0020_1">
  <metadata id="CorelCorpID_0Corel-Layer"/>
  <path class="fil0" d="M1930 328c221,-23 443,-22 654,0 58,80 109,163 141,258 -303,-27 -625,-29 -939,-8 28,-93 110,-215 144,-250zm857 300l-202 0 0 56 219 0 0 20 -219 1 0 53 219 0 0 63 -1094 0 0 -63 219 0 0 -53 -220 0 0 -20 220 0 1 -56 -203 0c38,-137 105,-263 178,-336 249,-26 470,-26 705,2 66,66 157,236 177,334z"/>
  <polygon class="fil0" points="1728,1148 1710,1123 1710,873 2804,873 2804,1123 2778,1149 2656,1148 2634,1121 2634,1020 1877,1021 1877,1123 1859,1149 "/>
  <rect class="fil1" x="2982" y="495" width="44.5022" height="44.5022"/>
  <path class="fil2" d="M0 1312l0 9 1 8 1 8 1 8 2 8 2 7 2 7 3 7 3 7 3 7 4 7 4 6 4 6 5 6 5 6 5 5 5 5 6 5 6 5 6 4 6 4 7 4 7 3 7 3 7 3 7 2 7 2 8 2 8 1 8 1 8 1 9 0 2714 0 9 0 8 -1 8 -1 8 -1 8 -2 7 -2 7 -2 7 -3 7 -3 7 -3 7 -4 6 -4 6 -4 6 -5 6 -5 5 -5 5 -5 5 -6 5 -6 4 -6 4 -6 4 -7 3 -7 3 -7 3 -7 2 -7 2 -7 2 -8 1 -8 1 -8 1 -8 0 -9 0 -1156 0 -9 -1 -8 -1 -8 -1 -8 -2 -8 -2 -7 -2 -7 -3 -7 -3 -7 -3 -7 -4 -7 -4 -6 -4 -6 -5 -6 -5 -6 -5 -5 -5 -5 -6 -5 -6 -5 -6 -4 -6 -4 -7 -4 -7 -3 -7 -3 -7 -3 -7 -2 -7 -2 -8 -2 -8 -1 -8 -1 -8 -1 -9 0 -2714 0 -9 0 -8 1 -8 1 -8 1 -8 2 -7 2 -7 2 -7 3 -7 3 -7 3 -7 4 -6 4 -6 4 -6 5 -6 5 -5 5 -5 5 -5 6 -5 6 -4 6 -4 6 -4 7 -3 7 -3 7 -3 7 -2 7 -2 7 -2 8 -1 8 -1 8 -1 8 0 9 0 1156zm2982 -167l0 -988 0 -7 0 -6 -1 -6 -1 -5 -1 -5 -1 -5 -2 -5 -2 -5 -2 -5 -2 -5 -3 -5 -3 -5 -3 -4 -3 -4 -4 -4 -4 -4 -4 -4 -4 -4 -4 -3 -4 -3 -5 -3 -5 -3 -5 -2 -5 -2 -5 -2 -5 -2 -5 -1 -5 -1 -5 -1 -6 -1 -6 0 -7 0 -2712 0 -7 0 -6 0 -6 1 -5 1 -5 1 -5 1 -5 2 -5 2 -5 2 -5 2 -5 3 -5 3 -4 3 -4 3 -4 4 -4 4 -4 4 -4 4 -3 4 -3 4 -3 5 -3 5 -2 5 -2 5 -2 5 -2 5 -1 5 -1 5 -1 5 -1 6 0 6 0 7 0 1108 21 2 1552 3 0 -124 545 0 819 0z"/>
 </g>
</svg>
