<?xml version="1.0" encoding="UTF-8"?>
<!DOCTYPE svg PUBLIC "-//W3C//DTD SVG 1.1//EN" "http://www.w3.org/Graphics/SVG/1.1/DTD/svg11.dtd">
<!-- Creator: CorelDRAW X6 -->
<svg xmlns="http://www.w3.org/2000/svg" xml:space="preserve" width="42.2999mm" height="20.5279mm" version="1.1" style="shape-rendering:geometricPrecision; text-rendering:geometricPrecision; image-rendering:optimizeQuality; fill-rule:evenodd; clip-rule:evenodd"
viewBox="0 0 3997 1940"
 xmlns:xlink="http://www.w3.org/1999/xlink">
 <defs>
  <style type="text/css">
   <![CDATA[
    .fil0 {fill:#212220}
    .fil1 {fill:#2B2A29}
   ]]>
  </style>
 </defs>
 <g id="Layer_x0020_1">
  <metadata id="CorelCorpID_0Corel-Layer"/>
  <path class="fil0" d="M936 1248l1186 1c-70,30 -144,115 -131,225l-930 0c1,-107 -33,-162 -124,-226z"/>
  <path class="fil0" d="M2479 1477l310 -30 146 -199 -596 1c100,52 127,102 140,227z"/>
  <path class="fil0" d="M571 1463c10,-98 23,-157 130,-212l-375 -1 0 88 62 89 183 36z"/>
  <path class="fil0" d="M1635 1056l1 -273 -327 1m0 0c-81,92 -167,177 -247,272l573 0m1298 156l-58 -157 -521 1 -269 -330 -791 0 -304 327 -619 99 -26 61 2588 -1zm-736 -158l-205 -271 -301 1 0 270 506 0z"/>
  <path class="fil0" d="M815 1249c117,0 212,95 212,212 0,117 -95,212 -212,212 -117,0 -212,-95 -212,-212 0,-117 95,-212 212,-212zm0 99c62,0 113,51 113,113 0,62 -51,113 -113,113 -62,0 -113,-51 -113,-113 0,-62 51,-113 113,-113z"/>
  <path class="fil0" d="M2235 1252c117,0 212,95 212,212 0,117 -95,212 -212,212 -117,0 -212,-95 -212,-212 0,-117 95,-212 212,-212zm0 99c62,0 113,51 113,113 0,62 -51,113 -113,113 -62,0 -113,-51 -113,-113 0,-62 51,-113 113,-113z"/>
  <path class="fil1" d="M0 1733l0 11 1 10 1 10 2 10 2 10 3 10 3 10 4 9 4 9 5 9 5 9 5 8 6 8 6 8 6 7 7 7 7 7 7 6 8 6 8 6 8 5 9 5 9 5 9 4 9 4 10 3 10 3 10 2 10 2 10 1 10 1 11 0 3584 0 11 0 10 -1 10 -1 10 -2 10 -2 10 -3 10 -3 9 -4 9 -4 9 -5 9 -5 8 -5 8 -6 8 -6 7 -6 7 -7 7 -7 6 -7 6 -8 6 -8 5 -8 5 -9 5 -9 4 -9 4 -9 3 -10 3 -10 2 -10 2 -10 1 -10 1 -10 0 -11 0 -1527 0 -11 -1 -10 -1 -10 -2 -10 -2 -10 -3 -10 -3 -10 -4 -9 -4 -9 -5 -9 -5 -9 -5 -8 -6 -8 -6 -8 -6 -7 -7 -7 -7 -7 -7 -6 -8 -6 -8 -6 -8 -5 -9 -5 -9 -5 -9 -4 -9 -4 -10 -3 -10 -3 -10 -2 -10 -2 -10 -1 -10 -1 -11 0 -3584 0 -11 0 -10 1 -10 1 -10 2 -10 2 -10 3 -10 3 -9 4 -9 4 -9 5 -9 5 -8 5 -8 6 -8 6 -7 6 -7 7 -7 7 -6 7 -6 8 -6 8 -5 8 -5 9 -5 9 -4 9 -4 9 -3 10 -3 10 -2 10 -2 10 -1 10 -1 10 0 11 0 1527zm3938 -221l0 -1306 0 -9 -1 -8 -1 -7 -1 -7 -2 -7 -2 -7 -2 -7 -3 -7 -3 -6 -3 -6 -4 -6 -4 -6 -4 -6 -4 -6 -5 -5 -5 -5 -5 -5 -5 -5 -6 -4 -6 -4 -6 -4 -6 -4 -6 -3 -6 -3 -7 -3 -7 -2 -7 -2 -7 -2 -7 -1 -7 -1 -8 -1 -9 0 -3583 0 -9 0 -8 1 -7 1 -7 1 -7 2 -7 2 -7 2 -7 3 -6 3 -6 3 -6 4 -6 4 -6 4 -6 4 -5 5 -5 5 -5 5 -5 5 -4 6 -4 6 -4 6 -4 6 -3 6 -3 6 -3 7 -2 7 -2 7 -2 7 -1 7 -1 7 -1 8 0 9 0 1463 28 2 2772 5 -3 -165 1082 0z"/>
 </g>
</svg>
