<?xml version="1.0" encoding="UTF-8"?>
<!DOCTYPE svg PUBLIC "-//W3C//DTD SVG 1.1//EN" "http://www.w3.org/Graphics/SVG/1.1/DTD/svg11.dtd">
<!-- Creator: CorelDRAW X6 -->
<svg xmlns="http://www.w3.org/2000/svg" xml:space="preserve" width="43.067mm" height="20.7939mm" version="1.1" style="shape-rendering:geometricPrecision; text-rendering:geometricPrecision; image-rendering:optimizeQuality; fill-rule:evenodd; clip-rule:evenodd"
viewBox="0 0 965 466"
 xmlns:xlink="http://www.w3.org/1999/xlink">
 <defs>
  <style type="text/css">
   <![CDATA[
    .str0 {stroke:#2B2A29;stroke-width:0.127775}
    .fil0 {fill:#2B2A29}
   ]]>
  </style>
 </defs>
 <g id="Layer_x0020_1">
  <metadata id="CorelCorpID_0Corel-Layer"/>
  <path class="fil0 str0" d="M907 0c32,0 58,26 58,58l0 350c0,32 -26,58 -58,58l-849 0c-32,0 -58,-26 -58,-58l0 -350c0,-32 26,-58 58,-58l849 0zm0 17c23,0 42,19 42,42l0 350c0,23 -19,42 -42,42l-849 0c-23,0 -42,-19 -42,-42l0 -350c0,-23 19,-42 42,-42l849 0z"/>
  <path class="fil0 str0" d="M49 69l874 0 0 19 -19 0 -189 291 -17 0 189 -291 -199 0 -189 291 -17 0 189 -291 -202 0 -189 291 -17 0 189 -291 -201 0 -189 291 -17 0 189 -291 -184 0 0 -19zm243 21l81 53c4,3 5,8 2,12l-143 220c-3,4 -8,5 -12,2l-81 -53c-4,-3 -5,-8 -2,-12l143 -220c3,-4 8,-5 12,-2zm-57 176l1 1 25 16c2,1 2,3 2,5l-10 37c0,1 -1,2 -3,3 -1,0 -3,0 -4,0l-35 -23 -1 -1 -36 -23c-1,-1 -2,-2 -2,-3 0,-1 0,-3 2,-3l30 -24c1,-1 3,-1 5,0l26 17zm65 -45c2,1 3,1 5,0l29 -24c1,-1 2,-2 2,-3 0,-1 -1,-3 -2,-3l-69 -45c-1,-1 -2,-1 -4,0 -1,0 -2,1 -3,3l-10 37c0,2 0,4 2,5l50 33zm-58 -52l-1 16c0,0 0,1 0,1l-17 27 -17 27c0,0 0,1 -1,1l-14 7c-1,0 -1,0 -2,0 0,-1 0,-1 0,-2l25 -38 25 -38c0,-1 1,-1 2,-1 1,0 1,1 1,2zm78 51l-14 7c0,0 -1,0 -1,1l-17 27 -17 27c0,0 0,1 0,1l-1 16c0,1 0,1 1,2 1,0 1,0 2,-1l25 -38 25 -38c0,-1 0,-1 0,-2 0,-1 -1,-1 -2,0zm189 -129l81 53c4,3 5,8 2,12l-143 220c-3,4 -8,5 -12,2l-81 -53c-4,-3 -5,-8 -2,-12l143 -220c3,-4 8,-5 12,-2zm-57 176l1 1 25 16c2,1 2,3 2,5l-10 37c0,1 -1,2 -3,3 -1,0 -3,0 -4,0l-35 -23 -1 -1 -36 -23c-1,-1 -2,-2 -2,-3 0,-1 0,-3 2,-3l30 -24c1,-1 3,-1 5,0l26 17zm65 -45c2,1 3,1 5,0l29 -24c1,-1 2,-2 2,-3 0,-1 -1,-3 -2,-3l-69 -45c-1,-1 -2,-1 -4,0 -1,0 -2,1 -3,3l-10 37c0,2 0,4 2,5l50 33zm-58 -52l-1 16c0,0 0,1 0,1l-17 27 -17 27c0,0 0,1 -1,1l-14 7c-1,0 -1,0 -2,0 0,-1 0,-1 0,-2l25 -38 25 -38c0,-1 1,-1 2,-1 1,0 1,1 1,2zm78 51l-14 7c0,0 -1,0 -1,1l-17 27 -17 27c0,0 0,1 0,1l-1 16c0,1 0,1 1,2 1,0 1,0 2,-1l25 -38 25 -38c0,-1 0,-1 0,-2 0,-1 -1,-1 -2,0zm188 -131l81 53c4,2 5,8 2,12l-143 220c-3,4 -8,5 -12,2l-81 -53c-4,-3 -5,-8 -2,-12l143 -220c3,-4 8,-5 12,-2zm-57 176l1 1 25 16c2,1 2,3 2,5l-10 37c0,1 -1,2 -3,3 -1,0 -3,0 -4,0l-35 -23 -1 -1 -36 -23c-1,-1 -2,-2 -2,-3 0,-1 0,-3 2,-3l30 -24c1,-1 3,-1 5,0l26 17zm65 -45c2,1 3,1 5,0l29 -24c1,-1 2,-2 2,-3 0,-1 -1,-3 -2,-3l-69 -45c-1,-1 -2,-1 -4,0 -1,0 -2,1 -3,3l-10 37c0,2 0,4 2,5l50 33zm-58 -52l-1 16c0,0 0,1 0,1l-17 27 -17 27c0,0 0,1 -1,1l-14 7c-1,0 -1,0 -2,0 0,-1 0,-1 0,-2l25 -38 25 -38c0,-1 1,-1 2,-1 1,0 1,1 1,2zm78 51l-14 7c0,0 -1,0 -1,1l-17 27 -17 27c0,0 0,1 0,1l-1 16c0,1 0,1 1,2 1,0 1,0 2,-1l25 -38 25 -38c0,-1 0,-1 0,-2 0,-1 -1,-1 -2,0z"/>
 </g>
</svg>
