<?xml version="1.0" encoding="UTF-8"?>
<!DOCTYPE svg PUBLIC "-//W3C//DTD SVG 1.1//EN" "http://www.w3.org/Graphics/SVG/1.1/DTD/svg11.dtd">
<!-- Creator: CorelDRAW X6 -->
<svg xmlns="http://www.w3.org/2000/svg" xml:space="preserve" width="43.0669mm" height="20.7939mm" version="1.1" style="shape-rendering:geometricPrecision; text-rendering:geometricPrecision; image-rendering:optimizeQuality; fill-rule:evenodd; clip-rule:evenodd"
viewBox="0 0 2133 1030"
 xmlns:xlink="http://www.w3.org/1999/xlink">
 <defs>
  <style type="text/css">
   <![CDATA[
    .str0 {stroke:#2B2A29;stroke-width:0.282371}
    .str1 {stroke:black;stroke-width:0.282371}
    .fil0 {fill:#2B2A29}
    .fil1 {fill:black}
   ]]>
  </style>
 </defs>
 <g id="Layer_x0020_1">
  <metadata id="CorelCorpID_0Corel-Layer"/>
  <path class="fil0 str0" d="M2005 0c71,0 129,58 129,129l0 772c0,71 -58,129 -129,129l-1876 0c-71,0 -129,-58 -129,-129l0 -772c0,-71 58,-129 129,-129l1876 0zm0 37c51,0 92,41 92,92l0 772c0,51 -41,92 -92,92l-1876 0c-51,0 -92,-41 -92,-92l0 -772c0,-51 41,-92 92,-92l1876 0z"/>
  <polygon class="fil0 str0" points="101,153 2032,153 2032,194 1691,194 1692,837 1654,837 1653,194 1275,194 1277,837 1239,838 1237,194 883,194 885,838 846,838 845,194 464,194 466,838 427,838 426,194 101,194 "/>
  <path class="fil1 str1" d="M551 196l214 -1c10,0 18,8 18,18l2 581c0,10 -8,18 -18,18l-214 1c-10,0 -18,-8 -18,-18l-2 -581c0,-10 8,-18 18,-18zm108 394l2 0 66 0c4,0 8,3 9,6l26 80c1,3 0,6 -1,8 -2,2 -5,4 -8,4l-92 0 -2 0 -94 0c-3,0 -6,-1 -8,-4 -2,-2 -2,-5 -1,-8l26 -80c1,-4 5,-6 9,-6l68 0zm66 -163c4,0 8,-3 9,-6l25 -80c1,-3 0,-6 -1,-8 -2,-2 -4,-4 -7,-4l-183 1c-3,0 -6,1 -7,4 -2,2 -2,5 -1,8l26 80c1,4 5,6 9,6l132 0zm-170 -25l17 30c0,1 1,1 1,2l0 71 0 71c0,1 0,1 -1,2l-17 30c-1,1 -2,2 -4,2 -1,-1 -2,-2 -2,-4l0 -101 0 -101c0,-2 1,-3 2,-4 1,-1 3,0 4,2zm207 -1l-17 30c0,1 -1,1 -1,2l0 71 0 71c0,1 0,1 1,2l17 30c1,1 2,2 4,2 1,-1 2,-2 2,-4l0 -101 0 -101c0,-2 -1,-3 -2,-4 -1,-1 -3,0 -4,2z"/>
  <path class="fil1 str1" d="M961 196l214 -1c10,0 18,8 18,18l2 581c0,10 -8,18 -18,18l-214 1c-10,0 -18,-8 -18,-18l-2 -581c0,-10 8,-18 18,-18zm108 394l2 0 66 0c4,0 8,3 9,6l26 80c1,3 0,6 -1,8 -2,2 -5,4 -8,4l-92 0 -2 0 -94 0c-3,0 -6,-1 -8,-4 -2,-2 -2,-5 -1,-8l26 -80c1,-4 5,-6 9,-6l68 0zm66 -163c4,0 8,-3 9,-6l25 -80c1,-3 0,-6 -1,-8 -2,-2 -4,-4 -7,-4l-183 1c-3,0 -6,1 -7,4 -2,2 -2,5 -1,8l26 80c1,4 5,6 9,6l132 0zm-170 -25l17 30c0,1 1,1 1,2l0 71 0 71c0,1 0,1 -1,2l-17 30c-1,1 -2,2 -4,2 -1,-1 -2,-2 -2,-4l0 -101 0 -101c0,-2 1,-3 2,-4 1,-1 3,0 4,2zm207 -1l-17 30c0,1 -1,1 -1,2l0 71 0 71c0,1 0,1 1,2l17 30c1,1 2,2 4,2 1,-1 2,-2 2,-4l0 -101 0 -101c0,-2 -1,-3 -2,-4 -1,-1 -3,0 -4,2z"/>
  <path class="fil1 str1" d="M1355 196l214 -1c10,0 18,8 18,18l2 581c0,10 -8,18 -18,18l-214 1c-10,0 -18,-8 -18,-18l-2 -581c0,-10 8,-18 18,-18zm108 394l2 0 66 0c4,0 8,3 9,6l26 80c1,3 0,6 -1,8 -2,2 -5,4 -8,4l-92 0 -2 0 -94 0c-3,0 -6,-1 -8,-4 -2,-2 -2,-5 -1,-8l26 -80c1,-4 5,-6 9,-6l68 0zm66 -163c4,0 8,-3 9,-6l25 -80c1,-3 0,-6 -1,-8 -2,-2 -4,-4 -7,-4l-183 1c-3,0 -6,1 -7,4 -2,2 -2,5 -1,8l26 80c1,4 5,6 9,6l132 0zm-170 -25l17 30c0,1 1,1 1,2l0 71 0 71c0,1 0,1 -1,2l-17 30c-1,1 -2,2 -4,2 -1,-1 -2,-2 -2,-4l0 -101 0 -101c0,-2 1,-3 2,-4 1,-1 3,0 4,2zm207 -1l-17 30c0,1 -1,1 -1,2l0 71 0 71c0,1 0,1 1,2l17 30c1,1 2,2 4,2 1,-1 2,-2 2,-4l0 -101 0 -101c0,-2 -1,-3 -2,-4 -1,-1 -3,0 -4,2z"/>
 </g>
</svg>
