<?xml version="1.0" encoding="UTF-8"?>
<!DOCTYPE svg PUBLIC "-//W3C//DTD SVG 1.1//EN" "http://www.w3.org/Graphics/SVG/1.1/DTD/svg11.dtd">
<!-- Creator: CorelDRAW X6 -->
<svg xmlns="http://www.w3.org/2000/svg" xml:space="preserve" width="42.3mm" height="20.5279mm" version="1.1" style="shape-rendering:geometricPrecision; text-rendering:geometricPrecision; image-rendering:optimizeQuality; fill-rule:evenodd; clip-rule:evenodd"
viewBox="0 0 10087 4895"
 xmlns:xlink="http://www.w3.org/1999/xlink">
 <defs>
  <style type="text/css">
   <![CDATA[
    .fil0 {fill:#212220}
   ]]>
  </style>
 </defs>
 <g id="Layer_x0020_1">
  <metadata id="CorelCorpID_0Corel-Layer"/>
  <path class="fil0" d="M0 4374l1 29 2 26 3 26 5 26 6 25 7 25 8 24 9 24 10 23 11 22 12 22 14 21 14 20 15 20 16 19 17 18 18 17 19 16 20 15 20 14 21 14 22 12 22 11 23 10 24 9 24 8 25 7 25 6 26 5 26 3 26 2 29 1 9045 0 29 -1 26 -2 26 -3 26 -5 25 -6 25 -7 24 -8 24 -9 23 -10 22 -11 22 -12 21 -14 20 -14 20 -15 19 -16 18 -17 17 -18 16 -19 15 -20 14 -20 14 -21 12 -22 11 -22 10 -23 9 -24 8 -24 7 -25 6 -25 5 -26 3 -26 2 -26 1 -29 0 -3853 -1 -29 -2 -26 -3 -26 -5 -26 -6 -25 -7 -25 -8 -24 -9 -24 -10 -23 -11 -22 -12 -22 -14 -21 -14 -20 -15 -20 -16 -19 -17 -18 -18 -17 -19 -16 -20 -15 -20 -14 -21 -14 -22 -12 -22 -11 -23 -10 -24 -9 -24 -8 -25 -7 -25 -6 -26 -5 -26 -3 -26 -2 -29 -1 -9045 0 -29 1 -26 2 -26 3 -26 5 -25 6 -25 7 -24 8 -24 9 -23 10 -22 11 -22 12 -21 14 -20 14 -20 15 -19 16 -18 17 -17 18 -16 19 -15 20 -14 20 -14 21 -12 22 -11 22 -10 23 -9 24 -8 24 -7 25 -6 25 -5 26 -3 26 -2 26 -1 29 0 3853zm9939 -557l0 -3295 -1 -23 -1 -19 -2 -19 -3 -18 -4 -18 -5 -17 -6 -17 -7 -17 -7 -16 -8 -16 -9 -16 -10 -15 -10 -15 -11 -14 -12 -13 -12 -13 -13 -12 -14 -12 -14 -11 -15 -10 -15 -10 -16 -9 -16 -8 -16 -7 -17 -7 -17 -6 -17 -5 -18 -4 -18 -3 -19 -2 -19 -1 -23 -1 -9042 0 -23 1 -19 1 -19 2 -18 3 -18 4 -17 5 -17 6 -17 7 -16 7 -16 8 -16 9 -15 10 -15 10 -14 11 -14 12 -13 12 -12 13 -12 13 -11 14 -10 15 -10 15 -9 16 -8 16 -7 16 -7 17 -6 17 -5 17 -4 18 -3 18 -2 19 -1 19 -1 23 0 3692 71 6 4815 9 4 -412 2168 0 2731 1z"/>
  <path class="fil0" d="M3170 3125l2973 -335c-167,95 -328,328 -266,602l-2331 266c-28,-268 -129,-396 -377,-532z"/>
  <path class="fil0" d="M7103 3258l769 -163 309 -540 -1494 173c264,101 348,218 416,529z"/>
  <path class="fil0" d="M4868 2443l-76 -685 -820 96m0 0c-177,253 -369,493 -541,752l1437 -163m3299 21l-191 -376 -1306 150 -769 -752 -1983 225 -669 907 -1523 424 -48 160 6488 -739zm-1889 -186l-591 -621 -755 88 77 678 1269 -145z"/>
  <path class="fil0" d="M6427 2764c293,-33 559,179 592,472 33,293 -179,559 -472,592 -293,33 -559,-178 -592,-471 -33,-293 178,-559 471,-592zm28 249c156,-18 297,95 315,251 18,156 -95,297 -251,315 -156,18 -297,-95 -315,-251 -18,-156 95,-298 250,-316z"/>
  <path class="fil0" d="M2316 3765c-4,-248 12,-399 265,-569l-941 104 24 220 182 206 470 39z"/>
  <path class="fil0" d="M2867 3162c293,-33 559,179 592,472 33,293 -178,559 -471,592 -293,33 -559,-179 -592,-471 -33,-293 178,-559 471,-592zm28 249c156,-18 297,95 315,251 18,156 -95,297 -251,315 -156,18 -297,-95 -315,-251 -18,-156 95,-298 251,-315z"/>
 </g>
</svg>
