<?xml version="1.0" encoding="UTF-8"?>
<!DOCTYPE svg PUBLIC "-//W3C//DTD SVG 1.1//EN" "http://www.w3.org/Graphics/SVG/1.1/DTD/svg11.dtd">
<!-- Creator: CorelDRAW X6 -->
<svg xmlns="http://www.w3.org/2000/svg" xml:space="preserve" width="42.3mm" height="20.5279mm" version="1.1" style="shape-rendering:geometricPrecision; text-rendering:geometricPrecision; image-rendering:optimizeQuality; fill-rule:evenodd; clip-rule:evenodd"
viewBox="0 0 1477 717"
 xmlns:xlink="http://www.w3.org/1999/xlink">
 <defs>
  <style type="text/css">
   <![CDATA[
    .fil0 {fill:#212220}
   ]]>
  </style>
 </defs>
 <g id="Layer_x0020_1">
  <metadata id="CorelCorpID_0Corel-Layer"/>
  <path class="fil0" d="M0 641l0 4 0 4 0 4 1 4 1 4 1 4 1 4 1 3 2 3 2 3 2 3 2 3 2 3 2 3 2 3 3 3 3 3 3 2 3 2 3 2 3 2 3 2 3 2 3 2 3 1 4 1 4 1 4 1 4 1 4 0 4 0 4 0 1325 0 4 0 4 0 4 0 4 -1 4 -1 4 -1 4 -1 3 -1 3 -2 3 -2 3 -2 3 -2 3 -2 3 -2 3 -2 3 -3 3 -3 2 -3 2 -3 2 -3 2 -3 2 -3 2 -3 2 -3 1 -3 1 -4 1 -4 1 -4 1 -4 0 -4 0 -4 0 -4 0 -564 0 -4 0 -4 0 -4 -1 -4 -1 -4 -1 -4 -1 -4 -1 -3 -2 -3 -2 -3 -2 -3 -2 -3 -2 -3 -2 -3 -2 -3 -3 -3 -3 -3 -3 -2 -3 -2 -3 -2 -3 -2 -3 -2 -3 -2 -3 -2 -3 -1 -4 -1 -4 -1 -4 -1 -4 -1 -4 0 -4 0 -4 0 -1325 0 -4 0 -4 0 -4 0 -4 1 -4 1 -4 1 -4 1 -3 1 -3 2 -3 2 -3 2 -3 2 -3 2 -3 2 -3 2 -3 3 -3 3 -2 3 -2 3 -2 3 -2 3 -2 3 -2 3 -2 3 -1 3 -1 4 -1 4 -1 4 -1 4 0 4 0 4 0 4 0 564zm1456 -82l0 -483 0 -3 0 -3 0 -3 0 -3 -1 -3 -1 -3 -1 -3 -1 -2 -1 -2 -1 -2 -1 -2 -1 -2 -2 -2 -2 -2 -2 -2 -2 -2 -2 -2 -2 -2 -2 -2 -2 -2 -2 -1 -2 -1 -2 -1 -2 -1 -2 -1 -3 -1 -3 -1 -3 -1 -3 0 -3 0 -3 0 -3 0 -1324 0 -3 0 -3 0 -3 0 -3 0 -3 1 -3 1 -3 1 -2 1 -2 1 -2 1 -2 1 -2 1 -2 2 -2 2 -2 2 -2 2 -2 2 -2 2 -2 2 -2 2 -1 2 -1 2 -1 2 -1 2 -1 2 -1 3 -1 3 -1 3 0 3 0 3 0 3 0 3 0 541 10 1 705 1 1 -60 318 0 400 0z"/>
  <path class="fil0" d="M936 409l-436 48c27,8 57,36 57,77l342 -37c-5,-39 6,-61 37,-88z"/>
  <path class="fil0" d="M1079 473c-7,-36 -15,-57 -56,-73l138 -16 4 32 -19 35 -66 21z"/>
  <path class="fil0" d="M671 366l-11 -100 120 -13m0 0c33,30 69,58 102,90l-211 23m-471 110l15 -60 191 -21 85 -132 291 -32 125 108 231 11 12 21 -951 104zm264 -88l64 -108 111 -12 11 99 -186 20z"/>
  <path class="fil0" d="M980 404c-43,5 -74,44 -69,87 5,43 44,74 86,69 43,-5 74,-44 69,-86 -5,-43 -44,-74 -86,-69zm4 36c-23,3 -39,23 -37,46 3,23 23,39 46,37 23,-3 39,-23 37,-46 -3,-23 -23,-39 -46,-37z"/>
  <path class="fil0" d="M378 555l-115 2 -62 -67 219 -24c-34,23 -43,42 -42,89z"/>
  <path class="fil0" d="M459 463c-43,5 -74,44 -69,87 5,43 44,74 86,69 43,-5 74,-44 69,-86 -5,-43 -44,-74 -86,-69zm4 36c-23,3 -39,23 -37,46 3,23 23,39 46,37 23,-3 39,-23 37,-46 -3,-23 -23,-39 -46,-37z"/>
 </g>
</svg>
