<?xml version="1.0" encoding="UTF-8"?>
<!DOCTYPE svg PUBLIC "-//W3C//DTD SVG 1.1//EN" "http://www.w3.org/Graphics/SVG/1.1/DTD/svg11.dtd">
<!-- Creator: CorelDRAW X6 -->
<svg xmlns="http://www.w3.org/2000/svg" xml:space="preserve" width="42.2999mm" height="20.5279mm" version="1.1" style="shape-rendering:geometricPrecision; text-rendering:geometricPrecision; image-rendering:optimizeQuality; fill-rule:evenodd; clip-rule:evenodd"
viewBox="0 0 6220 3019"
 xmlns:xlink="http://www.w3.org/1999/xlink">
 <defs>
  <style type="text/css">
   <![CDATA[
    .fil1 {fill:#212220}
    .fil0 {fill:#2B2A29}
   ]]>
  </style>
 </defs>
 <g id="Layer_x0020_1">
  <metadata id="CorelCorpID_0Corel-Layer"/>
  <path class="fil0" d="M0 2697l0 18 1 16 2 16 3 16 4 15 4 15 5 15 6 14 6 14 7 14 8 13 8 13 9 13 10 12 10 12 11 11 11 11 12 10 12 10 13 9 13 8 13 8 14 7 14 6 15 6 15 5 15 4 15 4 16 3 16 2 16 1 18 0 5577 0 18 0 16 -1 16 -2 16 -3 15 -4 15 -4 15 -5 14 -6 14 -6 14 -7 13 -8 13 -8 13 -9 12 -10 12 -10 11 -11 11 -11 10 -12 10 -12 9 -13 8 -13 8 -13 7 -14 6 -14 6 -14 5 -15 4 -15 4 -15 3 -16 2 -16 1 -16 0 -18 0 -2376 0 -18 -1 -16 -2 -16 -3 -16 -4 -15 -4 -15 -5 -15 -6 -14 -6 -14 -7 -14 -8 -13 -8 -13 -9 -13 -10 -12 -10 -12 -11 -11 -11 -11 -12 -10 -12 -10 -13 -9 -13 -8 -13 -8 -14 -7 -14 -6 -15 -6 -15 -5 -15 -4 -15 -4 -16 -3 -16 -2 -16 -1 -18 0 -5577 0 -18 0 -16 1 -16 2 -16 3 -15 4 -15 4 -15 5 -15 6 -14 6 -14 7 -13 8 -13 8 -13 9 -12 10 -12 10 -11 11 -11 11 -10 12 -10 12 -9 13 -8 13 -8 13 -7 14 -6 14 -6 14 -5 15 -4 15 -4 15 -3 16 -2 16 -1 16 0 18 0 2376zm6129 -343l0 -2032 0 -14 -1 -12 -1 -11 -2 -11 -3 -11 -3 -11 -4 -11 -4 -10 -5 -10 -5 -10 -5 -10 -6 -9 -6 -9 -7 -9 -7 -8 -8 -8 -8 -8 -8 -7 -9 -7 -9 -6 -9 -6 -10 -5 -10 -5 -10 -5 -10 -4 -11 -4 -11 -3 -11 -3 -11 -2 -11 -1 -12 -1 -14 0 -5575 0 -14 0 -12 1 -11 1 -11 2 -11 3 -11 3 -11 4 -10 4 -10 5 -10 5 -10 5 -9 6 -9 6 -9 7 -8 7 -8 8 -8 8 -7 8 -7 9 -6 9 -6 9 -5 10 -5 10 -5 10 -4 10 -4 11 -3 11 -3 11 -2 11 -1 11 -1 12 0 14 0 2277 44 3 1738 3 0 -252 4255 0z"/>
  <path class="fil1" d="M2771 1681l1880 2c-111,48 -228,182 -209,357l-1474 0c2,-170 -52,-257 -197,-359z"/>
  <path class="fil1" d="M5218 2045l492 -47 231 -315 -945 2c158,82 202,161 222,360z"/>
  <path class="fil1" d="M2193 2021c15,-155 36,-248 206,-337l-595 -2 -1 139 99 142 291 58z"/>
  <path class="fil1" d="M3880 1377l1 -433 -519 1m0 0c-129,145 -266,281 -391,431l909 0m2058 248l-92 -248 -826 1 -426 -524 -1254 0 -482 519 -981 156 -41 97 4104 0zm-1167 -251l-325 -430 -478 1 0 429 803 0z"/>
  <path class="fil1" d="M2579 1683c185,0 336,151 336,337 0,185 -151,336 -336,336 -185,0 -336,-151 -336,-336 0,-185 151,-337 336,-336zm0 158c98,0 179,81 179,179 0,99 -81,179 -179,179 -99,0 -179,-80 -179,-179 0,-99 80,-179 179,-179z"/>
  <path class="fil1" d="M4831 1688c185,0 336,151 336,337 0,185 -151,336 -337,336 -185,0 -336,-151 -336,-336 0,-185 151,-337 336,-336zm0 157c98,0 179,81 179,179 0,99 -81,179 -179,179 -98,0 -179,-80 -179,-179 0,-99 80,-179 179,-179z"/>
 </g>
</svg>
