<?xml version="1.0" encoding="UTF-8"?>
<!DOCTYPE svg PUBLIC "-//W3C//DTD SVG 1.1//EN" "http://www.w3.org/Graphics/SVG/1.1/DTD/svg11.dtd">
<!-- Creator: CorelDRAW X6 -->
<svg xmlns="http://www.w3.org/2000/svg" xml:space="preserve" width="42.3mm" height="20.528mm" version="1.1" style="shape-rendering:geometricPrecision; text-rendering:geometricPrecision; image-rendering:optimizeQuality; fill-rule:evenodd; clip-rule:evenodd"
viewBox="0 0 2292 1112"
 xmlns:xlink="http://www.w3.org/1999/xlink">
 <defs>
  <style type="text/css">
   <![CDATA[
    .fil0 {fill:#212220}
   ]]>
  </style>
 </defs>
 <g id="Layer_x0020_1">
  <metadata id="CorelCorpID_0Corel-Layer"/>
  <path class="fil0" d="M0 994l0 7 0 6 1 6 1 6 1 6 2 6 2 5 2 5 2 5 3 5 3 5 3 5 3 5 4 4 4 4 4 4 4 4 4 4 4 4 5 3 5 3 5 3 5 3 5 2 5 2 5 2 6 2 6 1 6 1 6 1 6 0 7 0 2055 0 7 0 6 0 6 -1 6 -1 6 -1 6 -2 5 -2 5 -2 5 -2 5 -3 5 -3 5 -3 5 -3 4 -4 4 -4 4 -4 4 -4 4 -4 4 -4 3 -5 3 -5 3 -5 3 -5 2 -5 2 -5 2 -5 2 -6 1 -6 1 -6 1 -6 0 -6 0 -7 0 -876 0 -7 0 -6 -1 -6 -1 -6 -1 -6 -2 -6 -2 -5 -2 -5 -2 -5 -3 -5 -3 -5 -3 -5 -3 -5 -4 -4 -4 -4 -4 -4 -4 -4 -4 -4 -4 -4 -5 -3 -5 -3 -5 -3 -5 -3 -5 -2 -5 -2 -5 -2 -6 -2 -6 -1 -6 -1 -6 -1 -6 0 -7 0 -2055 0 -7 0 -6 0 -6 1 -6 1 -6 1 -6 2 -5 2 -5 2 -5 2 -5 3 -5 3 -5 3 -5 3 -4 4 -4 4 -4 4 -4 4 -4 4 -4 4 -3 5 -3 5 -3 5 -3 5 -2 5 -2 5 -2 5 -2 6 -1 6 -1 6 -1 6 0 6 0 7 0 876zm2258 -126l0 -749 0 -5 0 -4 -1 -4 -1 -4 -1 -4 -1 -4 -1 -4 -1 -4 -2 -4 -2 -4 -2 -4 -2 -3 -2 -3 -3 -3 -3 -3 -3 -3 -3 -3 -3 -3 -3 -3 -3 -2 -3 -2 -4 -2 -4 -2 -4 -2 -4 -2 -4 -1 -4 -1 -4 -1 -4 -1 -4 -1 -4 0 -5 0 -2055 0 -5 0 -4 0 -4 1 -4 1 -4 1 -4 1 -4 1 -4 2 -4 2 -4 2 -4 2 -3 2 -3 2 -3 3 -3 3 -3 3 -3 3 -3 3 -3 3 -2 3 -2 3 -2 4 -2 4 -2 4 -2 4 -1 4 -1 4 -1 4 -1 4 -1 4 0 4 0 5 0 839 16 1 641 1 0 -93 1568 0z"/>
  <path class="fil0" d="M1832 620l-693 1c41,18 84,67 77,132l543 0c-1,-62 19,-95 73,-132z"/>
  <path class="fil0" d="M931 753l-181 -17 -85 -116 348 1c-58,30 -74,59 -82,133z"/>
  <path class="fil0" d="M2046 745c-6,-57 -13,-91 -76,-124l219 -1 0 51 -36 52 -107 21z"/>
  <path class="fil0" d="M1424 507l0 -160 191 1m0 0c47,53 98,104 144,159l-335 0m-759 91l34 -91 304 0 157 -193 462 0 178 191 362 58 15 36 -1512 0zm430 -92l120 -158 176 1 0 158 -296 0z"/>
  <path class="fil0" d="M1903 620c-68,0 -124,56 -124,124 0,68 56,124 124,124 68,0 124,-56 124,-124 0,-68 -56,-124 -124,-124zm0 58c-36,0 -66,30 -66,66 0,36 30,66 66,66 36,0 66,-30 66,-66 0,-36 -30,-66 -66,-66z"/>
  <path class="fil0" d="M1073 622c-68,0 -124,56 -124,124 0,68 56,124 124,124 68,0 124,-56 124,-124 0,-68 -56,-124 -124,-124zm0 58c-36,0 -66,30 -66,66 0,36 30,66 66,66 36,0 66,-30 66,-66 0,-36 -30,-66 -66,-66z"/>
 </g>
</svg>
