<?xml version="1.0" encoding="UTF-8"?>
<!DOCTYPE svg PUBLIC "-//W3C//DTD SVG 1.1//EN" "http://www.w3.org/Graphics/SVG/1.1/DTD/svg11.dtd">
<!-- Creator: CorelDRAW X6 -->
<svg xmlns="http://www.w3.org/2000/svg" xml:space="preserve" width="42.3mm" height="20.5279mm" version="1.1" style="shape-rendering:geometricPrecision; text-rendering:geometricPrecision; image-rendering:optimizeQuality; fill-rule:evenodd; clip-rule:evenodd"
viewBox="0 0 1108 538"
 xmlns:xlink="http://www.w3.org/1999/xlink">
 <defs>
  <style type="text/css">
   <![CDATA[
    .str0 {stroke:#2B2A29;stroke-width:1.99628}
    .fil0 {fill:#212220}
    .fil1 {fill:#FEFEFE}
   ]]>
  </style>
 </defs>
 <g id="Layer_x0020_1">
  <metadata id="CorelCorpID_0Corel-Layer"/>
  <path class="fil0" d="M481 252l-13 0 0 26 13 0c17,0 31,14 31,31l0 4c0,14 -10,27 -24,30 -17,4 -33,-6 -38,-23l-30 0c4,30 29,53 60,53 33,0 60,-27 60,-60l0 -4c0,-18 -9,-34 -24,-44 14,-10 22,-25 22,-42 0,-30 -23,-55 -53,-58 -32,-3 -61,21 -64,53l30 0c3,-14 15,-24 29,-24 16,0 29,13 29,29 0,16 -13,29 -29,29m507 56c0,-12 10,-22 22,-22 12,0 22,10 22,22l0 67 22 0 0 -74c0,-11 -5,-22 -14,-29 -16,-13 -39,-10 -52,6l0 -12 -22 0 0 110 22 0 0 -67zm-110 -3c0,-12 -5,-24 -15,-32 -18,-14 -43,-12 -58,6 -2,-3 -4,-5 -7,-7 -16,-13 -39,-10 -52,6l0 -12 -22 0 0 110 22 0 0 -67c0,-12 10,-22 22,-22 12,0 22,10 22,22l0 67 22 0 0 -67c0,-12 10,-22 22,-22 12,0 22,10 22,22l0 67 22 0 0 -70zm-184 9c0,32 -26,58 -58,58 -32,0 -58,-26 -58,-58l0 -91c0,-32 26,-59 58,-59 32,0 58,26 58,59l0 91zm-29 0c0,16 -13,29 -29,29 -16,0 -29,-13 -29,-29l0 -91c0,-16 13,-29 29,-29 16,0 29,13 29,29l0 91zm246 -71l0 -22 22 0 0 22 -22 0zm0 132l0 -110 22 0 0 110 -22 0z"/>
  <path class="fil0" d="M0 481l0 3 0 3 0 3 1 3 1 3 1 3 1 3 1 3 1 3 1 2 1 2 1 2 2 2 2 2 2 2 2 2 2 2 2 2 2 2 2 2 2 1 2 1 2 1 3 1 3 1 3 1 3 1 3 1 3 1 3 0 3 0 3 0 994 0 3 0 3 0 3 0 3 -1 3 -1 3 -1 3 -1 3 -1 3 -1 2 -1 2 -1 2 -1 2 -2 2 -2 2 -2 2 -2 2 -2 2 -2 2 -2 2 -2 1 -2 1 -2 1 -2 1 -3 1 -3 1 -3 1 -3 1 -3 1 -3 0 -3 0 -3 0 -3 0 -423 0 -3 0 -3 0 -3 -1 -3 -1 -3 -1 -3 -1 -3 -1 -3 -1 -3 -1 -2 -1 -2 -1 -2 -2 -2 -2 -2 -2 -2 -2 -2 -2 -2 -2 -2 -2 -2 -2 -2 -2 -1 -2 -1 -2 -1 -3 -1 -3 -1 -3 -1 -3 -1 -3 -1 -3 -1 -3 0 -3 0 -3 0 -994 0 -3 0 -3 0 -3 0 -3 1 -3 1 -3 1 -3 1 -3 1 -3 1 -2 1 -2 1 -2 1 -2 2 -2 2 -2 2 -2 2 -2 2 -2 2 -2 2 -2 2 -1 2 -1 2 -1 2 -1 3 -1 3 -1 3 -1 3 -1 3 -1 3 0 3 0 3 0 3 0 423zm16 0l0 3 0 2 0 2 0 2 0 2 1 2 1 2 1 2 1 2 1 2 1 2 1 2 1 2 1 2 1 1 1 1 1 1 1 1 2 1 2 1 2 1 2 1 2 1 2 1 2 1 2 1 2 1 2 0 2 0 2 0 2 0 3 0 993 0 3 0 2 0 2 0 2 0 2 0 2 -1 2 -1 2 -1 2 -1 2 -1 2 -1 2 -1 2 -1 2 -1 1 -1 1 -1 1 -1 1 -1 1 -2 1 -2 1 -2 1 -2 1 -2 1 -2 1 -2 1 -2 1 -2 0 -2 0 -2 0 -2 0 -2 0 -3 0 -423 0 -3 0 -2 0 -2 0 -2 0 -2 -1 -2 -1 -2 -1 -2 -1 -2 -1 -2 -1 -2 -1 -2 -1 -2 -1 -2 -1 -1 -1 -1 -1 -1 -1 -1 -2 -1 -2 -1 -2 -1 -2 -1 -2 -1 -2 -1 -2 -1 -2 -1 -2 -1 -2 0 -2 0 -2 0 -2 0 -3 0 -993 0 -3 0 -2 0 -2 0 -2 0 -2 0 -2 1 -2 1 -2 1 -2 1 -2 1 -2 1 -2 1 -2 1 -2 1 -1 1 -1 1 -1 1 -1 1 -1 2 -1 2 -1 2 -1 2 -1 2 -1 2 -1 2 -1 2 -1 2 0 2 0 2 0 2 0 2 0 3 0 423z"/>
  <path class="fil0 str0" d="M54 458c0,17 14,32 32,32l247 0c17,0 32,-14 32,-32l0 -379c0,-17 -14,-32 -32,-32l-247 0c-17,0 -32,14 -32,32l0 379z"/>
  <path class="fil1 str0" d="M96 214l65 -45c19,44 74,42 92,0l65 45c-16,31 -56,68 -111,67 -53,0 -95,-34 -111,-66z"/>
  <polygon class="fil1 str0" points="207,163 178,89 236,89 "/>
  <path class="fil1" d="M129 455c0,10 8,18 18,18l120 0c10,0 18,-8 18,-18l0 -120c0,-10 -8,-18 -18,-18l-120 0c-10,0 -18,8 -18,18l0 120z"/>
  <path class="fil0 str0" d="M268 465l-122 0c-5,0 -8,-4 -8,-8l0 -122c0,-5 4,-8 8,-8l122 0c5,0 8,4 8,8l0 122c0,5 -4,8 -8,8z"/>
  <path class="fil1" d="M169 455l0 -115 45 0c19,0 35,16 35,35 0,19 -16,35 -35,35l-28 0 0 45 -17 0zm44 -98c10,0 18,8 18,18 0,10 -8,18 -18,18l-27 0 0 -37 27 0z"/>
 </g>
</svg>
