<?xml version="1.0" encoding="UTF-8"?>
<!DOCTYPE svg PUBLIC "-//W3C//DTD SVG 1.1//EN" "http://www.w3.org/Graphics/SVG/1.1/DTD/svg11.dtd">
<!-- Creator: CorelDRAW X6 -->
<svg xmlns="http://www.w3.org/2000/svg" xml:space="preserve" width="42.2999mm" height="20.5279mm" version="1.1" style="shape-rendering:geometricPrecision; text-rendering:geometricPrecision; image-rendering:optimizeQuality; fill-rule:evenodd; clip-rule:evenodd"
viewBox="0 0 3004 1458"
 xmlns:xlink="http://www.w3.org/1999/xlink">
 <defs>
  <style type="text/css">
   <![CDATA[
    .fil0 {fill:#212220}
   ]]>
  </style>
 </defs>
 <g id="Layer_x0020_1">
  <metadata id="CorelCorpID_0Corel-Layer"/>
  <path class="fil0" d="M0 1303l0 9 1 8 1 8 1 8 2 7 2 7 2 7 3 7 3 7 3 7 4 6 4 6 4 6 5 6 5 6 5 5 5 5 6 5 6 5 6 4 6 4 6 4 7 3 7 3 7 3 7 2 7 2 7 2 8 1 8 1 8 1 9 0 2694 0 9 0 8 -1 8 -1 8 -1 7 -2 7 -2 7 -2 7 -3 7 -3 7 -3 6 -4 6 -4 6 -4 6 -5 6 -5 5 -5 5 -5 5 -6 5 -6 4 -6 4 -6 4 -6 3 -7 3 -7 3 -7 2 -7 2 -7 2 -7 1 -8 1 -8 1 -8 0 -9 0 -1148 0 -9 -1 -8 -1 -8 -1 -8 -2 -7 -2 -7 -2 -7 -3 -7 -3 -7 -3 -7 -4 -6 -4 -6 -4 -6 -5 -6 -5 -6 -5 -5 -5 -5 -6 -5 -6 -5 -6 -4 -6 -4 -6 -4 -7 -3 -7 -3 -7 -3 -7 -2 -7 -2 -7 -2 -8 -1 -8 -1 -8 -1 -9 0 -2694 0 -9 0 -8 1 -8 1 -8 1 -7 2 -7 2 -7 2 -7 3 -7 3 -7 3 -6 4 -6 4 -6 4 -6 5 -6 5 -5 5 -5 5 -5 6 -5 6 -4 6 -4 6 -4 6 -3 7 -3 7 -3 7 -2 7 -2 7 -2 7 -1 8 -1 8 -1 8 0 9 0 1148zm759 -383l-715 309 0 74 0 7 0 6 1 6 1 5 1 5 1 5 2 5 2 5 2 5 2 5 3 5 3 4 3 4 3 4 3 4 4 4 4 4 4 3 4 3 4 3 4 3 5 3 5 2 5 2 5 2 5 2 5 1 5 1 5 1 6 1 6 0 7 0 607 0 -4 -494zm-715 119l675 -294 1572 0 669 300 0 -888 0 -7 0 -6 -1 -6 -1 -5 -1 -5 -1 -5 -2 -5 -2 -5 -2 -5 -2 -5 -3 -5 -3 -4 -3 -4 -3 -4 -3 -4 -4 -4 -4 -4 -4 -3 -4 -3 -4 -3 -4 -3 -5 -3 -5 -2 -5 -2 -5 -2 -5 -2 -5 -1 -5 -1 -5 -1 -6 -1 -6 0 -7 0 -2693 0 -7 0 -6 0 -6 1 -5 1 -5 1 -5 1 -5 2 -5 2 -5 2 -5 2 -5 3 -4 3 -4 3 -4 3 -4 3 -4 4 -4 4 -3 4 -3 4 -3 4 -3 4 -3 5 -2 5 -2 5 -2 5 -2 5 -1 5 -1 5 -1 5 -1 6 0 6 0 7 0 883zm2916 189l-717 -315 1 501 604 0 7 0 6 0 6 -1 5 -1 5 -1 5 -1 5 -2 5 -2 5 -2 5 -2 5 -3 4 -3 4 -3 4 -3 4 -3 4 -4 4 -4 3 -4 3 -4 3 -4 3 -4 3 -5 2 -5 2 -5 2 -5 2 -5 1 -5 1 -5 1 -5 1 -6 0 -6 0 -7 0 -75zm-838 186l-2 -498 -1236 -1 3 499 1235 0z"/>
  <path class="fil0" d="M1114 504l671 0c-40,17 -81,65 -74,128l-526 0c1,-61 -19,-92 -70,-128z"/>
  <path class="fil0" d="M1987 633l175 -17 83 -112 -338 1c56,29 72,58 79,129z"/>
  <path class="fil0" d="M907 625c5,-55 13,-89 73,-120l-212 -1 0 50 35 51 104 21z"/>
  <path class="fil0" d="M1510 395l0 -155 -185 1m0 0c-46,52 -95,100 -140,154l324 0m735 88l-33 -89 -295 1 -152 -187 -448 0 -172 185 -350 56 -15 35 1465 -1zm-417 -89l-116 -153 -170 1 0 153 287 0z"/>
  <path class="fil0" d="M1045 504c66,0 120,54 120,120 0,66 -54,120 -120,120 -66,0 -120,-54 -120,-120 0,-66 54,-120 120,-120zm0 56c35,0 64,29 64,64 0,35 -29,64 -64,64 -35,0 -64,-29 -64,-64 0,-35 29,-64 64,-64z"/>
  <path class="fil0" d="M1849 505c66,0 120,54 120,120 0,66 -54,120 -120,120 -66,0 -120,-54 -120,-120 0,-66 54,-120 120,-120zm0 56c35,0 64,29 64,64 0,35 -29,64 -64,64 -35,0 -64,-29 -64,-64 0,-35 29,-64 64,-64z"/>
 </g>
</svg>
