<?xml version="1.0" encoding="UTF-8"?>
<!DOCTYPE svg PUBLIC "-//W3C//DTD SVG 1.1//EN" "http://www.w3.org/Graphics/SVG/1.1/DTD/svg11.dtd">
<!-- Creator: CorelDRAW X6 -->
<svg xmlns="http://www.w3.org/2000/svg" xml:space="preserve" width="42.3762mm" height="20.6041mm" version="1.1" style="shape-rendering:geometricPrecision; text-rendering:geometricPrecision; image-rendering:optimizeQuality; fill-rule:evenodd; clip-rule:evenodd"
viewBox="0 0 4064 1976"
 xmlns:xlink="http://www.w3.org/1999/xlink">
 <defs>
  <style type="text/css">
   <![CDATA[
    .str0 {stroke:#2B2A29;stroke-width:7.30697}
    .fil0 {fill:#212220}
    .fil1 {fill:#2B2A29;fill-rule:nonzero}
   ]]>
  </style>
 </defs>
 <g id="Layer_x0020_1">
  <metadata id="CorelCorpID_0Corel-Layer"/>
  <path class="fil0 str0" d="M4 1763l0 12 1 11 1 10 2 10 2 10 3 10 3 10 4 9 4 9 5 9 5 9 5 8 6 8 6 8 7 8 7 7 7 7 8 7 8 6 8 6 8 5 9 5 9 5 9 4 9 4 10 3 10 3 10 2 10 2 10 1 11 1 12 0 3637 0 12 0 11 -1 10 -1 10 -2 10 -2 10 -3 10 -3 9 -4 9 -4 9 -5 9 -5 8 -5 8 -6 8 -6 8 -7 7 -7 7 -7 7 -8 6 -8 6 -8 5 -8 5 -9 5 -9 4 -9 4 -9 3 -10 3 -10 2 -10 2 -10 1 -10 1 -11 0 -12 0 -1549 0 -12 -1 -11 -1 -10 -2 -10 -2 -10 -3 -10 -3 -10 -4 -9 -4 -9 -5 -9 -5 -9 -5 -8 -6 -8 -6 -8 -7 -8 -7 -7 -7 -7 -8 -7 -8 -6 -8 -6 -8 -5 -9 -5 -9 -5 -9 -4 -9 -4 -10 -3 -10 -3 -10 -2 -10 -2 -10 -1 -11 -1 -12 0 -3637 0 -12 0 -11 1 -10 1 -10 2 -10 2 -10 3 -10 3 -9 4 -9 4 -9 5 -9 5 -8 5 -8 6 -8 6 -8 7 -7 7 -7 7 -7 8 -6 8 -6 8 -5 8 -5 9 -5 9 -4 9 -4 9 -3 10 -3 10 -2 10 -2 10 -1 10 -1 11 0 12 0 1549zm60 -1l0 9 1 8 1 7 1 7 2 7 2 7 2 7 3 7 3 7 3 6 4 6 4 6 4 6 4 6 5 5 5 5 5 5 5 5 6 4 6 4 6 4 6 4 6 3 7 3 7 3 7 2 7 2 7 2 7 1 7 1 8 1 9 0 3636 0 9 0 8 -1 7 -1 7 -1 7 -2 7 -2 7 -2 7 -3 7 -3 6 -3 6 -4 6 -4 6 -4 6 -4 5 -5 5 -5 5 -5 5 -5 4 -6 4 -6 4 -6 4 -6 3 -6 3 -7 3 -7 2 -7 2 -7 2 -7 1 -7 1 -7 1 -8 0 -9 0 -1548 0 -9 -1 -8 -1 -7 -1 -7 -2 -7 -2 -7 -2 -7 -3 -7 -3 -7 -3 -6 -4 -6 -4 -6 -4 -6 -4 -6 -5 -5 -5 -5 -5 -5 -5 -5 -6 -4 -6 -4 -6 -4 -6 -4 -6 -3 -7 -3 -7 -3 -7 -2 -7 -2 -7 -2 -7 -1 -7 -1 -8 -1 -9 0 -3636 0 -9 0 -8 1 -7 1 -7 1 -7 2 -7 2 -7 2 -7 3 -7 3 -6 3 -6 4 -6 4 -6 4 -6 4 -5 5 -5 5 -5 5 -5 5 -4 6 -4 6 -4 6 -4 6 -3 6 -3 7 -3 7 -2 7 -2 7 -2 7 -1 7 -1 7 -1 8 0 9 0 1548z"/>
  <path class="fil1" d="M1424 1569l0 -1016 -170 124 0 -182 170 -124 172 0 0 1198 -172 0zm465 -550l0 -648 638 0 0 172 -476 0 0 270c55,-44 119,-66 191,-66 46,0 87,9 125,26 38,17 67,38 89,62 33,36 57,74 72,116 15,42 22,113 22,212 0,81 -6,140 -18,180 -12,39 -31,75 -56,108 -24,31 -59,60 -104,87 -44,27 -96,40 -156,40 -77,0 -152,-24 -224,-72 -72,-48 -114,-127 -127,-239l172 0c20,93 77,140 172,140 84,0 133,-29 147,-86 14,-58 21,-114 21,-171 0,-66 -11,-121 -34,-165 -22,-44 -69,-66 -140,-66 -67,0 -118,33 -155,100l-162 0zm882 -4l0 -172 114 0 0 172 83 0 0 87 -83 0 0 329c0,28 13,43 40,43l42 0 0 107 -59 0c-40,0 -72,-12 -98,-36 -26,-24 -39,-58 -39,-103l0 -339 -57 0 0 -87 57 0z"/>
 </g>
</svg>
