<?xml version="1.0" encoding="UTF-8"?>
<!DOCTYPE svg PUBLIC "-//W3C//DTD SVG 1.1//EN" "http://www.w3.org/Graphics/SVG/1.1/DTD/svg11.dtd">
<!-- Creator: CorelDRAW X6 -->
<svg xmlns="http://www.w3.org/2000/svg" xml:space="preserve" width="42.3mm" height="20.528mm" version="1.1" style="shape-rendering:geometricPrecision; text-rendering:geometricPrecision; image-rendering:optimizeQuality; fill-rule:evenodd; clip-rule:evenodd"
viewBox="0 0 1795 871"
 xmlns:xlink="http://www.w3.org/1999/xlink">
 <defs>
  <style type="text/css">
   <![CDATA[
    .fil0 {fill:#212220}
   ]]>
  </style>
 </defs>
 <g id="Layer_x0020_1">
  <metadata id="CorelCorpID_0Corel-Layer"/>
  <path class="fil0" d="M0 778l0 5 0 5 1 5 1 5 1 4 1 4 1 4 2 4 2 4 2 4 2 4 2 4 3 4 3 3 3 3 3 3 3 3 3 3 3 3 4 3 4 2 4 2 4 2 4 2 4 2 4 1 4 1 4 1 5 1 5 1 5 0 5 0 1609 0 5 0 5 0 5 -1 5 -1 4 -1 4 -1 4 -1 4 -2 4 -2 4 -2 4 -2 4 -2 4 -3 3 -3 3 -3 3 -3 3 -3 3 -3 3 -3 3 -4 2 -4 2 -4 2 -4 2 -4 2 -4 1 -4 1 -4 1 -4 1 -5 1 -5 0 -5 0 -5 0 -686 0 -5 0 -5 -1 -5 -1 -5 -1 -4 -1 -4 -1 -4 -2 -4 -2 -4 -2 -4 -2 -4 -2 -4 -3 -4 -3 -3 -3 -3 -2 -3 0 -1 -1 0 -3 -2 -3 -3 -3 -3 -4 -3 -4 -2 -4 -2 -4 -2 -4 -2 -4 -2 -4 -1 -4 -1 -4 -1 -5 -1 -5 -1 -5 0 -5 0 -1609 0 -5 0 -5 0 -5 1 -5 1 -4 1 -4 1 -4 1 -4 2 -4 2 -4 2 -4 2 -4 2 -4 3 -3 3 -3 3 -3 3 -3 3 -3 3 -3 3 -3 4 -2 4 -2 4 -2 4 -2 4 -2 4 -1 4 -1 4 -1 4 -1 5 -1 5 0 5 0 5 0 686zm1768 -137c-88,-23 -154,-91 -182,-171 -62,74 -110,106 -208,115 -121,-10 -184,-66 -234,-173 -133,-1 -274,-53 -362,-156 -27,-41 -83,-113 -79,-230l-611 0 -4 0 -3 0 -3 0 -3 1 -3 1 -3 1 -3 1 -3 1 -3 1 -3 1 -3 2 -3 2 -3 2 -3 2 -2 2 -2 2 -2 2 -2 2 -2 2 -2 3 -2 3 -2 3 -1 3 -1 3 -1 3 -1 3 -1 3 -1 3 -1 3 0 3 0 3 0 4 0 685 0 4 0 3 0 3 1 3 1 3 1 3 1 3 1 3 1 3 1 3 2 3 2 3 2 3 2 2 2 2 2 2 2 2 2 2 3 2 3 2 3 2 3 2 3 1 3 1 3 1 3 1 3 1 3 1 3 1 3 0 3 0 4 0 1609 0 4 0 3 0 3 0 3 -1 3 -1 3 -1 3 -1 3 -1 3 -1 3 -1 3 -2 3 -2 3 -2 3 -2 2 -2 2 -2 2 -2 2 -2 2 -2 2 -3 2 -3 2 -3 1 -3 1 -3 1 -3 1 -3 1 -3 1 -3 1 -3 0 -3 0 -3 0 -4 0 -136zm-799 76c-25,-4 -40,-15 -41,-46 0,-19 19,-38 41,-38 24,-4 50,-9 69,-28 -17,26 -26,45 -27,68 2,23 -18,43 -42,43m-108 -176c-25,-4 -40,-15 -41,-46 0,-19 19,-38 41,-38 24,-4 50,-9 69,-28 -17,26 -26,45 -27,68 2,23 -18,43 -42,43m-490 194c-25,-4 -40,-15 -41,-46 0,-19 19,-38 41,-38 24,-4 50,-9 69,-28 -17,26 -26,45 -27,68 2,23 -18,43 -42,43m234 -149c-25,-4 -40,-15 -41,-46 0,-19 19,-38 41,-38 24,-4 50,-9 69,-28 -17,26 -26,45 -27,68 2,23 -18,43 -42,43m-274 -77c-25,-4 -40,-15 -41,-46 0,-19 19,-38 41,-38 24,-4 50,-9 69,-28 -17,26 -26,45 -27,68 2,23 -18,43 -42,43m162 -172c-25,-4 -40,-15 -41,-46 0,-19 19,-38 41,-38 24,-4 50,-9 69,-28 -17,26 -26,45 -27,68 2,23 -18,43 -42,43"/>
 </g>
</svg>
