<?xml version="1.0" encoding="UTF-8"?>
<!DOCTYPE svg PUBLIC "-//W3C//DTD SVG 1.1//EN" "http://www.w3.org/Graphics/SVG/1.1/DTD/svg11.dtd">
<!-- Creator: CorelDRAW X6 -->
<svg xmlns="http://www.w3.org/2000/svg" xml:space="preserve" width="42.3mm" height="20.528mm" version="1.1" style="shape-rendering:geometricPrecision; text-rendering:geometricPrecision; image-rendering:optimizeQuality; fill-rule:evenodd; clip-rule:evenodd"
viewBox="0 0 42304 20530"
 xmlns:xlink="http://www.w3.org/1999/xlink">
 <defs>
  <style type="text/css">
   <![CDATA[
    .fil0 {fill:#212220}
    .fil1 {fill:#2B2A29;fill-rule:nonzero}
   ]]>
  </style>
 </defs>
 <g id="Layer_x0020_1">
  <metadata id="CorelCorpID_0Corel-Layer"/>
  <path class="fil0" d="M0 18345l3 120 8 111 14 109 19 107 24 105 29 103 34 101 39 99 44 96 48 94 52 91 57 88 61 85 65 82 69 79 72 76 76 72 79 69 82 65 85 61 88 57 91 52 94 48 96 44 99 39 101 34 103 29 105 24 107 19 109 14 111 8 120 3 37934 0 120 -3 111 -8 109 -14 107 -19 105 -24 103 -29 101 -34 99 -39 96 -44 94 -48 91 -52 88 -57 85 -61 82 -65 79 -69 76 -72 72 -76 69 -79 65 -82 61 -85 57 -88 52 -91 48 -94 44 -96 39 -99 34 -101 29 -103 24 -105 19 -107 14 -109 8 -111 3 -120 0 -16160 -3 -120 -8 -111 -14 -109 -19 -107 -24 -105 -29 -103 -34 -101 -39 -99 -44 -96 -48 -94 -52 -91 -57 -88 -61 -86 -65 -82 -69 -79 -72 -76 -76 -72 -79 -69 -82 -65 -85 -61 -88 -57 -91 -52 -94 -48 -96 -44 -99 -39 -101 -34 -103 -29 -105 -24 -107 -19 -109 -14 -111 -8 -120 -3 -37934 0 -120 3 -111 8 -109 14 -107 19 -105 24 -103 29 -101 34 -99 39 -96 44 -94 48 -91 52 -88 57 -85 61 -82 65 -79 69 -76 72 -72 76 -69 79 -65 82 -61 86 -57 88 -52 91 -48 94 -44 96 -39 99 -34 101 -29 103 -24 105 -19 107 -14 109 -8 111 -3 120 0 16160zm622 -8l2 97 6 79 10 78 14 76 17 75 21 73 24 72 28 70 31 69 34 67 37 65 41 63 43 61 46 59 49 57 52 54 54 52 57 49 59 46 61 43 63 41 65 37 67 34 69 31 70 28 72 24 73 21 75 17 76 14 78 10 79 6 97 2 37918 0 97 -2 79 -6 78 -10 76 -14 75 -17 73 -21 72 -24 70 -28 69 -31 67 -34 65 -37 63 -41 61 -43 59 -46 57 -49 54 -52 52 -54 49 -57 46 -59 43 -61 41 -63 37 -65 34 -67 31 -69 28 -70 24 -72 21 -73 17 -75 14 -76 10 -78 6 -79 2 -97 0 -16144 -2 -97 -6 -79 -10 -78 -14 -76 -17 -75 -21 -73 -24 -72 -28 -70 -31 -69 -34 -67 -37 -65 -41 -63 -43 -61 -46 -59 -49 -57 -52 -54 -54 -52 -57 -49 -59 -46 -61 -43 -63 -41 -65 -37 -67 -34 -69 -31 -70 -28 -72 -24 -73 -21 -75 -17 -76 -14 -78 -10 -79 -6 -97 -2 -37918 0 -97 2 -79 6 -78 10 -76 14 -75 17 -73 21 -72 24 -70 28 -69 31 -67 34 -65 37 -63 41 -61 43 -59 46 -57 49 -54 52 -52 54 -49 57 -46 59 -43 61 -41 63 -37 65 -34 67 -31 69 -28 70 -24 72 -21 73 -17 75 -14 76 -10 78 -6 79 -2 97 0 16144z"/>
  <polygon class="fil1" points="20526,18508 20526,16901 19047,17645 18540,16773 20526,15779 20533,12890 19088,12010 18276,12481 19014,13763 18142,14265 17393,12977 16576,13456 16701,15675 15696,15683 15596,14020 14201,14821 13701,13960 15098,13143 13706,12233 14215,11364 16070,12590 16893,12107 16159,10827 17028,10310 17774,11609 18584,11143 18682,9286 16186,7853 14334,9079 13828,8197 15218,7292 13818,6478 14311,5615 15718,6413 15817,4754 16833,4754 16686,6979 19188,8423 20645,7649 20645,6718 19156,6718 19156,5705 20638,5705 20645,4768 18658,3637 19156,2885 20638,3763 20645,2022 21651,2022 21651,3770 23148,2891 23646,3637 21651,4754 21651,5699 23141,5705 23133,6718 21651,6718 21651,7649 23208,8521 25692,7082 25561,4855 26572,4847 26668,6516 28061,5705 28566,6584 27169,7387 28590,8313 28061,9198 26196,7946 23698,9397 23736,11184 24540,11641 25284,10359 26164,10866 25417,12152 26243,12630 28087,11391 28603,12260 27210,13188 28601,13990 28105,14855 26711,14050 26608,15711 25602,15717 25738,13502 24910,13023 24167,14313 23296,13798 24034,12510 23230,12040 21538,12898 21538,15779 23519,16770 23013,17645 21538,16901 21538,18500 "/>
 </g>
</svg>
