<?xml version="1.0" encoding="UTF-8"?>
<!DOCTYPE svg PUBLIC "-//W3C//DTD SVG 1.1//EN" "http://www.w3.org/Graphics/SVG/1.1/DTD/svg11.dtd">
<!-- Creator: CorelDRAW X6 -->
<svg xmlns="http://www.w3.org/2000/svg" xml:space="preserve" width="42.3mm" height="20.5279mm" version="1.1" style="shape-rendering:geometricPrecision; text-rendering:geometricPrecision; image-rendering:optimizeQuality; fill-rule:evenodd; clip-rule:evenodd"
viewBox="0 0 1644 798"
 xmlns:xlink="http://www.w3.org/1999/xlink">
 <defs>
  <style type="text/css">
   <![CDATA[
    .fil0 {fill:#212220}
   ]]>
  </style>
 </defs>
 <g id="Layer_x0020_1">
  <metadata id="CorelCorpID_0Corel-Layer"/>
  <path class="fil0" d="M0 713l0 5 0 4 1 4 1 4 1 4 1 4 1 4 2 4 2 4 2 4 2 4 2 3 2 3 3 3 3 3 3 3 3 3 3 3 3 3 3 2 3 2 4 2 4 2 4 2 4 2 4 1 4 1 4 1 4 1 4 1 4 0 5 0 1475 0 5 0 4 0 4 -1 4 -1 4 -1 4 -1 4 -1 4 -2 4 -2 4 -2 4 -2 3 -2 3 -2 3 -3 3 -3 3 -3 3 -3 3 -3 3 -3 2 -3 2 -3 2 -4 2 -4 2 -4 2 -4 1 -4 1 -4 1 -4 1 -4 1 -4 0 -4 0 -5 0 -628 0 -5 0 -4 -1 -4 -1 -4 -1 -4 -1 -4 -1 -4 -2 -4 -2 -4 -2 -4 -2 -4 -2 -3 -2 -3 -3 -3 -3 -3 -3 -3 -3 -3 -3 -3 -3 -3 -3 -2 -3 -2 -4 -2 -4 -2 -4 -2 -4 -2 -4 -1 -4 -1 -4 -1 -4 -1 -4 -1 -4 0 -5 0 -1475 0 -5 0 -4 0 -4 1 -4 1 -4 1 -4 1 -4 1 -4 2 -4 2 -4 2 -4 2 -3 2 -3 2 -3 3 -3 3 -3 3 -3 3 -3 3 -3 3 -2 3 -2 3 -2 4 -2 4 -2 4 -2 4 -1 4 -1 4 -1 4 -1 4 -1 4 0 4 0 5 0 628zm24 0l0 4 0 3 0 3 1 3 1 3 1 3 1 3 1 3 1 3 1 3 1 3 2 2 2 2 2 2 2 2 2 2 2 2 2 2 2 2 2 2 2 2 3 1 3 1 3 1 3 1 3 1 3 1 3 1 3 1 3 0 3 0 4 0 1474 0 4 0 3 0 3 0 3 -1 3 -1 3 -1 3 -1 3 -1 3 -1 3 -1 3 -1 2 -2 2 -2 2 -2 2 -2 2 -2 2 -2 2 -2 2 -2 2 -2 2 -2 1 -3 1 -3 1 -3 1 -3 1 -3 1 -3 1 -3 1 -3 0 -3 0 -3 0 -4 0 -628 0 -4 0 -3 0 -3 -1 -3 -1 -3 -1 -3 -1 -3 -1 -3 -1 -3 -1 -3 -1 -3 -2 -2 -2 -2 -2 -2 -2 -2 -2 -2 -2 -2 -2 -2 -2 -2 -2 -2 -2 -2 -3 -1 -3 -1 -3 -1 -3 -1 -3 -1 -3 -1 -3 -1 -3 -1 -3 0 -3 0 -4 0 -1474 0 -4 0 -3 0 -3 0 -3 1 -3 1 -3 1 -3 1 -3 1 -3 1 -3 1 -3 1 -2 2 -2 2 -2 2 -2 2 -2 2 -2 2 -2 2 -2 2 -2 2 -2 2 -1 3 -1 3 -1 3 -1 3 -1 3 -1 3 -1 3 -1 3 0 3 0 3 0 4 0 628z"/>
  <path class="fil0" d="M284 365c7,0 12,7 12,12l0 147 254 0c-25,9 -43,32 -43,61l-229 0c-1,-38 -30,-66 -66,-66 -36,0 -64,29 -64,66l-18 0c-7,0 -14,-6 -14,-14l0 -25 0 -84 62 -97 106 0zm-141 88l45 -70 79 0 0 70 -124 0zm452 72c24,9 42,32 43,61l52 -28 0 -34 -95 0zm-276 -19l-1 -46 374 1 0 46 -373 0zm518 -14l-152 -306 -82 251 -32 0 62 -190 -165 191 -42 0 244 -284 20 0 166 338 -18 0zm440 91c2,-29 24,-47 44,-51l-301 -53c20,21 26,36 22,63l236 42zm204 29l46 -44 -152 -26c23,18 28,32 26,64l80 6zm-565 -96c7,-24 13,-39 43,-48l-95 -17 -4 22 12 26 45 17zm612 42l-8 -42 -133 -23 -54 -96 -201 -35 -92 70 -162 -3 -9 14 658 116zm-180 -73l-40 -78 -77 -13 -12 69 129 23zm-143 -25l12 -69 -83 -14c-25,20 -51,37 -75,58l146 26zm-217 12c30,5 50,34 44,63 -5,30 -34,50 -63,44 -30,-5 -50,-34 -44,-63 5,-30 34,-50 63,-44zm-4 25c16,3 26,18 24,34 -3,16 -18,26 -34,24 -16,-3 -26,-18 -24,-34 3,-16 18,-26 34,-24zm365 39c30,5 50,34 45,64 -5,30 -34,50 -64,44 -30,-5 -50,-34 -44,-63 5,-30 34,-50 63,-44zm-4 25c16,3 26,18 24,34 -3,16 -18,26 -34,24 -16,-3 -26,-18 -24,-34 3,-16 18,-26 34,-24zm-1132 -30c29,0 53,24 53,53 0,29 -24,53 -53,53 -29,0 -53,-24 -53,-53 0,-29 24,-53 53,-53zm0 25c15,0 28,13 28,28 0,15 -12,28 -28,28 -15,0 -28,-12 -28,-28 0,-15 12,-28 28,-28zm360 -24c29,0 53,24 53,53 0,29 -24,53 -53,53 -29,0 -53,-24 -53,-53 0,-29 24,-53 53,-53zm0 25c15,0 28,12 28,28 0,15 -13,28 -28,28 -15,0 -28,-12 -28,-28 0,-15 12,-28 28,-28z"/>
 </g>
</svg>
