<?xml version="1.0" encoding="UTF-8"?>
<!DOCTYPE svg PUBLIC "-//W3C//DTD SVG 1.1//EN" "http://www.w3.org/Graphics/SVG/1.1/DTD/svg11.dtd">
<!-- Creator: CorelDRAW X6 -->
<svg xmlns="http://www.w3.org/2000/svg" xml:space="preserve" width="42.3762mm" height="20.6041mm" version="1.1" style="shape-rendering:geometricPrecision; text-rendering:geometricPrecision; image-rendering:optimizeQuality; fill-rule:evenodd; clip-rule:evenodd"
viewBox="0 0 2022 983"
 xmlns:xlink="http://www.w3.org/1999/xlink">
 <defs>
  <style type="text/css">
   <![CDATA[
    .str0 {stroke:#2B2A29;stroke-width:3.6359}
    .fil1 {fill:#212220}
    .fil0 {fill:#212220;fill-rule:nonzero}
   ]]>
  </style>
 </defs>
 <g id="Layer_x0020_1">
  <metadata id="CorelCorpID_0Corel-Layer"/>
  <path class="fil0" d="M1609 728c4,-5 8,-8 12,-10 4,-2 9,-4 15,-4 9,0 17,3 23,10 6,7 9,14 9,24l0 103 -27 0 0 -96c0,-4 -1,-8 -3,-10 -2,-3 -6,-4 -10,-4 -4,0 -7,1 -9,4 -3,3 -4,6 -4,10l0 96 -27 0 0 -96c0,-4 -1,-8 -4,-10 -2,-3 -6,-4 -10,-4 -4,0 -7,1 -9,4 -3,3 -4,6 -4,10l0 96 -27 0 0 -135 27 0 0 12c6,-9 15,-14 25,-14 5,0 10,1 14,4 4,2 8,6 10,10zm-138 13c-4,0 -7,1 -9,4 -3,2 -4,7 -4,13l0 13 27 0 0 -13c0,-5 -1,-9 -3,-12 -2,-3 -5,-5 -10,-5zm-1 84c4,0 7,-1 10,-4 2,-2 4,-6 4,-10l27 0 0 3c0,4 -1,8 -3,12 -2,4 -6,9 -11,16 -6,6 -15,9 -27,9 -8,0 -15,-2 -21,-6 -7,-4 -11,-9 -13,-14 -2,-5 -4,-10 -5,-14 -1,-4 -1,-8 -1,-12l0 -51c0,-11 4,-21 12,-29 8,-8 18,-12 29,-12 12,0 21,4 29,12 8,8 11,18 11,29l0 37 -54 0 0 20c0,3 1,6 4,8 3,3 6,4 9,4zm-88 -136l0 -27 27 0 0 27 -27 0zm0 162l0 -136 27 0 0 136 -27 0zm-26 -26l6 0 0 26 -8 0c-5,0 -10,-1 -14,-2 -4,-1 -8,-3 -12,-6 -4,-3 -6,-7 -8,-11 -2,-4 -2,-9 -2,-14l0 -81 -13 0 0 -21 13 0 0 -41 27 0 0 41 17 0 0 21 -17 0 0 76c0,5 1,8 2,9 1,2 4,3 9,3zm-69 -97c2,2 3,5 3,8 1,3 1,6 1,10l0 105 -27 0 0 -95c0,-10 -4,-15 -13,-15 -4,0 -7,2 -10,5 -2,3 -4,7 -4,10l0 95 -27 0 0 -135 27 0 0 13c6,-10 14,-15 25,-15 11,0 19,5 25,14zm-138 13c-4,0 -7,1 -9,4 -3,2 -4,7 -4,13l0 13 27 0 0 -13c0,-5 -1,-9 -3,-12 -2,-3 -5,-5 -10,-5zm-1 84c4,0 7,-1 10,-4 2,-2 4,-6 4,-10l27 0 0 3c0,4 -1,8 -3,12 -2,4 -6,9 -11,16 -6,6 -15,9 -27,9 -8,0 -15,-2 -21,-6 -7,-4 -11,-9 -13,-14 -2,-5 -4,-10 -5,-14 -1,-4 -1,-8 -1,-12l0 -51c0,-11 4,-21 12,-29 8,-8 18,-12 29,-12 12,0 21,4 29,12 8,8 11,18 11,29l0 37 -54 0 0 20c0,3 1,6 4,8 3,3 6,4 9,4zm-88 -136l0 -27 27 0 0 27 -27 0zm0 162l0 -136 27 0 0 136 -27 0zm-30 -189l0 150c0,5 1,8 2,10 2,2 5,3 9,3l2 0 0 26 -6 0c-4,0 -8,0 -12,-1 -4,-1 -8,-3 -11,-6 -4,-3 -7,-7 -8,-11 -2,-5 -3,-10 -3,-15l0 -155 27 0zm-135 189l0 -189 27 0 0 113 34 -59 27 0 -32 54 39 81 -30 0 -23 -57 -14 20 0 37 -27 0zm-127 -46l0 7c0,4 1,7 4,10 3,3 6,4 10,4 2,0 4,-1 6,-2 2,-1 3,-3 5,-5 1,-2 2,-5 2,-8 0,-3 0,-5 0,-7l0 -13 -10 0c-5,0 -9,1 -12,3 -3,2 -5,5 -5,10zm-24 32c-1,-2 -2,-5 -3,-8 0,-3 -1,-6 -1,-9l0 -15c0,-10 3,-17 8,-22 5,-5 10,-8 14,-10 4,-2 9,-3 15,-3l18 0 0 -12c0,-3 0,-5 0,-7 0,-2 -1,-4 -3,-7 -2,-3 -5,-4 -8,-4 -4,0 -7,1 -10,4 -3,2 -4,6 -5,10l-27 0c0,-11 4,-20 12,-28 8,-8 17,-12 28,-12 11,0 20,4 29,12 8,8 12,17 12,28l0 97 -27 0 0 -14c-3,5 -6,8 -11,11 -4,3 -9,4 -14,4 -12,0 -20,-5 -26,-16zm-52 -149l0 -26 27 0 0 26 -27 0zm17 205c-3,4 -8,7 -13,9 -5,2 -10,3 -15,3l-5 0 0 -26 3 0c5,0 9,-2 10,-5 2,-3 3,-7 3,-13l0 -147 27 0 0 149c0,6 -1,12 -2,16 -1,4 -4,9 -8,13zm-79 -153c-4,0 -7,1 -10,4 -2,3 -4,6 -4,11l0 54c0,4 1,8 4,11 2,3 6,5 10,5 6,0 9,-2 11,-5 1,-3 2,-7 2,-11l0 -53c0,-4 -1,-8 -4,-11 -2,-3 -6,-4 -9,-4zm-32 -11c4,-5 9,-9 14,-11 5,-3 11,-4 17,-4 7,0 13,1 19,4 5,3 10,7 15,13 5,6 7,14 7,24l0 54c0,10 -2,18 -7,24 -5,6 -10,11 -15,14 -6,3 -11,5 -17,5 -8,0 -16,-2 -22,-6 -7,-4 -11,-9 -14,-14 -3,-5 -4,-9 -5,-12 -1,-3 -1,-7 -1,-11l0 -54c0,-10 3,-19 9,-26zm-24 -16l0 28c-1,0 -3,-1 -4,-1 -1,0 -3,0 -4,0 -9,0 -16,3 -20,9 -5,6 -7,13 -7,22l0 79 -27 0 0 -135 27 0 0 14c5,-6 11,-10 17,-12 7,-2 13,-4 18,-4zm-113 -26l0 -27 27 0 0 27 -27 0zm0 162l0 -136 27 0 0 136 -27 0zm-63 -109c-4,0 -7,2 -9,5 -2,3 -4,7 -4,10l0 54c0,4 1,8 2,11 2,3 5,4 11,4 4,0 7,-1 10,-3 3,-2 4,-5 4,-8l0 -57c0,-4 -1,-8 -4,-11 -2,-3 -6,-4 -10,-4zm12 -27c11,0 18,3 22,9 3,6 5,10 6,13 1,3 1,6 1,9l0 73c0,5 0,9 -1,12 -1,3 -3,8 -7,13 -4,5 -11,8 -21,8 -5,0 -10,-1 -14,-4 -4,-3 -8,-6 -11,-11l0 14 -27 0 0 -189 27 0 0 68c6,-10 14,-15 25,-15zm849 -138l0 -161 -27 20 0 -29 27 -20 27 0 0 189 -27 0zm-109 -142l-24 0 0 -47 81 0 0 25 -44 164 -29 0 46 -164 -30 0 0 22zm-43 142l-81 0 0 -25 51 -97c2,-5 3,-9 3,-14l0 -14c0,-4 -1,-7 -4,-10 -3,-3 -6,-4 -10,-4 -3,0 -6,1 -9,4 -3,2 -4,5 -4,9l0 17 -27 0 0 -14c0,-7 3,-16 8,-27 6,-10 17,-16 34,-16 11,0 20,4 27,12 8,8 12,17 12,28l0 17c0,4 -1,8 -2,12 -1,4 -3,8 -5,12l-42 83 49 0 0 27zm-181 0l0 -27 27 0 0 27 -27 0zm-19 -136l0 28c-1,0 -3,-1 -4,-1 -1,0 -3,0 -4,0 -9,0 -16,3 -20,9 -5,6 -7,13 -7,22l0 79 -27 0 0 -135 27 0 0 14c5,-6 11,-10 17,-12 7,-2 13,-4 18,-4zm-114 136l-42 -115 0 115 -27 0 0 -189 25 0 42 115 0 -115 27 0 0 189 -25 0zm973 -297c4,0 8,-1 11,-4 3,-3 5,-6 5,-10 0,-5 -1,-9 -4,-11 -3,-2 -7,-4 -12,-6l-5 -2c-6,-2 -10,-4 -14,-6 -4,-2 -8,-6 -12,-11 -4,-5 -7,-13 -7,-23 0,-11 4,-21 12,-28 8,-8 17,-12 29,-12 10,0 19,4 26,12 7,8 11,17 11,27l-25 0c0,-4 -1,-7 -4,-10 -3,-3 -6,-4 -10,-4 -4,0 -7,1 -9,4 -2,3 -4,6 -4,10 0,4 1,7 4,10 2,2 6,4 11,6l9 3c5,2 9,4 12,5 3,2 6,4 9,8 3,3 5,7 7,12 2,5 3,9 3,14 0,11 -4,21 -12,29 -8,8 -17,12 -28,12 -7,0 -13,-2 -20,-5 -7,-4 -12,-8 -16,-15 -4,-6 -6,-13 -6,-21l25 0c0,4 1,8 4,11 3,3 6,4 11,4zm-112 -23l0 7c0,4 1,7 4,10 3,3 6,4 10,4 2,0 4,-1 6,-2 2,-1 3,-3 5,-5 1,-2 2,-5 2,-8 0,-3 0,-5 0,-7l0 -13 -10 0c-5,0 -9,1 -12,3 -3,2 -5,5 -5,10zm-24 32c-1,-2 -2,-5 -3,-8 0,-3 -1,-6 -1,-9l0 -15c0,-10 3,-17 8,-22 5,-5 10,-8 14,-10 4,-2 9,-3 15,-3l18 0 0 -12c0,-3 0,-5 0,-7 0,-2 -1,-4 -3,-7 -2,-3 -5,-4 -8,-4 -4,0 -7,1 -10,4 -3,2 -4,6 -5,10l-27 0c0,-11 4,-20 12,-28 8,-8 17,-12 28,-12 11,0 20,4 29,12 8,8 12,17 12,28l0 97 -27 0 0 -14c-3,5 -6,8 -11,11 -4,3 -9,4 -14,4 -12,0 -20,-5 -26,-16zm-31 -175l0 150c0,5 1,8 2,10 2,2 5,3 9,3l2 0 0 26 -6 0c-4,0 -8,0 -12,-1 -4,-1 -8,-3 -11,-6 -4,-3 -7,-7 -8,-11 -2,-5 -3,-10 -3,-15l0 -155 27 0zm-89 79c-4,0 -7,1 -9,4 -3,2 -4,7 -4,13l0 13 27 0 0 -13c0,-5 -1,-9 -3,-12 -2,-3 -5,-5 -10,-5zm-1 84c4,0 7,-1 10,-4 2,-2 4,-6 4,-10l27 0 0 3c0,4 -1,8 -3,12 -2,4 -6,9 -11,16 -6,6 -15,9 -27,9 -8,0 -15,-2 -21,-6 -7,-4 -11,-9 -13,-14 -2,-5 -4,-10 -5,-14 -1,-4 -1,-8 -1,-12l0 -51c0,-11 4,-21 12,-29 8,-8 18,-12 29,-12 12,0 21,4 29,12 8,8 11,18 11,29l0 37 -54 0 0 20c0,3 1,6 4,8 3,3 6,4 9,4zm-88 -136l0 -27 27 0 0 27 -27 0zm0 162l0 -136 27 0 0 136 -27 0zm-109 -24c4,0 8,-1 11,-4 3,-3 5,-6 5,-10 0,-5 -1,-9 -4,-11 -3,-2 -7,-4 -12,-6l-5 -2c-6,-2 -10,-4 -14,-6 -4,-2 -8,-6 -12,-11 -4,-5 -7,-13 -7,-23 0,-11 4,-21 12,-28 8,-8 17,-12 29,-12 10,0 19,4 26,12 7,8 11,17 11,27l-25 0c0,-4 -1,-7 -4,-10 -3,-3 -6,-4 -10,-4 -4,0 -7,1 -9,4 -2,3 -4,6 -4,10 0,4 1,7 4,10 2,2 6,4 11,6l9 3c5,2 9,4 12,5 3,2 6,4 9,8 3,3 5,7 7,12 2,5 3,9 3,14 0,11 -4,21 -12,29 -8,8 -17,12 -28,12 -7,0 -13,-2 -20,-5 -7,-4 -12,-8 -16,-15 -4,-6 -6,-13 -6,-21l25 0c0,4 1,8 4,11 3,3 6,4 11,4zm-112 -23l0 7c0,4 1,7 4,10 3,3 6,4 10,4 2,0 4,-1 6,-2 2,-1 3,-3 5,-5 1,-2 2,-5 2,-8 0,-3 0,-5 0,-7l0 -13 -10 0c-5,0 -9,1 -12,3 -3,2 -5,5 -5,10zm-24 32c-1,-2 -2,-5 -3,-8 0,-3 -1,-6 -1,-9l0 -15c0,-10 3,-17 8,-22 5,-5 10,-8 14,-10 4,-2 9,-3 15,-3l18 0 0 -12c0,-3 0,-5 0,-7 0,-2 -1,-4 -3,-7 -2,-3 -5,-4 -8,-4 -4,0 -7,1 -10,4 -3,2 -4,6 -5,10l-27 0c0,-11 4,-20 12,-28 8,-8 17,-12 28,-12 11,0 20,4 29,12 8,8 12,17 12,28l0 97 -27 0 0 -14c-3,5 -6,8 -11,11 -4,3 -9,4 -14,4 -12,0 -20,-5 -26,-16zm-64 -95c-4,0 -7,2 -9,5 -2,3 -4,7 -4,10l0 54c0,4 1,8 2,11 2,3 5,4 11,4 4,0 7,-1 10,-3 3,-2 4,-5 4,-8l0 -57c0,-4 -1,-8 -4,-11 -2,-3 -6,-4 -10,-4zm12 -27c11,0 18,3 22,9 3,6 5,10 6,13 1,3 1,6 1,9l0 73c0,5 0,9 -1,12 -1,3 -3,8 -7,13 -4,5 -11,8 -21,8 -5,0 -10,-1 -14,-4 -4,-3 -8,-6 -11,-11l0 14 -27 0 0 -189 27 0 0 68c6,-10 14,-15 25,-15zm-104 136l0 -136 27 0 0 136 -27 0zm-70 0l-35 -135 29 0 18 87 19 -87 29 0 -35 135 -24 0zm-83 -153l0 -17 46 0 0 17 -46 0zm144 0l0 -17 46 0 0 17 -46 0zm-134 153l0 -136 27 0 0 136 -27 0zm-17 -136l0 28c-1,0 -3,-1 -4,-1 -1,0 -3,0 -4,0 -9,0 -16,3 -20,9 -5,6 -7,13 -7,22l0 79 -27 0 0 -135 27 0 0 14c5,-6 11,-10 17,-12 7,-2 13,-4 18,-4zm-113 91l0 -22c0,-6 -2,-11 -5,-14 -3,-3 -8,-5 -14,-5l-15 0 0 61 16 0c5,0 10,-2 13,-5 3,-4 5,-8 5,-14zm0 -87l0 -12c0,-6 -2,-10 -5,-14 -3,-3 -8,-5 -14,-5l-15 0 0 52 16 0c6,0 11,-2 14,-6 3,-4 4,-9 4,-16zm-16 -56c5,0 11,1 16,4 5,2 11,7 17,13 6,6 9,15 9,28l0 14c0,14 -6,25 -17,31 11,7 17,17 17,31l0 22c0,13 -4,24 -13,33 -8,9 -19,13 -33,13l-42 0 0 -189 44 0zm-148 27l0 -27 27 0 0 27 -27 0zm0 162l0 -136 27 0 0 136 -27 0zm-77 -46l0 7c0,4 1,7 4,10 3,3 6,4 10,4 2,0 4,-1 6,-2 2,-1 3,-3 5,-5 1,-2 2,-5 2,-8 0,-3 0,-5 0,-7l0 -13 -10 0c-5,0 -9,1 -12,3 -3,2 -5,5 -5,10zm-24 32c-1,-2 -2,-5 -3,-8 0,-3 -1,-6 -1,-9l0 -15c0,-10 3,-17 8,-22 5,-5 10,-8 14,-10 4,-2 9,-3 15,-3l18 0 0 -12c0,-3 0,-5 0,-7 0,-2 -1,-4 -3,-7 -2,-3 -5,-4 -8,-4 -4,0 -7,1 -10,4 -3,2 -4,6 -5,10l-27 0c0,-11 4,-20 12,-28 8,-8 17,-12 28,-12 11,0 20,4 29,12 8,8 12,17 12,28l0 97 -27 0 0 -14c-3,5 -6,8 -11,11 -4,3 -9,4 -14,4 -12,0 -20,-5 -26,-16zm-108 14l0 -189 27 0 0 113 34 -59 27 0 -32 54 38 81 -30 0 -23 -57 -14 20 0 37 -27 0zm-51 -162l0 -27 27 0 0 27 -27 0zm0 162l0 -136 27 0 0 136 -27 0zm-75 0l0 -164 -32 0 0 -25 91 0 0 25 -32 0 0 164 -27 0z"/>
  <path class="fil1 str0" d="M2 877l0 6 0 5 1 5 1 5 1 5 1 5 2 5 2 5 2 5 2 4 3 4 3 4 3 4 3 4 3 4 3 4 4 3 4 3 4 3 4 3 4 3 4 3 4 2 5 2 5 2 5 2 5 1 5 1 5 1 5 1 5 0 6 0 1810 0 6 0 5 0 5 -1 5 -1 5 -1 5 -1 5 -2 5 -2 5 -2 4 -2 4 -3 4 -3 4 -3 4 -3 4 -3 4 -3 3 -4 3 -4 3 -4 3 -4 3 -4 3 -4 2 -4 2 -5 2 -5 2 -5 1 -5 1 -5 1 -5 1 -5 0 -5 0 -6 0 -771 0 -6 0 -5 -1 -5 -1 -5 -1 -5 -1 -5 -2 -5 -2 -5 -2 -5 -2 -4 -3 -4 -3 -4 -3 -4 -3 -4 -3 -4 -3 -4 -4 -3 -4 -3 -4 -3 -4 -3 -4 -3 -4 -2 -4 -2 -5 -2 -5 -2 -5 -2 -5 -1 -5 -1 -5 -1 -5 -1 -5 0 -6 0 -1810 0 -6 0 -5 0 -5 1 -5 1 -5 1 -5 1 -5 2 -5 2 -5 2 -4 2 -4 2 -4 3 -4 3 -4 3 -4 3 -4 3 -3 4 -3 4 -3 4 -3 4 -3 4 -3 4 -2 4 -2 5 -2 5 -2 5 -1 5 -1 5 -1 5 -1 5 0 5 0 6 0 771zm30 0l0 5 0 4 0 4 1 4 1 4 1 3 1 3 1 3 1 3 2 3 2 3 2 3 2 3 2 3 2 3 2 3 3 2 3 2 3 2 3 2 3 2 3 2 3 2 3 1 3 1 3 1 3 1 4 1 4 1 4 0 4 0 5 0 1809 0 5 0 4 0 4 0 4 -1 4 -1 3 -1 3 -1 3 -1 3 -1 3 -2 3 -2 3 -2 3 -2 3 -2 3 -2 3 -2 2 -3 2 -3 2 -3 2 -3 2 -3 2 -3 2 -3 1 -3 1 -3 1 -3 1 -3 1 -4 1 -4 0 -4 0 -4 0 -5 0 -770 0 -5 0 -4 0 -4 -1 -4 -1 -4 -1 -3 -1 -3 -1 -3 -1 -3 -2 -3 -2 -3 -2 -3 -2 -3 -2 -3 -2 -3 -2 -3 -3 -2 -3 -2 -3 -2 -3 -2 -3 -2 -3 -2 -3 -2 -3 -1 -3 -1 -3 -1 -3 -1 -4 -1 -4 -1 -4 0 -4 0 -5 0 -1809 0 -5 0 -4 0 -4 0 -4 1 -4 1 -3 1 -3 1 -3 1 -3 1 -3 2 -3 2 -3 2 -3 2 -3 2 -3 2 -3 2 -2 3 -2 3 -2 3 -2 3 -2 3 -2 3 -2 3 -1 3 -1 3 -1 3 -1 3 -1 4 -1 4 0 4 0 4 0 5 0 770z"/>
 </g>
</svg>
