<?xml version="1.0" encoding="UTF-8"?>
<!DOCTYPE svg PUBLIC "-//W3C//DTD SVG 1.1//EN" "http://www.w3.org/Graphics/SVG/1.1/DTD/svg11.dtd">
<!-- Creator: CorelDRAW X6 -->
<svg xmlns="http://www.w3.org/2000/svg" xml:space="preserve" width="42.3762mm" height="20.6042mm" version="1.1" style="shape-rendering:geometricPrecision; text-rendering:geometricPrecision; image-rendering:optimizeQuality; fill-rule:evenodd; clip-rule:evenodd"
viewBox="0 0 11228 5459"
 xmlns:xlink="http://www.w3.org/1999/xlink">
 <defs>
  <style type="text/css">
   <![CDATA[
    .str0 {stroke:#2B2A29;stroke-width:20.1905}
    .fil0 {fill:#212220}
   ]]>
  </style>
 </defs>
 <g id="Layer_x0020_1">
  <metadata id="CorelCorpID_0Corel-Layer"/>
  <path class="fil0" d="M2482 3977l0 -999 982 0c383,0 808,-122 1032,-444 290,-398 578,-689 1123,-697 514,0 855,284 1110,691 319,396 700,441 1046,455l969 -4 0 1002 -6263 -2z"/>
  <path class="fil0 str0" d="M10 4870l1 32 2 29 4 29 5 28 6 28 8 27 9 27 10 26 12 26 13 25 14 24 15 23 16 23 17 22 18 21 19 20 20 19 21 18 22 17 23 16 23 15 24 14 25 13 25 12 26 10 27 9 27 8 28 6 28 5 29 4 29 2 32 1 10050 0 32 -1 29 -2 29 -4 28 -5 28 -6 27 -8 27 -9 26 -10 26 -12 25 -13 24 -14 23 -15 23 -16 22 -17 21 -18 20 -19 19 -20 18 -21 17 -22 16 -23 15 -23 14 -24 13 -25 12 -26 10 -26 9 -27 8 -27 6 -28 5 -28 4 -29 2 -29 1 -32 0 -4281 -1 -32 -2 -29 -4 -29 -5 -28 -6 -28 -8 -27 -9 -27 -10 -26 -12 -26 -13 -25 -14 -24 -15 -23 -16 -23 -17 -22 -18 -21 -19 -20 -20 -19 -21 -18 -22 -17 -23 -16 -23 -15 -24 -14 -25 -13 -26 -12 -26 -10 -27 -9 -27 -8 -28 -6 -28 -5 -29 -4 -29 -2 -32 -1 -10050 0 -32 1 -29 2 -29 4 -28 5 -28 6 -27 8 -27 9 -26 10 -25 12 -25 13 -24 14 -23 15 -23 16 -22 17 -21 18 -20 19 -19 20 -18 21 -17 22 -16 23 -15 23 -14 24 -13 25 -12 26 -10 26 -9 27 -8 27 -6 28 -5 28 -4 29 -2 29 -1 32 0 4281zm165 -2l1 26 2 21 3 21 4 20 5 20 6 19 6 19 7 19 8 18 9 18 10 17 11 17 11 16 12 16 13 15 14 14 14 14 15 13 16 12 16 11 17 11 17 10 18 9 18 8 19 7 19 6 19 6 20 5 20 4 21 3 21 2 26 1 10046 0 26 -1 21 -2 21 -3 20 -4 20 -5 19 -6 19 -6 19 -7 18 -8 18 -9 17 -10 17 -11 16 -11 16 -12 15 -13 14 -14 14 -14 13 -15 12 -16 11 -16 11 -17 10 -17 9 -18 8 -18 7 -19 6 -19 6 -19 5 -20 4 -20 3 -21 2 -21 1 -26 0 -4277 -1 -26 -2 -21 -3 -21 -4 -20 -5 -20 -6 -19 -6 -19 -7 -19 -8 -18 -9 -18 -10 -17 -11 -17 -11 -16 -12 -16 -13 -15 -14 -14 -14 -14 -15 -13 -16 -12 -16 -11 -17 -11 -17 -10 -18 -9 -18 -8 -19 -7 -19 -6 -19 -6 -20 -5 -20 -4 -21 -3 -21 -2 -26 -1 -10046 0 -26 1 -21 2 -21 3 -20 4 -20 5 -19 6 -19 6 -19 7 -18 8 -18 9 -17 10 -17 11 -16 11 -16 12 -15 13 -14 14 -14 14 -13 15 -12 16 -12 16 -11 17 -10 17 -9 18 -8 18 -7 19 -6 19 -6 19 -5 20 -4 20 -3 21 -2 21 -1 26 0 4277z"/>
 </g>
</svg>
