<?xml version="1.0" encoding="UTF-8"?>
<!DOCTYPE svg PUBLIC "-//W3C//DTD SVG 1.1//EN" "http://www.w3.org/Graphics/SVG/1.1/DTD/svg11.dtd">
<!-- Creator: CorelDRAW X6 -->
<svg xmlns="http://www.w3.org/2000/svg" xml:space="preserve" width="42.3mm" height="20.5279mm" version="1.1" style="shape-rendering:geometricPrecision; text-rendering:geometricPrecision; image-rendering:optimizeQuality; fill-rule:evenodd; clip-rule:evenodd"
viewBox="0 0 2050 995"
 xmlns:xlink="http://www.w3.org/1999/xlink">
 <defs>
  <style type="text/css">
   <![CDATA[
    .fil0 {fill:#212220}
    .fil2 {fill:#E42129}
    .fil1 {fill:#212220;fill-rule:nonzero}
   ]]>
  </style>
 </defs>
 <g id="Layer_x0020_1">
  <metadata id="CorelCorpID_0Corel-Layer"/>
  <path class="fil0" d="M366 602l376 -1 -92 125 -195 19c-8,-79 -26,-110 -88,-143z"/>
  <path class="fil0" d="M146 743c-4,-35 6,-66 22,-90 16,-24 39,-42 61,-52l-199 0 0 142m199 -142l-199 0 0 0 199 0zm-199 142l0 0 116 0 -116 0 0 0 0 0 0 0z"/>
  <polygon class="fil0" points="740,578 704,479 375,480 206,271 30,271 30,271 30,308 30,308 148,307 277,478 30,478 30,478 30,578 30,578 "/>
  <path class="fil0" d="M300 603c74,0 134,60 134,134 0,74 -60,134 -134,134 -74,0 -134,-60 -134,-134 0,-74 60,-134 134,-134zm0 63c39,0 71,32 71,71 0,39 -32,71 -71,71 -39,0 -71,-32 -71,-71 0,-39 32,-71 71,-71z"/>
  <path class="fil1" d="M1533 194l0 0 0 0c84,0 161,34 216,89 55,55 89,132 89,216l0 0 0 0 0 0 0 0c0,84 -34,161 -89,216 -55,55 -132,89 -216,89l0 0 0 0 0 0 0 0c-48,0 -93,-11 -133,-30 -6,-3 -13,-6 -19,-10 -25,-14 -48,-32 -68,-53 -2,2 -4,5 -6,7 -7,9 -15,17 -23,24 -42,39 -98,62 -159,62l0 0 0 0c-37,0 -89,-15 -114,-46l18 -26c30,27 53,36 96,36l0 0 0 0c52,0 99,-20 134,-53 7,-6 13,-13 19,-20 6,-7 11,-15 16,-23l0 0 13 -22 16 20c21,25 46,46 74,63 5,3 11,6 17,9 35,17 75,27 117,27l0 0 0 0 0 0 0 0c74,0 142,-30 190,-79 49,-49 79,-116 79,-190l0 0 0 0 0 0 0 0c0,-74 -30,-142 -79,-190 -49,-49 -116,-79 -190,-79l0 0 0 0c-84,0 -160,39 -209,99 -10,12 -18,24 -26,38 -8,13 -14,27 -19,42l0 0 -9 24 -20 -16c-14,-12 -30,-21 -47,-29 -3,-1 -7,-3 -10,-4 -21,-8 -44,-12 -67,-12l0 0 0 0c-65,0 -122,31 -158,79 -7,9 -13,19 -18,30 -5,10 -10,22 -13,33l0 0 0 0 -4 14c-7,0 -14,-1 -21,-1l0 0c-103,6 -123,102 -96,185 -37,-9 -66,-20 -104,-26l21 -33c0,-2 32,11 31,10 -20,-107 50,-174 142,-172 3,-9 7,-18 11,-26 6,-13 14,-24 22,-35 43,-57 111,-94 187,-94l0 0 0 0c28,0 55,5 80,14 4,2 8,3 12,5 13,5 25,12 36,20 4,-9 8,-17 13,-25 8,-15 18,-29 29,-43 56,-69 141,-113 237,-113z"/>
  <path class="fil0" d="M30 888l0 5 0 4 0 4 1 4 1 4 1 4 1 3 1 3 2 3 2 3 2 3 2 3 2 3 2 3 2 3 3 3 3 3 3 2 3 2 3 2 3 2 3 2 3 2 3 1 3 1 3 1 4 1 4 1 4 1 4 0 4 0 5 0 1837 0 5 0 4 0 4 0 4 -1 4 -1 4 -1 3 -1 3 -1 3 -1 3 -2 3 -2 3 -2 3 -2 3 -2 3 -2 3 -3 3 -3 2 -3 2 -3 2 -3 2 -3 2 -3 2 -3 2 -3 1 -3 1 -3 1 -4 1 -4 1 -4 0 -4 0 -4 0 -5 0 -782 0 -5 0 -4 0 -4 -1 -4 -1 -4 -1 -4 -1 -3 -1 -3 -2 -3 -2 -3 -2 -3 -2 -3 -2 -3 -2 -3 -2 -3 -3 -3 -3 -3 -3 -2 -3 -2 -3 -2 -3 -2 -3 -2 -3 -2 -3 -2 -3 -1 -3 -1 -4 -1 -4 -1 -4 -1 -4 0 -4 0 -5 0 -1837 0 -5 0 -4 0 -4 0 -4 1 -4 1 -4 1 -3 1 -3 1 -3 2 -3 2 -3 2 -3 2 -3 2 -3 2 -3 2 -3 3 -3 3 -2 3 -2 3 -2 3 -2 3 -2 3 -2 3 -2 3 -1 3 -1 3 -1 4 -1 4 -1 4 0 4 0 4 0 5 0 782zm-30 0l0 6 0 5 1 5 1 5 1 5 1 5 2 5 2 5 2 5 2 5 3 4 3 4 3 4 3 4 3 4 3 4 4 3 4 3 4 3 4 3 4 3 4 3 5 2 5 2 5 2 5 2 5 1 5 1 5 1 5 1 5 0 6 0 1838 0 6 0 5 0 5 -1 5 -1 5 -1 5 -1 5 -2 5 -2 5 -2 5 -2 4 -3 4 -3 4 -3 4 -3 4 -3 4 -3 3 -4 3 -4 3 -4 3 -4 3 -4 3 -4 2 -5 2 -5 2 -5 2 -5 1 -5 1 -5 1 -5 1 -5 0 -5 0 -6 0 -783 0 -6 0 -5 -1 -5 -1 -5 -1 -5 -1 -5 -2 -5 -2 -5 -2 -5 -2 -5 -3 -4 -3 -4 -3 -4 -3 -4 -3 -4 -4 -4 -4 -3 -4 -3 -4 -3 -4 -3 -4 -3 -4 -3 -5 -2 -5 -2 -5 -2 -5 -2 -5 -1 -5 -1 -5 -1 -5 -1 -5 0 -6 0 -1838 0 -6 0 -5 0 -5 1 -5 1 -5 1 -5 1 -5 2 -5 2 -5 2 -5 2 -4 3 -4 3 -4 3 -4 3 -4 3 -4 3 -3 4 -3 4 -3 4 -3 4 -3 4 -3 4 -2 5 -2 5 -2 5 -2 5 -1 5 -1 5 -1 5 -1 5 0 5 0 6 0 783z"/>
  <path class="fil2" d="M16 881l1945 -864c48,13 77,45 75,105l-1948 859c-50,-12 -69,-49 -72,-99z"/>
 </g>
</svg>
