<?xml version="1.0" encoding="UTF-8"?>
<!DOCTYPE svg PUBLIC "-//W3C//DTD SVG 1.1//EN" "http://www.w3.org/Graphics/SVG/1.1/DTD/svg11.dtd">
<!-- Creator: CorelDRAW X6 -->
<svg xmlns="http://www.w3.org/2000/svg" xml:space="preserve" width="42.3002mm" height="20.528mm" version="1.1" style="shape-rendering:geometricPrecision; text-rendering:geometricPrecision; image-rendering:optimizeQuality; fill-rule:evenodd; clip-rule:evenodd"
viewBox="0 0 10729 5207"
 xmlns:xlink="http://www.w3.org/1999/xlink">
 <defs>
  <style type="text/css">
   <![CDATA[
    .fil0 {fill:#212220}
   ]]>
  </style>
 </defs>
 <g id="Layer_x0020_1">
  <metadata id="CorelCorpID_0Corel-Layer"/>
  <path class="fil0" d="M4180 2845c303,0 549,246 549,549 0,303 -246,549 -549,549 -303,0 -549,-246 -549,-549 0,-303 246,-549 549,-549zm1776 942l789 0 0 -1972 197 0 0 197 592 0 0 1578 -592 0 0 197 0 197 -197 0 -789 0 0 -197zm383 -2251l208 0 0 2054 -208 0 0 -2054zm-383 -313l197 0 0 2367 -197 0 0 -2367zm-2632 3353c-137,0 -319,-149 -319,-366 0,-1071 0,-2141 0,-3212 0,-218 183,-366 319,-366 705,0 1410,0 2115,0 137,0 319,149 319,366 0,1071 0,2141 0,3212 0,218 -183,366 -319,366 -705,0 -1410,0 -2115,0zm856 -1968c434,0 787,352 787,787 0,434 -352,787 -787,787 -434,0 -787,-352 -787,-787 0,-434 352,-787 787,-787zm790 -1583c218,0 394,177 394,394 0,218 -177,394 -394,394 -218,0 -394,-177 -394,-394 0,-218 177,-394 394,-394zm0 165c126,0 229,103 229,229 0,127 -103,229 -229,229 -127,0 -229,-103 -229,-229 0,-126 103,-229 229,-229z"/>
  <path class="fil0" d="M0 4653l1 31 2 28 4 28 5 27 6 27 7 26 9 26 10 25 11 24 12 24 13 23 14 22 15 22 16 21 17 20 18 19 19 18 20 17 21 16 22 15 22 14 23 13 24 12 24 11 25 10 26 9 26 7 27 6 27 5 28 4 28 2 31 1 9621 0 31 -1 28 -2 28 -4 27 -5 27 -6 26 -7 26 -9 25 -10 24 -11 24 -12 23 -13 22 -14 22 -15 21 -16 20 -17 19 -18 18 -19 17 -20 16 -21 15 -22 14 -22 13 -23 12 -24 11 -24 10 -25 9 -26 7 -26 6 -27 5 -27 4 -28 2 -28 1 -31 0 -4099 -1 -31 -2 -28 -4 -28 -5 -27 -6 -27 -7 -26 -9 -26 -10 -25 -11 -24 -12 -24 -13 -23 -14 -22 -15 -22 -16 -21 -17 -20 -18 -19 -19 -18 -20 -17 -21 -16 -22 -15 -22 -14 -23 -13 -24 -12 -24 -11 -25 -10 -26 -9 -26 -7 -27 -6 -27 -5 -28 -4 -28 -2 -31 -1 -9621 0 -31 1 -28 2 -28 4 -27 5 -27 6 -26 7 -26 9 -25 10 -24 11 -24 12 -23 13 -22 14 -22 15 -21 16 -20 17 -19 18 -18 19 -17 20 -16 21 -15 22 -14 22 -13 23 -12 24 -11 24 -10 25 -9 26 -7 26 -6 27 -5 27 -4 28 -2 28 -1 31 0 4099zm158 -2l1 25 2 20 3 20 3 19 4 19 5 19 6 18 7 18 8 17 9 17 9 17 10 16 11 15 12 15 12 14 13 14 14 13 14 12 15 12 15 11 16 10 16 9 17 9 17 8 18 7 18 6 19 5 19 4 19 3 20 3 20 2 25 1 9617 0 25 -1 20 -2 20 -3 19 -3 19 -4 19 -5 18 -6 18 -7 17 -8 17 -9 16 -9 16 -10 15 -11 15 -12 14 -12 14 -13 13 -14 12 -14 12 -15 11 -15 10 -16 9 -17 9 -17 8 -17 7 -18 6 -18 5 -19 4 -19 3 -19 3 -20 2 -20 1 -25 0 -4094 -1 -25 -2 -20 -3 -20 -3 -19 -4 -19 -5 -19 -6 -18 -7 -18 -8 -17 -9 -17 -9 -16 -10 -16 -11 -15 -12 -15 -12 -14 -13 -14 -14 -13 -14 -12 -15 -12 -16 -11 -16 -10 -16 -9 -17 -9 -17 -8 -18 -7 -18 -6 -19 -5 -19 -4 -19 -3 -20 -3 -20 -2 -25 -1 -9617 0 -25 1 -20 2 -20 3 -19 3 -19 4 -19 5 -18 6 -18 7 -17 8 -17 9 -16 9 -16 10 -16 11 -15 12 -14 12 -14 13 -13 14 -12 14 -12 15 -11 15 -10 16 -9 16 -9 17 -8 17 -7 18 -6 18 -5 19 -4 19 -3 19 -3 20 -2 20 -1 25 0 4094z"/>
 </g>
</svg>
