<?xml version="1.0" encoding="UTF-8"?>
<!DOCTYPE svg PUBLIC "-//W3C//DTD SVG 1.1//EN" "http://www.w3.org/Graphics/SVG/1.1/DTD/svg11.dtd">
<!-- Creator: CorelDRAW X6 -->
<svg xmlns="http://www.w3.org/2000/svg" xml:space="preserve" width="42.5209mm" height="20.5302mm" version="1.1" style="shape-rendering:geometricPrecision; text-rendering:geometricPrecision; image-rendering:optimizeQuality; fill-rule:evenodd; clip-rule:evenodd"
viewBox="0 0 1488 718"
 xmlns:xlink="http://www.w3.org/1999/xlink">
 <defs>
  <style type="text/css">
   <![CDATA[
    .str0 {stroke:#2B2A29;stroke-width:0.19597}
    .str1 {stroke:#2B2A29;stroke-width:0.906363}
    .fil0 {fill:black}
   ]]>
  </style>
 </defs>
 <g id="Layer_x0020_1">
  <metadata id="CorelCorpID_0Corel-Layer"/>
  <path class="fil0 str0" d="M1398 0l5 0 5 0 4 1 4 1 4 1 4 1 4 1 4 2 4 2 4 2 4 2 4 2 4 3 3 3 3 3 3 3 3 3 3 3 3 3 3 4 2 4 2 4 2 4 2 4 2 4 1 4 1 4 1 4 1 4 1 4 0 5 0 5 0 538 0 5 0 5 -1 4 -1 4 -1 4 -1 4 -1 4 -2 4 -2 4 -2 4 -2 4 -2 4 -3 4 -3 3 -3 3 -3 3 -3 3 -3 3 -3 3 -4 3 -4 2 -4 2 -4 2 -4 2 -4 2 -4 1 -4 1 -4 1 -4 1 -4 1 -5 0 -5 0 -1308 0 -5 0 -5 0 -4 -1 -4 -1 -4 -1 -4 -1 -4 -1 -4 -2 -4 -2 -4 -2 -4 -2 -4 -2 -4 -3 -3 -3 -3 -3 -3 -3 -3 -3 -3 -3 -3 -3 -3 -4 -2 -4 -2 -4 -2 -4 -2 -4 -2 -4 -1 -4 -1 -4 -1 -4 -1 -4 -1 -4 0 -5 0 -5 0 -538 0 -5 0 -5 1 -4 1 -4 1 -4 1 -4 1 -4 2 -4 2 -4 2 -4 2 -4 2 -4 3 -4 3 -3 3 -3 3 -3 3 -3 3 -3 3 -3 4 -3 4 -2 4 -2 4 -2 4 -2 4 -2 4 -1 4 -1 4 -1 4 -1 4 -1 5 0 5 0 1308 0zm0 26l4 0 3 0 3 0 3 1 3 1 3 1 3 1 3 1 3 1 3 1 3 2 3 2 3 2 2 2 2 2 2 2 2 2 2 2 2 2 2 3 2 3 2 3 1 3 1 3 1 3 1 3 1 3 1 3 1 3 0 3 0 3 0 4 0 537 0 4 0 3 0 3 -1 3 -1 3 -1 3 -1 3 -1 3 -1 3 -1 3 -2 3 -2 3 -2 3 -2 2 -2 2 -2 2 -2 2 -2 2 -2 2 -3 2 -3 2 -3 2 -3 1 -3 1 -3 1 -3 1 -3 1 -3 1 -3 1 -3 0 -3 0 -4 0 -1307 0 -4 0 -3 0 -3 0 -3 -1 -3 -1 -3 -1 -3 -1 -3 -1 -3 -1 -3 -1 -3 -2 -3 -2 -3 -2 -2 -2 -2 -2 -2 -2 -2 -2 -2 -2 -2 -2 -2 -3 -2 -3 -2 -3 -1 -3 -1 -3 -1 -3 -1 -3 -1 -3 -1 -3 -1 -3 0 -3 0 -3 0 -4 0 -537 0 -4 0 -3 0 -3 1 -3 1 -3 1 -3 1 -3 1 -3 1 -3 1 -3 2 -3 2 -3 2 -3 2 -2 2 -2 2 -2 2 -2 2 -2 2 -2 3 -2 3 -2 3 -2 3 -1 3 -1 3 -1 3 -1 3 -1 3 -1 3 -1 3 0 3 0 4 0 1307 0z"/>
  <path class="fil0 str1" d="M888 187l0 0 -36 -59 8 -16 8 0c8,-6 16,-11 20,-19 4,-7 3,-13 -4,-13l-41 0 -31 0c-5,0 -9,2 -11,5l-6 12 48 15 -7 13 -183 0 11 -22 -46 -24c-2,-1 -7,-5 -6,-10 1,-4 5,-5 8,-4l45 8c5,0 8,-2 9,-5 1,-5 -1,-8 -6,-10l-45 -8c-8,-1 -17,2 -21,7 -5,5 -8,11 -6,24 2,6 7,12 15,15l30 16 -29 58 -9 19c-14,-7 -29,-11 -46,-11 -56,0 -101,45 -101,101 0,56 45,101 101,101 56,0 101,-45 101,-101 0,-33 -16,-63 -41,-82l0 -1 0 0 1 -3 0 0 5 -11 121 87c-1,8 -1,15 3,22 7,10 13,14 26,15l49 -6 0 0 13 -1 0 0 0 0c10,46 50,80 99,80 56,0 101,-45 101,-101 0,-56 -45,-101 -101,-101 -16,0 -32,4 -45,11l0 0zm-35 111l14 -1 0 0 0 0 68 -6c8,0 12,-6 13,-12 0,-6 -4,-13 -13,-14l-31 -50 0 0 0 0 -6 -10c11,-5 23,-8 36,-8 46,0 83,37 83,83 0,46 -37,83 -83,83 -39,0 -72,-27 -81,-63zm-18 -45c6,-23 19,-42 38,-56l-30 -50 -49 101 42 5zm19 2c5,-17 15,-32 29,-42l29 49 -58 -6zm-99 -4l-124 -87 11 -22 186 0 -51 104c-9,-1 -16,0 -22,5zm-162 -47l-3 6 -12 24c-4,9 -11,26 -20,29 -4,1 -6,-1 -10,1 -7,4 -10,10 -8,16 2,5 5,9 12,10 9,0 15,-8 13,-17 12,-4 22,-24 31,-39l7 -15 0 0 3 -6c19,15 31,39 31,65 0,46 -37,83 -83,83 -46,0 -83,-37 -83,-83 0,-46 37,-83 83,-83 13,0 26,3 37,9z"/>
  <polygon class="fil0 str1" points="510,498 634,564 626,520 965,520 965,475 626,475 637,432 "/>
  <polygon class="fil0 str1" points="979,613 855,679 863,635 524,634 524,590 863,590 852,547 "/>
 </g>
</svg>
