<?xml version="1.0" encoding="UTF-8"?>
<!DOCTYPE svg PUBLIC "-//W3C//DTD SVG 1.1//EN" "http://www.w3.org/Graphics/SVG/1.1/DTD/svg11.dtd">
<!-- Creator: CorelDRAW X6 -->
<svg xmlns="http://www.w3.org/2000/svg" xml:space="preserve" width="42.5209mm" height="20.5302mm" version="1.1" style="shape-rendering:geometricPrecision; text-rendering:geometricPrecision; image-rendering:optimizeQuality; fill-rule:evenodd; clip-rule:evenodd"
viewBox="0 0 58061 28033"
 xmlns:xlink="http://www.w3.org/1999/xlink">
 <defs>
  <style type="text/css">
   <![CDATA[
    .str0 {stroke:#2B2A29;stroke-width:7.64666}
    .str1 {stroke:#2B2A29;stroke-width:35.3658}
    .fil0 {fill:black}
   ]]>
  </style>
 </defs>
 <g id="Layer_x0020_1">
  <metadata id="CorelCorpID_0Corel-Layer"/>
  <polygon class="fil0" points="49518,5146 52507,10425 50506,10092 50502,24576 48529,24580 48504,10099 46574,10583 "/>
  <path class="fil0 str0" d="M54541 4l194 5 178 14 175 22 172 31 169 39 166 47 162 55 159 63 155 70 151 77 147 84 142 91 138 98 132 104 127 110 122 116 116 122 110 127 104 133 98 137 91 142 84 147 77 151 70 155 63 159 55 162 47 166 39 169 31 172 22 175 14 178 5 194 0 20994 -5 194 -14 178 -22 175 -31 172 -39 169 -47 166 -55 162 -63 159 -70 155 -77 151 -84 147 -91 142 -98 138 -104 133 -110 127 -116 122 -122 116 -127 110 -132 104 -138 98 -142 91 -147 84 -151 77 -155 70 -159 63 -162 55 -166 47 -169 39 -172 31 -175 22 -178 14 -194 5 -51022 0 -194 -5 -178 -14 -175 -22 -172 -31 -169 -39 -166 -47 -162 -55 -159 -63 -155 -70 -151 -77 -147 -84 -142 -91 -137 -98 -133 -104 -127 -110 -122 -116 -116 -122 -110 -127 -104 -133 -98 -138 -91 -142 -84 -147 -77 -151 -70 -155 -63 -159 -55 -162 -47 -166 -39 -169 -31 -172 -22 -175 -14 -178 -5 -194 0 -20994 5 -194 14 -178 22 -175 31 -172 39 -169 47 -166 55 -162 63 -159 70 -155 77 -151 84 -147 91 -142 98 -137 104 -133 110 -127 116 -122 122 -116 127 -110 133 -104 137 -98 142 -91 147 -84 151 -77 155 -70 159 -63 162 -55 166 -47 169 -39 172 -31 175 -22 178 -14 194 -5 51022 0zm-13 1001l156 4 128 10 125 16 123 22 120 28 118 34 116 39 113 45 110 50 108 55 105 60 102 65 98 70 95 75 91 79 87 83 83 87 79 91 75 95 70 98 65 102 60 105 55 108 50 110 45 113 39 116 33 118 28 120 22 123 16 125 10 128 4 156 0 20969 -4 156 -10 128 -16 125 -22 123 -28 120 -33 118 -39 116 -45 113 -50 110 -55 108 -60 105 -65 102 -70 98 -74 95 -79 91 -83 87 -87 83 -91 79 -95 75 -98 70 -102 65 -105 60 -108 55 -110 50 -113 45 -115 39 -118 34 -120 28 -123 22 -125 16 -128 10 -156 4 -50997 0 -156 -4 -128 -10 -125 -16 -123 -22 -120 -28 -118 -34 -115 -39 -113 -45 -110 -50 -108 -55 -105 -60 -102 -65 -98 -70 -95 -75 -91 -79 -87 -83 -83 -87 -79 -91 -75 -95 -70 -98 -65 -102 -60 -105 -55 -108 -50 -110 -45 -113 -39 -116 -33 -118 -28 -120 -22 -123 -16 -125 -10 -128 -4 -156 0 -20969 4 -156 10 -128 16 -125 22 -123 28 -120 33 -118 39 -116 45 -113 50 -110 55 -108 60 -105 65 -102 70 -98 75 -95 79 -91 83 -87 87 -83 91 -79 95 -75 98 -70 102 -65 105 -60 108 -55 110 -50 113 -45 116 -39 118 -34 120 -28 123 -22 125 -16 128 -10 156 -4 50996 0z"/>
  <path class="fil0 str1" d="M36056 12717l0 0 -1744 -2897 380 -805 374 -3c385,-285 764,-561 973,-948 211,-364 143,-611 -204,-632l-2026 21 -1498 16c-262,2 -422,92 -560,244l-273 575 2325 729 -364 651 -8958 2 517 -1085 -2264 -1181c-110,-40 -349,-250 -278,-488 61,-176 234,-250 384,-219l2195 382c257,20 375,-77 450,-260 25,-244 -26,-395 -290,-497l-2193 -379c-400,-66 -810,119 -1016,354 -224,260 -413,548 -288,1159 97,290 339,591 710,751l1480 774 -1420 2828 -453 924c-669,-338 -1426,-528 -2227,-528 -2734,0 -4951,2217 -4951,4951 0,2734 2217,4951 4951,4951 2734,0 4951,-2217 4951,-4951 0,-1635 -793,-3085 -2016,-3987l12 -26 -1 -1 70 -143 0 0 266 -540 5890 4271c-59,382 -56,736 156,1062 346,501 644,700 1273,757l2414 -271 0 0 626 -70 2 9 5 -1c486,2224 2467,3890 4837,3890 2734,0 4951,-2217 4951,-4951 0,-2734 -2217,-4951 -4951,-4951 -796,0 -1547,188 -2213,522l-4 -7zm-1717 5406l680 -62 1 0 0 0 3308 -303c367,-21 603,-285 622,-603 21,-311 -188,-655 -617,-698l-1502 -2453 0 0 0 0 -309 -504c530,-255 1124,-397 1751,-397 2237,0 4052,1814 4052,4052 0,2237 -1815,4052 -4052,4052 -1903,0 -3500,-1313 -3935,-3082zm-864 -2193c283,-1112 942,-2074 1834,-2742l-1464 -2433 -2402 4952 2033 223zm905 99c239,-828 734,-1547 1395,-2066l1430 2376 -2825 -310zm-4843 -172l-6036 -4270 525 -1052 9087 -13 -2505 5085c-420,-71 -773,-3 -1071,251zm-7920 -2320l-143 291 -563 1149c-219,423 -525,1283 -970,1416 -173,64 -277,-38 -512,68 -334,176 -464,487 -376,792 84,244 242,433 601,486 420,2 748,-392 652,-817 567,-199 1098,-1172 1518,-1922l361 -717 0 0 139 -289c923,743 1514,1881 1514,3158 0,2237 -1815,4052 -4052,4052 -2237,0 -4052,-1814 -4052,-4052 0,-2237 1814,-4052 4052,-4052 659,0 1280,157 1830,436z"/>
  <polygon class="fil0" points="8564,24580 11553,19301 9551,19634 9548,5150 7574,5146 7550,19626 5620,19143 "/>
 </g>
</svg>
