<?xml version="1.0" encoding="UTF-8"?>
<!DOCTYPE svg PUBLIC "-//W3C//DTD SVG 1.1//EN" "http://www.w3.org/Graphics/SVG/1.1/DTD/svg11.dtd">
<!-- Creator: CorelDRAW X6 -->
<svg xmlns="http://www.w3.org/2000/svg" xml:space="preserve" width="42.2144mm" height="20.3823mm" version="1.1" style="shape-rendering:geometricPrecision; text-rendering:geometricPrecision; image-rendering:optimizeQuality; fill-rule:evenodd; clip-rule:evenodd"
viewBox="0 0 1723 832"
 xmlns:xlink="http://www.w3.org/1999/xlink">
 <defs>
  <style type="text/css">
   <![CDATA[
    .str0 {stroke:#2B2A29;stroke-width:0.224521}
    .str1 {stroke:#2B2A29;stroke-width:1.04912}
    .fil0 {fill:black}
    .fil1 {fill:red;fill-rule:nonzero}
   ]]>
  </style>
 </defs>
 <g id="Layer_x0020_1">
  <metadata id="CorelCorpID_0Corel-Layer"/>
  <path class="fil0 str0" d="M1619 0l6 0 5 0 5 1 5 1 5 1 5 1 5 2 5 2 5 2 4 2 4 3 4 3 4 3 4 3 4 3 4 3 3 4 3 4 3 4 3 4 3 4 3 4 2 4 2 5 2 5 2 5 1 5 1 5 1 5 1 5 0 5 0 6 0 623 0 6 0 5 -1 5 -1 5 -1 5 -1 5 -2 5 -2 5 -2 5 -2 4 -3 4 -3 4 -3 4 -3 4 -3 4 -3 4 -4 3 -4 3 -4 3 -4 3 -4 3 -4 3 -4 2 -5 2 -5 2 -5 2 -5 1 -5 1 -5 1 -5 1 -5 0 -6 0 -1514 0 -6 0 -5 0 -5 -1 -5 -1 -5 -1 -5 -1 -5 -2 -5 -2 -5 -2 -4 -2 -4 -3 -4 -3 -4 -3 -4 -3 -4 -3 -4 -3 -3 -4 -3 -4 -3 -4 -3 -4 -3 -4 -3 -4 -2 -4 -2 -5 -2 -5 -2 -5 -1 -5 -1 -5 -1 -5 -1 -5 0 -5 0 -6 0 -623 0 -6 0 -5 1 -5 1 -5 1 -5 1 -5 2 -5 2 -5 2 -5 2 -4 3 -4 3 -4 3 -4 3 -4 3 -4 3 -4 4 -3 4 -3 4 -3 4 -3 4 -3 4 -3 4 -2 5 -2 5 -2 5 -2 5 -1 5 -1 5 -1 5 -1 5 0 6 0 1514 0zm0 30l5 0 4 0 4 0 4 1 4 1 4 1 3 1 3 1 3 1 3 2 3 2 3 2 3 2 3 2 3 2 3 2 2 3 2 3 2 3 2 3 2 3 2 3 2 3 1 3 1 3 1 3 1 3 1 4 1 4 0 4 0 4 0 5 0 622 0 5 0 4 0 4 -1 4 -1 4 -1 3 -1 3 -1 3 -1 3 -2 3 -2 3 -2 3 -2 3 -2 3 -2 3 -2 3 -3 2 -3 2 -3 2 -3 2 -3 2 -3 2 -3 2 -3 1 -3 1 -3 1 -3 1 -4 1 -4 1 -4 0 -4 0 -5 0 -1514 0 -5 0 -4 0 -4 0 -4 -1 -4 -1 -4 -1 -3 -1 -3 -1 -3 -1 -3 -2 -3 -2 -3 -2 -3 -2 -3 -2 -3 -2 -3 -2 -2 -3 -2 -3 -2 -3 -2 -3 -2 -3 -2 -3 -2 -3 -1 -3 -1 -3 -1 -3 -1 -4 -1 -4 -1 -4 0 -4 0 -4 0 -5 0 -622 0 -5 0 -4 0 -4 1 -4 1 -4 1 -4 1 -3 1 -3 1 -3 2 -3 2 -3 2 -3 2 -3 2 -3 2 -3 2 -3 3 -2 3 -2 3 -2 3 -2 3 -2 3 -2 3 -2 3 -1 3 -1 3 -1 4 -1 4 -1 4 -1 4 0 4 0 5 0 1514 0z"/>
  <path class="fil0 str1" d="M1070 377l0 0 -52 -86 11 -24 11 0c11,-8 23,-17 29,-28 6,-11 4,-18 -6,-19l-60 1 -44 0c-8,0 -13,3 -17,7l-8 17 69 22 -11 19 -266 0 15 -32 -67 -35c-3,-1 -10,-7 -8,-14 2,-5 7,-7 11,-6l65 11c8,1 11,-2 13,-8 1,-7 -1,-12 -9,-15l-65 -11c-12,-2 -24,4 -30,11 -7,8 -12,16 -9,34 3,9 10,18 21,22l44 23 -42 84 -13 27c-20,-10 -42,-16 -66,-16 -81,0 -147,66 -147,147 0,81 66,147 147,147 81,0 147,-66 147,-147 0,-49 -24,-92 -60,-118l0 -1 0 0 2 -4 0 0 8 -16 175 127c-2,11 -2,22 5,32 10,15 19,21 38,22l72 -8 0 0 19 -2 0 0 0 0c14,66 73,115 144,115 81,0 147,-66 147,-147 0,-81 -66,-147 -147,-147 -24,0 -46,6 -66,15l0 0zm-51 160l20 -2 0 0 0 0 98 -9c11,-1 18,-8 18,-18 1,-9 -6,-19 -18,-21l-45 -73 0 0 0 0 -9 -15c16,-8 33,-12 52,-12 66,0 120,54 120,120 0,66 -54,120 -120,120 -56,0 -104,-39 -117,-91zm-26 -65c8,-33 28,-62 54,-81l-43 -72 -71 147 60 7zm27 3c7,-25 22,-46 41,-61l42 71 -84 -9zm-144 -5l-179 -127 16 -31 270 0 -74 151c-12,-2 -23,0 -32,7zm-235 -69l-4 9 -17 34c-6,13 -16,38 -29,42 -5,2 -8,-1 -15,2 -10,5 -14,14 -11,24 2,7 7,13 18,14 12,0 22,-12 19,-24 17,-6 33,-35 45,-57l11 -21 0 0 4 -9c27,22 45,56 45,94 0,66 -54,120 -120,120 -66,0 -120,-54 -120,-120 0,-66 54,-120 120,-120 20,0 38,5 54,13z"/>
  <polygon class="fil0" points="1470,125 1558,273 1499,263 1499,668 1440,669 1440,263 1382,277 "/>
  <polygon class="fil0" points="253,689 342,542 283,551 283,146 224,146 223,551 166,537 "/>
  <polygon class="fil1" points="1303,579 1434,448 1290,304 1328,266 1472,410 1597,285 1635,322 1510,448 1648,586 1610,623 1472,485 1341,617 "/>
 </g>
</svg>
