<?xml version="1.0" encoding="UTF-8"?>
<!DOCTYPE svg PUBLIC "-//W3C//DTD SVG 1.1//EN" "http://www.w3.org/Graphics/SVG/1.1/DTD/svg11.dtd">
<!-- Creator: CorelDRAW X6 -->
<svg xmlns="http://www.w3.org/2000/svg" xml:space="preserve" width="42.2144mm" height="20.3823mm" version="1.1" style="shape-rendering:geometricPrecision; text-rendering:geometricPrecision; image-rendering:optimizeQuality; fill-rule:evenodd; clip-rule:evenodd"
viewBox="0 0 241930 116811"
 xmlns:xlink="http://www.w3.org/1999/xlink">
 <defs>
  <style type="text/css">
   <![CDATA[
    .str1 {stroke:#2B2A29;stroke-width:31.5204}
    .str0 {stroke:#2B2A29;stroke-width:147.286}
    .str2 {stroke:#2B2A29;stroke-width:4170.43}
    .fil1 {fill:none}
    .fil0 {fill:black}
   ]]>
  </style>
 </defs>
 <g id="Layer_x0020_1">
  <metadata id="CorelCorpID_0Corel-Layer"/>
  <path class="fil0 str0" d="M33672 74094c6364,0 11557,5192 11557,11557 0,6364 -5193,11549 -11557,11549 -6364,0 -11548,-5185 -11548,-11549 0,-6364 5184,-11557 11548,-11557zm16 6000c3244,0 5890,2561 5890,5704 0,3143 -2647,5705 -5890,5705 -3244,0 -5883,-2561 -5883,-5705 0,-3143 2639,-5704 5883,-5704z"/>
  <path class="fil0 str0" d="M111394 74249c6364,0 11557,5184 11557,11548 0,6365 -5193,11557 -11557,11557 -6364,0 -11548,-5192 -11548,-11557 0,-6364 5184,-11548 11548,-11548zm16 5992c3244,0 5890,2561 5890,5705 0,3151 -2647,5705 -5890,5705 -3244,0 -5883,-2554 -5883,-5705 0,-3143 2639,-5705 5883,-5705z"/>
  <path class="fil0 str0" d="M125318 85659c272,-5402 -3112,-11844 -9624,-13707l20762 109 -54 6985 -11083 6613z"/>
  <path class="fil0 str0" d="M136208 25275l23 43029 -79468 0 54 -42843c93,-2763 2002,-3462 5161,-3462l69945 -140c3865,0 4284,1560 4284,3415z"/>
  <path class="fil0 str0" d="M28527 37998c-885,0 -1514,479 -1848,1139l-13830 18503 -124 23890c838,4036 3601,3400 6892,3679 -295,-3260 1413,-6969 3462,-9344 4439,-4385 8692,-5053 13279,-4385 6419,753 11867,9143 11526,14358l48827 -39c388,-6519 3780,-11238 10113,-13652l-54927 -39 -23 -31689c147,-1063 -1284,-2522 -2704,-2452l-20642 33zm-6717 16260c-473,683 -371,1496 646,1574l24347 39 0 -13613 -16431 7 -8562 11993z"/>
  <polygon class="fil0 str1" points="129969,88811 130043,88811 130043,86329 135193,86329 135193,88811 160090,88811 160090,93297 135193,93297 130043,93297 129969,93297 "/>
  <polyline class="fil1 str2" points="162901,82505 173243,94435 194120,76337 "/>
  <circle class="fil0 str1" cx="164877" cy="94383" r="3128"/>
  <rect class="fil0 str1" transform="matrix(0.0375817 0.0440672 -0.0440672 0.0375817 179207 71007.9)" width="184941" height="279966"/>
  <path class="fil0 str1" d="M196613 75976l5654 -8190 2628 -10119c0,0 6518,-3888 8010,-3178l3996 1902 2943 11709c1164,1816 2358,3243 1853,5137l2027 12553 5588 8653c524,876 -1318,3228 -3080,1204l-6387 -9468 -2731 -9468 -7513 7257 777 11679c79,1353 -3612,1270 -3707,0l-1009 -13309 7129 -9550 -4509 -9581 -2542 6555 -6203 8078c-1006,1234 -3780,-614 -2923,-1864z"/>
  <circle class="fil0 str1" cx="205709" cy="50793" r="4444"/>
  <path class="fil0 str1" d="M227264 16l807 21 743 57 731 93 718 128 704 163 691 197 677 229 661 261 645 292 629 322 611 351 592 380 573 407 552 434 531 460 508 484 484 508 460 531 434 552 407 573 379 593 351 611 322 629 292 645 261 661 229 677 197 691 163 704 128 718 92 731 57 742 21 807 0 87478 -21 807 -57 743 -92 730 -128 718 -163 705 -197 691 -229 677 -261 661 -292 646 -322 629 -351 611 -379 592 -407 573 -434 552 -460 531 -484 508 -508 484 -531 460 -552 434 -573 407 -592 380 -611 351 -629 322 -646 292 -661 261 -677 229 -691 196 -705 163 -718 128 -730 93 -743 56 -807 21 -212598 0 -807 -21 -743 -56 -731 -93 -718 -128 -705 -163 -691 -196 -676 -229 -662 -261 -645 -292 -629 -322 -611 -351 -593 -380 -573 -407 -552 -434 -530 -460 -508 -484 -484 -508 -460 -531 -434 -552 -407 -573 -380 -592 -351 -611 -322 -629 -292 -646 -261 -661 -229 -677 -196 -691 -163 -705 -128 -718 -93 -730 -57 -743 -20 -807 0 -87478 20 -807 57 -743 93 -731 128 -718 163 -705 196 -691 229 -677 261 -661 292 -645 322 -629 351 -611 380 -593 407 -573 434 -552 460 -531 484 -508 508 -484 531 -460 552 -434 573 -407 593 -380 611 -351 629 -322 645 -292 661 -261 677 -229 691 -197 705 -163 718 -128 731 -93 743 -57 807 -21 212598 0zm-53 4171l649 16 532 41 522 66 511 91 501 116 492 140 481 163 471 186 460 208 448 229 436 251 424 271 410 292 395 311 380 329 364 347 347 363 329 380 311 395 292 410 271 423 251 437 229 448 208 460 186 471 163 481 140 491 116 502 91 511 66 522 41 532 16 649 0 87373 -16 649 -41 532 -66 522 -91 512 -116 501 -140 491 -163 481 -186 471 -208 460 -229 448 -251 436 -271 423 -292 410 -311 395 -329 379 -347 364 -364 347 -380 329 -395 311 -410 291 -424 272 -436 250 -448 229 -460 208 -471 186 -481 163 -491 139 -502 116 -511 92 -522 66 -532 41 -649 17 -212493 0 -649 -17 -532 -41 -522 -66 -512 -92 -501 -116 -492 -139 -481 -163 -471 -186 -460 -207 -448 -230 -436 -251 -424 -271 -409 -291 -395 -311 -380 -329 -364 -347 -347 -364 -330 -380 -311 -395 -291 -410 -272 -423 -250 -436 -230 -448 -208 -460 -186 -471 -163 -481 -139 -491 -116 -502 -92 -511 -66 -522 -40 -532 -17 -649 0 -87372 17 -649 40 -532 66 -522 92 -511 116 -501 139 -492 163 -481 185 -471 208 -460 230 -448 250 -437 272 -423 291 -410 311 -395 330 -380 347 -363 363 -347 381 -330 395 -311 409 -292 424 -271 436 -251 449 -230 459 -207 471 -186 481 -163 492 -140 501 -116 512 -91 522 -66 532 -41 649 -16 212492 0z"/>
 </g>
</svg>
