<?xml version="1.0" encoding="UTF-8"?>
<!DOCTYPE svg PUBLIC "-//W3C//DTD SVG 1.1//EN" "http://www.w3.org/Graphics/SVG/1.1/DTD/svg11.dtd">
<!-- Creator: CorelDRAW X6 -->
<svg xmlns="http://www.w3.org/2000/svg" xml:space="preserve" width="92.0375mm" height="67.0272mm" version="1.1" style="shape-rendering:geometricPrecision; text-rendering:geometricPrecision; image-rendering:optimizeQuality; fill-rule:evenodd; clip-rule:evenodd"
viewBox="0 0 4129 3007"
 xmlns:xlink="http://www.w3.org/1999/xlink">
 <defs>
  <style type="text/css">
   <![CDATA[
    .str0 {stroke:black;stroke-width:3.41861}
    .fil4 {fill:#212220}
    .fil2 {fill:#FEFEFE}
    .fil0 {fill:blue}
    .fil7 {fill:lime}
    .fil3 {fill:#663333}
    .fil6 {fill:red}
    .fil5 {fill:#212220;fill-rule:nonzero}
    .fil1 {fill:#FEFEFE;fill-rule:nonzero}
   ]]>
  </style>
 </defs>
 <g id="Layer_x0020_1">
  <metadata id="CorelCorpID_0Corel-Layer"/>
  <path class="fil0" d="M67 0c-37,0 -67,30 -67,67l0 2872c0,37 30,67 67,67l3994 0c37,0 67,-30 67,-67l0 -2872c0,-37 -30,-67 -67,-67l-3994 0z"/>
  <path class="fil1" d="M1898 494l0 -224 34 0 0 116 1 0 92 -116 40 0 -72 88 79 136 -40 0 -61 -110 -39 41 0 68 -34 0zm232 -194l0 68 51 0c13,0 22,-4 29,-11 6,-7 10,-15 10,-25 0,-11 -4,-20 -11,-26 -6,-5 -15,-7 -25,-7l-53 0zm-34 194l0 -224 88 0c19,0 34,5 46,15 6,5 12,12 16,20 4,8 7,17 7,27 0,14 -4,27 -12,38 -8,11 -18,19 -32,24l52 100 -40 0 -46 -96 -44 0 0 96 -34 0zm169 0l82 -224 28 0 82 224 -36 0 -17 -51 -85 0 -18 51 -36 0zm64 -81l65 0c-5,-14 -8,-25 -11,-33 -3,-8 -5,-15 -7,-21 -2,-6 -4,-12 -6,-18 -2,-6 -5,-15 -8,-25 -4,11 -6,20 -9,27 -2,7 -4,13 -6,19 -2,6 -4,13 -7,21 -3,8 -6,18 -11,31zm137 52l22 -26c8,7 18,12 29,16 11,4 22,6 34,6 14,0 25,-3 33,-9 8,-6 12,-13 12,-23 0,-18 -10,-28 -29,-30 -5,-1 -10,-1 -14,-2 -4,-1 -10,-1 -15,-2 -19,-3 -34,-10 -44,-21 -10,-12 -15,-25 -15,-42 0,-19 6,-35 19,-47 13,-12 31,-18 54,-18 14,0 27,2 39,7 12,4 23,10 34,17l-19 28c-8,-5 -17,-9 -26,-12 -9,-3 -19,-5 -29,-5 -10,0 -19,3 -27,8 -7,5 -11,13 -11,24 0,6 2,12 7,18 5,6 13,9 24,11 3,1 7,1 11,2 4,1 9,1 14,2 21,3 36,10 46,23 10,13 15,27 15,42 0,21 -7,37 -21,48 -14,11 -33,17 -57,17 -34,0 -62,-10 -86,-31zm200 29l0 -224 34 0 0 192 109 0 0 32 -143 0zm152 0l82 -224 28 0 82 224 -36 0 -17 -51 -85 0 -18 51 -36 0zm64 -81l65 0c-5,-14 -8,-25 -11,-33 -3,-8 -5,-15 -7,-21 -2,-6 -4,-12 -6,-18 -2,-6 -5,-15 -8,-25 -4,11 -6,20 -9,27 -2,7 -4,13 -6,19 -2,6 -4,13 -7,21 -3,8 -6,18 -11,31zm207 81l-74 -224 36 0 51 171 1 0 51 -171 36 0 -74 224 -26 0zm101 0l82 -224 28 0 82 224 -36 0 -17 -51 -85 0 -18 51 -36 0zm64 -81l65 0c-5,-14 -8,-25 -11,-33 -3,-8 -5,-15 -7,-21 -2,-6 -4,-12 -6,-18 -2,-6 -5,-15 -8,-25 -4,11 -6,20 -9,27 -2,7 -4,13 -6,19 -2,6 -4,13 -7,21 -3,8 -6,18 -11,31z"/>
  <polygon class="fil2" points="2341,413 2403,413 2403,440 2341,440 "/>
  <polygon class="fil2" points="2313,228 2408,228 2408,255 2313,255 "/>
  <path class="fil2" d="M3692 942l-97 41 153 -322 152 320 -96 -40 0 645 0 0 0 1094 -112 0 0 -1094c0,-106 -22,-166 -61,-196 -38,-30 -98,-37 -169,-37l0 0 -107 0 41 97 -322 -153 320 -152 -40 96 107 0 0 0c90,-1 169,11 230,54l0 -355z"/>
  <path class="fil1" d="M3555 2842l37 -74 22 0 -29 58 0 0c3,-1 7,-2 10,-2 9,0 16,3 23,9 7,6 10,16 10,29 0,16 -4,27 -13,34 -8,7 -18,10 -28,10 -10,0 -18,-4 -26,-11 -8,-7 -12,-18 -12,-31 0,-8 2,-16 5,-23zm34 0c-5,0 -10,2 -14,6 -4,4 -6,9 -6,17 0,15 7,23 20,23 5,0 9,-2 13,-5 4,-3 6,-9 6,-17 0,-8 -2,-13 -6,-17 -4,-4 -8,-6 -14,-6zm112 24l0 -58c0,-7 -2,-12 -5,-15 -4,-4 -8,-6 -14,-6 -6,0 -11,2 -14,6 -4,4 -5,9 -5,15l0 58c0,7 2,12 5,16 4,4 8,6 14,6 6,0 10,-2 14,-6 4,-4 5,-9 5,-16zm-58 1l0 -61c0,-13 4,-22 12,-29 8,-7 17,-10 27,-10 10,0 19,3 27,10 8,7 12,17 12,29l0 61c0,13 -4,22 -12,29 -8,7 -17,10 -27,10 -10,0 -19,-3 -27,-10 -8,-7 -12,-17 -12,-29zm151 -1l0 -58c0,-7 -2,-12 -5,-15 -4,-4 -8,-6 -14,-6 -6,0 -11,2 -14,6 -4,4 -5,9 -5,15l0 58c0,7 2,12 5,16 4,4 8,6 14,6 6,0 10,-2 14,-6 4,-4 5,-9 5,-16zm-58 1l0 -61c0,-13 4,-22 12,-29 8,-7 17,-10 27,-10 10,0 19,3 27,10 8,7 12,17 12,29l0 61c0,13 -4,22 -12,29 -8,7 -17,10 -27,10 -10,0 -19,-3 -27,-10 -8,-7 -12,-17 -12,-29zm101 38l0 -98 20 0 0 10 0 0c6,-8 15,-12 25,-12 7,0 12,1 16,4 4,2 8,5 11,9 8,-8 18,-13 31,-13 8,0 15,3 22,9 7,6 11,14 11,25l0 65 -20 0 0 -58c0,-7 -2,-12 -6,-15 -4,-4 -8,-6 -14,-6 -6,0 -10,2 -14,6 -4,4 -6,9 -6,15l0 58 -20 0 0 -58c0,-7 -2,-12 -6,-15 -4,-4 -8,-6 -14,-6 -6,0 -10,2 -14,6 -4,4 -6,9 -6,15l0 58 -20 0z"/>
  <path class="fil2 str0" d="M2217 2567c40,0 72,-32 72,-71 0,-187 0,-374 0,-562 0,-39 -32,-70 -72,-70l-381 0 -341 0 0 0 -1046 0c-40,0 -72,31 -72,70 0,187 0,374 0,562 0,39 32,71 72,71l1046 0 0 0 341 0 381 0z"/>
  <path class="fil3" d="M1875 1899l-380 0 0 0 -1046 0c-20,0 -37,15 -37,35 0,187 0,374 0,562l0 0 0 0c0,20 17,36 37,36l1046 0 0 0 380 0 342 0c20,0 37,-16 37,-36l0 0 0 0c0,-187 0,-374 0,-562 0,-20 -17,-35 -37,-35l-342 0z"/>
  <path class="fil1" d="M1012 2168l0 -175 61 0c24,0 42,10 53,29 4,7 7,14 8,21 1,6 1,19 1,37 0,20 -1,33 -2,39 -1,7 -4,13 -8,19 -5,8 -12,15 -21,21 -9,6 -20,8 -33,8l-60 0zm27 -150l0 125 32 0c15,0 25,-5 32,-15 3,-4 5,-9 5,-14 1,-5 1,-16 1,-32 0,-16 0,-27 -1,-33 -1,-6 -3,-11 -7,-16 -7,-10 -18,-15 -31,-15l-32 0zm110 150l64 -175 22 0 64 175 -28 0 -13 -40 -66 0 -14 40 -28 0zm50 -63l51 0c-4,-11 -7,-19 -9,-25 -2,-6 -4,-12 -6,-16 -2,-5 -3,-10 -5,-14 -2,-5 -4,-12 -6,-20 -3,9 -5,16 -7,21 -2,5 -3,10 -5,15 -2,5 -3,10 -5,16 -2,6 -5,14 -8,24zm119 4l0 -116 27 0 0 113c0,12 3,21 10,28 7,6 15,10 25,10 10,0 19,-3 25,-10 7,-6 10,-16 10,-28l0 -113 27 0 0 116c0,18 -6,33 -18,44 -12,11 -27,17 -44,17 -17,0 -32,-6 -44,-17 -12,-11 -18,-26 -18,-44zm215 -12l0 -25 62 0 0 36c0,17 -6,32 -18,44 -12,12 -27,18 -44,18 -14,0 -25,-3 -35,-10 -9,-7 -16,-14 -20,-21 -3,-5 -5,-11 -6,-17 -1,-6 -2,-20 -2,-41 0,-21 1,-35 2,-41 1,-6 3,-12 6,-17 4,-8 11,-15 20,-22 9,-7 21,-10 35,-10 17,0 30,5 41,15 11,10 18,22 20,37l-28 0c-2,-7 -6,-13 -12,-18 -6,-5 -13,-8 -21,-8 -6,0 -12,1 -16,4 -5,3 -8,6 -11,9 -3,5 -6,9 -7,15 -1,5 -2,17 -2,35 0,18 1,30 2,35 1,5 4,10 7,15 3,4 6,7 11,9 5,3 10,4 16,4 10,0 19,-3 26,-10 7,-7 10,-16 10,-27l0 -9 -36 0zm75 71l64 -175 22 0 64 175 -28 0 -13 -40 -66 0 -14 40 -28 0zm50 -63l51 0c-4,-11 -7,-19 -9,-25 -2,-6 -4,-12 -6,-16 -2,-5 -3,-10 -5,-14 -2,-5 -4,-12 -6,-20 -3,9 -5,16 -7,21 -2,5 -3,10 -5,15 -2,5 -3,10 -5,16 -2,6 -5,14 -8,24zm162 63l-58 -175 28 0 40 133 0 0 40 -133 28 0 -58 175 -21 0zm79 0l64 -175 22 0 64 175 -28 0 -13 -40 -66 0 -14 40 -28 0zm50 -63l51 0c-4,-11 -7,-19 -9,-25 -2,-6 -4,-12 -6,-16 -2,-5 -3,-10 -5,-14 -2,-5 -4,-12 -6,-20 -3,9 -5,16 -7,21 -2,5 -3,10 -5,15 -2,5 -3,10 -5,16 -2,6 -5,14 -8,24zm107 40l18 -20c7,5 14,10 23,13 9,3 18,5 27,5 11,0 19,-2 25,-7 6,-4 9,-10 9,-18 0,-14 -8,-22 -23,-24 -4,0 -8,-1 -11,-1 -3,0 -7,-1 -12,-2 -15,-2 -27,-8 -35,-17 -8,-9 -12,-20 -12,-33 0,-15 5,-27 15,-37 10,-10 24,-14 42,-14 11,0 21,2 30,5 10,3 18,8 26,13l-15 22c-6,-4 -13,-7 -21,-10 -7,-2 -15,-4 -23,-4 -8,0 -15,2 -21,6 -6,4 -9,10 -9,19 0,5 2,10 6,14 4,4 10,7 19,9 2,0 5,1 8,1 3,0 7,1 11,1 16,2 28,8 36,18 8,10 12,21 12,33 0,16 -6,29 -17,37 -11,9 -26,13 -45,13 -26,0 -49,-8 -67,-24zm-754 282l0 -175 27 0 0 150 85 0 0 25 -112 0zm131 -87c0,-21 1,-35 2,-41 1,-6 3,-12 6,-17 4,-8 11,-15 20,-22 9,-7 21,-10 35,-10 14,0 25,3 35,10 9,7 16,14 20,22 3,5 5,11 6,17 1,6 2,20 2,41 0,21 -1,35 -2,41 -1,6 -3,12 -6,17 -4,8 -11,15 -20,21 -9,7 -21,10 -35,10 -14,0 -25,-3 -35,-10 -9,-7 -16,-14 -20,-21 -3,-5 -5,-11 -6,-17 -1,-6 -2,-20 -2,-41zm27 0c0,18 1,30 2,35 1,5 4,10 7,15 3,4 6,7 11,9 5,3 10,4 16,4 6,0 12,-1 16,-4 5,-2 8,-6 11,-9 3,-4 6,-9 7,-15 1,-5 2,-17 2,-35 0,-18 -1,-30 -2,-35 -1,-5 -4,-10 -7,-15 -3,-3 -6,-6 -11,-9 -5,-3 -10,-4 -16,-4 -6,0 -12,1 -16,4 -5,3 -8,6 -11,9 -3,5 -6,9 -7,15 -1,5 -2,17 -2,35zm129 87l0 -175 27 0 0 90 1 0 72 -90 32 0 -56 69 62 106 -31 0 -48 -86 -31 32 0 53 -27 0zm155 0l0 -175 27 0 0 175 -27 0z"/>
  <polygon class="fil2" points="503,2084 544,2084 544,2043 585,2043 585,2002 930,2002 930,2347 889,2347 889,2388 848,2388 848,2429 503,2429 "/>
  <path class="fil4 str0" d="M767 2310c21,0 38,17 38,38 0,21 -17,38 -38,38 -20,0 -36,-15 -38,-35l0 0 0 -27 -108 0 0 18c0,2 0,4 0,6 0,21 -17,38 -38,38 -21,0 -38,-17 -38,-38 0,-21 17,-38 38,-38 1,0 3,0 4,0l19 0 0 -108 -20 0c-1,0 -2,0 -4,0 -21,0 -38,-17 -38,-38 0,-21 17,-38 38,-38 21,0 38,17 38,38 0,2 0,4 0,6l0 18 108 0 0 -27 0 0c2,-19 18,-35 38,-35 21,0 38,17 38,38 0,21 -17,38 -38,38 -1,0 -2,0 -4,0l-20 0 0 108 20 0c1,0 3,0 4,0zm-24 -147l0 4c0,0 0,1 0,1l0 20 25 0 0 0 2 0 0 0c12,-1 21,-11 21,-24 0,-13 -11,-24 -24,-24 -12,0 -23,10 -24,22zm-136 -1l0 0c-2,-12 -12,-21 -24,-21 -13,0 -24,11 -24,24 0,12 9,22 20,24l0 0 1 0 0 0 25 0 0 -17c0,-1 0,-1 0,-2l0 -8zm162 162l0 0 -2 0 0 0 -25 0 0 20c0,0 0,1 0,1l0 4c1,12 11,22 24,22 13,0 24,-11 24,-24 0,-12 -9,-22 -21,-24zm-162 27l0 0 0 -8c0,-1 0,-1 0,-2l0 -17 -25 0 0 0 -1 0 0 0c-12,2 -20,12 -20,24 0,13 11,24 24,24 12,0 22,-9 24,-21zm121 -41l0 -108 -108 0 0 108 108 0z"/>
  <path class="fil5" d="M538 2078l0 -41 41 0 0 -41 357 0 0 357 -41 0 0 41 -41 0 0 41 -354 0 -3 0 0 -3 0 -354 41 0zm47 -41l310 0 0 310 35 0 0 -346 -346 0 0 35zm305 6l-346 0 0 35 310 0 0 311 35 0 0 -346zm-41 41l-346 0 0 346 346 0 0 -346z"/>
  <polygon class="fil2" points="2177,1208 2177,1210 2176,1213 2176,1216 2176,1218 2175,1221 2174,1223 2173,1226 2172,1228 2171,1230 2170,1233 2169,1235 2168,1237 2166,1239 2165,1241 2163,1243 2161,1245 2159,1246 2158,1248 2156,1250 2154,1251 2151,1252 2149,1254 2147,1255 2145,1256 2142,1257 2140,1258 2137,1258 2135,1259 2132,1259 2130,1260 2127,1260 2124,1260 1634,1260 1631,1260 1628,1260 1626,1259 1623,1259 1621,1258 1618,1258 1616,1257 1613,1256 1611,1255 1609,1254 1607,1252 1605,1251 1603,1250 1601,1248 1599,1246 1597,1245 1595,1243 1593,1241 1592,1239 1590,1237 1589,1235 1588,1233 1587,1230 1586,1228 1585,1226 1584,1223 1583,1221 1583,1218 1582,1216 1582,1213 1582,1210 1582,1208 1582,958 1582,955 1582,952 1582,950 1583,947 1583,945 1584,942 1585,940 1586,937 1587,935 1588,933 1589,931 1590,928 1592,926 1593,924 1595,923 1597,921 1599,919 1601,917 1603,916 1605,914 1607,913 1609,912 1611,911 1613,910 1616,909 1618,908 1621,907 1623,907 1626,906 1628,906 1631,906 1634,905 2124,905 2127,906 2130,906 2132,906 2135,907 2137,907 2140,908 2142,909 2145,910 2147,911 2149,912 2151,913 2154,914 2156,916 2158,917 2159,919 2161,921 2163,923 2165,924 2166,926 2168,928 2169,931 2170,933 2171,935 2172,937 2173,940 2174,942 2175,945 2176,947 2176,950 2176,952 2177,955 2177,958 "/>
  <polygon class="fil2" points="4053,507 4053,509 4053,512 4053,514 4052,517 4052,520 4051,522 4050,524 4049,527 4048,529 4047,531 4046,534 4044,536 4043,538 4041,540 4040,542 4038,543 4036,545 4034,547 4032,548 4030,550 4028,551 4026,552 4024,554 4021,555 4019,556 4017,556 4014,557 4012,558 4009,558 4006,558 4004,559 4001,559 3510,559 3508,559 3505,558 3503,558 3500,558 3497,557 3495,556 3493,556 3490,555 3488,554 3486,552 3483,551 3481,550 3479,548 3477,547 3475,545 3474,543 3472,542 3470,540 3469,538 3467,536 3466,534 3465,531 3463,529 3462,527 3461,524 3461,522 3460,520 3459,517 3459,514 3459,512 3458,509 3458,507 3458,256 3458,254 3459,251 3459,248 3459,246 3460,243 3461,241 3461,238 3462,236 3463,234 3465,231 3466,229 3467,227 3469,225 3470,223 3472,221 3474,219 3475,218 3477,216 3479,215 3481,213 3483,212 3486,210 3488,209 3490,208 3493,207 3495,206 3497,206 3500,205 3503,205 3505,204 3508,204 3510,204 4001,204 4004,204 4006,204 4009,205 4012,205 4014,206 4017,206 4019,207 4021,208 4024,209 4026,210 4028,212 4030,213 4032,215 4034,216 4036,218 4038,219 4040,221 4041,223 4043,225 4044,227 4046,229 4047,231 4048,234 4049,236 4050,238 4051,241 4052,243 4052,246 4053,248 4053,251 4053,254 4053,256 "/>
  <path class="fil1" d="M2177 1632l0 0 0 -2 0 0 0 -1 0 -35 -19 0 0 36 0 0 0 2 0 0 0 2 0 0 0 1 0 0 0 2 0 1 0 2 0 1 0 0 -1 2 0 0 -1 2 0 0 -1 1 -1 1 0 0 -1 2 -1 1 0 0 -1 2 0 0 -1 1 -1 1 -1 1 -1 1 0 0 -2 1 0 0 -1 1 -2 1 0 0 -1 1 -1 1 0 0 -2 1 -2 1 -2 1 -2 0 -1 0 -2 0 0 0 -1 0 0 0 -2 0 0 0 -2 0 -27 0 0 19 27 0 0 0 2 0 0 0 0 0 0 0 2 0 0 0 2 0 0 0 0 0 0 0 2 0 0 0 2 0 0 0 0 0 2 -1 0 0 0 0 2 -1 0 0 0 0 2 -1 0 0 0 0 2 -1 0 0 2 -1 0 0 0 0 2 -1 0 0 0 0 0 0 2 -1 0 0 0 0 2 -1 0 0 0 0 0 0 2 -1 0 0 2 -1 0 0 0 0 2 -1 0 0 0 0 1 -2 0 0 0 0 1 -2 0 0 0 0 0 0 1 -1 0 0 0 0 1 -2 0 0 0 0 1 -2 0 0 0 0 1 -2 0 0 0 0 1 -2 0 0 1 -2 0 0 1 -2 0 0 0 0 0 0 1 -2 0 0 0 0 1 -2 0 0 0 0 0 -2 0 0 0 0 0 -2 0 0 0 0 0 -2 0 0 0 -2 0 0 0 0zm0 -58l-19 0 0 -95 19 0zm0 95zm0 -114l-19 0 0 -80 0 0 0 -2 0 0 0 -2 0 0 0 -1 0 0 0 -2 0 -1 0 -2 -1 -2 8 -3 10 -4 0 0 0 0 0 0 1 2 0 0 0 0 1 2 0 0 0 0 0 2 0 0 0 0 0 2 0 0 0 0 0 0 0 2 0 0 0 2 0 0 0 0 0 0 0 2 0 0 0 1 0 79zm-16 -118l-13 14 -1 -1 -1 -1 0 0 -2 -1 0 0 -1 -1 -2 -1 0 0 -1 -1 -1 -1 0 0 -2 -1 -2 -1 -2 -1 -2 0 -1 0 -2 0 0 0 -1 0 0 0 -2 0 0 0 -2 0 -61 0 0 -19 62 0 0 0 2 0 0 0 0 0 0 0 2 0 0 0 0 0 2 0 0 0 0 0 0 0 2 0 0 0 0 0 2 0 0 0 0 0 2 1 0 0 0 0 2 1 0 0 0 0 2 1 0 0 0 0 2 1 0 0 2 1 0 0 0 0 2 1 0 0 0 0 2 1 0 0 0 0 2 1 0 0 0 0 0 0 2 1 0 0 2 1 0 0 0 0 1 1zm-118 -15l0 19 -95 0 0 -19zm95 0zm-114 0l0 19 -35 0 0 0 -61 0 0 -19 61 0 0 0 35 0zm-114 0l0 19 -95 0 0 -19zm95 0zm-114 0l0 19 -66 0 0 0 -2 0 0 0 -2 0 0 0 -1 0 0 0 -2 0 -1 0 -2 0 -2 1 -2 1 -2 1 0 0 -1 1 -1 1 0 0 -2 1 -1 1 0 0 -1 1 -12 -15 1 -1 0 0 0 0 0 0 2 -1 0 0 0 0 2 -1 0 0 0 0 2 -1 0 0 0 0 2 -1 0 0 2 -1 0 0 0 0 2 -1 0 0 0 0 2 -1 0 0 0 0 2 -1 0 0 0 0 2 0 0 0 0 0 2 0 0 0 0 0 0 0 2 0 0 0 2 0 0 0 0 0 0 0 2 0 0 0 1 0 65 0zm-114 29l17 9 0 0 0 0 -1 2 -1 2 -1 2 0 2 0 1 0 2 0 0 0 1 0 0 0 2 0 0 0 2 0 0 0 75 -19 0 0 -74 0 -1 0 0 0 -2 0 0 0 0 0 0 0 -2 0 0 0 -2 0 0 0 0 0 0 0 -2 0 0 0 0 0 -2 0 0 0 0 1 -2 0 0 0 0 1 -2 0 0 0 0 1 -2 0 0 0 0 1 -2 0 0 0 0zm-6 118l19 0 0 95 -19 0zm0 -95zm0 114l19 0 0 41 0 0 0 2 0 0 0 2 0 0 0 1 0 0 0 2 0 1 0 2 1 2 1 2 1 2 0 0 1 1 1 1 0 0 1 2 1 1 0 0 1 2 0 0 1 1 1 1 1 1 1 1 0 0 2 1 0 0 1 1 2 1 0 0 1 1 1 1 0 0 2 1 0 0 2 1 0 0 1 0 -6 18 -1 0 0 0 0 0 0 0 -2 -1 0 0 -2 -1 0 0 -2 -1 0 0 0 0 -2 -1 0 0 0 0 0 0 -2 -1 0 0 0 0 -2 -1 0 0 0 0 0 0 -1 -1 0 0 0 0 0 0 -2 -1 0 0 0 0 -2 -1 0 0 0 0 -1 -2 0 0 0 0 -1 -2 0 0 -1 -2 0 0 -1 -2 0 0 0 0 -1 -2 0 0 0 0 -1 -2 0 0 0 0 -1 -2 0 0 0 0 0 0 -1 -2 0 0 0 0 -1 -2 0 0 0 0 -1 -2 0 0 0 0 -1 -2 0 0 0 0 0 -2 0 0 0 0 0 -2 0 0 0 0 0 -2 0 0 0 -2 0 0 0 0 0 0 0 -2 0 0 0 -1 0 -40zm58 94l0 -19 95 0 0 19zm-95 0zm114 0l0 -19 95 0 0 19zm-95 0zm114 0l0 -19 27 0 0 19 0 0 0 0 -27 0zm27 0l0 0 69 0 0 -19 -69 0 0 0m88 19l0 -19 95 0 0 19zm-95 0zm175 -46l0 0 19 4"/>
  <path class="fil1" d="M2876 1632l0 0 0 -2 0 0 0 -1 0 -35 -19 0 0 36 0 0 0 2 0 0 0 2 0 0 0 1 0 0 0 2 0 1 0 2 0 1 0 0 -1 2 0 0 -1 2 0 0 -1 1 -1 1 0 0 -1 2 -1 1 0 0 -1 2 0 0 -1 1 -1 1 -1 1 -1 1 0 0 -2 1 0 0 -1 1 -2 1 0 0 -1 1 -1 1 0 0 -2 1 -2 1 -2 1 -2 0 -1 0 -2 0 0 0 -1 0 0 0 -2 0 0 0 -2 0 -27 0 0 19 27 0 0 0 2 0 0 0 0 0 0 0 2 0 0 0 2 0 0 0 0 0 0 0 2 0 0 0 2 0 0 0 0 0 2 -1 0 0 0 0 2 -1 0 0 0 0 2 -1 0 0 0 0 2 -1 0 0 2 -1 0 0 0 0 2 -1 0 0 0 0 0 0 2 -1 0 0 0 0 2 -1 0 0 0 0 0 0 2 -1 0 0 2 -1 0 0 0 0 2 -1 0 0 0 0 1 -2 0 0 0 0 1 -2 0 0 0 0 0 0 1 -1 0 0 0 0 1 -2 0 0 0 0 1 -2 0 0 0 0 1 -2 0 0 0 0 1 -2 0 0 1 -2 0 0 1 -2 0 0 0 0 0 0 1 -2 0 0 0 0 1 -2 0 0 0 0 0 -2 0 0 0 0 0 -2 0 0 0 0 0 -2 0 0 0 -2 0 0 0 0zm0 -58l-19 0 0 -95 19 0zm0 95zm0 -114l-19 0 0 -80 0 0 0 -2 0 0 0 -2 0 0 0 -1 0 0 0 -2 0 -1 0 -2 -1 -2 8 -3 10 -4 0 0 0 0 0 0 1 2 0 0 0 0 1 2 0 0 0 0 0 2 0 0 0 0 0 2 0 0 0 0 0 0 0 2 0 0 0 2 0 0 0 0 0 0 0 2 0 0 0 1 0 79zm-16 -118l-13 14 -1 -1 -1 -1 0 0 -2 -1 0 0 -1 -1 -2 -1 0 0 -1 -1 -1 -1 0 0 -2 -1 -2 -1 -2 -1 -2 0 -1 0 -2 0 0 0 -1 0 0 0 -2 0 0 0 -2 0 -61 0 0 -19 62 0 0 0 2 0 0 0 0 0 0 0 2 0 0 0 0 0 2 0 0 0 0 0 0 0 2 0 0 0 0 0 2 0 0 0 0 0 2 1 0 0 0 0 2 1 0 0 0 0 2 1 0 0 0 0 2 1 0 0 2 1 0 0 0 0 2 1 0 0 0 0 2 1 0 0 0 0 2 1 0 0 0 0 0 0 2 1 0 0 2 1 0 0 0 0 1 1zm-118 -15l0 19 -95 0 0 -19zm95 0zm-114 0l0 19 -35 0 0 0 -61 0 0 -19 61 0 0 0 35 0zm-114 0l0 19 -95 0 0 -19zm95 0zm-114 0l0 19 -66 0 0 0 -2 0 0 0 -2 0 0 0 -1 0 0 0 -2 0 -1 0 -2 0 -2 1 -2 1 -2 1 0 0 -1 1 -1 1 0 0 -2 1 -1 1 0 0 -1 1 -12 -15 1 -1 0 0 0 0 0 0 2 -1 0 0 0 0 2 -1 0 0 0 0 2 -1 0 0 0 0 2 -1 0 0 2 -1 0 0 0 0 2 -1 0 0 0 0 2 -1 0 0 0 0 2 -1 0 0 0 0 2 0 0 0 0 0 2 0 0 0 0 0 0 0 2 0 0 0 2 0 0 0 0 0 0 0 2 0 0 0 1 0 65 0zm-114 29l17 9 0 0 0 0 -1 2 -1 2 -1 2 0 2 0 1 0 2 0 0 0 1 0 0 0 2 0 0 0 2 0 0 0 75 -19 0 0 -74 0 -1 0 0 0 -2 0 0 0 0 0 0 0 -2 0 0 0 -2 0 0 0 0 0 0 0 -2 0 0 0 0 0 -2 0 0 0 0 1 -2 0 0 0 0 1 -2 0 0 0 0 1 -2 0 0 0 0 1 -2 0 0 0 0zm-6 118l19 0 0 95 -19 0zm0 -95zm0 114l19 0 0 41 0 0 0 2 0 0 0 2 0 0 0 1 0 0 0 2 0 1 0 2 1 2 1 2 1 2 0 0 1 1 1 1 0 0 1 2 1 1 0 0 1 2 0 0 1 1 1 1 1 1 1 1 0 0 2 1 0 0 1 1 2 1 0 0 1 1 1 1 0 0 2 1 0 0 2 1 0 0 1 0 -6 18 -1 0 0 0 0 0 0 0 -2 -1 0 0 -2 -1 0 0 -2 -1 0 0 0 0 -2 -1 0 0 0 0 0 0 -2 -1 0 0 0 0 -2 -1 0 0 0 0 0 0 -1 -1 0 0 0 0 0 0 -2 -1 0 0 0 0 -2 -1 0 0 0 0 -1 -2 0 0 0 0 -1 -2 0 0 -1 -2 0 0 -1 -2 0 0 0 0 -1 -2 0 0 0 0 -1 -2 0 0 0 0 -1 -2 0 0 0 0 0 0 -1 -2 0 0 0 0 -1 -2 0 0 0 0 -1 -2 0 0 0 0 -1 -2 0 0 0 0 0 -2 0 0 0 0 0 -2 0 0 0 0 0 -2 0 0 0 -2 0 0 0 0 0 0 0 -2 0 0 0 -1 0 -40zm58 94l0 -19 95 0 0 19zm-95 0zm114 0l0 -19 95 0 0 19zm-95 0zm114 0l0 -19 27 0 0 19 0 0 0 0 -27 0zm27 0l0 0 69 0 0 -19 -69 0 0 0m88 19l0 -19 95 0 0 19zm-95 0zm175 -46l0 0 19 4"/>
  <polygon class="fil6" points="1895,1241 2124,1241 2126,1241 2128,1241 2129,1241 2131,1241 2133,1240 2134,1240 2136,1239 2137,1239 2139,1238 2140,1237 2142,1237 2143,1236 2144,1235 2146,1234 2147,1233 2148,1232 2149,1230 2150,1229 2151,1228 2152,1227 2153,1225 2154,1224 2155,1222 2155,1221 2156,1219 2156,1218 2157,1216 2157,1215 2158,1213 2158,1211 2158,1210 2158,1208 2158,958 2158,956 2158,954 2158,953 2157,951 2157,949 2156,948 2156,946 2155,945 2155,943 2154,942 2153,940 2152,939 2151,938 2150,936 2149,935 2148,934 2147,933 2146,932 2144,931 2143,930 2142,929 2140,928 2139,927 2137,927 2136,926 2134,926 2133,925 2131,925 2129,924 2128,924 2126,924 2124,924 1895,924 1634,924 1632,924 1630,924 1629,924 1627,925 1625,925 1624,926 1622,926 1621,927 1619,927 1618,928 1616,929 1615,930 1614,931 1612,932 1611,933 1610,934 1609,935 1608,936 1607,938 1606,939 1605,940 1604,942 1603,943 1603,945 1602,946 1602,948 1601,949 1601,951 1601,953 1600,954 1600,956 1600,958 1600,1208 1600,1210 1600,1211 1601,1213 1601,1215 1601,1216 1602,1218 1602,1219 1603,1221 1603,1222 1604,1224 1605,1225 1606,1227 1607,1228 1608,1229 1609,1230 1610,1232 1611,1233 1612,1234 1614,1235 1615,1236 1616,1237 1618,1237 1619,1238 1621,1239 1622,1239 1624,1240 1625,1240 1627,1241 1629,1241 1630,1241 1632,1241 1634,1241 "/>
  <path class="fil1" d="M1674 1179l70 -193 24 0 70 193 -31 0 -15 -44 -73 0 -15 44 -31 0zm55 -69l56 0c-4,-12 -7,-21 -10,-28 -2,-7 -4,-13 -6,-18 -2,-5 -3,-10 -5,-16 -2,-5 -4,-13 -7,-22 -3,10 -6,17 -7,23 -2,6 -4,11 -5,16 -2,5 -4,11 -6,18 -2,7 -5,15 -9,27zm188 69l0 -164 -27 20 0 -29 27 -20 28 0 0 193 -28 0zm106 -87l0 -24 9 0c9,0 16,-3 22,-8 5,-5 8,-12 8,-20 0,-8 -3,-14 -8,-20 -6,-5 -12,-8 -20,-8 -6,0 -11,2 -17,6 -5,4 -9,10 -10,17l-28 0c1,-14 7,-25 17,-36 10,-10 22,-15 36,-15 17,0 31,6 41,17 10,11 16,24 16,38 0,7 -1,15 -4,22 -3,7 -8,13 -16,18 8,5 14,12 17,19 4,8 5,15 5,23 0,18 -6,32 -17,43 -11,11 -25,16 -42,16 -13,0 -25,-4 -35,-13 -10,-8 -17,-21 -20,-37l28 0c3,7 6,12 10,16 4,4 10,6 18,6 8,0 14,-3 20,-8 6,-5 9,-13 9,-22 0,-10 -3,-17 -9,-23 -6,-5 -13,-8 -21,-8l-12 0z"/>
  <path class="fil1" d="M142 1017l0 72 55 0c13,0 24,-4 30,-11 7,-7 10,-16 10,-26 0,-12 -4,-21 -12,-27 -7,-5 -16,-7 -26,-7l-57 0zm-36 206l0 -238 93 0c20,0 36,5 48,16 7,6 12,13 17,22 5,9 7,18 7,29 0,15 -4,29 -12,41 -8,12 -20,20 -34,25l55 106 -43 0 -49 -102 -46 0 0 102 -36 0zm204 0l0 -238 152 0 0 34 -116 0 0 68 99 0 0 32 -99 0 0 70 116 0 0 34 -152 0zm172 0l0 -30 108 -176 -104 0 0 -32 148 0 0 27 -109 177 109 0 0 34 -152 0zm188 0l0 -238 152 0 0 34 -116 0 0 68 99 0 0 32 -99 0 0 70 116 0 0 34 -152 0zm186 0l0 -238 36 0 0 123 1 0 98 -123 43 0 -76 94 84 144 -43 0 -65 -116 -42 44 0 73 -36 0zm211 0l0 -238 34 0 108 169 1 0 0 -169 36 0 0 238 -34 0 -108 -169 -1 0 0 169 -36 0zm229 0l0 -238 152 0 0 34 -116 0 0 68 99 0 0 32 -99 0 0 70 116 0 0 34 -152 0z"/>
  <polygon class="fil2" points="319,933 455,933 455,962 319,962 "/>
  <polygon class="fil2" points="2972,1208 2971,1210 2971,1213 2971,1216 2970,1218 2970,1221 2969,1223 2968,1226 2967,1228 2966,1230 2965,1233 2964,1235 2963,1237 2961,1239 2960,1241 2958,1243 2956,1245 2954,1246 2953,1248 2951,1250 2949,1251 2946,1252 2944,1254 2942,1255 2940,1256 2937,1257 2935,1258 2932,1258 2930,1259 2927,1259 2925,1260 2922,1260 2919,1260 2332,1260 2330,1260 2327,1260 2324,1259 2322,1259 2319,1258 2317,1258 2314,1257 2312,1256 2310,1255 2307,1254 2305,1252 2303,1251 2301,1250 2299,1248 2297,1246 2295,1245 2294,1243 2292,1241 2290,1239 2289,1237 2288,1235 2286,1233 2285,1230 2284,1228 2283,1226 2282,1223 2282,1221 2281,1218 2281,1216 2280,1213 2280,1210 2280,1208 2280,958 2280,955 2280,952 2281,950 2281,947 2282,945 2282,942 2283,940 2284,937 2285,935 2286,933 2288,931 2289,928 2290,926 2292,924 2294,923 2295,921 2297,919 2299,917 2301,916 2303,914 2305,913 2307,912 2310,911 2312,910 2314,909 2317,908 2319,907 2322,907 2324,906 2327,906 2330,906 2332,905 2919,905 2922,906 2925,906 2927,906 2930,907 2932,907 2935,908 2937,909 2940,910 2942,911 2944,912 2946,913 2949,914 2951,916 2953,917 2954,919 2956,921 2958,923 2960,924 2961,926 2963,928 2964,931 2965,933 2966,935 2967,937 2968,940 2969,942 2970,945 2970,947 2971,950 2971,952 2971,955 2972,958 "/>
  <polygon class="fil7" points="2722,1241 2722,1241 2774,1241 2919,1241 2921,1241 2923,1241 2924,1241 2926,1241 2928,1240 2929,1240 2931,1239 2932,1239 2934,1238 2935,1237 2937,1237 2938,1236 2939,1235 2941,1234 2942,1233 2943,1232 2944,1230 2945,1229 2946,1228 2947,1227 2948,1225 2949,1224 2950,1222 2950,1221 2951,1219 2951,1218 2952,1216 2952,1215 2953,1213 2953,1211 2953,1210 2953,1208 2953,958 2953,956 2953,954 2953,953 2952,951 2952,949 2951,948 2951,946 2950,945 2950,943 2949,942 2948,940 2947,939 2946,938 2945,936 2944,935 2943,934 2942,933 2941,932 2939,931 2938,930 2937,929 2935,928 2934,927 2932,927 2931,926 2929,926 2928,925 2926,925 2924,924 2923,924 2921,924 2919,924 2774,924 2722,924 2722,924 2626,924 2593,924 2570,924 2332,924 2331,924 2329,924 2327,924 2325,925 2324,925 2322,926 2321,926 2319,927 2318,927 2316,928 2315,929 2313,930 2312,931 2311,932 2310,933 2308,934 2307,935 2306,936 2305,938 2304,939 2303,940 2303,942 2302,943 2301,945 2301,946 2300,948 2300,949 2299,951 2299,953 2299,954 2299,956 2299,958 2299,1208 2299,1210 2299,1211 2299,1213 2299,1215 2300,1216 2300,1218 2301,1219 2301,1221 2302,1222 2303,1224 2303,1225 2304,1227 2305,1228 2306,1229 2307,1230 2308,1232 2310,1233 2311,1234 2312,1235 2313,1236 2315,1237 2316,1237 2318,1238 2319,1239 2321,1239 2322,1240 2324,1240 2325,1241 2327,1241 2329,1241 2331,1241 2332,1241 2570,1241 2593,1241 2626,1241 "/>
  <path class="fil1" d="M2361 1179l0 -193 123 0 0 28 -94 0 0 55 80 0 0 26 -80 0 0 57 94 0 0 28 -123 0zm193 0l0 -26 75 -94c3,-4 5,-7 6,-10 1,-3 1,-6 1,-9 0,-7 -2,-13 -7,-19 -5,-6 -11,-9 -19,-9 -7,0 -14,2 -19,7 -5,5 -8,12 -9,20l-28 0c0,-16 5,-29 16,-40 11,-11 23,-16 38,-16 16,0 29,5 40,16 11,11 16,24 16,39 0,13 -4,24 -12,34l-62 78 74 0 0 28 -110 0zm130 -89l52 -103 31 0 -41 82 0 0c4,-2 9,-3 15,-3 12,0 23,4 32,13 9,9 14,22 14,41 0,22 -6,38 -18,47 -12,9 -25,14 -39,14 -14,0 -26,-5 -37,-16 -11,-10 -17,-25 -17,-43 0,-12 2,-22 7,-32zm48 0c-8,0 -14,3 -20,8 -5,5 -8,13 -8,24 0,21 9,32 28,32 6,0 13,-2 19,-7 6,-5 9,-13 9,-25 0,-11 -3,-19 -8,-24 -5,-5 -12,-8 -20,-8zm68 89l0 -26 75 -94c3,-4 5,-7 6,-10 1,-3 1,-6 1,-9 0,-7 -2,-13 -7,-19 -5,-6 -11,-9 -19,-9 -7,0 -14,2 -19,7 -5,5 -8,12 -9,20l-28 0c0,-16 5,-29 16,-40 11,-11 23,-16 38,-16 16,0 29,5 40,16 11,11 16,24 16,39 0,13 -4,24 -12,34l-62 78 74 0 0 28 -110 0z"/>
  <polygon class="fil6" points="1895,1662 2124,1662 2126,1662 2128,1662 2129,1662 2131,1662 2133,1661 2134,1661 2136,1660 2137,1660 2139,1659 2140,1658 2142,1658 2143,1657 2144,1656 2146,1655 2147,1654 2148,1653 2149,1651 2150,1650 2151,1649 2152,1648 2153,1646 2154,1645 2155,1643 2155,1642 2156,1640 2156,1639 2157,1637 2157,1636 2158,1634 2158,1632 2158,1630 2158,1629 2158,1379 2158,1377 2158,1375 2158,1374 2157,1372 2157,1370 2156,1369 2156,1367 2155,1366 2155,1364 2154,1363 2153,1361 2152,1360 2151,1359 2150,1357 2149,1356 2148,1355 2147,1354 2146,1353 2144,1352 2143,1351 2142,1350 2140,1349 2139,1348 2137,1348 2136,1347 2134,1347 2133,1346 2131,1346 2129,1345 2128,1345 2126,1345 2124,1345 1895,1345 1634,1345 1632,1345 1630,1345 1629,1345 1627,1346 1625,1346 1624,1347 1622,1347 1621,1348 1619,1348 1618,1349 1616,1350 1615,1351 1614,1352 1612,1353 1611,1354 1610,1355 1609,1356 1608,1357 1607,1359 1606,1360 1605,1361 1604,1363 1603,1364 1603,1366 1602,1367 1602,1369 1601,1370 1601,1372 1601,1374 1600,1375 1600,1377 1600,1379 1600,1629 1600,1630 1600,1632 1601,1634 1601,1636 1601,1637 1602,1639 1602,1640 1603,1642 1603,1643 1604,1645 1605,1646 1606,1648 1607,1649 1608,1650 1609,1651 1610,1653 1611,1654 1612,1655 1614,1656 1615,1657 1616,1658 1618,1658 1619,1659 1621,1660 1622,1660 1624,1661 1625,1661 1627,1662 1629,1662 1630,1662 1632,1662 1634,1662 "/>
  <path class="fil1" d="M1674 1600l70 -193 24 0 70 193 -31 0 -15 -44 -73 0 -15 44 -31 0zm55 -69l56 0c-4,-12 -7,-21 -10,-28 -2,-7 -4,-13 -6,-18 -2,-5 -3,-10 -5,-16 -2,-5 -4,-13 -7,-22 -3,10 -6,17 -7,23 -2,6 -4,11 -5,16 -2,5 -4,11 -6,18 -2,7 -5,15 -9,27zm188 69l0 -164 -27 20 0 -29 27 -20 28 0 0 193 -28 0zm64 0l0 -26 75 -94c3,-4 5,-7 6,-10 1,-3 1,-6 1,-9 0,-7 -2,-13 -7,-19 -5,-6 -11,-9 -19,-9 -7,0 -14,2 -19,7 -5,5 -8,12 -9,20l-28 0c0,-16 5,-29 16,-40 11,-11 23,-16 38,-16 16,0 29,5 40,16 11,11 16,24 16,39 0,13 -4,24 -12,34l-62 78 74 0 0 28 -110 0z"/>
  <polygon class="fil7" points="2593,1662 2823,1662 2825,1662 2826,1662 2828,1662 2830,1662 2831,1661 2833,1661 2834,1660 2836,1660 2837,1659 2839,1658 2840,1658 2842,1657 2843,1656 2844,1655 2845,1654 2847,1653 2848,1651 2849,1650 2850,1649 2851,1648 2852,1646 2852,1645 2853,1643 2854,1642 2854,1640 2855,1639 2855,1637 2856,1636 2856,1634 2856,1632 2856,1630 2856,1629 2856,1379 2856,1377 2856,1375 2856,1374 2856,1372 2855,1370 2855,1369 2854,1367 2854,1366 2853,1364 2852,1363 2852,1361 2851,1360 2850,1359 2849,1357 2848,1356 2847,1355 2845,1354 2844,1353 2843,1352 2842,1351 2840,1350 2839,1349 2837,1348 2836,1348 2834,1347 2833,1347 2831,1346 2830,1346 2828,1345 2826,1345 2825,1345 2823,1345 2593,1345 2332,1345 2331,1345 2329,1345 2327,1345 2325,1346 2324,1346 2322,1347 2321,1347 2319,1348 2318,1348 2316,1349 2315,1350 2313,1351 2312,1352 2311,1353 2310,1354 2308,1355 2307,1356 2306,1357 2305,1359 2304,1360 2303,1361 2303,1363 2302,1364 2301,1366 2301,1367 2300,1369 2300,1370 2299,1372 2299,1374 2299,1375 2299,1377 2299,1379 2299,1629 2299,1630 2299,1632 2299,1634 2299,1636 2300,1637 2300,1639 2301,1640 2301,1642 2302,1643 2303,1645 2303,1646 2304,1648 2305,1649 2306,1650 2307,1651 2308,1653 2310,1654 2311,1655 2312,1656 2313,1657 2315,1658 2316,1658 2318,1659 2319,1660 2321,1660 2322,1661 2324,1661 2325,1662 2327,1662 2329,1662 2331,1662 2332,1662 "/>
  <path class="fil1" d="M2371 1600l0 -193 123 0 0 28 -94 0 0 55 80 0 0 26 -80 0 0 57 94 0 0 28 -123 0zm193 0l0 -26 75 -94c3,-4 5,-7 6,-10 1,-3 1,-6 1,-9 0,-7 -2,-13 -7,-19 -5,-6 -11,-9 -19,-9 -7,0 -14,2 -19,7 -5,5 -8,12 -9,20l-28 0c0,-16 5,-29 16,-40 11,-11 23,-16 38,-16 16,0 29,5 40,16 11,11 16,24 16,39 0,13 -4,24 -12,34l-62 78 74 0 0 28 -110 0zm130 0l0 -26 75 -94c3,-4 5,-7 6,-10 1,-3 1,-6 1,-9 0,-7 -2,-13 -7,-19 -5,-6 -11,-9 -19,-9 -8,0 -14,2 -19,7 -5,5 -8,12 -9,20l-28 0c0,-16 5,-29 16,-40 11,-11 23,-16 38,-16 16,0 29,5 40,16 11,11 16,24 16,39 0,13 -4,24 -12,34l-62 78 74 0 0 28 -110 0z"/>
  <polygon class="fil6" points="3771,540 4001,540 4003,540 4004,540 4006,540 4008,539 4009,539 4011,539 4013,538 4014,537 4016,537 4017,536 4018,535 4020,534 4021,533 4022,532 4024,531 4025,530 4026,529 4027,528 4028,527 4029,525 4030,524 4031,523 4031,521 4032,520 4033,518 4033,516 4034,515 4034,513 4034,512 4035,510 4035,508 4035,506 4035,257 4035,255 4035,253 4034,251 4034,250 4034,248 4033,246 4033,245 4032,243 4031,242 4031,240 4030,239 4029,238 4028,236 4027,235 4026,234 4025,233 4024,231 4022,230 4021,229 4020,228 4018,228 4017,227 4016,226 4014,225 4013,225 4011,224 4009,224 4008,223 4006,223 4004,223 4003,223 4001,223 3771,223 3511,223 3509,223 3507,223 3505,223 3504,223 3502,224 3500,224 3499,225 3497,225 3496,226 3494,227 3493,228 3492,228 3490,229 3489,230 3488,231 3487,233 3486,234 3485,235 3484,236 3483,238 3482,239 3481,240 3480,242 3479,243 3479,245 3478,246 3478,248 3478,250 3477,251 3477,253 3477,255 3477,257 3477,506 3477,508 3477,510 3477,512 3478,513 3478,515 3478,516 3479,518 3479,520 3480,521 3481,523 3482,524 3483,525 3484,527 3485,528 3486,529 3487,530 3488,531 3489,532 3490,533 3492,534 3493,535 3494,536 3496,537 3497,537 3499,538 3500,539 3502,539 3504,539 3505,540 3507,540 3509,540 3511,540 "/>
  <path class="fil1" d="M3551 478l70 -193 24 0 70 193 -31 0 -15 -44 -73 0 -15 44 -31 0zm55 -69l56 0c-4,-12 -7,-21 -10,-28 -2,-7 -4,-13 -6,-18 -2,-5 -3,-10 -5,-16 -2,-5 -4,-13 -7,-22 -3,10 -6,17 -7,23 -2,6 -4,11 -5,16 -2,5 -4,11 -6,18 -2,7 -5,15 -9,27zm245 -20l52 -103 31 0 -41 82 0 0c4,-2 9,-3 15,-3 12,0 23,4 32,13 9,9 14,22 14,41 0,22 -6,38 -18,47 -12,9 -25,14 -39,14 -14,0 -26,-5 -37,-16 -11,-10 -17,-25 -17,-43 0,-12 2,-22 7,-32zm48 0c-8,0 -14,3 -20,8 -5,5 -8,13 -8,24 0,21 9,32 28,32 6,0 13,-2 19,-7 6,-5 9,-13 9,-25 0,-11 -3,-19 -8,-24 -5,-5 -12,-8 -20,-8z"/>
 </g>
</svg>
