<?xml version="1.0" encoding="UTF-8"?>
<!DOCTYPE svg PUBLIC "-//W3C//DTD SVG 1.1//EN" "http://www.w3.org/Graphics/SVG/1.1/DTD/svg11.dtd">
<!-- Creator: CorelDRAW X6 -->
<svg xmlns="http://www.w3.org/2000/svg" xml:space="preserve" width="93.1142mm" height="68.1041mm" version="1.1" style="shape-rendering:geometricPrecision; text-rendering:geometricPrecision; image-rendering:optimizeQuality; fill-rule:evenodd; clip-rule:evenodd"
viewBox="0 0 50396 36860"
 xmlns:xlink="http://www.w3.org/1999/xlink">
 <defs>
  <style type="text/css">
   <![CDATA[
    .str0 {stroke:#2B2A29;stroke-width:41.2412}
    .fil4 {fill:none}
    .fil0 {fill:#212220}
    .fil1 {fill:#FEFEFE}
    .fil3 {fill:blue}
    .fil6 {fill:red}
    .fil8 {fill:white}
    .fil9 {fill:#212220;fill-rule:nonzero}
    .fil7 {fill:#2B2A29;fill-rule:nonzero}
    .fil5 {fill:#FEFEFE;fill-rule:nonzero}
    .fil2 {fill:#2B2A29;fill-rule:nonzero}
   ]]>
  </style>
 </defs>
 <g id="Layer_x0020_1">
  <metadata id="CorelCorpID_0Corel-Layer"/>
  <path class="fil0 str0" d="M1103 21c-598,0 -1083,485 -1083,1083l0 34653c0,598 485,1083 1083,1083l48189 0c598,0 1083,-485 1083,-1083l0 -34652c0,-598 -485,-1083 -1083,-1083l-48189 0zm0 812c-150,0 -271,121 -271,271l0 34653c0,150 121,271 271,271l48189 0c150,0 271,-121 271,-271l0 -34652c0,-150 -121,-271 -271,-271l-48189 0z"/>
  <g>
   <polygon class="fil1" points="24147,27239 24147,29430 24147,27239 24147,23870 "/>
   <path id="1" class="fil2" d="M24127 29430l0 -2191 40 0 0 2191 -40 0zm40 -2191l0 2191 -40 0 0 -2191 0 0 40 0zm0 -3369l0 3369 -40 0 0 -3369 40 0zm-40 3369l0 -3369 40 0 0 3369 0 0 -40 0z"/>
  </g>
  <g>
   <polygon class="fil1" points="24147,23870 24147,23739 24147,23161 24147,21453 "/>
   <path id="1" class="fil2" d="M24167 23739l0 131 -40 0 0 -131 0 0 40 0zm0 -578l0 578 -40 0 0 -578 0 0 40 0zm0 -1708l0 1708 -40 0 0 -1708 40 0zm-40 2417l0 -2417 40 0 0 2417 -40 0z"/>
  </g>
  <path class="fil0" d="M23227 19455l-1170 500 1846 -3884 1830 3864 -1153 -480 0 4415c11,-11 22,-23 34,-34 1077,-1077 1531,-1390 3817,-1390l-480 -1153 3864 1830 -3884 1846 500 -1170c-1273,0 -2022,155 -2860,993 -657,657 -991,1521 -991,2445l0 0 0 3198 -1354 0 0 -1007 0 -2191c0,-925 -334,-1789 -991,-2445 -838,-838 -1587,-993 -2860,-993l500 1170 -3884 -1846 3864 -1830 -480 1153c2287,0 2740,313 3817,1390 11,11 22,23 34,34l0 -2417 0 -1998zm0 7784l0 2191 0 -2191z"/>
  <path class="fil3" d="M9496 3003l0 0 31404 0 0 0c673,0 1218,546 1218,1218l0 0 0 8663 0 0c0,673 -546,1218 -1218,1218l0 0 -31404 0 0 0 0 0c-673,0 -1218,-545 -1218,-1218l0 -2 0 -8658 0 -2c0,-673 546,-1218 1218,-1218l0 0zm0 271c-523,0 -948,424 -948,948l0 8663c0,523 424,948 948,948l31404 0c523,0 948,-424 948,-948l0 -8663c0,-523 -424,-948 -948,-948l-31404 0z"/>
  <path class="fil4" d="M9496 3274c-523,0 -948,424 -948,948l0 8663c0,523 424,948 948,948l31404 0c523,0 948,-424 948,-948l0 -8663c0,-523 -424,-948 -948,-948l-31404 0z"/>
  <path class="fil3" d="M9496 3680c-299,0 -541,242 -541,541l0 8663c0,299 242,541 541,541l31404 0c299,0 541,-242 541,-541l0 -8663c0,-299 -242,-541 -541,-541l-31404 0z"/>
  <path class="fil5" d="M20109 7893l0 -2352 -744 0 0 -366 1901 0 0 366 -744 0 0 2352 -412 0zm1162 -2l992 -2719 340 0 992 2719 -432 0 -210 -614 -1031 0 -216 614 -434 0zm772 -977l787 0c-57,-168 -103,-299 -135,-395 -33,-95 -62,-180 -86,-253 -24,-73 -49,-148 -74,-223 -25,-76 -58,-179 -99,-308 -43,134 -78,242 -104,322 -26,80 -52,157 -76,232 -24,75 -52,158 -84,250 -31,92 -74,217 -129,375zm1893 979l0 -2718 413 0 0 2330 1326 0 0 388 -1739 0zm2123 0l0 -2718 413 0 0 2330 1326 0 0 388 -1739 0zm2123 0l0 -2718 413 0 0 2718 -413 0zm985 0l0 -2718 390 0 1229 1933 8 0 0 -1933 414 0 0 2718 -390 0 -1229 -1932 -9 0 0 1932 -413 0zm2327 -2l992 -2719 340 0 992 2719 -432 0 -210 -614 -1031 0 -216 614 -434 0zm772 -977l787 0c-57,-168 -103,-299 -135,-395 -33,-95 -62,-180 -86,-253 -24,-73 -49,-148 -74,-223 -25,-76 -58,-179 -99,-308 -43,134 -78,242 -104,322 -26,80 -52,157 -76,232 -24,75 -52,158 -84,250 -31,92 -75,217 -129,375z"/>
  <path class="fil5" d="M20108 11993l0 -2352 -744 0 0 -366 1901 0 0 366 -744 0 0 2352 -412 0zm1162 -2l992 -2719 340 0 992 2719 -432 0 -209 -614 -1031 0 -216 614 -434 0zm772 -977l787 0c-57,-168 -103,-299 -135,-395 -33,-95 -62,-180 -86,-253 -24,-73 -49,-148 -74,-223 -25,-76 -58,-179 -99,-308 -43,134 -78,242 -104,322 -26,80 -52,157 -76,232 -24,75 -52,158 -84,250 -31,92 -75,217 -129,375zm1893 979l0 -2718 413 0 0 2330 1326 0 0 388 -1739 0zm2123 0l0 -2718 413 0 0 2330 1326 0 0 388 -1739 0zm2123 0l0 -2718 413 0 0 2718 -413 0zm985 0l0 -2718 390 0 1229 1933 8 0 0 -1933 414 0 0 2718 -390 0 -1229 -1932 -9 0 0 1932 -413 0zm2612 0l0 -2718 390 0 1229 1933 8 0 0 -1933 414 0 0 2718 -390 0 -1229 -1932 -9 0 0 1932 -413 0z"/>
  <polygon class="fil1 str0" points="17971,10089 17970,10120 17968,10152 17964,10183 17958,10215 17951,10245 17943,10275 17933,10304 17921,10333 17909,10361 17895,10388 17880,10415 17863,10440 17846,10465 17827,10489 17807,10511 17786,10533 17765,10554 17742,10574 17718,10593 17693,10610 17668,10627 17641,10642 17614,10656 17586,10668 17557,10680 17528,10690 17498,10698 17468,10705 17436,10711 17405,10715 17373,10717 17342,10718 11422,10718 11391,10717 11359,10715 11327,10711 11296,10705 11266,10698 11236,10690 11206,10680 11178,10668 11150,10656 11122,10642 11096,10627 11071,10610 11046,10593 11022,10574 10999,10554 10977,10533 10956,10511 10937,10489 10918,10465 10900,10440 10884,10415 10869,10388 10855,10361 10842,10333 10831,10304 10821,10275 10812,10245 10805,10215 10800,10183 10796,10152 10793,10120 10793,10089 10793,7069 10793,7038 10796,7006 10800,6975 10805,6944 10812,6913 10821,6883 10831,6854 10842,6825 10855,6797 10869,6770 10884,6744 10900,6718 10918,6693 10937,6670 10956,6647 10977,6625 10999,6604 11022,6584 11046,6566 11071,6548 11096,6532 11122,6516 11150,6503 11178,6490 11206,6479 11236,6469 11266,6460 11296,6453 11327,6448 11359,6444 11391,6441 11422,6440 17342,6440 17373,6441 17405,6444 17436,6448 17468,6453 17498,6460 17528,6469 17557,6479 17586,6490 17614,6503 17641,6516 17668,6532 17693,6548 17718,6566 17742,6584 17765,6604 17786,6625 17807,6647 17827,6670 17846,6693 17863,6718 17880,6744 17895,6770 17909,6797 17921,6825 17933,6854 17943,6883 17951,6913 17958,6944 17964,6975 17968,7006 17970,7038 17971,7069 "/>
  <polygon class="fil6" points="14569,10494 17339,10494 17362,10493 17382,10492 17403,10489 17423,10485 17442,10481 17461,10475 17480,10469 17499,10462 17517,10454 17534,10445 17551,10435 17568,10424 17583,10413 17599,10401 17614,10388 17628,10375 17641,10361 17654,10346 17666,10330 17677,10315 17688,10298 17698,10281 17707,10264 17715,10246 17722,10227 17728,10208 17734,10189 17738,10170 17742,10150 17745,10129 17746,10109 17747,10086 17747,7072 17746,7050 17745,7029 17742,7009 17738,6989 17734,6969 17728,6950 17722,6931 17715,6913 17707,6895 17698,6877 17688,6860 17677,6844 17666,6828 17654,6812 17641,6798 17628,6784 17614,6770 17599,6757 17583,6745 17568,6734 17551,6723 17534,6714 17517,6705 17499,6697 17480,6689 17461,6683 17442,6677 17423,6673 17403,6669 17382,6667 17362,6665 17339,6665 14569,6665 11424,6665 11402,6665 11381,6667 11361,6669 11341,6673 11321,6677 11302,6683 11283,6689 11265,6697 11247,6705 11230,6714 11213,6723 11196,6734 11180,6745 11165,6757 11150,6770 11136,6784 11122,6798 11110,6812 11098,6828 11086,6844 11076,6860 11066,6877 11057,6895 11049,6913 11042,6931 11035,6950 11030,6969 11025,6989 11022,7009 11019,7029 11018,7050 11017,7072 11017,10086 11018,10109 11019,10129 11022,10150 11025,10170 11030,10189 11035,10208 11042,10227 11049,10246 11057,10264 11066,10281 11076,10298 11086,10315 11098,10330 11110,10346 11122,10361 11136,10375 11150,10388 11165,10401 11180,10413 11196,10424 11213,10435 11230,10445 11247,10454 11265,10462 11283,10469 11302,10475 11321,10481 11341,10485 11361,10489 11381,10492 11402,10493 11425,10494 "/>
  <path class="fil5" d="M12621 9732l849 -2327 291 0 849 2327 -370 0 -179 -525 -883 0 -185 525 -372 0zm661 -836l673 0c-49,-144 -88,-256 -115,-338 -28,-81 -53,-154 -74,-216 -21,-63 -42,-126 -63,-191 -21,-65 -50,-153 -84,-264 -37,115 -67,207 -89,276 -22,69 -44,135 -65,198 -21,64 -45,135 -72,214 -27,78 -64,186 -111,321zm2531 838l0 -1973 -330 241 0 -352 330 -241 333 0 0 2326 -333 0z"/>
  <path class="fil1 str0" d="M37421 9073c1209,0 2190,698 2190,1559 0,861 -981,1559 -2190,1559 -1209,0 -2190,-698 -2190,-1559 0,-861 981,-1559 2190,-1559z"/>
  <path class="fil7" d="M35964 11360l0 -1455 931 0 0 209 -710 0 0 414 605 0 0 197 -605 0 0 427 710 0 0 208 -931 0zm1009 -188l146 -166c55,44 117,79 188,106 71,27 146,40 224,40 90,0 160,-19 212,-56 51,-37 77,-86 77,-147 0,-115 -63,-180 -189,-197 -33,-4 -64,-8 -93,-12 -29,-4 -62,-9 -100,-14 -126,-17 -222,-63 -287,-138 -66,-75 -99,-165 -99,-271 0,-124 41,-226 124,-305 83,-80 200,-120 350,-120 90,0 174,14 254,43 79,29 152,65 219,109l-123 182c-54,-33 -111,-60 -172,-81 -61,-20 -124,-31 -188,-31 -68,0 -125,17 -173,52 -47,35 -71,87 -71,156 0,41 16,80 48,116 32,36 85,60 158,71 19,3 43,7 70,11 27,3 58,8 94,11 136,17 236,66 301,148 65,82 97,172 97,272 0,134 -46,238 -139,311 -93,74 -217,111 -372,111 -219,0 -405,-66 -556,-200zm1548 188l0 -1259 -398 0 0 -196 1017 0 0 196 -398 0 0 1259 -220 0z"/>
  <path class="fil3" d="M33911 25051c0,158 128,287 287,287l13315 0c159,0 287,-128 287,-287l0 -3840c0,-159 -128,-287 -287,-287l-13315 0c-159,0 -287,128 -287,287l0 3840z"/>
  <path class="fil3" d="M34198 20695l0 0 13315 0 0 0c285,0 517,231 517,517l0 0 0 3840 0 0c0,285 -231,517 -517,517l0 0 -13315 0 0 0 0 0c-285,0 -517,-231 -517,-517l0 -1 0 -3838 0 -1c0,-285 231,-517 517,-517zm-402 4356c0,222 180,402 402,402l13315 0c222,0 402,-180 402,-402l0 -3840c0,-222 -180,-402 -402,-402l-13315 0c-222,0 -402,180 -402,402l0 3840z"/>
  <path class="fil5" d="M35098 24241l0 -2174 312 0 624 1418 610 -1418 312 0 0 2174 -330 0 0 -1356 -6 0 -455 1046 -275 0 -455 -1046 -7 0 0 1356 -330 0zm2088 -2l794 -2175 272 0 794 2175 -346 0 -168 -491 -825 0 -173 491 -347 0zm618 -782l630 0c-46,-134 -82,-239 -108,-316 -26,-76 -49,-144 -69,-202 -19,-59 -39,-118 -59,-179 -20,-61 -46,-143 -79,-247 -35,107 -63,194 -84,258 -21,64 -41,126 -61,185 -19,60 -42,126 -67,200 -25,73 -60,174 -103,300zm1514 783l0 -2174 761 0c297,0 519,122 663,366 54,93 87,179 98,260 12,80 18,235 18,462 0,245 -9,408 -25,491 -16,82 -49,160 -98,236 -65,101 -153,187 -266,256 -113,69 -250,104 -411,104l-740 0zm330 -1862l0 1552 395 0c181,0 315,-63 403,-190 36,-55 59,-114 68,-177 10,-63 14,-196 14,-397 0,-195 -5,-330 -16,-404 -10,-75 -37,-142 -81,-202 -91,-121 -220,-182 -388,-182l-395 0zm1522 776c0,-262 7,-430 21,-506 14,-75 39,-145 74,-209 51,-95 134,-184 250,-267 116,-84 259,-125 430,-125 170,0 313,42 429,125 116,84 200,173 253,267 35,64 59,133 73,209 14,75 21,244 21,506 0,262 -7,430 -21,506 -14,76 -38,145 -73,209 -53,96 -137,184 -253,266 -116,83 -259,123 -429,123 -171,0 -315,-41 -430,-123 -116,-82 -199,-171 -250,-266 -36,-64 -61,-133 -74,-209 -14,-75 -21,-244 -21,-506zm330 0c0,224 8,369 23,436 16,66 45,127 88,180 33,44 77,82 134,113 57,32 124,47 202,47 77,0 145,-16 201,-47 57,-31 102,-69 134,-113 43,-53 72,-114 88,-180 15,-67 23,-212 23,-436 0,-223 -8,-368 -23,-434 -16,-67 -45,-128 -88,-184 -33,-42 -77,-78 -134,-111 -57,-32 -124,-47 -201,-47 -77,0 -145,16 -202,47 -57,32 -101,69 -134,111 -43,56 -72,117 -88,184 -15,66 -23,211 -23,434zm1607 1087l0 -2174 312 0 984 1546 6 0 0 -1546 331 0 0 2174 -312 0 -984 -1546 -7 0 0 1546 -330 0zm1861 -2l794 -2175 272 0 794 2175 -346 0 -168 -491 -825 0 -173 491 -347 0zm618 -782l630 0c-46,-134 -82,-239 -108,-316 -26,-76 -49,-144 -69,-202 -19,-59 -39,-118 -59,-179 -20,-61 -46,-143 -79,-247 -35,107 -63,194 -84,258 -21,64 -41,126 -61,185 -19,60 -42,126 -67,200 -25,73 -60,174 -103,300z"/>
  <line class="fil8" x1="34198" y1="20695" x2="34198" y2= "20695" />
  <path class="fil9" d="M5962 23813l288 258c-85,97 -185,177 -301,239 -117,63 -248,94 -395,94 -224,0 -427,-76 -607,-229 -181,-152 -271,-406 -271,-760 0,-354 90,-608 271,-762 181,-154 383,-231 607,-231 146,0 278,32 395,95 116,64 216,144 301,241l-288 255c-109,-134 -240,-201 -393,-201 -336,0 -504,201 -504,602 0,400 168,601 504,601 155,0 286,-68 393,-204zm2058 -252l-1205 0c0,159 43,278 130,358 87,80 197,120 331,120 160,0 302,-62 425,-187l281 241c-96,112 -204,192 -323,239 -120,48 -245,72 -376,72 -199,0 -392,-64 -579,-193 -187,-129 -279,-392 -279,-790 0,-377 86,-637 258,-781 172,-145 352,-216 540,-216 213,0 399,73 558,221 159,147 239,346 239,596l0 321zm-1205 -321l817 0c-6,-146 -47,-257 -123,-334 -76,-78 -171,-116 -285,-116 -116,0 -212,38 -288,116 -76,77 -117,188 -120,334zm1615 1142l0 -1936 390 0 0 207 7 0c121,-153 289,-229 504,-229 151,0 296,57 435,171 140,115 210,281 210,500l0 1287 -390 0 0 -1153c0,-131 -36,-232 -109,-306 -73,-73 -163,-110 -271,-110 -112,0 -204,37 -277,110 -73,73 -109,175 -109,306l0 1153 -390 0zm2073 -1936l0 -588 390 0 0 588 283 0 0 299 -283 0 0 1126c0,97 46,146 138,146l145 0 0 365 -203 0c-136,0 -248,-41 -337,-123 -89,-82 -133,-200 -133,-353l0 -1162 -194 0 0 -299 194 0zm1038 1936l0 -1936 390 0 0 207 7 0c121,-153 289,-229 504,-229 142,0 277,50 405,149l-281 336c-85,-63 -171,-95 -258,-95 -96,0 -182,32 -260,96 -78,64 -117,167 -117,309l0 1164 -390 0zm1270 -323l273 -269c169,166 372,248 610,248 111,0 202,-21 274,-62 72,-42 108,-104 108,-186 0,-113 -79,-176 -237,-190l-343 -31c-160,-13 -294,-66 -399,-159 -106,-94 -159,-223 -159,-390 0,-196 69,-345 207,-446 138,-101 309,-151 514,-151 169,0 315,24 435,72 121,48 229,111 325,191l-241 283c-77,-52 -157,-95 -239,-129 -82,-34 -175,-50 -280,-50 -124,0 -211,22 -259,66 -48,44 -73,100 -73,167 0,43 18,82 54,118 36,36 103,57 201,65l321 22c201,14 344,76 431,186 87,110 131,241 131,395 0,190 -78,337 -233,440 -155,103 -345,155 -569,155 -322,0 -606,-115 -853,-345z"/>
  <path class="fil9" d="M20367 33227l0 -343 134 0c130,0 232,-36 307,-109 76,-73 113,-165 113,-277 0,-111 -40,-204 -118,-280 -78,-76 -171,-113 -279,-113 -82,0 -160,27 -234,82 -73,55 -120,137 -141,246l-390 0c15,-192 96,-359 241,-502 146,-144 316,-216 509,-216 243,0 437,80 583,240 146,160 219,338 219,536 0,104 -20,206 -62,305 -41,99 -117,185 -229,257 115,73 197,164 246,271 50,107 74,215 74,324 0,254 -80,456 -239,607 -159,150 -355,225 -586,225 -184,0 -350,-59 -497,-178 -147,-118 -239,-292 -275,-520l390 0c36,94 85,169 146,225 61,57 147,85 259,85 108,0 204,-38 287,-115 83,-77 125,-182 125,-316 0,-136 -41,-241 -124,-318 -83,-76 -181,-115 -296,-115l-164 0zm2460 448l0 -1154c0,-130 -35,-232 -106,-306 -70,-73 -162,-110 -277,-110 -115,0 -208,36 -278,110 -70,74 -104,176 -104,306l0 1154c0,132 34,234 104,307 69,73 162,109 278,109 115,0 207,-36 277,-109 71,-73 106,-175 106,-307zm-1155 23l0 -1200c0,-250 79,-443 236,-579 157,-136 336,-204 537,-204 201,0 379,68 537,204 157,136 236,329 236,579l0 1200c0,250 -78,443 -236,578 -157,136 -336,203 -537,203 -201,0 -380,-67 -537,-203 -157,-136 -236,-329 -236,-578zm2989 -23l0 -1154c0,-130 -35,-232 -106,-306 -70,-73 -162,-110 -277,-110 -115,0 -208,36 -278,110 -70,74 -104,176 -104,306l0 1154c0,132 34,234 104,307 69,73 162,109 278,109 115,0 207,-36 277,-109 71,-73 106,-175 106,-307zm-1155 23l0 -1200c0,-250 79,-443 236,-579 157,-136 336,-204 537,-204 201,0 380,68 537,204 157,136 236,329 236,579l0 1200c0,250 -78,443 -236,578 -157,136 -336,203 -537,203 -201,0 -380,-67 -537,-203 -157,-136 -236,-329 -236,-578zm2880 759l0 -1936 390 0 0 207 8 0c123,-153 291,-229 504,-229 135,0 243,24 322,73 80,48 155,108 224,179 153,-167 357,-252 612,-252 150,0 295,57 436,171 140,115 210,281 210,500l0 1287 -390 0 0 -1153c0,-131 -36,-232 -110,-306 -73,-73 -164,-110 -272,-110 -112,0 -204,37 -277,110 -73,73 -110,175 -110,306l0 1153 -388 0 0 -1153c0,-131 -37,-232 -110,-306 -73,-73 -164,-110 -273,-110 -111,0 -204,37 -277,110 -73,73 -109,175 -109,306l0 1153 -390 0z"/>
 </g>
</svg>
