<?xml version="1.0" encoding="UTF-8"?>
<!DOCTYPE svg PUBLIC "-//W3C//DTD SVG 1.1//EN" "http://www.w3.org/Graphics/SVG/1.1/DTD/svg11.dtd">
<!-- Creator: CorelDRAW X6 -->
<svg xmlns="http://www.w3.org/2000/svg" xml:space="preserve" width="93.1141mm" height="68.1038mm" version="1.1" style="shape-rendering:geometricPrecision; text-rendering:geometricPrecision; image-rendering:optimizeQuality; fill-rule:evenodd; clip-rule:evenodd"
viewBox="0 0 14530 10627"
 xmlns:xlink="http://www.w3.org/1999/xlink">
 <defs>
  <style type="text/css">
   <![CDATA[
    .str0 {stroke:#2B2A29;stroke-width:11.8903}
    .fil6 {fill:none}
    .fil0 {fill:#212220}
    .fil3 {fill:#FEFEFE}
    .fil1 {fill:blue}
    .fil5 {fill:#212220;fill-rule:nonzero}
    .fil4 {fill:#2B2A29;fill-rule:nonzero}
    .fil2 {fill:#FEFEFE;fill-rule:nonzero}
   ]]>
  </style>
 </defs>
 <g id="Layer_x0020_1">
  <metadata id="CorelCorpID_0Corel-Layer"/>
  <path class="fil0 str0" d="M318 6c-172,0 -312,140 -312,312l0 9991c0,172 140,312 312,312l13893 0c172,0 312,-140 312,-312l0 -9991c0,-172 -140,-312 -312,-312l-13893 0zm0 234c-43,0 -78,35 -78,78l0 9991c0,43 35,78 78,78l13893 0c43,0 78,-35 78,-78l0 -9991c0,-43 -35,-78 -78,-78l-13893 0z"/>
  <path class="fil1 str0" d="M13353 3713l0 0c194,0 351,157 351,351l0 0 0 2498 0 0c0,194 -157,351 -351,351l0 0 -12176 0 0 0 0 0c-194,0 -351,-157 -351,-351l0 -1 0 -2496 0 -1c0,-194 157,-351 351,-351l0 0 0 0 12176 0zm0 117l-12176 0c-129,0 -234,105 -234,234l0 2498c0,129 105,234 234,234l12176 0c129,0 234,-105 234,-234l0 -2498c0,-129 -105,-234 -234,-234z"/>
  <path class="fil1" d="M13353 3987l-12176 0c-43,0 -78,35 -78,78l0 2498c0,43 35,78 78,78l12176 0c43,0 78,-35 78,-78l0 -2498c0,-43 -35,-78 -78,-78z"/>
  <path class="fil2" d="M6883 5314c0,-140 4,-231 11,-271 7,-40 21,-78 40,-112 27,-51 72,-99 134,-143 62,-45 139,-67 231,-67 91,0 168,22 230,67 62,45 107,93 136,143 19,34 32,72 39,112 8,40 11,131 11,271 0,140 -4,231 -11,271 -7,41 -20,78 -39,112 -28,51 -73,99 -136,143 -62,44 -139,66 -230,66 -92,0 -169,-22 -231,-66 -62,-44 -107,-91 -134,-143 -19,-34 -33,-71 -40,-112 -8,-40 -11,-131 -11,-271zm177 0c0,120 4,198 12,234 8,35 24,68 47,97 17,23 41,44 72,60 31,17 67,25 108,25 42,0 78,-8 108,-25 31,-17 55,-37 72,-60 23,-29 39,-61 47,-97 8,-36 12,-114 12,-234 0,-119 -4,-197 -12,-233 -8,-36 -24,-69 -47,-99 -17,-22 -42,-42 -72,-59 -30,-17 -66,-25 -108,-25 -41,0 -78,8 -108,25 -30,17 -54,37 -72,59 -23,30 -39,63 -47,99 -8,35 -12,113 -12,233zm1240 108l0 -167 414 0 0 238c0,116 -40,214 -121,294 -81,80 -179,120 -295,120 -92,0 -169,-22 -231,-66 -62,-44 -107,-91 -134,-143 -19,-34 -33,-71 -40,-112 -8,-40 -11,-131 -11,-271 0,-140 4,-231 11,-271 7,-40 21,-78 40,-112 27,-51 72,-99 134,-143 62,-45 139,-67 231,-67 110,0 202,34 274,102 72,68 118,149 136,244l-186 0c-14,-45 -41,-84 -80,-118 -39,-34 -87,-50 -143,-50 -41,0 -78,8 -108,25 -30,17 -54,37 -72,59 -23,30 -39,63 -47,99 -8,35 -12,113 -12,233 0,120 4,198 12,234 8,35 24,68 47,97 17,23 41,44 72,60 31,17 67,25 108,25 67,0 124,-23 170,-69 46,-46 69,-106 69,-179l0 -60 -238 0zm798 -534l0 354 267 0c66,0 116,-19 149,-55 33,-37 50,-80 50,-129 0,-59 -20,-103 -59,-133 -33,-24 -76,-36 -129,-36l-277 0zm-177 1009l0 -1166 456 0c100,0 179,26 237,77 32,28 60,64 83,106 23,43 34,90 34,143 0,75 -20,142 -60,200 -40,58 -96,99 -166,123l270 518 -209 0 -241 -498 -226 0 0 498 -177 0zm999 0l0 -1166 746 0 0 167 -569 0 0 332 485 0 0 158 -485 0 0 342 569 0 0 166 -746 0zm1711 0l0 -989 -165 121 0 -177 165 -121 167 0 0 1166 -167 0zm1151 -626l-313 626 -186 0 245 -493 -3 0c-26,10 -56,15 -88,15 -74,0 -139,-26 -195,-77 -56,-51 -84,-134 -84,-248 0,-133 35,-229 107,-287 71,-58 150,-87 237,-87 81,0 155,32 223,96 68,64 102,151 102,260 0,71 -15,136 -45,194zm-290 0c46,0 85,-16 118,-46 33,-31 49,-79 49,-145 0,-128 -56,-192 -167,-192 -38,0 -76,14 -112,44 -37,29 -55,79 -55,148 0,66 16,114 49,145 33,31 72,46 118,46z"/>
  <polygon class="fil3" points="5766,5818 5766,5828 5765,5839 5764,5849 5762,5860 5759,5870 5756,5880 5753,5890 5749,5899 5745,5909 5741,5918 5735,5927 5730,5935 5724,5943 5718,5951 5711,5959 5704,5966 5697,5973 5689,5980 5681,5986 5673,5992 5665,5997 5656,6002 5647,6007 5637,6011 5628,6015 5618,6018 5608,6021 5598,6024 5587,6026 5577,6027 5566,6028 5556,6028 3578,6028 3568,6028 3557,6027 3547,6026 3536,6024 3526,6021 3516,6018 3506,6015 3497,6011 3487,6007 3478,6002 3469,5997 3461,5992 3453,5986 3445,5980 3437,5973 3430,5966 3423,5959 3416,5951 3410,5943 3404,5935 3399,5927 3393,5918 3389,5909 3385,5899 3381,5890 3378,5880 3375,5870 3372,5860 3370,5849 3369,5839 3368,5828 3368,5818 3368,4809 3368,4799 3369,4788 3370,4778 3372,4767 3375,4757 3378,4747 3381,4737 3385,4728 3389,4718 3393,4709 3399,4700 3404,4692 3410,4684 3416,4676 3423,4668 3430,4661 3437,4654 3445,4647 3453,4641 3461,4635 3469,4630 3478,4624 3487,4620 3497,4616 3506,4612 3516,4608 3526,4606 3536,4603 3547,4601 3557,4600 3568,4599 3578,4599 5556,4599 5566,4599 5577,4600 5587,4601 5598,4603 5608,4606 5618,4608 5628,4612 5637,4616 5647,4620 5656,4624 5665,4630 5673,4635 5681,4641 5689,4647 5697,4654 5704,4661 5711,4668 5718,4676 5724,4684 5730,4692 5735,4700 5741,4709 5745,4718 5749,4728 5753,4737 5756,4747 5759,4757 5762,4767 5764,4778 5765,4788 5766,4799 5766,4809 "/>
  <polygon class="fil1" points="4630,5953 5555,5953 5562,5953 5569,5952 5576,5951 5583,5950 5589,5949 5596,5947 5602,5945 5608,5942 5614,5940 5620,5937 5626,5933 5631,5930 5636,5926 5642,5922 5647,5918 5651,5913 5656,5909 5660,5904 5664,5898 5668,5893 5671,5888 5675,5882 5678,5876 5680,5870 5683,5864 5685,5858 5687,5851 5688,5845 5689,5838 5690,5831 5691,5824 5691,5817 5691,4810 5691,4803 5690,4796 5689,4789 5688,4782 5687,4776 5685,4769 5683,4763 5680,4757 5678,4751 5675,4745 5671,4739 5668,4734 5664,4728 5660,4723 5656,4718 5651,4714 5647,4709 5642,4705 5636,4701 5631,4697 5626,4694 5620,4690 5614,4687 5608,4685 5602,4682 5596,4680 5589,4678 5583,4677 5576,4676 5569,4675 5562,4674 5555,4674 4630,4674 3579,4674 3572,4674 3565,4675 3558,4676 3551,4677 3545,4678 3538,4680 3532,4682 3526,4685 3520,4687 3514,4690 3508,4694 3503,4697 3498,4701 3492,4705 3487,4709 3483,4714 3478,4718 3474,4723 3470,4728 3466,4734 3463,4739 3459,4745 3456,4751 3454,4757 3451,4763 3449,4769 3447,4776 3446,4782 3445,4789 3444,4796 3443,4803 3443,4810 3443,5817 3443,5824 3444,5831 3445,5838 3446,5845 3447,5851 3449,5858 3451,5864 3454,5870 3456,5876 3459,5882 3463,5888 3466,5893 3470,5898 3474,5904 3478,5909 3483,5913 3487,5918 3492,5922 3498,5926 3503,5930 3508,5933 3514,5937 3520,5940 3526,5942 3532,5945 3538,5947 3545,5949 3551,5950 3558,5951 3565,5952 3572,5953 3579,5953 "/>
  <path class="fil2" d="M3809 5034l0 251 175 0c44,0 76,-13 98,-39 21,-26 32,-55 32,-86 0,-47 -17,-81 -51,-103 -22,-15 -50,-22 -84,-22l-171 0zm-118 665l0 -777 282 0c30,0 59,3 87,10 28,6 57,21 87,45 23,18 43,43 60,75 16,32 25,69 25,111 0,55 -21,108 -62,158 -42,50 -102,75 -182,75l-179 0 0 303 -118 0zm862 0l0 -104 304 -380c12,-15 19,-29 23,-41 4,-12 5,-25 5,-36 0,-27 -9,-52 -29,-76 -19,-23 -45,-35 -78,-35 -30,0 -56,10 -78,30 -21,20 -33,47 -36,82l-112 0c0,-63 22,-116 65,-159 43,-43 93,-65 152,-65 65,0 119,22 162,65 43,43 65,96 65,158 0,53 -15,98 -46,137l-250 314 296 0 0 111 -443 0zm544 -357l0 -420 414 0 0 112 -309 0 0 175c35,-29 77,-43 124,-43 30,0 57,6 81,17 24,11 44,25 58,40 21,23 37,48 47,75 10,27 15,73 15,137 0,52 -4,91 -11,116 -8,25 -20,49 -37,70 -16,20 -38,39 -67,57 -29,17 -62,26 -101,26 -50,0 -98,-15 -145,-46 -47,-31 -74,-83 -82,-155l111 0c13,60 50,91 111,91 54,0 86,-19 96,-56 9,-37 14,-74 14,-111 0,-43 -7,-79 -22,-107 -15,-28 -45,-43 -91,-43 -43,0 -76,22 -100,65l-105 0z"/>
  <path class="fil2" d="M1479 4955l709 405 -80 -294 238 0c229,66 237,250 239,457l0 119 0 170 0 186 238 0 0 -186 0 -170 -1 0 -1 -259c-7,-306 -188,-515 -468,-547l-241 1 74 -296 -706 415z"/>
  <path class="fil4" d="M5020 2303l123 111c-36,42 -79,76 -129,103 -50,27 -106,40 -169,40 -96,0 -183,-33 -260,-98 -78,-65 -116,-174 -116,-326 0,-152 39,-261 116,-327 78,-66 164,-99 260,-99 63,0 119,14 169,41 50,27 93,62 129,103l-123 109c-47,-57 -103,-86 -169,-86 -144,0 -216,86 -216,258 0,172 72,258 216,258 66,0 123,-29 169,-87zm883 -108l-517 0c0,68 19,119 56,153 37,34 84,51 142,51 69,0 130,-27 182,-80l121 103c-41,48 -87,82 -139,103 -52,20 -105,31 -161,31 -85,0 -168,-28 -248,-83 -80,-55 -120,-168 -120,-339 0,-162 37,-273 111,-335 74,-62 151,-93 232,-93 91,0 171,31 239,95 68,63 102,148 102,256l0 138zm-517 -138l350 0c-2,-63 -20,-110 -53,-143 -32,-33 -73,-50 -122,-50 -50,0 -91,16 -124,50 -33,33 -50,81 -52,143zm693 490l0 -830 167 0 0 89 3 0c52,-66 124,-98 216,-98 65,0 127,25 187,73 60,49 90,121 90,214l0 552 -167 0 0 -495c0,-56 -16,-100 -47,-131 -31,-31 -70,-47 -116,-47 -48,0 -88,16 -119,47 -31,31 -47,75 -47,131l0 495 -167 0zm889 -830l0 -252 167 0 0 252 122 0 0 128 -122 0 0 483c0,42 20,63 59,63l62 0 0 157 -87 0c-58,0 -106,-18 -144,-53 -38,-35 -57,-86 -57,-151l0 -498 -83 0 0 -128 83 0zm445 830l0 -830 167 0 0 89 3 0c52,-66 124,-98 216,-98 61,0 119,21 174,64l-121 144c-36,-27 -73,-41 -111,-41 -41,0 -78,14 -111,41 -33,28 -50,72 -50,132l0 499 -167 0zm545 -138l117 -115c73,71 160,106 262,106 48,0 87,-9 118,-27 31,-18 46,-45 46,-80 0,-49 -34,-76 -102,-82l-147 -13c-69,-5 -126,-28 -171,-68 -45,-40 -68,-96 -68,-167 0,-84 29,-148 89,-191 59,-43 133,-65 221,-65 73,0 135,10 186,31 52,20 98,48 139,82l-103 122c-33,-22 -67,-41 -102,-55 -35,-14 -75,-22 -120,-22 -53,0 -90,10 -111,28 -21,19 -31,43 -31,72 0,18 8,35 23,51 16,15 44,25 86,28l138 10c86,6 147,33 185,80 37,47 56,103 56,169 0,81 -33,144 -100,189 -67,44 -148,66 -244,66 -138,0 -260,-49 -366,-148zm2071 138l0 -989 -165 121 0 -177 165 -121 167 0 0 1166 -167 0z"/>
  <path class="fil4" d="M4546 9218l0 -1166 408 0c159,0 278,66 355,196 29,50 46,96 53,139 7,43 10,126 10,248 0,131 -5,219 -13,263 -9,44 -26,86 -52,127 -35,54 -82,100 -143,137 -60,37 -134,56 -220,56l-397 0zm177 -998l0 832 212 0c97,0 169,-34 216,-102 19,-29 31,-61 36,-95 5,-34 8,-105 8,-213 0,-105 -3,-177 -8,-217 -5,-40 -20,-76 -43,-108 -49,-65 -118,-97 -208,-97l-212 0zm845 998l0 -830 167 0 0 830 -167 0zm0 -998l0 -167 167 0 0 167 -167 0zm1031 646l-517 0c0,68 19,119 56,153 37,34 84,51 142,51 69,0 130,-27 182,-80l121 103c-41,48 -87,82 -139,103 -52,20 -105,31 -161,31 -85,0 -168,-28 -248,-83 -80,-55 -120,-168 -120,-339 0,-162 37,-273 111,-335 74,-62 151,-93 232,-93 91,0 171,31 239,95 68,63 102,148 102,256l0 138zm-517 -138l350 0c-2,-63 -20,-110 -53,-143 -32,-33 -73,-50 -122,-50 -50,0 -91,16 -124,50 -33,33 -50,81 -52,143zm693 490l0 -830 167 0 0 89 3 0c52,-66 124,-98 216,-98 65,0 127,25 187,73 60,49 90,121 90,214l0 552 -167 0 0 -495c0,-56 -16,-100 -47,-131 -31,-31 -70,-47 -116,-47 -48,0 -88,16 -119,47 -31,31 -47,75 -47,131l0 495 -167 0zm1066 0l-304 -830 177 0 194 582 3 0 195 -582 177 0 -305 830 -138 0zm546 0l0 -830 167 0 0 830 -167 0zm0 -998l0 -167 167 0 0 167 -167 0zm884 998l0 -86c-58,64 -130,96 -214,96 -51,0 -95,-10 -132,-30 -37,-20 -67,-46 -90,-77 -23,-29 -39,-64 -47,-104 -8,-40 -12,-112 -12,-214 0,-101 4,-172 12,-211 8,-40 24,-75 47,-105 23,-31 54,-57 90,-77 37,-21 81,-31 132,-31 43,0 81,9 116,27 35,18 68,42 99,71l0 -424 167 0 0 1166 -167 0zm-163 -673c-79,0 -126,27 -142,81 -16,54 -23,113 -23,176 0,65 8,125 23,179 16,54 63,81 142,81 77,0 124,-28 140,-84 16,-56 24,-114 24,-175 0,-59 -8,-117 -24,-173 -16,-56 -62,-84 -140,-84zm522 673l0 -830 167 0 0 830 -167 0zm0 -998l0 -167 167 0 0 167 -167 0z"/>
  <polygon class="fil5" points="2829,1713 2829,2911 2585,2910 2585,1715 2273,1803 2711,969 3142,1804 "/>
  <path class="fil5" d="M4030 8403l-763 454 86 -329 -256 0c-247,74 -255,280 -257,511l0 133 0 191 0 208 -256 0 0 -209 0 -190 1 0 1 -291c7,-343 203,-577 504,-612l260 1 -80 -331 761 465z"/>
  <g id="_942441552">
   <path class="fil0" d="M11705 9097c101,-33 83,-184 -25,-184 -107,0 -131,151 -30,184l-151 0c103,-30 81,-184 -28,-184 -108,0 -131,153 -29,184l-153 0c101,-32 78,-184 -30,-184 -107,0 -131,150 -31,184l-148 0c38,-12 65,-48 65,-89 0,-52 -43,-95 -95,-95 -108,0 -128,161 -15,184l-181 0c65,-14 54,-110 -13,-110 -66,0 -76,96 -12,110l-88 0 0 75 1115 0 0 -75 -152 0z"/>
   <path class="fil0" d="M11586 8824l0 -256 272 0 0 39 -56 0 0 217 -216 0zm46 -220l126 0 0 82 -126 0 0 -82z"/>
   <path class="fil0" d="M10850 8735l47 -98 61 0 0 -69 77 0 0 69 147 0c20,-71 158,-71 180,0l203 0 0 187 -677 0 -37 -89z"/>
   <polygon class="fil0" points="11802,8983 11802,8900 10921,8900 10921,8982 10756,8982 10756,8912 10801,8912 10879,8841 11857,8841 11857,8983 "/>
   <polygon class="fil0" points="10765,8356 11313,8117 11857,8357 11827,8422 11312,8194 10792,8422 "/>
   <polygon class="fil0" points="10932,8422 10917,8393 11314,8218 11705,8394 11694,8422 11312,8257 "/>
  </g>
  <g id="_942442416">
   <polygon class="fil6 str0" points="12035,7778 12042,7778 12048,7779 12055,7780 12061,7781 12068,7782 12074,7784 12080,7786 12086,7789 12092,7791 12097,7794 12103,7797 12108,7801 12113,7804 12118,7808 12123,7813 12127,7817 12132,7821 12136,7826 12140,7831 12144,7836 12147,7842 12150,7847 12153,7853 12156,7859 12158,7865 12160,7871 12162,7877 12163,7883 12165,7890 12165,7896 12166,7903 12166,7909 12166,9379 12166,9386 12165,9393 12165,9399 12163,9406 12162,9412 12160,9418 12158,9424 12156,9430 12153,9436 12150,9442 12147,9447 12144,9452 12140,9457 12136,9462 12132,9467 12127,9472 12123,9476 12118,9480 12113,9484 12108,9488 12103,9491 12097,9494 12092,9497 12086,9500 12080,9502 12074,9504 12068,9506 12061,9508 12055,9509 12048,9510 12042,9510 12035,9510 10565,9510 10558,9510 10552,9510 10545,9509 10539,9508 10533,9506 10526,9504 10520,9502 10514,9500 10508,9497 10503,9494 10497,9491 10492,9488 10487,9484 10482,9480 10477,9476 10473,9472 10468,9467 10464,9462 10460,9457 10457,9452 10453,9447 10450,9441 10447,9436 10444,9430 10442,9424 10440,9418 10438,9412 10437,9405 10436,9399 10435,9392 10434,9386 10434,9379 10434,7909 10434,7903 10435,7896 10436,7890 10437,7883 10438,7877 10440,7870 10442,7864 10444,7858 10447,7853 10450,7847 10453,7841 10456,7836 10460,7831 10464,7826 10468,7821 10472,7817 10477,7812 10482,7808 10487,7804 10492,7801 10497,7797 10503,7794 10508,7791 10514,7789 10520,7786 10526,7784 10532,7782 10539,7781 10545,7780 10552,7779 10558,7778 10565,7778 "/>
   <path class="fil1 str0" d="M12035 7809l6 0 5 0 5 1 5 1 5 1 5 1 5 2 5 2 4 2 4 2 4 2 4 3 4 3 4 3 4 3 4 3 3 4 3 4 3 4 3 4 3 4 2 4 2 4 2 4 2 5 2 5 1 5 1 5 1 5 1 5 0 5 0 6 0 1469 0 6 0 5 -1 5 -1 5 -1 5 -1 5 -2 5 -2 5 -2 4 -2 4 -2 4 -3 4 -3 4 -3 4 -3 4 -3 4 -4 3 -4 3 -4 3 -4 3 -4 3 -4 2 -4 2 -4 2 -5 2 -5 2 -5 1 -5 1 -5 1 -5 1 -5 0 -6 0 -1469 0 -6 0 -5 0 -5 -1 -5 -1 -5 -1 -5 -1 -5 -2 -5 -2 -4 -2 -4 -2 -4 -2 -4 -3 -4 -3 -4 -3 -4 -3 -4 -3 -3 -4 -3 -4 -3 -4 -3 -4 -3 -4 -2 -4 -2 -4 -2 -4 -2 -5 -2 -5 -1 -5 -1 -5 -1 -5 -1 -5 0 -5 0 -6 0 -1469 0 -6 0 -5 1 -5 1 -5 1 -5 1 -5 2 -5 2 -5 2 -4 2 -4 2 -4 3 -4 3 -4 3 -4 3 -4 3 -3 4 -3 4 -3 4 -3 4 -3 4 -3 4 -2 4 -2 4 -2 5 -2 5 -2 5 -1 5 -1 5 -1 5 -1 5 0 6 0 1469 0zm-121 222l0 1227 -1227 0 0 -1227 1227 0z"/>
  </g>
  <path class="fil4" d="M12789 9205l0 -157 456 -570c18,-22 29,-43 34,-62 5,-19 8,-37 8,-54 0,-40 -14,-78 -43,-113 -29,-35 -68,-52 -117,-52 -45,0 -84,15 -117,45 -32,30 -50,71 -54,124l-167 0c1,-94 33,-174 97,-239 64,-65 140,-97 228,-97 97,0 178,33 243,98 65,65 97,144 97,236 0,79 -23,147 -70,205l-375 470 445 0 0 166 -665 0z"/>
 </g>
</svg>
