<?xml version="1.0" encoding="UTF-8"?>
<!DOCTYPE svg PUBLIC "-//W3C//DTD SVG 1.1//EN" "http://www.w3.org/Graphics/SVG/1.1/DTD/svg11.dtd">
<!-- Creator: CorelDRAW X6 -->
<svg xmlns="http://www.w3.org/2000/svg" xml:space="preserve" width="88.9062mm" height="19.3537mm" version="1.1" style="shape-rendering:geometricPrecision; text-rendering:geometricPrecision; image-rendering:optimizeQuality; fill-rule:evenodd; clip-rule:evenodd"
viewBox="0 0 7161 1559"
 xmlns:xlink="http://www.w3.org/1999/xlink">
 <defs>
  <style type="text/css">
   <![CDATA[
    .str0 {stroke:#2B2A29;stroke-width:6.13756}
    .fil2 {fill:#212220}
    .fil0 {fill:#2B2A29}
    .fil1 {fill:#FEFEFE}
    .fil3 {fill:#212220;fill-rule:nonzero}
   ]]>
  </style>
 </defs>
 <g id="Layer_x0020_1">
  <metadata id="CorelCorpID_0Corel-Layer"/>
  <polygon class="fil0" points="7118,1516 7123,1511 7127,1505 7132,1500 7136,1494 7140,1488 7143,1482 7147,1475 7150,1469 7152,1462 7154,1456 7156,1449 7158,1442 7159,1435 7160,1428 7161,1420 7161,1412 7161,147 7161,138 7160,131 7159,123 7158,116 7156,109 7154,102 7152,96 7149,89 7146,83 7143,76 7140,70 7136,64 7132,59 7128,53 7123,48 7118,43 7113,38 7108,33 7102,29 7097,25 7091,21 7085,18 7078,14 7072,12 7065,9 7059,7 7052,5 7045,3 7038,2 7030,1 7023,0 7014,0 147,0 138,0 131,1 124,2 117,3 109,5 103,7 96,9 89,12 83,14 76,18 70,21 64,25 59,29 53,33 48,38 43,43 38,48 33,53 29,59 25,65 21,70 18,77 14,83 11,89 9,96 7,103 5,110 3,117 2,124 1,131 0,139 0,147 0,186 0,1214 0,1253 0,1293 0,1332 0,1372 0,1410 0,1419 1,1427 2,1434 3,1441 4,1448 6,1455 9,1461 11,1468 14,1475 18,1481 21,1487 25,1493 29,1499 34,1505 38,1510 43,1516 48,1521 54,1525 59,1530 65,1534 71,1538 77,1541 83,1545 90,1548 96,1550 103,1553 110,1555 117,1556 124,1557 131,1558 138,1559 146,1559 7013,1559 7022,1559 7029,1558 7036,1557 7043,1556 7050,1554 7057,1552 7064,1550 7070,1547 7077,1545 7083,1541 7089,1538 7095,1534 7101,1530 7107,1525 7112,1521 "/>
  <polygon class="fil1 str0" points="7066,1464 7069,1461 7071,1458 7073,1456 7075,1453 7077,1450 7079,1446 7081,1443 7082,1440 7084,1437 7085,1434 7086,1430 7086,1427 7087,1424 7088,1420 7088,1417 7088,1411 7088,148 7088,142 7087,138 7087,135 7086,131 7086,128 7085,124 7083,121 7082,118 7081,115 7079,111 7077,108 7075,105 7073,103 7071,100 7069,97 7066,95 7064,92 7061,90 7058,88 7056,86 7053,84 7050,82 7046,80 7043,79 7040,78 7037,76 7033,75 7030,75 7026,74 7023,74 7019,73 7013,73 148,73 142,73 138,74 135,74 131,75 128,75 124,76 121,78 118,79 115,80 111,82 108,84 105,86 103,88 100,90 97,92 94,95 92,97 90,100 88,103 85,105 84,108 82,111 80,115 79,118 78,121 76,124 75,128 75,131 74,135 73,138 73,142 73,148 73,186 73,1214 73,1253 73,1293 73,1332 73,1372 73,1409 73,1416 73,1419 74,1423 75,1426 75,1430 76,1433 77,1436 79,1440 80,1443 82,1446 84,1450 86,1453 88,1456 90,1459 93,1462 95,1464 98,1467 101,1469 104,1472 107,1474 110,1476 113,1477 116,1479 119,1481 122,1482 125,1483 128,1484 131,1484 135,1485 138,1485 141,1486 147,1486 7012,1486 7018,1486 7022,1485 7025,1485 7029,1484 7032,1484 7035,1483 7039,1481 7042,1480 7045,1479 7048,1477 7052,1475 7055,1473 7058,1471 7061,1469 7063,1466 "/>
  <polygon class="fil2" points="474,815 990,1073 965,901 1334,901 1334,729 965,729 990,557 "/>
  <path class="fil3" d="M5400 583l0 -52 -195 0 0 52 195 0zm-2251 -78l46 -85 84 0 -92 141 -79 0 -89 -141 85 0 46 85zm3153 458l0 -38 -126 0c-61,0 -91,21 -91,63 0,18 8,33 23,46 15,13 40,20 76,20 43,0 74,-5 91,-15 17,-10 26,-35 26,-76zm0 183l0 -46 -3 0c-21,35 -64,52 -129,52 -58,0 -103,-15 -136,-45 -32,-30 -48,-68 -48,-114 0,-41 14,-77 43,-108 28,-31 71,-46 127,-46l145 0 0 -54c0,-45 -36,-67 -107,-67 -50,0 -83,13 -99,40l-83 -62c37,-51 95,-76 176,-76 64,0 116,13 157,38 40,25 60,70 60,134l0 356 -104 0zm-600 -423c-49,0 -79,18 -88,53 -10,35 -15,71 -15,108 0,38 5,75 15,110 10,35 39,53 88,53 49,0 79,-17 89,-51 10,-34 15,-71 15,-112 0,-40 -5,-77 -15,-110 -10,-34 -39,-51 -89,-51zm-208 423l0 -732 105 0 0 266c19,-18 40,-33 62,-45 22,-11 46,-17 73,-17 32,0 59,6 82,19 23,13 42,29 57,48 14,19 24,41 30,66 5,25 8,69 8,133 0,64 -3,109 -8,134 -5,25 -15,47 -30,66 -15,20 -34,36 -57,49 -23,13 -51,19 -82,19 -54,0 -98,-20 -135,-60l0 54 -105 0zm-244 0l0 -522 105 0 0 522 -105 0zm-328 -423c-50,0 -79,17 -89,51 -10,34 -15,71 -15,110 0,41 5,78 15,112 10,34 40,51 89,51 49,0 78,-18 88,-53 10,-35 15,-72 15,-110 0,-37 -5,-73 -15,-108 -10,-35 -39,-53 -88,-53zm103 423l0 -54c-37,40 -81,60 -135,60 -32,0 -60,-6 -83,-19 -23,-13 -42,-29 -57,-49 -15,-18 -25,-40 -30,-66 -5,-25 -8,-70 -8,-134 0,-64 3,-108 8,-133 5,-25 15,-47 30,-66 15,-19 34,-36 57,-48 23,-13 51,-19 83,-19 27,0 51,6 73,17 22,11 43,26 62,45l0 -266 105 0 0 732 -105 0zm-577 -126l0 -606 105 0 0 598c0,24 13,36 39,36l36 0 0 98 -46 0c-38,0 -70,-9 -96,-28 -25,-19 -38,-51 -38,-98zm-241 -57l0 -38 -126 0c-61,0 -91,21 -91,63 0,18 8,33 23,46 15,13 40,20 76,20 43,0 74,-5 91,-15 17,-10 26,-35 26,-76zm0 183l0 -46 -3 0c-21,35 -64,52 -129,52 -58,0 -103,-15 -136,-45 -32,-30 -48,-68 -48,-114 0,-41 14,-77 43,-108 28,-31 71,-46 127,-46l145 0 0 -54c0,-45 -36,-67 -107,-67 -50,0 -83,13 -99,40l-83 -62c37,-51 95,-76 176,-76 64,0 116,13 157,38 40,25 60,70 60,134l0 356 -104 0zm-614 0l-191 -522 111 0 122 365 2 0 123 -365 111 0 -191 522 -86 0zm-669 -87l73 -72c46,45 100,67 164,67 30,0 55,-6 74,-17 19,-11 29,-28 29,-50 0,-31 -21,-48 -64,-51l-92 -8c-43,-3 -79,-18 -108,-43 -28,-25 -43,-60 -43,-105 0,-53 19,-93 56,-120 37,-27 83,-41 139,-41 46,0 85,6 117,19 33,13 62,30 87,51l-65 76c-21,-14 -42,-26 -64,-35 -22,-9 -47,-14 -75,-14 -33,0 -57,6 -70,18 -13,12 -20,27 -20,45 0,11 5,22 15,32 10,10 28,15 54,17l86 6c54,4 93,20 116,50 24,30 35,65 35,106 0,51 -21,91 -63,119 -42,28 -93,42 -153,42 -87,0 -163,-31 -230,-93zm-183 -96l0 -38 -126 0c-61,0 -91,21 -91,63 0,18 8,33 23,46 15,13 40,20 76,20 43,0 74,-5 91,-15 17,-10 26,-35 26,-76zm0 183l0 -46 -3 0c-21,35 -64,52 -129,52 -58,0 -103,-15 -136,-45 -32,-30 -48,-68 -48,-114 0,-41 14,-77 43,-108 28,-31 71,-46 127,-46l145 0 0 -54c0,-45 -36,-67 -107,-67 -50,0 -83,13 -99,40l-83 -62c37,-51 95,-76 176,-76 64,0 116,13 157,38 40,25 60,70 60,134l0 356 -104 0zm-875 0l0 -732 266 0c28,0 56,3 82,9 26,6 54,20 82,42 22,17 41,41 56,71 15,30 23,65 23,104 0,52 -20,102 -59,149 -39,47 -96,71 -171,71l-169 0 0 286 -111 0zm111 -627l0 236 165 0c41,0 72,-13 92,-37 20,-25 30,-52 30,-81 0,-44 -16,-77 -48,-97 -20,-14 -47,-21 -79,-21l-161 0z"/>
 </g>
</svg>
