<?xml version="1.0" encoding="UTF-8"?>
<!DOCTYPE svg PUBLIC "-//W3C//DTD SVG 1.1//EN" "http://www.w3.org/Graphics/SVG/1.1/DTD/svg11.dtd">
<!-- Creator: CorelDRAW X6 -->
<svg xmlns="http://www.w3.org/2000/svg" xml:space="preserve" width="110.144mm" height="14.1944mm" version="1.1" style="shape-rendering:geometricPrecision; text-rendering:geometricPrecision; image-rendering:optimizeQuality; fill-rule:evenodd; clip-rule:evenodd"
viewBox="0 0 12413 1600"
 xmlns:xlink="http://www.w3.org/1999/xlink">
 <defs>
  <style type="text/css">
   <![CDATA[
    .fil2 {fill:#FEFEFE}
    .fil0 {fill:blue}
    .fil1 {fill:#FEFEFE;fill-rule:nonzero}
   ]]>
  </style>
 </defs>
 <g id="Layer_x0020_1">
  <metadata id="CorelCorpID_0Corel-Layer"/>
  <path class="fil0" d="M0 1431l3 -1271c3,-89 69,-157 159,-160l5768 0 0 0 553 0 0 0 5768 0c101,3 158,80 159,176l3 1255c-3,95 -64,166 -162,169l-12090 0c-98,-2 -159,-74 -162,-169z"/>
  <path class="fil1" d="M3575 1199l0 -804 122 0 0 414 3 0 330 -414 145 0 -258 317 285 487 -144 0 -220 -393 -141 148 0 245 -122 0zm712 0l0 -804 122 0 0 804 -122 0zm291 0l0 -804 115 0 364 572 2 0 0 -572 122 0 0 804 -115 0 -364 -571 -3 0 0 571 -122 0zm772 0l0 -804 281 0c110,0 192,45 245,135 20,34 32,66 36,96 5,30 7,87 7,171 0,91 -3,151 -9,181 -6,30 -18,59 -36,87 -24,37 -57,69 -98,95 -42,26 -92,38 -152,38l-274 0zm122 -688l0 574 146 0c67,0 117,-23 149,-70 13,-20 22,-42 25,-65 4,-23 5,-72 5,-147 0,-72 -2,-122 -6,-150 -4,-28 -14,-53 -30,-75 -34,-45 -81,-67 -143,-67l-146 0zm590 688l0 -804 514 0 0 115 -392 0 0 229 334 0 0 109 -334 0 0 236 392 0 0 115 -514 0zm750 -696l0 244 184 0c46,0 80,-13 103,-38 23,-25 34,-55 34,-89 0,-41 -14,-71 -41,-92 -23,-16 -52,-25 -89,-25l-191 0zm-122 696l0 -804 314 0c69,0 123,18 163,53 22,19 41,44 57,73 16,30 24,62 24,98 0,52 -14,98 -42,138 -28,40 -66,68 -114,85l186 357 -144 0 -166 -343 -156 0 0 343 -122 0zm675 -272l0 -532 122 0 0 518c0,56 16,98 47,127 31,29 70,44 117,44 46,0 85,-15 117,-44 31,-29 47,-72 47,-127l0 -518 122 0 0 532c0,84 -28,151 -83,202 -56,51 -123,76 -202,76 -80,0 -147,-25 -203,-76 -55,-51 -83,-118 -83,-202zm997 272l0 -804 122 0 0 414 3 0 330 -414 145 0 -258 317 285 487 -144 0 -220 -393 -141 148 0 245 -122 0zm627 -1l293 -804 101 0 293 804 -128 0 -62 -182 -305 0 -64 182 -128 0zm228 -289l233 0c-17,-50 -30,-88 -40,-117 -10,-28 -18,-53 -25,-75 -7,-22 -14,-44 -22,-66 -7,-22 -17,-53 -29,-91 -13,40 -23,72 -31,95 -8,24 -15,46 -22,69 -7,22 -15,47 -25,74 -9,27 -22,64 -38,111zm682 -399l0 259 181 0c45,0 79,-14 101,-41 22,-27 33,-57 33,-89 0,-49 -17,-84 -52,-107 -22,-15 -51,-23 -87,-23l-176 0zm-122 688l0 -804 292 0c31,0 61,3 90,10 29,7 59,22 90,46 24,19 45,45 62,78 17,33 25,71 25,114 0,57 -21,112 -64,164 -43,52 -106,78 -188,78l-185 0 0 314 -122 0zm670 0l0 -804 122 0 0 804 -122 0zm967 0l0 -682 -114 83 0 -122 114 -83 115 0 0 804 -115 0z"/>
  <polygon class="fil2" points="721,780 1917,182 1857,581 2715,581 2715,980 1857,980 1917,1378 "/>
 </g>
</svg>
