<?xml version="1.0" encoding="UTF-8"?>
<!DOCTYPE svg PUBLIC "-//W3C//DTD SVG 1.1//EN" "http://www.w3.org/Graphics/SVG/1.1/DTD/svg11.dtd">
<!-- Creator: CorelDRAW X6 -->
<svg xmlns="http://www.w3.org/2000/svg" xml:space="preserve" width="34.6257mm" height="17.3509mm" version="1.1" style="shape-rendering:geometricPrecision; text-rendering:geometricPrecision; image-rendering:optimizeQuality; fill-rule:evenodd; clip-rule:evenodd"
viewBox="0 0 1115 559"
 xmlns:xlink="http://www.w3.org/1999/xlink">
 <defs>
  <style type="text/css">
   <![CDATA[
    .str0 {stroke:#2B2A29;stroke-width:2.45296}
    .fil1 {fill:#999999}
    .fil0 {fill:white}
    .fil2 {fill:white;fill-rule:nonzero}
   ]]>
  </style>
 </defs>
 <g id="Layer_x0020_1">
  <metadata id="CorelCorpID_0Corel-Layer"/>
  <path class="fil0 str0" d="M43 1l0 0 1029 0 0 0c23,0 42,19 42,42l0 0 0 473 0 0c0,23 -19,42 -42,42l0 0 -1029 0 0 0 0 0c-23,0 -42,-19 -42,-42l0 0 0 0 0 -473 0 0 0 0c0,-23 19,-42 42,-42l0 0z"/>
  <path class="fil1" d="M43 20c-13,0 -23,10 -23,23l0 473c0,13 10,23 23,23l1029 0c13,0 23,-10 23,-23l0 -473c0,-13 -10,-23 -23,-23l-1029 0z"/>
  <path class="fil2" d="M390 189l0 -93 33 0c13,0 22,5 28,16 2,4 4,8 4,11 1,3 1,10 1,20 0,10 0,17 -1,21 -1,4 -2,7 -4,10 -3,4 -7,8 -11,11 -5,3 -11,4 -18,4l-32 0zm14 -80l0 66 17 0c8,0 13,-3 17,-8 2,-2 3,-5 3,-8 0,-3 1,-8 1,-17 0,-8 0,-14 -1,-17 0,-3 -2,-6 -3,-9 -4,-5 -9,-8 -17,-8l-17 0zm82 -1l0 28 21 0c5,0 9,-1 12,-4 3,-3 4,-6 4,-10 0,-5 -2,-8 -5,-11 -3,-2 -6,-3 -10,-3l-22 0zm-14 81l0 -93 36 0c8,0 14,2 19,6 3,2 5,5 7,8 2,3 3,7 3,11 0,6 -2,11 -5,16 -3,5 -8,8 -13,10l22 41 -17 0 -19 -40 -18 0 0 40 -14 0zm78 -31l0 -62 14 0 0 60c0,6 2,11 5,15 4,3 8,5 14,5 5,0 10,-2 13,-5 4,-3 5,-8 5,-15l0 -60 14 0 0 62c0,10 -3,18 -10,23 -6,6 -14,9 -23,9 -9,0 -17,-3 -23,-9 -6,-6 -10,-14 -10,-23zm105 31l-31 -93 15 0 21 71 0 0 21 -71 15 0 -31 93 -11 0zm42 0l34 -93 12 0 34 93 -15 0 -7 -21 -35 0 -7 21 -15 0zm26 -33l27 0c-2,-6 -4,-10 -5,-14 -1,-3 -2,-6 -3,-9 -1,-3 -2,-5 -3,-8 -1,-3 -2,-6 -3,-11 -1,5 -3,8 -4,11 -1,3 -2,5 -3,8 -1,3 -2,5 -3,9 -1,3 -3,7 -4,13zm57 22l9 -11c3,3 7,5 12,7 5,2 9,3 14,3 6,0 10,-1 14,-4 3,-2 5,-5 5,-9 0,-7 -4,-12 -12,-13 -2,0 -4,-1 -6,-1 -2,0 -4,-1 -6,-1 -8,-1 -14,-4 -18,-9 -4,-5 -6,-11 -6,-17 0,-8 3,-14 8,-20 5,-5 13,-8 22,-8 6,0 11,1 16,3 5,2 10,4 14,7l-8 12c-3,-2 -7,-4 -11,-5 -4,-1 -8,-2 -12,-2 -4,0 -8,1 -11,3 -3,2 -5,6 -5,10 0,3 1,5 3,7 2,2 5,4 10,5 1,0 3,0 4,1 2,0 4,0 6,1 9,1 15,4 19,9 4,5 6,11 6,17 0,9 -3,15 -9,20 -6,5 -14,7 -24,7 -14,0 -26,-4 -36,-13zm-376 69l0 30 21 0c5,0 9,-2 12,-5 3,-3 4,-7 4,-10 0,-6 -2,-10 -6,-12 -3,-2 -6,-3 -10,-3l-20 0zm-14 80l0 -93 34 0c4,0 7,0 10,1 3,1 7,3 10,5 3,2 5,5 7,9 2,4 3,8 3,13 0,7 -2,13 -7,19 -5,6 -12,9 -22,9l-21 0 0 36 -14 0zm78 0l0 -93 14 0 0 93 -14 0zm34 0l0 -93 14 0 0 80 45 0 0 13 -60 0zm65 -12l9 -11c3,3 7,5 12,7 5,2 9,3 14,3 6,0 10,-1 14,-4 3,-2 5,-5 5,-9 0,-7 -4,-12 -12,-13 -2,0 -4,-1 -6,-1 -2,0 -4,-1 -6,-1 -8,-1 -14,-4 -18,-9 -4,-5 -6,-11 -6,-17 0,-8 3,-14 8,-20 5,-5 13,-8 22,-8 6,0 11,1 16,3 5,2 10,4 14,7l-8 12c-3,-2 -7,-4 -11,-5 -4,-1 -8,-2 -12,-2 -4,0 -8,1 -11,3 -3,2 -5,6 -5,10 0,3 1,5 3,7 2,2 5,4 10,5 1,0 3,0 4,1 2,0 4,0 6,1 9,1 15,4 19,9 4,5 6,11 6,17 0,9 -3,15 -9,20 -6,5 -14,7 -24,7 -14,0 -26,-4 -36,-13zm83 12l0 -93 14 0 0 48 0 0 38 -48 17 0 -30 37 33 56 -17 0 -25 -45 -16 17 0 28 -14 0zm73 0l34 -93 12 0 34 93 -15 0 -7 -21 -35 0 -7 21 -15 0zm26 -33l27 0c-2,-6 -4,-10 -5,-14 -1,-3 -2,-6 -3,-9 -1,-3 -2,-5 -3,-8 -1,-3 -2,-6 -3,-11 -1,5 -3,8 -4,11 -1,3 -2,5 -3,8 -1,3 -2,5 -3,9 -1,3 -3,7 -4,13zm65 34l0 -93 14 0 0 80 45 0 0 13 -60 0zm73 0l0 -93 13 0 42 66 0 0 0 -66 14 0 0 93 -13 0 -42 -66 0 0 0 66 -14 0zm89 0l0 -93 14 0 0 93 -14 0zm-595 126l11 -8c3,4 7,6 12,6 4,0 7,-1 11,-4 4,-2 5,-7 5,-13l0 -63 14 0 0 64c0,9 -3,17 -9,22 -6,5 -13,8 -21,8 -5,0 -10,-1 -14,-3 -4,-2 -7,-5 -10,-9zm63 11l34 -93 12 0 34 93 -15 0 -7 -21 -35 0 -7 21 -15 0zm26 -33l27 0c-2,-6 -4,-10 -5,-14 -1,-3 -2,-6 -3,-9 -1,-3 -2,-5 -3,-8 -1,-3 -2,-6 -3,-11 -1,5 -3,8 -4,11 -1,3 -2,5 -3,8 -1,3 -2,5 -3,9 -1,3 -3,7 -4,13zm63 2l0 -62 14 0 0 60c0,6 2,11 5,15 4,3 8,5 14,5 5,0 10,-2 13,-5 4,-3 5,-8 5,-15l0 -60 14 0 0 62c0,10 -3,18 -10,23 -6,6 -14,9 -23,9 -9,0 -17,-3 -23,-9 -6,-6 -10,-14 -10,-23zm84 31l0 -93 13 0 42 66 0 0 0 -66 14 0 0 93 -13 0 -42 -66 0 0 0 66 -14 0zm84 0l0 -12 42 -69 -41 0 0 -13 58 0 0 11 -42 69 42 0 0 13 -60 0zm73 0l0 -93 60 0 0 13 -45 0 0 26 39 0 0 13 -39 0 0 27 45 0 0 13 -60 0zm73 0l0 -93 13 0 27 61 26 -61 13 0 0 93 -14 0 0 -58 0 0 -19 45 -12 0 -19 -45 0 0 0 58 -14 0zm89 -11l11 -8c3,4 7,6 12,6 4,0 7,-1 11,-4 4,-2 5,-7 5,-13l0 -63 14 0 0 64c0,9 -3,17 -9,22 -6,5 -13,8 -21,8 -5,0 -10,-1 -14,-3 -4,-2 -7,-5 -10,-9zm73 11l0 -93 14 0 0 93 -14 0z"/>
  <polygon class="fil0" points="226,209 87,278 226,348 215,301 319,301 319,255 215,255 "/>
 </g>
</svg>
