<?xml version="1.0" encoding="UTF-8"?>
<!DOCTYPE svg PUBLIC "-//W3C//DTD SVG 1.1//EN" "http://www.w3.org/Graphics/SVG/1.1/DTD/svg11.dtd">
<!-- Creator: CorelDRAW X6 -->
<svg xmlns="http://www.w3.org/2000/svg" xml:space="preserve" width="93.1143mm" height="68.104mm" version="1.1" style="shape-rendering:geometricPrecision; text-rendering:geometricPrecision; image-rendering:optimizeQuality; fill-rule:evenodd; clip-rule:evenodd"
viewBox="0 0 4880 3569"
 xmlns:xlink="http://www.w3.org/1999/xlink">
 <defs>
  <style type="text/css">
   <![CDATA[
    .str0 {stroke:#2B2A29;stroke-width:3.99326}
    .fil0 {fill:#212220}
    .fil1 {fill:#FEFEFE}
    .fil5 {fill:blue}
    .fil2 {fill:red}
    .fil4 {fill:#2B2A29;fill-rule:nonzero}
    .fil3 {fill:#FEFEFE;fill-rule:nonzero}
   ]]>
  </style>
 </defs>
 <g id="Layer_x0020_1">
  <metadata id="CorelCorpID_0Corel-Layer"/>
  <path class="fil0 str0" d="M107 2c-58,0 -105,47 -105,105l0 3355c0,58 47,105 105,105l4666 0c58,0 105,-47 105,-105l0 -3355c0,-58 -47,-105 -105,-105l-4666 0zm0 79c-15,0 -26,12 -26,26l0 3355c0,15 12,26 26,26l4666 0c15,0 26,-12 26,-26l0 -3355c0,-15 -12,-26 -26,-26l-4666 0z"/>
  <polygon class="fil1 str0" points="3033,968 3033,972 3033,977 3032,981 3031,986 3030,990 3029,994 3028,998 3026,1002 3024,1006 3022,1010 3020,1014 3018,1017 3015,1021 3013,1024 3010,1027 3007,1030 3004,1033 3001,1036 2997,1039 2994,1041 2990,1044 2987,1046 2983,1048 2979,1050 2975,1051 2971,1053 2966,1054 2962,1055 2958,1056 2953,1056 2949,1056 2944,1057 2472,1057 1936,1057 1931,1056 1926,1056 1922,1056 1918,1055 1913,1054 1909,1053 1905,1051 1901,1050 1897,1048 1893,1046 1889,1044 1886,1041 1882,1039 1879,1036 1876,1033 1873,1030 1870,1027 1867,1024 1864,1021 1862,1017 1859,1014 1857,1010 1855,1006 1854,1002 1852,998 1851,994 1849,990 1848,986 1848,981 1847,977 1847,972 1847,968 1847,453 1847,449 1847,444 1848,440 1848,435 1849,431 1851,427 1852,423 1854,419 1855,415 1857,411 1859,407 1862,404 1864,400 1867,397 1870,394 1873,390 1876,387 1879,385 1882,382 1886,380 1889,377 1893,375 1897,373 1901,371 1905,370 1909,368 1913,367 1918,366 1922,365 1926,365 1931,364 1936,364 2472,364 2944,364 2949,364 2953,365 2958,365 2962,366 2966,367 2971,368 2975,370 2979,371 2983,373 2987,375 2990,377 2994,380 2997,382 3001,385 3004,387 3007,390 3010,394 3013,397 3015,400 3018,404 3020,407 3022,411 3024,415 3026,419 3028,423 3029,427 3030,431 3031,435 3032,440 3033,444 3033,449 3033,453 "/>
  <polygon class="fil2" points="2472,1037 2944,1037 2948,1037 2951,1036 2955,1036 2958,1035 2961,1035 2965,1034 2968,1033 2971,1031 2974,1030 2977,1028 2980,1027 2983,1025 2986,1023 2988,1021 2991,1019 2993,1017 2995,1014 2998,1012 3000,1009 3002,1006 3003,1003 3005,1001 3007,998 3008,995 3009,991 3010,988 3011,985 3012,982 3013,978 3013,975 3013,971 3013,967 3013,454 3013,450 3013,446 3013,443 3012,439 3011,436 3010,433 3009,430 3008,426 3007,423 3005,420 3003,417 3002,415 3000,412 2998,409 2995,407 2993,404 2991,402 2988,400 2986,398 2983,396 2980,394 2977,392 2974,391 2971,390 2968,388 2965,387 2961,386 2958,386 2955,385 2951,385 2948,384 2944,384 2472,384 1936,384 1932,384 1928,385 1925,385 1922,386 1918,386 1915,387 1912,388 1909,390 1906,391 1903,392 1900,394 1897,396 1894,398 1891,400 1889,402 1887,404 1884,407 1882,409 1880,412 1878,415 1876,417 1875,420 1873,423 1872,426 1870,430 1869,433 1868,436 1868,439 1867,443 1867,446 1866,450 1866,454 1866,967 1866,971 1867,975 1867,978 1868,982 1868,985 1869,988 1870,991 1872,995 1873,998 1875,1001 1876,1003 1878,1006 1880,1009 1882,1012 1884,1014 1887,1017 1889,1019 1891,1021 1894,1023 1897,1025 1900,1027 1903,1028 1906,1030 1909,1031 1912,1033 1915,1034 1918,1035 1922,1035 1925,1036 1928,1036 1932,1037 1936,1037 "/>
  <path class="fil3" d="M2076 908l145 -397 50 0 145 397 -63 0 -31 -90 -150 0 -32 90 -63 0zm113 -143l115 0c-8,-25 -15,-44 -20,-58 -5,-14 -9,-26 -13,-37 -4,-11 -7,-22 -11,-33 -4,-11 -8,-26 -14,-45 -6,20 -11,35 -15,47 -4,12 -8,23 -11,34 -4,11 -8,23 -12,36 -5,13 -11,32 -19,55zm600 -70l-106 213 -63 0 83 -168 -1 0c-9,3 -19,5 -30,5 -25,0 -47,-9 -66,-26 -19,-17 -29,-46 -29,-84 0,-45 12,-78 36,-98 24,-20 51,-30 81,-30 27,0 53,11 76,33 23,22 35,51 35,89 0,24 -5,46 -15,66zm-99 0c16,0 29,-5 40,-16 11,-10 17,-27 17,-49 0,-44 -19,-65 -57,-65 -13,0 -26,5 -38,15 -12,10 -19,27 -19,50 0,22 6,39 17,49 11,10 24,16 40,16z"/>
  <path class="fil4" d="M1634 1608l41 37c-12,14 -27,25 -43,34 -17,9 -36,14 -57,14 -32,0 -61,-11 -87,-33 -26,-22 -39,-58 -39,-109 0,-51 13,-88 39,-110 26,-22 55,-33 87,-33 21,0 40,5 57,14 17,9 31,21 43,35l-41 37c-16,-19 -35,-29 -57,-29 -48,0 -73,29 -73,87 0,58 24,87 73,87 22,0 41,-10 57,-29zm296 -36l-174 0c0,23 6,40 19,52 12,11 28,17 48,17 23,0 44,-9 61,-27l41 35c-14,16 -29,28 -47,34 -17,7 -35,10 -54,10 -29,0 -56,-9 -83,-28 -27,-19 -40,-56 -40,-114 0,-54 12,-92 37,-113 25,-21 51,-31 78,-31 31,0 57,11 80,32 23,21 34,50 34,86l0 46zm-174 -46l118 0c-1,-21 -7,-37 -18,-48 -11,-11 -25,-17 -41,-17 -17,0 -31,6 -42,17 -11,11 -17,27 -17,48zm233 164l0 -279 56 0 0 30 1 0c17,-22 42,-33 73,-33 22,0 43,8 63,25 20,17 30,41 30,72l0 185 -56 0 0 -166c0,-19 -5,-33 -16,-44 -10,-11 -23,-16 -39,-16 -16,0 -29,5 -40,16 -10,11 -16,25 -16,44l0 166 -56 0zm299 -279l0 -85 56 0 0 85 41 0 0 43 -41 0 0 162c0,14 7,21 20,21l21 0 0 53 -29 0c-20,0 -36,-6 -49,-18 -13,-12 -19,-29 -19,-51l0 -167 -28 0 0 -43 28 0zm150 279l0 -279 56 0 0 30 1 0c17,-22 42,-33 73,-33 20,0 40,7 58,21l-41 48c-12,-9 -25,-14 -37,-14 -14,0 -26,5 -37,14 -11,9 -17,24 -17,44l0 168 -56 0zm183 -46l39 -39c24,24 54,36 88,36 16,0 29,-3 40,-9 10,-6 16,-15 16,-27 0,-16 -11,-25 -34,-27l-49 -4c-23,-2 -42,-9 -57,-23 -15,-13 -23,-32 -23,-56 0,-28 10,-50 30,-64 20,-14 45,-22 74,-22 24,0 45,3 63,10 17,7 33,16 47,28l-35 41c-11,-8 -23,-14 -34,-19 -12,-5 -25,-7 -40,-7 -18,0 -30,3 -37,10 -7,6 -10,14 -10,24 0,6 3,12 8,17 5,5 15,8 29,9l46 3c29,2 50,11 62,27 13,16 19,35 19,57 0,27 -11,49 -34,63 -22,15 -50,22 -82,22 -46,0 -87,-17 -123,-50zm686 -131l0 -49 19 0c19,0 33,-5 44,-16 11,-10 16,-24 16,-40 0,-16 -6,-29 -17,-40 -11,-11 -25,-16 -40,-16 -12,0 -23,4 -34,12 -11,8 -17,20 -20,35l-56 0c2,-28 14,-52 35,-72 21,-21 45,-31 73,-31 35,0 63,12 84,35 21,23 32,49 32,77 0,15 -3,30 -9,44 -6,14 -17,27 -33,37 17,11 28,24 35,39 7,15 11,31 11,47 0,37 -11,66 -34,87 -23,22 -51,32 -84,32 -27,0 -50,-9 -72,-26 -21,-17 -34,-42 -40,-75l56 0c5,13 12,24 21,32 9,8 21,12 37,12 16,0 29,-6 41,-17 12,-11 18,-26 18,-46 0,-20 -6,-35 -18,-46 -12,-11 -26,-17 -43,-17l-24 0z"/>
  <path class="fil5 str0" d="M2440 3155l-1586 0 0 0 0 0c-65,0 -118,-53 -118,-118l0 0 0 -838 0 0c0,-65 53,-118 118,-118l0 0 0 0 1586 0 1586 0 0 0c65,0 118,53 118,118l0 0 0 839 0 0c0,65 -53,118 -118,118l0 0 -1586 0zm0 -1035l-1586 0c-43,0 -79,35 -79,79l0 839c0,43 35,79 79,79l1586 0 1586 0c43,0 79,-35 79,-79l0 -839c0,-43 -35,-79 -79,-79l-1586 0z"/>
  <path class="fil5" d="M2440 2172l-1586 0c-14,0 -26,12 -26,26l0 839c0,14 12,26 26,26l1586 0 1586 0c14,0 26,-12 26,-26l0 -839c0,-14 -12,-26 -26,-26l-1586 0z"/>
  <path class="fil3" d="M1445 2475l0 119 90 0c22,0 39,-6 50,-19 11,-12 17,-27 17,-43 0,-20 -7,-35 -20,-45 -11,-8 -25,-12 -43,-12l-93 0zm-59 339l0 -391 153 0c33,0 60,9 80,26 11,9 20,21 28,36 8,14 11,30 11,48 0,25 -7,48 -20,67 -14,19 -32,33 -56,41l91 174 -70 0 -81 -167 -76 0 0 167 -59 0zm336 0l0 -391 59 0 0 391 -59 0zm269 -159l0 -56 139 0 0 80c0,39 -13,72 -41,99 -27,27 -60,40 -99,40 -31,0 -57,-7 -77,-22 -21,-15 -36,-31 -45,-48 -6,-11 -11,-24 -13,-38 -3,-14 -4,-44 -4,-91 0,-47 1,-77 4,-91 2,-14 7,-26 13,-38 9,-17 24,-33 45,-48 21,-15 47,-23 77,-23 37,0 68,11 92,34 24,23 40,50 46,82l-63 0c-5,-15 -14,-28 -27,-40 -13,-11 -29,-17 -48,-17 -14,0 -26,3 -36,9 -10,6 -18,12 -24,20 -8,10 -13,21 -16,33 -3,12 -4,38 -4,78 0,40 1,66 4,78 3,12 8,23 16,32 6,8 14,15 24,20 10,6 22,9 36,9 23,0 42,-8 57,-23 15,-15 23,-35 23,-60l0 -20 -80 0zm167 159l143 -392 49 0 143 392 -62 0 -30 -88 -149 0 -31 88 -63 0zm111 -141l113 0c-8,-24 -15,-43 -19,-57 -5,-14 -9,-26 -12,-36 -3,-11 -7,-21 -11,-32 -4,-11 -8,-26 -14,-44 -6,19 -11,35 -15,46 -4,12 -7,23 -11,33 -3,11 -8,23 -12,36 -4,13 -11,31 -19,54zm602 141l0 -332 -56 41 0 -59 56 -41 56 0 0 391 -56 0zm175 0l0 -53 153 -192c6,-8 10,-14 12,-21 2,-6 3,-12 3,-18 0,-14 -5,-26 -14,-38 -10,-12 -23,-18 -39,-18 -15,0 -28,5 -39,15 -11,10 -17,24 -18,42l-56 0c0,-32 11,-58 33,-80 21,-22 47,-33 77,-33 33,0 60,11 82,33 22,22 33,48 33,79 0,27 -8,49 -23,69l-126 158 149 0 0 56 -223 0zm434 -113l0 -166c0,-19 -5,-33 -15,-44 -10,-11 -23,-16 -40,-16 -17,0 -30,5 -40,16 -10,11 -15,25 -15,44l0 166c0,19 5,34 15,44 10,11 23,16 40,16 17,0 30,-5 40,-16 10,-10 15,-25 15,-44zm-166 3l0 -173c0,-36 11,-64 34,-83 23,-20 48,-29 77,-29 29,0 55,10 77,29 23,20 34,47 34,83l0 173c0,36 -11,64 -34,83 -23,20 -48,29 -77,29 -29,0 -55,-10 -77,-29 -23,-20 -34,-47 -34,-83z"/>
  <polygon class="fil1" points="1677,2363 1824,2363 1824,2402 1677,2402 "/>
 </g>
</svg>
