<?xml version="1.0" encoding="UTF-8"?>
<!DOCTYPE svg PUBLIC "-//W3C//DTD SVG 1.1//EN" "http://www.w3.org/Graphics/SVG/1.1/DTD/svg11.dtd">
<!-- Creator: CorelDRAW X6 -->
<svg xmlns="http://www.w3.org/2000/svg" xml:space="preserve" width="58.666mm" height="19.9585mm" version="1.1" style="shape-rendering:geometricPrecision; text-rendering:geometricPrecision; image-rendering:optimizeQuality; fill-rule:evenodd; clip-rule:evenodd"
viewBox="0 0 3139 1068"
 xmlns:xlink="http://www.w3.org/1999/xlink">
 <defs>
  <style type="text/css">
   <![CDATA[
    .str0 {stroke:white;stroke-width:4.0776}
    .fil2 {fill:#FEFEFE}
    .fil0 {fill:blue}
    .fil1 {fill:#FEFEFE;fill-rule:nonzero}
   ]]>
  </style>
 </defs>
 <g id="Layer_x0020_1">
  <metadata id="CorelCorpID_0Corel-Layer"/>
  <polygon class="fil0" points="98,0 3042,0 3047,0 3052,1 3057,1 3062,2 3067,3 3071,4 3076,6 3080,8 3084,10 3088,12 3093,14 3096,17 3100,19 3104,22 3107,25 3111,28 3114,32 3117,35 3120,39 3123,43 3125,47 3128,51 3130,55 3132,59 3133,64 3135,68 3136,73 3137,77 3138,82 3139,87 3139,92 3139,98 3139,970 3139,976 3139,981 3138,986 3137,991 3136,995 3135,1000 3133,1004 3132,1009 3130,1013 3128,1017 3125,1021 3123,1025 3120,1029 3117,1033 3114,1036 3111,1040 3107,1043 3104,1046 3100,1049 3096,1051 3093,1054 3088,1056 3084,1058 3080,1060 3076,1062 3071,1064 3067,1065 3062,1066 3057,1067 3052,1067 3047,1068 3042,1068 98,1068 92,1068 87,1067 82,1067 77,1066 73,1065 68,1064 63,1062 59,1060 55,1058 50,1056 46,1054 42,1051 39,1049 35,1046 31,1043 28,1040 25,1036 22,1033 19,1029 16,1025 14,1021 11,1017 9,1013 7,1009 6,1005 4,1000 3,995 2,991 1,986 0,981 0,976 0,970 0,98 0,92 1,87 1,82 2,78 3,73 4,68 6,64 8,60 10,55 12,51 14,47 17,43 19,39 22,36 25,32 29,29 32,25 36,22 39,19 43,17 47,14 51,12 55,10 60,8 64,6 68,4 73,3 78,2 82,1 87,1 92,0 "/>
  <path class="fil1" d="M862 636l-145 -439 70 0 100 334 1 0 100 -334 70 0 -145 439 -52 0zm480 -133l-195 0c0,26 7,45 21,58 14,13 32,19 53,19 26,0 49,-10 69,-30l45 39c-15,18 -33,31 -52,39 -19,8 -40,12 -61,12 -32,0 -63,-10 -93,-31 -30,-21 -45,-63 -45,-128 0,-61 14,-103 42,-126 28,-23 57,-35 87,-35 34,0 64,12 90,36 26,24 39,56 39,96l0 52zm-195 -52l132 0c-1,-24 -8,-41 -20,-54 -12,-13 -28,-19 -46,-19 -19,0 -34,6 -47,19 -12,12 -19,30 -19,54zm226 132l44 -43c27,27 60,40 99,40 18,0 33,-3 44,-10 12,-7 17,-17 17,-30 0,-18 -13,-28 -38,-31l-55 -5c-26,-2 -47,-11 -64,-26 -17,-15 -26,-36 -26,-63 0,-32 11,-56 33,-72 22,-16 50,-24 83,-24 27,0 51,4 70,12 20,8 37,18 52,31l-39 46c-12,-8 -25,-15 -39,-21 -13,-5 -28,-8 -45,-8 -20,0 -34,4 -42,11 -8,7 -12,16 -12,27 0,7 3,13 9,19 6,6 17,9 33,10l52 4c32,2 56,12 70,30 14,18 21,39 21,64 0,31 -13,54 -38,71 -25,17 -56,25 -92,25 -52,0 -98,-19 -138,-56zm573 -80l-195 0c0,26 7,45 21,58 14,13 32,19 53,19 26,0 49,-10 69,-30l45 39c-15,18 -33,31 -52,39 -19,8 -40,12 -61,12 -32,0 -63,-10 -93,-31 -30,-21 -45,-63 -45,-128 0,-61 14,-103 42,-126 28,-23 57,-35 87,-35 34,0 64,12 90,36 26,24 39,56 39,96l0 52zm-195 -52l132 0c-1,-24 -8,-41 -20,-54 -12,-13 -28,-19 -46,-19 -19,0 -34,6 -47,19 -12,12 -19,30 -19,54zm265 -128l0 -95 63 0 0 95 46 0 0 48 -46 0 0 182c0,16 7,24 22,24l23 0 0 59 -33 0c-22,0 -40,-7 -54,-20 -14,-13 -21,-32 -21,-57l0 -188 -31 0 0 -48 31 0zm332 313l0 -28 -2 0c-13,21 -38,31 -77,31 -35,0 -62,-9 -81,-27 -19,-18 -29,-41 -29,-68 0,-25 9,-46 26,-65 17,-18 42,-28 76,-28l87 0 0 -32c0,-27 -21,-40 -64,-40 -30,0 -49,8 -59,24l-49 -37c22,-31 57,-46 106,-46 39,0 70,8 94,23 24,15 36,42 36,81l0 213 -63 0zm0 -110l0 -23 -75 0c-36,0 -55,13 -55,38 0,11 5,20 14,28 9,8 24,12 46,12 26,0 44,-3 55,-9 10,-6 16,-21 16,-45z"/>
  <path class="fil2 str0" d="M201 818l-4 -34c54,53 110,53 177,4 63,47 92,48 167,1 54,46 113,46 171,2 60,43 113,45 167,-5 65,50 116,48 165,1 66,46 129,53 181,-4 61,57 115,54 176,0 66,55 97,55 168,0 53,58 112,51 171,-4 54,57 110,57 177,4 63,52 92,53 167,1 54,50 113,51 171,2 60,48 113,50 167,-5 65,55 116,53 165,1 66,48 129,57 181,-1 54,64 109,58 177,0l-2 31c-55,40 -111,73 -176,23 -56,47 -126,32 -179,-4 -50,41 -116,44 -164,1 -61,39 -110,42 -170,3 -58,44 -103,39 -171,-4 -60,42 -105,44 -166,1 -62,42 -124,39 -177,4 -66,38 -110,37 -171,0 -31,20 -58,25 -85,28 -26,2 -52,-9 -81,-28 -57,34 -114,44 -177,0 -52,43 -124,31 -180,-1 -49,38 -115,40 -164,1 -61,39 -110,38 -170,-1 -58,39 -103,37 -171,0 -60,38 -105,40 -166,1 -55,40 -107,30 -172,-20z"/>
 </g>
</svg>
