<?xml version="1.0" encoding="UTF-8"?>
<!DOCTYPE svg PUBLIC "-//W3C//DTD SVG 1.1//EN" "http://www.w3.org/Graphics/SVG/1.1/DTD/svg11.dtd">
<!-- Creator: CorelDRAW X6 -->
<svg xmlns="http://www.w3.org/2000/svg" xml:space="preserve" width="40.6819mm" height="40.682mm" version="1.1" style="shape-rendering:geometricPrecision; text-rendering:geometricPrecision; image-rendering:optimizeQuality; fill-rule:evenodd; clip-rule:evenodd"
viewBox="0 0 1489 1489"
 xmlns:xlink="http://www.w3.org/1999/xlink">
 <defs>
  <style type="text/css">
   <![CDATA[
    .fil1 {fill:#FEFEFE}
    .fil0 {fill:blue}
    .fil2 {fill:red}
   ]]>
  </style>
 </defs>
 <g id="Layer_x0020_1">
  <metadata id="CorelCorpID_0Corel-Layer"/>
  <polygon class="fil0" points="1489,1398 1488,1403 1488,1408 1487,1412 1487,1417 1486,1421 1484,1425 1483,1430 1481,1434 1480,1438 1478,1442 1476,1445 1473,1449 1471,1452 1468,1456 1465,1459 1462,1462 1459,1465 1456,1468 1452,1471 1449,1473 1445,1476 1442,1478 1438,1480 1434,1481 1430,1483 1425,1484 1421,1486 1417,1487 1412,1487 1408,1488 1403,1488 1398,1489 90,1489 85,1488 81,1488 76,1487 72,1487 67,1486 63,1484 59,1483 55,1481 51,1480 47,1478 43,1476 40,1473 36,1471 33,1468 29,1465 26,1462 23,1459 20,1456 18,1452 15,1449 13,1445 11,1442 9,1438 7,1434 5,1430 4,1425 3,1421 2,1417 1,1412 0,1408 0,1403 0,1398 0,90 0,85 0,81 1,76 2,72 3,67 4,63 5,59 7,55 9,51 11,47 13,43 15,40 18,36 20,33 23,29 26,26 29,23 33,21 36,18 40,15 43,13 47,11 51,9 55,7 59,5 63,4 67,3 72,2 76,1 81,0 85,0 90,0 1398,0 1403,0 1408,0 1412,1 1417,2 1421,3 1425,4 1430,5 1434,7 1438,9 1442,11 1445,13 1449,15 1452,18 1456,21 1459,23 1462,26 1465,29 1468,33 1471,36 1473,40 1476,43 1478,47 1480,51 1481,55 1483,59 1484,63 1486,67 1487,72 1487,76 1488,81 1488,85 1489,90 "/>
  <polygon class="fil1" points="603,1351 603,486 427,486 427,205 1061,205 1061,486 885,486 885,1351 "/>
  <polygon class="fil2" points="471,250 1017,250 1017,443 471,443 "/>
 </g>
</svg>
