<?xml version="1.0" encoding="UTF-8"?>
<!DOCTYPE svg PUBLIC "-//W3C//DTD SVG 1.1//EN" "http://www.w3.org/Graphics/SVG/1.1/DTD/svg11.dtd">
<!-- Creator: CorelDRAW X6 -->
<svg xmlns="http://www.w3.org/2000/svg" xml:space="preserve" width="40.5898mm" height="40.5897mm" version="1.1" style="shape-rendering:geometricPrecision; text-rendering:geometricPrecision; image-rendering:optimizeQuality; fill-rule:evenodd; clip-rule:evenodd"
viewBox="0 0 24477 24477"
 xmlns:xlink="http://www.w3.org/1999/xlink">
 <defs>
  <style type="text/css">
   <![CDATA[
    .fil1 {fill:blue}
    .fil0 {fill:red}
   ]]>
  </style>
 </defs>
 <g id="Layer_x0020_1">
  <metadata id="CorelCorpID_0Corel-Layer"/>
  <polygon class="fil0" points="21115,16458 21115,7464 17930,7464 17934,16458 "/>
  <path class="fil1" d="M24477 22995l-2 82 -6 75 -9 74 -13 73 -16 71 -20 70 -23 68 -26 67 -29 65 -33 64 -36 62 -38 60 -41 58 -44 56 -46 54 -49 51 -51 49 -54 46 -56 44 -58 41 -60 38 -62 36 -64 33 -65 30 -67 26 -68 23 -70 20 -71 16 -73 13 -74 9 -75 6 -82 2 -21514 0 -82 -2 -75 -6 -74 -9 -73 -13 -71 -16 -70 -20 -68 -23 -67 -26 -65 -30 -64 -33 -62 -36 -60 -38 -58 -41 -56 -44 -54 -46 -51 -49 -49 -51 -46 -54 -44 -56 -41 -58 -38 -60 -36 -62 -33 -64 -30 -65 -26 -67 -23 -68 -20 -70 -16 -71 -13 -73 -9 -74 -6 -75 -2 -82 0 -21514 2 -82 6 -75 9 -74 13 -73 16 -71 20 -70 23 -68 26 -67 30 -65 33 -64 36 -62 38 -60 41 -58 44 -56 46 -54 49 -51 51 -49 54 -46 56 -44 58 -41 60 -38 62 -36 64 -33 65 -30 67 -26 68 -23 70 -20 71 -16 73 -13 74 -9 75 -6 82 -2 21514 0 82 2 75 6 74 9 73 13 71 16 70 20 68 23 67 26 65 30 64 33 62 36 60 38 58 41 56 44 54 46 51 49 49 51 46 54 44 56 41 58 38 60 36 62 33 64 29 65 26 67 23 68 20 70 16 71 13 73 9 74 6 75 2 82 0 21514zm-17181 -1185l0 -7529 9917 0 0 2887 4618 0 0 -10414 -4618 0 0 2887 -9917 0 0 -6970 -4638 -5 -12 19144 4650 0z"/>
 </g>
</svg>
