<?xml version="1.0" encoding="utf-8"?>
<!-- Generator: Adobe Illustrator 16.0.0, SVG Export Plug-In . SVG Version: 6.00 Build 0)  -->
<!DOCTYPE svg PUBLIC "-//W3C//DTD SVG 1.1//EN" "http://www.w3.org/Graphics/SVG/1.1/DTD/svg11.dtd">
<svg version="1.1" id="Layer_1" xmlns="http://www.w3.org/2000/svg" xmlns:xlink="http://www.w3.org/1999/xlink" x="0px" y="0px"
	 width="80.021px" height="80.021px" viewBox="0 0 80.021 80.021" enable-background="new 0 0 80.021 80.021" xml:space="preserve">
<path fill="none" stroke="#000000" stroke-width="0.0216" stroke-miterlimit="22.9256" d="M0.011,74.015
	c0,3.311,2.686,5.996,5.996,5.996h68.007c3.312,0,5.997-2.686,5.997-5.996V6.007c0-3.312-2.686-5.997-5.997-5.997H6.007
	c-3.311,0-5.996,2.685-5.996,5.997C0.011,9.318,0.011,74.015,0.011,74.015z"/>
<polygon fill-rule="evenodd" clip-rule="evenodd" fill="#FF1E00" points="11.973,53.34 11.973,24.922 22.037,24.922 22.022,53.34 
	"/>
<path fill-rule="evenodd" clip-rule="evenodd" fill="#0001FE" d="M55.635,70.25V46.461H24.301v9.123H9.71V22.679h14.591V31.8h31.334
	V9.777l14.656-0.015l0.037,60.488H55.635z M1.351,73.994l0.006,0.258l0.019,0.237l0.029,0.233l0.041,0.229l0.052,0.225l0.063,0.221
	l0.073,0.217l0.083,0.211l0.093,0.207l0.104,0.2l0.112,0.196l0.121,0.188l0.13,0.183l0.139,0.177l0.147,0.17l0.154,0.162
	l0.162,0.154l0.17,0.147l0.176,0.139l0.184,0.13L3.598,78l0.195,0.112l0.2,0.104l0.206,0.093l0.212,0.084l0.216,0.072l0.221,0.063
	l0.226,0.053l0.229,0.04l0.233,0.03l0.237,0.018l0.258,0.007h67.976l0.258-0.007l0.237-0.018l0.233-0.03l0.229-0.04l0.226-0.053
	l0.22-0.063l0.216-0.072l0.212-0.084l0.206-0.093l0.202-0.104L76.44,78l0.189-0.121l0.183-0.13l0.177-0.139l0.169-0.147l0.162-0.154
	l0.156-0.162l0.146-0.17l0.14-0.177l0.13-0.183l0.121-0.188l0.112-0.196l0.103-0.2l0.094-0.207l0.083-0.211l0.073-0.217l0.063-0.221
	l0.053-0.225l0.04-0.229l0.03-0.233l0.018-0.237l0.007-0.258V6.019L78.681,5.76l-0.018-0.237l-0.03-0.233l-0.04-0.229L78.54,4.835
	l-0.063-0.22l-0.073-0.216l-0.083-0.211l-0.094-0.206L78.125,3.78l-0.112-0.195l-0.121-0.189l-0.13-0.183l-0.14-0.176l-0.146-0.17
	L77.32,2.704l-0.162-0.155l-0.169-0.147l-0.177-0.138l-0.183-0.13L76.44,2.012L76.246,1.9l-0.202-0.103l-0.206-0.093l-0.212-0.083
	L75.41,1.547l-0.22-0.063l-0.226-0.052l-0.229-0.041l-0.233-0.03l-0.237-0.018l-0.258-0.006H6.031L5.773,1.344L5.536,1.362
	l-0.233,0.03L5.073,1.433L4.848,1.485L4.627,1.547L4.411,1.621L4.199,1.704L3.993,1.797L3.793,1.9L3.598,2.013L3.408,2.134
	l-0.184,0.13L3.049,2.402l-0.17,0.147L2.717,2.704L2.563,2.866l-0.147,0.17L2.276,3.212l-0.13,0.183L2.025,3.584L1.913,3.78
	L1.81,3.981L1.717,4.187L1.634,4.398L1.561,4.615l-0.063,0.22L1.445,5.061L1.404,5.29L1.375,5.523L1.356,5.76L1.351,6.019V73.994z"
	/>
</svg>
