<?xml version="1.0" encoding="UTF-8"?>
<!DOCTYPE svg PUBLIC "-//W3C//DTD SVG 1.1//EN" "http://www.w3.org/Graphics/SVG/1.1/DTD/svg11.dtd">
<!-- Creator: CorelDRAW X6 -->
<svg xmlns="http://www.w3.org/2000/svg" xml:space="preserve" width="41.1267mm" height="41.1267mm" version="1.1" style="shape-rendering:geometricPrecision; text-rendering:geometricPrecision; image-rendering:optimizeQuality; fill-rule:evenodd; clip-rule:evenodd"
viewBox="0 0 877 877"
 xmlns:xlink="http://www.w3.org/1999/xlink">
 <defs>
  <style type="text/css">
   <![CDATA[
    .fil0 {fill:blue}
    .fil1 {fill:#FEFEFE;fill-rule:nonzero}
   ]]>
  </style>
 </defs>
 <g id="Layer_x0020_1">
  <metadata id="CorelCorpID_0Corel-Layer"/>
  <polygon class="fil0" points="834,877 836,877 839,876 841,876 843,876 845,875 847,874 849,873 851,872 853,871 855,870 857,869 859,868 860,867 862,865 864,864 865,862 867,860 868,859 869,857 870,855 871,853 872,851 873,849 874,847 875,845 875,843 876,841 876,839 877,836 877,834 877,832 877,45 877,43 877,41 876,38 876,36 876,34 875,32 874,30 873,28 872,26 871,24 870,22 869,20 868,18 867,17 865,15 864,13 862,12 860,10 859,9 857,8 855,7 853,5 851,4 849,4 847,3 845,2 843,1 841,1 839,1 836,0 834,0 831,0 45,0 43,0 40,0 38,1 36,1 34,2 32,2 30,3 27,4 25,5 24,6 22,7 20,8 18,9 16,10 15,12 13,13 12,15 10,17 9,18 8,20 7,22 5,24 4,26 4,28 3,30 2,32 1,34 1,36 1,38 0,41 0,43 0,45 0,832 0,834 0,836 1,839 1,841 1,843 2,845 3,847 4,849 4,851 5,853 7,855 8,857 9,859 10,860 12,862 13,864 15,865 16,867 18,868 20,869 22,870 24,871 26,872 28,873 30,874 32,875 34,876 36,876 38,876 41,877 43,877 45,877 832,877 "/>
  <path class="fil1" d="M614 573c27,-46 37,-79 37,-131l0 -191 91 29 -128 -212 -121 212 85 -29 0 191c0,41 -6,58 -29,96l-172 227 60 44 178 -236z"/>
  <polygon class="fil1" points="295,803 295,251 386,280 258,68 136,280 221,251 221,803 "/>
 </g>
</svg>
