<?xml version="1.0" encoding="UTF-8"?>
<!DOCTYPE svg PUBLIC "-//W3C//DTD SVG 1.1//EN" "http://www.w3.org/Graphics/SVG/1.1/DTD/svg11.dtd">
<!-- Creator: CorelDRAW X6 -->
<svg xmlns="http://www.w3.org/2000/svg" xml:space="preserve" width="41.1266mm" height="41.1267mm" version="1.1" style="shape-rendering:geometricPrecision; text-rendering:geometricPrecision; image-rendering:optimizeQuality; fill-rule:evenodd; clip-rule:evenodd"
viewBox="0 0 1877 1877"
 xmlns:xlink="http://www.w3.org/1999/xlink">
 <defs>
  <style type="text/css">
   <![CDATA[
    .fil0 {fill:blue}
    .fil1 {fill:#FEFEFE;fill-rule:nonzero}
   ]]>
  </style>
 </defs>
 <g id="Layer_x0020_1">
  <metadata id="CorelCorpID_0Corel-Layer"/>
  <polygon class="fil0" points="1785,1877 1790,1877 1795,1876 1800,1875 1804,1874 1809,1873 1813,1871 1818,1869 1822,1867 1826,1865 1830,1863 1834,1860 1838,1858 1842,1855 1845,1852 1849,1849 1852,1845 1855,1842 1858,1838 1860,1834 1863,1830 1865,1826 1867,1822 1869,1818 1871,1813 1873,1809 1874,1804 1875,1800 1876,1795 1876,1790 1877,1785 1877,1780 1877,97 1877,92 1877,87 1876,82 1875,77 1874,73 1873,68 1871,64 1869,59 1867,55 1865,51 1863,47 1860,43 1858,39 1855,35 1852,32 1849,28 1845,25 1842,22 1838,19 1834,17 1830,14 1826,12 1822,10 1818,8 1813,6 1809,4 1804,3 1800,2 1795,1 1790,1 1785,0 1780,0 97,0 91,0 86,1 82,1 77,2 72,3 68,5 63,6 59,8 55,10 50,12 46,14 42,17 39,19 35,22 32,25 28,29 25,32 22,35 19,39 16,43 14,47 12,51 10,55 8,59 6,64 4,68 3,73 2,77 1,82 1,87 0,92 0,97 0,1780 0,1785 1,1790 1,1795 2,1800 3,1805 4,1809 6,1814 8,1818 10,1822 12,1826 14,1830 16,1834 19,1838 22,1842 25,1845 28,1849 32,1852 35,1855 39,1858 43,1861 47,1863 51,1865 55,1867 59,1869 63,1871 68,1873 72,1874 77,1875 82,1876 87,1877 92,1877 97,1877 1781,1877 "/>
  <path class="fil1" d="M564 1226c-58,-98 -79,-169 -79,-280l0 -409 -194 62 273 -454 260 454 -181 -62 0 408c-1,88 14,124 62,206l369 487 -129 94 -382 -506z"/>
  <polygon class="fil1" points="1245,1719 1245,537 1052,599 1326,145 1586,599 1405,537 1405,1719 "/>
 </g>
</svg>
