<?xml version="1.0" encoding="UTF-8"?>
<!DOCTYPE svg PUBLIC "-//W3C//DTD SVG 1.1//EN" "http://www.w3.org/Graphics/SVG/1.1/DTD/svg11.dtd">
<!-- Creator: CorelDRAW X6 -->
<svg xmlns="http://www.w3.org/2000/svg" xml:space="preserve" width="41.1267mm" height="41.1267mm" version="1.1" style="shape-rendering:geometricPrecision; text-rendering:geometricPrecision; image-rendering:optimizeQuality; fill-rule:evenodd; clip-rule:evenodd"
viewBox="0 0 11950 11950"
 xmlns:xlink="http://www.w3.org/1999/xlink">
 <defs>
  <style type="text/css">
   <![CDATA[
    .fil0 {fill:blue}
    .fil1 {fill:#FEFEFE;fill-rule:nonzero}
   ]]>
  </style>
 </defs>
 <g id="Layer_x0020_1">
  <metadata id="CorelCorpID_0Corel-Layer"/>
  <polygon class="fil0" points="11366,11949 11397,11946 11427,11942 11457,11937 11487,11930 11516,11922 11545,11912 11572,11901 11600,11889 11626,11875 11652,11860 11677,11844 11701,11827 11724,11808 11747,11789 11768,11768 11789,11747 11808,11725 11827,11701 11844,11677 11860,11652 11875,11626 11888,11600 11901,11572 11912,11545 11922,11516 11930,11487 11937,11458 11942,11427 11946,11397 11948,11366 11949,11332 11950,620 11949,586 11946,554 11942,524 11937,493 11930,464 11922,434 11912,406 11901,378 11889,351 11875,324 11860,298 11844,273 11827,249 11808,225 11789,203 11768,181 11747,161 11724,141 11701,123 11676,106 11651,90 11626,75 11599,61 11572,49 11544,38 11515,28 11486,20 11456,13 11426,7 11395,3 11364,1 11330,0 615,2 581,3 550,5 519,9 489,14 460,21 431,29 402,39 374,50 347,62 321,76 295,91 270,107 246,124 223,142 201,161 180,182 160,203 140,225 122,249 105,273 89,298 74,323 61,350 49,377 38,405 28,434 20,463 13,492 8,523 4,554 1,585 1,619 0,11332 1,11366 3,11397 7,11428 13,11458 19,11488 28,11517 37,11546 48,11574 61,11601 74,11627 89,11653 105,11678 122,11702 140,11725 160,11748 180,11769 202,11790 224,11809 247,11827 271,11844 296,11860 322,11875 349,11889 376,11901 404,11912 432,11922 461,11930 491,11937 521,11942 552,11946 583,11949 617,11950 11337,11949 "/>
  <polygon class="fil1" points="3534,10983 3538,3462 4767,3853 3023,966 1366,3852 2520,3462 2521,10983 "/>
  <path class="fil1" d="M9539 10983c-220,-686 -449,-1278 -1088,-1717l-2446 -1464 -322 1110 -1525 -2714 3155 0 -768 772 743 411 8 13 1787 1072c849,506 1277,1599 1500,2517l-1044 0z"/>
 </g>
</svg>
