<?xml version="1.0" encoding="UTF-8"?>
<!DOCTYPE svg PUBLIC "-//W3C//DTD SVG 1.1//EN" "http://www.w3.org/Graphics/SVG/1.1/DTD/svg11.dtd">
<!-- Creator: CorelDRAW X6 -->
<svg xmlns="http://www.w3.org/2000/svg" xml:space="preserve" width="41.1267mm" height="41.1267mm" version="1.1" style="shape-rendering:geometricPrecision; text-rendering:geometricPrecision; image-rendering:optimizeQuality; fill-rule:evenodd; clip-rule:evenodd"
viewBox="0 0 1468 1468"
 xmlns:xlink="http://www.w3.org/1999/xlink">
 <defs>
  <style type="text/css">
   <![CDATA[
    .fil0 {fill:blue}
    .fil1 {fill:#FEFEFE;fill-rule:nonzero}
   ]]>
  </style>
 </defs>
 <g id="Layer_x0020_1">
  <metadata id="CorelCorpID_0Corel-Layer"/>
  <polygon class="fil0" points="72,1468 68,1467 64,1467 60,1466 57,1465 53,1464 50,1463 46,1462 43,1460 40,1458 37,1457 33,1455 31,1453 28,1450 25,1448 22,1445 20,1443 17,1440 15,1437 13,1434 11,1431 9,1428 8,1425 6,1421 5,1418 3,1414 2,1411 2,1407 1,1404 0,1400 0,1396 0,1392 0,76 0,72 0,68 1,64 2,61 2,57 3,53 5,50 6,46 7,43 9,40 11,37 13,34 15,31 17,28 20,25 22,22 25,20 28,17 31,15 34,13 37,11 40,9 43,7 46,6 50,5 53,3 57,2 61,2 64,1 68,0 72,0 76,0 1392,0 1396,0 1400,1 1404,1 1408,2 1411,3 1415,4 1418,5 1422,6 1425,8 1428,9 1431,11 1434,13 1437,15 1440,17 1443,20 1446,22 1448,25 1450,28 1453,31 1455,33 1457,37 1459,40 1460,43 1462,46 1463,50 1464,53 1465,57 1466,60 1467,64 1467,68 1467,72 1468,76 1468,1392 1468,1396 1467,1400 1467,1404 1466,1407 1465,1411 1464,1415 1463,1418 1462,1421 1460,1425 1459,1428 1457,1431 1455,1434 1453,1437 1450,1440 1448,1443 1446,1446 1443,1448 1440,1450 1437,1453 1434,1455 1431,1457 1428,1459 1425,1460 1421,1462 1418,1463 1415,1464 1411,1465 1407,1466 1404,1467 1400,1467 1396,1468 1392,1468 75,1468 "/>
  <polygon class="fil1" points="1034,1349 1033,425 882,473 1096,119 1300,473 1158,425 1158,1349 "/>
  <path class="fil1" d="M296 1349c27,-84 55,-157 134,-211l300 -180 40 136 187 -333 -387 0 94 95 -91 50 -1 2 -220 132c-104,62 -157,196 -184,309l128 0z"/>
 </g>
</svg>
