<?xml version="1.0" encoding="UTF-8"?>
<!DOCTYPE svg PUBLIC "-//W3C//DTD SVG 1.1//EN" "http://www.w3.org/Graphics/SVG/1.1/DTD/svg11.dtd">
<!-- Creator: CorelDRAW X6 -->
<svg xmlns="http://www.w3.org/2000/svg" xml:space="preserve" width="62.2949mm" height="41.1266mm" version="1.1" style="shape-rendering:geometricPrecision; text-rendering:geometricPrecision; image-rendering:optimizeQuality; fill-rule:evenodd; clip-rule:evenodd"
viewBox="0 0 3442 2272"
 xmlns:xlink="http://www.w3.org/1999/xlink">
 <defs>
  <style type="text/css">
   <![CDATA[
    .fil3 {fill:#212220}
    .fil1 {fill:#FEFEFE}
    .fil0 {fill:blue}
    .fil2 {fill:red}
   ]]>
  </style>
 </defs>
 <g id="Layer_x0020_1">
  <metadata id="CorelCorpID_0Corel-Layer"/>
  <polygon class="fil0" points="0,2155 0,117 0,111 1,105 1,99 2,93 4,88 5,82 7,77 9,71 12,66 14,61 17,56 20,52 23,47 27,43 30,38 34,34 38,30 43,27 47,23 52,20 56,17 61,14 66,12 71,9 77,7 82,5 88,4 93,2 99,1 105,1 111,0 117,0 3325,0 3331,0 3337,1 3343,1 3349,2 3354,4 3360,5 3365,7 3371,9 3376,12 3381,14 3386,17 3390,20 3395,23 3399,27 3404,30 3408,34 3412,38 3415,43 3419,47 3422,52 3425,56 3428,61 3431,66 3433,71 3435,77 3437,82 3438,88 3440,93 3441,99 3441,105 3442,111 3442,117 3442,2155 3442,2162 3441,2167 3441,2173 3440,2179 3438,2185 3437,2190 3435,2196 3433,2201 3431,2206 3428,2211 3425,2216 3422,2221 3419,2225 3415,2230 3412,2234 3408,2238 3404,2242 3399,2246 3395,2249 3390,2252 3386,2256 3381,2258 3376,2261 3371,2263 3365,2265 3360,2267 3354,2269 3349,2270 3343,2271 3337,2272 3331,2272 3325,2272 117,2272 111,2272 105,2272 99,2271 93,2270 88,2269 82,2267 77,2265 71,2263 66,2261 61,2258 56,2256 52,2252 47,2249 43,2246 38,2242 34,2238 30,2234 27,2230 23,2225 20,2221 17,2216 14,2211 12,2206 9,2201 7,2196 5,2190 4,2185 2,2179 1,2173 1,2167 0,2162 "/>
  <polygon class="fil1" points="551,217 551,1637 343,1554 635,2097 927,1554 719,1637 719,217 "/>
  <path class="fil1" d="M1638 2055l0 -280c-237,-40 -418,-246 -418,-494 0,-248 181,-455 418,-494l0 -152 -209 84 292 -543 292 543 -209 -84 0 152c237,40 418,246 418,494 0,248 -181,455 -418,494l0 280 -167 0z"/>
  <polygon class="fil1" points="2726,2055 2726,635 2517,718 2810,175 3102,718 2893,635 2893,2055 "/>
  <path class="fil2" d="M1721 797c267,0 485,218 485,485 0,267 -218,485 -485,485 -267,0 -485,-218 -485,-485 0,-267 218,-485 485,-485zm0 128c197,0 356,160 356,356 0,197 -160,356 -356,356 -197,0 -356,-160 -356,-356 0,-197 160,-356 356,-356z"/>
  <path class="fil3" d="M1605 1395c1,-23 -22,-59 -50,-62 -20,-3 -38,0 -58,19 -9,10 -16,27 -15,41 -14,-1 -26,2 -30,-16l1 -104 60 -81c1,-3 5,-5 9,-5l90 0c6,0 11,6 10,11l0 138 239 0c-28,10 -42,31 -44,59l-213 0zm-115 -131c-4,0 -5,-3 -3,-6l38 -53 72 0 0 59 -106 0z"/>
  <path class="fil3" d="M1942 1394c1,-23 -14,-52 -42,-60l90 0 0 30 -48 29z"/>
  <path class="fil3" d="M1644 1319l0 -186c0,-12 9,-15 22,-15l304 -1c17,0 19,7 19,15l0 187 -346 0z"/>
  <path class="fil3" d="M1881 1345c28,0 50,23 50,50 0,28 -23,50 -50,50 -28,0 -50,-23 -50,-50 0,-28 23,-50 50,-50zm0 25c14,0 26,11 26,25 0,14 -11,25 -26,25 -14,0 -26,-11 -26,-25 0,-14 11,-25 26,-25z"/>
  <path class="fil3" d="M1543 1344c28,0 50,23 50,50 0,28 -23,50 -50,50 -28,0 -50,-23 -50,-50 0,-28 23,-50 50,-50zm0 25c14,0 26,11 26,25 0,14 -11,25 -26,25 -14,0 -26,-11 -26,-25 0,-14 11,-25 26,-25z"/>
 </g>
</svg>
