<?xml version="1.0" encoding="UTF-8"?>
<!DOCTYPE svg PUBLIC "-//W3C//DTD SVG 1.1//EN" "http://www.w3.org/Graphics/SVG/1.1/DTD/svg11.dtd">
<!-- Creator: CorelDRAW X6 -->
<svg xmlns="http://www.w3.org/2000/svg" xml:space="preserve" width="62.2949mm" height="41.1266mm" version="1.1" style="shape-rendering:geometricPrecision; text-rendering:geometricPrecision; image-rendering:optimizeQuality; fill-rule:evenodd; clip-rule:evenodd"
viewBox="0 0 9581 6325"
 xmlns:xlink="http://www.w3.org/1999/xlink">
 <defs>
  <style type="text/css">
   <![CDATA[
    .fil1 {fill:#FEFEFE}
    .fil0 {fill:blue}
   ]]>
  </style>
 </defs>
 <g id="Layer_x0020_1">
  <metadata id="CorelCorpID_0Corel-Layer"/>
  <polygon class="fil0" points="0,5998 0,327 0,309 2,292 4,276 7,260 10,244 15,229 20,214 26,199 32,184 39,170 47,157 56,144 65,131 74,119 85,107 95,95 107,85 119,74 131,65 144,56 157,47 170,39 184,32 199,26 214,20 229,15 244,10 260,7 276,4 292,2 309,0 327,0 9254,0 9272,0 9289,2 9305,4 9321,7 9337,10 9352,15 9367,20 9382,26 9396,32 9410,39 9424,47 9437,56 9450,65 9462,74 9474,85 9485,95 9496,107 9506,119 9516,131 9525,144 9534,157 9541,170 9549,184 9555,199 9561,214 9566,229 9570,244 9574,260 9577,276 9579,292 9580,309 9581,327 9581,5998 9580,6016 9579,6033 9577,6049 9574,6065 9570,6081 9566,6096 9561,6111 9555,6126 9549,6141 9541,6155 9534,6168 9525,6181 9516,6194 9506,6207 9496,6218 9485,6230 9474,6241 9462,6251 9450,6260 9437,6270 9424,6278 9410,6286 9396,6293 9382,6300 9367,6305 9352,6310 9337,6315 9321,6318 9305,6321 9289,6323 9272,6325 9254,6325 327,6325 309,6325 292,6323 276,6321 260,6318 244,6315 229,6310 214,6305 199,6300 184,6293 170,6286 157,6278 144,6270 131,6260 119,6251 107,6241 95,6230 85,6218 74,6207 65,6194 56,6181 47,6168 39,6155 32,6141 26,6126 20,6111 15,6096 10,6081 7,6065 4,6049 2,6033 0,6016 "/>
  <polygon class="fil1" points="1535,604 1535,4558 953,4325 1767,5837 2581,4325 2000,4558 1997,604 "/>
  <polygon class="fil1" points="4558,604 4558,4558 3977,4325 4791,5837 5605,4325 5023,4558 5021,604 "/>
  <polygon class="fil1" points="7581,5720 7581,1767 6999,2000 7813,488 8627,2000 8046,1767 8043,5720 "/>
 </g>
</svg>
