<?xml version="1.0" encoding="UTF-8"?>
<!DOCTYPE svg PUBLIC "-//W3C//DTD SVG 1.1//EN" "http://www.w3.org/Graphics/SVG/1.1/DTD/svg11.dtd">
<!-- Creator: CorelDRAW X6 -->
<svg xmlns="http://www.w3.org/2000/svg" xml:space="preserve" width="62.2949mm" height="41.1266mm" version="1.1" style="shape-rendering:geometricPrecision; text-rendering:geometricPrecision; image-rendering:optimizeQuality; fill-rule:evenodd; clip-rule:evenodd"
viewBox="0 0 1980 1307"
 xmlns:xlink="http://www.w3.org/1999/xlink">
 <defs>
  <style type="text/css">
   <![CDATA[
    .fil1 {fill:#FEFEFE}
    .fil0 {fill:blue}
    .fil2 {fill:#FEFEFE;fill-rule:nonzero}
   ]]>
  </style>
 </defs>
 <g id="Layer_x0020_1">
  <metadata id="CorelCorpID_0Corel-Layer"/>
  <polygon class="fil0" points="0,1240 0,68 0,64 0,60 1,57 1,54 2,50 3,47 4,44 5,41 7,38 8,35 10,32 11,30 13,27 15,24 17,22 20,20 22,17 24,15 27,13 30,11 32,10 35,8 38,7 41,5 44,4 47,3 50,2 54,1 57,1 60,0 64,0 68,0 1912,0 1916,0 1919,0 1923,1 1926,1 1929,2 1933,3 1936,4 1939,5 1942,7 1945,8 1947,10 1950,11 1953,13 1955,15 1958,17 1960,20 1962,22 1964,24 1966,27 1968,30 1970,32 1972,35 1973,38 1975,41 1976,44 1977,47 1978,50 1978,54 1979,57 1979,60 1980,64 1980,68 1980,1240 1980,1243 1979,1247 1979,1250 1978,1253 1978,1257 1977,1260 1976,1263 1975,1266 1973,1269 1972,1272 1970,1275 1968,1277 1966,1280 1964,1283 1962,1285 1960,1287 1958,1290 1955,1292 1953,1294 1950,1296 1947,1297 1945,1299 1942,1300 1939,1302 1936,1303 1933,1304 1929,1305 1926,1306 1923,1306 1919,1307 1916,1307 1912,1307 68,1307 64,1307 60,1307 57,1306 54,1306 50,1305 47,1304 44,1303 41,1302 38,1300 35,1299 32,1297 30,1296 27,1294 24,1292 22,1290 20,1287 17,1285 15,1283 13,1280 11,1277 10,1275 8,1272 7,1269 5,1266 4,1263 3,1260 2,1257 1,1253 1,1250 0,1247 0,1243 "/>
  <polygon class="fil1" points="317,106 317,298 197,250 365,562 533,250 415,298 415,106 "/>
  <path class="fil2" d="M365 1163l0 -72c0,-15 0,-17 0,-18 -2,-70 -2,-85 114,-179l0 0 336 -272 1 -1c29,-23 49,-43 62,-65 11,-19 16,-40 16,-66l0 0 0 -118 0 -27 -120 48 168 -312 177 312 -129 -48 0 25 0 119 0 0c0,42 -9,79 -28,113 -19,32 -46,62 -86,93l-336 272 0 0c-79,64 -79,71 -79,102 0,10 0,20 0,20l0 72 -96 0z"/>
  <path class="fil2" d="M1038 1163l0 -72c0,-15 0,-17 0,-18 -2,-70 -2,-85 114,-179l0 0 336 -272 1 -1c29,-23 49,-43 62,-65 11,-19 16,-40 16,-66l0 0 0 -118 0 -27 -120 48 168 -312 177 312 -129 -48 0 25 0 119 0 0c0,42 -9,79 -28,113 -19,32 -46,62 -86,93l-336 272 0 0c-79,64 -79,71 -79,102 0,10 0,20 0,20l0 72 -96 0z"/>
 </g>
</svg>
