<?xml version="1.0" encoding="UTF-8"?>
<!DOCTYPE svg PUBLIC "-//W3C//DTD SVG 1.1//EN" "http://www.w3.org/Graphics/SVG/1.1/DTD/svg11.dtd">
<!-- Creator: CorelDRAW X6 -->
<svg xmlns="http://www.w3.org/2000/svg" xml:space="preserve" width="62.2949mm" height="41.1266mm" version="1.1" style="shape-rendering:geometricPrecision; text-rendering:geometricPrecision; image-rendering:optimizeQuality; fill-rule:evenodd; clip-rule:evenodd"
viewBox="0 0 9762 6445"
 xmlns:xlink="http://www.w3.org/1999/xlink">
 <defs>
  <style type="text/css">
   <![CDATA[
    .fil2 {fill:none}
    .fil1 {fill:#FEFEFE}
    .fil0 {fill:blue}
   ]]>
  </style>
 </defs>
 <g id="Layer_x0020_1">
  <metadata id="CorelCorpID_0Corel-Layer"/>
  <polygon class="fil0" points="0,6112 0,333 0,315 2,298 4,281 7,265 10,249 15,233 20,218 26,203 33,188 40,174 48,160 57,146 66,133 76,121 86,109 97,97 109,86 121,76 133,66 146,57 160,48 174,40 188,33 203,26 218,20 233,15 249,10 265,7 281,4 298,2 315,0 333,0 9429,0 9447,0 9464,2 9481,4 9497,7 9513,10 9529,15 9544,20 9559,26 9574,33 9588,40 9602,48 9615,57 9628,66 9641,76 9653,86 9664,97 9675,109 9686,121 9696,133 9705,146 9714,160 9722,174 9729,188 9736,203 9741,218 9747,233 9751,249 9755,265 9758,281 9760,298 9761,315 9762,333 9762,6112 9761,6130 9760,6147 9758,6163 9755,6180 9751,6196 9747,6211 9741,6227 9736,6242 9729,6257 9722,6271 9714,6285 9705,6298 9696,6311 9686,6324 9675,6336 9664,6347 9653,6358 9641,6369 9628,6379 9615,6388 9602,6397 9588,6405 9574,6412 9559,6418 9544,6424 9529,6430 9513,6434 9497,6438 9481,6441 9464,6443 9447,6444 9429,6445 333,6445 315,6444 298,6443 281,6441 265,6438 249,6434 233,6430 218,6424 203,6418 188,6412 174,6405 160,6397 146,6388 133,6379 121,6369 109,6358 97,6347 86,6336 76,6324 66,6311 57,6298 48,6285 40,6271 33,6257 26,6242 20,6227 15,6211 10,6196 7,6180 4,6163 2,6147 0,6130 "/>
  <polygon class="fil1" points="2035,5734 2035,1706 2628,1943 1798,402 969,1943 1561,1706 1564,5734 "/>
  <polygon class="fil1" points="4407,5734 4407,1706 3815,1943 4644,402 5473,1943 4881,1706 4878,5734 "/>
  <path class="fil1" d="M7251 1813l0 -1 0 -106 -592 237 829 -1540 829 1540 -592 -237 0 107 0 0 -1 0 1 1255c0,196 18,324 85,462 41,84 104,173 184,289l1234 1786 -368 294 -1276 -1833c-87,-125 -154,-227 -199,-329 -104,-212 -131,-396 -131,-669l-1 -1255 0 0z"/>
  <path class="fil2" d="M7487 1631l1 1437c-1,469 90,624 592,1244l948 1185"/>
 </g>
</svg>
