<?xml version="1.0" encoding="UTF-8"?>
<!DOCTYPE svg PUBLIC "-//W3C//DTD SVG 1.1//EN" "http://www.w3.org/Graphics/SVG/1.1/DTD/svg11.dtd">
<!-- Creator: CorelDRAW X6 -->
<svg xmlns="http://www.w3.org/2000/svg" xml:space="preserve" width="40.9098mm" height="61.9664mm" version="1.1" style="shape-rendering:geometricPrecision; text-rendering:geometricPrecision; image-rendering:optimizeQuality; fill-rule:evenodd; clip-rule:evenodd"
viewBox="0 0 1410 2135"
 xmlns:xlink="http://www.w3.org/1999/xlink">
 <defs>
  <style type="text/css">
   <![CDATA[
    .fil1 {fill:#FEFEFE}
    .fil0 {fill:blue}
   ]]>
  </style>
 </defs>
 <g id="Layer_x0020_1">
  <metadata id="CorelCorpID_0Corel-Layer"/>
  <g id="_851297584">
   <polygon class="fil0" points="73,0 1337,0 1341,0 1344,0 1348,1 1352,1 1355,2 1359,3 1362,4 1365,6 1368,7 1372,9 1375,10 1378,12 1380,14 1383,17 1386,19 1388,21 1391,24 1393,26 1395,29 1397,32 1399,35 1401,38 1402,41 1404,44 1405,48 1406,51 1407,54 1408,58 1409,61 1409,65 1410,69 1410,73 1410,2062 1410,2066 1409,2070 1409,2074 1408,2077 1407,2081 1406,2084 1405,2088 1404,2091 1402,2094 1401,2097 1399,2100 1397,2103 1395,2106 1393,2109 1391,2111 1388,2114 1386,2116 1383,2119 1380,2121 1378,2123 1375,2125 1372,2126 1368,2128 1365,2129 1362,2131 1359,2132 1355,2133 1352,2134 1348,2134 1344,2135 1341,2135 1337,2135 73,2135 69,2135 65,2135 61,2134 58,2134 54,2133 51,2132 48,2131 44,2129 41,2128 38,2126 35,2125 32,2123 29,2121 26,2119 24,2116 21,2114 19,2111 17,2109 14,2106 12,2103 10,2100 9,2097 7,2094 6,2091 4,2088 3,2084 2,2081 1,2077 1,2074 0,2070 0,2066 0,2062 0,73 0,69 0,65 1,61 1,58 2,54 3,51 4,48 6,44 7,41 9,38 10,35 12,32 14,29 17,26 19,24 21,21 24,19 26,17 29,14 32,12 35,10 38,9 41,7 44,6 48,4 51,3 54,2 58,1 61,1 65,0 69,0 "/>
   <polygon class="fil1" points="169,589 1020,311 1011,450 1275,174 898,106 988,213 137,491 "/>
   <polygon class="fil1" points="169,1108 1020,831 1011,970 1275,693 898,625 988,732 137,1010 "/>
   <path class="fil1" d="M1019 1387l1 0 -9 139 264 -277 -376 -68 89 107 -32 10 0 0 0 1 -8 3 0 0c-190,62 -290,150 -343,255 -52,104 -56,219 -56,339l0 104 104 0 0 -104c0,-108 3,-210 45,-293 41,-82 123,-152 283,-204l1 0 37 -13z"/>
  </g>
 </g>
</svg>
