<?xml version="1.0" encoding="utf-8"?>
<!-- Generator: Adobe Illustrator 16.0.0, SVG Export Plug-In . SVG Version: 6.00 Build 0)  -->
<!DOCTYPE svg PUBLIC "-//W3C//DTD SVG 1.1//EN" "http://www.w3.org/Graphics/SVG/1.1/DTD/svg11.dtd">
<svg version="1.1" id="Layer_1" xmlns="http://www.w3.org/2000/svg" xmlns:xlink="http://www.w3.org/1999/xlink" x="0px" y="0px"
	 width="80.024px" height="80.021px" viewBox="0 0 80.024 80.021" enable-background="new 0 0 80.024 80.021" xml:space="preserve">
<path fill="none" stroke="#231F20" stroke-width="0.0216" stroke-miterlimit="22.9256" d="M74.903,80.01l-0.035,0.001
	c2.827,0,5.144-2.318,5.144-5.145l0.002-69.698c0-2.84-2.318-5.158-5.158-5.158L5.142,0.022c-2.84,0-5.127,2.303-5.127,5.143
	L0.011,74.866c0,2.84,2.303,5.145,5.144,5.145L74.903,80.01z"/>
<polygon fill-rule="evenodd" clip-rule="evenodd" fill="#0001FE" points="75.066,78.86 75.269,78.845 75.467,78.819 75.663,78.784 
	75.855,78.739 76.044,78.686 76.229,78.623 76.41,78.55 76.587,78.47 76.759,78.382 76.927,78.285 77.09,78.18 77.247,78.067 
	77.398,77.948 77.544,77.822 77.684,77.688 77.817,77.549 77.944,77.403 78.063,77.251 78.176,77.094 78.28,76.932 78.377,76.763 
	78.466,76.59 78.546,76.414 78.617,76.232 78.681,76.048 78.734,75.858 78.779,75.667 78.814,75.471 78.84,75.272 78.855,75.069 
	78.861,74.85 78.863,5.18 78.857,4.959 78.842,4.756 78.816,4.556 78.781,4.359 78.735,4.166 78.682,3.976 78.619,3.79 
	78.547,3.608 78.467,3.431 78.377,3.258 78.28,3.09 78.176,2.927 78.063,2.769 77.943,2.616 77.816,2.47 77.684,2.33 77.544,2.197 
	77.397,2.07 77.245,1.95 77.087,1.838 76.924,1.733 76.756,1.636 76.583,1.547 76.405,1.467 76.224,1.395 76.038,1.332 
	75.848,1.278 75.655,1.233 75.458,1.197 75.258,1.172 75.055,1.157 74.833,1.151 5.149,1.162 4.929,1.168 4.726,1.183 4.525,1.208 
	4.329,1.244 4.136,1.289 3.947,1.342 3.763,1.405 3.582,1.476 3.406,1.556 3.235,1.644 3.068,1.74 2.906,1.844 2.751,1.956 
	2.6,2.074 2.455,2.2 2.317,2.332 2.186,2.471 2.06,2.616 1.941,2.768 1.831,2.925 1.728,3.087 1.631,3.254 1.543,3.427 1.464,3.604 
	1.393,3.785 1.33,3.971 1.277,4.16 1.232,4.354 1.197,4.55 1.173,4.751 1.157,4.955 1.151,5.176 1.147,74.85 1.153,75.071 
	1.169,75.274 1.194,75.476 1.229,75.671 1.274,75.865 1.328,76.054 1.391,76.24 1.462,76.421 1.542,76.598 1.63,76.771 
	1.727,76.938 1.831,77.101 1.942,77.257 2.062,77.408 2.188,77.554 2.32,77.693 2.459,77.826 2.604,77.952 2.756,78.071 
	2.913,78.183 3.075,78.287 3.242,78.383 3.415,78.472 3.592,78.552 3.772,78.623 3.958,78.686 4.147,78.74 4.341,78.784 
	4.537,78.819 4.737,78.845 4.94,78.86 5.162,78.866 74.882,78.865 "/>
<path fill="#FFFFFF" d="M26.276,72.462L15.248,54.106l7.563,1.916V23.847c1.318-9.182,8.865-16.883,18.852-16.91
	c10.43-0.041,18.303,8.587,18.903,16.883v48.186l-6.485,0.028l0.053-48.147C51.178,9.858,32.741,9.55,29.429,23.763L29.42,55.968
	l7.356-2.053L26.276,72.462z"/>
</svg>
