<?xml version="1.0" encoding="UTF-8"?>
<!DOCTYPE svg PUBLIC "-//W3C//DTD SVG 1.1//EN" "http://www.w3.org/Graphics/SVG/1.1/DTD/svg11.dtd">
<!-- Creator: CorelDRAW X6 -->
<svg xmlns="http://www.w3.org/2000/svg" xml:space="preserve" width="35.1926mm" height="35.1927mm" version="1.1" style="shape-rendering:geometricPrecision; text-rendering:geometricPrecision; image-rendering:optimizeQuality; fill-rule:evenodd; clip-rule:evenodd"
viewBox="0 0 630 630"
 xmlns:xlink="http://www.w3.org/1999/xlink">
 <defs>
  <style type="text/css">
   <![CDATA[
    .fil0 {fill:blue}
    .fil1 {fill:#FEFEFE;fill-rule:nonzero}
   ]]>
  </style>
 </defs>
 <g id="Layer_x0020_1">
  <metadata id="CorelCorpID_0Corel-Layer"/>
  <polygon class="fil0" points="599,630 601,630 603,630 604,629 606,629 607,629 609,628 610,628 612,627 613,626 614,625 616,625 617,624 618,623 619,622 621,621 622,619 623,618 624,617 625,616 625,614 626,613 627,612 628,610 628,609 629,607 629,606 629,604 630,603 630,601 630,599 630,598 630,33 630,31 630,29 630,28 629,26 629,24 629,23 628,21 628,20 627,18 626,17 625,16 625,14 624,13 623,12 622,11 621,10 619,8 618,7 617,6 616,6 614,5 613,4 612,3 610,3 609,2 607,1 606,1 604,1 603,0 601,0 599,0 597,0 32,0 31,0 29,0 27,0 26,1 24,1 23,2 21,2 20,3 18,3 17,4 16,5 14,6 13,7 12,7 11,9 9,10 8,11 7,12 6,13 6,14 5,16 4,17 3,18 3,20 2,21 1,23 1,24 1,26 0,28 0,29 0,31 0,33 0,598 0,599 0,601 0,603 1,604 1,606 1,607 2,609 3,610 3,612 4,613 5,614 6,616 6,617 7,618 8,619 10,621 11,622 12,623 13,624 14,625 16,625 17,626 18,627 20,628 21,628 23,629 24,629 26,629 27,630 29,630 31,630 33,630 598,630 "/>
  <polygon class="fil1" points="97,426 97,386 205,156 256,156 148,383 230,383 230,292 275,292 275,383 301,383 301,426 275,426 275,474 230,474 230,426 "/>
  <path class="fil1" d="M352 386l0 -142c0,-50 41,-91 91,-91 50,0 91,41 91,91l0 142c0,50 -41,91 -91,91 -50,0 -91,-41 -91,-91zm45 0c0,25 20,45 45,45 25,0 45,-20 45,-45l0 -142c0,-25 -20,-45 -45,-45 -25,0 -45,20 -45,45l0 142z"/>
 </g>
</svg>
