<?xml version="1.0" encoding="UTF-8"?>
<!DOCTYPE svg PUBLIC "-//W3C//DTD SVG 1.1//EN" "http://www.w3.org/Graphics/SVG/1.1/DTD/svg11.dtd">
<!-- Creator: CorelDRAW X6 -->
<svg xmlns="http://www.w3.org/2000/svg" xml:space="preserve" width="56.88mm" height="23.76mm" version="1.1" style="shape-rendering:geometricPrecision; text-rendering:geometricPrecision; image-rendering:optimizeQuality; fill-rule:evenodd; clip-rule:evenodd"
viewBox="0 0 1594 666"
 xmlns:xlink="http://www.w3.org/1999/xlink">
 <defs>
  <style type="text/css">
   <![CDATA[
    .fil2 {fill:#FEFEFE}
    .fil0 {fill:blue}
    .fil1 {fill:#FEFEFE;fill-rule:nonzero}
   ]]>
  </style>
 </defs>
 <g id="Layer_x0020_1">
  <metadata id="CorelCorpID_0Corel-Layer"/>
  <polygon class="fil0" points="1594,595 1594,71 1594,67 1593,63 1593,60 1592,56 1592,53 1591,50 1590,46 1588,43 1587,40 1585,37 1584,34 1582,31 1580,28 1578,26 1575,23 1573,21 1571,18 1568,16 1565,14 1563,12 1560,10 1557,9 1554,7 1551,6 1547,4 1544,3 1541,2 1537,1 1534,1 1530,0 1527,0 1523,0 71,0 67,0 63,0 60,1 56,1 53,2 50,3 46,4 43,6 40,7 37,9 34,10 31,12 28,14 26,16 23,18 21,21 18,23 16,26 14,28 12,31 10,34 9,37 7,40 6,43 4,46 3,50 2,53 1,56 1,60 0,63 0,67 0,71 0,595 0,599 0,602 1,606 1,609 2,613 3,616 4,619 6,623 7,626 9,629 10,632 12,635 14,637 16,640 18,643 21,645 23,647 26,650 28,652 31,654 34,656 37,657 40,659 43,660 46,661 50,663 53,664 56,664 60,665 63,665 67,666 71,666 1523,666 1527,666 1530,665 1534,665 1537,664 1541,664 1544,663 1547,661 1551,660 1554,659 1557,657 1560,656 1563,654 1565,652 1568,650 1571,647 1573,645 1575,643 1578,640 1580,637 1582,635 1584,632 1585,629 1587,626 1588,623 1590,619 1591,616 1592,613 1592,609 1593,606 1593,602 1594,599 "/>
  <polygon class="fil1" points="349,284 349,594 279,594 279,285 189,308 315,92 439,308 "/>
  <path class="fil1" d="M912 415l0 -262c0,-16 12,-25 28,-25l437 0c19,-1 27,13 27,25l0 263 -492 0z"/>
  <path class="fil1" d="M1337 522c2,-33 -19,-72 -60,-83l127 0 0 43 -67 40z"/>
  <path class="fil2" d="M769 451c40,0 72,32 72,72 0,40 -32,72 -72,72 -40,0 -72,-32 -72,-72 0,-40 32,-72 72,-72zm0 35c20,0 36,16 36,36 0,20 -16,36 -36,36 -20,0 -36,-16 -36,-36 0,-20 16,-36 36,-36z"/>
  <path class="fil2" d="M1250 451c40,0 72,32 72,72 0,40 -32,72 -72,72 -40,0 -72,-32 -72,-72 0,-40 32,-72 72,-72zm0 35c20,0 36,16 36,36 0,20 -16,36 -36,36 -20,0 -36,-16 -36,-36 0,-20 16,-36 36,-36z"/>
  <path class="fil2" d="M681 523l-16 0c-14,-1 -25,-12 -26,-26l0 -134c0,-8 2,-16 6,-23l77 -103c3,-5 8,-9 15,-10l128 0c5,1 16,4 15,15l0 197 340 0c-36,14 -59,39 -62,84l-303 0c0,-48 -39,-88 -88,-88 -48,0 -88,39 -88,87zm14 -185c-6,0 -8,-7 -5,-11l52 -73 102 0 0 84 -149 0z"/>
 </g>
</svg>
