<?xml version="1.0" encoding="UTF-8"?>
<!DOCTYPE svg PUBLIC "-//W3C//DTD SVG 1.1//EN" "http://www.w3.org/Graphics/SVG/1.1/DTD/svg11.dtd">
<!-- Creator: CorelDRAW X6 -->
<svg xmlns="http://www.w3.org/2000/svg" xml:space="preserve" width="56.88mm" height="23.76mm" version="1.1" style="shape-rendering:geometricPrecision; text-rendering:geometricPrecision; image-rendering:optimizeQuality; fill-rule:evenodd; clip-rule:evenodd"
viewBox="0 0 5656 2363"
 xmlns:xlink="http://www.w3.org/1999/xlink">
 <defs>
  <style type="text/css">
   <![CDATA[
    .fil2 {fill:#FEFEFE}
    .fil0 {fill:blue}
    .fil1 {fill:#FEFEFE;fill-rule:nonzero}
   ]]>
  </style>
 </defs>
 <g id="Layer_x0020_1">
  <metadata id="CorelCorpID_0Corel-Layer"/>
  <polygon class="fil0" points="5656,2111 5656,251 5656,238 5655,225 5653,212 5651,200 5648,188 5645,176 5641,164 5636,153 5631,142 5626,131 5620,121 5613,111 5606,101 5599,91 5591,82 5583,73 5574,65 5565,57 5555,50 5546,43 5535,36 5525,30 5514,25 5503,20 5492,15 5480,11 5468,8 5456,5 5444,3 5431,1 5418,0 5405,0 251,0 238,0 225,1 212,3 200,5 188,8 176,11 164,15 153,20 142,25 131,30 121,36 111,43 101,50 91,57 82,65 73,73 65,82 57,91 50,101 43,111 36,121 30,131 25,142 20,153 15,164 11,176 8,188 5,200 3,212 1,225 0,238 0,251 0,2111 0,2125 1,2138 3,2150 5,2163 8,2175 11,2187 15,2198 20,2210 25,2221 30,2231 36,2242 43,2252 50,2262 57,2271 65,2281 73,2289 82,2298 91,2305 101,2313 111,2320 121,2326 131,2332 142,2338 153,2343 164,2347 176,2351 188,2355 200,2358 212,2360 225,2361 238,2362 251,2363 5405,2363 5418,2362 5431,2361 5444,2360 5456,2358 5468,2355 5480,2351 5492,2347 5503,2343 5514,2338 5525,2332 5535,2326 5546,2320 5555,2313 5565,2305 5574,2298 5583,2289 5591,2281 5599,2271 5606,2262 5613,2252 5620,2242 5626,2231 5631,2221 5636,2210 5641,2198 5645,2187 5648,2175 5651,2163 5653,2150 5655,2138 5656,2125 "/>
  <path class="fil1" d="M4047 1488l0 -931c0,-57 -42,-89 -100,-89l-1550 0c-66,-2 -97,47 -97,88l0 932 1748 0z"/>
  <path class="fil1" d="M2539 1869c-6,-119 69,-255 211,-296l-452 -1 1 154 239 144z"/>
  <path class="fil2" d="M4554 1618c-140,0 -254,114 -254,254 0,140 114,254 254,254 140,0 254,-114 254,-254 0,-140 -114,-254 -254,-254zm0 125c-71,0 -129,58 -129,129 0,71 58,129 129,129 71,0 129,-58 129,-129 0,-71 -58,-129 -129,-129z"/>
  <path class="fil2" d="M2845 1618c-140,0 -254,114 -254,254 0,140 114,254 254,254 140,0 254,-114 254,-254 0,-140 -114,-254 -254,-254zm0 125c-71,0 -129,58 -129,129 0,71 58,129 129,129 71,0 129,-58 129,-129 0,-71 -58,-129 -129,-129z"/>
  <path class="fil2" d="M4865 1871l56 0c49,-2 90,-44 91,-91l0 -474c1,-29 -7,-57 -22,-82l-275 -367c-12,-19 -30,-31 -53,-36l-456 -1c-17,2 -57,13 -55,52l0 700 -1205 0c127,48 211,139 221,299l1075 0c0,-172 139,-311 311,-311 172,0 311,139 311,310zm-51 -658c22,-2 27,-23 17,-38l-184 -260 -361 0 0 299 529 0z"/>
  <path class="fil1" d="M1849 1203l-751 429 85 -312 -252 0c-243,70 -251,265 -253,484l0 306 -252 -1 1 -454c7,-324 199,-546 496,-579l256 1 -78 -313 748 440z"/>
 </g>
</svg>
