<?xml version="1.0" encoding="UTF-8"?>
<!DOCTYPE svg PUBLIC "-//W3C//DTD SVG 1.1//EN" "http://www.w3.org/Graphics/SVG/1.1/DTD/svg11.dtd">
<!-- Creator: CorelDRAW X6 -->
<svg xmlns="http://www.w3.org/2000/svg" xml:space="preserve" width="56.88mm" height="23.76mm" version="1.1" style="shape-rendering:geometricPrecision; text-rendering:geometricPrecision; image-rendering:optimizeQuality; fill-rule:evenodd; clip-rule:evenodd"
viewBox="0 0 3592 1500"
 xmlns:xlink="http://www.w3.org/1999/xlink">
 <defs>
  <style type="text/css">
   <![CDATA[
    .fil2 {fill:#FEFEFE}
    .fil0 {fill:blue}
    .fil1 {fill:#FEFEFE;fill-rule:nonzero}
   ]]>
  </style>
 </defs>
 <g id="Layer_x0020_1">
  <metadata id="CorelCorpID_0Corel-Layer"/>
  <polygon class="fil0" points="3592,1341 3592,160 3592,151 3591,143 3590,135 3589,127 3587,119 3585,112 3582,104 3580,97 3576,90 3573,83 3569,77 3565,70 3560,64 3556,58 3551,52 3545,47 3540,41 3534,36 3528,32 3522,27 3515,23 3509,19 3502,16 3495,13 3488,10 3480,7 3473,5 3465,3 3457,2 3449,1 3441,0 3432,0 160,0 151,0 143,1 135,2 127,3 119,5 112,7 104,10 97,13 90,16 83,19 77,23 70,27 64,32 58,36 52,41 47,47 41,52 36,58 32,64 27,70 23,77 19,83 16,90 13,97 10,104 7,112 5,119 3,127 2,135 1,143 0,151 0,160 0,1341 0,1350 1,1358 2,1366 3,1373 5,1381 7,1389 10,1396 13,1403 16,1410 19,1417 23,1424 27,1430 32,1437 36,1443 41,1448 47,1454 52,1459 58,1464 64,1469 70,1473 77,1477 83,1481 90,1485 97,1488 104,1491 112,1493 119,1495 127,1497 135,1499 143,1500 151,1500 160,1500 3432,1500 3441,1500 3449,1500 3457,1499 3465,1497 3473,1495 3480,1493 3488,1491 3495,1488 3502,1485 3509,1481 3515,1477 3522,1473 3528,1469 3534,1464 3540,1459 3545,1454 3551,1448 3556,1443 3560,1437 3565,1430 3569,1424 3573,1417 3576,1410 3580,1403 3582,1396 3585,1389 3587,1381 3589,1373 3590,1366 3591,1358 3592,1350 "/>
  <path class="fil1" d="M2073 945l0 -591c0,-36 27,-57 64,-57l985 0c42,-1 62,30 62,56l0 592 -1110 0z"/>
  <path class="fil1" d="M3030 1187c4,-75 -44,-162 -134,-188l287 0 -1 98 -152 91z"/>
  <path class="fil2" d="M1751 1028c89,0 161,72 161,161 0,89 -72,161 -161,161 -89,0 -161,-72 -161,-161 0,-89 72,-161 161,-161zm0 79c45,0 82,37 82,82 0,45 -37,82 -82,82 -45,0 -82,-37 -82,-82 0,-45 37,-82 82,-82z"/>
  <path class="fil2" d="M2836 1028c89,0 161,72 161,161 0,89 -72,161 -161,161 -89,0 -161,-72 -161,-161 0,-89 72,-161 161,-161zm0 79c45,0 82,37 82,82 0,45 -37,82 -82,82 -45,0 -82,-37 -82,-82 0,-45 37,-82 82,-82z"/>
  <path class="fil2" d="M1553 1189l-36 0c-31,-1 -57,-28 -58,-58l0 -301c-1,-19 4,-36 14,-52l175 -233c8,-12 19,-20 34,-23l289 0c11,1 36,8 35,33l0 445 765 0c-81,30 -134,88 -140,190l-683 0c0,-109 -89,-197 -198,-197 -109,0 -197,88 -198,197zm32 -418c-14,-1 -17,-15 -11,-24l117 -165 229 0 0 190 -336 0z"/>
  <path class="fil1" d="M135 754l477 272 -54 -198 160 0c154,44 159,168 160,307l0 194 160 0 -1 -289c-5,-206 -127,-346 -315,-368l-162 0 50 -199 -475 279z"/>
 </g>
</svg>
