<?xml version="1.0" encoding="UTF-8"?>
<!DOCTYPE svg PUBLIC "-//W3C//DTD SVG 1.1//EN" "http://www.w3.org/Graphics/SVG/1.1/DTD/svg11.dtd">
<!-- Creator: CorelDRAW X6 -->
<svg xmlns="http://www.w3.org/2000/svg" xml:space="preserve" width="35.0897mm" height="35.0896mm" version="1.1" style="shape-rendering:geometricPrecision; text-rendering:geometricPrecision; image-rendering:optimizeQuality; fill-rule:evenodd; clip-rule:evenodd"
viewBox="0 0 672 672"
 xmlns:xlink="http://www.w3.org/1999/xlink">
 <defs>
  <style type="text/css">
   <![CDATA[
    .fil0 {fill:blue}
    .fil1 {fill:#FEFEFE;fill-rule:nonzero}
   ]]>
  </style>
 </defs>
 <g id="Layer_x0020_1">
  <metadata id="CorelCorpID_0Corel-Layer"/>
  <polygon class="fil0" points="639,672 641,672 642,671 644,671 646,671 647,670 649,670 651,669 652,668 654,668 655,667 656,666 658,665 659,664 660,663 662,662 663,660 664,659 665,658 666,656 667,655 668,654 668,652 669,651 670,649 670,647 671,646 671,644 671,642 672,641 672,639 672,637 672,35 672,33 672,31 671,29 671,28 671,26 670,24 670,23 669,21 668,20 668,18 667,17 666,15 665,14 664,13 663,11 662,10 660,9 659,8 658,7 656,6 655,5 654,4 652,3 651,3 649,2 647,2 646,1 644,1 642,0 641,0 639,0 637,0 35,0 33,0 31,0 29,0 27,1 26,1 24,2 23,2 21,3 20,4 18,4 17,5 15,6 14,7 13,8 11,9 10,10 9,11 8,13 7,14 6,15 5,17 4,18 3,20 3,21 2,23 2,24 1,26 1,28 0,29 0,31 0,33 0,35 0,637 0,639 0,641 0,642 1,644 1,646 2,647 2,649 3,651 3,652 4,654 5,655 6,656 7,658 8,659 9,660 10,662 11,663 13,664 14,665 15,666 17,667 18,668 20,668 21,669 23,670 24,670 26,671 28,671 29,671 31,672 33,672 35,672 637,672 "/>
  <polygon class="fil1" points="53,632 53,597 229,597 229,562 411,562 411,526 618,526 618,562 443,562 443,597 262,597 262,632 "/>
  <path class="fil1" d="M276 532l58 -212 -12 -59 -39 74c-16,25 -42,7 -31,-14l56 -108 59 -38 84 69 15 70c1,18 -16,24 -29,9l-13 -59 -23 -18 -5 68 40 107 70 59c13,21 -12,44 -29,28l-76 -60 -34 -78 -50 170c-13,29 -46,17 -43,-9z"/>
  <path class="fil1" d="M329 111c18,0 33,15 33,33 0,18 -15,33 -33,33 -18,0 -33,-15 -33,-33 0,-18 15,-33 33,-33z"/>
 </g>
</svg>
