<?xml version="1.0" encoding="UTF-8"?>
<!DOCTYPE svg PUBLIC "-//W3C//DTD SVG 1.1//EN" "http://www.w3.org/Graphics/SVG/1.1/DTD/svg11.dtd">
<!-- Creator: CorelDRAW X6 -->
<svg xmlns="http://www.w3.org/2000/svg" xml:space="preserve" width="78.5776mm" height="94.2932mm" version="1.1" style="shape-rendering:geometricPrecision; text-rendering:geometricPrecision; image-rendering:optimizeQuality; fill-rule:evenodd; clip-rule:evenodd"
viewBox="0 0 3016 3619"
 xmlns:xlink="http://www.w3.org/1999/xlink">
 <defs>
  <style type="text/css">
   <![CDATA[
    .str1 {stroke:#2B2A29;stroke-width:0.0383821}
    .str0 {stroke:#2B2A29;stroke-width:2.92472}
    .fil1 {fill:#2B2A29}
    .fil3 {fill:#FEFEFE}
    .fil4 {fill:red}
    .fil0 {fill:yellow}
    .fil2 {fill:#2B2A29;fill-rule:nonzero}
   ]]>
  </style>
 </defs>
 <g id="Layer_x0020_1">
  <metadata id="CorelCorpID_0Corel-Layer"/>
  <path class="fil0" d="M854 0l2017 0 0 0c80,0 145,65 145,145l0 0 0 3330 0 0c0,80 -65,145 -145,145l0 0 -2017 0 -709 0 0 0 0 0c-80,0 -145,-65 -145,-145l0 0 0 0 0 -3329 0 0 0 0c0,-80 65,-145 145,-145l0 0 0 0 709 0z"/>
  <path class="fil1 str0" d="M854 3571l2017 0c53,0 97,-43 97,-97l0 -3330c0,-53 -43,-97 -97,-97l-2017 0 -709 0c-53,0 -97,43 -97,97l0 3330c0,53 43,97 97,97l709 0zm0 -3450l2017 0c13,0 24,11 24,24l0 3330c0,13 -11,24 -24,24l-2017 0 -709 0c-13,0 -24,-11 -24,-24l0 -3330c0,-13 11,-24 24,-24l709 0z"/>
  <path class="fil2" d="M489 2294l-139 0 0 -23 62 0 -62 -47 0 -31 54 43 85 -45 0 30 -65 31 23 19 42 0 0 23zm-70 -131l-4 20c-10,-2 -17,-6 -22,-12 -4,-6 -7,-13 -7,-24 0,-9 1,-16 4,-21 3,-5 6,-8 11,-10 4,-2 13,-3 24,-3l31 0c9,0 15,0 19,-1 4,-1 9,-2 14,-4l0 22 -11 3c4,4 8,8 10,12 2,4 3,9 3,14 0,8 -3,15 -8,20 -5,5 -13,8 -22,8 -6,0 -11,-1 -15,-3 -4,-2 -8,-5 -10,-9 -3,-4 -5,-10 -7,-18 -2,-10 -5,-17 -7,-21 -6,0 -9,0 -11,1 -2,1 -3,2 -4,4 -1,2 -2,5 -2,9 0,4 1,7 3,9 2,2 5,4 10,5zm22 -29c1,3 2,7 4,13 2,7 4,11 6,13 2,2 5,3 8,3 4,0 7,-1 10,-3 3,-2 4,-5 4,-9 0,-3 -1,-6 -3,-9 -2,-3 -5,-5 -8,-6 -3,-1 -8,-2 -16,-2l-5 0zm48 -43l-139 0 0 -22 139 0 0 22zm0 -119l0 22 -51 0c-10,0 -17,0 -21,1 -3,1 -6,2 -8,5 -2,2 -3,5 -3,8 0,4 1,7 4,10 2,3 6,5 10,6 4,1 12,2 24,2l46 0 0 22 -101 0 0 -20 15 0c-6,-4 -10,-8 -13,-12 -3,-5 -4,-10 -4,-15 0,-6 2,-12 5,-16 3,-4 8,-7 13,-9 5,-2 13,-3 23,-3l63 0zm-71 -94l5 22c-11,2 -16,7 -16,15 0,5 2,10 7,13 5,3 12,5 23,5 12,0 20,-2 25,-5 5,-3 7,-8 7,-13 0,-4 -1,-7 -4,-10 -3,-3 -8,-5 -15,-6l4 -22c24,4 36,17 36,38 0,13 -5,23 -15,30 -10,7 -23,10 -37,10 -17,0 -30,-4 -39,-11 -9,-7 -14,-17 -14,-29 0,-10 3,-18 8,-24 5,-6 13,-10 24,-13zm-43 -17l-25 0 0 -22 25 0 0 22zm114 0l-101 0 0 -22 101 0 0 22zm-32 -92l4 -22c10,3 18,7 23,14 5,6 7,14 7,22 0,12 -4,22 -12,28 -9,8 -23,12 -40,12 -17,0 -30,-4 -40,-12 -9,-7 -13,-15 -13,-26 0,-12 4,-21 13,-28 10,-8 25,-12 44,-12l3 0 0 55c8,0 14,-2 18,-5 4,-3 7,-8 7,-12 0,-7 -5,-12 -14,-14zm-27 -1c-8,0 -14,2 -18,5 -4,3 -6,7 -6,11 0,5 2,9 6,12 4,3 10,5 17,5l0 -33zm-42 -38l0 -20 14 0c-5,-4 -9,-8 -12,-12 -3,-4 -4,-9 -4,-14 0,-5 1,-10 4,-14 3,-4 7,-7 12,-10 -5,-4 -9,-8 -12,-12 -3,-4 -4,-9 -4,-13 0,-6 1,-10 4,-15 3,-4 7,-7 12,-9 5,-2 13,-3 23,-3l64 0 0 22 -57 0c-10,0 -17,1 -20,3 -3,2 -5,5 -5,9 0,5 2,9 7,12 5,3 14,4 27,4l48 0 0 22 -55 0c-11,0 -18,1 -21,2 -4,2 -6,5 -6,10 0,3 1,6 3,9 2,3 5,5 9,6 4,1 11,2 21,2l49 0 0 22 -101 0zm31 -159l-4 20c-10,-2 -17,-6 -22,-12 -4,-6 -7,-13 -7,-24 0,-9 1,-16 4,-21 3,-5 6,-8 11,-10 4,-2 13,-3 24,-3l31 0c9,0 15,0 19,-1 4,-1 9,-2 14,-4l0 22 -11 3c4,4 8,8 10,12 2,4 3,9 3,14 0,8 -3,15 -8,20 -5,5 -13,8 -22,8 -6,0 -11,-1 -15,-3 -4,-2 -8,-5 -10,-9 -3,-4 -5,-10 -7,-18 -2,-10 -5,-17 -7,-21 -6,0 -9,0 -11,1 -2,1 -3,2 -4,4 -1,2 -2,5 -2,9 0,4 1,7 3,9 2,2 5,4 10,5zm22 -29c1,3 2,7 4,13 2,7 4,11 6,13 2,2 5,3 8,3 4,0 7,-1 10,-3 3,-2 4,-5 4,-9 0,-3 -1,-6 -3,-9 -2,-3 -5,-5 -8,-6 -3,-1 -8,-2 -16,-2l-5 0z"/>
  <polygon class="fil1" points="645,444 645,3277 558,3277 558,444 "/>
  <polygon class="fil1" points="2311,444 2311,3277 2224,3277 2224,444 "/>
  <polygon class="fil1" points="2475,783 309,783 309,696 2475,696 "/>
  <polygon class="fil1" points="2475,1322 309,1322 309,1235 2475,1235 "/>
  <polygon class="fil1" points="2475,2151 530,2151 530,2064 2475,2064 "/>
  <polygon class="fil1" points="2474,3142 529,3142 529,3055 2474,3055 "/>
  <path class="fil2" d="M2666 2114l-139 41 0 -25 103 -29 -103 -28 0 -24 139 41 0 25zm-52 -60c-10,0 -19,-2 -27,-6 -8,-4 -14,-9 -18,-15 -4,-6 -6,-13 -6,-21 0,-13 5,-24 16,-31 10,-8 23,-11 36,-11 10,0 20,2 28,6 8,4 15,9 19,16 4,6 6,13 6,21 0,12 -5,22 -14,31 -9,8 -23,12 -40,12zm1 -22c10,0 18,-2 23,-6 5,-4 8,-9 8,-14 0,-6 -3,-10 -8,-14 -5,-4 -13,-6 -23,-6 -10,0 -18,2 -23,6 -5,4 -8,9 -8,14 0,5 3,10 8,14 5,4 13,6 23,6zm50 -80l-139 0 0 -22 139 0 0 22zm7 -42l4 -25c4,0 6,-2 8,-3 2,-2 2,-5 2,-9 0,-5 -1,-9 -2,-12 -1,-2 -3,-4 -6,-5 -3,-1 -7,-2 -14,-2l-15 0c5,3 10,7 12,11 3,4 4,9 4,14 0,9 -4,17 -12,23 -9,7 -22,11 -38,11 -17,0 -30,-3 -39,-10 -9,-7 -13,-15 -13,-25 0,-5 1,-10 4,-14 3,-4 7,-8 12,-11l-14 0 0 -20 90 0c14,0 25,1 31,4 7,3 11,7 15,12 3,6 5,13 5,23 0,9 -1,16 -4,22 -2,5 -6,10 -11,12 -5,3 -10,4 -17,4l-3 0zm-59 -20c11,0 19,-2 23,-5 5,-3 7,-8 7,-12 0,-5 -2,-10 -7,-13 -5,-4 -13,-6 -23,-6 -10,0 -18,2 -23,5 -5,4 -8,8 -8,13 0,5 2,9 7,13 5,3 12,5 23,5zm52 -134l-15 0c5,3 10,7 13,12 3,5 5,10 5,15 0,5 -1,10 -4,15 -3,4 -7,8 -12,10 -5,2 -13,3 -23,3l-64 0 0 -22 46 0c13,0 22,0 25,-1 4,-1 6,-2 8,-4 2,-2 3,-5 3,-8 0,-4 -1,-7 -4,-10 -3,-3 -6,-5 -10,-6 -4,-1 -13,-1 -26,-1l-42 0 0 -22 101 0 0 20zm0 -118l0 22 -51 0c-10,0 -17,0 -21,1 -3,1 -6,2 -8,5 -2,2 -3,5 -3,8 0,4 1,7 4,10 2,3 6,5 10,6 4,1 12,2 24,2l46 0 0 22 -101 0 0 -20 15 0c-6,-4 -10,-8 -13,-12 -3,-5 -4,-10 -4,-15 0,-6 2,-12 5,-16 3,-4 8,-7 13,-9 5,-2 13,-3 23,-3l63 0zm-101 -60l21 0 0 15 41 0c9,0 14,0 15,-1 3,-1 4,-3 4,-5 0,-2 -1,-5 -3,-9l21 -2c3,5 4,11 4,17 0,6 -1,10 -4,13 -3,3 -6,6 -11,7 -4,1 -11,1 -22,1l-44 0 0 10 -21 0 0 -10 -20 0 -16 -22 36 0 0 -15zm69 -63l4 -22c10,3 18,7 23,14 5,6 7,14 7,22 0,12 -4,22 -12,28 -9,8 -23,12 -40,12 -17,0 -30,-4 -40,-12 -9,-7 -13,-15 -13,-26 0,-12 4,-21 13,-28 10,-8 25,-12 44,-12l3 0 0 55c8,0 14,-2 18,-5 4,-3 7,-8 7,-12 0,-7 -5,-12 -14,-14zm-27 -1c-8,0 -14,2 -18,5 -4,3 -6,7 -6,11 0,5 2,9 6,12 4,3 10,5 17,5l0 -33zm30 -32l-4 -22c11,-2 16,-8 16,-18 0,-5 -1,-9 -3,-12 -2,-3 -5,-4 -8,-4 -2,0 -4,1 -5,2 -1,1 -2,4 -3,7 -5,18 -9,29 -14,34 -5,6 -13,9 -22,9 -9,0 -17,-3 -22,-9 -6,-6 -8,-15 -8,-26 0,-11 2,-19 6,-25 4,-6 11,-10 20,-12l5 21c-8,2 -12,7 -12,16 0,5 1,9 2,11 2,2 4,3 6,3 2,0 4,-1 6,-3 2,-2 4,-9 7,-19 3,-12 8,-20 12,-25 5,-4 11,-6 19,-6 10,0 18,3 24,10 6,7 9,16 9,28 0,11 -3,19 -8,26 -5,7 -13,11 -23,13z"/>
  <path class="fil2" d="M1173 640l0 -139 37 0c14,0 23,1 27,2 7,2 12,7 17,14 4,7 7,16 7,27 0,10 -2,18 -6,25 -4,7 -9,12 -14,14 -6,3 -15,4 -29,4l-15 0 0 52 -23 0zm23 -115l0 39 13 0c9,0 14,-1 17,-2 3,-1 6,-3 7,-7 2,-3 3,-7 3,-12 0,-5 -1,-9 -3,-12 -2,-3 -5,-5 -8,-6 -3,-1 -9,-2 -19,-2l-11 0zm83 115l0 -139 22 0 0 139 -22 0zm92 -32l22 4c-3,10 -7,18 -14,23 -6,5 -14,7 -22,7 -12,0 -22,-4 -28,-12 -8,-9 -12,-23 -12,-40 0,-17 4,-30 12,-40 7,-9 15,-13 26,-13 12,0 21,4 28,13 8,10 12,25 12,44l0 3 -55 0c0,8 2,14 5,18 3,4 8,7 12,7 7,0 12,-5 14,-14zm1 -27c0,-8 -2,-14 -5,-18 -3,-4 -7,-6 -11,-6 -5,0 -9,2 -12,6 -3,4 -5,10 -5,17l33 0zm32 30l22 -4c2,11 8,16 18,16 5,0 9,-1 12,-3 3,-2 4,-5 4,-8 0,-2 -1,-4 -2,-5 -1,-1 -4,-2 -7,-3 -18,-5 -29,-9 -34,-14 -6,-5 -9,-13 -9,-22 0,-9 3,-17 9,-22 6,-6 15,-8 26,-8 11,0 19,2 25,6 6,4 10,11 12,20l-21 5c-2,-8 -7,-12 -16,-12 -5,0 -9,1 -11,2 -2,2 -3,4 -3,6 0,2 1,4 3,6 2,2 9,4 19,7 12,3 20,8 25,12 4,5 6,11 6,19 0,10 -3,18 -10,24 -7,6 -16,9 -28,9 -11,0 -19,-3 -26,-8 -7,-5 -11,-13 -13,-23zm95 29l0 -139 22 0 0 74 25 -35 27 0 -28 37 30 64 -23 0 -21 -45 -10 13 0 32 -22 0zm84 -52c0,-10 2,-19 6,-27 4,-8 9,-14 15,-18 6,-4 13,-6 21,-6 13,0 24,5 31,16 8,10 11,23 11,36 0,10 -2,20 -6,28 -4,8 -9,15 -16,19 -6,4 -13,6 -21,6 -12,0 -22,-5 -31,-14 -8,-9 -12,-23 -12,-40zm22 1c0,10 2,18 6,23 4,5 9,8 14,8 6,0 10,-3 14,-8 4,-5 6,-13 6,-23 0,-10 -2,-18 -6,-23 -4,-5 -9,-8 -14,-8 -6,0 -10,3 -14,8 -4,5 -6,13 -6,23zm156 50l-20 0 0 -15c-3,6 -7,10 -12,13 -5,3 -9,4 -14,4 -9,0 -17,-5 -24,-14 -7,-9 -10,-22 -10,-39 0,-17 3,-30 10,-39 7,-9 15,-13 25,-13 5,0 9,1 13,4 4,2 8,6 11,11l0 -50 22 0 0 139zm-58 -52c0,9 1,16 2,20 2,4 4,8 7,10 3,2 6,3 10,3 5,0 9,-3 12,-8 4,-5 5,-13 5,-23 0,-12 -2,-20 -5,-25 -3,-5 -8,-8 -13,-8 -5,0 -9,2 -13,7 -4,5 -5,12 -5,23zm96 -17l-20 -4c2,-10 6,-17 12,-22 6,-4 13,-7 24,-7 9,0 16,1 21,4 5,3 8,6 10,11 2,4 3,13 3,24l0 31c0,9 0,15 1,19 1,4 2,9 4,14l-22 0 -3 -11c-4,4 -8,8 -12,10 -4,2 -9,3 -14,3 -8,0 -15,-3 -20,-8 -5,-5 -8,-13 -8,-22 0,-6 1,-11 3,-15 2,-4 5,-8 9,-10 4,-3 10,-5 18,-7 10,-2 17,-5 21,-7 0,-6 0,-9 -1,-11 -1,-2 -2,-3 -4,-4 -2,-1 -5,-2 -9,-2 -4,0 -7,1 -9,3 -2,2 -4,5 -5,10zm29 22c-3,1 -7,2 -13,4 -7,2 -11,4 -13,6 -2,2 -3,5 -3,8 0,4 1,7 3,10 2,3 5,4 9,4 3,0 6,-1 9,-3 3,-2 5,-5 6,-8 1,-3 2,-8 2,-16l0 -5zm-36 -70l0 -18 50 0 0 18 -50 0zm79 118l0 -139 22 0 0 139 -22 0zm92 -32l22 4c-3,10 -7,18 -14,23 -6,5 -14,7 -22,7 -12,0 -22,-4 -28,-12 -8,-9 -12,-23 -12,-40 0,-17 4,-30 12,-40 7,-9 15,-13 26,-13 12,0 21,4 28,13 8,10 12,25 12,44l0 3 -55 0c0,8 2,14 5,18 3,4 8,7 12,7 7,0 12,-5 14,-14zm1 -27c0,-8 -2,-14 -5,-18 -3,-4 -7,-6 -11,-6 -5,0 -9,2 -12,6 -3,4 -5,10 -5,17l33 0zm32 30l22 -4c2,11 8,16 18,16 5,0 9,-1 12,-3 3,-2 4,-5 4,-8 0,-2 -1,-4 -2,-5 -1,-1 -4,-2 -7,-3 -18,-5 -29,-9 -34,-14 -6,-5 -9,-13 -9,-22 0,-9 3,-17 9,-22 6,-6 15,-8 26,-8 11,0 19,2 25,6 6,4 10,11 12,20l-21 5c-2,-8 -7,-12 -16,-12 -5,0 -9,1 -11,2 -2,2 -3,4 -3,6 0,2 1,4 3,6 2,2 9,4 19,7 12,3 20,8 25,12 4,5 6,11 6,19 0,10 -3,18 -10,24 -7,6 -16,9 -28,9 -11,0 -19,-3 -26,-8 -7,-5 -11,-13 -13,-23z"/>
  <path class="fil2" d="M1452 1187l-25 0 -10 -32 -45 0 -9 32 -24 0 44 -139 24 0 46 139zm-42 -55l-16 -52 -15 52 31 0zm54 -46l20 0 0 15c3,-5 6,-9 11,-13 5,-3 9,-5 15,-5 9,0 17,4 24,13 7,9 10,22 10,38 0,17 -3,31 -10,40 -7,9 -15,14 -24,14 -4,0 -8,-1 -12,-3 -4,-2 -8,-6 -12,-12l0 51 -22 0 0 -139zm22 49c0,11 2,20 6,25 4,5 8,8 13,8 5,0 9,-2 13,-7 3,-5 5,-13 5,-24 0,-11 -2,-19 -5,-24 -3,-5 -8,-8 -13,-8 -5,0 -10,2 -13,7 -4,5 -5,12 -5,22zm130 52l0 -15c-3,5 -7,10 -12,13 -5,3 -10,5 -15,5 -5,0 -10,-1 -15,-4 -4,-3 -8,-7 -10,-12 -2,-5 -3,-13 -3,-23l0 -64 22 0 0 46c0,13 0,22 1,25 1,4 2,6 4,8 2,2 5,3 8,3 4,0 7,-1 10,-4 3,-3 5,-6 6,-10 1,-4 1,-13 1,-26l0 -42 22 0 0 101 -20 0zm-42 -118l0 -18 50 0 0 18 -50 0zm76 118l0 -21 31 -43c5,-7 9,-12 11,-15 -3,0 -6,0 -10,0l-29 0 0 -22 68 0 0 19 -32 44 -11 15c6,0 10,-1 11,-1l34 0 0 23 -74 0zm136 -32l22 4c-3,10 -7,18 -14,23 -6,5 -14,7 -22,7 -12,0 -22,-4 -28,-12 -8,-9 -12,-23 -12,-40 0,-17 4,-30 12,-40 7,-9 15,-13 26,-13 12,0 21,4 28,13 8,10 12,25 12,44l0 3 -55 0c0,8 2,14 5,18 3,4 8,7 12,7 7,0 12,-5 14,-14zm1 -27c0,-8 -2,-14 -5,-18 -3,-4 -7,-6 -11,-6 -5,0 -9,2 -12,6 -3,4 -5,10 -5,17l33 0zm32 30l22 -4c2,11 8,16 18,16 5,0 9,-1 12,-3 3,-2 4,-5 4,-8 0,-2 -1,-4 -2,-5 -1,-1 -4,-2 -7,-3 -18,-5 -29,-9 -34,-14 -6,-5 -9,-13 -9,-22 0,-9 3,-17 9,-22 6,-6 15,-8 26,-8 11,0 19,2 25,6 6,4 10,11 12,20l-21 5c-2,-8 -7,-12 -16,-12 -5,0 -9,1 -11,2 -2,2 -3,4 -3,6 0,2 1,4 3,6 2,2 9,4 19,7 12,3 20,8 25,12 4,5 6,11 6,19 0,10 -3,18 -10,24 -7,6 -16,9 -28,9 -11,0 -19,-3 -26,-8 -7,-5 -11,-13 -13,-23z"/>
  <path class="fil2" d="M1305 2020l0 -139 48 0c12,0 21,1 27,4 5,2 10,7 13,13 3,6 5,14 5,22 0,11 -3,20 -8,26 -5,7 -13,11 -22,12 5,4 9,7 12,12 3,4 8,12 13,23l14 27 -27 0 -17 -30c-6,-11 -10,-18 -12,-20 -2,-3 -4,-5 -7,-6 -2,-1 -6,-2 -12,-2l-5 0 0 58 -23 0zm23 -80l17 0c10,0 17,0 20,-1 3,-1 5,-3 7,-6 2,-3 3,-7 3,-11 0,-4 -1,-8 -3,-11 -2,-3 -4,-5 -7,-6 -2,-1 -8,-1 -19,-1l-18 0 0 35zm146 80l0 -15c-3,5 -7,10 -12,13 -5,3 -10,5 -15,5 -5,0 -10,-1 -15,-4 -4,-3 -8,-7 -10,-12 -2,-5 -3,-13 -3,-23l0 -64 22 0 0 46c0,13 0,22 1,25 1,4 2,6 4,8 2,2 5,3 8,3 4,0 7,-1 10,-4 3,-3 5,-6 6,-10 1,-4 1,-13 1,-26l0 -42 22 0 0 101 -20 0zm115 -71l-22 5c-2,-11 -7,-16 -15,-16 -5,0 -10,2 -13,7 -3,5 -5,12 -5,23 0,12 2,20 5,25 3,5 8,7 13,7 4,0 7,-1 10,-4 3,-3 5,-8 6,-15l22 4c-4,24 -17,36 -38,36 -13,0 -23,-5 -30,-15 -7,-10 -10,-23 -10,-37 0,-17 4,-30 11,-39 7,-9 17,-14 29,-14 10,0 18,3 24,8 6,5 10,13 13,24zm33 1l-20 -4c2,-10 6,-17 12,-22 6,-4 13,-7 24,-7 9,0 16,1 21,4 5,3 8,6 10,11 2,4 3,13 3,24l0 31c0,9 0,15 1,19 1,4 2,9 4,14l-22 0 -3 -11c-4,4 -8,8 -12,10 -4,2 -9,3 -14,3 -8,0 -15,-3 -20,-8 -5,-5 -8,-13 -8,-22 0,-6 1,-11 3,-15 2,-4 5,-8 9,-10 4,-3 10,-5 18,-7 10,-2 17,-5 21,-7 0,-6 0,-9 -1,-11 -1,-2 -2,-3 -4,-4 -2,-1 -5,-2 -9,-2 -4,0 -7,1 -9,3 -2,2 -4,5 -5,10zm29 22c-3,1 -7,2 -13,4 -7,2 -11,4 -13,6 -2,2 -3,5 -3,8 0,4 1,7 3,10 2,3 5,4 9,4 3,0 6,-1 9,-3 3,-2 5,-5 6,-8 1,-3 2,-8 2,-16l0 -5zm66 48l-33 -101 23 0 16 51 4 17 5 -17 16 -51 22 0 -33 101 -20 0zm82 -70l-20 -4c2,-10 6,-17 12,-22 6,-4 13,-7 24,-7 9,0 16,1 21,4 5,3 8,6 10,11 2,4 3,13 3,24l0 31c0,9 0,15 1,19 1,4 2,9 4,14l-22 0 -3 -11c-4,4 -8,8 -12,10 -4,2 -9,3 -14,3 -8,0 -15,-3 -20,-8 -5,-5 -8,-13 -8,-22 0,-6 1,-11 3,-15 2,-4 5,-8 9,-10 4,-3 10,-5 18,-7 10,-2 17,-5 21,-7 0,-6 0,-9 -1,-11 -1,-2 -2,-3 -4,-4 -2,-1 -5,-2 -9,-2 -4,0 -7,1 -9,3 -2,2 -4,5 -5,10zm29 22c-3,1 -7,2 -13,4 -7,2 -11,4 -13,6 -2,2 -3,5 -3,8 0,4 1,7 3,10 2,3 5,4 9,4 3,0 6,-1 9,-3 3,-2 5,-5 6,-8 1,-3 2,-8 2,-16l0 -5zm35 20l22 -4c2,11 8,16 18,16 5,0 9,-1 12,-3 3,-2 4,-5 4,-8 0,-2 -1,-4 -2,-5 -1,-1 -4,-2 -7,-3 -18,-5 -29,-9 -34,-14 -6,-5 -9,-13 -9,-22 0,-9 3,-17 9,-22 6,-6 15,-8 26,-8 11,0 19,2 25,6 6,4 10,11 12,20l-21 5c-2,-8 -7,-12 -16,-12 -5,0 -9,1 -11,2 -2,2 -3,4 -3,6 0,2 1,4 3,5 2,2 9,4 19,7 12,3 20,8 25,12 4,5 6,11 6,19 0,10 -3,18 -10,24 -7,6 -16,9 -28,9 -11,0 -19,-3 -26,-8 -7,-5 -11,-13 -13,-23z"/>
  <path class="fil2" d="M1380 3011l0 -139 23 0 0 139 -23 0zm66 0l-22 0 0 -101 20 0 0 14c4,-7 7,-11 9,-13 3,-2 6,-3 10,-3 5,0 10,2 14,5l-7 23c-4,-3 -7,-4 -10,-4 -3,0 -6,1 -8,3 -2,2 -4,6 -5,12 -1,6 -2,17 -2,32l0 31zm41 0l0 -139 22 0 0 139 -22 0zm61 -70l-20 -4c2,-10 6,-17 12,-22 6,-4 13,-7 24,-7 9,0 16,1 21,4 5,3 8,6 10,11 2,4 3,13 3,24l0 31c0,9 0,15 1,19 1,4 2,9 4,14l-22 0 -3 -11c-4,4 -8,8 -12,10 -4,2 -9,3 -14,3 -8,0 -15,-3 -20,-8 -5,-5 -8,-13 -8,-22 0,-6 1,-11 3,-15 2,-4 5,-8 9,-10 4,-3 10,-5 18,-7 10,-2 17,-5 21,-7 0,-6 0,-9 -1,-11 -1,-2 -2,-3 -4,-4 -2,-1 -5,-2 -9,-2 -4,0 -7,1 -9,3 -2,2 -4,5 -5,10zm29 22c-3,1 -7,2 -13,4 -7,2 -11,4 -13,6 -2,2 -3,5 -3,8 0,4 1,7 3,10 2,3 5,4 9,4 3,0 6,-1 9,-3 3,-2 5,-5 6,-8 1,-3 2,-8 2,-16l0 -5zm66 48l-33 -101 23 0 16 51 4 17 5 -17 16 -51 22 0 -33 101 -20 0zm82 -70l-20 -4c2,-10 6,-17 12,-22 6,-4 13,-7 24,-7 9,0 16,1 21,4 5,3 8,6 10,11 2,4 3,13 3,24l0 31c0,9 0,15 1,19 1,4 2,9 4,14l-22 0 -3 -11c-4,4 -8,8 -12,10 -4,2 -9,3 -14,3 -8,0 -15,-3 -20,-8 -5,-5 -8,-13 -8,-22 0,-6 1,-11 3,-15 2,-4 5,-8 9,-10 4,-3 10,-5 18,-7 10,-2 17,-5 21,-7 0,-6 0,-9 -1,-11 -1,-2 -2,-3 -4,-4 -2,-1 -5,-2 -9,-2 -4,0 -7,1 -9,3 -2,2 -4,5 -5,10zm29 22c-3,1 -7,2 -13,4 -7,2 -11,4 -13,6 -2,2 -3,5 -3,8 0,4 1,7 3,10 2,3 5,4 9,4 3,0 6,-1 9,-3 3,-2 5,-5 6,-8 1,-3 2,-8 2,-16l0 -5zm35 20l22 -4c2,11 8,16 18,16 5,0 9,-1 12,-3 3,-2 4,-5 4,-8 0,-2 -1,-4 -2,-5 -1,-1 -4,-2 -7,-3 -18,-5 -29,-9 -34,-14 -6,-5 -9,-13 -9,-22 0,-9 3,-17 9,-22 6,-6 15,-8 26,-8 11,0 19,2 25,6 6,4 10,11 12,20l-21 5c-2,-8 -7,-12 -16,-12 -5,0 -9,1 -11,2 -2,2 -3,4 -3,6 0,2 1,4 3,6 2,2 9,4 19,7 12,3 20,8 25,12 4,5 6,11 6,19 0,10 -3,18 -10,24 -7,6 -16,9 -28,9 -11,0 -19,-3 -26,-8 -7,-5 -11,-13 -13,-23z"/>
  <polygon class="fil1 str0" points="711,2703 711,2562 666,2575 730,2464 793,2575 748,2562 748,2703 "/>
  <polygon class="fil1 str0" points="711,1775 711,1634 666,1647 730,1537 793,1647 748,1634 748,1775 "/>
  <path class="fil1" d="M684 1055l0 -90c0,-60 39,-95 97,-102l39 0 -13 -55 136 78 -135 79 13 -55 -46 0c-24,0 -44,23 -44,46l0 99 -46 0z"/>
  <polygon class="fil1 str0" points="1447,847 1588,847 1575,802 1686,866 1575,929 1588,884 1447,884 "/>
  <polygon class="fil3 str1" points="2267,2524 2279,2524 2290,2525 2302,2526 2313,2528 2324,2531 2335,2534 2345,2537 2356,2542 2366,2546 2375,2551 2385,2557 2394,2563 2403,2569 2411,2576 2420,2583 2428,2590 2435,2598 2442,2606 2449,2615 2455,2624 2461,2633 2467,2643 2472,2652 2476,2662 2480,2673 2484,2683 2487,2694 2490,2705 2492,2716 2493,2727 2494,2739 2494,2750 2494,2762 2493,2774 2492,2785 2490,2796 2487,2807 2484,2818 2480,2828 2476,2839 2472,2849 2467,2858 2461,2868 2455,2877 2449,2886 2442,2895 2435,2903 2428,2911 2420,2918 2411,2925 2403,2932 2394,2938 2385,2944 2375,2950 2366,2955 2356,2959 2345,2963 2335,2967 2324,2970 2313,2973 2302,2975 2290,2976 2279,2977 2267,2977 2256,2977 2244,2976 2233,2975 2222,2973 2211,2970 2200,2967 2190,2963 2179,2959 2169,2955 2159,2950 2150,2944 2141,2938 2132,2932 2123,2925 2115,2918 2107,2911 2100,2903 2092,2895 2086,2886 2079,2877 2073,2868 2068,2858 2063,2849 2058,2839 2054,2828 2051,2818 2048,2807 2045,2796 2043,2785 2042,2774 2041,2762 2041,2750 2041,2739 2042,2727 2043,2716 2045,2705 2048,2694 2051,2683 2054,2673 2058,2662 2063,2652 2068,2643 2073,2633 2079,2624 2086,2615 2092,2606 2100,2598 2107,2590 2115,2583 2123,2576 2132,2569 2141,2563 2150,2557 2159,2551 2169,2546 2179,2542 2190,2537 2200,2534 2211,2531 2222,2528 2233,2526 2244,2525 2256,2524 "/>
  <path class="fil4 str1" d="M2267 2531c121,0 220,99 220,220 0,121 -99,220 -220,220 -121,0 -220,-99 -220,-220 0,-121 99,-220 220,-220zm0 58c89,0 161,73 161,161 0,89 -73,161 -161,161 -89,0 -161,-73 -161,-161 0,-89 73,-161 161,-161z"/>
  <polygon class="fil1 str0" points="558,680 558,571 452,602 602,342 750,602 644,571 644,680 "/>
 </g>
</svg>
