<?xml version="1.0" encoding="UTF-8"?>
<!DOCTYPE svg PUBLIC "-//W3C//DTD SVG 1.1//EN" "http://www.w3.org/Graphics/SVG/1.1/DTD/svg11.dtd">
<!-- Creator: CorelDRAW X6 -->
<svg xmlns="http://www.w3.org/2000/svg" xml:space="preserve" width="42.8426mm" height="21.4213mm" version="1.1" style="shape-rendering:geometricPrecision; text-rendering:geometricPrecision; image-rendering:optimizeQuality; fill-rule:evenodd; clip-rule:evenodd"
viewBox="0 0 1326 663"
 xmlns:xlink="http://www.w3.org/1999/xlink">
 <defs>
  <style type="text/css">
   <![CDATA[
    .fil1 {fill:#212220}
    .fil0 {fill:yellow}
   ]]>
  </style>
 </defs>
 <g id="Layer_x0020_1">
  <metadata id="CorelCorpID_0Corel-Layer"/>
  <polygon class="fil0" points="1326,578 1326,582 1326,587 1325,591 1325,595 1324,599 1323,603 1321,607 1320,611 1318,615 1316,619 1314,622 1312,626 1309,629 1307,632 1304,635 1301,638 1298,641 1295,644 1292,646 1289,649 1285,651 1282,653 1278,655 1274,657 1270,658 1267,659 1262,661 1258,661 1254,662 1250,663 1246,663 1241,663 85,663 81,663 77,663 72,662 68,661 64,661 60,659 56,658 52,657 48,655 45,653 41,651 38,649 34,646 31,644 28,641 25,638 22,635 19,632 17,629 15,626 12,622 10,619 8,615 7,611 5,607 4,603 3,599 2,595 1,591 0,587 0,582 0,578 0,85 0,81 0,77 1,72 2,68 3,64 4,60 5,56 7,52 8,48 10,45 12,41 15,38 17,34 19,31 22,28 25,25 28,22 31,19 34,17 38,15 41,12 45,10 48,8 52,7 56,5 60,4 64,3 68,2 72,1 77,0 81,0 85,0 1241,0 1246,0 1250,0 1254,1 1258,2 1262,3 1267,4 1270,5 1274,7 1278,8 1282,10 1285,12 1289,15 1292,17 1295,19 1298,22 1301,25 1304,28 1307,31 1309,34 1312,38 1314,41 1316,45 1318,48 1320,52 1321,56 1323,60 1324,64 1325,68 1325,72 1326,77 1326,81 1326,85 "/>
  <path class="fil1" d="M19 578l0 4 0 3 0 3 1 3 1 3 1 3 1 3 1 3 1 3 1 3 2 3 2 3 2 3 2 3 2 2 2 2 2 2 2 2 3 2 3 2 3 2 3 2 3 1 3 1 3 1 3 1 3 1 3 1 3 1 3 0 3 0 4 0 1155 0 4 0 3 0 3 0 3 -1 3 -1 3 -1 3 -1 3 -1 3 -1 3 -1 3 -2 3 -2 3 -2 3 -2 2 -2 2 -2 2 -2 2 -2 2 -3 2 -3 2 -3 2 -3 1 -3 1 -3 1 -3 1 -3 1 -3 1 -3 1 -3 0 -3 0 -3 0 -4 0 -492 0 -4 0 -3 0 -3 -1 -3 -1 -3 -1 -3 -1 -3 -1 -3 -1 -3 -1 -3 -2 -3 -2 -3 -2 -3 -2 -3 -2 -2 -2 -2 -2 -2 -2 -2 -3 -2 -3 -2 -3 -2 -3 -2 -3 -1 -3 -1 -3 -1 -3 -1 -3 -1 -3 -1 -3 -1 -3 0 -3 0 -4 0 -1155 0 -4 0 -3 0 -3 0 -3 1 -3 1 -3 1 -3 1 -3 1 -3 1 -3 1 -3 2 -3 2 -3 2 -3 2 -2 2 -2 2 -2 2 -2 2 -2 3 -2 3 -2 3 -2 3 -1 3 -1 3 -1 3 -1 3 -1 3 -1 3 -1 3 0 3 0 3 0 4 0 492zm19 0l0 3 0 2 0 2 0 2 1 2 1 2 1 2 1 2 1 2 1 2 1 2 1 2 1 2 1 2 1 2 2 2 2 2 2 1 2 1 2 1 2 1 2 1 2 1 2 1 2 1 2 1 2 1 2 1 2 0 2 0 2 0 3 0 1155 0 3 0 2 0 2 0 2 0 2 -1 2 -1 2 -1 2 -1 2 -1 2 -1 2 -1 2 -1 2 -1 2 -1 2 -1 2 -2 2 -2 1 -2 1 -2 1 -2 1 -2 1 -2 1 -2 1 -2 1 -2 1 -2 1 -2 1 -2 0 -2 0 -2 0 -2 0 -3 0 -492 0 -3 0 -2 0 -2 0 -2 -1 -2 -1 -2 -1 -2 -1 -2 -1 -2 -1 -2 -1 -2 -1 -2 -1 -2 -1 -2 -1 -2 -2 -2 -2 -2 -2 -1 -2 -1 -2 -1 -2 -1 -2 -1 -2 -1 -2 -1 -2 -1 -2 -1 -2 -1 -2 -1 -2 0 -2 0 -2 0 -3 0 -1155 0 -3 0 -2 0 -2 0 -2 0 -2 1 -2 1 -2 1 -2 1 -2 1 -2 1 -2 1 -2 1 -2 1 -2 1 -2 1 -2 2 -2 2 -1 2 -1 2 -1 2 -1 2 -1 2 -1 2 -1 2 -1 2 -1 2 -1 2 -1 2 0 2 0 2 0 2 0 3 0 492z"/>
  <polygon class="fil1" points="621,578 621,309 518,338 664,85 809,338 705,309 705,578 "/>
 </g>
</svg>
