<?xml version="1.0" encoding="UTF-8"?>
<!DOCTYPE svg PUBLIC "-//W3C//DTD SVG 1.1//EN" "http://www.w3.org/Graphics/SVG/1.1/DTD/svg11.dtd">
<!-- Creator: CorelDRAW X6 -->
<svg xmlns="http://www.w3.org/2000/svg" xml:space="preserve" width="42.8425mm" height="21.4213mm" version="1.1" style="shape-rendering:geometricPrecision; text-rendering:geometricPrecision; image-rendering:optimizeQuality; fill-rule:evenodd; clip-rule:evenodd"
viewBox="0 0 4756 2378"
 xmlns:xlink="http://www.w3.org/1999/xlink">
 <defs>
  <style type="text/css">
   <![CDATA[
    .fil1 {fill:#212220}
    .fil0 {fill:yellow}
   ]]>
  </style>
 </defs>
 <g id="Layer_x0020_1">
  <metadata id="CorelCorpID_0Corel-Layer"/>
  <polygon class="fil0" points="4756,2072 4756,2088 4755,2104 4753,2119 4750,2134 4746,2149 4742,2163 4738,2177 4732,2191 4726,2205 4719,2218 4712,2231 4704,2243 4695,2255 4686,2267 4677,2278 4667,2289 4656,2299 4645,2308 4633,2317 4621,2326 4609,2334 4596,2341 4583,2348 4569,2354 4555,2360 4541,2364 4527,2368 4512,2372 4497,2375 4482,2376 4466,2378 4450,2378 306,2378 290,2378 274,2376 259,2375 244,2372 229,2368 215,2364 201,2360 187,2354 173,2348 160,2341 147,2334 135,2326 123,2317 111,2308 100,2299 90,2289 79,2278 70,2267 61,2255 52,2243 44,2231 37,2218 30,2205 24,2191 19,2177 14,2163 10,2149 6,2134 4,2119 2,2104 0,2088 0,2072 0,306 0,290 2,274 4,259 6,244 10,229 14,215 19,201 24,187 30,173 37,160 44,147 52,135 61,123 70,111 79,100 90,90 100,79 111,70 123,61 135,52 147,44 160,37 173,30 187,24 201,19 215,14 229,10 244,6 259,4 274,2 290,0 306,0 4450,0 4466,0 4482,2 4497,4 4512,6 4527,10 4541,14 4555,19 4569,24 4583,30 4596,37 4609,44 4621,52 4633,61 4645,70 4656,79 4667,90 4677,100 4686,111 4695,123 4704,135 4712,147 4719,160 4726,173 4732,187 4738,201 4742,215 4746,229 4750,244 4753,259 4755,274 4756,290 4756,306 "/>
  <path class="fil1" d="M4688 2071l0 13 -1 12 -2 12 -2 12 -3 11 -3 11 -4 11 -4 11 -5 11 -5 10 -6 10 -6 10 -7 9 -7 9 -7 9 -8 8 -8 8 -9 7 -9 7 -9 7 -10 6 -10 6 -10 5 -11 5 -11 4 -11 4 -11 3 -11 3 -12 2 -12 2 -12 1 -13 0 -4143 0 -13 0 -12 -1 -12 -2 -12 -2 -11 -3 -11 -3 -11 -4 -11 -4 -11 -5 -10 -5 -10 -6 -10 -6 -9 -7 -9 -7 -9 -7 -8 -8 -8 -8 -7 -9 -7 -9 -7 -9 -6 -10 -6 -10 -5 -10 -5 -11 -4 -11 -4 -11 -3 -11 -3 -11 -2 -12 -2 -12 -1 -12 0 -13 0 -1765 0 -13 1 -12 2 -12 2 -12 3 -11 3 -11 4 -11 4 -11 5 -11 5 -10 6 -10 6 -10 7 -9 7 -9 7 -9 8 -8 8 -8 9 -7 9 -7 9 -7 10 -6 10 -6 10 -5 11 -5 11 -4 11 -4 11 -3 11 -3 12 -2 12 -2 12 -1 13 0 4143 0 13 0 12 1 12 2 12 2 11 3 11 3 11 4 11 4 11 5 10 5 10 6 10 6 9 7 9 7 9 7 8 8 8 8 7 9 7 9 7 9 6 10 6 10 5 10 5 11 4 11 4 11 3 11 3 11 2 12 2 12 1 12 0 13 0 1765zm-68 -1l0 11 -1 9 -1 8 -1 8 -2 8 -2 8 -3 8 -3 8 -3 7 -4 7 -4 7 -4 7 -5 7 -5 6 -5 6 -6 6 -6 6 -6 5 -6 5 -7 5 -7 4 -7 4 -7 4 -7 3 -8 3 -8 3 -8 2 -8 2 -8 1 -9 1 -9 1 -11 0 -4141 0 -11 0 -9 -1 -9 -1 -8 -1 -8 -2 -8 -2 -8 -3 -8 -3 -7 -3 -7 -4 -7 -4 -7 -4 -7 -5 -6 -5 -6 -5 -6 -6 -6 -6 -5 -6 -5 -6 -5 -7 -4 -7 -4 -7 -4 -7 -3 -7 -3 -8 -3 -8 -2 -8 -2 -8 -1 -8 -1 -8 -1 -9 0 -11 0 -1763 0 -11 1 -9 1 -8 1 -8 2 -8 2 -8 3 -8 3 -8 3 -7 4 -7 4 -7 4 -7 5 -7 5 -6 5 -6 6 -6 6 -6 6 -5 6 -5 7 -5 7 -4 7 -4 7 -4 7 -3 8 -3 8 -3 8 -2 8 -2 8 -1 8 -1 9 -1 11 0 4141 0 11 0 9 1 9 1 8 1 8 2 8 2 8 3 8 3 7 3 7 4 7 4 7 4 7 5 6 5 6 5 6 6 6 6 5 6 5 6 5 7 4 7 4 7 4 7 3 7 3 8 3 8 2 8 2 8 1 8 1 8 1 9 0 11 0 1763z"/>
  <path class="fil1" d="M1755 2061l0 -633c-1,-422 273,-668 686,-720l277 -3 -94 -388 958 549 -952 559 92 -387 -327 2c-167,1 -313,159 -313,323l-3 698 -325 0z"/>
 </g>
</svg>
