<?xml version="1.0" encoding="UTF-8"?>
<!DOCTYPE svg PUBLIC "-//W3C//DTD SVG 1.1//EN" "http://www.w3.org/Graphics/SVG/1.1/DTD/svg11.dtd">
<!-- Creator: CorelDRAW X6 -->
<svg xmlns="http://www.w3.org/2000/svg" xml:space="preserve" width="42.8425mm" height="21.4213mm" version="1.1" style="shape-rendering:geometricPrecision; text-rendering:geometricPrecision; image-rendering:optimizeQuality; fill-rule:evenodd; clip-rule:evenodd"
viewBox="0 0 2888 1444"
 xmlns:xlink="http://www.w3.org/1999/xlink">
 <defs>
  <style type="text/css">
   <![CDATA[
    .fil1 {fill:#212220}
    .fil0 {fill:yellow}
   ]]>
  </style>
 </defs>
 <g id="Layer_x0020_1">
  <metadata id="CorelCorpID_0Corel-Layer"/>
  <polygon class="fil0" points="2888,1258 2888,1268 2887,1277 2886,1287 2884,1296 2882,1305 2880,1314 2877,1322 2873,1331 2870,1339 2866,1347 2861,1355 2856,1362 2851,1369 2846,1376 2840,1383 2834,1390 2827,1396 2820,1402 2813,1407 2806,1412 2799,1417 2791,1422 2783,1426 2775,1429 2766,1433 2758,1436 2749,1438 2740,1440 2731,1442 2721,1443 2712,1444 2702,1444 186,1444 176,1444 167,1443 157,1442 148,1440 139,1438 130,1436 122,1433 113,1429 105,1426 97,1422 89,1417 82,1412 75,1407 68,1402 61,1396 54,1390 48,1383 42,1376 37,1369 32,1362 27,1355 22,1347 18,1339 15,1331 11,1322 8,1314 6,1305 4,1296 2,1287 1,1277 0,1268 0,1258 0,186 0,176 1,167 2,157 4,148 6,139 8,130 11,122 15,113 18,105 22,97 27,89 32,82 37,75 42,68 48,61 54,54 61,48 68,42 75,37 82,32 89,27 97,22 105,18 113,15 122,11 130,8 139,6 148,4 157,2 167,1 176,0 186,0 2702,0 2712,0 2721,1 2731,2 2740,4 2749,6 2758,8 2766,11 2775,15 2783,18 2791,22 2799,27 2806,32 2813,37 2820,42 2827,48 2834,54 2840,61 2846,68 2851,75 2856,82 2861,89 2866,97 2870,105 2873,113 2877,122 2880,130 2882,139 2884,148 2886,157 2887,167 2888,176 2888,186 "/>
  <path class="fil1" d="M41 1258l0 8 1 7 1 7 1 7 2 7 2 7 2 7 3 7 3 6 3 6 3 6 4 6 4 6 4 5 5 5 5 5 5 5 5 5 5 4 6 4 6 4 6 3 6 3 6 3 7 3 7 2 7 2 7 2 7 1 7 1 7 1 8 0 2516 0 8 0 7 -1 7 -1 7 -1 7 -2 7 -2 7 -2 7 -3 6 -3 6 -3 6 -3 6 -4 6 -4 5 -4 5 -5 5 -5 5 -5 5 -5 4 -5 4 -6 4 -6 3 -6 3 -6 3 -6 3 -7 2 -7 2 -7 2 -7 1 -7 1 -7 1 -7 0 -8 0 -1072 0 -8 -1 -7 -1 -7 -1 -7 -2 -7 -2 -7 -2 -7 -3 -7 -3 -6 -3 -6 -3 -6 -4 -6 -4 -6 -4 -5 -5 -5 -5 -5 -5 -5 -5 -5 -5 -4 -6 -4 -6 -4 -6 -3 -6 -3 -6 -3 -7 -3 -7 -2 -7 -2 -7 -2 -7 -1 -7 -1 -7 -1 -8 0 -2516 0 -8 0 -7 1 -7 1 -7 1 -7 2 -7 2 -7 2 -7 3 -6 3 -6 3 -6 3 -6 4 -6 4 -5 4 -5 5 -5 5 -5 5 -5 5 -4 5 -4 6 -4 6 -3 6 -3 6 -3 6 -3 7 -2 7 -2 7 -2 7 -1 7 -1 7 -1 7 0 8 0 1072zm41 -1l0 6 0 5 1 5 1 5 1 5 1 5 2 5 2 5 2 5 2 4 2 4 3 4 3 4 3 4 3 4 3 4 4 3 4 3 4 3 4 3 4 3 4 2 4 2 5 2 5 2 5 2 5 1 5 1 5 1 5 1 5 0 6 0 2515 0 6 0 5 0 5 -1 5 -1 5 -1 5 -1 5 -2 5 -2 5 -2 4 -2 4 -2 4 -3 4 -3 4 -3 4 -3 4 -3 3 -4 3 -4 3 -4 3 -4 3 -4 2 -4 2 -4 2 -5 2 -5 2 -5 1 -5 1 -5 1 -5 1 -5 0 -5 0 -6 0 -1071 0 -6 0 -5 -1 -5 -1 -5 -1 -5 -1 -5 -2 -5 -2 -5 -2 -5 -2 -4 -2 -4 -3 -4 -3 -4 -3 -4 -3 -4 -3 -4 -4 -3 -4 -3 -4 -3 -4 -3 -4 -3 -4 -2 -4 -2 -5 -2 -5 -2 -5 -2 -5 -1 -5 -1 -5 -1 -5 -1 -5 0 -6 0 -2515 0 -6 0 -5 0 -5 1 -5 1 -5 1 -5 1 -5 2 -5 2 -5 2 -4 2 -4 2 -4 3 -4 3 -4 3 -4 3 -4 3 -3 4 -3 4 -3 4 -3 4 -3 4 -2 4 -2 4 -2 5 -2 5 -2 5 -1 5 -1 5 -1 5 -1 5 0 5 0 6 0 1071z"/>
  <path class="fil1" d="M1822 1252l0 -385c1,-256 -166,-406 -417,-437l-168 -2 57 -236 -582 333 578 339 -56 -235 198 1c101,1 190,97 190,196l2 424 197 0z"/>
 </g>
</svg>
