<?xml version="1.0" encoding="UTF-8"?>
<!DOCTYPE svg PUBLIC "-//W3C//DTD SVG 1.1//EN" "http://www.w3.org/Graphics/SVG/1.1/DTD/svg11.dtd">
<!-- Creator: CorelDRAW X6 -->
<svg xmlns="http://www.w3.org/2000/svg" xml:space="preserve" width="42.8426mm" height="21.4213mm" version="1.1" style="shape-rendering:geometricPrecision; text-rendering:geometricPrecision; image-rendering:optimizeQuality; fill-rule:evenodd; clip-rule:evenodd"
viewBox="0 0 1102 551"
 xmlns:xlink="http://www.w3.org/1999/xlink">
 <defs>
  <style type="text/css">
   <![CDATA[
    .fil2 {fill:#212220}
    .fil1 {fill:red}
    .fil0 {fill:yellow}
   ]]>
  </style>
 </defs>
 <g id="Layer_x0020_1">
  <metadata id="CorelCorpID_0Corel-Layer"/>
  <polygon class="fil0" points="1102,480 1102,484 1101,487 1101,491 1100,494 1099,498 1098,501 1097,504 1096,508 1095,511 1093,514 1091,517 1090,520 1088,522 1086,525 1083,528 1081,530 1078,532 1076,535 1073,537 1070,539 1068,541 1065,542 1062,544 1058,545 1055,547 1052,548 1049,549 1045,549 1042,550 1038,550 1035,551 1031,551 71,551 67,551 64,550 60,550 57,549 53,549 50,548 46,547 43,545 40,544 37,542 34,541 31,539 28,537 26,535 23,532 21,530 18,528 16,525 14,522 12,520 10,517 9,514 7,511 6,508 4,504 3,501 2,498 1,494 1,491 0,487 0,484 0,480 0,71 0,67 0,64 1,60 1,57 2,53 3,50 4,46 6,43 7,40 9,37 10,34 12,31 14,28 16,26 18,23 21,21 23,18 26,16 28,14 31,12 34,10 37,9 40,7 43,6 46,4 50,3 53,2 57,1 60,1 64,0 67,0 71,0 1031,0 1035,0 1038,0 1042,1 1045,1 1049,2 1052,3 1055,4 1058,6 1062,7 1065,9 1068,10 1070,12 1073,14 1076,16 1078,18 1081,21 1083,23 1086,26 1088,28 1090,31 1091,34 1093,37 1095,40 1096,43 1097,46 1098,50 1099,53 1100,57 1101,60 1101,64 1102,67 1102,71 "/>
  <polygon class="fil1" points="31,435 987,31 1030,31 1033,32 1035,32 1037,32 1039,32 1041,33 1043,33 1044,34 1046,35 1048,35 1050,36 1051,37 1053,38 1054,39 1056,40 1057,42 1059,43 1060,44 1061,46 1062,47 1063,49 1065,50 1065,52 1066,54 1067,56 1068,57 1068,59 1069,61 1069,63 1070,65 1070,67 1070,69 1070,71 1070,116 115,519 71,519 69,519 67,519 65,519 63,519 61,518 59,518 57,517 56,516 54,515 52,515 50,514 49,513 47,512 46,510 44,509 43,508 42,506 40,505 39,504 38,502 37,500 36,499 35,497 35,495 34,494 33,492 33,490 32,488 32,486 32,484 32,482 31,480 "/>
  <path class="fil2" d="M16 480l0 3 0 3 0 3 0 3 1 3 1 3 1 3 1 2 1 2 1 2 1 2 1 2 2 2 2 2 2 2 2 2 2 2 2 2 2 2 2 2 2 1 2 1 2 1 2 1 2 1 3 1 3 1 3 1 3 0 3 0 3 0 3 0 960 0 3 0 3 0 3 0 3 0 3 -1 3 -1 3 -1 2 -1 2 -1 2 -1 2 -1 2 -1 2 -2 2 -2 2 -2 2 -2 2 -2 2 -2 2 -2 2 -2 1 -2 1 -2 1 -2 1 -2 1 -2 1 -3 1 -3 1 -3 0 -3 0 -3 0 -3 0 -3 0 -409 0 -3 0 -3 0 -3 0 -3 -1 -3 -1 -3 -1 -3 -1 -2 -1 -2 -1 -2 -1 -2 -1 -2 -2 -2 -2 -2 -2 -2 -2 -2 -2 -2 -2 -2 -2 -2 -2 -2 -2 -1 -2 -1 -2 -1 -2 -1 -2 -1 -3 -1 -3 -1 -3 -1 -3 0 -3 0 -3 0 -3 0 -960 0 -3 0 -3 0 -3 0 -3 0 -3 1 -3 1 -3 1 -2 1 -2 1 -2 1 -2 1 -2 1 -2 2 -2 2 -2 2 -2 2 -2 2 -2 2 -2 2 -2 2 -1 2 -1 2 -1 2 -1 2 -1 2 -1 3 -1 3 -1 3 0 3 0 3 0 3 0 3 0 409zm16 0l0 2 0 2 0 2 0 2 0 2 1 2 1 2 1 2 1 2 1 2 1 2 1 2 1 2 1 1 1 1 1 1 1 1 1 1 1 1 2 1 2 1 2 1 2 1 2 1 2 1 2 1 2 1 2 0 2 0 2 0 2 0 2 0 959 0 2 0 2 0 2 0 2 0 2 0 2 -1 2 -1 2 -1 2 -1 2 -1 2 -1 2 -1 2 -1 1 -1 1 -1 1 -1 1 -1 1 -1 1 -1 1 -2 1 -2 1 -2 1 -2 1 -2 1 -2 1 -2 1 -2 0 -2 0 -2 0 -2 0 -2 0 -2 0 -408 0 -2 0 -2 0 -2 0 -2 0 -2 -1 -2 -1 -2 -1 -2 -1 -2 -1 -2 -1 -2 -1 -2 -1 -2 -1 -1 -1 -1 -1 -1 -1 -1 -1 -1 -1 -1 -2 -1 -2 -1 -2 -1 -2 -1 -2 -1 -2 -1 -2 -1 -2 -1 -2 0 -2 0 -2 0 -2 0 -2 0 -959 0 -2 0 -2 0 -2 0 -2 0 -2 0 -2 1 -2 1 -2 1 -2 1 -2 1 -2 1 -2 1 -2 1 -1 1 -1 1 -1 1 -1 1 -1 1 -1 1 -1 2 -1 2 -1 2 -1 2 -1 2 -1 2 -1 2 -1 2 0 2 0 2 0 2 0 2 0 2 0 408z"/>
 </g>
</svg>
