<?xml version="1.0" encoding="UTF-8"?>
<!DOCTYPE svg PUBLIC "-//W3C//DTD SVG 1.1//EN" "http://www.w3.org/Graphics/SVG/1.1/DTD/svg11.dtd">
<!-- Creator: CorelDRAW X6 -->
<svg xmlns="http://www.w3.org/2000/svg" xml:space="preserve" width="62.8618mm" height="94.293mm" version="1.1" style="shape-rendering:geometricPrecision; text-rendering:geometricPrecision; image-rendering:optimizeQuality; fill-rule:evenodd; clip-rule:evenodd"
viewBox="0 0 13089 19633"
 xmlns:xlink="http://www.w3.org/1999/xlink">
 <defs>
  <style type="text/css">
   <![CDATA[
    .str0 {stroke:black;stroke-width:15.8662}
    .fil1 {fill:#212220}
    .fil2 {fill:#FEFEFE}
    .fil3 {fill:red}
    .fil0 {fill:yellow}
   ]]>
  </style>
 </defs>
 <g id="Layer_x0020_1">
  <metadata id="CorelCorpID_0Corel-Layer"/>
  <path class="fil0" d="M561 19633c-305,0 -561,-257 -561,-562l0 -18511c0,-310 251,-561 561,-561l11967 0c310,0 561,251 561,561l0 18512c0,310 -251,561 -561,561l-11967 0z"/>
  <polygon class="fil1" points="3738,932 3738,11326 4905,10859 3270,13779 1635,10859 2803,11326 2804,932 "/>
  <path class="fil1" d="M7095 10549l-331 -331 -507 1144 -862 -3234 3207 955 -1181 485 336 336 1860 1860 286 286 0 0c114,114 226,236 338,365 107,124 202,243 287,359 469,641 679,1239 679,1706l0 934 8 0 -2 3267 -936 3 9 -3037 -4 0 0 -1168c0,-288 -154,-690 -498,-1160 -74,-101 -154,-201 -240,-301 -82,-94 -179,-199 -295,-314l0 0 -286 -286 -1869 -1869z"/>
  <path class="fil1" d="M563 19446l-21 -1 -18 -1 -18 -2 -18 -3 -18 -4 -17 -5 -17 -6 -17 -7 -17 -8 -16 -8 -16 -9 -15 -10 -15 -11 -14 -11 -14 -12 -13 -13 -13 -13 -12 -14 -11 -14 -11 -15 -10 -15 -9 -16 -8 -16 -8 -17 -7 -17 -6 -17 -5 -17 -4 -18 -3 -18 -2 -18 -1 -18 -1 -21 0 -18506 1 -22 1 -19 2 -19 3 -18 4 -18 5 -18 6 -17 7 -17 7 -17 8 -16 9 -16 10 -15 10 -15 11 -14 12 -14 12 -13 13 -12 14 -12 14 -11 15 -10 15 -10 16 -9 16 -8 17 -7 17 -7 17 -6 18 -5 18 -4 18 -3 19 -2 19 -1 22 -1 11962 0 22 1 19 1 19 2 18 3 18 4 18 5 17 6 17 7 17 7 16 8 16 9 15 10 15 10 14 11 14 12 13 12 12 13 12 14 11 14 10 15 10 15 9 16 8 16 7 17 7 17 6 17 5 18 4 18 3 18 2 19 1 19 1 22 0 18507 -1 22 -1 19 -2 19 -3 18 -4 18 -5 18 -6 17 -7 17 -7 17 -8 16 -9 16 -10 15 -10 15 -11 14 -12 14 -12 13 -13 12 -14 12 -14 11 -15 10 -15 10 -16 9 -16 8 -17 7 -17 7 -17 6 -18 5 -18 4 -18 3 -19 2 -19 1 -22 1 -11962 0zm4 -280l-10 0 -4 0 -4 0 -4 -1 -4 -1 -4 -1 -4 -1 -4 -2 -4 -2 -4 -2 -4 -2 -4 -3 -4 -3 -4 -3 -4 -3 -4 -4 -4 -4 -3 -4 -3 -4 -3 -4 -3 -4 -2 -4 -2 -4 -2 -4 -2 -4 -1 -4 -1 -4 -1 -4 -1 -4 0 -4 0 -4 0 -10 0 -18499 0 -11 0 -5 1 -5 1 -5 1 -4 1 -4 1 -4 2 -4 2 -4 2 -4 2 -4 2 -4 3 -4 3 -4 3 -3 3 -3 3 -3 3 -3 4 -3 4 -3 4 -2 4 -2 4 -2 4 -2 4 -2 4 -1 4 -1 4 -1 5 -1 5 -1 5 0 11 0 11955 0 11 0 5 0 5 1 5 1 4 1 4 1 4 1 4 2 4 2 4 2 4 2 4 2 4 3 4 3 3 3 3 3 3 3 3 3 3 4 3 4 2 4 2 4 2 4 2 4 2 4 1 4 1 4 1 4 1 5 1 5 0 5 0 11 0 18500 0 11 0 5 -1 5 -1 4 -1 4 -1 4 -1 4 -2 4 -2 4 -2 4 -2 4 -2 4 -3 4 -3 4 -3 3 -3 3 -3 3 -3 3 -4 3 -4 3 -4 2 -4 2 -4 2 -4 2 -4 2 -4 1 -4 1 -4 1 -4 1 -5 1 -5 0 -11 0 -11955 0z"/>
  <rect class="fil1" x="5840" y="932" width="1635" height="5606"/>
  <rect class="fil1 str0" x="5840" y="13078" width="1635" height="5606"/>
  <polygon class="fil2" points="9811,3268 9895,3270 9977,3276 10059,3286 10139,3301 10217,3319 10295,3341 10370,3367 10444,3396 10516,3429 10586,3465 10655,3504 10721,3546 10785,3592 10846,3640 10905,3691 10962,3745 11016,3802 11067,3861 11115,3923 11161,3986 11203,4053 11242,4121 11279,4191 11311,4263 11340,4337 11366,4413 11388,4490 11406,4568 11421,4649 11431,4730 11437,4812 11440,4896 11437,4979 11431,5062 11421,5143 11406,5223 11388,5302 11366,5379 11340,5455 11311,5529 11279,5601 11242,5671 11203,5739 11161,5805 11115,5869 11067,5931 11016,5990 10962,6046 10905,6100 10846,6152 10785,6200 10721,6245 10655,6288 10586,6327 10516,6363 10444,6396 10370,6425 10295,6451 10217,6473 10139,6491 10059,6505 9977,6516 9895,6522 9811,6524 9728,6522 9645,6516 9564,6505 9484,6491 9405,6473 9328,6451 9252,6425 9178,6396 9106,6363 9036,6327 8968,6288 8902,6245 8838,6200 8776,6152 8717,6100 8661,6046 8607,5990 8556,5931 8507,5869 8462,5805 8419,5739 8380,5671 8344,5601 8311,5529 8282,5455 8256,5379 8234,5302 8216,5223 8202,5143 8191,5062 8185,4979 8183,4896 8185,4812 8191,4730 8202,4649 8216,4568 8234,4490 8256,4413 8282,4337 8311,4263 8344,4191 8380,4121 8419,4053 8462,3986 8507,3923 8556,3861 8607,3802 8661,3745 8717,3691 8776,3640 8838,3592 8902,3546 8968,3504 9036,3465 9106,3429 9178,3396 9252,3367 9328,3341 9405,3319 9484,3301 9564,3286 9645,3276 9728,3270 "/>
  <path class="fil3" d="M9811 3319c868,0 1577,708 1577,1577 0,868 -708,1577 -1577,1577 -868,0 -1577,-708 -1577,-1577 0,-868 708,-1577 1577,-1577zm-1 419c639,0 1159,521 1159,1159 0,639 -521,1159 -1159,1159 -639,0 -1159,-521 -1159,-1159 0,-639 521,-1159 1159,-1159z"/>
 </g>
</svg>
