<?xml version="1.0" encoding="UTF-8"?>
<!DOCTYPE svg PUBLIC "-//W3C//DTD SVG 1.1//EN" "http://www.w3.org/Graphics/SVG/1.1/DTD/svg11.dtd">
<!-- Creator: CorelDRAW X6 -->
<svg xmlns="http://www.w3.org/2000/svg" xml:space="preserve" width="62.8622mm" height="94.2934mm" version="1.1" style="shape-rendering:geometricPrecision; text-rendering:geometricPrecision; image-rendering:optimizeQuality; fill-rule:evenodd; clip-rule:evenodd"
viewBox="0 0 7262 10892"
 xmlns:xlink="http://www.w3.org/1999/xlink">
 <defs>
  <style type="text/css">
   <![CDATA[
    .fil1 {fill:#212220}
    .fil0 {fill:yellow}
   ]]>
  </style>
 </defs>
 <g id="Layer_x0020_1">
  <metadata id="CorelCorpID_0Corel-Layer"/>
  <path class="fil0" d="M311 10892c-169,0 -311,-143 -311,-312l0 -10270c0,-172 139,-311 311,-311l6639 0c172,0 311,139 311,311l0 10270c0,172 -139,311 -311,311l-6639 0z"/>
  <path class="fil1" d="M313 10789l-12 0 -10 -1 -10 -1 -10 -2 -10 -2 -10 -3 -10 -3 -9 -4 -9 -4 -9 -5 -9 -5 -9 -6 -8 -6 -8 -6 -8 -7 -7 -7 -7 -7 -7 -8 -6 -8 -6 -8 -6 -9 -5 -9 -5 -9 -4 -9 -4 -9 -3 -10 -3 -10 -2 -10 -2 -10 -1 -10 -1 -10 0 -12 0 -10267 0 -12 1 -11 1 -10 2 -10 2 -10 3 -10 3 -10 4 -9 4 -9 5 -9 5 -9 5 -8 6 -8 6 -8 7 -8 7 -7 7 -7 8 -7 8 -6 8 -6 8 -5 9 -5 9 -5 9 -4 9 -4 10 -3 10 -3 10 -2 10 -2 10 -1 11 -1 12 0 6637 0 12 0 11 1 10 1 10 2 10 2 10 3 10 3 9 4 9 4 9 5 9 5 8 5 8 6 8 6 8 7 7 7 7 7 7 8 6 8 6 8 5 8 5 9 5 9 4 9 4 9 3 10 3 10 2 10 2 10 1 10 1 11 0 12 0 10267 0 12 -1 11 -1 10 -2 10 -2 10 -3 10 -3 10 -4 9 -4 9 -5 9 -5 9 -5 8 -6 8 -6 8 -7 8 -7 7 -7 7 -8 7 -8 6 -8 6 -8 5 -9 5 -9 5 -9 4 -9 4 -10 3 -10 3 -10 2 -10 2 -10 1 -11 1 -12 0 -6636 0zm2 -156l-6 0 -2 0 -2 0 -2 0 -2 -1 -2 -1 -2 -1 -2 -1 -2 -1 -2 -1 -2 -1 -2 -2 -2 -2 -2 -2 -2 -2 -2 -2 -2 -2 -2 -2 -2 -2 -2 -2 -2 -2 -1 -2 -1 -2 -1 -2 -1 -2 -1 -2 -1 -2 -1 -2 0 -2 0 -2 0 -2 0 -6 0 -10263 0 -6 0 -3 0 -3 0 -2 1 -2 1 -2 1 -2 1 -2 1 -2 1 -2 1 -2 1 -2 1 -2 2 -2 2 -2 2 -2 2 -2 2 -2 2 -2 2 -1 2 -1 2 -1 2 -1 2 -1 2 -1 2 -1 2 -1 2 -1 2 0 3 0 3 0 6 0 6633 0 6 0 3 0 3 0 2 0 2 1 2 1 2 1 2 1 2 1 2 1 2 1 2 1 2 1 2 2 2 2 2 2 2 2 2 2 2 2 1 2 1 2 1 2 1 2 1 2 1 2 1 2 1 2 1 2 0 2 0 3 0 3 0 6 0 10263 0 6 0 3 0 3 0 3 -1 2 -1 2 -1 2 -1 2 -1 2 -1 2 -1 2 -1 2 -1 2 -2 2 -2 2 -2 2 -2 2 -2 2 -2 2 -2 1 -2 1 -2 1 -2 1 -2 1 -2 1 -2 1 -2 1 -2 1 -3 0 -3 0 -3 0 -6 0 -6632 0z"/>
  <polygon class="fil1" points="2142,9596 2145,2755 2863,2983 1844,1297 877,2982 1550,2755 1551,9596 "/>
  <path class="fil1" d="M5966 6971c-49,-421 -144,-676 -394,-1008l-915 -1215 714 -252 -1826 -736 244 1929 400 -588 913 1211c200,260 236,399 276,751l-7 2533 595 -2 1 -2624z"/>
 </g>
</svg>
