<?xml version="1.0" encoding="UTF-8"?>
<!DOCTYPE svg PUBLIC "-//W3C//DTD SVG 1.1//EN" "http://www.w3.org/Graphics/SVG/1.1/DTD/svg11.dtd">
<!-- Creator: CorelDRAW X6 -->
<svg xmlns="http://www.w3.org/2000/svg" xml:space="preserve" width="62.8619mm" height="94.293mm" version="1.1" style="shape-rendering:geometricPrecision; text-rendering:geometricPrecision; image-rendering:optimizeQuality; fill-rule:evenodd; clip-rule:evenodd"
viewBox="0 0 5677 8515"
 xmlns:xlink="http://www.w3.org/1999/xlink">
 <defs>
  <style type="text/css">
   <![CDATA[
    .str0 {stroke:#2B2A29;stroke-width:6.88101}
    .fil1 {fill:#212220}
    .fil2 {fill:#FEFEFE}
    .fil3 {fill:red}
    .fil0 {fill:yellow}
   ]]>
  </style>
 </defs>
 <g id="Layer_x0020_1">
  <metadata id="CorelCorpID_0Corel-Layer"/>
  <path class="fil0" d="M243 8515c-132,0 -243,-111 -243,-244l0 -8028c0,-134 109,-243 243,-243l5190 0c134,0 243,109 243,243l0 8028c0,134 -109,243 -243,243l-5190 0z"/>
  <path class="fil1" d="M2600 4096l1 -1 13 -15 -485 -228 1419 -405 -405 1419 -247 -494 -922 934c-134,157 -219,289 -272,433 -53,148 -76,317 -81,546l1 0 0 1825 -405 0 0 -1825 1 -5c7,-276 35,-485 105,-679 71,-196 181,-367 349,-563l9 -10 919 -932z"/>
  <path class="fil1" d="M244 8434l-9 0 -8 -1 -8 -1 -8 -1 -8 -2 -8 -2 -7 -3 -7 -3 -7 -3 -7 -4 -7 -4 -7 -4 -6 -5 -6 -5 -6 -5 -6 -6 -5 -6 -5 -6 -5 -6 -5 -6 -4 -7 -4 -7 -4 -7 -3 -7 -3 -7 -3 -7 -2 -8 -2 -8 -1 -8 -1 -8 -1 -8 0 -9 0 -8026 0 -9 1 -8 1 -8 1 -8 2 -8 2 -8 3 -8 3 -7 3 -7 4 -7 4 -7 4 -7 5 -6 5 -6 5 -6 5 -6 6 -5 6 -5 6 -5 6 -5 7 -4 7 -4 7 -4 7 -3 7 -3 8 -3 8 -2 8 -2 8 -1 8 -1 8 -1 9 0 5188 0 9 0 8 1 8 1 8 1 8 2 8 2 8 3 7 3 7 3 7 4 7 4 7 4 6 5 6 5 6 5 6 5 5 6 5 6 5 6 5 6 4 7 4 7 4 7 3 7 3 7 3 8 2 8 2 8 1 8 1 8 1 8 0 9 0 8026 0 9 -1 8 -1 8 -1 8 -2 8 -2 8 -3 8 -3 7 -3 7 -4 7 -4 7 -4 7 -5 6 -5 6 -5 6 -5 6 -6 5 -6 5 -6 5 -6 5 -7 4 -7 4 -7 4 -7 3 -7 3 -8 3 -8 2 -8 2 -8 1 -8 1 -8 1 -9 0 -5188 0zm2 -122l-4 0 -2 0 -2 0 -2 0 -2 0 -2 0 -2 -1 -2 -1 -2 -1 -2 -1 -2 -1 -2 -1 -2 -1 -2 -1 -2 -1 -2 -2 -2 -2 -2 -2 -1 -2 -1 -2 -1 -2 -1 -2 -1 -2 -1 -2 -1 -2 -1 -2 -1 -2 0 -2 0 -2 0 -2 0 -2 0 -4 0 -8023 0 -5 0 -2 0 -2 0 -2 0 -2 1 -2 1 -2 1 -2 1 -2 1 -2 1 -2 1 -2 1 -2 1 -2 1 -2 1 -1 1 -1 2 -1 2 -1 2 -1 2 -1 2 -1 2 -1 2 -1 2 -1 2 -1 2 -1 2 0 2 0 2 0 2 0 5 0 5185 0 5 0 2 0 2 0 2 0 2 0 2 1 2 1 2 1 2 1 2 1 2 1 2 1 2 1 2 1 2 1 1 1 1 1 1 2 1 2 1 2 1 2 1 2 1 2 1 2 1 2 1 2 1 2 0 2 0 2 0 2 0 2 0 5 0 8023 0 5 0 2 0 2 0 2 0 2 -1 2 -1 2 -1 2 -1 2 -1 2 -1 2 -1 2 -1 2 -1 2 -1 2 -1 1 -1 1 -2 1 -2 1 -2 1 -2 1 -2 1 -2 1 -2 1 -2 1 -2 1 -2 1 -2 0 -2 0 -2 0 -2 0 -5 0 -5185 0z"/>
  <rect class="fil1 str0" x="2534" y="5676" width="710" height="2433"/>
  <rect class="fil1" x="2534" y="405" width="710" height="2332"/>
  <circle class="fil2" cx="1419" cy="2027" r="667"/>
  <polygon class="fil2" points="1419,1321 1455,1322 1491,1324 1526,1329 1561,1335 1595,1343 1629,1353 1662,1364 1694,1376 1725,1391 1755,1406 1785,1423 1813,1442 1841,1461 1868,1482 1893,1505 1918,1528 1941,1553 1964,1578 1985,1605 2004,1633 2023,1661 2040,1691 2055,1721 2070,1753 2082,1785 2093,1817 2103,1851 2111,1885 2117,1920 2122,1955 2124,1991 2125,2027 2124,2063 2122,2099 2117,2134 2111,2169 2103,2203 2093,2237 2082,2269 2070,2301 2055,2333 2040,2363 2023,2393 2004,2421 1985,2449 1964,2476 1941,2501 1918,2526 1893,2549 1868,2572 1841,2593 1813,2612 1785,2631 1755,2648 1725,2663 1694,2678 1662,2690 1629,2701 1595,2711 1561,2719 1526,2725 1491,2730 1455,2732 1419,2733 1383,2732 1347,2730 1312,2725 1277,2719 1243,2711 1209,2701 1177,2690 1145,2678 1113,2663 1083,2648 1053,2631 1025,2612 997,2593 970,2572 945,2549 920,2526 897,2501 875,2476 854,2449 834,2421 815,2393 798,2363 783,2333 769,2301 756,2269 745,2237 735,2203 727,2169 721,2134 717,2099 714,2063 713,2027 714,1991 717,1955 721,1920 727,1885 735,1851 745,1817 756,1785 769,1753 783,1721 798,1691 815,1661 834,1633 854,1605 875,1578 897,1553 920,1528 945,1505 970,1482 997,1461 1025,1442 1053,1423 1083,1406 1113,1391 1145,1376 1177,1364 1209,1353 1243,1343 1277,1335 1312,1329 1347,1324 1383,1322 "/>
  <polygon class="fil3" points="1419,1371 1453,1372 1486,1374 1519,1379 1551,1384 1583,1392 1614,1401 1644,1411 1674,1423 1703,1436 1731,1450 1759,1466 1785,1483 1811,1502 1836,1521 1860,1542 1882,1564 1904,1586 1925,1610 1944,1635 1963,1661 1980,1687 1996,1715 2010,1743 2023,1772 2035,1802 2045,1832 2054,1863 2062,1895 2067,1927 2072,1960 2074,1993 2075,2027 2074,2061 2072,2094 2067,2127 2062,2159 2054,2191 2045,2222 2035,2252 2023,2282 2010,2311 1996,2339 1980,2367 1963,2393 1944,2419 1925,2444 1904,2468 1882,2490 1860,2512 1836,2533 1811,2552 1785,2571 1759,2588 1731,2604 1703,2618 1674,2631 1644,2643 1614,2653 1583,2662 1551,2670 1519,2675 1486,2680 1453,2682 1419,2683 1385,2682 1352,2680 1319,2675 1287,2670 1256,2662 1224,2653 1194,2643 1164,2631 1135,2618 1107,2604 1079,2588 1053,2571 1027,2552 1002,2533 978,2512 956,2490 934,2468 913,2444 894,2419 875,2393 858,2367 842,2339 828,2311 815,2282 803,2252 793,2222 784,2191 776,2159 771,2127 767,2094 764,2061 763,2027 764,1993 767,1960 771,1927 776,1895 784,1863 793,1832 803,1802 815,1772 828,1743 842,1715 858,1687 875,1661 894,1635 913,1610 934,1586 956,1564 978,1542 1002,1521 1027,1502 1053,1483 1079,1466 1107,1450 1135,1436 1164,1423 1194,1411 1224,1401 1256,1392 1287,1384 1319,1379 1352,1374 1385,1372 "/>
  <path class="fil2" d="M864 2166c-43,-92 -41,-193 -1,-278l1114 -1c40,93 38,201 -1,278l-1112 0z"/>
 </g>
</svg>
