<?xml version="1.0" encoding="UTF-8"?>
<!DOCTYPE svg PUBLIC "-//W3C//DTD SVG 1.1//EN" "http://www.w3.org/Graphics/SVG/1.1/DTD/svg11.dtd">
<!-- Creator: CorelDRAW X6 -->
<svg xmlns="http://www.w3.org/2000/svg" xml:space="preserve" width="40.19mm" height="23.476mm" version="1.1" style="shape-rendering:geometricPrecision; text-rendering:geometricPrecision; image-rendering:optimizeQuality; fill-rule:evenodd; clip-rule:evenodd"
viewBox="0 0 802 468"
 xmlns:xlink="http://www.w3.org/1999/xlink">
 <defs>
  <style type="text/css">
   <![CDATA[
    .str0 {stroke:#2B2A29;stroke-width:1.52021}
    .fil0 {fill:#FEFEFE}
    .fil1 {fill:#33CC33}
    .fil2 {fill:#FEFEFE;fill-rule:nonzero}
   ]]>
  </style>
 </defs>
 <g id="Layer_x0020_1">
  <metadata id="CorelCorpID_0Corel-Layer"/>
  <polygon class="fil0 str0" points="801,408 801,411 801,414 800,417 800,420 799,423 798,425 797,428 796,431 795,434 794,436 792,439 791,441 789,443 787,446 785,448 783,450 781,452 779,454 777,456 775,457 772,459 770,460 767,462 764,463 762,464 759,465 756,466 753,466 750,467 747,467 744,468 741,468 422,468 61,468 58,468 55,467 52,467 49,466 46,466 43,465 40,464 37,463 35,462 32,460 30,459 27,457 25,456 23,454 20,452 18,450 16,448 14,446 13,443 11,441 9,439 8,436 7,434 5,431 4,428 3,425 3,423 2,420 1,417 1,414 1,411 1,408 1,61 1,58 1,55 1,52 2,49 3,46 3,43 4,40 5,37 7,35 8,32 9,30 11,27 13,25 14,23 16,20 18,18 20,16 23,14 25,13 27,11 30,9 32,8 35,7 37,5 40,4 43,3 46,3 49,2 52,1 55,1 58,1 61,1 422,1 741,1 744,1 747,1 750,1 753,2 756,3 759,3 762,4 764,5 767,7 770,8 772,9 775,11 777,13 779,14 781,16 783,18 785,20 787,23 789,25 791,27 792,30 794,32 795,35 796,37 797,40 798,43 799,46 800,49 800,52 801,55 801,58 801,61 "/>
  <polygon class="fil1" points="422,454 741,454 743,454 746,454 748,454 750,453 753,453 755,452 757,451 759,451 761,450 763,449 765,448 767,446 769,445 771,444 772,442 774,441 776,439 777,437 778,435 780,434 781,432 782,430 783,428 784,426 785,424 786,421 786,419 787,417 787,415 787,412 788,410 788,407 788,61 788,58 787,56 787,54 787,51 786,49 786,47 785,45 784,43 783,41 782,39 781,37 780,35 778,33 777,31 776,29 774,28 772,26 771,25 769,23 767,22 765,21 763,20 761,19 759,18 757,17 755,16 753,16 750,15 748,15 746,14 743,14 741,14 422,14 61,14 58,14 56,14 54,15 51,15 49,16 47,16 45,17 43,18 41,19 39,20 37,21 35,22 33,23 31,25 29,26 28,28 26,29 25,31 23,33 22,35 21,37 20,39 19,41 18,43 17,45 16,47 16,49 15,51 15,54 14,56 14,58 14,61 14,407 14,410 14,412 15,415 15,417 16,419 16,421 17,424 18,426 19,428 20,430 21,432 22,434 23,435 25,437 26,439 28,441 29,442 31,444 33,445 35,446 37,448 39,449 41,450 43,451 45,451 47,452 49,453 51,453 54,454 56,454 58,454 61,454 "/>
  <path class="fil2" d="M101 368l0 -267 171 0 0 38 -130 0 0 76 111 0 0 36 -111 0 0 79 130 0 0 38 -171 0zm283 0l0 -36 105 -131c4,-5 7,-10 8,-14 1,-4 2,-8 2,-12 0,-9 -3,-18 -10,-26 -7,-8 -16,-12 -27,-12 -10,0 -19,3 -27,10 -7,7 -12,16 -12,28l-38 0c0,-22 8,-40 22,-55 15,-15 32,-22 52,-22 22,0 41,8 56,22 15,15 22,33 22,54 0,18 -5,34 -16,47l-86 108 102 0 0 38 -153 0zm296 -77l0 -114c0,-13 -3,-23 -10,-30 -7,-7 -16,-11 -27,-11 -11,0 -20,4 -27,11 -7,7 -10,17 -10,30l0 114c0,13 3,23 10,30 7,7 16,11 27,11 11,0 20,-4 27,-11 7,-7 10,-17 10,-30zm-114 2l0 -118c0,-25 8,-44 23,-57 15,-13 33,-20 53,-20 20,0 37,7 53,20 15,13 23,32 23,57l0 118c0,25 -8,44 -23,57 -15,13 -33,20 -53,20 -20,0 -37,-7 -53,-20 -15,-13 -23,-32 -23,-57z"/>
 </g>
</svg>
