<?xml version="1.0" encoding="UTF-8"?>
<!DOCTYPE svg PUBLIC "-//W3C//DTD SVG 1.1//EN" "http://www.w3.org/Graphics/SVG/1.1/DTD/svg11.dtd">
<!-- Creator: CorelDRAW X6 -->
<svg xmlns="http://www.w3.org/2000/svg" xml:space="preserve" width="40.1903mm" height="23.4761mm" version="1.1" style="shape-rendering:geometricPrecision; text-rendering:geometricPrecision; image-rendering:optimizeQuality; fill-rule:evenodd; clip-rule:evenodd"
viewBox="0 0 3773 2204"
 xmlns:xlink="http://www.w3.org/1999/xlink">
 <defs>
  <style type="text/css">
   <![CDATA[
    .str0 {stroke:#2B2A29;stroke-width:7.1536}
    .fil0 {fill:#FEFEFE}
    .fil1 {fill:red}
    .fil2 {fill:#FEFEFE;fill-rule:nonzero}
   ]]>
  </style>
 </defs>
 <g id="Layer_x0020_1">
  <metadata id="CorelCorpID_0Corel-Layer"/>
  <polygon class="fil0 str0" points="3769,1918 3769,1932 3768,1947 3766,1961 3764,1975 3761,1989 3757,2002 3752,2015 3747,2028 3742,2040 3735,2053 3729,2064 3721,2076 3713,2087 3705,2098 3696,2108 3687,2118 3677,2127 3667,2136 3656,2144 3645,2152 3633,2159 3622,2166 3609,2172 3597,2178 3584,2183 3571,2188 3558,2191 3544,2195 3530,2197 3516,2199 3502,2200 3487,2200 1988,2200 286,2200 271,2200 257,2199 243,2197 229,2195 215,2191 202,2188 189,2183 176,2178 164,2172 151,2166 140,2159 128,2152 117,2144 106,2136 96,2127 86,2118 77,2108 68,2098 60,2087 52,2076 44,2064 38,2053 31,2040 26,2028 21,2015 16,2002 12,1989 9,1975 7,1961 5,1947 4,1932 4,1918 4,286 4,271 5,257 7,243 9,229 12,215 16,202 21,189 26,176 31,164 38,151 44,140 52,128 60,117 68,106 77,96 86,86 96,77 106,68 117,60 128,52 140,44 151,38 164,31 176,26 189,21 202,16 215,12 229,9 243,7 257,5 271,4 286,4 1988,4 3487,4 3502,4 3516,5 3530,7 3544,9 3558,12 3571,16 3584,21 3597,26 3609,31 3622,38 3633,44 3645,52 3656,60 3667,68 3677,77 3687,86 3696,96 3705,106 3713,117 3721,128 3729,140 3735,151 3742,164 3747,176 3752,189 3757,202 3761,215 3764,229 3766,243 3768,257 3769,271 3769,286 "/>
  <polygon class="fil1" points="1988,2138 3486,2138 3498,2137 3510,2136 3521,2135 3531,2133 3542,2131 3552,2128 3563,2124 3572,2120 3582,2116 3592,2111 3601,2106 3610,2100 3618,2094 3627,2087 3635,2081 3642,2073 3650,2066 3657,2058 3663,2049 3669,2041 3675,2032 3680,2023 3685,2013 3689,2003 3693,1993 3697,1983 3700,1973 3702,1962 3704,1951 3706,1940 3706,1929 3707,1917 3707,287 3706,275 3706,263 3704,252 3702,242 3700,231 3697,221 3693,210 3689,201 3685,191 3680,181 3675,172 3669,163 3663,155 3657,146 3650,138 3642,131 3635,123 3627,116 3618,110 3610,104 3601,98 3592,93 3582,88 3572,84 3563,80 3552,76 3542,73 3531,71 3521,69 3510,67 3498,67 3486,66 1988,66 287,66 275,67 263,67 252,69 242,71 231,73 221,76 210,80 201,84 191,88 181,93 172,98 163,104 155,110 146,116 138,123 131,131 123,138 117,146 110,155 104,163 98,172 93,181 88,191 84,201 80,210 76,221 73,231 71,242 69,252 67,263 67,275 66,287 66,1917 67,1929 67,1940 69,1951 71,1962 73,1973 76,1983 80,1993 84,2003 88,2013 93,2023 98,2032 104,2041 110,2049 117,2058 123,2066 131,2073 138,2081 146,2087 155,2094 163,2100 172,2106 181,2111 191,2116 201,2120 210,2124 221,2128 231,2131 242,2133 252,2135 263,2136 275,2137 287,2138 "/>
  <path class="fil2" d="M407 1729l459 -1259 157 0 459 1259 -200 0 -97 -284 -477 0 -100 284 -201 0zm357 -452l364 0c-27,-78 -47,-139 -62,-183 -15,-44 -29,-83 -40,-117 -11,-34 -23,-68 -34,-103 -11,-35 -27,-83 -46,-143 -20,62 -36,112 -48,149 -12,37 -24,73 -35,107 -11,35 -24,73 -39,116 -14,42 -34,100 -60,174zm1511 453l0 -1067 -179 130 0 -191 179 -131 180 0 0 1258 -180 0zm403 0l0 -169 492 -616c19,-24 32,-46 37,-67 6,-20 9,-40 9,-59 0,-44 -15,-85 -47,-122 -31,-37 -73,-56 -127,-56 -49,0 -91,16 -126,49 -35,32 -54,77 -58,134l-181 0c1,-102 35,-188 105,-258 69,-70 151,-105 246,-105 105,0 192,35 262,106 70,70 105,156 105,255 0,85 -25,159 -75,221l-405 508 480 0 0 179 -718 0z"/>
 </g>
</svg>
