<?xml version="1.0" encoding="UTF-8"?>
<!DOCTYPE svg PUBLIC "-//W3C//DTD SVG 1.1//EN" "http://www.w3.org/Graphics/SVG/1.1/DTD/svg11.dtd">
<!-- Creator: CorelDRAW X6 -->
<svg xmlns="http://www.w3.org/2000/svg" xml:space="preserve" width="40.1901mm" height="23.4761mm" version="1.1" style="shape-rendering:geometricPrecision; text-rendering:geometricPrecision; image-rendering:optimizeQuality; fill-rule:evenodd; clip-rule:evenodd"
viewBox="0 0 3190 1864"
 xmlns:xlink="http://www.w3.org/1999/xlink">
 <defs>
  <style type="text/css">
   <![CDATA[
    .str0 {stroke:#2B2A29;stroke-width:6.04888}
    .fil0 {fill:#FEFEFE}
    .fil1 {fill:blue}
    .fil2 {fill:#FEFEFE;fill-rule:nonzero}
   ]]>
  </style>
 </defs>
 <g id="Layer_x0020_1">
  <metadata id="CorelCorpID_0Corel-Layer"/>
  <polygon class="fil0 str0" points="3187,1622 3187,1634 3186,1646 3185,1658 3182,1670 3180,1681 3177,1693 3173,1704 3169,1715 3164,1725 3158,1736 3153,1746 3147,1755 3140,1765 3133,1774 3125,1782 3117,1791 3109,1799 3100,1806 3091,1813 3082,1820 3072,1826 3062,1832 3052,1837 3041,1842 3031,1846 3020,1850 3008,1853 2997,1856 2985,1858 2973,1859 2961,1860 2949,1861 1681,1861 242,1861 230,1860 217,1859 205,1858 194,1856 182,1853 171,1850 160,1846 149,1842 138,1837 128,1832 118,1826 108,1820 99,1813 90,1806 81,1799 73,1791 65,1782 58,1774 50,1765 44,1755 38,1746 32,1736 27,1725 22,1715 18,1704 14,1693 11,1681 8,1670 6,1658 4,1646 3,1634 3,1622 3,242 3,230 4,217 6,205 8,194 11,182 14,171 18,160 22,149 27,138 32,128 38,118 44,108 50,99 58,90 65,81 73,73 81,65 90,58 99,50 108,44 118,38 128,32 138,27 149,22 160,18 171,14 182,11 194,8 205,6 217,4 230,3 242,3 1681,3 2949,3 2961,3 2973,4 2985,6 2997,8 3008,11 3020,14 3031,18 3041,22 3052,27 3062,32 3072,38 3082,44 3091,50 3100,58 3109,65 3117,73 3125,81 3133,90 3140,99 3147,108 3153,118 3158,128 3164,138 3169,149 3173,160 3177,171 3180,182 3182,194 3185,205 3186,217 3187,230 3187,242 "/>
  <polygon class="fil1" points="1681,1807 2948,1807 2958,1807 2968,1806 2977,1805 2986,1804 2995,1802 3004,1799 3012,1796 3021,1793 3029,1789 3037,1785 3045,1781 3052,1776 3060,1771 3067,1765 3073,1759 3080,1753 3086,1747 3092,1740 3097,1733 3103,1726 3107,1718 3112,1710 3116,1702 3120,1694 3123,1686 3126,1677 3128,1668 3130,1659 3132,1650 3133,1641 3134,1631 3134,1621 3134,242 3134,232 3133,223 3132,213 3130,204 3128,195 3126,187 3123,178 3120,170 3116,161 3112,153 3107,146 3103,138 3097,131 3092,124 3086,117 3080,111 3073,104 3067,99 3060,93 3052,88 3045,83 3037,79 3029,74 3021,71 3012,67 3004,64 2995,62 2986,60 2977,58 2968,57 2958,56 2948,56 1681,56 243,56 232,56 223,57 213,58 204,60 195,62 187,64 178,67 170,71 161,74 153,79 146,83 138,88 131,93 124,99 117,104 111,111 104,117 99,124 93,131 88,138 83,146 79,153 74,161 71,170 67,178 64,187 62,195 60,204 58,213 57,223 56,232 56,242 56,1621 56,1631 57,1641 58,1650 60,1659 62,1668 64,1677 67,1686 71,1694 74,1702 79,1710 83,1718 88,1726 93,1733 99,1740 104,1747 111,1753 117,1759 124,1765 131,1771 138,1776 146,1781 153,1785 161,1789 170,1793 178,1796 187,1799 195,1802 204,1804 213,1805 223,1806 232,1807 243,1807 "/>
  <path class="fil2" d="M547 552l0 343 239 0c60,0 104,-18 134,-54 29,-36 44,-75 44,-118 0,-64 -23,-111 -69,-142 -30,-20 -68,-30 -115,-30l-234 0zm-161 911l0 -1064 386 0c41,0 81,4 119,13 38,9 78,29 119,61 32,25 59,59 82,103 22,44 34,94 34,152 0,76 -28,148 -85,217 -57,69 -140,103 -249,103l-245 0 0 415 -161 0zm1180 0l0 -143 416 -521c16,-20 27,-39 31,-56 5,-17 7,-34 7,-50 0,-37 -13,-72 -39,-103 -26,-32 -62,-48 -107,-48 -41,0 -77,14 -106,41 -29,27 -46,65 -49,113l-153 0c1,-86 30,-159 88,-218 58,-59 128,-89 208,-89 88,0 162,30 222,89 59,60 89,132 89,216 0,72 -21,134 -64,187l-342 429 406 0 0 152 -607 0zm876 -768c0,50 16,88 47,114 31,26 67,39 105,39 39,0 74,-13 106,-39 31,-26 47,-64 47,-114 0,-50 -16,-87 -47,-114 -31,-26 -67,-39 -106,-39 -39,0 -74,13 -105,39 -31,26 -47,64 -47,114zm-171 458c0,-104 42,-184 125,-239 -31,-28 -57,-60 -77,-94 -20,-34 -29,-75 -29,-121 0,-86 29,-158 88,-218 59,-60 131,-90 217,-90 86,0 159,30 217,90 59,60 88,133 88,218 0,47 -10,87 -30,121 -20,34 -45,66 -76,94 83,56 125,136 125,239 0,94 -32,171 -96,230 -64,59 -140,89 -228,89 -88,0 -165,-30 -229,-89 -64,-59 -95,-136 -95,-230zm153 -1c0,49 17,89 51,121 34,32 75,48 120,48 45,0 85,-16 120,-48 35,-32 52,-72 52,-121 0,-49 -17,-89 -52,-121 -35,-32 -75,-48 -120,-48 -46,0 -86,16 -120,48 -34,32 -51,73 -51,121z"/>
 </g>
</svg>
