<?xml version="1.0" encoding="UTF-8"?>
<!DOCTYPE svg PUBLIC "-//W3C//DTD SVG 1.1//EN" "http://www.w3.org/Graphics/SVG/1.1/DTD/svg11.dtd">
<!-- Creator: CorelDRAW X6 -->
<svg xmlns="http://www.w3.org/2000/svg" xml:space="preserve" width="63.1159mm" height="23.3013mm" version="1.1" style="shape-rendering:geometricPrecision; text-rendering:geometricPrecision; image-rendering:optimizeQuality; fill-rule:evenodd; clip-rule:evenodd"
viewBox="0 0 5333 1969"
 xmlns:xlink="http://www.w3.org/1999/xlink">
 <defs>
  <style type="text/css">
   <![CDATA[
    .str0 {stroke:#2B2A29;stroke-width:6.43893}
    .fil0 {fill:#FEFEFE}
    .fil1 {fill:blue}
    .fil2 {fill:#33CC33}
    .fil3 {fill:#FEFEFE;fill-rule:nonzero}
    .fil4 {fill:black;fill-rule:nonzero}
   ]]>
  </style>
 </defs>
 <g id="Layer_x0020_1">
  <metadata id="CorelCorpID_0Corel-Layer"/>
  <polygon class="fil0 str0" points="1374,1966 961,1966 256,1966 243,1965 230,1964 217,1963 205,1961 192,1958 181,1954 169,1950 157,1946 146,1941 135,1935 125,1929 114,1923 105,1916 95,1908 86,1900 77,1892 69,1883 61,1874 53,1864 46,1855 40,1844 34,1834 28,1823 23,1812 19,1800 15,1788 11,1777 8,1764 6,1752 5,1739 4,1726 3,1713 3,256 4,243 5,230 6,217 8,205 11,192 15,180 19,169 23,157 28,146 34,135 40,125 46,114 53,105 61,95 69,86 77,77 86,69 95,61 105,53 114,46 125,40 135,34 146,28 157,23 169,19 181,15 192,11 205,8 217,6 230,5 243,4 256,3 961,3 1374,3 2218,3 3048,3 3739,3 5078,3 5091,4 5104,5 5116,6 5129,8 5141,11 5153,15 5165,19 5176,23 5187,28 5198,34 5209,40 5219,46 5229,53 5238,61 5247,69 5256,77 5265,86 5272,95 5280,105 5287,114 5294,125 5300,135 5305,146 5310,157 5315,169 5319,180 5322,192 5325,205 5327,217 5329,230 5330,243 5330,256 5330,1713 5330,1726 5329,1739 5327,1752 5325,1764 5322,1777 5319,1788 5315,1800 5310,1812 5305,1823 5300,1834 5294,1844 5287,1855 5280,1864 5272,1874 5265,1883 5256,1892 5247,1900 5238,1908 5229,1916 5219,1923 5209,1929 5198,1935 5187,1941 5176,1946 5165,1950 5153,1954 5141,1958 5129,1961 5116,1963 5104,1964 5091,1965 5078,1966 3739,1966 3048,1966 2218,1966 "/>
  <polygon class="fil1" points="844,1910 845,1910 1374,1910 1713,1910 1724,1909 1734,1909 1743,1907 1753,1906 1763,1903 1772,1901 1781,1898 1790,1894 1798,1890 1807,1886 1815,1881 1823,1876 1831,1871 1838,1865 1845,1859 1852,1852 1859,1845 1865,1838 1871,1831 1876,1823 1881,1815 1886,1807 1890,1798 1894,1790 1898,1781 1901,1772 1903,1763 1906,1753 1907,1743 1909,1734 1909,1724 1910,1713 1910,256 1909,245 1909,235 1907,226 1906,216 1903,206 1901,197 1898,188 1894,179 1890,170 1886,162 1881,154 1876,146 1871,138 1865,131 1859,124 1852,117 1845,110 1838,104 1831,98 1823,93 1815,88 1807,83 1798,79 1790,75 1781,71 1772,68 1763,65 1753,63 1743,62 1734,60 1724,60 1713,59 1374,59 845,59 844,59 256,59 245,60 235,60 226,62 216,63 206,65 197,68 188,71 179,75 171,79 162,83 154,88 146,93 138,98 131,104 124,110 117,117 110,124 104,131 98,138 93,146 88,154 83,162 79,170 75,179 71,188 68,197 65,206 63,216 62,226 60,235 60,245 59,256 59,1713 60,1724 60,1734 62,1743 63,1753 65,1763 68,1772 71,1781 75,1790 79,1798 83,1807 88,1815 93,1823 98,1831 104,1838 110,1845 117,1852 124,1859 131,1865 138,1871 146,1876 154,1881 162,1886 171,1890 179,1894 188,1898 197,1901 206,1903 216,1906 226,1907 235,1909 245,1909 256,1910 "/>
  <polygon class="fil2" points="3739,1910 5077,1910 5088,1909 5098,1909 5108,1907 5117,1906 5127,1903 5136,1901 5145,1898 5154,1894 5163,1890 5171,1886 5179,1881 5187,1876 5195,1871 5203,1865 5210,1859 5217,1852 5223,1845 5229,1838 5235,1831 5241,1823 5246,1815 5250,1807 5255,1798 5259,1790 5262,1781 5265,1772 5268,1763 5270,1753 5272,1743 5273,1734 5274,1724 5274,1713 5274,256 5274,245 5273,235 5272,226 5270,216 5268,206 5265,197 5262,188 5259,179 5255,170 5250,162 5246,154 5241,146 5235,138 5229,131 5223,124 5217,117 5210,110 5203,104 5195,98 5187,93 5179,88 5171,83 5163,79 5154,75 5145,71 5136,68 5127,65 5117,63 5108,62 5098,60 5088,60 5077,59 3739,59 2219,59 2208,60 2198,60 2188,62 2178,63 2169,65 2160,68 2151,71 2142,75 2133,79 2125,83 2116,88 2108,93 2101,98 2093,104 2086,110 2079,117 2073,124 2067,131 2061,138 2055,146 2050,154 2046,162 2041,170 2037,179 2034,188 2031,197 2028,206 2026,216 2024,226 2023,235 2022,245 2022,256 2022,1713 2022,1724 2023,1734 2024,1743 2026,1753 2028,1763 2031,1772 2034,1781 2037,1790 2041,1798 2046,1807 2050,1815 2055,1823 2061,1831 2067,1838 2073,1845 2079,1852 2086,1859 2093,1865 2101,1871 2108,1876 2116,1881 2125,1886 2133,1890 2142,1894 2151,1898 2160,1901 2169,1903 2178,1906 2188,1907 2198,1909 2208,1909 2219,1910 "/>
  <path class="fil3" d="M2386 1546l0 -1124 719 0 0 161 -548 0 0 320 467 0 0 152 -467 0 0 330 548 0 0 160 -719 0zm1188 0l0 -151 440 -550c17,-22 28,-41 33,-60 5,-18 8,-36 8,-52 0,-39 -14,-76 -42,-109 -28,-33 -66,-50 -113,-50 -44,0 -81,14 -112,43 -31,29 -48,69 -52,119l-161 0c1,-91 32,-168 93,-230 62,-62 135,-94 220,-94 93,0 172,32 234,95 62,63 94,139 94,228 0,76 -22,142 -67,197l-362 454 429 0 0 160 -641 0zm1245 -323l0 -477c0,-54 -14,-96 -44,-127 -29,-30 -67,-45 -115,-45 -48,0 -86,15 -115,45 -29,31 -43,73 -43,127l0 477c0,55 14,97 43,127 29,30 67,45 115,45 47,0 86,-15 115,-45 29,-30 44,-72 44,-127zm-478 9l0 -496c0,-103 33,-183 97,-240 65,-56 139,-85 222,-85 83,0 157,28 222,85 65,56 97,136 97,240l0 496c0,103 -32,183 -97,239 -65,56 -139,84 -222,84 -83,0 -157,-28 -222,-84 -65,-56 -97,-136 -97,-239z"/>
  <g>
   <polygon class="fil0" points="985,226 635,927 868,892 868,1685 1102,1685 1102,892 1336,927 "/>
   <path id="1" class="fil4" d="M633 914l351 -702 2 27 -351 702 -1 1 -1 -29zm1 29l-17 3 16 -31 1 29zm234 -35l-234 35 0 -30 234 -35 3 15 -3 15zm0 -30l3 0 0 15 -3 -15zm-3 808l0 -793 6 0 0 793 -3 15 -3 -15zm3 15l-3 0 0 -15 3 15zm234 0l-234 0 0 -30 234 0 3 15 -3 15zm3 -15l0 15 -3 0 3 -15zm0 -793l0 793 -6 0 0 -793 3 -15 3 15zm-6 0l0 -15 3 0 -3 15zm237 50l-234 -35 0 -30 234 35 1 1 -1 29zm1 -29l16 31 -17 -3 1 -29zm-351 -702l351 702 -2 27 -351 -702 0 -27 2 0zm-2 0l1 -2 1 2 -2 0z"/>
  </g>
 </g>
</svg>
