<?xml version="1.0" encoding="UTF-8"?>
<!DOCTYPE svg PUBLIC "-//W3C//DTD SVG 1.1//EN" "http://www.w3.org/Graphics/SVG/1.1/DTD/svg11.dtd">
<!-- Creator: CorelDRAW X6 -->
<svg xmlns="http://www.w3.org/2000/svg" xml:space="preserve" width="63.1159mm" height="23.3014mm" version="1.1" style="shape-rendering:geometricPrecision; text-rendering:geometricPrecision; image-rendering:optimizeQuality; fill-rule:evenodd; clip-rule:evenodd"
viewBox="0 0 4010 1480"
 xmlns:xlink="http://www.w3.org/1999/xlink">
 <defs>
  <style type="text/css">
   <![CDATA[
    .str0 {stroke:#2B2A29;stroke-width:4.84079}
    .fil0 {fill:#FEFEFE}
    .fil1 {fill:blue}
    .fil2 {fill:red}
    .fil3 {fill:#FEFEFE;fill-rule:nonzero}
   ]]>
  </style>
 </defs>
 <g id="Layer_x0020_1">
  <metadata id="CorelCorpID_0Corel-Layer"/>
  <polygon class="fil0 str0" points="1033,1478 722,1478 192,1478 182,1478 173,1477 163,1476 154,1474 145,1472 136,1469 127,1466 118,1463 110,1459 102,1455 94,1450 86,1445 79,1440 71,1435 65,1429 58,1422 52,1416 46,1409 40,1402 35,1394 30,1387 25,1379 21,1370 17,1362 14,1353 11,1345 8,1336 6,1326 5,1317 3,1308 3,1298 2,1288 2,192 3,182 3,173 5,163 6,154 8,145 11,136 14,127 17,118 21,110 25,102 30,94 35,86 40,79 46,71 52,65 58,58 65,52 71,46 79,40 86,35 94,30 102,25 110,21 118,17 127,14 136,11 145,8 154,6 163,5 173,3 182,3 192,2 722,2 1033,2 1668,2 2292,2 2811,2 3817,2 3827,3 3837,3 3846,5 3856,6 3865,8 3874,11 3883,14 3891,17 3900,21 3908,25 3916,30 3924,35 3931,40 3938,46 3945,52 3952,58 3958,65 3964,71 3969,79 3975,86 3980,94 3984,102 3988,110 3992,118 3996,127 3999,136 4001,145 4003,154 4005,163 4006,173 4007,182 4007,192 4007,1288 4007,1298 4006,1308 4005,1317 4003,1326 4001,1336 3999,1345 3996,1353 3992,1362 3988,1370 3984,1379 3980,1387 3975,1394 3969,1402 3964,1409 3958,1416 3952,1422 3945,1429 3938,1435 3931,1440 3924,1445 3916,1450 3908,1455 3900,1459 3891,1463 3883,1466 3874,1469 3865,1472 3856,1474 3846,1476 3837,1477 3827,1478 3817,1478 2811,1478 2292,1478 1668,1478 "/>
  <polygon class="fil1" points="635,1436 635,1436 1033,1436 1288,1436 1296,1435 1303,1435 1311,1434 1318,1433 1325,1431 1332,1429 1339,1427 1346,1424 1352,1421 1358,1418 1365,1414 1371,1411 1376,1406 1382,1402 1387,1397 1392,1392 1397,1387 1402,1382 1406,1376 1411,1371 1414,1365 1418,1358 1421,1352 1424,1346 1427,1339 1429,1332 1431,1325 1433,1318 1434,1311 1435,1303 1435,1296 1436,1288 1436,193 1435,184 1435,177 1434,170 1433,162 1431,155 1429,148 1427,141 1424,135 1421,128 1418,122 1414,116 1411,110 1406,104 1402,98 1397,93 1392,88 1387,83 1382,78 1376,74 1371,70 1365,66 1358,62 1352,59 1346,56 1339,54 1332,51 1325,49 1318,48 1311,46 1303,45 1296,45 1288,45 1033,45 635,45 635,45 193,45 184,45 177,45 170,46 162,48 155,49 148,51 141,54 135,56 128,59 122,62 116,66 110,70 104,74 98,78 93,83 88,88 83,93 78,98 74,104 70,110 66,116 62,122 59,128 56,135 54,141 51,148 49,155 48,162 46,170 45,177 45,184 45,193 45,1288 45,1296 45,1303 46,1311 48,1318 49,1325 51,1332 54,1339 56,1346 59,1352 62,1358 66,1365 70,1371 74,1376 78,1382 83,1387 88,1392 93,1397 98,1402 104,1406 110,1411 116,1414 122,1418 128,1421 135,1424 141,1427 148,1429 155,1431 162,1433 170,1434 177,1435 184,1435 193,1436 "/>
  <polygon class="fil2" points="2811,1436 3817,1436 3825,1435 3833,1435 3840,1434 3847,1433 3854,1431 3861,1429 3868,1427 3875,1424 3881,1421 3888,1418 3894,1414 3900,1411 3906,1406 3911,1402 3917,1397 3922,1392 3927,1387 3931,1382 3936,1376 3940,1371 3944,1365 3947,1358 3950,1352 3953,1346 3956,1339 3958,1332 3960,1325 3962,1318 3963,1311 3964,1303 3965,1296 3965,1288 3965,193 3965,184 3964,177 3963,170 3962,162 3960,155 3958,148 3956,141 3953,135 3950,128 3947,122 3944,116 3940,110 3936,104 3931,98 3927,93 3922,88 3917,83 3911,78 3906,74 3900,70 3894,66 3888,62 3881,59 3875,56 3868,54 3861,51 3854,49 3847,48 3840,46 3833,45 3825,45 3817,45 2811,45 1668,45 1660,45 1652,45 1645,46 1638,48 1631,49 1624,51 1617,54 1610,56 1604,59 1597,62 1591,66 1585,70 1579,74 1574,78 1568,83 1563,88 1558,93 1554,98 1549,104 1545,110 1541,116 1538,122 1535,128 1532,135 1529,141 1527,148 1525,155 1523,162 1522,170 1521,177 1520,184 1520,193 1520,1288 1520,1296 1521,1303 1522,1311 1523,1318 1525,1325 1527,1332 1529,1339 1532,1346 1535,1352 1538,1358 1541,1365 1545,1371 1549,1376 1554,1382 1558,1387 1563,1392 1568,1397 1574,1402 1579,1406 1585,1411 1591,1414 1597,1418 1604,1421 1610,1424 1617,1427 1624,1429 1631,1431 1638,1433 1645,1434 1652,1435 1660,1435 1668,1436 "/>
  <path class="fil3" d="M1800 1162l308 -845 106 0 308 845 -134 0 -65 -191 -321 0 -67 191 -135 0zm240 -304l245 0c-18,-52 -32,-93 -42,-123 -10,-29 -19,-56 -27,-79 -8,-23 -15,-46 -23,-69 -8,-24 -18,-56 -31,-96 -13,42 -24,75 -32,100 -8,25 -16,49 -24,72 -8,23 -16,49 -26,78 -10,29 -23,67 -40,117zm932 304l0 -717 -120 87 0 -128 120 -88 121 0 0 845 -121 0zm306 0l0 -114 331 -414c13,-16 21,-31 25,-45 4,-13 6,-27 6,-39 0,-29 -10,-57 -31,-82 -21,-25 -49,-38 -85,-38 -33,0 -61,11 -85,33 -23,22 -36,52 -39,90l-121 0c0,-68 24,-126 70,-173 46,-47 101,-70 165,-70 70,0 129,24 176,71 47,47 70,105 70,171 0,57 -17,107 -50,148l-272 341 322 0 0 121 -482 0z"/>
  <path class="fil3" d="M797 441c96,0 196,39 271,108 77,70 129,171 129,295l0 423 -176 0 0 -423c0,-70 -29,-126 -72,-165 -44,-40 -100,-62 -154,-62l-91 0 26 176 -527 -264 527 -264 -26 176c31,0 61,0 92,0z"/>
 </g>
</svg>
