<?xml version="1.0" encoding="UTF-8"?>
<!DOCTYPE svg PUBLIC "-//W3C//DTD SVG 1.1//EN" "http://www.w3.org/Graphics/SVG/1.1/DTD/svg11.dtd">
<!-- Creator: CorelDRAW X6 -->
<svg xmlns="http://www.w3.org/2000/svg" xml:space="preserve" width="63.1158mm" height="23.3014mm" version="1.1" style="shape-rendering:geometricPrecision; text-rendering:geometricPrecision; image-rendering:optimizeQuality; fill-rule:evenodd; clip-rule:evenodd"
viewBox="0 0 8402 3102"
 xmlns:xlink="http://www.w3.org/1999/xlink">
 <defs>
  <style type="text/css">
   <![CDATA[
    .str0 {stroke:#2B2A29;stroke-width:10.1443}
    .fil0 {fill:#FEFEFE}
    .fil1 {fill:blue}
    .fil2 {fill:#FEFEFE;fill-rule:nonzero}
   ]]>
  </style>
 </defs>
 <g id="Layer_x0020_1">
  <metadata id="CorelCorpID_0Corel-Layer"/>
  <polygon class="fil0 str0" points="2165,3097 1513,3097 403,3097 382,3096 362,3095 342,3092 322,3089 303,3084 284,3079 266,3073 248,3066 230,3058 213,3049 196,3039 180,3029 165,3018 150,3006 135,2994 122,2981 108,2967 96,2952 84,2937 73,2922 63,2906 53,2889 44,2872 36,2854 29,2836 23,2818 18,2799 13,2780 10,2760 7,2740 6,2720 5,2699 5,403 6,382 7,362 10,342 13,322 18,303 23,284 29,266 36,248 44,230 53,213 63,196 73,180 84,165 96,150 108,135 122,122 135,108 150,96 165,84 180,73 196,63 213,53 230,44 248,36 266,29 284,23 303,18 322,13 342,10 362,7 382,6 403,5 1513,5 2165,5 3494,5 4802,5 5890,5 8000,5 8020,6 8040,7 8060,10 8080,13 8099,18 8118,23 8136,29 8155,36 8172,44 8189,53 8206,63 8222,73 8238,84 8253,96 8267,108 8281,122 8294,135 8307,150 8318,165 8329,180 8340,196 8349,213 8358,230 8366,248 8373,266 8379,284 8385,303 8389,322 8393,342 8395,362 8397,382 8397,403 8397,2699 8397,2720 8395,2740 8393,2760 8389,2780 8385,2799 8379,2818 8373,2836 8366,2854 8358,2872 8349,2889 8340,2906 8329,2922 8318,2937 8307,2952 8294,2967 8281,2981 8267,2994 8253,3006 8238,3018 8222,3029 8206,3039 8189,3049 8172,3058 8155,3066 8136,3073 8118,3079 8099,3084 8080,3089 8060,3092 8040,3095 8020,3096 8000,3097 5890,3097 4802,3097 3494,3097 "/>
  <polygon class="fil1" points="1330,3009 1331,3009 2165,3009 2698,3009 2715,3008 2731,3007 2747,3005 2762,3002 2777,2999 2791,2995 2806,2990 2820,2984 2833,2978 2847,2971 2860,2964 2872,2956 2884,2947 2896,2938 2907,2928 2918,2918 2928,2907 2938,2896 2947,2884 2956,2872 2964,2860 2971,2847 2978,2833 2984,2820 2990,2806 2995,2791 2999,2777 3002,2762 3005,2747 3007,2731 3008,2715 3009,2698 3009,404 3008,387 3007,371 3005,355 3002,340 2999,325 2995,311 2990,296 2984,282 2978,269 2971,255 2964,242 2956,230 2947,218 2938,206 2928,195 2918,184 2907,174 2896,164 2884,155 2872,146 2860,138 2847,131 2833,124 2820,118 2806,112 2791,107 2777,103 2762,100 2747,97 2731,95 2715,94 2698,93 2165,93 1331,93 1330,93 404,93 387,94 371,95 355,97 340,100 325,103 311,107 296,112 282,118 269,124 255,131 242,138 230,146 218,155 206,164 195,174 184,184 174,195 164,206 155,218 146,230 138,242 131,255 124,269 118,282 112,296 107,311 103,325 100,340 97,355 95,371 94,387 93,404 93,2698 94,2715 95,2731 97,2747 100,2762 103,2777 107,2791 112,2806 118,2820 124,2833 131,2847 138,2860 146,2872 155,2884 164,2896 174,2907 184,2918 195,2928 206,2938 218,2947 230,2956 242,2964 255,2971 269,2978 282,2984 296,2990 311,2995 325,2999 340,3002 355,3005 371,3007 387,3008 404,3009 "/>
  <polygon class="fil1" points="5890,3009 7999,3009 8016,3008 8032,3007 8047,3005 8062,3002 8077,2999 8092,2995 8106,2990 8120,2984 8134,2978 8147,2971 8160,2964 8173,2956 8185,2947 8196,2938 8208,2928 8218,2918 8229,2907 8238,2896 8248,2884 8256,2872 8264,2860 8272,2847 8279,2833 8285,2820 8290,2806 8295,2791 8299,2777 8303,2762 8305,2747 8307,2731 8309,2715 8309,2698 8309,404 8309,387 8307,371 8305,355 8303,340 8299,325 8295,311 8290,296 8285,282 8279,269 8272,255 8264,242 8256,230 8248,218 8238,206 8229,195 8218,184 8208,174 8196,164 8185,155 8173,146 8160,138 8147,131 8134,124 8120,118 8106,112 8092,107 8077,103 8062,100 8047,97 8032,95 8016,94 7999,93 5890,93 3496,93 3479,94 3463,95 3447,97 3432,100 3417,103 3403,107 3388,112 3374,118 3361,124 3347,131 3334,138 3322,146 3310,155 3298,164 3287,174 3276,184 3266,195 3256,206 3247,218 3238,230 3230,242 3223,255 3216,269 3210,282 3204,296 3199,311 3195,325 3192,340 3189,355 3187,371 3186,387 3185,404 3185,2698 3186,2715 3187,2731 3189,2747 3192,2762 3195,2777 3199,2791 3204,2806 3210,2820 3216,2833 3223,2847 3230,2860 3238,2872 3247,2884 3256,2896 3266,2907 3276,2918 3287,2928 3298,2938 3310,2947 3322,2956 3334,2964 3347,2971 3361,2978 3374,2984 3388,2990 3403,2995 3417,2999 3432,3002 3447,3005 3463,3007 3479,3008 3496,3009 "/>
  <path class="fil2" d="M4028 919l0 571 399 0c100,0 174,-30 223,-90 49,-60 73,-125 73,-196 0,-107 -38,-185 -115,-236 -49,-33 -113,-50 -191,-50l-389 0zm-269 1517l0 -1771 643 0c69,0 135,7 199,22 63,15 130,49 199,102 54,41 99,98 136,171 37,73 56,156 56,252 0,126 -47,246 -141,361 -95,114 -233,171 -414,171l-408 0 0 691 -269 0zm1865 0l0 -238 693 -867c27,-34 44,-65 52,-94 8,-28 12,-56 12,-83 0,-61 -22,-119 -66,-172 -44,-53 -103,-79 -178,-79 -69,0 -128,23 -177,68 -49,46 -76,108 -82,188l-254 0c1,-144 50,-264 147,-363 97,-98 212,-148 346,-148 147,0 270,50 369,149 98,99 148,219 148,359 0,120 -35,224 -106,311l-570 715 676 0 0 253 -1010 0zm1583 -1278c0,83 26,146 78,190 52,43 111,64 175,64 65,0 124,-22 176,-64 52,-43 78,-106 78,-190 0,-83 -26,-146 -78,-189 -52,-43 -111,-65 -176,-65 -65,0 -123,22 -175,65 -52,44 -78,107 -78,189zm-285 762c0,-173 70,-306 209,-399 -52,-47 -95,-99 -128,-156 -33,-57 -49,-124 -49,-202 0,-143 49,-264 146,-363 97,-100 218,-150 361,-150 144,0 264,50 362,150 97,100 146,221 146,363 0,78 -17,145 -50,202 -33,57 -75,110 -127,156 139,94 208,227 208,399 0,157 -53,285 -160,383 -107,98 -233,148 -380,148 -147,0 -274,-49 -380,-148 -106,-98 -159,-226 -159,-383zm254 -2c0,81 29,148 85,201 57,53 124,80 200,80 75,0 142,-27 200,-80 58,-53 87,-120 87,-201 0,-81 -29,-148 -87,-202 -58,-54 -124,-80 -200,-80 -76,0 -143,27 -200,80 -57,54 -85,121 -85,202z"/>
  <path class="fil2" d="M1268 923c-201,1 -411,82 -569,227 -161,147 -271,358 -271,618l0 887 368 0 0 -887c0,-146 61,-264 150,-346 92,-84 211,-130 323,-130l191 0 -55 368 1105 -553 -1105 -553 55 368c-64,0 -128,0 -192,0z"/>
 </g>
</svg>
