<?xml version="1.0" encoding="UTF-8"?>
<!DOCTYPE svg PUBLIC "-//W3C//DTD SVG 1.1//EN" "http://www.w3.org/Graphics/SVG/1.1/DTD/svg11.dtd">
<!-- Creator: CorelDRAW X6 -->
<svg xmlns="http://www.w3.org/2000/svg" xml:space="preserve" width="35.9133mm" height="35.9134mm" version="1.1" style="shape-rendering:geometricPrecision; text-rendering:geometricPrecision; image-rendering:optimizeQuality; fill-rule:evenodd; clip-rule:evenodd"
viewBox="0 0 741 741"
 xmlns:xlink="http://www.w3.org/1999/xlink">
 <defs>
  <style type="text/css">
   <![CDATA[
    .fil0 {fill:blue}
    .fil1 {fill:#FEFEFE;fill-rule:nonzero}
   ]]>
  </style>
 </defs>
 <g id="Layer_x0020_1">
  <metadata id="CorelCorpID_0Corel-Layer"/>
  <polygon class="fil0" points="705,741 707,741 709,741 711,740 712,740 714,739 716,739 718,738 719,737 721,737 723,736 724,735 726,734 727,732 729,731 730,730 731,729 732,727 734,726 735,724 736,723 737,721 737,719 738,718 739,716 739,714 740,712 740,711 741,709 741,707 741,705 741,703 741,38 741,36 741,34 741,32 740,31 740,29 739,27 739,25 738,23 737,22 737,20 736,18 735,17 734,15 732,14 731,13 730,11 729,10 727,9 726,8 724,7 723,6 721,5 719,4 718,3 716,2 714,2 712,1 711,1 709,0 707,0 705,0 703,0 38,0 36,0 34,0 32,1 30,1 28,1 27,2 25,2 23,3 22,4 20,5 18,6 17,7 15,8 14,9 12,10 11,11 10,13 9,14 8,15 7,17 6,18 5,20 4,22 3,23 2,25 2,27 1,29 1,31 0,32 0,34 0,36 0,38 0,703 0,705 0,707 0,709 1,711 1,713 2,714 2,716 3,718 4,720 5,721 6,723 7,724 8,726 9,727 10,729 11,730 13,731 14,732 15,734 17,735 18,736 20,737 22,737 23,738 25,739 27,739 29,740 30,740 32,741 34,741 36,741 38,741 703,741 "/>
  <polygon class="fil1" points="274,477 340,500 340,242 275,264 370,91 467,264 400,242 400,500 466,477 370,650 "/>
 </g>
</svg>
