<?xml version="1.0" encoding="UTF-8"?>
<!DOCTYPE svg PUBLIC "-//W3C//DTD SVG 1.1//EN" "http://www.w3.org/Graphics/SVG/1.1/DTD/svg11.dtd">
<!-- Creator: CorelDRAW X6 -->
<svg xmlns="http://www.w3.org/2000/svg" xml:space="preserve" width="35.9193mm" height="35.9181mm" version="1.1" style="shape-rendering:geometricPrecision; text-rendering:geometricPrecision; image-rendering:optimizeQuality; fill-rule:evenodd; clip-rule:evenodd"
viewBox="0 0 1609 1609"
 xmlns:xlink="http://www.w3.org/1999/xlink">
 <defs>
  <style type="text/css">
   <![CDATA[
    .fil0 {fill:blue}
    .fil1 {fill:#FEFEFE;fill-rule:nonzero}
    .fil2 {fill:red;fill-rule:nonzero}
   ]]>
  </style>
 </defs>
 <g id="Layer_x0020_1">
  <metadata id="CorelCorpID_0Corel-Layer"/>
  <polygon class="fil0" points="1530,1609 1535,1609 1539,1608 1543,1608 1547,1607 1551,1605 1554,1604 1558,1603 1562,1601 1565,1599 1569,1597 1572,1595 1576,1593 1579,1590 1582,1588 1585,1585 1587,1582 1590,1579 1592,1576 1595,1573 1597,1569 1599,1566 1601,1562 1602,1558 1604,1555 1605,1551 1606,1547 1607,1543 1608,1539 1609,1535 1609,1531 1609,1526 1609,84 1609,79 1609,75 1608,71 1607,67 1606,63 1605,59 1604,55 1602,51 1601,47 1599,44 1597,40 1595,37 1592,34 1590,31 1587,28 1585,25 1582,22 1579,19 1576,17 1572,14 1569,12 1565,10 1562,8 1558,7 1554,5 1551,4 1547,3 1543,2 1539,1 1534,1 1530,0 1526,0 83,0 78,1 74,1 70,1 66,2 62,3 58,4 54,5 50,7 47,9 43,10 40,12 36,15 33,17 30,19 27,22 24,25 21,28 19,31 16,34 14,37 12,40 10,44 8,47 7,51 5,55 4,59 3,63 2,67 1,71 1,75 0,79 0,84 0,1526 0,1531 0,1535 1,1539 2,1543 3,1547 4,1551 5,1555 7,1559 8,1562 10,1566 12,1569 14,1573 16,1576 19,1579 22,1582 24,1585 27,1588 30,1590 33,1593 37,1595 40,1597 43,1599 47,1601 51,1603 54,1604 58,1605 62,1607 66,1608 70,1608 74,1609 79,1609 83,1609 1527,1609 "/>
  <polygon class="fil1" points="596,1037 738,1085 738,525 596,574 804,198 1013,574 869,525 869,1085 1012,1037 804,1412 "/>
  <path class="fil2" d="M0 1478l1479 -1478c14,-1 40,-1 51,0 43,2 79,38 79,81 0,9 1,30 0,40l-1483 1488 -45 0c-41,1 -80,-34 -81,-81l0 -50z"/>
 </g>
</svg>
