<?xml version="1.0" encoding="UTF-8"?>
<!DOCTYPE svg PUBLIC "-//W3C//DTD SVG 1.1//EN" "http://www.w3.org/Graphics/SVG/1.1/DTD/svg11.dtd">
<!-- Creator: CorelDRAW X6 -->
<svg xmlns="http://www.w3.org/2000/svg" xml:space="preserve" width="35.9134mm" height="35.9134mm" version="1.1" style="shape-rendering:geometricPrecision; text-rendering:geometricPrecision; image-rendering:optimizeQuality; fill-rule:evenodd; clip-rule:evenodd"
viewBox="0 0 8968 8968"
 xmlns:xlink="http://www.w3.org/1999/xlink">
 <defs>
  <style type="text/css">
   <![CDATA[
    .fil0 {fill:blue}
    .fil1 {fill:#FEFEFE;fill-rule:nonzero}
   ]]>
  </style>
 </defs>
 <g id="Layer_x0020_1">
  <metadata id="CorelCorpID_0Corel-Layer"/>
  <polygon class="fil0" points="8530,8968 8554,8966 8576,8963 8599,8959 8621,8954 8643,8948 8664,8940 8685,8932 8706,8923 8726,8912 8745,8901 8764,8889 8782,8876 8799,8862 8816,8848 8832,8832 8848,8816 8862,8799 8876,8782 8889,8764 8901,8745 8912,8726 8922,8706 8932,8685 8940,8664 8947,8643 8954,8621 8959,8599 8963,8577 8966,8554 8967,8530 8968,8505 8968,465 8968,440 8966,416 8963,393 8959,370 8954,348 8947,326 8940,305 8932,284 8923,263 8912,243 8901,224 8889,205 8876,187 8862,169 8848,152 8832,136 8816,121 8799,106 8782,92 8763,79 8745,67 8725,56 8705,46 8685,36 8664,28 8642,21 8620,15 8598,9 8575,5 8552,2 8529,1 8503,0 462,1 436,2 413,4 390,7 367,11 345,16 323,22 302,29 281,38 261,47 241,57 222,68 203,80 185,93 168,107 151,121 135,136 120,152 105,169 92,187 79,205 67,223 56,243 46,263 37,283 28,304 21,325 15,347 10,370 6,392 3,415 1,439 0,465 0,8505 1,8530 2,8554 5,8577 9,8600 15,8622 21,8644 28,8665 36,8686 45,8707 56,8727 67,8746 79,8765 92,8783 105,8800 120,8817 135,8833 151,8848 168,8863 186,8877 204,8889 222,8902 242,8913 262,8923 282,8932 303,8940 324,8948 346,8954 368,8959 391,8963 414,8966 438,8968 463,8968 8509,8968 "/>
  <polygon class="fil1" points="5777,5647 6048,4854 2927,4856 3200,5646 1101,4490 3200,3321 2925,4123 6048,4123 5777,3330 7868,4488 "/>
 </g>
</svg>
