<?xml version="1.0" encoding="UTF-8"?>
<!DOCTYPE svg PUBLIC "-//W3C//DTD SVG 1.1//EN" "http://www.w3.org/Graphics/SVG/1.1/DTD/svg11.dtd">
<!-- Creator: CorelDRAW X6 -->
<svg xmlns="http://www.w3.org/2000/svg" xml:space="preserve" width="87.6571mm" height="30.3113mm" version="1.1" style="shape-rendering:geometricPrecision; text-rendering:geometricPrecision; image-rendering:optimizeQuality; fill-rule:evenodd; clip-rule:evenodd"
viewBox="0 0 5412 1871"
 xmlns:xlink="http://www.w3.org/1999/xlink">
 <defs>
  <style type="text/css">
   <![CDATA[
    .str0 {stroke:#2B2A29;stroke-width:4.70468}
    .fil6 {fill:#212220}
    .fil5 {fill:#374694}
    .fil3 {fill:#E31E24}
    .fil4 {fill:#E3E1E2}
    .fil2 {fill:#FEFEFE}
    .fil0 {fill:blue}
    .fil1 {fill:#FEFEFE;fill-rule:nonzero}
   ]]>
  </style>
 </defs>
 <g id="Layer_x0020_1">
  <metadata id="CorelCorpID_0Corel-Layer"/>
  <path class="fil0" d="M5336 0l-5260 0c-42,0 -76,34 -76,76l0 1720c0,42 34,76 76,76l5260 0c42,0 76,-34 76,-76l0 -1720c0,-42 -34,-76 -76,-76z"/>
  <path class="fil1" d="M1879 804l62 -45c16,23 38,34 68,34 19,0 39,-7 58,-20 20,-14 29,-38 29,-72l0 -343 77 0 0 350c0,51 -17,91 -50,119 -34,28 -71,43 -112,43 -29,0 -55,-6 -77,-18 -22,-12 -41,-28 -55,-48zm330 62l185 -508 64 0 185 508 -81 0 -39 -115 -193 0 -40 115 -81 0zm144 -183l147 0c-11,-31 -19,-56 -25,-74 -6,-18 -12,-34 -16,-47 -5,-14 -9,-28 -14,-42 -5,-14 -11,-33 -18,-58 -8,25 -15,45 -20,60 -5,15 -10,29 -14,43 -5,14 -10,29 -16,47 -6,17 -14,41 -24,70zm332 11l0 -336 77 0 0 327c0,35 10,62 30,80 20,18 44,28 74,28 29,0 54,-9 74,-28 20,-19 30,-45 30,-80l0 -327 77 0 0 336c0,53 -17,96 -53,128 -35,32 -78,48 -128,48 -50,0 -93,-16 -128,-48 -35,-32 -52,-75 -52,-128zm460 172l0 -508 73 0 230 361 1 0 0 -361 77 0 0 508 -73 0 -230 -361 -2 0 0 361 -77 0zm567 -435l0 164 114 0c29,0 50,-9 64,-26 14,-17 21,-36 21,-56 0,-31 -11,-53 -33,-68 -14,-10 -32,-14 -55,-14l-111 0zm-77 435l0 -508 184 0c20,0 39,2 57,6 18,4 37,14 57,29 15,12 28,28 39,49 11,21 16,45 16,72 0,36 -14,71 -41,103 -27,33 -67,49 -119,49l-117 0 0 198 -77 0zm410 0l0 -508 77 0 0 508 -77 0zm185 0l0 -508 77 0 0 435 248 0 0 72 -325 0zm354 -66l51 -58c19,15 41,28 66,37 25,9 51,14 78,14 31,0 56,-7 74,-20 18,-13 27,-30 27,-51 0,-40 -22,-63 -66,-69 -12,-1 -22,-3 -32,-4 -10,-1 -22,-3 -35,-5 -44,-6 -77,-22 -100,-48 -23,-26 -35,-58 -35,-95 0,-43 14,-79 43,-107 29,-28 70,-42 122,-42 31,0 61,5 88,15 28,10 53,23 76,38l-43 63c-19,-12 -39,-21 -60,-28 -21,-7 -43,-11 -66,-11 -24,0 -44,6 -60,18 -17,12 -25,30 -25,54 0,14 6,28 17,40 11,12 30,21 55,25 7,1 15,2 25,4 10,1 20,3 33,4 47,6 82,23 105,52 23,29 34,60 34,95 0,47 -16,83 -48,109 -32,26 -76,39 -130,39 -76,0 -141,-23 -194,-70zm-2084 714l0 -378 54 0 171 269 1 0 0 -269 58 0 0 378 -54 0 -171 -269 -1 0 0 269 -57 0zm351 -189c0,-45 1,-75 4,-88 2,-13 7,-25 13,-36 9,-16 23,-32 43,-46 20,-15 45,-22 75,-22 30,0 54,7 74,22 20,15 35,30 44,46 6,11 10,23 13,36 2,13 4,42 4,88 0,45 -1,75 -4,88 -2,13 -7,25 -13,36 -9,17 -24,32 -44,46 -20,14 -45,21 -74,21 -30,0 -55,-7 -75,-21 -20,-14 -35,-30 -43,-46 -6,-11 -11,-23 -13,-36 -2,-13 -4,-42 -4,-88zm57 0c0,39 1,64 4,76 3,11 8,22 15,31 6,8 13,14 23,20 10,5 22,8 35,8 13,0 25,-3 35,-8 10,-5 18,-12 23,-20 7,-9 12,-20 15,-31 3,-12 4,-37 4,-76 0,-39 -1,-64 -4,-75 -3,-12 -8,-22 -15,-32 -6,-7 -13,-14 -23,-19 -10,-5 -21,-8 -35,-8 -13,0 -25,3 -35,8 -10,6 -18,12 -23,19 -7,10 -12,20 -15,32 -3,12 -4,37 -4,75zm366 189l-125 -378 60 0 86 287 1 0 86 -287 60 0 -125 378 -45 0zm155 0l138 -378 47 0 138 378 -60 0 -29 -85 -143 0 -30 85 -60 0zm107 -136l109 0c-8,-23 -14,-42 -19,-55 -5,-13 -9,-25 -12,-35 -3,-10 -7,-21 -10,-31 -3,-11 -8,-25 -14,-43 -6,19 -11,34 -15,45 -4,11 -7,22 -11,32 -3,10 -7,22 -12,35 -4,13 -10,30 -18,52zm264 136l0 -378 132 0c52,0 90,21 115,64 9,16 15,31 17,45 2,14 3,41 3,80 0,43 -2,71 -4,85 -3,14 -8,28 -17,41 -11,18 -27,32 -46,44 -20,12 -43,18 -71,18l-129 0zm57 -323l0 270 69 0c31,0 55,-11 70,-33 6,-9 10,-20 12,-31 2,-11 2,-34 2,-69 0,-34 -1,-57 -3,-70 -2,-13 -6,-25 -14,-35 -16,-21 -38,-32 -67,-32l-69 0zm245 275l38 -43c14,11 30,21 49,27 18,7 38,10 58,10 23,0 42,-5 55,-15 13,-10 20,-22 20,-38 0,-30 -16,-47 -49,-51 -9,-1 -17,-2 -24,-3 -7,-1 -16,-2 -26,-4 -33,-4 -58,-16 -75,-36 -17,-19 -26,-43 -26,-70 0,-32 11,-59 32,-79 21,-21 52,-31 91,-31 23,0 45,4 66,11 21,7 40,17 57,28l-32 47c-14,-9 -29,-16 -45,-21 -16,-5 -32,-8 -49,-8 -18,0 -33,4 -45,13 -12,9 -18,22 -18,40 0,11 4,21 12,30 8,9 22,15 41,18 5,1 11,2 18,3 7,1 15,2 24,3 35,4 61,17 78,38 17,21 25,45 25,71 0,35 -12,62 -36,81 -24,19 -56,29 -97,29 -57,0 -105,-17 -144,-52z"/>
  <path class="fil2 str0" d="M1126 1587c-124,0 -245,-42 -344,-117 -134,-103 -214,-268 -214,-437l0 -763 1116 0 0 763c0,169 -80,334 -214,437 -98,76 -220,117 -344,117l0 0z"/>
  <path class="fil3" d="M1402 952l0 -5 -69 -73 -121 -190 0 -36 -11 0 0 -93 8 0 0 -30 26 0 0 0 0 0 0 -8 -26 -15 0 -33 -21 -32 -46 -28 -13 -45 461 0 0 670c0,20 -1,40 -4,60l-1 6 -223 0 0 -115 40 -32zm-355 288l32 0 0 68 -32 0 0 -68zm63 0l32 0 0 68 -32 0 0 -68zm63 0l32 0 0 68 -32 0 0 -68zm3 -593l-32 0 0 -56c0,-9 7,-15 16,-15l0 0c9,0 16,6 16,15l0 56zm-100 0l0 -56c0,-9 7,-15 16,-15l0 0c9,0 16,6 16,15l0 56 -32 0zm-12 -211l-21 32 0 33 -26 15 0 8 0 0 0 0 26 0 0 30 8 0 0 93 -11 0 0 36 -121 190 -69 73 0 5 40 32 0 115 -223 0 -1 -6c-3,-20 -4,-40 -4,-60l0 -670 461 0 -13 45 -46 28z"/>
  <path class="fil4" d="M1352 502l27 0 0 -22 25 0 0 22 23 0 0 20 -23 0 0 20 -25 0 0 -21 -27 0 0 47 76 0 0 -26 19 0 0 120 -13 0c-4,0 -7,2 -9,5 -2,2 -3,6 -3,8 0,3 1,6 3,8 2,3 5,5 9,5l2 0c5,0 9,5 9,10 0,4 -4,9 -9,8 -6,-1 -11,-3 -17,-3l0 0c-11,0 -22,4 -30,12 -8,8 -12,19 -12,30l0 0c0,11 4,22 12,30 8,8 18,12 29,12l2 0 0 2c0,2 -1,4 -1,7l0 0c0,11 5,22 13,30 8,8 19,13 30,13l0 0c11,0 22,-5 30,-13 8,-8 13,-19 13,-30l0 0c0,-2 0,-3 0,-5l0 0 0 -1c0,0 0,-1 0,-1l0 -2 2 0c11,0 21,-5 29,-12 8,-8 12,-19 12,-30l0 0c0,-11 -4,-22 -12,-30 -8,-8 -19,-13 -30,-12 -4,0 -8,1 -11,1 -2,0 -4,1 -7,1 -5,0 -10,-4 -9,-9 0,-3 1,-5 3,-6 1,-1 3,-2 5,-2l7 0c6,0 10,-7 10,-13 0,-6 -4,-13 -10,-13l-15 0 0 -216c0,-3 -2,-6 -4,-7 -3,-3 -7,-4 -11,-4 -4,0 -8,2 -11,5 -1,1 -4,5 -4,7l0 33 -20 0 0 -22 -76 0 0 42zm-221 -141l-10 0 -1 3 -12 42 -45 28 -21 33 0 33 -25 14 2 3 -3 0 0 9 0 0 0 0 26 0 0 30 8 0 0 89 -11 0 0 37 -120 190 -69 74 0 7 40 32 0 112 -220 0 -3 0c7,51 23,100 46,145 31,60 74,113 127,154 82,63 183,98 287,98 103,0 205,-35 287,-98 53,-41 97,-95 127,-154 23,-46 39,-95 46,-145l-3 0 -220 0 0 -112 40 -32 0 -7 -69 -74 -120 -190 0 -37 -11 0 0 -89 8 0 0 -30 26 0 0 0 0 0 0 -9 -3 0 2 -3 -25 -14 0 -33 -21 -33 -45 -28 -12 -42 -1 -3zm43 283l-28 0 0 -54c0,-8 6,-13 14,-13l0 0c8,0 14,5 14,13l0 54zm-96 0l0 -54c0,-8 6,-13 14,-13l0 0c8,0 14,5 14,13l0 54 -28 0zm-178 -142l-27 0 0 -22 -25 0 0 22 -23 0 0 20 23 0 0 20 25 0 0 -21 27 0 0 47 -76 0 0 -26 -19 0 0 120 13 0c4,0 7,2 9,5 2,2 3,6 3,8 0,3 -1,6 -3,8 -2,3 -5,5 -9,5l-2 0c-5,0 -9,5 -9,10 0,4 4,9 9,8 6,-1 11,-3 17,-3l0 0c11,0 22,4 30,12 8,8 12,19 12,30l0 0c0,11 -4,22 -12,30 -8,8 -18,12 -29,12l-2 0 0 2c0,2 1,4 1,7l0 0c0,11 -5,22 -13,30 -8,8 -19,13 -30,13l0 0c-11,0 -22,-5 -30,-13 -8,-8 -13,-19 -13,-30l0 0c0,-2 0,-3 0,-5l0 0 0 -1c0,0 0,-1 0,-1l0 -2 -2 0c-11,0 -21,-5 -29,-12 -8,-8 -12,-19 -12,-30l0 0c0,-11 4,-22 12,-30 8,-8 19,-13 30,-12 4,0 8,1 11,1 2,0 4,1 7,1 5,0 10,-4 9,-9 0,-3 -1,-5 -3,-6 -1,-1 -3,-2 -5,-2l-7 0c-6,0 -10,-7 -10,-13 0,-6 4,-13 10,-13l15 0 0 -216c0,-3 2,-6 4,-7 3,-3 7,-4 11,-4 4,0 8,2 11,5 1,1 4,5 4,7l0 33 20 0 0 -22 76 0 0 42zm-89 248l0 0c0,2 -1,5 -3,6 -1,1 -1,1 -2,1 -1,1 -3,1 -4,1l-1 0 -25 0c0,0 0,0 -1,0l0 0 0 0c-1,0 -2,0 -4,-1 -1,0 -1,-1 -2,-1 -3,-3 -3,-9 0,-12 1,-1 2,-2 3,-2l2 -1 -1 -2c-1,-2 -2,-4 -4,-6l0 0 -1 -1c-4,-4 -9,-6 -14,-6l0 0 -3 0 0 0c-5,0 -11,3 -14,6 -4,4 -6,9 -6,14l0 0 0 3 0 0c0,5 3,11 6,14 4,4 9,6 14,6l0 0 3 0 0 0c3,0 6,-1 9,-3l7 10c-3,3 -5,8 -5,12l0 0 0 3 0 0c0,5 3,11 6,14 4,4 9,6 14,6l0 0 3 0 0 0c5,0 10,-2 14,-6l0 0 1 -1c4,-4 6,-9 6,-14l0 0 0 -3 0 0c0,-5 -2,-9 -5,-13l7 -10 0 0c1,1 3,1 4,2 0,0 1,0 1,0 1,0 2,0 3,1l0 0 2 0 2 0 0 0c5,0 9,-2 13,-6l0 0 1 -1c4,-4 6,-9 6,-14l0 0 0 -3 0 0c0,-5 -2,-10 -6,-14l0 0 -1 -1c-4,-4 -9,-6 -14,-6l0 0 -3 0 0 0c-5,0 -11,3 -14,6 -2,2 -3,4 -5,7l-1 2 2 1c1,0 2,1 3,2 2,2 3,4 3,6l0 0zm631 0l0 0c0,2 1,5 3,6 1,1 1,1 2,1 1,1 3,1 4,1l1 0 25 0c0,0 0,0 1,0l0 0 0 0c1,0 2,0 4,-1 1,0 1,-1 2,-1 3,-3 3,-9 0,-12 -1,-1 -2,-2 -3,-2l-2 -1 1 -2c1,-2 2,-4 4,-6l0 0 1 -1c4,-4 9,-6 14,-6l0 0 3 0 0 0c5,0 11,3 14,6 4,4 6,9 6,14l0 0 0 3 0 0c0,5 -3,11 -6,14 -4,4 -9,6 -14,6l0 0 -3 0 0 0c-3,0 -6,-1 -9,-3l-7 10c3,3 5,8 5,12l0 0 0 3 0 0c0,5 -3,11 -6,14 -4,4 -9,6 -14,6l0 0 -3 0 0 0c-5,0 -10,-2 -14,-6l0 0 -1 -1c-4,-4 -6,-9 -6,-14l0 0 0 -3 0 0c0,-5 2,-9 5,-13l-7 -10 0 0c-1,1 -3,1 -4,2 0,0 -1,0 -1,0 -1,0 -2,0 -3,1l0 0 -2 0 -2 0 0 0c-5,0 -9,-2 -13,-6l0 0 -1 -1c-4,-4 -6,-9 -6,-14l0 0 0 -3 0 0c0,-5 2,-10 6,-14l0 0 1 -1c4,-4 9,-6 14,-6l0 0 3 0 0 0c5,0 11,3 14,6 2,2 3,4 5,7l1 2 -2 1c-1,0 -2,1 -3,2 -2,2 -3,4 -3,6l0 0z"/>
  <path class="fil5" d="M1028 1234c-2,-8 -7,-15 -12,-21l-1 -1 17 -42 2 0c15,4 30,5 45,1 7,-2 13,-4 20,-6 6,-2 11,-4 17,-5 3,-1 6,-1 9,-1l3 0c3,0 6,0 9,1 6,1 12,3 17,5 7,2 13,4 20,6 15,4 30,3 45,-1l2 0 17 42 -1 1c-6,6 -10,13 -12,21l0 1 -196 0 0 -1z"/>
  <path class="fil5 str0" d="M1235 1315c0,6 1,13 -2,19 -2,4 -4,7 -7,10 -7,8 -24,14 -33,18 -8,3 -16,5 -24,9 -11,5 -22,10 -33,17 -3,2 -6,4 -9,6l-1 1 -1 -1c-3,-2 -6,-4 -9,-6 -10,-7 -22,-12 -33,-17 -8,-3 -16,-6 -24,-8 -10,-4 -26,-10 -33,-18 -3,-3 -6,-6 -7,-10 -2,-5 -2,-13 -2,-19l0 -2 218 0 0 2z"/>
  <path class="fil6" d="M1126 1500c-105,0 -208,-35 -290,-99 -103,-80 -181,-214 -181,-368l0 -677 471 0 471 0 0 677c0,154 -77,289 -181,368 -83,64 -186,99 -290,99zm-1 -347c-29,0 -51,26 -97,9l-22 53c15,13 20,27 14,50 -6,23 -8,27 -10,47 -1,20 1,26 11,37 7,7 20,14 36,20 8,3 16,5 24,8 25,11 31,15 46,26l0 0c15,-11 21,-15 46,-26 8,-3 16,-6 24,-8 16,-6 30,-13 36,-20 10,-11 12,-17 11,-37 -1,-20 -4,-25 -10,-47 -6,-23 -2,-37 14,-50l-22 -53c-46,17 -68,-9 -97,-9l-3 0zm-82 153l0 -63 -12 0c0,7 -1,15 -3,24 -2,9 -5,18 -7,27 -1,4 -1,8 -2,12l23 0zm9 -63l0 63 22 0 0 -63 -22 0zm31 0l0 63 22 0 0 -63 -22 0zm31 0l0 63 22 0 0 -63 -22 0zm31 0l0 63 22 0 0 -63 -22 0zm31 0l0 63 22 0 0 -63 -22 0zm31 0l0 63 23 0c0,-4 -1,-8 -2,-12 -2,-9 -5,-18 -7,-27 -2,-9 -3,-16 -3,-24l-12 0zm24 72l-215 0c0,6 0,13 2,18 2,3 4,7 7,9 7,7 23,14 33,17 8,3 16,5 24,9 11,5 23,10 33,17 3,2 6,4 9,6 3,-2 6,-4 9,-6 10,-7 22,-12 33,-17 8,-3 16,-6 24,-9 9,-3 26,-10 33,-17 3,-3 5,-6 7,-9 2,-5 2,-12 2,-18zm-204 -81l193 0c2,-8 6,-15 13,-22l-16 -39c-15,4 -30,5 -46,1 -7,-2 -13,-4 -20,-6 -6,-2 -11,-4 -17,-5 -3,-1 -6,-1 -9,-1l-3 0c-3,0 -6,0 -9,1 -6,1 -11,3 -17,5 -7,2 -13,5 -20,6 -16,4 -31,3 -46,-1l-16 39c7,7 11,14 13,22zm272 -302l81 0 0 5 -81 0 0 -5zm-9 -17l75 0 0 5 -75 0 0 -5zm-9 -18l68 0 -12 -12 -65 0 0 -5 60 0 -5 -5 -5 -7 -59 0 0 -5 56 0 -113 -178 -45 0 53 178 52 88 128 0 2 -1 0 -3 -45 -48 0 3 -70 0 0 -5zm-133 -26l60 0 -3 -5 0 0 -2 -8 -57 0 0 -5 56 0 -4 -13 -54 0 0 -5 53 0 -4 -13 -51 0 0 -5 49 0 -4 -13 -48 0 0 -5 47 0 -4 -13 -45 0 0 -5 43 0 -4 -13 -41 0 0 -5 40 0 -4 -13 -38 0 0 -5 37 0 -4 -13 -35 0 0 -5 34 0 -4 -13 -31 0 0 -5 30 0 -4 -13 -29 0 0 -5 27 0 -4 -14 -29 0 -29 0 -54 182 0 0 -49 85 133 0 133 0 -44 -75 -63 0 0 -5zm-223 62l65 0 8 -13 -57 0 0 -4 60 0 8 -13 -53 0 0 -4 55 0 8 -13 -49 0 0 -4 51 0 8 -13 -44 0 0 -4 47 0 38 -129 -62 0 -8 13 38 0 0 4 -41 0 -9 14 36 0 0 4 -38 0 -8 12 28 0 0 4 -31 0 -56 89 -68 73 0 3 2 1 128 0 8 -14 -62 0 0 -4zm84 -203l61 0 3 -11 -57 0 -7 11zm10 -16l55 0 3 -11 -52 0 -7 11zm10 -16l50 0 4 -14 -45 0 -9 14zm155 -199l17 0 0 -9 -17 0 0 -4 17 0 0 -8 -17 0 0 -4 17 0 0 -6 -1 -2 -18 0 0 -4 15 0 -5 -8 -16 0 0 -4 13 0 -5 -7 -17 0 0 -4 14 0 -1 -1 -46 -28 0 0 -11 -40 -4 0 -11 40 0 0 -46 28 -18 28 16 0 0 4 -18 0 0 8 18 0 0 4 -18 0 0 8 18 0 0 4 -18 0 0 7 18 0 0 4 -18 0 0 0 -5 0 -21 12 0 4 106 0 106 0 0 -4 -21 -12 -5 0 0 -2 -17 0 0 -4zm-47 -2l15 0 0 -9 -15 0 0 -4 15 0 0 -9 -15 0 0 -4 15 0 0 -3 -12 -35 9 -3 13 36 0 29 12 16 -7 6 -12 -15 -17 0 0 -4zm-15 33l-80 0 0 20 80 0 80 0 0 -20 -80 0zm0 30l-72 0 0 80 20 0 0 -50c0,-12 9,-17 19,-17 9,0 19,6 19,17l0 50 15 0 15 0 0 -50c0,-12 9,-17 19,-17 9,0 19,6 19,17l0 50 20 0 0 -80 -72 0zm0 89l-29 0 0 26 29 0 29 0 0 -26 -29 0zm0 311l-260 0 24 19 237 0 237 0 24 -19 -260 0zm0 28l-233 0 0 56c2,-1 3,-2 5,-3 17,10 28,27 28,50l8 0c0,-23 12,-40 28,-50l0 0 0 0c17,10 28,27 28,50l8 0c0,-23 12,-40 28,-50 17,10 28,27 28,50l8 0c0,-23 12,-40 28,-50 17,10 28,27 28,50l6 0 6 0c0,-23 12,-40 28,-50 17,10 28,27 28,50l8 0c0,-23 12,-40 28,-50 17,10 28,27 28,50l8 0c0,-23 12,-40 28,-50l0 0 0 0c17,10 28,27 28,50l8 0c0,-23 12,-40 28,-50 2,1 3,2 5,3l0 -56 -233 0zm0 112l-7 0 -8 0c0,-20 -5,-36 -20,-47 -15,11 -20,27 -20,47l-7 0 -10 0 -7 0c0,-20 -5,-36 -20,-47 -15,11 -20,27 -20,47l-8 0 0 0 -10 0 -8 0 0 0c0,-20 -5,-36 -20,-47 -15,11 -20,27 -20,47l0 0 -8 0 -10 0 0 0 -8 0c0,-20 -5,-36 -20,-47 -2,1 -3,3 -5,4l0 366c69,40 147,62 227,63 2,0 4,0 6,0 2,0 4,0 6,0 80,-1 159,-23 227,-63l0 -366c-2,-1 -3,-3 -5,-4 -15,11 -20,27 -20,47l-8 0 0 0 -10 0 -8 0 0 0c0,-20 -5,-36 -20,-47 -15,11 -20,27 -20,47l0 0 -8 0 -10 0 0 0 -8 0c0,-20 -5,-36 -20,-47 -15,11 -20,27 -20,47l-7 0 -10 0 -7 0c0,-20 -5,-36 -20,-47 -15,11 -20,27 -20,47l-8 0 -7 0zm38 -451l46 0 0 26 -46 0 0 -26zm186 -146l0 -46 79 0 0 22 16 0 0 -31c0,-4 7,-13 17,-13 10,0 18,7 18,13l0 214 14 0c7,0 12,8 12,15 0,7 -5,15 -12,15l-3 0 -3 0c-2,0 -6,2 -6,7 0,4 3,7 8,7 3,0 4,-1 7,-1 4,-1 8,-1 12,-1 12,0 23,5 31,13 8,8 13,19 13,32l0 0 0 0 0 0 0 0c0,12 -5,23 -13,32 -8,8 -19,13 -30,13 0,0 0,1 0,1l0 1 0 0c0,2 0,3 0,5l0 0 0 0 0 0 0 0c0,12 -5,24 -13,32 -8,8 -19,13 -32,13l0 0 0 0 0 0 0 0c-12,0 -24,-5 -32,-13 -8,-8 -13,-19 -13,-32l0 0 0 0 0 0c0,-2 0,-5 1,-7 -12,0 -23,-5 -30,-13 -8,-8 -13,-19 -13,-32l0 0 0 0 0 0 0 0c0,-12 5,-23 13,-32 8,-8 19,-13 32,-13l0 0 0 0 0 0 0 0c6,0 12,2 17,3 3,1 6,-2 6,-6 0,-3 -2,-8 -7,-8l-2 0 0 0c-10,0 -14,-10 -14,-15 0,-5 3,-15 14,-15l11 0 0 -116 -15 0 0 26 -80 0 0 -51 31 0 0 21 21 0 0 -20 23 0 0 -17 -23 0 0 -22 -21 0 0 22 -30 0zm88 267l5 6c-3,4 -5,9 -5,14l0 0 0 0 0 0 0 0c0,7 3,13 7,17l0 0c4,4 11,7 17,7l0 0 0 0 0 0 0 0c7,0 13,-3 17,-7 4,-4 7,-11 7,-17l0 0 0 0 0 0 0 0c0,-5 -2,-10 -5,-14l5 -6c3,1 6,2 10,2l0 0 0 0 0 0 0 0c7,0 13,-3 17,-7 4,-4 7,-11 7,-17l0 0 0 0 0 0 0 0c0,-7 -3,-13 -7,-17 -4,-4 -11,-7 -17,-7l0 0 0 0 0 0 0 0c-7,0 -13,3 -17,7l0 0c-2,2 -4,5 -6,9l-24 0c-1,-3 -3,-6 -6,-9 -4,-4 -11,-7 -17,-7l0 0 0 0 0 0 0 0c-7,0 -13,3 -17,7l0 0c-4,4 -7,11 -7,17l0 0 0 0 0 0 0 0c0,7 3,13 7,17l0 0c4,4 11,7 17,7l0 0 0 0 0 0 0 0c2,0 4,0 6,-1 0,0 1,0 1,0 1,0 2,-1 3,-1zm36 -27l2 0c1,0 2,0 2,0l0 0c1,0 2,1 2,1 1,1 2,3 2,4l0 0c0,2 -1,3 -2,4 0,0 -1,1 -1,1l0 0c-1,1 -2,1 -3,1l0 0 0 0 0 0 0 0 0 0 0 0 0 0 0 0 0 0 -1 0 -23 0 -1 0 0 0 0 0 0 0 0 0 0 0 0 0 0 0c0,0 -1,0 -1,0l0 0 0 0c-1,0 -2,-1 -3,-2 -1,-1 -2,-3 -2,-4l0 0c0,-2 1,-3 2,-4 1,-1 2,-1 3,-2l0 0 0 0 0 0 0 0 0 0 0 0c0,0 1,0 1,0l2 0 21 0zm6 -4c1,-2 2,-4 4,-6l0 0c4,-4 9,-6 14,-6l0 0 0 0 0 0 0 0c6,0 11,2 14,6 4,4 6,9 6,14l0 0 0 0 0 0 0 0c0,6 -2,11 -6,14 -4,4 -9,6 -14,6l0 0 0 0 0 0 0 0c-4,0 -8,-1 -11,-3l-9 13c4,4 6,8 6,14l0 0 0 0 0 0 0 0c0,6 -2,11 -6,14 -4,4 -9,6 -14,6l0 0 0 0 0 0 0 0c-6,0 -11,-2 -14,-6l0 0c-4,-4 -6,-9 -6,-14l0 0 0 0 0 0 0 0c0,-6 2,-10 6,-14l-10 -13c0,0 -2,1 -2,1l0 0 0 0 0 0c-1,1 -2,1 -4,1 0,0 -1,0 -1,0 -2,0 -3,1 -5,1l0 0 0 0 0 0 0 0c-6,0 -11,-2 -14,-6l0 0c-4,-4 -6,-9 -6,-14l0 0 0 0 0 0 0 0c0,-6 2,-11 6,-14l0 0c4,-4 9,-6 14,-6l0 0 0 0 0 0 0 0c6,0 11,2 14,6 2,2 3,4 4,6 -1,1 -3,1 -4,2 -2,2 -3,5 -3,8l0 0 0 0 0 0 0 0c0,3 1,6 3,8 1,1 1,1 2,2 1,1 3,2 5,2l0 0 0 0 0 0 0 0 0 0 0 0 25 0c0,0 1,0 1,0 2,0 3,-1 5,-1 1,0 2,-1 2,-2 4,-4 4,-11 0,-15 -1,-1 -2,-2 -4,-2zm9 -29c-5,1 -12,-5 -12,-12 0,-2 1,-5 2,-7l-33 0c2,2 3,6 3,9 0,6 -6,11 -12,10 -2,0 -3,-1 -5,-1 0,0 -11,-2 -12,-2l0 0 0 0 0 0 0 0c-11,0 -21,4 -28,12 -7,7 -12,17 -12,28l0 0 0 0 0 0 0 0c0,11 4,21 12,28 7,7 17,12 28,12l0 0 0 0 1 0c0,0 0,0 1,0l3 0 -1 3 0 0 0 0c0,0 0,1 0,1 0,0 0,1 0,1 0,2 0,4 0,6l0 0 0 0 0 0c0,11 5,21 12,29 7,7 17,12 29,12l0 0 0 0 0 0 0 0c11,0 21,-5 29,-12 7,-7 12,-17 12,-29l0 0 0 0 0 0 0 0c0,-1 0,-3 0,-4l0 0 0 -1c0,-1 0,-2 -1,-4l-1 -3 3 0c0,0 1,0 1,0l1 0 0 0 0 0c11,0 21,-4 28,-12 7,-7 12,-17 12,-28l0 0 0 0 0 0 0 0c0,-11 -4,-21 -12,-28 -7,-7 -17,-12 -28,-12l0 0 0 0 0 0 0 0c-6,0 -12,2 -18,3zm-1 -23l-50 0 -2 0 0 0c-3,0 -5,-1 -7,-4 -1,-2 -2,-4 -2,-7 0,-2 1,-5 2,-7 2,-3 4,-4 7,-4l6 0 10 0 31 0 13 0c5,0 8,7 8,11 0,4 -3,10 -8,10l-3 0 -3 0 0 0zm-11 -25l-26 0 0 -121 -25 0 0 26 -70 0 0 -42 21 0 0 21 30 0 0 -20 23 0 0 -26 -23 0 0 -22 -30 0 0 22 -21 0 0 -36 70 0 0 22 25 0 0 -36c0,-1 2,-4 3,-5 2,-2 5,-4 9,-4 3,0 7,1 10,3 2,1 3,3 3,5l0 214zm-306 -21l-19 0 0 -9 0 -7 0 -33c0,-6 4,-8 9,-8l0 0 0 0c5,0 9,3 9,8l0 33 0 7 0 9zm394 523l-195 0 0 -12 199 0c-1,4 -2,8 -3,12zm-195 255l0 -245 193 0c-28,85 -81,162 -153,218 -13,10 -26,19 -40,28zm201 -275l-9 0 0 -41 17 0c-2,14 -5,28 -8,41zm-201 -41l17 0 0 41 -17 0 0 -41zm26 0l15 0 0 41 -15 0 0 -41zm24 0l15 0 0 41 -15 0 0 -41zm24 0l15 0 0 41 -15 0 0 -41zm24 0l15 0 0 41 -15 0 0 -41zm24 0l15 0 0 41 -15 0 0 -41zm24 0l15 0 0 41 -15 0 0 -41zm24 0l15 0 0 41 -15 0 0 -41zm42 -9l-211 0 0 -105 40 -32 0 -11 -70 -75 -119 -188 0 -1 0 -5 0 -26 0 -6 0 -3 -11 0 0 -80 8 0 0 0 0 0 0 -29 26 0 0 0 0 0 0 -18 0 0 0 0 -26 -15 0 -31 -22 -35 0 0 -45 -28 -10 -34 446 0 0 663c0,20 -1,40 -4,59zm-491 -442l-46 0 0 26 46 0 0 -26zm-186 -146l0 -46 -79 0 0 22 -16 0 0 -31c0,-4 -7,-13 -17,-13 -10,0 -18,7 -18,13l0 214 -14 0c-7,0 -12,8 -12,15 0,7 5,15 12,15l3 0 3 0c2,0 6,2 6,7 0,4 -3,7 -8,7 -3,0 -4,-1 -7,-1 -4,-1 -8,-1 -12,-1 -12,0 -23,5 -31,13 -8,8 -13,19 -13,32l0 0 0 0 0 0 0 0c0,12 5,23 13,32 8,8 19,13 30,13 0,0 0,1 0,1l0 1 0 0c0,2 0,3 0,5l0 0 0 0 0 0 0 0c0,12 5,24 13,32 8,8 19,13 32,13l0 0 0 0 0 0 0 0c12,0 24,-5 32,-13 8,-8 13,-19 13,-32l0 0 0 0 0 0c0,-2 0,-5 -1,-7 12,0 23,-5 30,-13 8,-8 13,-19 13,-32l0 0 0 0 0 0 0 0c0,-12 -5,-23 -13,-32 -8,-8 -19,-13 -32,-13l0 0 0 0 0 0 0 0c-6,0 -12,2 -17,3 -3,1 -6,-2 -6,-6 0,-3 2,-8 7,-8l2 0 0 0c10,0 14,-10 14,-15 0,-5 -3,-15 -14,-15l-11 0 0 -116 15 0 0 26 80 0 0 -51 -31 0 0 21 -21 0 0 -20 -23 0 0 -17 23 0 0 -22 21 0 0 22 30 0zm-88 267l-5 6c3,4 5,9 5,14l0 0 0 0 0 0 0 0c0,7 -3,13 -7,17l0 0c-4,4 -11,7 -17,7l0 0 0 0 0 0 0 0c-7,0 -13,-3 -17,-7 -4,-4 -7,-11 -7,-17l0 0 0 0 0 0 0 0c0,-5 2,-10 5,-14l-5 -6c-3,1 -6,2 -10,2l0 0 0 0 0 0 0 0c-7,0 -13,-3 -17,-7 -4,-4 -7,-11 -7,-17l0 0 0 0 0 0 0 0c0,-7 3,-13 7,-17 4,-4 11,-7 17,-7l0 0 0 0 0 0 0 0c7,0 13,3 17,7l0 0c2,2 4,5 6,9l24 0c1,-3 3,-6 6,-9 4,-4 11,-7 17,-7l0 0 0 0 0 0 0 0c7,0 13,3 17,7l0 0c4,4 7,11 7,17l0 0 0 0 0 0 0 0c0,7 -3,13 -7,17l0 0c-4,4 -11,7 -17,7l0 0 0 0 0 0 0 0c-2,0 -4,0 -6,-1 0,0 -1,0 -1,0 -1,0 -2,-1 -3,-1zm-36 -27l-2 0c-1,0 -2,0 -2,0l0 0c-1,0 -2,1 -2,1 -1,1 -2,3 -2,4l0 0c0,2 1,3 2,4 0,0 1,1 1,1l0 0c1,1 2,1 3,1l0 0 0 0 0 0 0 0 0 0 0 0 0 0 0 0 0 0 1 0 23 0 1 0 0 0 0 0 0 0 0 0 0 0 0 0 0 0c0,0 1,0 1,0l0 0 0 0c1,0 2,-1 3,-2 1,-1 2,-3 2,-4l0 0c0,-2 -1,-3 -2,-4 -1,-1 -2,-1 -3,-2l0 0 0 0 0 0 0 0 0 0 0 0c0,0 -1,0 -1,0l-2 0 -21 0zm-6 -4c-1,-2 -2,-4 -4,-6l0 0c-4,-4 -9,-6 -14,-6l0 0 0 0 0 0 0 0c-6,0 -11,2 -14,6 -4,4 -6,9 -6,14l0 0 0 0 0 0 0 0c0,6 2,11 6,14 4,4 9,6 14,6l0 0 0 0 0 0 0 0c4,0 8,-1 11,-3l9 13c-4,4 -6,8 -6,14l0 0 0 0 0 0 0 0c0,6 2,11 6,14 4,4 9,6 14,6l0 0 0 0 0 0 0 0c6,0 11,-2 14,-6l0 0c4,-4 6,-9 6,-14l0 0 0 0 0 0 0 0c0,-6 -2,-10 -6,-14l10 -13c0,0 2,1 2,1l0 0 0 0 0 0c1,1 2,1 4,1 0,0 1,0 1,0 2,0 3,1 5,1l0 0 0 0 0 0 0 0c6,0 11,-2 14,-6l0 0c4,-4 6,-9 6,-14l0 0 0 0 0 0 0 0c0,-6 -2,-11 -6,-14l0 0c-4,-4 -9,-6 -14,-6l0 0 0 0 0 0 0 0c-6,0 -11,2 -14,6 -2,2 -3,4 -4,6 1,1 3,1 4,2 2,2 3,5 3,8l0 0 0 0 0 0 0 0c0,3 -1,6 -3,8 -1,1 -1,1 -2,2 -1,1 -3,2 -5,2l0 0 0 0 0 0 0 0 0 0 0 0 -25 0c0,0 -1,0 -1,0 -2,0 -3,-1 -5,-1 -1,0 -2,-1 -2,-2 -4,-4 -4,-11 0,-15 1,-1 2,-2 4,-2zm-9 -29c5,1 12,-5 12,-12 0,-2 -1,-5 -2,-7l33 0c-2,2 -3,6 -3,9 0,6 6,11 12,10 2,0 3,-1 5,-1 0,0 11,-2 12,-2l0 0 0 0 0 0 0 0c11,0 21,4 28,12 7,7 12,17 12,28l0 0 0 0 0 0 0 0c0,11 -4,21 -12,28 -7,7 -17,12 -28,12l0 0 0 0 -1 0c0,0 0,0 -1,0l-3 0 1 3 0 0 0 0c0,0 0,1 0,1 0,0 0,1 0,1 0,2 0,4 0,6l0 0 0 0 0 0c0,11 -5,21 -12,29 -7,7 -17,12 -29,12l0 0 0 0 0 0 0 0c-11,0 -21,-5 -29,-12 -7,-7 -12,-17 -12,-29l0 0 0 0 0 0 0 0c0,-1 0,-3 0,-4l0 0 0 -1c0,-1 0,-2 1,-4l1 -3 -3 0c0,0 -1,0 -1,0l-1 0 0 0 0 0c-11,0 -21,-4 -28,-12 -7,-7 -12,-17 -12,-28l0 0 0 0 0 0 0 0c0,-11 4,-21 12,-28 7,-7 17,-12 28,-12l0 0 0 0 0 0 0 0c6,0 12,2 18,3zm1 -23l50 0 2 0 0 0c3,0 5,-1 7,-4 1,-2 2,-4 2,-7 0,-2 -1,-5 -2,-7 -2,-3 -4,-4 -7,-4l-6 0 -10 0 -31 0 -13 0c-5,0 -8,7 -8,11 0,4 3,10 8,10l3 0 3 0 0 0zm11 -25l26 0 0 -121 25 0 0 26 70 0 0 -42 -21 0 0 21 -30 0 0 -20 -23 0 0 -26 23 0 0 -22 30 0 0 22 21 0 0 -36 -70 0 0 22 -25 0 0 -36c0,-1 -2,-4 -3,-5 -2,-2 -5,-4 -9,-4 -3,0 -7,1 -10,3 -2,1 -3,3 -3,5l0 214zm298 -150l12 -16 0 -29 13 -36 9 3 -12 35 0 31 -14 19 -7 -6zm8 129l19 0 0 -9 0 -7 0 -33c0,-6 -4,-8 -9,-8l0 0 0 0c-5,0 -9,3 -9,8l0 33 0 7 0 9zm-394 523l195 0 0 -12 -199 0c1,4 2,8 3,12zm195 255l0 -245 -193 0c28,85 81,162 153,218 13,10 26,19 40,28zm-201 -275l9 0 0 -41 -17 0c2,14 5,28 8,41zm201 -41l-17 0 0 41 17 0 0 -41zm-26 0l-15 0 0 41 15 0 0 -41zm-24 0l-15 0 0 41 15 0 0 -41zm-24 0l-15 0 0 41 15 0 0 -41zm-24 0l-15 0 0 41 15 0 0 -41zm-24 0l-15 0 0 41 15 0 0 -41zm-24 0l-15 0 0 41 15 0 0 -41zm-24 0l-15 0 0 41 15 0 0 -41zm-42 -9l211 0 0 -105 -40 -32 0 -11 70 -75 119 -188 0 -1 0 -5 0 -26 0 -6 0 -3 11 0 0 -80 -8 0 0 0 0 0 0 -29 -26 0 0 0 0 0 0 -18 0 0 0 0 26 -15 0 -31 22 -35 0 0 45 -28 10 -34 -446 0 0 663c0,20 1,40 4,59z"/>
 </g>
</svg>
