<?xml version="1.0" encoding="UTF-8"?>
<!DOCTYPE svg PUBLIC "-//W3C//DTD SVG 1.1//EN" "http://www.w3.org/Graphics/SVG/1.1/DTD/svg11.dtd">
<!-- Creator: CorelDRAW X6 -->
<svg xmlns="http://www.w3.org/2000/svg" xml:space="preserve" width="112.932mm" height="27.2246mm" version="1.1" style="shape-rendering:geometricPrecision; text-rendering:geometricPrecision; image-rendering:optimizeQuality; fill-rule:evenodd; clip-rule:evenodd"
viewBox="0 0 6274 1513"
 xmlns:xlink="http://www.w3.org/1999/xlink">
 <defs>
  <style type="text/css">
   <![CDATA[
    .str0 {stroke:black;stroke-width:4.23361}
    .fil3 {fill:#212220}
    .fil2 {fill:#FEFEFE}
    .fil0 {fill:#663333}
    .fil4 {fill:#212220;fill-rule:nonzero}
    .fil1 {fill:#FEFEFE;fill-rule:nonzero}
   ]]>
  </style>
 </defs>
 <g id="Layer_x0020_1">
  <metadata id="CorelCorpID_0Corel-Layer"/>
  <path class="fil0" d="M6187 0l-6099 0c-47,0 -88,36 -88,84 0,447 0,895 0,1342l0 1 0 1c-1,48 41,85 88,85l6099 0c47,0 88,-37 88,-85l0 -1 0 -1c0,-447 0,-895 0,-1342 0,-48 -41,-84 -88,-84z"/>
  <path class="fil1" d="M2284 642l0 -446 156 0c61,0 106,25 136,75 11,19 18,37 20,53 3,17 4,48 4,95 0,50 -2,84 -5,101 -3,17 -10,33 -20,49 -13,21 -31,38 -55,52 -23,14 -51,21 -84,21l-152 0zm68 -382l0 319 81 0c37,0 65,-13 83,-39 7,-11 12,-23 14,-36 2,-13 3,-40 3,-82 0,-40 -1,-68 -3,-83 -2,-15 -8,-29 -17,-41 -19,-25 -45,-37 -80,-37l-81 0zm489 382l0 -28 -2 0c-13,21 -39,32 -78,32 -35,0 -63,-9 -83,-28 -20,-19 -29,-42 -29,-69 0,-25 9,-47 26,-66 17,-19 43,-28 77,-28l89 0 0 -33c0,-27 -22,-41 -65,-41 -30,0 -50,8 -60,24l-50 -38c22,-31 58,-47 107,-47 39,0 71,8 96,23 24,15 37,43 37,82l0 217 -64 0zm0 -111l0 -23 -77 0c-37,0 -56,13 -56,38 0,11 5,20 14,28 9,8 25,12 46,12 26,0 45,-3 56,-9 11,-6 16,-21 16,-46zm147 111l0 -446 64 0 0 162c12,-11 24,-20 38,-27 13,-7 28,-10 45,-10 19,0 36,4 50,12 14,8 26,18 35,29 9,12 15,25 18,40 3,15 5,42 5,81 0,39 -2,67 -5,82 -3,15 -9,29 -18,40 -9,12 -21,22 -35,30 -14,8 -31,12 -50,12 -33,0 -60,-12 -82,-37l0 33 -64 0zm127 -258c-30,0 -48,11 -54,32 -6,21 -9,44 -9,66 0,23 3,46 9,67 6,21 24,32 54,32 30,0 48,-10 54,-31 6,-21 9,-43 9,-68 0,-24 -3,-47 -9,-67 -6,-21 -24,-31 -54,-31zm366 258l0 -28 -2 0c-13,21 -39,32 -78,32 -35,0 -63,-9 -83,-28 -20,-19 -29,-42 -29,-69 0,-25 9,-47 26,-66 17,-19 43,-28 77,-28l89 0 0 -33c0,-27 -22,-41 -65,-41 -30,0 -50,8 -60,24l-50 -38c22,-31 58,-47 107,-47 39,0 71,8 96,23 24,15 37,43 37,82l0 217 -64 0zm0 -111l0 -23 -77 0c-37,0 -56,13 -56,38 0,11 5,20 14,28 9,8 25,12 46,12 26,0 45,-3 56,-9 11,-6 16,-21 16,-46zm111 58l45 -44c28,27 61,41 100,41 18,0 33,-3 45,-10 12,-7 18,-17 18,-31 0,-19 -13,-29 -39,-31l-56 -5c-26,-2 -48,-11 -66,-26 -17,-15 -26,-37 -26,-64 0,-32 11,-57 34,-73 23,-17 51,-25 84,-25 28,0 52,4 71,12 20,8 38,18 53,31l-40 47c-13,-9 -26,-16 -39,-21 -13,-6 -29,-8 -46,-8 -20,0 -35,4 -43,11 -8,7 -12,16 -12,27 0,7 3,13 9,19 6,6 17,9 33,11l53 4c33,2 56,12 71,31 14,18 21,40 21,65 0,31 -13,55 -38,72 -26,17 -57,25 -93,25 -53,0 -100,-19 -140,-57zm487 182l0 -447 64 0 0 33c22,-25 50,-37 82,-37 19,0 36,4 50,12 14,8 26,18 35,29 9,12 15,25 18,40 3,15 5,42 5,82 0,39 -2,66 -5,82 -3,15 -9,29 -18,40 -9,12 -21,22 -35,30 -14,8 -31,12 -50,12 -17,0 -31,-3 -45,-10 -13,-7 -26,-16 -38,-27l0 162 -64 0zm127 -189c30,0 48,-10 54,-31 6,-21 9,-43 9,-68 0,-24 -3,-47 -9,-68 -6,-21 -24,-31 -54,-31 -30,0 -48,11 -54,32 -6,21 -9,44 -9,67 0,23 3,45 9,67 6,21 24,32 54,32zm366 60l0 -28 -2 0c-13,21 -39,32 -78,32 -35,0 -63,-9 -83,-28 -20,-19 -29,-42 -29,-69 0,-25 9,-47 26,-66 17,-19 43,-28 77,-28l89 0 0 -33c0,-27 -22,-41 -65,-41 -30,0 -50,8 -60,24l-50 -38c22,-31 58,-47 107,-47 39,0 71,8 96,23 24,15 37,43 37,82l0 217 -64 0zm0 -111l0 -23 -77 0c-37,0 -56,13 -56,38 0,11 5,20 14,28 9,8 25,12 46,12 26,0 45,-3 56,-9 11,-6 16,-21 16,-46zm147 111l0 -318 64 0 0 34 1 0c20,-25 47,-38 83,-38 23,0 45,8 67,24l-46 55c-14,-10 -28,-16 -42,-16 -16,0 -30,5 -43,16 -13,11 -19,27 -19,51l0 191 -64 0zm244 0l0 -446 64 0 0 278 1 0 122 -150 77 0 -110 124 125 194 -80 0 -85 -149 -50 57 0 91 -64 0zm290 -53l45 -44c28,27 61,41 100,41 18,0 33,-3 45,-10 12,-7 18,-17 18,-31 0,-19 -13,-29 -39,-31l-56 -5c-26,-2 -48,-11 -66,-26 -17,-15 -26,-37 -26,-64 0,-32 11,-57 34,-73 23,-17 51,-25 84,-25 28,0 52,4 71,12 20,8 38,18 53,31l-40 47c-13,-9 -26,-16 -39,-21 -13,-6 -29,-8 -46,-8 -20,0 -35,4 -43,11 -8,7 -12,16 -12,27 0,7 3,13 9,19 6,6 17,9 33,11l53 4c33,2 56,12 71,31 14,18 21,40 21,65 0,31 -13,55 -38,72 -26,17 -57,25 -93,25 -53,0 -100,-19 -140,-57zm-3486 378l0 -64 64 -46 0 110 -64 0zm-97 0l0 -64 64 -46 0 110 -64 0zm185 336l163 -447 56 0 163 447 -71 0 -34 -101 -169 0 -36 101 -71 0zm127 -161l129 0c-9,-28 -17,-49 -22,-65 -5,-16 -10,-29 -14,-42 -4,-12 -8,-24 -12,-37 -4,-12 -10,-29 -16,-51 -7,22 -13,40 -17,53 -4,13 -8,26 -12,38 -4,12 -9,26 -14,41 -5,15 -12,36 -21,62zm305 161l0 -446 64 0 0 162c12,-11 24,-20 38,-27 13,-7 28,-10 45,-10 19,0 36,4 50,12 14,8 26,18 35,29 9,12 15,25 18,40 3,15 5,42 5,81 0,39 -2,67 -5,82 -3,15 -9,29 -18,40 -9,12 -21,22 -35,30 -14,8 -31,12 -50,12 -33,0 -60,-12 -82,-37l0 33 -64 0zm127 -258c-30,0 -48,11 -54,32 -6,21 -9,44 -9,66 0,23 3,46 9,67 6,21 24,32 54,32 30,0 48,-10 54,-31 6,-21 9,-43 9,-68 0,-24 -3,-47 -9,-67 -6,-21 -24,-31 -54,-31zm366 258l0 -28 -2 0c-13,21 -39,32 -78,32 -35,0 -63,-9 -83,-28 -20,-19 -29,-42 -29,-69 0,-25 9,-47 26,-66 17,-19 43,-28 77,-28l89 0 0 -33c0,-27 -22,-41 -65,-41 -30,0 -50,8 -60,24l-50 -38c22,-31 58,-47 107,-47 39,0 71,8 96,23 24,15 37,43 37,82l0 217 -64 0zm0 -111l0 -23 -77 0c-37,0 -56,13 -56,38 0,11 5,20 14,28 9,8 25,12 46,12 26,0 45,-3 56,-9 11,-6 16,-21 16,-46zm218 111l-116 -318 68 0 74 223 1 0 75 -223 68 0 -117 318 -53 0zm374 0l0 -28 -2 0c-13,21 -39,32 -78,32 -35,0 -63,-9 -83,-28 -20,-19 -29,-42 -29,-69 0,-25 9,-47 26,-66 17,-19 43,-28 77,-28l89 0 0 -33c0,-27 -22,-41 -65,-41 -30,0 -50,8 -60,24l-50 -38c22,-31 58,-47 107,-47 39,0 71,8 96,23 24,15 37,43 37,82l0 217 -64 0zm0 -111l0 -23 -77 0c-37,0 -56,13 -56,38 0,11 5,20 14,28 9,8 25,12 46,12 26,0 45,-3 56,-9 11,-6 16,-21 16,-46zm111 58l45 -44c28,27 61,41 100,41 18,0 33,-3 45,-10 12,-7 18,-17 18,-31 0,-19 -13,-29 -39,-31l-56 -5c-26,-2 -48,-11 -66,-26 -17,-15 -26,-37 -26,-64 0,-32 11,-57 34,-73 23,-17 51,-25 84,-25 28,0 52,4 71,12 20,8 38,18 53,31l-40 47c-13,-9 -26,-16 -39,-21 -13,-6 -29,-8 -46,-8 -20,0 -35,4 -43,11 -8,7 -12,16 -12,27 0,7 3,13 9,19 6,6 17,9 33,11l53 4c33,2 56,12 71,31 14,18 21,40 21,65 0,31 -13,55 -38,72 -26,17 -57,25 -93,25 -53,0 -100,-19 -140,-57zm452 0l45 -44c28,27 61,41 100,41 18,0 33,-3 45,-10 12,-7 18,-17 18,-31 0,-19 -13,-29 -39,-31l-56 -5c-26,-2 -48,-11 -66,-26 -17,-15 -26,-37 -26,-64 0,-32 11,-57 34,-73 23,-17 51,-25 84,-25 28,0 52,4 71,12 20,8 38,18 53,31l-40 47c-13,-9 -26,-16 -39,-21 -13,-6 -29,-8 -46,-8 -20,0 -35,4 -43,11 -8,7 -12,16 -12,27 0,7 3,13 9,19 6,6 17,9 33,11l53 4c33,2 56,12 71,31 14,18 21,40 21,65 0,31 -13,55 -38,72 -26,17 -57,25 -93,25 -53,0 -100,-19 -140,-57zm583 -82l-198 0c0,26 7,46 21,59 14,13 32,20 54,20 26,0 50,-10 70,-31l46 40c-16,18 -33,31 -53,39 -20,8 -40,12 -62,12 -33,0 -64,-11 -95,-32 -31,-21 -46,-64 -46,-130 0,-62 14,-105 42,-128 28,-24 58,-36 89,-36 35,0 65,12 92,36 26,24 39,57 39,98l0 53zm-198 -53l134 0c-1,-24 -8,-42 -20,-55 -12,-13 -28,-19 -47,-19 -19,0 -35,6 -47,19 -13,13 -19,31 -20,55zm265 188l0 -318 64 0 0 34 1 0c20,-25 47,-38 83,-38 25,0 49,9 72,28 23,19 35,46 35,82l0 211 -64 0 0 -189c0,-21 -6,-38 -18,-50 -12,-12 -27,-18 -45,-18 -18,0 -34,6 -45,18 -12,12 -18,29 -18,50l0 189 -64 0zm337 -77l0 -370 64 0 0 364c0,15 8,22 24,22l22 0 0 60 -28 0c-23,0 -43,-6 -58,-17 -15,-11 -23,-31 -23,-60zm408 -58l-198 0c0,26 7,46 21,59 14,13 32,20 54,20 26,0 50,-10 70,-31l46 40c-16,18 -33,31 -53,39 -20,8 -40,12 -62,12 -33,0 -64,-11 -95,-32 -31,-21 -46,-64 -46,-130 0,-62 14,-105 42,-128 28,-24 58,-36 89,-36 35,0 65,12 92,36 26,24 39,57 39,98l0 53zm-198 -53l134 0c-1,-24 -8,-42 -20,-55 -12,-13 -28,-19 -47,-19 -19,0 -35,6 -47,19 -13,13 -19,31 -20,55zm273 222l0 -352 64 0 0 358c0,27 -9,48 -26,65 -17,16 -40,25 -67,25l-25 0 0 -60 18 0c24,0 36,-11 36,-34zm0 -417l0 -64 64 0 0 64 -64 0zm321 382l0 -28 -2 0c-13,21 -39,32 -78,32 -35,0 -63,-9 -83,-28 -20,-19 -29,-42 -29,-69 0,-25 9,-47 26,-66 17,-19 43,-28 77,-28l89 0 0 -33c0,-27 -22,-41 -65,-41 -30,0 -50,8 -60,24l-50 -38c22,-31 58,-47 107,-47 39,0 71,8 96,23 24,15 37,43 37,82l0 217 -64 0zm0 -111l0 -23 -77 0c-37,0 -56,13 -56,38 0,11 5,20 14,28 9,8 25,12 46,12 26,0 45,-3 56,-9 11,-6 16,-21 16,-46zm226 -225l0 -64 64 -46 0 110 -64 0zm-97 0l0 -64 64 -46 0 110 -64 0z"/>
  <polygon class="fil2" points="450,441 548,441 548,343 646,343 646,245 1473,245 1473,1072 1375,1072 1375,1170 1277,1170 1277,1267 450,1267 "/>
  <path class="fil3 str0" d="M1082 982c50,0 90,40 90,90 0,50 -40,90 -90,90 -47,0 -86,-36 -90,-83l0 0 0 -64 -257 0 0 43c1,4 1,9 1,13 0,50 -40,90 -90,90 -50,0 -90,-40 -90,-90 0,-50 40,-90 90,-90 3,0 6,0 9,0l46 0 0 -257 -47 0c-3,0 -6,0 -9,0 -50,0 -90,-40 -90,-90 0,-50 40,-90 90,-90 50,0 90,40 90,90 0,4 0,9 -1,13l0 43 257 0 0 -64 0 0c4,-46 43,-83 90,-83 50,0 90,40 90,90 0,50 -40,90 -90,90 -3,0 -6,0 -9,0l-48 0 0 257 47 0c3,0 6,0 9,0zm-57 -352l0 10c0,1 0,2 0,3l0 48 59 0 0 0 4 0 0 0c28,-3 50,-27 50,-57 0,-31 -26,-57 -57,-57 -30,0 -54,23 -57,52zm-325 -3l1 0c-4,-28 -28,-50 -56,-50 -31,0 -57,26 -57,57 0,29 21,53 49,56l0 0 3 0 0 0 59 0 0 -41c0,-1 1,-2 1,-4l0 -19zm388 388l0 0 -4 0 0 0 -59 0 0 48c0,1 0,2 0,3l0 10c2,29 27,52 57,52 31,0 57,-26 57,-57 0,-29 -22,-53 -50,-57zm-388 64l-1 0 0 -19c0,-1 -1,-2 -1,-4l0 -41 -59 0 0 0 -3 0 0 0c-28,4 -49,28 -49,56 0,31 26,57 57,57 29,0 53,-22 56,-49zm290 -97l0 -257 -257 0 0 257 257 0z"/>
  <path class="fil4" d="M534 427l0 -98 98 0 0 -98 854 0 0 854 -98 0 0 98 -98 0 0 98 -847 0 -7 0 0 -7 0 -847 98 0zm112 -98l742 0 0 742 84 0 0 -826 -826 0 0 84zm728 14l-826 0 0 84 742 0 0 743 84 0 0 -826zm-98 98l-826 0 0 826 826 0 0 -826z"/>
 </g>
</svg>
