<?xml version="1.0" encoding="UTF-8"?>
<!DOCTYPE svg PUBLIC "-//W3C//DTD SVG 1.1//EN" "http://www.w3.org/Graphics/SVG/1.1/DTD/svg11.dtd">
<!-- Creator: CorelDRAW X6 -->
<svg xmlns="http://www.w3.org/2000/svg" xml:space="preserve" width="43.4885mm" height="43.4885mm" version="1.1" style="shape-rendering:geometricPrecision; text-rendering:geometricPrecision; image-rendering:optimizeQuality; fill-rule:evenodd; clip-rule:evenodd"
viewBox="0 0 27788 27788"
 xmlns:xlink="http://www.w3.org/1999/xlink">
 <defs>
  <style type="text/css">
   <![CDATA[
    .fil1 {fill:#FEFEFE}
    .fil0 {fill:#33CC33}
   ]]>
  </style>
 </defs>
 <g id="Layer_x0020_1">
  <metadata id="CorelCorpID_0Corel-Layer"/>
  <polygon class="fil0" points="26430,27786 26503,27780 26574,27771 26644,27759 26713,27743 26780,27723 26846,27701 26911,27675 26974,27646 27036,27615 27096,27580 27154,27543 27210,27503 27264,27460 27317,27415 27367,27367 27414,27317 27459,27265 27502,27210 27542,27154 27580,27096 27614,27036 27646,26974 27675,26911 27700,26846 27723,26780 27742,26713 27758,26644 27771,26574 27780,26503 27785,26431 27787,26352 27788,1441 27786,1362 27780,1289 27771,1217 27759,1147 27743,1078 27723,1010 27701,944 27675,879 27646,815 27614,753 27580,693 27542,635 27502,578 27459,524 27414,472 27366,422 27316,374 27264,329 27209,286 27153,246 27095,208 27035,174 26973,142 26909,113 26844,87 26778,65 26710,45 26641,29 26570,17 26499,8 26426,2 26347,0 1431,4 1352,6 1279,12 1208,21 1137,33 1069,49 1001,68 935,91 871,116 808,145 746,176 687,211 629,248 573,288 519,330 468,375 418,422 371,472 326,524 284,578 244,634 207,692 173,752 142,814 113,877 88,942 65,1008 46,1076 30,1145 18,1216 9,1287 3,1360 1,1439 0,26352 2,26431 8,26504 17,26575 29,26646 45,26715 64,26783 87,26849 112,26914 141,26977 173,27039 207,27099 244,27157 284,27213 327,27267 372,27319 419,27369 469,27416 521,27461 575,27504 631,27544 689,27581 749,27615 811,27647 874,27676 939,27701 1005,27724 1073,27743 1142,27759 1212,27771 1284,27780 1356,27786 1435,27788 26364,27788 "/>
  <rect class="fil1" x="1123" y="2655" width="7152" height="22477"/>
  <path class="fil1" d="M15750 4051c1025,0 1856,831 1856,1856 0,1025 -831,1856 -1856,1856 -1025,0 -1856,-831 -1856,-1856 0,-1025 831,-1856 1856,-1856zm9661 14103c304,110 746,419 746,842 0,423 -323,674 -583,724 -260,51 -338,3 -444,-4l-4083 -715c-607,-143 -1345,-312 -1533,-1022l-511 -2043 -2554 4087 -1128 4328c-128,492 -387,829 -1223,781 -384,-22 -842,-465 -714,-1022 468,-2040 938,-4118 1533,-6130l2817 -4087 -2146 -2714 -1693 2204 -3322 0 0 0c-423,0 -766,-343 -766,-766 0,-423 343,-766 766,-766l2123 0 2731 -3808 6927 51 2112 3499c65,72 117,157 151,250l5 8 -2 1c28,80 43,165 43,255 0,423 -343,766 -766,766 -302,0 -562,-174 -687,-428l0 0 -1451 -2637 -2036 0 1565 4087 26 3348 4097 913z"/>
 </g>
</svg>
