<?xml version="1.0" encoding="UTF-8"?>
<!DOCTYPE svg PUBLIC "-//W3C//DTD SVG 1.1//EN" "http://www.w3.org/Graphics/SVG/1.1/DTD/svg11.dtd">
<!-- Creator: CorelDRAW X6 -->
<svg xmlns="http://www.w3.org/2000/svg" xml:space="preserve" width="36mm" height="31.5mm" version="1.1" style="shape-rendering:geometricPrecision; text-rendering:geometricPrecision; image-rendering:optimizeQuality; fill-rule:evenodd; clip-rule:evenodd"
viewBox="0 0 3600 3150"
 xmlns:xlink="http://www.w3.org/1999/xlink">
 <defs>
  <style type="text/css">
   <![CDATA[
    .fil1 {fill:#212220}
    .fil0 {fill:red}
   ]]>
  </style>
 </defs>
 <g id="Layer_x0020_1">
  <metadata id="CorelCorpID_0Corel-Layer"/>
  <path class="fil0" d="M1605 92l6 -9 6 -8 7 -8 7 -7 7 -7 7 -7 8 -6 8 -6 8 -5 8 -5 9 -4 9 -4 9 -4 9 -3 9 -3 9 -2 10 -2 10 -1 10 -1 10 0 10 0 10 0 10 1 10 1 10 2 10 2 10 3 9 3 9 4 9 4 10 5 2 1 3 2 3 2 3 2 3 2 3 2 3 2 3 2 3 2 3 2 3 2 2 2 2 2 2 2 2 2 2 2 2 2 2 2 2 2 2 2 2 3 2 3 2 3 2 3 2 3 2 3 2 3 2 3 2 3 2 3 2 3 2 3 58 100 0 0 1179 2041 0 0 334 579 2 3 2 3 2 3 1 3 1 3 1 3 1 3 1 3 1 3 1 3 1 3 1 3 1 3 1 3 1 3 1 3 1 3 1 3 1 3 1 3 1 3 1 3 1 3 0 3 0 3 0 3 0 3 0 3 0 3 0 3 0 3 0 3 0 11 -1 10 -1 10 -2 10 -2 10 -3 10 -3 9 -4 9 -4 9 -4 9 -5 8 -5 8 -6 8 -6 8 -6 7 -7 7 -7 7 -7 6 -8 6 -8 6 -8 5 -8 5 -9 4 -9 4 -9 4 -9 3 -10 3 -10 2 -10 2 -10 1 -10 1 -11 0 -634 0 0 0 -934 0 -1022 0 0 0 -549 0 -11 0 -10 -1 -10 -1 -10 -2 -10 -2 -10 -3 -9 -3 -9 -4 -9 -4 -9 -4 -8 -5 -8 -5 -8 -6 -8 -6 -7 -6 -7 -7 -7 -7 -6 -7 -6 -8 -6 -8 -5 -8 -5 -8 -4 -9 -4 -9 -4 -9 -3 -9 -3 -10 -2 -10 -2 -10 -1 -10 -1 -10 0 -11 0 -3 0 -3 0 -3 0 -3 0 -3 0 -3 0 -3 0 -3 0 -3 1 -3 1 -3 1 -3 1 -3 1 -3 1 -3 1 -3 1 -3 1 -3 1 -3 1 -3 1 -3 1 -3 1 -3 1 -3 1 -3 1 -3 1 -3 1 -3 1 -3 2 -3 2 -3 2 -3 21 -37 0 0 1492 -2584 0 0 57 -98 6 -10zm-1041 2623l1211 -2097 1045 1809 0 0 166 288 -528 0 0 0 -681 0 -1213 0z"/>
  <path class="fil1" d="M1369 1980c-5,35 -9,57 -11,76 0,47 7,94 23,138 12,38 35,86 69,114l39 -139 251 458 -530 0 127 -120c-39,-37 -62,-75 -94,-118 -24,-38 -43,-83 -61,-123l-17 -57c-19,-74 -23,-146 -16,-219 11,-49 24,-121 60,-193l194 80c-10,33 -28,70 -34,103z"/>
  <path class="fil1" d="M2385 2165l9 -32 148 41 -242 -460 -283 462 149 -36c-15,36 -38,81 -67,113 -36,46 -81,79 -123,103 -57,24 -105,45 -170,39l22 219c54,-4 110,-18 162,-33 113,-32 246,-135 328,-264 28,-51 52,-103 68,-151z"/>
  <path class="fil1" d="M1552 1404c85,-16 167,-30 254,-21 179,21 329,115 437,259l-171 133c-21,-28 -44,-52 -68,-75 -49,-54 -129,-82 -198,-97 -45,-10 -91,-14 -139,-4l97 111 -520 -1 273 -454 36 150z"/>
 </g>
</svg>
