<?xml version="1.0" encoding="UTF-8"?>
<!DOCTYPE svg PUBLIC "-//W3C//DTD SVG 1.1//EN" "http://www.w3.org/Graphics/SVG/1.1/DTD/svg11.dtd">
<!-- Creator: CorelDRAW X6 -->
<svg xmlns="http://www.w3.org/2000/svg" xml:space="preserve" width="36mm" height="31.5mm" version="1.1" style="shape-rendering:geometricPrecision; text-rendering:geometricPrecision; image-rendering:optimizeQuality; fill-rule:evenodd; clip-rule:evenodd"
viewBox="0 0 3600 3150"
 xmlns:xlink="http://www.w3.org/1999/xlink">
 <defs>
  <style type="text/css">
   <![CDATA[
    .fil1 {fill:#212220}
    .fil0 {fill:red}
   ]]>
  </style>
 </defs>
 <g id="Layer_x0020_1">
  <metadata id="CorelCorpID_0Corel-Layer"/>
  <path class="fil0" d="M1605 92l6 -9 6 -8 7 -8 7 -7 7 -7 7 -7 8 -6 8 -6 8 -5 8 -5 9 -4 9 -4 9 -4 9 -3 9 -3 9 -2 10 -2 10 -1 10 -1 10 0 10 0 10 0 10 1 10 1 10 2 10 2 10 3 10 3 9 4 9 4 10 5 2 1 3 2 3 2 3 2 3 2 3 2 3 2 3 2 3 2 3 2 3 2 3 2 2 2 2 2 2 2 2 2 2 2 2 2 2 2 2 2 2 3 2 3 2 3 2 3 2 3 2 3 2 3 2 3 2 3 2 3 2 3 2 3 58 100 0 0 1179 2041 0 0 334 579 2 3 2 3 2 3 1 3 1 3 1 3 1 3 1 3 1 3 1 3 1 3 1 3 1 3 1 3 1 3 1 3 1 3 1 3 1 3 1 3 1 3 1 3 1 3 0 3 0 3 0 3 0 3 0 3 0 3 0 3 0 3 0 3 0 11 -1 10 -1 10 -2 10 -2 10 -3 10 -3 9 -4 9 -4 9 -4 9 -5 8 -5 8 -6 8 -6 8 -6 7 -7 7 -7 7 -7 6 -8 6 -8 6 -8 5 -8 5 -9 4 -9 4 -9 4 -9 3 -10 3 -10 2 -10 2 -10 1 -10 1 -11 0 -634 0 0 0 -934 0 -1022 0 0 0 -549 0 -11 0 -10 -1 -10 -1 -10 -2 -10 -2 -10 -3 -9 -3 -9 -4 -9 -4 -9 -4 -8 -5 -8 -5 -8 -6 -8 -6 -7 -6 -7 -7 -7 -7 -6 -7 -6 -8 -6 -8 -5 -8 -5 -8 -4 -9 -4 -9 -4 -9 -3 -9 -3 -10 -2 -10 -2 -10 -1 -10 -1 -10 0 -11 0 -3 0 -3 0 -3 0 -3 0 -3 0 -3 0 -3 0 -3 0 -3 1 -3 1 -3 1 -3 1 -3 1 -3 1 -3 1 -3 1 -3 1 -3 1 -3 1 -3 1 -3 1 -3 1 -3 1 -3 1 -3 1 -3 1 -3 1 -3 1 -3 2 -3 2 -3 2 -3 21 -37 0 0 1492 -2584 0 0 57 -98 6 -10zm-1041 2623l1211 -2097 1045 1809 0 0 166 288 -528 0 0 0 -681 0 -1213 0z"/>
  <path class="fil1" d="M1754 1840c-149,6 -230,81 -230,234 0,178 0,381 0,560l-151 -152 -150 151c1,-153 0,-346 0,-500 1,-179 19,-371 245,-518 87,-53 174,-66 276,-78l407 0 151 151 -150 151 -398 0z"/>
 </g>
</svg>
