<?xml version="1.0" encoding="UTF-8"?>
<!DOCTYPE svg PUBLIC "-//W3C//DTD SVG 1.1//EN" "http://www.w3.org/Graphics/SVG/1.1/DTD/svg11.dtd">
<!-- Creator: CorelDRAW X6 -->
<svg xmlns="http://www.w3.org/2000/svg" xml:space="preserve" width="36mm" height="31.5mm" version="1.1" style="shape-rendering:geometricPrecision; text-rendering:geometricPrecision; image-rendering:optimizeQuality; fill-rule:evenodd; clip-rule:evenodd"
viewBox="0 0 3600 3150"
 xmlns:xlink="http://www.w3.org/1999/xlink">
 <defs>
  <style type="text/css">
   <![CDATA[
    .fil1 {fill:#212220}
    .fil0 {fill:red}
   ]]>
  </style>
 </defs>
 <g id="Layer_x0020_1">
  <metadata id="CorelCorpID_0Corel-Layer"/>
  <path class="fil0" d="M1604 92l6 -9 6 -8 7 -8 7 -7 7 -7 7 -7 8 -6 8 -6 8 -5 8 -5 9 -4 9 -4 9 -4 9 -3 9 -3 9 -2 10 -2 10 -1 10 -1 10 0 10 0 10 0 10 1 10 1 10 2 10 2 10 3 9 3 9 4 9 4 10 5 2 1 3 2 3 2 3 2 3 2 3 2 3 2 3 2 3 2 3 2 3 2 3 2 2 2 2 2 2 2 2 2 2 2 2 2 2 2 2 2 2 3 2 3 2 3 2 3 2 3 2 3 2 3 2 3 2 3 2 3 2 3 2 3 58 100 0 0 1179 2041 0 0 334 579 2 3 2 3 2 3 1 3 1 3 1 3 1 3 1 3 1 3 1 3 1 3 1 3 1 3 1 3 1 3 1 3 1 3 1 3 1 3 1 3 1 3 1 3 1 3 0 3 0 3 0 3 0 3 0 3 0 3 0 3 0 3 0 3 0 11 -1 10 -1 10 -2 10 -2 10 -3 10 -3 9 -4 9 -4 9 -4 9 -5 8 -5 8 -6 8 -6 8 -6 7 -7 7 -7 7 -7 6 -8 6 -8 6 -8 5 -8 5 -9 4 -9 4 -9 4 -9 3 -10 3 -10 2 -10 2 -10 1 -10 1 -11 0 -634 0 0 0 -934 0 -1022 0 0 0 -549 0 -11 0 -10 -1 -10 -1 -10 -2 -10 -2 -10 -3 -9 -3 -9 -4 -9 -4 -9 -4 -8 -5 -8 -5 -8 -6 -8 -6 -7 -6 -7 -7 -7 -7 -6 -7 -6 -8 -6 -8 -5 -8 -5 -8 -4 -9 -4 -9 -4 -9 -3 -9 -3 -10 -2 -10 -2 -10 -1 -10 -1 -10 0 -11 0 -3 0 -3 0 -3 0 -3 0 -3 0 -3 0 -3 0 -3 0 -3 1 -3 1 -3 1 -3 1 -3 1 -3 1 -3 1 -3 1 -3 1 -3 1 -3 1 -3 1 -3 1 -3 1 -3 1 -3 1 -3 1 -3 1 -3 1 -3 1 -3 2 -3 2 -3 2 -3 21 -37 0 0 1492 -2584 0 0 57 -98 6 -10zm-1041 2623l1211 -2097 1045 1809 0 0 166 288 -528 0 0 0 -681 0 -1213 0z"/>
  <polygon class="fil1" points="627,2678 1211,1671 2927,2678 "/>
  <polygon class="fil1" points="1605,1426 1638,1370 1714,1361 1767,1392 1550,1763 1498,1732 1681,1417 "/>
  <path class="fil1" d="M1636 1813l212 124 31 -53 -143 -83 206 -79c26,-10 48,-29 62,-52 34,-59 15,-134 -44,-168 -56,-34 -133,-14 -168,44l53 31c7,-12 18,-21 31,-26 31,-12 67,3 79,35 14,32 -3,67 -35,79l-256 99 -29 50z"/>
  <path class="fil1" d="M2212 2029l-27 46c-15,26 -48,34 -73,19 -26,-15 -34,-48 -19,-74l27 -46c15,-26 48,-34 73,-19 26,15 34,48 19,73zm-54 31c-6,11 -21,15 -32,9 -11,-6 -15,-20 -8,-31l27 -46c6,-11 21,-15 32,-8 11,6 15,21 8,31l-27 46z"/>
  <path class="fil1" d="M2112 1713c-15,26 -6,58 19,73 26,15 59,6 73,-19l27 -47c15,-26 6,-59 -19,-73 -26,-15 -58,-6 -73,19l-27 46zm93 -8c7,-11 3,-25 -8,-32 -11,-6 -25,-3 -31,9l-27 46c-6,11 -3,25 8,32 11,6 25,2 31,-8l27 -46z"/>
  <polygon class="fil1" points="1948,1995 2340,1727 2376,1748 1984,2016 "/>
 </g>
</svg>
