<?xml version="1.0" encoding="UTF-8"?>
<!DOCTYPE svg PUBLIC "-//W3C//DTD SVG 1.1//EN" "http://www.w3.org/Graphics/SVG/1.1/DTD/svg11.dtd">
<!-- Creator: CorelDRAW X6 -->
<svg xmlns="http://www.w3.org/2000/svg" xml:space="preserve" width="36mm" height="31.5mm" version="1.1" style="shape-rendering:geometricPrecision; text-rendering:geometricPrecision; image-rendering:optimizeQuality; fill-rule:evenodd; clip-rule:evenodd"
viewBox="0 0 3600 3150"
 xmlns:xlink="http://www.w3.org/1999/xlink">
 <defs>
  <style type="text/css">
   <![CDATA[
    .fil1 {fill:#212220}
    .fil0 {fill:red}
   ]]>
  </style>
 </defs>
 <g id="Layer_x0020_1">
  <metadata id="CorelCorpID_0Corel-Layer"/>
  <path class="fil0" d="M1603 92l6 -9 6 -8 7 -8 7 -7 7 -7 7 -7 8 -6 8 -6 8 -5 8 -5 9 -4 9 -4 9 -4 9 -3 9 -3 9 -2 10 -2 10 -1 10 -1 10 0 10 0 10 0 10 1 10 1 10 2 10 2 10 3 9 3 9 4 9 4 10 5 2 1 3 2 3 2 3 2 3 2 3 2 3 2 3 2 3 2 3 2 3 2 3 2 2 2 2 2 2 2 2 2 2 2 2 2 2 2 2 2 2 3 2 3 2 3 2 3 2 3 2 3 2 3 2 3 2 3 2 3 2 3 2 3 58 100 0 0 1179 2041 0 0 334 579 2 3 2 3 2 3 1 3 1 3 1 3 1 3 1 3 1 3 1 3 1 3 1 3 1 3 1 3 1 3 1 3 1 3 1 3 1 3 1 3 1 3 1 3 1 3 0 3 0 3 0 3 0 3 0 3 0 3 0 3 0 3 0 3 0 11 -1 10 -1 10 -2 10 -2 10 -3 10 -3 9 -4 9 -4 9 -4 9 -5 8 -5 8 -6 8 -6 8 -6 7 -7 7 -7 7 -7 6 -8 6 -8 6 -8 5 -8 5 -9 4 -9 4 -9 4 -9 3 -10 3 -10 2 -10 2 -10 1 -10 1 -11 0 -634 0 0 0 -934 0 -1022 0 0 0 -549 0 -11 0 -10 -1 -10 -1 -10 -2 -10 -2 -10 -3 -9 -3 -9 -4 -9 -4 -9 -4 -8 -5 -8 -5 -8 -6 -8 -6 -7 -6 -7 -7 -7 -7 -6 -7 -6 -8 -6 -8 -5 -8 -5 -8 -4 -9 -4 -9 -4 -9 -3 -9 -3 -10 -2 -10 -2 -10 -1 -10 -1 -10 0 -11 0 -3 0 -3 0 -3 0 -3 0 -3 0 -3 0 -3 0 -3 0 -3 1 -3 1 -3 1 -3 1 -3 1 -3 1 -3 1 -3 1 -3 1 -3 1 -3 1 -3 1 -3 1 -3 1 -3 1 -3 1 -3 1 -3 1 -3 1 -3 1 -3 2 -3 2 -3 2 -3 21 -37 0 0 1492 -2584 0 0 57 -98 6 -10zm-1041 2623l1211 -2097 1045 1809 0 0 166 288 -528 0 0 0 -681 0 -1213 0z"/>
  <path class="fil1" d="M619 2677c561,-354 1149,-675 1724,-1004l572 1005 -2296 0z"/>
  <polygon class="fil1" points="1265,1799 1231,1742 1262,1670 1315,1638 1535,2015 1482,2046 1295,1727 "/>
  <path class="fil1" d="M1616 1828c18,30 55,40 85,22 30,-17 40,-55 22,-85l-98 -168m152 137c34,59 15,136 -45,170 -59,35 -136,15 -170,-45l-98 -168c-35,-59 -15,-136 45,-170 59,-35 136,-15 170,45l98 168zm-161 94l-98 -168c-17,-30 -7,-68 22,-85 30,-17 68,-7 86,22"/>
  <path class="fil1" d="M2074 1579c-8,-11 -20,-15 -32,-8 -11,6 -15,21 -8,32l27 47c7,11 21,15 32,9 11,-7 15,-21 8,-32l-27 -47zm-67 39l27 47c15,26 49,35 75,20 26,-15 35,-49 19,-74l-27 -47c-15,-26 -49,-35 -75,-20 -26,15 -34,49 -19,75z"/>
  <path class="fil1" d="M1811 1407l28 47c7,11 3,26 -9,32 -11,6 -25,3 -32,-9l-28 -47c-7,-11 -3,-26 8,-32 11,-7 26,-3 32,8zm-67 39c-15,-26 -6,-60 20,-75 26,-15 59,-7 74,20l28 47c15,26 7,59 -20,75 -26,15 -59,6 -75,-20l-27 -47z"/>
  <polygon class="fil1" points="1939,1779 1897,1299 1934,1277 1976,1758 "/>
 </g>
</svg>
