<?xml version="1.0" encoding="utf-8"?>
<!-- Generator: Adobe Illustrator 16.0.0, SVG Export Plug-In . SVG Version: 6.00 Build 0)  -->
<!DOCTYPE svg PUBLIC "-//W3C//DTD SVG 1.1//EN" "http://www.w3.org/Graphics/SVG/1.1/DTD/svg11.dtd">
<svg version="1.1" id="Layer_1" xmlns="http://www.w3.org/2000/svg" xmlns:xlink="http://www.w3.org/1999/xlink" x="0px" y="0px"
	 width="90.418px" height="80.021px" viewBox="0 0 90.418 80.021" enable-background="new 0 0 90.418 80.021" xml:space="preserve">
<polygon fill="none" stroke="#231F20" stroke-width="0.0216" stroke-miterlimit="22.9256" points="1.299,69.645 1.299,69.644 
	38.654,4.944 38.657,4.944 39.654,3.217 39.827,2.936 40.011,2.666 40.207,2.408 40.414,2.163 40.631,1.93 40.858,1.709 
	41.094,1.502 41.339,1.307 41.592,1.125 41.854,0.957 42.122,0.801 42.396,0.659 42.677,0.531 42.963,0.416 43.254,0.315 
	43.549,0.229 43.849,0.156 44.151,0.098 44.456,0.054 44.763,0.025 45.072,0.011 45.382,0.011 45.692,0.026 46.003,0.057 
	46.313,0.104 46.621,0.165 46.929,0.242 47.232,0.335 47.534,0.445 47.833,0.57 48.127,0.711 48.417,0.869 48.508,0.922 
	48.598,0.978 48.687,1.034 48.774,1.091 48.861,1.15 48.947,1.211 49.032,1.273 49.115,1.336 49.198,1.401 49.28,1.467 49.36,1.534 
	49.439,1.602 49.519,1.672 49.595,1.743 49.671,1.815 49.745,1.889 49.819,1.963 49.892,2.039 49.962,2.116 50.032,2.194 
	50.1,2.273 50.168,2.354 50.233,2.436 50.298,2.518 50.361,2.602 50.423,2.687 50.483,2.772 50.543,2.859 50.601,2.947 
	50.657,3.036 50.711,3.125 50.765,3.216 51.777,4.97 51.779,4.97 81.331,56.155 81.333,56.157 81.332,56.158 89.548,70.388 
	89.6,70.479 89.649,70.572 89.699,70.665 89.746,70.759 89.792,70.854 89.836,70.949 89.879,71.045 89.919,71.142 89.959,71.238 
	89.996,71.336 90.032,71.435 90.066,71.533 90.1,71.633 90.131,71.733 90.16,71.834 90.188,71.935 90.215,72.035 90.239,72.138 
	90.262,72.24 90.283,72.342 90.303,72.445 90.32,72.548 90.337,72.651 90.352,72.756 90.364,72.859 90.376,72.964 90.386,73.068 
	90.394,73.174 90.399,73.279 90.403,73.384 90.406,73.489 90.407,73.595 90.398,73.925 90.374,74.25 90.333,74.571 90.276,74.887 
	90.205,75.197 90.118,75.502 90.018,75.8 89.903,76.091 89.774,76.376 89.633,76.652 89.478,76.921 89.311,77.182 89.132,77.433 
	88.941,77.675 88.74,77.908 88.528,78.13 88.305,78.343 88.072,78.545 87.83,78.735 87.578,78.914 87.317,79.081 87.05,79.235 
	86.772,79.377 86.489,79.506 86.197,79.62 85.899,79.722 85.595,79.808 85.284,79.879 84.969,79.936 84.647,79.977 84.322,80.001 
	83.992,80.01 69.211,80.01 69.205,80.01 45.258,80.01 22.435,80.01 22.435,80.011 6.444,80.011 6.112,80.002 5.785,79.977 
	5.463,79.937 5.146,79.88 4.834,79.809 4.528,79.722 4.229,79.621 3.937,79.507 3.652,79.378 3.374,79.236 3.105,79.081 
	2.844,78.915 2.592,78.735 2.349,78.545 2.115,78.344 1.892,78.131 1.679,77.908 1.477,77.676 1.287,77.434 1.107,77.182 
	0.94,76.921 0.786,76.653 0.644,76.376 0.515,76.092 0.4,75.801 0.299,75.503 0.213,75.198 0.141,74.888 0.084,74.572 0.044,74.251 
	0.019,73.925 0.011,73.596 0.012,73.49 0.014,73.385 0.019,73.279 0.024,73.175 0.032,73.069 0.042,72.965 0.053,72.86 
	0.066,72.757 0.08,72.652 0.097,72.549 0.115,72.446 0.134,72.343 0.156,72.24 0.178,72.138 0.203,72.036 0.229,71.936 
	0.257,71.834 0.287,71.734 0.318,71.634 0.351,71.534 0.385,71.436 0.421,71.337 0.459,71.239 0.498,71.143 0.539,71.045 
	0.582,70.949 0.626,70.854 0.671,70.76 0.719,70.666 0.768,70.572 0.818,70.48 0.87,70.389 1.299,69.645 "/>
<path fill-rule="evenodd" clip-rule="evenodd" fill="#FF1E00" d="M15.314,68.463l29.895-51.779l25.793,44.675l0.001,0.002l4.1,7.102
	H62.074H45.258H15.314z M41.024,3.71l0.144-0.21l0.152-0.201l0.161-0.19l0.168-0.181l0.176-0.171l0.183-0.161l0.19-0.151
	l0.197-0.141l0.203-0.131l0.208-0.121l0.214-0.111l0.218-0.1l0.223-0.089l0.227-0.079l0.23-0.067l0.233-0.057l0.235-0.045
	l0.237-0.034l0.239-0.022l0.241-0.011l0.24,0l0.242,0.012l0.24,0.024l0.24,0.036l0.239,0.048l0.238,0.06l0.236,0.072l0.234,0.084
	l0.232,0.098l0.229,0.11l0.237,0.129l0.061,0.036l0.069,0.042l0.069,0.044l0.068,0.044l0.067,0.046l0.067,0.047l0.065,0.048
	l0.065,0.049l0.063,0.05l0.063,0.051l0.063,0.052L48.5,2.674l0.061,0.054l0.061,0.055l0.059,0.056l0.058,0.058l0.058,0.058
	l0.056,0.059l0.056,0.06l0.055,0.061l0.053,0.062l0.052,0.063l0.052,0.063l0.05,0.064l0.05,0.065l0.048,0.066l0.047,0.067
	l0.046,0.067l0.045,0.068l0.044,0.069l0.043,0.07l0.044,0.075l1.421,2.461h0.002l29.101,50.402l0.001,0.003l8.252,14.294
	l0.044,0.077l0.039,0.071l0.038,0.072l0.036,0.073l0.035,0.073l0.035,0.074l0.033,0.075l0.031,0.075l0.03,0.075l0.029,0.076
	l0.029,0.077l0.026,0.076l0.025,0.078l0.024,0.077l0.022,0.078l0.021,0.079l0.021,0.078l0.02,0.079l0.019,0.08l0.017,0.08L88.9,72.7
	l0.014,0.081l0.013,0.08l0.012,0.081l0.01,0.081l0.009,0.081l0.008,0.081l0.006,0.082l0.004,0.081l0.004,0.083l0.002,0.081
	l0.001,0.069l-0.007,0.271l-0.02,0.254l-0.032,0.25l-0.043,0.245l-0.057,0.24l-0.066,0.236l-0.078,0.232l-0.09,0.226l-0.1,0.22
	l-0.109,0.216l-0.12,0.209l-0.13,0.202l-0.14,0.195l-0.148,0.189l-0.156,0.181l-0.166,0.174l-0.174,0.165l-0.181,0.157l-0.189,0.148
	l-0.195,0.14l-0.202,0.13l-0.209,0.119l-0.215,0.111l-0.222,0.1l-0.226,0.089l-0.23,0.078l-0.237,0.067l-0.24,0.055l-0.246,0.045
	l-0.249,0.031l-0.255,0.02l-0.275,0.007H68.33H45.258H20.029l0,0.001H6.462l-0.277-0.007l-0.256-0.02l-0.251-0.032L5.43,78.482
	l-0.242-0.056L4.95,78.36l-0.232-0.079l-0.227-0.089l-0.222-0.101l-0.216-0.11l-0.209-0.119l-0.203-0.13l-0.196-0.14l-0.189-0.148
	l-0.182-0.157l-0.174-0.166l-0.166-0.173l-0.158-0.182l-0.148-0.188l-0.14-0.195l-0.13-0.202l-0.12-0.209l-0.11-0.215l-0.1-0.221
	l-0.089-0.226l-0.078-0.231l-0.067-0.236l-0.056-0.24l-0.044-0.246l-0.032-0.249l-0.02-0.254l-0.007-0.271l0.001-0.069l0.002-0.082
	l0.003-0.082l0.005-0.081l0.006-0.082l0.007-0.081l0.009-0.081l0.01-0.081l0.012-0.081l0.013-0.08l0.014-0.081l0.016-0.08
	l0.016-0.08l0.018-0.079l0.019-0.079l0.021-0.079l0.021-0.078l0.023-0.078l0.024-0.077l0.026-0.078l0.026-0.077l0.028-0.076
	l0.029-0.076l0.03-0.076l0.032-0.074l0.033-0.075l0.035-0.074L1.95,71.39l0.037-0.073l0.038-0.072l0.039-0.072l0.043-0.076
	l0.527-0.913l0-0.001L39.477,6.369h0.003l1.4-2.424L41.024,3.71z"/>
<path fill="none" stroke="#231F20" stroke-width="0.0216" stroke-miterlimit="22.9256" d="M15.314,68.463l29.895-51.779
	l25.793,44.675l0.001,0.002l4.1,7.102H62.074H45.258H15.314z M41.024,3.71l0.144-0.21l0.152-0.201l0.161-0.19l0.168-0.181
	l0.176-0.171l0.183-0.161l0.19-0.151l0.197-0.141l0.203-0.131l0.208-0.121l0.214-0.111l0.218-0.1l0.223-0.089l0.227-0.079
	l0.23-0.067l0.233-0.057l0.235-0.045l0.237-0.034l0.239-0.022l0.241-0.011l0.24,0l0.242,0.012l0.24,0.024l0.24,0.036l0.239,0.048
	l0.238,0.06l0.236,0.072l0.234,0.084l0.232,0.098l0.229,0.11l0.237,0.129l0.061,0.036l0.069,0.042l0.069,0.044l0.068,0.044
	l0.067,0.046l0.067,0.047l0.065,0.048l0.065,0.049l0.063,0.05l0.063,0.051l0.063,0.052L48.5,2.674l0.061,0.054l0.061,0.055
	l0.059,0.056l0.058,0.058l0.058,0.058l0.056,0.059l0.056,0.06l0.055,0.061l0.053,0.062l0.052,0.063l0.052,0.063l0.05,0.064
	l0.05,0.065l0.048,0.066l0.047,0.067l0.046,0.067l0.045,0.068l0.044,0.069l0.043,0.07l0.044,0.075l1.421,2.461h0.002l29.101,50.402
	l0.001,0.003l8.252,14.294l0.044,0.077l0.039,0.071l0.038,0.072l0.036,0.073l0.035,0.073l0.035,0.074l0.033,0.075l0.031,0.075
	l0.03,0.075l0.029,0.076l0.029,0.077l0.026,0.076l0.025,0.078l0.024,0.077l0.022,0.078l0.021,0.079l0.021,0.078l0.02,0.079
	l0.019,0.08l0.017,0.08L88.9,72.7l0.014,0.081l0.013,0.08l0.012,0.081l0.01,0.081l0.009,0.081l0.008,0.081l0.006,0.082l0.004,0.081
	l0.004,0.083l0.002,0.081l0.001,0.069l-0.007,0.271l-0.02,0.254l-0.032,0.25l-0.043,0.245l-0.057,0.24l-0.066,0.236l-0.078,0.232
	l-0.09,0.226l-0.1,0.22l-0.109,0.216l-0.12,0.209l-0.13,0.202l-0.14,0.195l-0.148,0.189l-0.156,0.181l-0.166,0.174l-0.174,0.165
	l-0.181,0.157l-0.189,0.148l-0.195,0.14l-0.202,0.13l-0.209,0.119l-0.215,0.111l-0.222,0.1l-0.226,0.089l-0.23,0.078l-0.237,0.067
	l-0.24,0.055l-0.246,0.045l-0.249,0.031l-0.255,0.02l-0.275,0.007H68.33H45.258H20.029l0,0.001H6.462l-0.277-0.007l-0.256-0.02
	l-0.251-0.032L5.43,78.482l-0.242-0.056L4.95,78.36l-0.232-0.079l-0.227-0.089l-0.222-0.101l-0.216-0.11l-0.209-0.119l-0.203-0.13
	l-0.196-0.14l-0.189-0.148l-0.182-0.157l-0.174-0.166l-0.166-0.173l-0.158-0.182l-0.148-0.188l-0.14-0.195l-0.13-0.202l-0.12-0.209
	l-0.11-0.215l-0.1-0.221l-0.089-0.226l-0.078-0.231l-0.067-0.236l-0.056-0.24l-0.044-0.246l-0.032-0.249l-0.02-0.254l-0.007-0.271
	l0.001-0.069l0.002-0.082l0.003-0.082l0.005-0.081l0.006-0.082l0.007-0.081l0.009-0.081l0.01-0.081l0.012-0.081l0.013-0.08
	l0.014-0.081l0.016-0.08l0.016-0.08l0.018-0.079l0.019-0.079l0.021-0.079l0.021-0.078l0.023-0.078l0.024-0.077l0.026-0.078
	l0.026-0.077l0.028-0.076l0.029-0.076l0.03-0.076l0.032-0.074l0.033-0.075l0.035-0.074L1.95,71.39l0.037-0.073l0.038-0.072
	l0.039-0.072l0.043-0.076l0.527-0.913l0-0.001L39.477,6.369h0.003l1.4-2.424L41.024,3.71z"/>
<path fill-rule="evenodd" clip-rule="evenodd" d="M25.605,63.727v-6.256h6.148c2.398,0,5.056-0.761,6.461-2.782
	c1.818-2.49,3.619-4.315,7.031-4.362c3.217,0,5.354,1.775,6.949,4.323c2,2.48,4.38,2.761,6.55,2.847l6.066-0.025v6.27L25.605,63.727
	z"/>
</svg>
