<?xml version="1.0" encoding="UTF-8"?>
<!DOCTYPE svg PUBLIC "-//W3C//DTD SVG 1.1//EN" "http://www.w3.org/Graphics/SVG/1.1/DTD/svg11.dtd">
<!-- Creator: CorelDRAW X6 -->
<svg xmlns="http://www.w3.org/2000/svg" xml:space="preserve" width="36mm" height="31.5mm" version="1.1" style="shape-rendering:geometricPrecision; text-rendering:geometricPrecision; image-rendering:optimizeQuality; fill-rule:evenodd; clip-rule:evenodd"
viewBox="0 0 3600 3150"
 xmlns:xlink="http://www.w3.org/1999/xlink">
 <defs>
  <style type="text/css">
   <![CDATA[
    .fil1 {fill:#212220}
    .fil0 {fill:red}
   ]]>
  </style>
 </defs>
 <g id="Layer_x0020_1">
  <metadata id="CorelCorpID_0Corel-Layer"/>
  <path class="fil0" d="M1604 103l6 -9 6 -8 7 -8 7 -7 7 -7 7 -7 8 -6 8 -6 8 -5 8 -5 9 -4 9 -4 9 -4 9 -3 9 -3 9 -2 10 -2 10 -1 10 -1 10 0 10 0 10 0 10 1 10 1 10 2 10 2 10 3 10 3 9 4 9 4 10 5 2 1 3 2 3 2 3 2 3 2 3 2 3 2 3 2 3 2 3 2 3 2 3 2 2 2 2 2 2 2 2 2 2 2 2 2 2 2 2 2 2 2 2 3 2 3 2 3 2 3 2 3 2 3 2 3 2 3 2 3 2 3 2 3 58 100 0 0 1179 2041 0 0 334 579 2 3 2 3 2 3 1 3 1 3 1 3 1 3 1 3 1 3 1 3 1 3 1 3 1 3 1 3 1 3 1 3 1 3 1 3 1 3 1 3 1 3 1 3 1 3 0 3 0 3 0 3 0 3 0 3 0 3 0 3 0 3 0 3 0 11 -1 10 -1 10 -2 10 -2 10 -3 10 -3 9 -4 9 -4 9 -4 9 -5 8 -5 8 -6 8 -6 8 -6 7 -7 7 -7 7 -7 6 -8 6 -8 6 -8 5 -8 5 -9 4 -9 4 -9 4 -9 3 -10 3 -10 2 -10 2 -10 1 -10 1 -11 0 -634 0 0 0 -934 0 -1022 0 0 0 -549 0 -11 0 -10 -1 -10 -1 -10 -2 -10 -2 -10 -3 -9 -3 -9 -4 -9 -4 -9 -4 -8 -5 -8 -5 -8 -6 -8 -6 -7 -6 -7 -7 -7 -7 -6 -7 -6 -8 -6 -8 -5 -8 -5 -8 -4 -9 -4 -9 -4 -9 -3 -9 -3 -10 -2 -10 -2 -10 -1 -10 -1 -10 0 -11 0 -3 0 -3 0 -3 0 -3 0 -3 0 -3 0 -3 0 -3 0 -3 1 -3 1 -3 1 -3 1 -3 1 -3 1 -3 1 -3 1 -3 1 -3 1 -3 1 -3 1 -3 1 -3 1 -3 1 -3 1 -3 1 -3 1 -3 1 -3 1 -3 2 -3 2 -3 2 -3 21 -37 0 0 1492 -2584 0 0 57 -98 6 -10zm-1041 2623l1211 -2097 1045 1809 0 0 166 288 -528 0 0 0 -681 0 -1213 0z"/>
  <path class="fil1" d="M1453 1920c46,0 83,38 83,83 0,46 -38,83 -83,83 -46,0 -83,-37 -83,-83 0,-46 37,-83 83,-83m153 225l-662 0 182 -313c123,-6 238,16 357,21 16,-2 23,-6 22,-28 -16,-70 -90,-197 -140,-254 -24,-4 -49,-8 -77,-9 8,-15 17,-29 27,-44 28,0 54,6 81,11 137,151 227,432 211,616z"/>
  <path class="fil1" d="M2061 1584c-14,21 -22,55 -11,79 12,19 30,30 50,39l33 14 16 -4 66 -62 0 -14 -38 -78 -26 -26 -5 1 -85 50z"/>
  <path class="fil1" d="M2093 1950l-26 48 4 4 7 72 48 14c30,-7 56,-1 88,-26l59 -77c-25,-41 -56,-63 -103,-73 -29,-6 -52,21 -77,39z"/>
  <path class="fil1" d="M2485 2160c-19,-15 -29,-48 -54,-50 -34,24 -81,2 -115,-9l-36 92c18,12 36,26 48,44l30 21c32,0 62,-12 94,-17l33 -81z"/>
  <polygon class="fil1" points="1625,2370 1620,2367 2058,1701 2084,1716 "/>
  <polygon class="fil1" points="1655,2391 2040,2075 2061,2090 1659,2396 "/>
  <polygon class="fil1" points="1631,2469 1629,2462 2246,2220 2259,2253 "/>
  <path class="fil1" d="M654 2639l70 -119 695 0 -29 -33 0 -104 -586 -1 106 -180 691 0c-3,20 -8,40 -16,58l1 228 -23 32 1279 0 72 120 -2259 0z"/>
 </g>
</svg>
