<?xml version="1.0" encoding="UTF-8"?>
<!DOCTYPE svg PUBLIC "-//W3C//DTD SVG 1.1//EN" "http://www.w3.org/Graphics/SVG/1.1/DTD/svg11.dtd">
<!-- Creator: CorelDRAW X6 -->
<svg xmlns="http://www.w3.org/2000/svg" xml:space="preserve" width="36mm" height="31.5mm" version="1.1" style="shape-rendering:geometricPrecision; text-rendering:geometricPrecision; image-rendering:optimizeQuality; fill-rule:evenodd; clip-rule:evenodd"
viewBox="0 0 3600 3150"
 xmlns:xlink="http://www.w3.org/1999/xlink">
 <defs>
  <style type="text/css">
   <![CDATA[
    .fil1 {fill:#212220}
    .fil0 {fill:red}
   ]]>
  </style>
 </defs>
 <g id="Layer_x0020_1">
  <metadata id="CorelCorpID_0Corel-Layer"/>
  <path class="fil0" d="M1603 103l6 -9 6 -8 7 -8 7 -7 7 -7 7 -7 8 -6 8 -6 8 -5 8 -5 9 -4 9 -4 9 -4 9 -3 9 -3 9 -2 10 -2 10 -1 10 -1 10 0 10 0 10 0 10 1 10 1 10 2 10 2 10 3 9 3 9 4 9 4 10 5 2 1 3 2 3 2 3 2 3 2 3 2 3 2 3 2 3 2 3 2 3 2 2 2 2 2 2 2 2 2 2 2 2 2 2 2 2 2 2 2 2 2 2 3 2 3 2 3 2 3 2 3 2 3 2 3 2 3 2 3 2 3 2 3 58 100 0 0 1179 2041 0 0 334 579 2 3 2 3 2 3 1 3 1 3 1 3 1 3 1 3 1 3 1 3 1 3 1 3 1 3 1 3 1 3 1 3 1 3 1 3 1 3 1 3 1 3 1 3 1 3 0 3 0 3 0 3 0 3 0 3 0 3 0 3 0 3 0 3 0 11 -1 10 -1 10 -2 10 -2 10 -3 10 -3 9 -4 9 -4 9 -4 9 -5 8 -5 8 -6 8 -6 8 -6 7 -7 7 -7 7 -7 6 -8 6 -8 6 -8 5 -8 5 -9 4 -9 4 -9 4 -9 3 -10 3 -10 2 -10 2 -10 1 -10 1 -11 0 -634 0 0 0 -934 0 -1022 0 0 0 -549 0 -11 0 -10 -1 -10 -1 -10 -2 -10 -2 -10 -3 -9 -3 -9 -4 -9 -4 -9 -4 -8 -5 -8 -5 -8 -6 -8 -6 -7 -6 -7 -7 -7 -7 -6 -7 -6 -8 -6 -8 -5 -8 -5 -8 -4 -9 -4 -9 -4 -9 -3 -9 -3 -10 -2 -10 -2 -10 -1 -10 -1 -10 0 -11 0 -3 0 -3 0 -3 0 -3 0 -3 0 -3 0 -3 0 -3 0 -3 1 -3 1 -3 1 -3 1 -3 1 -3 1 -3 1 -3 1 -3 1 -3 1 -3 1 -3 1 -3 1 -3 1 -3 1 -3 1 -3 1 -3 1 -3 1 -3 1 -3 2 -3 2 -3 2 -3 21 -37 0 0 1492 -2584 0 0 57 -98 6 -10zm-1041 2623l1211 -2097 1045 1809 0 0 166 288 -528 0 0 0 -681 0 -1213 0z"/>
  <path class="fil1" d="M1788 1484c-33,-26 -67,-68 -97,-104l-6 -17c51,-61 72,-139 135,-182 47,-5 94,-26 139,-26 4,40 10,80 6,118l-12 16c-16,26 -8,52 -11,78 -3,19 -12,40 -31,55l-48 32 -36 18 -19 14 -19 0z"/>
  <path class="fil1" d="M1880 1638l-23 -17 -20 -18 -1 -10 -3 -10 52 -75 8 -2 57 16 15 10 8 30 -6 37 -10 12c-26,19 -50,27 -74,29l-4 -2z"/>
  <path class="fil1" d="M1697 1935c-32,-9 -53,-22 -77,-44 -8,-17 -2,-34 -2,-52l0 -34 111 -89c13,-6 37,-11 51,-9 13,6 22,12 26,21l10 28 28 52 1 24c-3,21 -3,43 -29,59l-47 16 -24 14 -26 14 -24 1z"/>
  <path class="fil1" d="M1599 2286c-33,-10 -61,-21 -92,-52l-2 -16 18 -91 0 -24 57 -49 94 -43 21 -1c35,38 74,69 111,62l13 2 -4 18 -30 62 -14 35 -24 25 -47 29c-22,17 -46,33 -68,41l-35 2z"/>
  <path class="fil1" d="M665 2643l70 -124 396 -1c-63,-23 -115,-25 -173,-70 -14,-18 -21,-45 -11,-66l20 -67 33 -75 82 -17 34 -7c24,-7 43,-1 65,9 61,48 122,103 188,145 -8,4 -15,10 -19,19l-33 56c-16,21 -22,53 -47,62l-31 13 456 0 211 -216 7 -83c-3,-125 98,-250 155,-377l-5 -48 -26 -92 -23 -83 -22 -80 -5 -15 -17 -41 14 -50 7 -11 27 -67 -9 -33 34 -132 841 1455 -2217 0z"/>
 </g>
</svg>
