<?xml version="1.0" encoding="utf-8"?>
<!-- Generator: Adobe Illustrator 16.0.0, SVG Export Plug-In . SVG Version: 6.00 Build 0)  -->
<!DOCTYPE svg PUBLIC "-//W3C//DTD SVG 1.1//EN" "http://www.w3.org/Graphics/SVG/1.1/DTD/svg11.dtd">
<svg version="1.1" id="Layer_1" xmlns="http://www.w3.org/2000/svg" xmlns:xlink="http://www.w3.org/1999/xlink" x="0px" y="0px"
	 width="90.417px" height="80.021px" viewBox="0 0 90.417 80.021" enable-background="new 0 0 90.417 80.021" xml:space="preserve">
<polygon fill="none" stroke="#231F20" stroke-width="0.0216" stroke-miterlimit="22.9256" points="1.299,69.645 1.299,69.644 
	38.653,4.944 38.657,4.944 39.654,3.218 39.826,2.936 40.011,2.666 40.207,2.409 40.413,2.163 40.63,1.93 40.858,1.71 41.094,1.502 
	41.339,1.307 41.592,1.125 41.853,0.957 42.122,0.802 42.396,0.66 42.677,0.531 42.963,0.417 43.254,0.316 43.549,0.229 
	43.849,0.156 44.15,0.098 44.456,0.055 44.763,0.025 45.072,0.011 45.382,0.012 45.692,0.027 46.002,0.058 46.312,0.104 
	46.621,0.166 46.927,0.243 47.232,0.336 47.534,0.445 47.833,0.57 48.126,0.712 48.417,0.87 48.508,0.923 48.598,0.978 
	48.687,1.034 48.775,1.092 48.862,1.151 48.948,1.211 49.032,1.273 49.116,1.337 49.199,1.401 49.28,1.467 49.361,1.534 
	49.44,1.603 49.518,1.672 49.594,1.743 49.67,1.815 49.746,1.889 49.819,1.963 49.891,2.04 49.962,2.117 50.032,2.195 50.1,2.274 
	50.167,2.354 50.233,2.436 50.297,2.519 50.361,2.602 50.422,2.687 50.483,2.773 50.542,2.859 50.6,2.948 50.657,3.036 
	50.711,3.126 50.765,3.217 51.777,4.971 51.779,4.971 81.332,56.156 81.333,56.158 81.333,56.158 89.547,70.388 89.599,70.479 
	89.65,70.572 89.699,70.665 89.746,70.759 89.792,70.854 89.835,70.949 89.878,71.045 89.918,71.142 89.958,71.239 89.996,71.337 
	90.032,71.435 90.066,71.534 90.099,71.633 90.13,71.733 90.16,71.834 90.188,71.935 90.214,72.036 90.239,72.138 90.261,72.24 
	90.284,72.343 90.303,72.445 90.321,72.549 90.336,72.651 90.351,72.756 90.364,72.86 90.375,72.964 90.385,73.069 90.393,73.174 
	90.399,73.279 90.403,73.384 90.406,73.489 90.407,73.595 90.398,73.925 90.374,74.251 90.333,74.571 90.276,74.888 90.205,75.198 
	90.119,75.502 90.017,75.801 89.903,76.092 89.774,76.376 89.632,76.652 89.478,76.921 89.311,77.182 89.132,77.433 88.942,77.675 
	88.74,77.908 88.528,78.131 88.304,78.343 88.072,78.545 87.83,78.735 87.579,78.914 87.318,79.081 87.049,79.235 86.773,79.377 
	86.489,79.506 86.197,79.621 85.899,79.722 85.594,79.808 85.284,79.88 84.968,79.937 84.647,79.977 84.322,80.001 83.992,80.01 
	69.21,80.01 69.205,80.01 45.257,80.01 22.435,80.01 22.435,80.011 6.444,80.011 6.112,80.002 5.785,79.978 5.463,79.937 
	5.146,79.88 4.834,79.809 4.528,79.722 4.229,79.621 3.937,79.507 3.652,79.378 3.374,79.236 3.104,79.082 2.844,78.915 
	2.592,78.735 2.349,78.545 2.115,78.344 1.892,78.132 1.679,77.909 1.477,77.676 1.287,77.434 1.107,77.182 0.94,76.922 
	0.786,76.653 0.644,76.377 0.515,76.093 0.4,75.801 0.299,75.503 0.212,75.199 0.141,74.889 0.084,74.572 0.043,74.251 
	0.019,73.926 0.011,73.596 0.012,73.49 0.014,73.385 0.019,73.279 0.024,73.175 0.032,73.069 0.042,72.965 0.053,72.861 
	0.066,72.757 0.08,72.652 0.097,72.549 0.115,72.446 0.134,72.344 0.155,72.241 0.179,72.138 0.203,72.037 0.229,71.936 
	0.257,71.835 0.287,71.734 0.318,71.634 0.351,71.534 0.385,71.436 0.421,71.338 0.459,71.239 0.499,71.143 0.539,71.046 
	0.582,70.949 0.626,70.854 0.671,70.76 0.719,70.666 0.768,70.572 0.818,70.48 0.87,70.389 1.299,69.646 "/>
<path fill-rule="evenodd" clip-rule="evenodd" fill="#FF1E00" d="M15.314,68.463l29.895-51.779l25.793,44.675l0.001,0.003l4.1,7.101
	H62.075H45.257H15.314z M41.024,3.71l0.143-0.21L41.319,3.3l0.161-0.19l0.169-0.181l0.176-0.171l0.183-0.161l0.19-0.151l0.197-0.141
	l0.203-0.131l0.208-0.121l0.213-0.111l0.219-0.1l0.223-0.089l0.227-0.079l0.23-0.067l0.233-0.057l0.235-0.045l0.238-0.034
	l0.239-0.022l0.24-0.011l0.241,0l0.241,0.012l0.24,0.023l0.241,0.036l0.238,0.048l0.238,0.06l0.236,0.072l0.235,0.084l0.231,0.098
	l0.229,0.11l0.237,0.129l0.061,0.035l0.07,0.043l0.069,0.044l0.067,0.044l0.067,0.046l0.067,0.047l0.066,0.048l0.064,0.049
	l0.064,0.05l0.063,0.051l0.063,0.052L48.5,2.674l0.061,0.054l0.061,0.055l0.059,0.056l0.058,0.057l0.058,0.058l0.057,0.059
	l0.055,0.06l0.055,0.061l0.053,0.062l0.053,0.063l0.051,0.063l0.05,0.064l0.05,0.065l0.048,0.066l0.047,0.067l0.047,0.068
	l0.044,0.068l0.045,0.069l0.042,0.07l0.045,0.075l1.42,2.461h0.003l29.1,50.402l0.001,0.002l8.253,14.295l0.043,0.076l0.039,0.071
	l0.038,0.073l0.037,0.072l0.035,0.074l0.034,0.074l0.033,0.074l0.032,0.075l0.03,0.075l0.029,0.077l0.028,0.076l0.026,0.077
	l0.025,0.077l0.024,0.078l0.023,0.077l0.021,0.079l0.021,0.078l0.02,0.079l0.018,0.08l0.017,0.08l0.015,0.08l0.014,0.08l0.013,0.081
	l0.012,0.08l0.011,0.081l0.008,0.081l0.008,0.082l0.006,0.081l0.005,0.082l0.003,0.082l0.002,0.082l0.001,0.069l-0.007,0.27
	l-0.02,0.254l-0.032,0.25l-0.043,0.245l-0.056,0.24l-0.067,0.237l-0.078,0.231l-0.09,0.226l-0.1,0.221l-0.109,0.215l-0.12,0.209
	l-0.13,0.203l-0.14,0.195l-0.147,0.188l-0.157,0.182l-0.166,0.173l-0.173,0.166l-0.182,0.157l-0.189,0.148l-0.195,0.14l-0.202,0.129
	l-0.209,0.12l-0.215,0.11l-0.221,0.1l-0.227,0.089l-0.23,0.078l-0.236,0.067l-0.241,0.056l-0.245,0.044l-0.25,0.031l-0.254,0.021
	l-0.276,0.007H68.33H45.257H20.029h0H6.462l-0.277-0.007l-0.256-0.02l-0.251-0.032L5.43,78.482l-0.242-0.055L4.95,78.36
	l-0.232-0.079l-0.227-0.089l-0.222-0.1l-0.216-0.11l-0.209-0.12l-0.203-0.13l-0.196-0.14l-0.189-0.148l-0.182-0.157l-0.174-0.165
	l-0.166-0.174l-0.158-0.181l-0.148-0.188l-0.14-0.196l-0.13-0.202l-0.12-0.209l-0.11-0.215l-0.1-0.22l-0.089-0.227l-0.079-0.231
	l-0.067-0.236l-0.056-0.24l-0.044-0.245l-0.032-0.25l-0.02-0.254l-0.007-0.27l0.001-0.07l0.002-0.082l0.003-0.081l0.005-0.082
	l0.006-0.082l0.007-0.081l0.009-0.081l0.01-0.081l0.012-0.081l0.012-0.08l0.014-0.08l0.015-0.081l0.017-0.079l0.018-0.08
	l0.019-0.079l0.02-0.079l0.022-0.078l0.022-0.078l0.024-0.077l0.026-0.077l0.026-0.078l0.028-0.076l0.029-0.076l0.03-0.075
	l0.032-0.075l0.033-0.075l0.035-0.074L1.95,71.39l0.037-0.073l0.038-0.072l0.039-0.071l0.043-0.077l0.528-0.913v-0.001L39.477,6.37
	h0.003l1.399-2.423L41.024,3.71z"/>
<path fill="none" stroke="#231F20" stroke-width="0.0216" stroke-miterlimit="22.9256" d="M15.314,68.463l29.895-51.779
	l25.793,44.675l0.001,0.003l4.1,7.101H62.075H45.257H15.314z M41.024,3.71l0.143-0.21L41.319,3.3l0.161-0.19l0.169-0.181
	l0.176-0.171l0.183-0.161l0.19-0.151l0.197-0.141l0.203-0.131l0.208-0.121l0.213-0.111l0.219-0.1l0.223-0.089l0.227-0.079
	l0.23-0.067l0.233-0.057l0.235-0.045l0.238-0.034l0.239-0.022l0.24-0.011l0.241,0l0.241,0.012l0.24,0.023l0.241,0.036l0.238,0.048
	l0.238,0.06l0.236,0.072l0.235,0.084l0.231,0.098l0.229,0.11l0.237,0.129l0.061,0.035l0.07,0.043l0.069,0.044l0.067,0.044
	l0.067,0.046l0.067,0.047l0.066,0.048l0.064,0.049l0.064,0.05l0.063,0.051l0.063,0.052L48.5,2.674l0.061,0.054l0.061,0.055
	l0.059,0.056l0.058,0.057l0.058,0.058l0.057,0.059l0.055,0.06l0.055,0.061l0.053,0.062l0.053,0.063l0.051,0.063l0.05,0.064
	l0.05,0.065l0.048,0.066l0.047,0.067l0.047,0.068l0.044,0.068l0.045,0.069l0.042,0.07l0.045,0.075l1.42,2.461h0.003l29.1,50.402
	l0.001,0.002l8.253,14.295l0.043,0.076l0.039,0.071l0.038,0.073l0.037,0.072l0.035,0.074l0.034,0.074l0.033,0.074l0.032,0.075
	l0.03,0.075l0.029,0.077l0.028,0.076l0.026,0.077l0.025,0.077l0.024,0.078l0.023,0.077l0.021,0.079l0.021,0.078l0.02,0.079
	l0.018,0.08l0.017,0.08l0.015,0.08l0.014,0.08l0.013,0.081l0.012,0.08l0.011,0.081l0.008,0.081l0.008,0.082l0.006,0.081l0.005,0.082
	l0.003,0.082l0.002,0.082l0.001,0.069l-0.007,0.27l-0.02,0.254l-0.032,0.25l-0.043,0.245l-0.056,0.24l-0.067,0.237l-0.078,0.231
	l-0.09,0.226l-0.1,0.221l-0.109,0.215l-0.12,0.209l-0.13,0.203l-0.14,0.195l-0.147,0.188l-0.157,0.182l-0.166,0.173l-0.173,0.166
	l-0.182,0.157l-0.189,0.148l-0.195,0.14l-0.202,0.129l-0.209,0.12l-0.215,0.11l-0.221,0.1l-0.227,0.089l-0.23,0.078l-0.236,0.067
	l-0.241,0.056l-0.245,0.044l-0.25,0.031l-0.254,0.021l-0.276,0.007H68.33H45.257H20.029h0H6.462l-0.277-0.007l-0.256-0.02
	l-0.251-0.032L5.43,78.482l-0.242-0.055L4.95,78.36l-0.232-0.079l-0.227-0.089l-0.222-0.1l-0.216-0.11l-0.209-0.12l-0.203-0.13
	l-0.196-0.14l-0.189-0.148l-0.182-0.157l-0.174-0.165l-0.166-0.174l-0.158-0.181l-0.148-0.188l-0.14-0.196l-0.13-0.202l-0.12-0.209
	l-0.11-0.215l-0.1-0.22l-0.089-0.227l-0.079-0.231l-0.067-0.236l-0.056-0.24l-0.044-0.245l-0.032-0.25l-0.02-0.254l-0.007-0.27
	l0.001-0.07l0.002-0.082l0.003-0.081l0.005-0.082l0.006-0.082l0.007-0.081l0.009-0.081l0.01-0.081l0.012-0.081l0.012-0.08
	l0.014-0.08l0.015-0.081l0.017-0.079l0.018-0.08l0.019-0.079l0.02-0.079l0.022-0.078l0.022-0.078l0.024-0.077l0.026-0.077
	l0.026-0.078l0.028-0.076l0.029-0.076l0.03-0.075l0.032-0.075l0.033-0.075l0.035-0.074L1.95,71.39l0.037-0.073l0.038-0.072
	l0.039-0.071l0.043-0.077l0.528-0.913v-0.001L39.477,6.37h0.003l1.399-2.423L41.024,3.71z"/>
<path fill-rule="evenodd" clip-rule="evenodd" d="M49.151,37.66c1.462,0.002,2.655,1.199,2.653,2.661
	c-0.002,1.461-1.198,2.656-2.66,2.654s-2.655-1.199-2.653-2.661C46.493,38.851,47.689,37.658,49.151,37.66"/>
<path fill-rule="evenodd" clip-rule="evenodd" d="M34.83,47.813l1.817-4.954l3.638,0.005L34.83,47.813z M42.609,52.41l-1.514-1.882
	l4.461-2.559l-0.006,4.342l1.692,2.493L42.609,52.41z M48.524,56.618c0.361,0.58,0.678,0.776,1.423,0.732l4.035,2.064l-1.258,1.072
	c-0.524,0.315-1.059,0.484-1.64,0.993l-1.445,2.452l-1.403,0.354c0.094,0.31-0.078,0.442-0.226,0.77l-0.677,1.246l21.481,0.03
	l-0.417-0.725c-0.13-0.524-1.217-1.357-1.684-1.79l-3.817-7.957l-1.896,0.187l-1.73-1.271l-4.365,2.109l-0.543,1.539l-3.415-1.766
	c0.324-0.393,0.252-1.097-0.05-1.448l-2.711-3.651l0.025-6.33l-3.979-4.87c-3.114-0.004-6.309-0.008-9.416-0.013l-2.554,6.812
	l-2.314-1.174l-0.517,0.816l2.548,1.344c0.182,0.783,1.183,1.549,2.17,1.082l-0.924,8.059l-4.216,6.271
	c-1.124,1.851,1.408,3.921,2.981,1.923l4.889-7.251l0.63-6.325l4.958,6.161l-0.996,6.146c-0.323,2.643,3.18,2.792,3.49,0.647
	l1.223-7.709l-2.34-2.893L48.524,56.618"/>
</svg>
