<?xml version="1.0" encoding="UTF-8"?>
<!DOCTYPE svg PUBLIC "-//W3C//DTD SVG 1.1//EN" "http://www.w3.org/Graphics/SVG/1.1/DTD/svg11.dtd">
<!-- Creator: CorelDRAW X6 -->
<svg xmlns="http://www.w3.org/2000/svg" xml:space="preserve" width="36mm" height="31.5mm" version="1.1" style="shape-rendering:geometricPrecision; text-rendering:geometricPrecision; image-rendering:optimizeQuality; fill-rule:evenodd; clip-rule:evenodd"
viewBox="0 0 3600 3150"
 xmlns:xlink="http://www.w3.org/1999/xlink">
 <defs>
  <style type="text/css">
   <![CDATA[
    .fil1 {fill:#212220}
    .fil0 {fill:red}
   ]]>
  </style>
 </defs>
 <g id="Layer_x0020_1">
  <metadata id="CorelCorpID_0Corel-Layer"/>
  <path class="fil0" d="M1603 103l6 -9 6 -8 7 -8 7 -7 7 -7 7 -7 8 -6 8 -6 8 -5 8 -5 9 -4 9 -4 9 -4 9 -3 9 -3 9 -2 10 -2 10 -1 10 -1 10 0 10 0 10 0 10 1 10 1 10 2 10 2 10 3 9 3 9 4 9 4 10 5 2 1 3 2 3 2 3 2 3 2 3 2 3 2 3 2 3 2 3 2 3 2 2 2 2 2 2 2 2 2 2 2 2 2 2 2 2 2 2 2 2 3 2 3 2 3 2 3 2 3 2 3 2 3 2 3 2 3 2 3 2 3 2 3 58 100 0 0 1179 2041 0 0 334 579 2 3 2 3 2 3 1 3 1 3 1 3 1 3 1 3 1 3 1 3 1 3 1 3 1 3 1 3 1 3 1 3 1 3 1 3 1 3 1 3 1 3 1 3 1 3 0 3 0 3 0 3 0 3 0 3 0 3 0 3 0 3 0 3 0 11 -1 10 -1 10 -2 10 -2 10 -3 10 -3 9 -4 9 -4 9 -4 9 -5 8 -5 8 -6 8 -6 8 -6 7 -7 7 -7 7 -7 6 -8 6 -8 6 -8 5 -8 5 -9 4 -9 4 -9 4 -9 3 -10 3 -10 2 -10 2 -10 1 -10 1 -11 0 -634 0 0 0 -934 0 -1022 0 0 0 -549 0 -11 0 -10 -1 -10 -1 -10 -2 -10 -2 -10 -3 -9 -3 -9 -4 -9 -4 -9 -4 -8 -5 -8 -5 -8 -6 -8 -6 -7 -6 -7 -7 -7 -7 -6 -7 -6 -8 -6 -8 -5 -8 -5 -8 -4 -9 -4 -9 -4 -9 -3 -9 -3 -10 -2 -10 -2 -10 -1 -10 -1 -10 0 -11 0 -3 0 -3 0 -3 0 -3 0 -3 0 -3 0 -3 0 -3 0 -3 1 -3 1 -3 1 -3 1 -3 1 -3 1 -3 1 -3 1 -3 1 -3 1 -3 1 -3 1 -3 1 -3 1 -3 1 -3 1 -3 1 -3 1 -3 1 -3 1 -3 2 -3 2 -3 2 -3 21 -37 0 0 1492 -2584 0 0 57 -98 6 -10zm-1041 2623l1211 -2097 1045 1809 0 0 166 288 -528 0 0 0 -681 0 -1213 0z"/>
  <path class="fil1" d="M2246 2036l-931 -158c19,-140 137,-334 251,-416 199,18 379,47 578,100 78,112 123,340 101,474zm-825 -352c47,-77 87,-132 147,-191 145,12 420,56 557,96 46,73 67,150 79,228 -363,-81 -420,-90 -783,-133z"/>
  <polygon class="fil1" points="2097,2301 2078,2273 2090,2192 1409,2074 1394,2157 1366,2178 1292,2167 1272,2137 1306,1920 2239,2081 2200,2295 2174,2314 "/>
  <path class="fil1" d="M1885 2250l-24 14 -20 41 18 30 37 15 22 -4 18 -22c-2,-17 2,-33 -5,-50 -12,-13 -29,-23 -46,-25z"/>
  <polygon class="fil1" points="919,2359 919,2191 1797,2191 1797,2359 "/>
  <path class="fil1" d="M2032 2317c-15,-9 -30,-19 -45,-11l-31 28 -4 24 31 23 39 0 12 -8 9 -39 -12 -16z"/>
  <polygon class="fil1" points="2075,2431 2062,2420 2061,2404 2081,2381 2110,2369 2124,2367 2149,2385 2151,2402 2134,2418 2107,2430 "/>
  <path class="fil1" d="M2390 2452c18,-20 20,-39 14,-57l-13 -7 -39 5c-9,4 -20,13 -26,28 -3,28 1,26 13,47l32 -6 17 -10z"/>
  <path class="fil1" d="M1991 2490c-14,-4 -24,-8 -35,-17l-5 -33c14,-22 42,-36 63,-44l5 -4 15 2 9 14c4,4 8,7 11,13l-9 50 -16 15 -37 4z"/>
  <path class="fil1" d="M2184 2501l-20 -18 6 -38 11 -8 23 -7 16 4 18 11 6 13 0 20c-4,12 -15,17 -22,21l-37 3z"/>
  <polygon class="fil1" points="2449,2503 2431,2490 2427,2483 2431,2452 2449,2430 2452,2430 2491,2434 2502,2440 2504,2444 2510,2467 2504,2487 2497,2489 2487,2494 "/>
  <path class="fil1" d="M2627 2516l-6 -9 -21 0 -21 15 -4 11 2 17 13 9 18 0c18,-12 20,-28 20,-42z"/>
  <polygon class="fil1" points="2477,2581 2475,2571 2479,2544 2483,2542 2506,2542 2524,2556 2516,2578 2507,2581 "/>
 </g>
</svg>
