<?xml version="1.0" encoding="UTF-8"?>
<!DOCTYPE svg PUBLIC "-//W3C//DTD SVG 1.1//EN" "http://www.w3.org/Graphics/SVG/1.1/DTD/svg11.dtd">
<!-- Creator: CorelDRAW X6 -->
<svg xmlns="http://www.w3.org/2000/svg" xml:space="preserve" width="36mm" height="31.5mm" version="1.1" style="shape-rendering:geometricPrecision; text-rendering:geometricPrecision; image-rendering:optimizeQuality; fill-rule:evenodd; clip-rule:evenodd"
viewBox="0 0 3600 3150"
 xmlns:xlink="http://www.w3.org/1999/xlink">
 <defs>
  <style type="text/css">
   <![CDATA[
    .fil2 {fill:none}
    .fil1 {fill:#212220}
    .fil0 {fill:#FF1717}
   ]]>
  </style>
 </defs>
 <g id="Layer_x0020_1">
  <metadata id="CorelCorpID_0Corel-Layer"/>
  <path class="fil0" d="M1604 94l6 -9 6 -8 7 -8 7 -7 7 -7 7 -7 8 -6 8 -6 8 -5 8 -5 9 -4 9 -4 9 -4 9 -3 9 -3 9 -2 10 -2 10 -1 10 -1 10 0 10 0 10 0 10 1 10 1 10 2 10 2 10 3 10 3 9 4 9 4 10 5 2 1 3 2 3 2 3 2 3 2 3 2 3 2 3 2 3 2 3 2 3 2 3 2 2 2 2 2 2 2 2 2 2 2 2 2 2 2 2 2 2 3 2 3 2 3 2 3 2 3 2 3 2 3 2 3 2 3 2 3 2 3 2 3 58 100 0 0 1179 2041 0 0 334 579 2 3 2 3 2 3 1 3 1 3 1 3 1 3 1 3 1 3 1 3 1 3 1 3 1 3 1 3 1 3 1 3 1 3 1 3 1 3 1 3 1 3 1 3 1 3 0 3 0 3 0 3 0 3 0 3 0 3 0 3 0 3 0 3 0 11 -1 10 -1 10 -2 10 -2 10 -3 10 -3 9 -4 9 -4 9 -4 9 -5 8 -5 8 -6 8 -6 8 -6 7 -7 7 -7 7 -7 6 -8 6 -8 6 -8 5 -8 5 -9 4 -9 4 -9 4 -9 3 -10 3 -10 2 -10 2 -10 1 -10 1 -11 0 -634 0 0 0 -934 0 -1022 0 0 0 -549 0 -11 0 -10 -1 -10 -1 -10 -2 -10 -2 -10 -3 -9 -3 -9 -4 -9 -4 -9 -4 -8 -5 -8 -5 -8 -6 -8 -6 -7 -6 -7 -7 -7 -7 -6 -7 -6 -8 -6 -8 -5 -8 -5 -8 -4 -9 -4 -9 -4 -9 -3 -9 -3 -10 -2 -10 -2 -10 -1 -10 -1 -10 0 -11 0 -3 0 -3 0 -3 0 -3 0 -3 0 -3 0 -3 0 -3 0 -3 1 -3 1 -3 1 -3 1 -3 1 -3 1 -3 1 -3 1 -3 1 -3 1 -3 1 -3 1 -3 1 -3 1 -3 1 -3 1 -3 1 -3 1 -3 1 -3 1 -3 2 -3 2 -3 2 -3 21 -37 0 0 1492 -2584 0 0 57 -98 6 -10zm-1041 2623l1211 -2097 1045 1809 0 0 166 288 -528 0 0 0 -681 0 -1213 0z"/>
  <polygon class="fil1" points="989,2259 1065,2134 1241,2237 1164,2362 "/>
  <path class="fil1" d="M1926 1566c51,0 94,42 94,94 0,51 -42,94 -94,94 -52,0 -94,-42 -94,-94 0,-52 42,-94 94,-94z"/>
  <path class="fil1" d="M1410 1622c51,0 93,42 93,93 0,51 -42,93 -93,93 -51,0 -93,-42 -93,-93 0,-51 42,-93 93,-93z"/>
  <path class="fil1" d="M2189 1691c-86,-28 -90,-80 -152,-64l-11 -26c26,4 58,-9 84,-14 33,0 70,2 99,41 26,37 25,43 72,45 -27,24 -56,24 -93,18z"/>
  <path class="fil1" d="M1766 2108l140 -284 151 -94 242 41 110 137c16,34 -19,68 -55,44l-97 -119 -124 -21 72 158 -136 67 -120 -150 -119 251c-23,27 -70,9 -63,-29z"/>
  <polygon class="fil1" points="2413,2158 2324,2050 2468,1928 2557,2037 "/>
  <path class="fil1" d="M1178 2110l224 -254 121 -58 184 94 51 167c-2,39 -36,52 -62,21l-43 -139 -95 -48 50 150 -148 91 -74 -152 -153 174c-34,19 -67,7 -56,-45z"/>
  <path class="fil1" d="M1186 2563l102 -249 142 -102 -7 -17 195 -125 62 178 -23 14 23 62 152 -98c32,-21 83,26 52,64l-210 136c-23,4 -43,1 -54,-21l-35 -96 -26 18 -20 -57 -72 45 -7 -19 -97 70 -91 224c-17,42 -99,22 -84,-28z"/>
  <path class="fil1" d="M1972 2591l-60 -301 166 -229 138 -66 105 234 -42 9 18 41 207 140c21,37 -10,80 -52,64l-225 -152 -31 -72 -195 48 53 261c3,46 -55,63 -82,24z"/>
  <line class="fil2" x1="2557" y1="2037" x2="2592" y2= "2038" />
 </g>
</svg>
