<?xml version="1.0" encoding="UTF-8"?>
<!DOCTYPE svg PUBLIC "-//W3C//DTD SVG 1.1//EN" "http://www.w3.org/Graphics/SVG/1.1/DTD/svg11.dtd">
<!-- Creator: CorelDRAW X6 -->
<svg xmlns="http://www.w3.org/2000/svg" xml:space="preserve" width="36mm" height="31.5mm" version="1.1" style="shape-rendering:geometricPrecision; text-rendering:geometricPrecision; image-rendering:optimizeQuality; fill-rule:evenodd; clip-rule:evenodd"
viewBox="0 0 3600 3150"
 xmlns:xlink="http://www.w3.org/1999/xlink">
 <defs>
  <style type="text/css">
   <![CDATA[
    .fil1 {fill:#212220}
    .fil0 {fill:#FF1717}
   ]]>
  </style>
 </defs>
 <g id="Layer_x0020_1">
  <metadata id="CorelCorpID_0Corel-Layer"/>
  <path class="fil0" d="M1604 93l6 -9 6 -8 7 -8 7 -7 7 -7 7 -7 8 -6 8 -6 8 -5 8 -5 9 -4 9 -4 9 -4 9 -3 9 -3 9 -2 10 -2 10 -1 10 -1 10 0 10 0 10 1 10 1 10 1 10 2 10 2 10 3 9 3 9 4 9 4 10 5 2 1 3 2 3 2 3 2 3 2 3 2 3 2 3 2 3 2 3 2 3 2 2 2 2 2 2 2 2 2 2 2 2 2 2 2 2 2 2 2 2 3 2 3 2 3 2 3 2 3 2 3 2 3 2 3 2 3 2 3 2 3 2 3 58 100 0 0 1179 2041 0 0 334 579 2 3 2 3 2 3 1 3 1 3 1 3 1 3 1 3 1 3 1 3 1 3 1 3 1 3 1 3 1 3 1 3 1 3 1 3 1 3 1 3 1 3 1 3 1 3 0 3 0 3 0 3 0 3 0 3 0 3 0 3 0 3 0 3 0 11 -1 10 -1 10 -2 10 -2 10 -3 10 -3 9 -4 9 -4 9 -4 9 -5 8 -5 8 -6 8 -6 8 -6 7 -7 7 -7 7 -7 6 -8 6 -8 6 -8 5 -8 5 -9 4 -9 4 -9 4 -9 3 -10 3 -10 2 -10 2 -10 1 -10 1 -11 0 -634 0 0 0 -934 0 -1022 0 0 0 -549 0 -11 0 -10 -1 -10 -1 -10 -2 -10 -2 -10 -3 -9 -3 -9 -4 -9 -4 -9 -4 -8 -5 -8 -5 -8 -6 -8 -6 -7 -6 -7 -7 -7 -7 -6 -7 -6 -8 -6 -8 -5 -8 -5 -8 -4 -9 -4 -9 -4 -9 -3 -9 -3 -10 -2 -10 -2 -10 -1 -10 -1 -10 0 -11 0 -3 0 -3 0 -3 0 -3 0 -3 0 -3 0 -3 0 -3 0 -3 1 -3 1 -3 1 -3 1 -3 1 -3 1 -3 1 -3 1 -3 1 -3 1 -3 1 -3 1 -3 1 -3 1 -3 1 -3 1 -3 1 -3 1 -3 1 -3 1 -3 2 -3 2 -3 2 -3 21 -37 0 0 1492 -2584 0 0 57 -98 6 -10zm-1041 2623l1211 -2097 1045 1809 0 0 166 288 -528 0 0 0 -681 0 -1213 0z"/>
  <path class="fil1" d="M663 2615l325 -563 328 0 -72 -73 647 -651 74 74 -647 650 0 309c39,66 137,68 175,0 39,64 128,68 174,0 47,63 134,69 181,0 46,59 127,73 181,0 59,72 138,62 195,0l0 -310 342 0 319 563 -2220 0zm827 -166c-57,53 -131,46 -175,0l-1 -37c67,50 109,50 175,0 71,49 111,50 175,0 63,50 125,49 182,0 57,49 124,50 181,0 82,50 125,50 196,0l0 37c-80,50 -119,49 -195,0 -65,47 -115,51 -181,0 -56,48 -118,49 -182,0 -57,50 -121,52 -174,0z"/>
 </g>
</svg>
