<?xml version="1.0" encoding="utf-8"?>
<!-- Generator: Adobe Illustrator 16.0.0, SVG Export Plug-In . SVG Version: 6.00 Build 0)  -->
<!DOCTYPE svg PUBLIC "-//W3C//DTD SVG 1.1//EN" "http://www.w3.org/Graphics/SVG/1.1/DTD/svg11.dtd">
<svg version="1.1" id="Layer_1" xmlns="http://www.w3.org/2000/svg" xmlns:xlink="http://www.w3.org/1999/xlink" x="0px" y="0px"
	 width="90.418px" height="80.021px" viewBox="0 0 90.418 80.021" enable-background="new 0 0 90.418 80.021" xml:space="preserve">
<polygon fill="none" stroke="#231F20" stroke-width="0.0216" stroke-miterlimit="22.9256" points="1.299,69.645 1.3,69.644 
	38.654,4.944 38.657,4.944 39.654,3.217 39.827,2.936 40.011,2.666 40.207,2.408 40.414,2.163 40.631,1.93 40.857,1.71 
	41.095,1.502 41.34,1.307 41.593,1.125 41.854,0.957 42.122,0.801 42.396,0.659 42.678,0.531 42.963,0.416 43.254,0.315 
	43.55,0.229 43.849,0.156 44.151,0.098 44.456,0.054 44.764,0.025 45.072,0.011 45.383,0.011 45.692,0.027 46.003,0.058 
	46.313,0.104 46.621,0.166 46.928,0.243 47.232,0.335 47.534,0.445 47.833,0.57 48.127,0.711 48.417,0.869 48.508,0.923 
	48.599,0.978 48.688,1.034 48.775,1.092 48.862,1.151 48.948,1.211 49.032,1.273 49.116,1.336 49.199,1.401 49.28,1.467 
	49.361,1.534 49.44,1.603 49.519,1.672 49.595,1.743 49.671,1.815 49.746,1.889 49.819,1.963 49.892,2.039 49.963,2.116 
	50.032,2.194 50.101,2.273 50.168,2.354 50.233,2.436 50.298,2.518 50.361,2.602 50.423,2.687 50.483,2.772 50.543,2.859 
	50.601,2.947 50.657,3.036 50.712,3.126 50.765,3.217 51.777,4.97 51.779,4.97 81.332,56.155 81.333,56.158 81.333,56.158 
	89.548,70.388 89.6,70.479 89.65,70.572 89.699,70.665 89.746,70.759 89.792,70.854 89.836,70.949 89.879,71.045 89.919,71.142 
	89.959,71.239 89.996,71.337 90.032,71.435 90.066,71.533 90.1,71.633 90.131,71.733 90.16,71.834 90.188,71.935 90.215,72.036 
	90.239,72.138 90.263,72.24 90.283,72.343 90.303,72.445 90.321,72.548 90.337,72.652 90.353,72.756 90.365,72.859 90.376,72.965 
	90.386,73.068 90.394,73.174 90.399,73.279 90.403,73.384 90.406,73.489 90.407,73.595 90.398,73.925 90.374,74.25 90.333,74.571 
	90.277,74.888 90.205,75.198 90.118,75.502 90.018,75.801 89.902,76.092 89.774,76.376 89.633,76.652 89.479,76.921 89.312,77.182 
	89.133,77.433 88.942,77.676 88.74,77.908 88.528,78.131 88.305,78.343 88.072,78.545 87.83,78.735 87.578,78.914 87.318,79.081 
	87.05,79.235 86.772,79.377 86.489,79.506 86.197,79.62 85.899,79.722 85.595,79.808 85.285,79.88 84.969,79.936 84.647,79.977 
	84.322,80.001 83.992,80.01 69.211,80.01 69.205,80.01 45.258,80.011 22.436,80.011 22.436,80.011 6.444,80.011 6.112,80.002 
	5.785,79.978 5.463,79.937 5.146,79.88 4.834,79.809 4.528,79.722 4.229,79.621 3.937,79.507 3.652,79.378 3.375,79.236 
	3.105,79.081 2.844,78.915 2.592,78.735 2.349,78.546 2.116,78.344 1.893,78.131 1.68,77.908 1.478,77.676 1.287,77.434 
	1.107,77.182 0.94,76.922 0.786,76.653 0.644,76.376 0.515,76.092 0.4,75.801 0.3,75.503 0.213,75.198 0.141,74.888 0.084,74.572 
	0.044,74.251 0.019,73.925 0.011,73.596 0.012,73.49 0.014,73.385 0.019,73.279 0.024,73.175 0.033,73.069 0.042,72.965 
	0.053,72.86 0.066,72.757 0.081,72.652 0.097,72.549 0.115,72.446 0.135,72.343 0.156,72.241 0.179,72.139 0.204,72.036 
	0.229,71.936 0.257,71.834 0.287,71.734 0.318,71.634 0.351,71.534 0.386,71.436 0.421,71.337 0.459,71.239 0.499,71.143 
	0.54,71.046 0.582,70.949 0.626,70.854 0.672,70.76 0.719,70.666 0.768,70.572 0.818,70.48 0.87,70.389 1.299,69.645 "/>
<path fill-rule="evenodd" clip-rule="evenodd" fill="#FF1E00" d="M15.314,68.463L45.21,16.684l25.793,44.675l0.001,0.002l4.1,7.102
	H62.075H45.258H15.314z M41.024,3.71l0.144-0.21l0.151-0.201l0.161-0.19l0.169-0.181l0.176-0.171l0.184-0.161l0.19-0.151
	l0.196-0.141l0.203-0.131l0.208-0.121l0.214-0.11l0.219-0.1l0.223-0.089l0.228-0.079l0.229-0.068l0.232-0.056l0.236-0.045
	l0.237-0.034l0.239-0.022l0.24-0.012l0.241,0l0.241,0.012l0.24,0.024l0.241,0.036l0.238,0.048l0.238,0.061l0.236,0.072l0.234,0.085
	l0.232,0.097l0.229,0.11l0.237,0.129l0.061,0.036l0.069,0.042l0.069,0.044l0.068,0.045l0.067,0.046l0.067,0.047l0.065,0.048
	l0.065,0.049l0.064,0.05l0.063,0.052l0.063,0.052L48.5,2.674l0.061,0.054l0.061,0.055L48.68,2.84l0.058,0.057l0.058,0.058
	l0.057,0.059l0.055,0.06l0.055,0.061l0.053,0.062l0.053,0.063l0.051,0.063l0.05,0.064l0.05,0.065l0.048,0.066l0.047,0.067
	l0.047,0.068l0.044,0.068l0.045,0.069l0.042,0.07l0.045,0.075l1.42,2.461h0.002l29.101,50.402l0.001,0.003l8.253,14.295l0.043,0.076
	l0.039,0.072l0.038,0.072l0.037,0.073l0.035,0.073l0.034,0.073l0.033,0.075l0.032,0.075l0.03,0.076l0.029,0.075l0.028,0.077
	l0.026,0.077l0.025,0.077l0.024,0.077l0.023,0.078l0.021,0.079l0.021,0.078l0.02,0.08l0.018,0.079l0.017,0.08l0.015,0.08l0.015,0.08
	l0.013,0.08l0.011,0.081l0.01,0.081l0.009,0.081l0.008,0.081l0.006,0.082l0.005,0.082l0.003,0.082l0.002,0.081l0.001,0.069
	l-0.007,0.271l-0.02,0.254l-0.031,0.25l-0.044,0.245l-0.056,0.241l-0.067,0.235l-0.078,0.232l-0.089,0.226l-0.1,0.221l-0.11,0.215
	l-0.12,0.209l-0.13,0.202l-0.139,0.195l-0.148,0.189l-0.157,0.181l-0.166,0.174l-0.173,0.165l-0.182,0.157l-0.188,0.148l-0.196,0.14
	l-0.202,0.13l-0.209,0.12l-0.215,0.11l-0.222,0.1l-0.226,0.089l-0.231,0.078l-0.236,0.067l-0.24,0.056l-0.246,0.044l-0.249,0.031
	l-0.254,0.02l-0.276,0.007H68.33H45.258H20.029v0.001H6.462l-0.277-0.007l-0.256-0.02l-0.251-0.031l-0.247-0.045l-0.242-0.056
	L4.95,78.36l-0.232-0.079l-0.227-0.089l-0.221-0.1l-0.216-0.111l-0.209-0.119l-0.204-0.13l-0.196-0.14l-0.189-0.148l-0.182-0.157
	l-0.174-0.165l-0.166-0.174l-0.157-0.182l-0.148-0.188l-0.14-0.195l-0.13-0.202l-0.12-0.209l-0.11-0.215l-0.1-0.221L1.74,75.311
	l-0.079-0.231l-0.067-0.236l-0.056-0.24l-0.043-0.245l-0.032-0.25l-0.019-0.254l-0.007-0.271l0-0.069l0.002-0.082l0.003-0.082
	l0.005-0.081l0.006-0.082l0.007-0.081l0.009-0.081l0.01-0.081l0.011-0.081l0.013-0.08l0.014-0.081l0.015-0.079l0.017-0.08
	l0.019-0.08l0.019-0.079l0.02-0.079l0.022-0.078l0.023-0.078l0.024-0.077l0.025-0.078l0.027-0.076l0.028-0.077l0.029-0.076
	l0.031-0.075l0.032-0.075l0.033-0.075l0.035-0.074l0.036-0.073l0.037-0.073l0.038-0.072l0.039-0.072l0.043-0.076l0.527-0.913v-0.001
	L39.478,6.37h0.003l1.399-2.424L41.024,3.71z"/>
<path fill="none" stroke="#231F20" stroke-width="0.0216" stroke-miterlimit="22.9256" d="M15.314,68.463L45.21,16.684
	l25.793,44.675l0.001,0.002l4.1,7.102H62.075H45.258H15.314z M41.024,3.71l0.144-0.21l0.151-0.201l0.161-0.19l0.169-0.181
	l0.176-0.171l0.184-0.161l0.19-0.151l0.196-0.141l0.203-0.131l0.208-0.121l0.214-0.11l0.219-0.1l0.223-0.089l0.228-0.079
	l0.229-0.068l0.232-0.056l0.236-0.045l0.237-0.034l0.239-0.022l0.24-0.012l0.241,0l0.241,0.012l0.24,0.024l0.241,0.036l0.238,0.048
	l0.238,0.061l0.236,0.072l0.234,0.085l0.232,0.097l0.229,0.11l0.237,0.129l0.061,0.036l0.069,0.042l0.069,0.044l0.068,0.045
	l0.067,0.046l0.067,0.047l0.065,0.048l0.065,0.049l0.064,0.05l0.063,0.052l0.063,0.052L48.5,2.674l0.061,0.054l0.061,0.055
	L48.68,2.84l0.058,0.057l0.058,0.058l0.057,0.059l0.055,0.06l0.055,0.061l0.053,0.062l0.053,0.063l0.051,0.063l0.05,0.064
	l0.05,0.065l0.048,0.066l0.047,0.067l0.047,0.068l0.044,0.068l0.045,0.069l0.042,0.07l0.045,0.075l1.42,2.461h0.002l29.101,50.402
	l0.001,0.003l8.253,14.295l0.043,0.076l0.039,0.072l0.038,0.072l0.037,0.073l0.035,0.073l0.034,0.073l0.033,0.075l0.032,0.075
	l0.03,0.076l0.029,0.075l0.028,0.077l0.026,0.077l0.025,0.077l0.024,0.077l0.023,0.078l0.021,0.079l0.021,0.078l0.02,0.08
	l0.018,0.079l0.017,0.08l0.015,0.08l0.015,0.08l0.013,0.08l0.011,0.081l0.01,0.081l0.009,0.081l0.008,0.081l0.006,0.082l0.005,0.082
	l0.003,0.082l0.002,0.081l0.001,0.069l-0.007,0.271l-0.02,0.254l-0.031,0.25l-0.044,0.245l-0.056,0.241l-0.067,0.235l-0.078,0.232
	l-0.089,0.226l-0.1,0.221l-0.11,0.215l-0.12,0.209l-0.13,0.202l-0.139,0.195l-0.148,0.189l-0.157,0.181l-0.166,0.174l-0.173,0.165
	l-0.182,0.157l-0.188,0.148l-0.196,0.14l-0.202,0.13l-0.209,0.12l-0.215,0.11l-0.222,0.1l-0.226,0.089l-0.231,0.078l-0.236,0.067
	l-0.24,0.056l-0.246,0.044l-0.249,0.031l-0.254,0.02l-0.276,0.007H68.33H45.258H20.029v0.001H6.462l-0.277-0.007l-0.256-0.02
	l-0.251-0.031l-0.247-0.045l-0.242-0.056L4.95,78.36l-0.232-0.079l-0.227-0.089l-0.221-0.1l-0.216-0.111l-0.209-0.119l-0.204-0.13
	l-0.196-0.14l-0.189-0.148l-0.182-0.157l-0.174-0.165l-0.166-0.174l-0.157-0.182l-0.148-0.188l-0.14-0.195l-0.13-0.202l-0.12-0.209
	l-0.11-0.215l-0.1-0.221L1.74,75.311l-0.079-0.231l-0.067-0.236l-0.056-0.24l-0.043-0.245l-0.032-0.25l-0.019-0.254l-0.007-0.271
	l0-0.069l0.002-0.082l0.003-0.082l0.005-0.081l0.006-0.082l0.007-0.081l0.009-0.081l0.01-0.081l0.011-0.081l0.013-0.08l0.014-0.081
	l0.015-0.079l0.017-0.08l0.019-0.08l0.019-0.079l0.02-0.079l0.022-0.078l0.023-0.078l0.024-0.077l0.025-0.078l0.027-0.076
	l0.028-0.077l0.029-0.076l0.031-0.075l0.032-0.075l0.033-0.075l0.035-0.074l0.036-0.073l0.037-0.073l0.038-0.072l0.039-0.072
	l0.043-0.076l0.527-0.913v-0.001L39.478,6.37h0.003l1.399-2.424L41.024,3.71z"/>
<path fill-rule="evenodd" clip-rule="evenodd" d="M54.011,52.961l1.972,3.259l-3.887-0.42C52.42,54.662,53.102,53.672,54.011,52.961
	z M45.683,55.669l-7.953-5.743l0.673-1.329l11.975,0.021l-3.18,6.644C46.64,55.166,46.078,55.332,45.683,55.669z M30.598,62.164
	c-1.699-0.765-2.803-2.206-3.166-4.085c-0.114-1.676,0.108-3.009,1.312-4.316c0.803-1.003,2.021-1.567,3.224-1.804
	c1.025-0.063,2.144-0.054,3.252,0.585l-0.929,1.904c-0.291,0.563-0.697,1.705-1.289,1.885c-0.229,0.087-0.368-0.05-0.683,0.091
	c-0.443,0.236-0.613,0.651-0.495,1.058c0.111,0.323,0.32,0.573,0.801,0.645c0.557,0,0.993-0.525,0.866-1.09
	c0.755-0.266,1.458-1.563,2.015-2.562l0.671-1.33c0.564,0.479,1.381,1.485,1.558,2.2c0.414,1.084,0.435,1.792,0.277,2.874
	c-0.247,1.458-1.139,2.704-2.145,3.416C34.397,62.527,32.828,63.044,30.598,62.164z M55.016,52.336l0.004,0.006l-0.013,0.005
	l1.238,2.012l1.239,2.013c0.573,0.058,0.851,0.515,0.822,0.926c-0.026,0.428-0.339,0.778-0.825,0.808l-1.617,0.151h-0.002
	l-3.823,0.357c0.584,2.424,2.767,4.225,5.37,4.225c3.051,0,5.523-2.474,5.523-5.523c0-3.051-2.473-5.524-5.523-5.524
	C56.552,51.792,55.739,51.987,55.016,52.336z M51.012,55.701c0.054-0.211,0.117-0.417,0.189-0.618
	c0.357-1.079,0.888-1.848,1.724-2.604c0.134-0.124,0.272-0.243,0.416-0.355c0.035-0.028,0.07-0.057,0.106-0.085l-1.951-3.241
	l-3.187,6.596L51.012,55.701z M57.409,50.72c3.643,0,6.597,2.954,6.597,6.597s-2.954,6.596-6.597,6.596
	c-3.156,0-5.795-2.217-6.443-5.179l0,0l-0.005-0.018l-1.104,0.125l0,0l-2.941,0.334c-0.839-0.074-1.235-0.339-1.696-1.005
	c-0.284-0.432-0.291-0.905-0.209-1.412l-7.854-5.672l-0.443,0.91c2.013,1.489,2.833,3.645,2.679,6.024
	c-0.13,1.395-0.812,2.65-1.717,3.729c-1.196,1.326-2.945,2.011-4.614,2.104c-1.55,0.175-3.448-0.587-4.585-1.58
	c-1.217-1.045-2.07-2.734-2.25-4.308c-0.125-1.761,0.26-3.31,1.415-4.749c1.058-1.374,2.233-2.077,4.342-2.493
	c1.359-0.209,2.804,0.198,3.779,0.681l2.475-4.952l-1.974-1.025c-0.491-0.211-0.814-0.614-0.946-0.999
	C35.15,43.614,35.4,43.23,35.7,42.882c0.271-0.312,0.814-0.557,1.352-0.471l2.92,0.498c0.351,0.136,0.416,0.334,0.387,0.662
	c-0.1,0.244-0.255,0.373-0.599,0.348l-2.922-0.502c-0.198-0.041-0.43,0.059-0.512,0.291c-0.092,0.318,0.109,0.537,0.254,0.589
	l3.135,1.626l-0.732,1.524l12.113-0.025l0.341-0.939l-3.095-0.967l0.361-0.764c0.184-0.207,0.396-0.323,0.746-0.33l1.994-0.022
	l2.695-0.034c0.464,0.027,0.551,0.357,0.271,0.844c-0.275,0.514-0.769,0.9-1.29,1.262l-0.5,0.007l-0.505,1.071l1.827,3.02
	l0.504,0.833l0.002-0.001l0.01,0.016C55.345,50.971,56.348,50.72,57.409,50.72z"/>
<path fill="none" stroke="#231F20" stroke-width="0.0216" stroke-miterlimit="22.9256" d="M54.011,52.961l1.972,3.259l-3.887-0.42
	C52.42,54.662,53.102,53.672,54.011,52.961z M45.683,55.669l-7.953-5.743l0.673-1.329l11.975,0.021l-3.18,6.644
	C46.64,55.166,46.078,55.332,45.683,55.669z M30.598,62.164c-1.699-0.765-2.803-2.206-3.166-4.085
	c-0.114-1.676,0.108-3.009,1.312-4.316c0.803-1.003,2.021-1.567,3.224-1.804c1.025-0.063,2.144-0.054,3.252,0.585l-0.929,1.904
	c-0.291,0.563-0.697,1.705-1.289,1.885c-0.229,0.087-0.368-0.05-0.683,0.091c-0.443,0.236-0.613,0.651-0.495,1.058
	c0.111,0.323,0.32,0.573,0.801,0.645c0.557,0,0.993-0.525,0.866-1.09c0.755-0.266,1.458-1.563,2.015-2.562l0.671-1.33
	c0.564,0.479,1.381,1.485,1.558,2.2c0.414,1.084,0.435,1.792,0.277,2.874c-0.247,1.458-1.139,2.704-2.145,3.416
	C34.397,62.527,32.828,63.044,30.598,62.164z M55.016,52.336l0.004,0.006l-0.013,0.005l1.238,2.012l1.239,2.013
	c0.573,0.058,0.851,0.515,0.822,0.926c-0.026,0.428-0.339,0.778-0.825,0.808l-1.617,0.151h-0.002l-3.823,0.357
	c0.584,2.424,2.767,4.225,5.37,4.225c3.051,0,5.523-2.474,5.523-5.523c0-3.051-2.473-5.524-5.523-5.524
	C56.552,51.792,55.739,51.987,55.016,52.336z M51.012,55.701c0.054-0.211,0.117-0.417,0.189-0.618
	c0.357-1.079,0.888-1.848,1.724-2.604c0.134-0.124,0.272-0.243,0.416-0.355c0.035-0.028,0.07-0.057,0.106-0.085l-1.951-3.241
	l-3.187,6.596L51.012,55.701z M57.409,50.72c3.643,0,6.597,2.954,6.597,6.597s-2.954,6.596-6.597,6.596
	c-3.156,0-5.795-2.217-6.443-5.179l0,0l-0.005-0.018l-1.104,0.125l0,0l-2.941,0.334c-0.839-0.074-1.235-0.339-1.696-1.005
	c-0.284-0.432-0.291-0.905-0.209-1.412l-7.854-5.672l-0.443,0.91c2.013,1.489,2.833,3.645,2.679,6.024
	c-0.13,1.395-0.812,2.65-1.717,3.729c-1.196,1.326-2.945,2.011-4.614,2.104c-1.55,0.175-3.448-0.587-4.585-1.58
	c-1.217-1.045-2.07-2.734-2.25-4.308c-0.125-1.761,0.26-3.31,1.415-4.749c1.058-1.374,2.233-2.077,4.342-2.493
	c1.359-0.209,2.804,0.198,3.779,0.681l2.475-4.952l-1.974-1.025c-0.491-0.211-0.814-0.614-0.946-0.999
	C35.15,43.614,35.4,43.23,35.7,42.882c0.271-0.312,0.814-0.557,1.352-0.471l2.92,0.498c0.351,0.136,0.416,0.334,0.387,0.662
	c-0.1,0.244-0.255,0.373-0.599,0.348l-2.922-0.502c-0.198-0.041-0.43,0.059-0.512,0.291c-0.092,0.318,0.109,0.537,0.254,0.589
	l3.135,1.626l-0.732,1.524l12.113-0.025l0.341-0.939l-3.095-0.967l0.361-0.764c0.184-0.207,0.396-0.323,0.746-0.33l1.994-0.022
	l2.695-0.034c0.464,0.027,0.551,0.357,0.271,0.844c-0.275,0.514-0.769,0.9-1.29,1.262l-0.5,0.007l-0.505,1.071l1.827,3.02
	l0.504,0.833l0.002-0.001l0.01,0.016C55.345,50.971,56.348,50.72,57.409,50.72z"/>
</svg>
