<?xml version="1.0" encoding="UTF-8"?>
<!DOCTYPE svg PUBLIC "-//W3C//DTD SVG 1.1//EN" "http://www.w3.org/Graphics/SVG/1.1/DTD/svg11.dtd">
<!-- Creator: CorelDRAW X6 -->
<svg xmlns="http://www.w3.org/2000/svg" xml:space="preserve" width="36mm" height="31.5mm" version="1.1" style="shape-rendering:geometricPrecision; text-rendering:geometricPrecision; image-rendering:optimizeQuality; fill-rule:evenodd; clip-rule:evenodd"
viewBox="0 0 3600 3150"
 xmlns:xlink="http://www.w3.org/1999/xlink">
 <defs>
  <style type="text/css">
   <![CDATA[
    .fil1 {fill:#212220}
    .fil0 {fill:red}
   ]]>
  </style>
 </defs>
 <g id="Layer_x0020_1">
  <metadata id="CorelCorpID_0Corel-Layer"/>
  <path class="fil0" d="M1603 93l6 -9 6 -8 7 -8 7 -7 7 -7 7 -7 8 -6 8 -6 8 -5 8 -5 9 -4 9 -4 9 -4 9 -3 9 -3 9 -2 10 -2 10 -1 10 -1 10 0 10 0 10 1 10 1 10 1 10 2 10 2 10 3 10 3 9 4 9 4 10 5 2 1 3 2 3 2 3 2 3 2 3 2 3 2 3 2 3 2 3 2 3 2 3 2 2 2 2 2 2 2 2 2 2 2 2 2 2 2 2 2 2 3 2 3 2 3 2 3 2 3 2 3 2 3 2 3 2 3 2 3 2 3 2 3 58 100 0 0 1179 2041 0 0 334 579 2 3 2 3 2 3 1 3 1 3 1 3 1 3 1 3 1 3 1 3 1 3 1 3 1 3 1 3 1 3 1 3 1 3 1 3 1 3 1 3 1 3 1 3 1 3 0 3 0 3 0 3 0 3 0 3 0 3 0 3 0 3 0 3 0 11 -1 10 -1 10 -2 10 -2 10 -3 10 -3 9 -4 9 -4 9 -4 9 -5 8 -5 8 -6 8 -6 8 -6 7 -7 7 -7 7 -7 6 -8 6 -8 6 -8 5 -8 5 -9 4 -9 4 -9 4 -9 3 -10 3 -10 2 -10 2 -10 1 -10 1 -11 0 -634 0 0 0 -934 0 -1022 0 0 0 -549 0 -11 0 -10 -1 -10 -1 -10 -2 -10 -2 -10 -3 -9 -3 -9 -4 -9 -4 -9 -4 -8 -5 -8 -5 -8 -6 -8 -6 -7 -6 -7 -7 -7 -7 -6 -7 -6 -8 -6 -8 -5 -8 -5 -8 -4 -9 -4 -9 -4 -9 -3 -9 -3 -10 -2 -10 -2 -10 -1 -10 -1 -10 0 -11 0 -3 0 -3 0 -3 0 -3 0 -3 0 -3 0 -3 0 -3 0 -3 1 -3 1 -3 1 -3 1 -3 1 -3 1 -3 1 -3 1 -3 1 -3 1 -3 1 -3 1 -3 1 -3 1 -3 1 -3 1 -3 1 -3 1 -3 1 -3 1 -3 2 -3 2 -3 2 -3 21 -37 0 0 1492 -2584 0 0 57 -98 6 -10zm-1041 2623l1211 -2097 1045 1809 0 0 166 288 -528 0 0 0 -681 0 -1213 0z"/>
  <path class="fil1" d="M2090 2415c28,0 50,23 50,51 0,28 -23,51 -50,51 -28,0 -51,-23 -51,-51 0,-28 23,-51 51,-51z"/>
  <path class="fil1" d="M2214 2415c28,0 50,23 50,51 0,28 -23,51 -50,51 -28,0 -51,-23 -51,-51 0,-28 23,-51 51,-51z"/>
  <path class="fil1" d="M1361 2415c28,0 50,23 50,51 0,28 -23,51 -50,51 -28,0 -51,-23 -51,-51 0,-28 23,-51 51,-51z"/>
  <path class="fil1" d="M1486 2415c28,0 50,23 50,51 0,28 -23,51 -50,51 -28,0 -51,-23 -51,-51 0,-28 23,-51 51,-51z"/>
  <path class="fil1" d="M1885 1945l82 -105 -187 -157 -177 157 75 105 206 0zm-13 -18l68 -87 -161 -132 -149 132 62 88 181 0z"/>
  <path class="fil1" d="M1434 1991l-397 1 -1 58 11 0 -45 168 0 230 90 17 196 0 23 -61 226 0 25 61 448 0 32 -62 226 0 25 62 180 0 94 -18 0 -227 -59 -228 -391 0 -46 -36 -561 0c-18,9 -60,23 -76,35zm857 58l-175 0 0 152 175 0 0 -152zm-208 0l-175 0 0 152 175 0 0 -152zm-208 0l-175 0 0 152 175 0 0 -152zm-208 0l-175 0 0 152 175 0 0 -152zm-207 0l-175 0 0 152 175 0 0 -152zm-432 152l38 -152 24 0 0 152 -62 0zm146 -123l-48 0 0 356 48 0 0 -356zm71 0l-48 0 0 356 48 0 0 -356zm1129 0l-48 0 0 356 48 0 0 -356zm70 0l-48 0 0 356 48 0 0 -356zm91 123l-38 -152 -24 0 0 152 62 0z"/>
 </g>
</svg>
