<?xml version="1.0" encoding="UTF-8"?>
<!DOCTYPE svg PUBLIC "-//W3C//DTD SVG 1.1//EN" "http://www.w3.org/Graphics/SVG/1.1/DTD/svg11.dtd">
<!-- Creator: CorelDRAW X6 -->
<svg xmlns="http://www.w3.org/2000/svg" xml:space="preserve" width="36mm" height="31.5mm" version="1.1" style="shape-rendering:geometricPrecision; text-rendering:geometricPrecision; image-rendering:optimizeQuality; fill-rule:evenodd; clip-rule:evenodd"
viewBox="0 0 3600 3150"
 xmlns:xlink="http://www.w3.org/1999/xlink">
 <defs>
  <style type="text/css">
   <![CDATA[
    .fil1 {fill:#2B2A29}
    .fil0 {fill:red}
   ]]>
  </style>
 </defs>
 <g id="Layer_x0020_1">
  <metadata id="CorelCorpID_0Corel-Layer"/>
  <path class="fil0" d="M1604 93l6 -9 6 -8 7 -8 7 -7 7 -7 7 -7 8 -6 8 -6 8 -5 8 -5 9 -4 9 -4 9 -4 9 -3 9 -3 9 -2 10 -2 10 -1 10 -1 10 0 10 0 10 1 10 1 10 1 10 2 10 2 10 3 10 3 9 4 9 4 10 5 2 1 3 2 3 2 3 2 3 2 3 2 3 2 3 2 3 2 3 2 3 2 3 2 2 2 2 2 2 2 2 2 2 2 2 2 2 2 2 2 2 3 2 3 2 3 2 3 2 3 2 3 2 3 2 3 2 3 2 3 2 3 2 3 58 100 0 0 1179 2041 0 0 334 579 2 3 2 3 2 3 1 3 1 3 1 3 1 3 1 3 1 3 1 3 1 3 1 3 1 3 1 3 1 3 1 3 1 3 1 3 1 3 1 3 1 3 1 3 1 3 0 3 0 3 0 3 0 3 0 3 0 3 0 3 0 3 0 3 0 11 -1 10 -1 10 -2 10 -2 10 -3 10 -3 9 -4 9 -4 9 -4 9 -5 8 -5 8 -6 8 -6 8 -6 7 -7 7 -7 7 -7 6 -8 6 -8 6 -8 5 -8 5 -9 4 -9 4 -9 4 -9 3 -10 3 -10 2 -10 2 -10 1 -10 1 -11 0 -634 0 0 0 -934 0 -1022 0 0 0 -549 0 -11 0 -10 -1 -10 -1 -10 -2 -10 -2 -10 -3 -9 -3 -9 -4 -9 -4 -9 -4 -8 -5 -8 -5 -8 -6 -8 -6 -7 -6 -7 -7 -7 -7 -6 -7 -6 -8 -6 -8 -5 -8 -5 -8 -4 -9 -4 -9 -4 -9 -3 -9 -3 -10 -2 -10 -2 -10 -1 -10 -1 -10 0 -11 0 -3 0 -3 0 -3 0 -3 0 -3 0 -3 0 -3 0 -3 0 -3 1 -3 1 -3 1 -3 1 -3 1 -3 1 -3 1 -3 1 -3 1 -3 1 -3 1 -3 1 -3 1 -3 1 -3 1 -3 1 -3 1 -3 1 -3 1 -3 1 -3 2 -3 2 -3 2 -3 21 -37 0 0 1492 -2584 0 0 57 -98 6 -10zm-1041 2623l1211 -2097 1045 1809 0 0 166 288 -528 0 0 0 -681 0 -1213 0z"/>
  <path class="fil1" d="M2187 2521c124,-40 101,-229 -31,-229 -132,0 -161,188 -37,229l-187 0c127,-37 100,-229 -34,-229 -133,0 -162,190 -36,229l-188 0c125,-40 96,-229 -37,-229 -132,0 -162,186 -38,229 -65,0 -118,0 -183,0 47,-15 80,-61 80,-112 0,-65 -53,-117 -117,-117 -133,0 -157,189 -31,229l-211 0c80,-17 67,-137 -15,-137 -81,0 -95,119 -16,137l-251 0 0 50 1805 0 0 -50 -472 0z"/>
  <path class="fil1" d="M2026 2162l0 -394 356 0 0 53 -95 0 0 342 -261 0zm53 -239l0 -104 155 0 0 104 -155 0z"/>
  <path class="fil1" d="M1175 2160l-61 -138 66 -149 86 0 0 -112 18 0c0,-121 57,-243 173,-236 -53,-71 27,-168 120,-143 -9,-85 37,-151 119,-170 -131,-270 242,-356 287,-150 19,68 -9,118 -52,168 34,0 78,15 107,59 53,91 -34,197 -96,173 -13,93 -122,109 -177,45 -19,85 -112,121 -185,78 -48,136 -191,36 -221,176l26 0 0 112 209 0c28,-80 155,-77 178,0l223 0 0 289 -817 0 -3 -3z"/>
  <polygon class="fil1" points="2287,2378 2287,2276 1218,2276 1218,2378 1014,2378 1014,2292 1069,2292 1170,2190 1284,2191 2372,2190 2373,2379 "/>
 </g>
</svg>
