<?xml version="1.0" encoding="UTF-8"?>
<!DOCTYPE svg PUBLIC "-//W3C//DTD SVG 1.1//EN" "http://www.w3.org/Graphics/SVG/1.1/DTD/svg11.dtd">
<!-- Creator: CorelDRAW X6 -->
<svg xmlns="http://www.w3.org/2000/svg" xml:space="preserve" width="27mm" height="17.3mm" version="1.1" style="shape-rendering:geometricPrecision; text-rendering:geometricPrecision; image-rendering:optimizeQuality; fill-rule:evenodd; clip-rule:evenodd"
viewBox="0 0 2700 1730"
 xmlns:xlink="http://www.w3.org/1999/xlink">
 <defs>
  <style type="text/css">
   <![CDATA[
    .fil0 {fill:red}
   ]]>
  </style>
 </defs>
 <g id="Layer_x0020_1">
  <metadata id="CorelCorpID_0Corel-Layer"/>
  <path class="fil0" d="M2595 1318l83 311 -311 83 -1027 -593 -1027 593 -311 -83 83 -311 800 -462 -800 -462 -83 -311 311 -83 1027 593 1027 -593 311 83 -83 311 -800 462 800 462zm-2299 -1196l-156 42 42 156 6 3 924 533 -114 66 0 0 -816 471 -42 156 156 42 1043 -602 1043 602 156 -42 -42 -156 -930 -537 930 -537 42 -156 -156 -42 -1043 602 -1043 -602z"/>
 </g>
</svg>
