<?xml version="1.0" encoding="UTF-8"?>
<!DOCTYPE svg PUBLIC "-//W3C//DTD SVG 1.1//EN" "http://www.w3.org/Graphics/SVG/1.1/DTD/svg11.dtd">
<!-- Creator: CorelDRAW X6 -->
<svg xmlns="http://www.w3.org/2000/svg" xml:space="preserve" width="7.5mm" height="15.4mm" version="1.1" style="shape-rendering:geometricPrecision; text-rendering:geometricPrecision; image-rendering:optimizeQuality; fill-rule:evenodd; clip-rule:evenodd"
viewBox="0 0 750 1540"
 xmlns:xlink="http://www.w3.org/1999/xlink">
 <defs>
  <style type="text/css">
   <![CDATA[
    .fil0 {fill:#2B2A29}
    .fil1 {fill:red}
   ]]>
  </style>
 </defs>
 <g id="Layer_x0020_1">
  <metadata id="CorelCorpID_0Corel-Layer"/>
  <path class="fil0" d="M742 1444l0 -1350c0,-51 -40,-92 -89,-92l-563 0c-49,0 -89,41 -89,92l0 1350c0,51 40,92 89,92l563 0c49,0 89,-41 89,-92zm-26 -8l0 -1334c0,-41 -31,-74 -69,-74l-550 0c-38,0 -69,33 -69,74l0 1334c0,41 31,74 69,74l550 0c38,0 69,-33 69,-74z"/>
  <polygon class="fil1" points="679,846 65,1201 65,1031 65,1031 679,676 "/>
  <polygon class="fil1" points="679,506 65,861 65,691 65,690 679,336 "/>
 </g>
</svg>
