<?xml version="1.0" encoding="UTF-8"?>
<!DOCTYPE svg PUBLIC "-//W3C//DTD SVG 1.1//EN" "http://www.w3.org/Graphics/SVG/1.1/DTD/svg11.dtd">
<!-- Creator: CorelDRAW X6 -->
<svg xmlns="http://www.w3.org/2000/svg" xml:space="preserve" width="36mm" height="31.5mm" version="1.1" style="shape-rendering:geometricPrecision; text-rendering:geometricPrecision; image-rendering:optimizeQuality; fill-rule:evenodd; clip-rule:evenodd"
viewBox="0 0 3600 3150"
 xmlns:xlink="http://www.w3.org/1999/xlink">
 <defs>
  <style type="text/css">
   <![CDATA[
    .str0 {stroke:black;stroke-width:7.62}
    .fil1 {fill:black}
    .fil0 {fill:red}
   ]]>
  </style>
 </defs>
 <g id="Layer_x0020_1">
  <metadata id="CorelCorpID_0Corel-Layer"/>
  <path class="fil0" d="M1613 93l6 -9 6 -8 7 -8 7 -7 7 -7 7 -7 8 -6 8 -6 8 -5 8 -5 9 -5 9 -4 9 -4 9 -3 9 -3 9 -2 10 -2 10 -1 10 -1 10 0 10 0 10 0 10 1 10 1 10 2 10 2 10 3 10 3 9 4 9 4 10 5 2 1 3 2 3 2 3 2 3 2 3 2 3 2 3 2 3 2 3 2 3 2 3 2 2 2 2 2 2 2 2 2 2 2 2 2 2 2 2 2 2 3 2 3 2 3 2 3 2 3 2 3 2 3 2 3 2 3 2 3 2 3 2 3 58 100 0 0 1184 2051 0 0 336 582 2 3 2 3 2 3 2 3 1 3 1 3 1 3 1 3 1 3 1 3 1 3 1 3 1 3 1 3 1 3 1 3 1 3 1 3 1 3 1 3 1 3 1 3 1 3 0 3 0 3 0 3 0 3 0 3 0 3 0 3 0 3 0 3 0 11 -1 10 -1 10 -2 10 -2 10 -3 10 -3 9 -4 9 -4 9 -4 9 -5 9 -5 8 -6 8 -6 8 -6 7 -7 7 -7 7 -7 6 -8 6 -8 6 -8 5 -9 5 -9 4 -9 4 -9 4 -9 3 -10 3 -10 2 -10 2 -10 1 -10 1 -11 0 -636 0 0 0 -939 0 -1026 0 0 0 -552 0 -11 0 -10 -1 -10 -1 -10 -2 -10 -2 -10 -3 -9 -3 -9 -4 -9 -4 -9 -4 -9 -5 -8 -5 -8 -6 -8 -6 -7 -6 -7 -7 -7 -7 -6 -7 -6 -8 -6 -8 -5 -8 -5 -9 -4 -9 -4 -9 -4 -9 -3 -9 -3 -10 -2 -10 -2 -10 -1 -10 -1 -10 0 -11 0 -3 0 -3 0 -3 0 -3 0 -3 0 -3 0 -3 0 -3 0 -3 1 -3 1 -3 1 -3 1 -3 1 -3 1 -3 1 -3 1 -3 1 -3 1 -3 1 -3 1 -3 1 -3 1 -3 1 -3 1 -3 1 -3 1 -3 1 -3 1 -3 2 -3 2 -3 2 -3 21 -37 0 0 1499 -2596 0 0 57 -99 6 -10zm-1046 2634l1216 -2107 1049 1818 0 0 167 289 -530 0 0 0 -684 0 -1218 0z"/>
  <path class="fil1 str0" d="M2387 2615l-15 -22 1 -68c-88,5 -170,8 -267,9 -104,-1 -166,-3 -269,-9l0 68 -16 22 -91 0 -15 -22 0 -167 782 0 0 168 -15 21 -95 0zm-648 -389c-62,-1 -106,-3 -172,-7l0 51 -12 16 -68 0 -11 -17 0 -124 303 0c5,-7 10,-15 16,-23l2 -3 -321 0 0 -60c4,-15 7,-28 11,-41 -7,0 -13,0 -20,0 -58,0 -93,-2 -151,-5l0 38 -9 12 -51 0 -9 -13 0 -94 264 0c1,-3 12,-20 12,-20l-276 0 0 -45c11,-42 21,-72 45,-105l37 -51 137 -5 140 6 36 50c15,24 24,41 31,62l92 -3 185 7 48 67c24,39 36,64 49,105l57 -2 249 10 64 90c41,67 57,104 80,189l-1 78 -782 0 0 -81c8,-31 15,-58 25,-84zm-454 -386c15,-31 36,-62 58,-89l123 -5 124 5c25,25 44,60 58,91 -61,-7 -129,-8 -182,-8 -48,0 -119,2 -181,6zm240 150c20,-41 47,-82 77,-118l163 -7 164 7c34,33 58,80 77,121 -81,-9 -171,-11 -242,-11 -64,-1 -157,2 -240,8zm256 226c27,-56 63,-111 104,-159l219 -9 221 9c45,44 79,107 104,162 -109,-12 -230,-15 -325,-14 -86,-1 -211,3 -323,11z"/>
 </g>
</svg>
